solid CATIA STL
  facet normal  -0.000000e+000  9.807854e-001  1.950891e-001
    outer loop
      vertex -2.000000e+000 -8.194266e+001  2.886352e+001
      vertex -4.500000e+000 -8.194266e+001  2.886352e+001
      vertex -2.000000e+000 -8.213296e+001  2.982023e+001
    endloop
  endfacet
  facet normal  0.000000e+000  9.807854e-001  1.950891e-001
    outer loop
      vertex -2.000000e+000 -8.213296e+001  2.982023e+001
      vertex -4.500000e+000 -8.194266e+001  2.886352e+001
      vertex -4.500000e+000 -8.213296e+001  2.982023e+001
    endloop
  endfacet
  facet normal  -0.000000e+000  8.314699e-001  5.555699e-001
    outer loop
      vertex -2.000000e+000 -8.213296e+001  2.982023e+001
      vertex -4.500000e+000 -8.213296e+001  2.982023e+001
      vertex -2.000000e+000 -8.267489e+001  3.063128e+001
    endloop
  endfacet
  facet normal  0.000000e+000  8.314699e-001  5.555699e-001
    outer loop
      vertex -2.000000e+000 -8.267489e+001  3.063128e+001
      vertex -4.500000e+000 -8.213296e+001  2.982023e+001
      vertex -4.500000e+000 -8.267489e+001  3.063128e+001
    endloop
  endfacet
  facet normal  -0.000000e+000  5.555699e-001  8.314699e-001
    outer loop
      vertex -2.000000e+000 -8.267489e+001  3.063128e+001
      vertex -4.500000e+000 -8.267489e+001  3.063128e+001
      vertex -2.000000e+000 -8.348595e+001  3.117322e+001
    endloop
  endfacet
  facet normal  0.000000e+000  5.555699e-001  8.314699e-001
    outer loop
      vertex -2.000000e+000 -8.348595e+001  3.117322e+001
      vertex -4.500000e+000 -8.267489e+001  3.063128e+001
      vertex -4.500000e+000 -8.348595e+001  3.117322e+001
    endloop
  endfacet
  facet normal  -0.000000e+000  1.950906e-001  9.807853e-001
    outer loop
      vertex -2.000000e+000 -8.348595e+001  3.117322e+001
      vertex -4.500000e+000 -8.348595e+001  3.117322e+001
      vertex -2.000000e+000 -8.444266e+001  3.136352e+001
    endloop
  endfacet
  facet normal  0.000000e+000  1.950906e-001  9.807853e-001
    outer loop
      vertex -2.000000e+000 -8.444266e+001  3.136352e+001
      vertex -4.500000e+000 -8.348595e+001  3.117322e+001
      vertex -4.500000e+000 -8.444266e+001  3.136352e+001
    endloop
  endfacet
  facet normal  0.000000e+000 -1.950906e-001  9.807853e-001
    outer loop
      vertex -2.000000e+000 -8.444266e+001  3.136352e+001
      vertex -4.500000e+000 -8.444266e+001  3.136352e+001
      vertex -2.000000e+000 -8.539937e+001  3.117322e+001
    endloop
  endfacet
  facet normal  0.000000e+000 -1.950906e-001  9.807853e-001
    outer loop
      vertex -2.000000e+000 -8.539937e+001  3.117322e+001
      vertex -4.500000e+000 -8.444266e+001  3.136352e+001
      vertex -4.500000e+000 -8.539937e+001  3.117322e+001
    endloop
  endfacet
  facet normal  0.000000e+000 -5.555699e-001  8.314699e-001
    outer loop
      vertex -2.000000e+000 -8.539937e+001  3.117322e+001
      vertex -4.500000e+000 -8.539937e+001  3.117322e+001
      vertex -2.000000e+000 -8.621043e+001  3.063128e+001
    endloop
  endfacet
  facet normal  0.000000e+000 -5.555699e-001  8.314699e-001
    outer loop
      vertex -2.000000e+000 -8.621043e+001  3.063128e+001
      vertex -4.500000e+000 -8.539937e+001  3.117322e+001
      vertex -4.500000e+000 -8.621043e+001  3.063128e+001
    endloop
  endfacet
  facet normal  0.000000e+000 -8.314699e-001  5.555699e-001
    outer loop
      vertex -2.000000e+000 -8.621043e+001  3.063128e+001
      vertex -4.500000e+000 -8.621043e+001  3.063128e+001
      vertex -2.000000e+000 -8.675236e+001  2.982023e+001
    endloop
  endfacet
  facet normal  0.000000e+000 -8.314699e-001  5.555699e-001
    outer loop
      vertex -2.000000e+000 -8.675236e+001  2.982023e+001
      vertex -4.500000e+000 -8.621043e+001  3.063128e+001
      vertex -4.500000e+000 -8.675236e+001  2.982023e+001
    endloop
  endfacet
  facet normal  0.000000e+000 -9.807854e-001  1.950891e-001
    outer loop
      vertex -2.000000e+000 -8.675236e+001  2.982023e+001
      vertex -4.500000e+000 -8.675236e+001  2.982023e+001
      vertex -2.000000e+000 -8.694266e+001  2.886352e+001
    endloop
  endfacet
  facet normal  0.000000e+000 -9.807854e-001  1.950891e-001
    outer loop
      vertex -2.000000e+000 -8.694266e+001  2.886352e+001
      vertex -4.500000e+000 -8.675236e+001  2.982023e+001
      vertex -4.500000e+000 -8.694266e+001  2.886352e+001
    endloop
  endfacet
  facet normal  0.000000e+000 -9.807854e-001 -1.950891e-001
    outer loop
      vertex -2.000000e+000 -8.694266e+001  2.886352e+001
      vertex -4.500000e+000 -8.694266e+001  2.886352e+001
      vertex -2.000000e+000 -8.675236e+001  2.790681e+001
    endloop
  endfacet
  facet normal  -0.000000e+000 -9.807854e-001 -1.950891e-001
    outer loop
      vertex -2.000000e+000 -8.675236e+001  2.790681e+001
      vertex -4.500000e+000 -8.694266e+001  2.886352e+001
      vertex -4.500000e+000 -8.675236e+001  2.790681e+001
    endloop
  endfacet
  facet normal  0.000000e+000 -8.314699e-001 -5.555699e-001
    outer loop
      vertex -2.000000e+000 -8.675236e+001  2.790681e+001
      vertex -4.500000e+000 -8.675236e+001  2.790681e+001
      vertex -2.000000e+000 -8.621043e+001  2.709575e+001
    endloop
  endfacet
  facet normal  -0.000000e+000 -8.314699e-001 -5.555699e-001
    outer loop
      vertex -2.000000e+000 -8.621043e+001  2.709575e+001
      vertex -4.500000e+000 -8.675236e+001  2.790681e+001
      vertex -4.500000e+000 -8.621043e+001  2.709575e+001
    endloop
  endfacet
  facet normal  0.000000e+000 -5.555713e-001 -8.314690e-001
    outer loop
      vertex -2.000000e+000 -8.621043e+001  2.709575e+001
      vertex -4.500000e+000 -8.621043e+001  2.709575e+001
      vertex -2.000000e+000 -8.539937e+001  2.655382e+001
    endloop
  endfacet
  facet normal  -0.000000e+000 -5.555713e-001 -8.314690e-001
    outer loop
      vertex -2.000000e+000 -8.539937e+001  2.655382e+001
      vertex -4.500000e+000 -8.621043e+001  2.709575e+001
      vertex -4.500000e+000 -8.539937e+001  2.655382e+001
    endloop
  endfacet
  facet normal  0.000000e+000 -1.950887e-001 -9.807856e-001
    outer loop
      vertex -2.000000e+000 -8.539937e+001  2.655382e+001
      vertex -4.500000e+000 -8.539937e+001  2.655382e+001
      vertex -2.000000e+000 -8.444266e+001  2.636352e+001
    endloop
  endfacet
  facet normal  -0.000000e+000 -1.950887e-001 -9.807856e-001
    outer loop
      vertex -2.000000e+000 -8.444266e+001  2.636352e+001
      vertex -4.500000e+000 -8.539937e+001  2.655382e+001
      vertex -4.500000e+000 -8.444266e+001  2.636352e+001
    endloop
  endfacet
  facet normal  0.000000e+000  1.950887e-001 -9.807856e-001
    outer loop
      vertex -2.000000e+000 -8.444266e+001  2.636352e+001
      vertex -4.500000e+000 -8.444266e+001  2.636352e+001
      vertex -2.000000e+000 -8.348595e+001  2.655382e+001
    endloop
  endfacet
  facet normal  0.000000e+000  1.950887e-001 -9.807856e-001
    outer loop
      vertex -2.000000e+000 -8.348595e+001  2.655382e+001
      vertex -4.500000e+000 -8.444266e+001  2.636352e+001
      vertex -4.500000e+000 -8.348595e+001  2.655382e+001
    endloop
  endfacet
  facet normal  0.000000e+000  5.555713e-001 -8.314690e-001
    outer loop
      vertex -2.000000e+000 -8.348595e+001  2.655382e+001
      vertex -4.500000e+000 -8.348595e+001  2.655382e+001
      vertex -2.000000e+000 -8.267489e+001  2.709575e+001
    endloop
  endfacet
  facet normal  0.000000e+000  5.555713e-001 -8.314690e-001
    outer loop
      vertex -2.000000e+000 -8.267489e+001  2.709575e+001
      vertex -4.500000e+000 -8.348595e+001  2.655382e+001
      vertex -4.500000e+000 -8.267489e+001  2.709575e+001
    endloop
  endfacet
  facet normal  0.000000e+000  8.314699e-001 -5.555699e-001
    outer loop
      vertex -2.000000e+000 -8.267489e+001  2.709575e+001
      vertex -4.500000e+000 -8.267489e+001  2.709575e+001
      vertex -2.000000e+000 -8.213296e+001  2.790681e+001
    endloop
  endfacet
  facet normal  0.000000e+000  8.314699e-001 -5.555699e-001
    outer loop
      vertex -2.000000e+000 -8.213296e+001  2.790681e+001
      vertex -4.500000e+000 -8.267489e+001  2.709575e+001
      vertex -4.500000e+000 -8.213296e+001  2.790681e+001
    endloop
  endfacet
  facet normal  0.000000e+000  9.807854e-001 -1.950891e-001
    outer loop
      vertex -2.000000e+000 -8.213296e+001  2.790681e+001
      vertex -4.500000e+000 -8.213296e+001  2.790681e+001
      vertex -2.000000e+000 -8.194266e+001  2.886352e+001
    endloop
  endfacet
  facet normal  0.000000e+000  9.807854e-001 -1.950891e-001
    outer loop
      vertex -2.000000e+000 -8.194266e+001  2.886352e+001
      vertex -4.500000e+000 -8.213296e+001  2.790681e+001
      vertex -4.500000e+000 -8.194266e+001  2.886352e+001
    endloop
  endfacet
  facet normal -1.000000e+000  0.000000e+000  0.000000e+000
    outer loop
      vertex -5.000000e+000 -8.367729e+001  3.071128e+001
      vertex -5.000000e+000 -8.520802e+001  3.071128e+001
      vertex -5.000000e+000 -8.444266e+001  3.086352e+001
    endloop
  endfacet
  facet normal -1.000000e+000  -0.000000e+000  0.000000e+000
    outer loop
      vertex -5.000000e+000 -8.520802e+001  3.071128e+001
      vertex -5.000000e+000 -8.367729e+001  3.071128e+001
      vertex -5.000000e+000 -8.585687e+001  3.027773e+001
    endloop
  endfacet
  facet normal -1.000000e+000  0.000000e+000  0.000000e+000
    outer loop
      vertex -5.000000e+000 -8.585687e+001  3.027773e+001
      vertex -5.000000e+000 -8.367729e+001  3.071128e+001
      vertex -5.000000e+000 -8.302844e+001  3.027773e+001
    endloop
  endfacet
  facet normal -9.999999e-001  -0.000000e+000  0.000000e+000
    outer loop
      vertex -5.000000e+000 -8.585687e+001  3.027773e+001
      vertex -5.000000e+000 -8.302844e+001  3.027773e+001
      vertex -5.000000e+000 -8.629041e+001  2.962888e+001
    endloop
  endfacet
  facet normal -1.000000e+000  0.000000e+000  0.000000e+000
    outer loop
      vertex -5.000000e+000 -8.629041e+001  2.962888e+001
      vertex -5.000000e+000 -8.302844e+001  3.027773e+001
      vertex -5.000000e+000 -8.259489e+001  2.962888e+001
    endloop
  endfacet
  facet normal -9.999999e-001  -0.000000e+000  0.000000e+000
    outer loop
      vertex -5.000000e+000 -8.629041e+001  2.962888e+001
      vertex -5.000000e+000 -8.259489e+001  2.962888e+001
      vertex -5.000000e+000 -8.644266e+001  2.886352e+001
    endloop
  endfacet
  facet normal -1.000000e+000  0.000000e+000  0.000000e+000
    outer loop
      vertex -5.000000e+000 -8.644266e+001  2.886352e+001
      vertex -5.000000e+000 -8.259489e+001  2.962888e+001
      vertex -5.000000e+000 -8.244266e+001  2.886352e+001
    endloop
  endfacet
  facet normal -9.999999e-001  -0.000000e+000  0.000000e+000
    outer loop
      vertex -5.000000e+000 -8.644266e+001  2.886352e+001
      vertex -5.000000e+000 -8.244266e+001  2.886352e+001
      vertex -5.000000e+000 -8.629041e+001  2.809815e+001
    endloop
  endfacet
  facet normal -9.999999e-001  0.000000e+000  0.000000e+000
    outer loop
      vertex -5.000000e+000 -8.629041e+001  2.809815e+001
      vertex -5.000000e+000 -8.244266e+001  2.886352e+001
      vertex -5.000000e+000 -8.259489e+001  2.809815e+001
    endloop
  endfacet
  facet normal -1.000000e+000  -0.000000e+000  0.000000e+000
    outer loop
      vertex -5.000000e+000 -8.629041e+001  2.809815e+001
      vertex -5.000000e+000 -8.259489e+001  2.809815e+001
      vertex -5.000000e+000 -8.585687e+001  2.744930e+001
    endloop
  endfacet
  facet normal -1.000000e+000  0.000000e+000  0.000000e+000
    outer loop
      vertex -5.000000e+000 -8.585687e+001  2.744930e+001
      vertex -5.000000e+000 -8.259489e+001  2.809815e+001
      vertex -5.000000e+000 -8.302844e+001  2.744930e+001
    endloop
  endfacet
  facet normal -1.000000e+000  -0.000000e+000  0.000000e+000
    outer loop
      vertex -5.000000e+000 -8.585687e+001  2.744930e+001
      vertex -5.000000e+000 -8.302844e+001  2.744930e+001
      vertex -5.000000e+000 -8.520802e+001  2.701576e+001
    endloop
  endfacet
  facet normal -1.000000e+000  0.000000e+000  0.000000e+000
    outer loop
      vertex -5.000000e+000 -8.520802e+001  2.701576e+001
      vertex -5.000000e+000 -8.302844e+001  2.744930e+001
      vertex -5.000000e+000 -8.367729e+001  2.701576e+001
    endloop
  endfacet
  facet normal -1.000000e+000  -0.000000e+000  0.000000e+000
    outer loop
      vertex -5.000000e+000 -8.520802e+001  2.701576e+001
      vertex -5.000000e+000 -8.367729e+001  2.701576e+001
      vertex -5.000000e+000 -8.444266e+001  2.686352e+001
    endloop
  endfacet
  facet normal -9.212144e-001 -3.815794e-001 -7.590260e-002
    outer loop
      vertex -5.000000e+000 -8.644266e+001  2.886352e+001
      vertex -5.000000e+000 -8.629041e+001  2.809815e+001
      vertex -4.853553e+000 -8.679621e+001  2.886352e+001
    endloop
  endfacet
  facet normal -9.212160e-001 -3.815759e-001 -7.589999e-002
    outer loop
      vertex -4.853553e+000 -8.679621e+001  2.886352e+001
      vertex -5.000000e+000 -8.629041e+001  2.809815e+001
      vertex -4.853553e+000 -8.661706e+001  2.796285e+001
    endloop
  endfacet
  facet normal -3.763800e-001 -9.086637e-001 -1.807441e-001
    outer loop
      vertex -4.853553e+000 -8.679621e+001  2.886352e+001
      vertex -4.853553e+000 -8.661706e+001  2.796285e+001
      vertex -4.500000e+000 -8.694266e+001  2.886352e+001
    endloop
  endfacet
  facet normal -3.763817e-001 -9.086632e-001 -1.807431e-001
    outer loop
      vertex -4.500000e+000 -8.694266e+001  2.886352e+001
      vertex -4.853553e+000 -8.661706e+001  2.796285e+001
      vertex -4.500000e+000 -8.675236e+001  2.790681e+001
    endloop
  endfacet
  facet normal -9.212129e-001  3.815835e-001 -7.589962e-002
    outer loop
      vertex -5.000000e+000 -8.259489e+001  2.809815e+001
      vertex -5.000000e+000 -8.244266e+001  2.886352e+001
      vertex -4.853553e+000 -8.226826e+001  2.796285e+001
    endloop
  endfacet
  facet normal -9.212145e-001  3.815794e-001 -7.590070e-002
    outer loop
      vertex -4.853553e+000 -8.226826e+001  2.796285e+001
      vertex -5.000000e+000 -8.244266e+001  2.886352e+001
      vertex -4.853553e+000 -8.208910e+001  2.886352e+001
    endloop
  endfacet
  facet normal -3.763818e-001  9.086630e-001 -1.807439e-001
    outer loop
      vertex -4.853553e+000 -8.226826e+001  2.796285e+001
      vertex -4.853553e+000 -8.208910e+001  2.886352e+001
      vertex -4.500000e+000 -8.213296e+001  2.790681e+001
    endloop
  endfacet
  facet normal -3.763800e-001  9.086639e-001 -1.807433e-001
    outer loop
      vertex -4.500000e+000 -8.213296e+001  2.790681e+001
      vertex -4.853553e+000 -8.208910e+001  2.886352e+001
      vertex -4.500000e+000 -8.194266e+001  2.886352e+001
    endloop
  endfacet
  facet normal -9.212144e-001  3.234867e-001 -2.161485e-001
    outer loop
      vertex -5.000000e+000 -8.302844e+001  2.744930e+001
      vertex -5.000000e+000 -8.259489e+001  2.809815e+001
      vertex -4.853553e+000 -8.277844e+001  2.719930e+001
    endloop
  endfacet
  facet normal -9.212133e-001  3.234897e-001 -2.161489e-001
    outer loop
      vertex -4.853553e+000 -8.277844e+001  2.719930e+001
      vertex -5.000000e+000 -8.259489e+001  2.809815e+001
      vertex -4.853553e+000 -8.226826e+001  2.796285e+001
    endloop
  endfacet
  facet normal -3.763820e-001  7.703271e-001 -5.147163e-001
    outer loop
      vertex -4.853553e+000 -8.277844e+001  2.719930e+001
      vertex -4.853553e+000 -8.226826e+001  2.796285e+001
      vertex -4.500000e+000 -8.267489e+001  2.709575e+001
    endloop
  endfacet
  facet normal -3.763808e-001  7.703277e-001 -5.147160e-001
    outer loop
      vertex -4.500000e+000 -8.267489e+001  2.709575e+001
      vertex -4.853553e+000 -8.226826e+001  2.796285e+001
      vertex -4.500000e+000 -8.213296e+001  2.790681e+001
    endloop
  endfacet
  facet normal -9.212148e-001  2.161467e-001 -3.234874e-001
    outer loop
      vertex -5.000000e+000 -8.367729e+001  2.701576e+001
      vertex -5.000000e+000 -8.302844e+001  2.744930e+001
      vertex -4.853553e+000 -8.354199e+001  2.668912e+001
    endloop
  endfacet
  facet normal -9.212143e-001  2.161474e-001 -3.234878e-001
    outer loop
      vertex -4.853553e+000 -8.354199e+001  2.668912e+001
      vertex -5.000000e+000 -8.302844e+001  2.744930e+001
      vertex -4.853553e+000 -8.277844e+001  2.719930e+001
    endloop
  endfacet
  facet normal -3.763856e-001  5.147150e-001 -7.703261e-001
    outer loop
      vertex -4.853553e+000 -8.354199e+001  2.668912e+001
      vertex -4.853553e+000 -8.277844e+001  2.719930e+001
      vertex -4.500000e+000 -8.348595e+001  2.655382e+001
    endloop
  endfacet
  facet normal -3.763820e-001  5.147170e-001 -7.703265e-001
    outer loop
      vertex -4.500000e+000 -8.348595e+001  2.655382e+001
      vertex -4.853553e+000 -8.277844e+001  2.719930e+001
      vertex -4.500000e+000 -8.267489e+001  2.709575e+001
    endloop
  endfacet
  facet normal -9.212146e-001  7.590090e-002 -3.815794e-001
    outer loop
      vertex -5.000000e+000 -8.444266e+001  2.686352e+001
      vertex -5.000000e+000 -8.367729e+001  2.701576e+001
      vertex -4.853553e+000 -8.444266e+001  2.650996e+001
    endloop
  endfacet
  facet normal -9.212145e-001  7.590083e-002 -3.815793e-001
    outer loop
      vertex -4.853553e+000 -8.444266e+001  2.650996e+001
      vertex -5.000000e+000 -8.367729e+001  2.701576e+001
      vertex -4.853553e+000 -8.354199e+001  2.668912e+001
    endloop
  endfacet
  facet normal -3.763799e-001  1.807444e-001 -9.086636e-001
    outer loop
      vertex -4.853553e+000 -8.444266e+001  2.650996e+001
      vertex -4.853553e+000 -8.354199e+001  2.668912e+001
      vertex -4.500000e+000 -8.444266e+001  2.636352e+001
    endloop
  endfacet
  facet normal -3.763834e-001  1.807427e-001 -9.086626e-001
    outer loop
      vertex -4.500000e+000 -8.444266e+001  2.636352e+001
      vertex -4.853553e+000 -8.354199e+001  2.668912e+001
      vertex -4.500000e+000 -8.348595e+001  2.655382e+001
    endloop
  endfacet
  facet normal -9.212146e-001 -7.590088e-002 -3.815793e-001
    outer loop
      vertex -5.000000e+000 -8.520802e+001  2.701576e+001
      vertex -5.000000e+000 -8.444266e+001  2.686352e+001
      vertex -4.853553e+000 -8.534332e+001  2.668912e+001
    endloop
  endfacet
  facet normal -9.212146e-001 -7.590085e-002 -3.815794e-001
    outer loop
      vertex -4.853553e+000 -8.534332e+001  2.668912e+001
      vertex -5.000000e+000 -8.444266e+001  2.686352e+001
      vertex -4.853553e+000 -8.444266e+001  2.650996e+001
    endloop
  endfacet
  facet normal -3.763835e-001 -1.807441e-001 -9.086622e-001
    outer loop
      vertex -4.853553e+000 -8.534332e+001  2.668912e+001
      vertex -4.853553e+000 -8.444266e+001  2.650996e+001
      vertex -4.500000e+000 -8.539937e+001  2.655382e+001
    endloop
  endfacet
  facet normal -3.763800e-001 -1.807429e-001 -9.086639e-001
    outer loop
      vertex -4.500000e+000 -8.539937e+001  2.655382e+001
      vertex -4.853553e+000 -8.444266e+001  2.650996e+001
      vertex -4.500000e+000 -8.444266e+001  2.636352e+001
    endloop
  endfacet
  facet normal -9.212143e-001 -2.161472e-001 -3.234881e-001
    outer loop
      vertex -5.000000e+000 -8.585687e+001  2.744930e+001
      vertex -5.000000e+000 -8.520802e+001  2.701576e+001
      vertex -4.853553e+000 -8.610687e+001  2.719930e+001
    endloop
  endfacet
  facet normal -9.212146e-001 -2.161471e-001 -3.234872e-001
    outer loop
      vertex -4.853553e+000 -8.610687e+001  2.719930e+001
      vertex -5.000000e+000 -8.520802e+001  2.701576e+001
      vertex -4.853553e+000 -8.534332e+001  2.668912e+001
    endloop
  endfacet
  facet normal -3.763819e-001 -5.147158e-001 -7.703274e-001
    outer loop
      vertex -4.853553e+000 -8.610687e+001  2.719930e+001
      vertex -4.853553e+000 -8.534332e+001  2.668912e+001
      vertex -4.500000e+000 -8.621043e+001  2.709575e+001
    endloop
  endfacet
  facet normal -3.763855e-001 -5.147163e-001 -7.703254e-001
    outer loop
      vertex -4.500000e+000 -8.621043e+001  2.709575e+001
      vertex -4.853553e+000 -8.534332e+001  2.668912e+001
      vertex -4.500000e+000 -8.539937e+001  2.655382e+001
    endloop
  endfacet
  facet normal -9.212161e-001 -3.234854e-001 -2.161438e-001
    outer loop
      vertex -5.000000e+000 -8.629041e+001  2.809815e+001
      vertex -5.000000e+000 -8.585687e+001  2.744930e+001
      vertex -4.853553e+000 -8.661706e+001  2.796285e+001
    endloop
  endfacet
  facet normal -9.212144e-001 -3.234877e-001 -2.161476e-001
    outer loop
      vertex -4.853553e+000 -8.661706e+001  2.796285e+001
      vertex -5.000000e+000 -8.585687e+001  2.744930e+001
      vertex -4.853553e+000 -8.610687e+001  2.719930e+001
    endloop
  endfacet
  facet normal -3.763808e-001 -7.703275e-001 -5.147165e-001
    outer loop
      vertex -4.853553e+000 -8.661706e+001  2.796285e+001
      vertex -4.853553e+000 -8.610687e+001  2.719930e+001
      vertex -4.500000e+000 -8.675236e+001  2.790681e+001
    endloop
  endfacet
  facet normal -3.763819e-001 -7.703274e-001 -5.147158e-001
    outer loop
      vertex -4.500000e+000 -8.675236e+001  2.790681e+001
      vertex -4.853553e+000 -8.610687e+001  2.719930e+001
      vertex -4.500000e+000 -8.621043e+001  2.709575e+001
    endloop
  endfacet
  facet normal -9.212147e-001  3.815794e-001  7.589900e-002
    outer loop
      vertex -5.000000e+000 -8.244266e+001  2.886352e+001
      vertex -5.000000e+000 -8.259489e+001  2.962888e+001
      vertex -4.853553e+000 -8.208910e+001  2.886352e+001
    endloop
  endfacet
  facet normal -9.212130e-001  3.815828e-001  7.590153e-002
    outer loop
      vertex -4.853553e+000 -8.208910e+001  2.886352e+001
      vertex -5.000000e+000 -8.259489e+001  2.962888e+001
      vertex -4.853553e+000 -8.226826e+001  2.976418e+001
    endloop
  endfacet
  facet normal -3.763799e-001  9.086636e-001  1.807444e-001
    outer loop
      vertex -4.853553e+000 -8.208910e+001  2.886352e+001
      vertex -4.853553e+000 -8.226826e+001  2.976418e+001
      vertex -4.500000e+000 -8.194266e+001  2.886352e+001
    endloop
  endfacet
  facet normal -3.763825e-001  9.086629e-001  1.807431e-001
    outer loop
      vertex -4.500000e+000 -8.194266e+001  2.886352e+001
      vertex -4.853553e+000 -8.226826e+001  2.976418e+001
      vertex -4.500000e+000 -8.213296e+001  2.982023e+001
    endloop
  endfacet
  facet normal -9.212161e-001 -3.815751e-001  7.590194e-002
    outer loop
      vertex -5.000000e+000 -8.629041e+001  2.962888e+001
      vertex -5.000000e+000 -8.644266e+001  2.886352e+001
      vertex -4.853553e+000 -8.661706e+001  2.976418e+001
    endloop
  endfacet
  facet normal -9.212146e-001 -3.815794e-001  7.590085e-002
    outer loop
      vertex -4.853553e+000 -8.661706e+001  2.976418e+001
      vertex -5.000000e+000 -8.644266e+001  2.886352e+001
      vertex -4.853553e+000 -8.679621e+001  2.886352e+001
    endloop
  endfacet
  facet normal -3.763826e-001 -9.086626e-001  1.807442e-001
    outer loop
      vertex -4.853553e+000 -8.661706e+001  2.976418e+001
      vertex -4.853553e+000 -8.679621e+001  2.886352e+001
      vertex -4.500000e+000 -8.675236e+001  2.982023e+001
    endloop
  endfacet
  facet normal -3.763800e-001 -9.086639e-001  1.807433e-001
    outer loop
      vertex -4.500000e+000 -8.675236e+001  2.982023e+001
      vertex -4.853553e+000 -8.679621e+001  2.886352e+001
      vertex -4.500000e+000 -8.694266e+001  2.886352e+001
    endloop
  endfacet
  facet normal -9.212143e-001 -3.234894e-001  2.161458e-001
    outer loop
      vertex -5.000000e+000 -8.585687e+001  3.027773e+001
      vertex -5.000000e+000 -8.629041e+001  2.962888e+001
      vertex -4.853553e+000 -8.610687e+001  3.052773e+001
    endloop
  endfacet
  facet normal -9.212160e-001 -3.234848e-001  2.161452e-001
    outer loop
      vertex -4.853553e+000 -8.610687e+001  3.052773e+001
      vertex -5.000000e+000 -8.629041e+001  2.962888e+001
      vertex -4.853553e+000 -8.661706e+001  2.976418e+001
    endloop
  endfacet
  facet normal -3.763819e-001 -7.703277e-001  5.147154e-001
    outer loop
      vertex -4.853553e+000 -8.610687e+001  3.052773e+001
      vertex -4.853553e+000 -8.661706e+001  2.976418e+001
      vertex -4.500000e+000 -8.621043e+001  3.063128e+001
    endloop
  endfacet
  facet normal -3.763832e-001 -7.703270e-001  5.147156e-001
    outer loop
      vertex -4.500000e+000 -8.621043e+001  3.063128e+001
      vertex -4.853553e+000 -8.661706e+001  2.976418e+001
      vertex -4.500000e+000 -8.675236e+001  2.982023e+001
    endloop
  endfacet
  facet normal -9.212148e-001 -2.161467e-001  3.234874e-001
    outer loop
      vertex -5.000000e+000 -8.520802e+001  3.071128e+001
      vertex -5.000000e+000 -8.585687e+001  3.027773e+001
      vertex -4.853553e+000 -8.534332e+001  3.103792e+001
    endloop
  endfacet
  facet normal -9.212143e-001 -2.161474e-001  3.234878e-001
    outer loop
      vertex -4.853553e+000 -8.534332e+001  3.103792e+001
      vertex -5.000000e+000 -8.585687e+001  3.027773e+001
      vertex -4.853553e+000 -8.610687e+001  3.052773e+001
    endloop
  endfacet
  facet normal -3.763820e-001 -5.147158e-001  7.703274e-001
    outer loop
      vertex -4.853553e+000 -8.534332e+001  3.103792e+001
      vertex -4.853553e+000 -8.610687e+001  3.052773e+001
      vertex -4.500000e+000 -8.539937e+001  3.117322e+001
    endloop
  endfacet
  facet normal -3.763819e-001 -5.147158e-001  7.703274e-001
    outer loop
      vertex -4.500000e+000 -8.539937e+001  3.117322e+001
      vertex -4.853553e+000 -8.610687e+001  3.052773e+001
      vertex -4.500000e+000 -8.621043e+001  3.063128e+001
    endloop
  endfacet
  facet normal -9.212146e-001 -7.590090e-002  3.815794e-001
    outer loop
      vertex -5.000000e+000 -8.444266e+001  3.086352e+001
      vertex -5.000000e+000 -8.520802e+001  3.071128e+001
      vertex -4.853553e+000 -8.444266e+001  3.121707e+001
    endloop
  endfacet
  facet normal -9.212145e-001 -7.590083e-002  3.815793e-001
    outer loop
      vertex -4.853553e+000 -8.444266e+001  3.121707e+001
      vertex -5.000000e+000 -8.520802e+001  3.071128e+001
      vertex -4.853553e+000 -8.534332e+001  3.103792e+001
    endloop
  endfacet
  facet normal -3.763799e-001 -1.807444e-001  9.086636e-001
    outer loop
      vertex -4.853553e+000 -8.444266e+001  3.121707e+001
      vertex -4.853553e+000 -8.534332e+001  3.103792e+001
      vertex -4.500000e+000 -8.444266e+001  3.136352e+001
    endloop
  endfacet
  facet normal -3.763793e-001 -1.807448e-001  9.086639e-001
    outer loop
      vertex -4.500000e+000 -8.444266e+001  3.136352e+001
      vertex -4.853553e+000 -8.534332e+001  3.103792e+001
      vertex -4.500000e+000 -8.539937e+001  3.117322e+001
    endloop
  endfacet
  facet normal -9.212146e-001  7.590088e-002  3.815793e-001
    outer loop
      vertex -5.000000e+000 -8.367729e+001  3.071128e+001
      vertex -5.000000e+000 -8.444266e+001  3.086352e+001
      vertex -4.853553e+000 -8.354199e+001  3.103792e+001
    endloop
  endfacet
  facet normal -9.212146e-001  7.590085e-002  3.815794e-001
    outer loop
      vertex -4.853553e+000 -8.354199e+001  3.103792e+001
      vertex -5.000000e+000 -8.444266e+001  3.086352e+001
      vertex -4.853553e+000 -8.444266e+001  3.121707e+001
    endloop
  endfacet
  facet normal -3.763793e-001  1.807445e-001  9.086639e-001
    outer loop
      vertex -4.853553e+000 -8.354199e+001  3.103792e+001
      vertex -4.853553e+000 -8.444266e+001  3.121707e+001
      vertex -4.500000e+000 -8.348595e+001  3.117322e+001
    endloop
  endfacet
  facet normal -3.763799e-001  1.807447e-001  9.086636e-001
    outer loop
      vertex -4.500000e+000 -8.348595e+001  3.117322e+001
      vertex -4.853553e+000 -8.444266e+001  3.121707e+001
      vertex -4.500000e+000 -8.444266e+001  3.136352e+001
    endloop
  endfacet
  facet normal -9.212143e-001  2.161472e-001  3.234881e-001
    outer loop
      vertex -5.000000e+000 -8.302844e+001  3.027773e+001
      vertex -5.000000e+000 -8.367729e+001  3.071128e+001
      vertex -4.853553e+000 -8.277844e+001  3.052773e+001
    endloop
  endfacet
  facet normal -9.212146e-001  2.161471e-001  3.234872e-001
    outer loop
      vertex -4.853553e+000 -8.277844e+001  3.052773e+001
      vertex -5.000000e+000 -8.367729e+001  3.071128e+001
      vertex -4.853553e+000 -8.354199e+001  3.103792e+001
    endloop
  endfacet
  facet normal -3.763819e-001  5.147158e-001  7.703274e-001
    outer loop
      vertex -4.853553e+000 -8.277844e+001  3.052773e+001
      vertex -4.853553e+000 -8.354199e+001  3.103792e+001
      vertex -4.500000e+000 -8.267489e+001  3.063128e+001
    endloop
  endfacet
  facet normal -3.763820e-001  5.147158e-001  7.703273e-001
    outer loop
      vertex -4.500000e+000 -8.267489e+001  3.063128e+001
      vertex -4.853553e+000 -8.354199e+001  3.103792e+001
      vertex -4.500000e+000 -8.348595e+001  3.117322e+001
    endloop
  endfacet
  facet normal -9.212133e-001  3.234894e-001  2.161496e-001
    outer loop
      vertex -5.000000e+000 -8.259489e+001  2.962888e+001
      vertex -5.000000e+000 -8.302844e+001  3.027773e+001
      vertex -4.853553e+000 -8.226826e+001  2.976418e+001
    endloop
  endfacet
  facet normal -9.212143e-001  3.234880e-001  2.161473e-001
    outer loop
      vertex -4.853553e+000 -8.226826e+001  2.976418e+001
      vertex -5.000000e+000 -8.302844e+001  3.027773e+001
      vertex -4.853553e+000 -8.277844e+001  3.052773e+001
    endloop
  endfacet
  facet normal -3.763832e-001  7.703272e-001  5.147150e-001
    outer loop
      vertex -4.853553e+000 -8.226826e+001  2.976418e+001
      vertex -4.853553e+000 -8.277844e+001  3.052773e+001
      vertex -4.500000e+000 -8.213296e+001  2.982023e+001
    endloop
  endfacet
  facet normal -3.763819e-001  7.703274e-001  5.147158e-001
    outer loop
      vertex -4.500000e+000 -8.213296e+001  2.982023e+001
      vertex -4.853553e+000 -8.277844e+001  3.052773e+001
      vertex -4.500000e+000 -8.267489e+001  3.063128e+001
    endloop
  endfacet
  facet normal  1.000000e+000  0.000000e+000  0.000000e+000
    outer loop
      vertex -2.000000e+000 -8.348595e+001  2.655382e+001
      vertex -2.000000e+000 -8.267489e+001  2.709575e+001
      vertex -2.000000e+000 -8.444266e+001  2.636352e+001
    endloop
  endfacet
  facet normal  1.000000e+000  0.000000e+000  0.000000e+000
    outer loop
      vertex -2.000000e+000 -8.675236e+001  2.790681e+001
      vertex -2.000000e+000 -8.487083e+001  2.795982e+001
      vertex -2.000000e+000 -8.532024e+001  2.838409e+001
    endloop
  endfacet
  facet normal  1.000000e+000  0.000000e+000  0.000000e+000
    outer loop
      vertex -2.000000e+000 -8.539937e+001  2.655382e+001
      vertex -2.000000e+000 -8.675236e+001  2.790681e+001
      vertex -2.000000e+000 -8.621043e+001  2.709575e+001
    endloop
  endfacet
  facet normal  9.999999e-001  0.000000e+000  -0.000000e+000
    outer loop
      vertex -2.000000e+000 -8.675236e+001  2.790681e+001
      vertex -2.000000e+000 -8.539937e+001  2.655382e+001
      vertex -2.000000e+000 -8.487083e+001  2.795982e+001
    endloop
  endfacet
  facet normal  1.000000e+000  0.000000e+000  0.000000e+000
    outer loop
      vertex -2.000000e+000 -8.487083e+001  2.795982e+001
      vertex -2.000000e+000 -8.539937e+001  2.655382e+001
      vertex -2.000000e+000 -8.444266e+001  2.636352e+001
    endloop
  endfacet
  facet normal  1.000000e+000  0.000000e+000  -0.000000e+000
    outer loop
      vertex -2.000000e+000 -8.487083e+001  2.795982e+001
      vertex -2.000000e+000 -8.444266e+001  2.636352e+001
      vertex -2.000000e+000 -8.425788e+001  2.788074e+001
    endloop
  endfacet
  facet normal  1.000000e+000  0.000000e+000  0.000000e+000
    outer loop
      vertex -2.000000e+000 -8.425788e+001  2.788074e+001
      vertex -2.000000e+000 -8.444266e+001  2.636352e+001
      vertex -2.000000e+000 -8.267489e+001  2.709575e+001
    endloop
  endfacet
  facet normal  1.000000e+000  0.000000e+000  -0.000000e+000
    outer loop
      vertex -2.000000e+000 -8.425788e+001  2.788074e+001
      vertex -2.000000e+000 -8.267489e+001  2.709575e+001
      vertex -2.000000e+000 -8.213296e+001  2.790681e+001
    endloop
  endfacet
  facet normal  1.000000e+000  0.000000e+000  0.000000e+000
    outer loop
      vertex -2.000000e+000 -8.462743e+001  2.984630e+001
      vertex -2.000000e+000 -8.539937e+001  3.117322e+001
      vertex -2.000000e+000 -8.621043e+001  3.063128e+001
    endloop
  endfacet
  facet normal  1.000000e+000  0.000000e+000  -0.000000e+000
    outer loop
      vertex -2.000000e+000 -8.539937e+001  3.117322e+001
      vertex -2.000000e+000 -8.462743e+001  2.984630e+001
      vertex -2.000000e+000 -8.444266e+001  3.136352e+001
    endloop
  endfacet
  facet normal  9.999999e-001  0.000000e+000  0.000000e+000
    outer loop
      vertex -2.000000e+000 -8.444266e+001  3.136352e+001
      vertex -2.000000e+000 -8.462743e+001  2.984630e+001
      vertex -2.000000e+000 -8.401447e+001  2.976721e+001
    endloop
  endfacet
  facet normal  9.999999e-001  0.000000e+000  -0.000000e+000
    outer loop
      vertex -2.000000e+000 -8.444266e+001  3.136352e+001
      vertex -2.000000e+000 -8.401447e+001  2.976721e+001
      vertex -2.000000e+000 -8.348595e+001  3.117322e+001
    endloop
  endfacet
  facet normal  1.000000e+000  0.000000e+000  0.000000e+000
    outer loop
      vertex -2.000000e+000 -8.348595e+001  3.117322e+001
      vertex -2.000000e+000 -8.401447e+001  2.976721e+001
      vertex -2.000000e+000 -8.213296e+001  2.982023e+001
    endloop
  endfacet
  facet normal  1.000000e+000  0.000000e+000  0.000000e+000
    outer loop
      vertex -2.000000e+000 -8.348595e+001  3.117322e+001
      vertex -2.000000e+000 -8.213296e+001  2.982023e+001
      vertex -2.000000e+000 -8.267489e+001  3.063128e+001
    endloop
  endfacet
  facet normal  1.000000e+000  0.000000e+000  0.000000e+000
    outer loop
      vertex -2.000000e+000 -8.345087e+001  2.873555e+001
      vertex -2.000000e+000 -8.194266e+001  2.886352e+001
      vertex -2.000000e+000 -8.356507e+001  2.934294e+001
    endloop
  endfacet
  facet normal  1.000000e+000  -0.000000e+000  0.000000e+000
    outer loop
      vertex -2.000000e+000 -8.356507e+001  2.934294e+001
      vertex -2.000000e+000 -8.194266e+001  2.886352e+001
      vertex -2.000000e+000 -8.213296e+001  2.982023e+001
    endloop
  endfacet
  facet normal  1.000000e+000  0.000000e+000  0.000000e+000
    outer loop
      vertex -2.000000e+000 -8.356507e+001  2.934294e+001
      vertex -2.000000e+000 -8.213296e+001  2.982023e+001
      vertex -2.000000e+000 -8.401447e+001  2.976721e+001
    endloop
  endfacet
  facet normal  1.000000e+000  0.000000e+000  0.000000e+000
    outer loop
      vertex -2.000000e+000 -8.425788e+001  2.788074e+001
      vertex -2.000000e+000 -8.213296e+001  2.790681e+001
      vertex -2.000000e+000 -8.371551e+001  2.817704e+001
    endloop
  endfacet
  facet normal  1.000000e+000  -0.000000e+000  0.000000e+000
    outer loop
      vertex -2.000000e+000 -8.371551e+001  2.817704e+001
      vertex -2.000000e+000 -8.213296e+001  2.790681e+001
      vertex -2.000000e+000 -8.194266e+001  2.886352e+001
    endloop
  endfacet
  facet normal  1.000000e+000  0.000000e+000  0.000000e+000
    outer loop
      vertex -2.000000e+000 -8.371551e+001  2.817704e+001
      vertex -2.000000e+000 -8.194266e+001  2.886352e+001
      vertex -2.000000e+000 -8.345087e+001  2.873555e+001
    endloop
  endfacet
  facet normal  1.000000e+000  0.000000e+000  0.000000e+000
    outer loop
      vertex -2.000000e+000 -8.621043e+001  3.063128e+001
      vertex -2.000000e+000 -8.675236e+001  2.982023e+001
      vertex -2.000000e+000 -8.462743e+001  2.984630e+001
    endloop
  endfacet
  facet normal  1.000000e+000  0.000000e+000  0.000000e+000
    outer loop
      vertex -2.000000e+000 -8.462743e+001  2.984630e+001
      vertex -2.000000e+000 -8.675236e+001  2.982023e+001
      vertex -2.000000e+000 -8.694266e+001  2.886352e+001
    endloop
  endfacet
  facet normal  1.000000e+000  0.000000e+000  0.000000e+000
    outer loop
      vertex -2.000000e+000 -8.462743e+001  2.984630e+001
      vertex -2.000000e+000 -8.694266e+001  2.886352e+001
      vertex -2.000000e+000 -8.516981e+001  2.955000e+001
    endloop
  endfacet
  facet normal  1.000000e+000  0.000000e+000  0.000000e+000
    outer loop
      vertex -2.000000e+000 -8.516981e+001  2.955000e+001
      vertex -2.000000e+000 -8.694266e+001  2.886352e+001
      vertex -2.000000e+000 -8.543443e+001  2.899148e+001
    endloop
  endfacet
  facet normal  1.000000e+000  0.000000e+000  0.000000e+000
    outer loop
      vertex -2.000000e+000 -8.543443e+001  2.899148e+001
      vertex -2.000000e+000 -8.694266e+001  2.886352e+001
      vertex -2.000000e+000 -8.675236e+001  2.790681e+001
    endloop
  endfacet
  facet normal  1.000000e+000  0.000000e+000  0.000000e+000
    outer loop
      vertex -2.000000e+000 -8.543443e+001  2.899148e+001
      vertex -2.000000e+000 -8.675236e+001  2.790681e+001
      vertex -2.000000e+000 -8.532024e+001  2.838409e+001
    endloop
  endfacet
  facet normal  0.000000e+000 -6.864812e-001 -7.271475e-001
    outer loop
      vertex  1.000000e+000 -8.532024e+001  2.838409e+001
      vertex -2.000000e+000 -8.532024e+001  2.838409e+001
      vertex  1.000000e+000 -8.487083e+001  2.795982e+001
    endloop
  endfacet
  facet normal  -0.000000e+000 -6.864812e-001 -7.271475e-001
    outer loop
      vertex  1.000000e+000 -8.487083e+001  2.795982e+001
      vertex -2.000000e+000 -8.532024e+001  2.838409e+001
      vertex -2.000000e+000 -8.487083e+001  2.795982e+001
    endloop
  endfacet
  facet normal  0.000000e+000 -1.279673e-001 -9.917783e-001
    outer loop
      vertex  1.000000e+000 -8.487083e+001  2.795982e+001
      vertex -2.000000e+000 -8.487083e+001  2.795982e+001
      vertex  1.000000e+000 -8.425788e+001  2.788074e+001
    endloop
  endfacet
  facet normal  -0.000000e+000 -1.279673e-001 -9.917783e-001
    outer loop
      vertex  1.000000e+000 -8.425788e+001  2.788074e+001
      vertex -2.000000e+000 -8.487083e+001  2.795982e+001
      vertex -2.000000e+000 -8.425788e+001  2.788074e+001
    endloop
  endfacet
  facet normal  0.000000e+000  4.794289e-001 -8.775808e-001
    outer loop
      vertex  1.000000e+000 -8.425788e+001  2.788074e+001
      vertex -2.000000e+000 -8.425788e+001  2.788074e+001
      vertex  1.000000e+000 -8.371551e+001  2.817704e+001
    endloop
  endfacet
  facet normal  0.000000e+000  4.794289e-001 -8.775808e-001
    outer loop
      vertex  1.000000e+000 -8.371551e+001  2.817704e+001
      vertex -2.000000e+000 -8.425788e+001  2.788074e+001
      vertex -2.000000e+000 -8.371551e+001  2.817704e+001
    endloop
  endfacet
  facet normal  0.000000e+000  9.036909e-001 -4.281854e-001
    outer loop
      vertex  1.000000e+000 -8.371551e+001  2.817704e+001
      vertex -2.000000e+000 -8.371551e+001  2.817704e+001
      vertex  1.000000e+000 -8.345087e+001  2.873555e+001
    endloop
  endfacet
  facet normal  0.000000e+000  9.036909e-001 -4.281854e-001
    outer loop
      vertex  1.000000e+000 -8.345087e+001  2.873555e+001
      vertex -2.000000e+000 -8.371551e+001  2.817704e+001
      vertex -2.000000e+000 -8.345087e+001  2.873555e+001
    endloop
  endfacet
  facet normal  -0.000000e+000  9.827810e-001  1.847739e-001
    outer loop
      vertex  1.000000e+000 -8.345087e+001  2.873555e+001
      vertex -2.000000e+000 -8.345087e+001  2.873555e+001
      vertex  1.000000e+000 -8.356507e+001  2.934294e+001
    endloop
  endfacet
  facet normal  0.000000e+000  9.827810e-001  1.847739e-001
    outer loop
      vertex  1.000000e+000 -8.356507e+001  2.934294e+001
      vertex -2.000000e+000 -8.345087e+001  2.873555e+001
      vertex -2.000000e+000 -8.356507e+001  2.934294e+001
    endloop
  endfacet
  facet normal  -0.000000e+000  6.864796e-001  7.271490e-001
    outer loop
      vertex  1.000000e+000 -8.356507e+001  2.934294e+001
      vertex -2.000000e+000 -8.356507e+001  2.934294e+001
      vertex  1.000000e+000 -8.401447e+001  2.976721e+001
    endloop
  endfacet
  facet normal  0.000000e+000  6.864796e-001  7.271490e-001
    outer loop
      vertex  1.000000e+000 -8.401447e+001  2.976721e+001
      vertex -2.000000e+000 -8.356507e+001  2.934294e+001
      vertex -2.000000e+000 -8.401447e+001  2.976721e+001
    endloop
  endfacet
  facet normal  -0.000000e+000  1.279673e-001  9.917783e-001
    outer loop
      vertex  1.000000e+000 -8.401447e+001  2.976721e+001
      vertex -2.000000e+000 -8.401447e+001  2.976721e+001
      vertex  1.000000e+000 -8.462743e+001  2.984630e+001
    endloop
  endfacet
  facet normal  0.000000e+000  1.279673e-001  9.917783e-001
    outer loop
      vertex  1.000000e+000 -8.462743e+001  2.984630e+001
      vertex -2.000000e+000 -8.401447e+001  2.976721e+001
      vertex -2.000000e+000 -8.462743e+001  2.984630e+001
    endloop
  endfacet
  facet normal  0.000000e+000 -4.794214e-001  8.775849e-001
    outer loop
      vertex  1.000000e+000 -8.462743e+001  2.984630e+001
      vertex -2.000000e+000 -8.462743e+001  2.984630e+001
      vertex  1.000000e+000 -8.516981e+001  2.955000e+001
    endloop
  endfacet
  facet normal  0.000000e+000 -4.794214e-001  8.775849e-001
    outer loop
      vertex  1.000000e+000 -8.516981e+001  2.955000e+001
      vertex -2.000000e+000 -8.462743e+001  2.984630e+001
      vertex -2.000000e+000 -8.516981e+001  2.955000e+001
    endloop
  endfacet
  facet normal  0.000000e+000 -9.036962e-001  4.281742e-001
    outer loop
      vertex  1.000000e+000 -8.516981e+001  2.955000e+001
      vertex -2.000000e+000 -8.516981e+001  2.955000e+001
      vertex  1.000000e+000 -8.543443e+001  2.899148e+001
    endloop
  endfacet
  facet normal  0.000000e+000 -9.036962e-001  4.281742e-001
    outer loop
      vertex  1.000000e+000 -8.543443e+001  2.899148e+001
      vertex -2.000000e+000 -8.516981e+001  2.955000e+001
      vertex -2.000000e+000 -8.543443e+001  2.899148e+001
    endloop
  endfacet
  facet normal  0.000000e+000 -9.827809e-001 -1.847745e-001
    outer loop
      vertex  1.000000e+000 -8.543443e+001  2.899148e+001
      vertex -2.000000e+000 -8.543443e+001  2.899148e+001
      vertex  1.000000e+000 -8.532024e+001  2.838409e+001
    endloop
  endfacet
  facet normal  -0.000000e+000 -9.827809e-001 -1.847745e-001
    outer loop
      vertex  1.000000e+000 -8.532024e+001  2.838409e+001
      vertex -2.000000e+000 -8.543443e+001  2.899148e+001
      vertex -2.000000e+000 -8.532024e+001  2.838409e+001
    endloop
  endfacet
  facet normal  1.000000e+000  0.000000e+000  0.000000e+000
    outer loop
      vertex  1.000000e+000 -8.543443e+001  2.899148e+001
      vertex  1.000000e+000 -8.356507e+001  2.934294e+001
      vertex  1.000000e+000 -8.516981e+001  2.955000e+001
    endloop
  endfacet
  facet normal  1.000000e+000  -0.000000e+000  0.000000e+000
    outer loop
      vertex  1.000000e+000 -8.516981e+001  2.955000e+001
      vertex  1.000000e+000 -8.356507e+001  2.934294e+001
      vertex  1.000000e+000 -8.401447e+001  2.976721e+001
    endloop
  endfacet
  facet normal  1.000000e+000  0.000000e+000  0.000000e+000
    outer loop
      vertex  1.000000e+000 -8.516981e+001  2.955000e+001
      vertex  1.000000e+000 -8.401447e+001  2.976721e+001
      vertex  1.000000e+000 -8.462743e+001  2.984630e+001
    endloop
  endfacet
  facet normal  1.000000e+000  -0.000000e+000  0.000000e+000
    outer loop
      vertex  1.000000e+000 -8.356507e+001  2.934294e+001
      vertex  1.000000e+000 -8.543443e+001  2.899148e+001
      vertex  1.000000e+000 -8.345087e+001  2.873555e+001
    endloop
  endfacet
  facet normal  1.000000e+000  0.000000e+000  0.000000e+000
    outer loop
      vertex  1.000000e+000 -8.345087e+001  2.873555e+001
      vertex  1.000000e+000 -8.543443e+001  2.899148e+001
      vertex  1.000000e+000 -8.532024e+001  2.838409e+001
    endloop
  endfacet
  facet normal  1.000000e+000  -0.000000e+000  0.000000e+000
    outer loop
      vertex  1.000000e+000 -8.345087e+001  2.873555e+001
      vertex  1.000000e+000 -8.532024e+001  2.838409e+001
      vertex  1.000000e+000 -8.371551e+001  2.817704e+001
    endloop
  endfacet
  facet normal  1.000000e+000  0.000000e+000  0.000000e+000
    outer loop
      vertex  1.000000e+000 -8.371551e+001  2.817704e+001
      vertex  1.000000e+000 -8.532024e+001  2.838409e+001
      vertex  1.000000e+000 -8.487083e+001  2.795982e+001
    endloop
  endfacet
  facet normal  1.000000e+000  -0.000000e+000  0.000000e+000
    outer loop
      vertex  1.000000e+000 -8.371551e+001  2.817704e+001
      vertex  1.000000e+000 -8.487083e+001  2.795982e+001
      vertex  1.000000e+000 -8.425788e+001  2.788074e+001
    endloop
  endfacet
endsolid CATIA STL
