solid CATIA STL
  facet normal  0.000000e+000 -9.876882e-001  1.564350e-001
    outer loop
      vertex  3.000000e+000  7.918510e+001  1.520593e-001
      vertex  4.500000e+000  7.918510e+001  1.520593e-001
      vertex  3.000000e+000  7.935640e+001  1.233619e+000
    endloop
  endfacet
  facet normal  0.000000e+000 -9.876882e-001  1.564350e-001
    outer loop
      vertex  3.000000e+000  7.935640e+001  1.233619e+000
      vertex  4.500000e+000  7.918510e+001  1.520593e-001
      vertex  4.500000e+000  7.935640e+001  1.233619e+000
    endloop
  endfacet
  facet normal  0.000000e+000 -8.910092e-001  4.539855e-001
    outer loop
      vertex  3.000000e+000  7.935640e+001  1.233619e+000
      vertex  4.500000e+000  7.935640e+001  1.233619e+000
      vertex  3.000000e+000  7.985353e+001  2.209308e+000
    endloop
  endfacet
  facet normal  0.000000e+000 -8.910092e-001  4.539855e-001
    outer loop
      vertex  3.000000e+000  7.985353e+001  2.209308e+000
      vertex  4.500000e+000  7.935640e+001  1.233619e+000
      vertex  4.500000e+000  7.985353e+001  2.209308e+000
    endloop
  endfacet
  facet normal  0.000000e+000 -7.071050e-001  7.071085e-001
    outer loop
      vertex  3.000000e+000  7.985353e+001  2.209308e+000
      vertex  4.500000e+000  7.985353e+001  2.209308e+000
      vertex  3.000000e+000  8.062785e+001  2.983619e+000
    endloop
  endfacet
  facet normal  0.000000e+000 -7.071050e-001  7.071085e-001
    outer loop
      vertex  3.000000e+000  8.062785e+001  2.983619e+000
      vertex  4.500000e+000  7.985353e+001  2.209308e+000
      vertex  4.500000e+000  8.062785e+001  2.983619e+000
    endloop
  endfacet
  facet normal  0.000000e+000 -4.539919e-001  8.910059e-001
    outer loop
      vertex  3.000000e+000  8.062785e+001  2.983619e+000
      vertex  4.500000e+000  8.062785e+001  2.983619e+000
      vertex  3.000000e+000  8.160353e+001  3.480757e+000
    endloop
  endfacet
  facet normal  0.000000e+000 -4.539919e-001  8.910059e-001
    outer loop
      vertex  3.000000e+000  8.160353e+001  3.480757e+000
      vertex  4.500000e+000  8.062785e+001  2.983619e+000
      vertex  4.500000e+000  8.160353e+001  3.480757e+000
    endloop
  endfacet
  facet normal  0.000000e+000 -1.564337e-001  9.876884e-001
    outer loop
      vertex  3.000000e+000  8.160353e+001  3.480757e+000
      vertex  4.500000e+000  8.160353e+001  3.480757e+000
      vertex  3.000000e+000  8.268510e+001  3.652059e+000
    endloop
  endfacet
  facet normal  0.000000e+000 -1.564337e-001  9.876884e-001
    outer loop
      vertex  3.000000e+000  8.268510e+001  3.652059e+000
      vertex  4.500000e+000  8.160353e+001  3.480757e+000
      vertex  4.500000e+000  8.268510e+001  3.652059e+000
    endloop
  endfacet
  facet normal  0.000000e+000  1.564348e-001  9.876884e-001
    outer loop
      vertex  3.000000e+000  8.268510e+001  3.652059e+000
      vertex  4.500000e+000  8.268510e+001  3.652059e+000
      vertex  3.000000e+000  8.376665e+001  3.480757e+000
    endloop
  endfacet
  facet normal  -0.000000e+000  1.564348e-001  9.876884e-001
    outer loop
      vertex  3.000000e+000  8.376665e+001  3.480757e+000
      vertex  4.500000e+000  8.268510e+001  3.652059e+000
      vertex  4.500000e+000  8.376665e+001  3.480757e+000
    endloop
  endfacet
  facet normal  0.000000e+000  4.539919e-001  8.910059e-001
    outer loop
      vertex  3.000000e+000  8.376665e+001  3.480757e+000
      vertex  4.500000e+000  8.376665e+001  3.480757e+000
      vertex  3.000000e+000  8.474234e+001  2.983619e+000
    endloop
  endfacet
  facet normal  -0.000000e+000  4.539919e-001  8.910059e-001
    outer loop
      vertex  3.000000e+000  8.474234e+001  2.983619e+000
      vertex  4.500000e+000  8.376665e+001  3.480757e+000
      vertex  4.500000e+000  8.474234e+001  2.983619e+000
    endloop
  endfacet
  facet normal  0.000000e+000  7.071050e-001  7.071085e-001
    outer loop
      vertex  3.000000e+000  8.474234e+001  2.983619e+000
      vertex  4.500000e+000  8.474234e+001  2.983619e+000
      vertex  3.000000e+000  8.551665e+001  2.209308e+000
    endloop
  endfacet
  facet normal  -0.000000e+000  7.071050e-001  7.071085e-001
    outer loop
      vertex  3.000000e+000  8.551665e+001  2.209308e+000
      vertex  4.500000e+000  8.474234e+001  2.983619e+000
      vertex  4.500000e+000  8.551665e+001  2.209308e+000
    endloop
  endfacet
  facet normal  0.000000e+000  8.910063e-001  4.539910e-001
    outer loop
      vertex  3.000000e+000  8.551665e+001  2.209308e+000
      vertex  4.500000e+000  8.551665e+001  2.209308e+000
      vertex  3.000000e+000  8.601379e+001  1.233619e+000
    endloop
  endfacet
  facet normal  -0.000000e+000  8.910063e-001  4.539910e-001
    outer loop
      vertex  3.000000e+000  8.601379e+001  1.233619e+000
      vertex  4.500000e+000  8.551665e+001  2.209308e+000
      vertex  4.500000e+000  8.601379e+001  1.233619e+000
    endloop
  endfacet
  facet normal  0.000000e+000  9.876882e-001  1.564350e-001
    outer loop
      vertex  3.000000e+000  8.601379e+001  1.233619e+000
      vertex  4.500000e+000  8.601379e+001  1.233619e+000
      vertex  3.000000e+000  8.618510e+001  1.520593e-001
    endloop
  endfacet
  facet normal  -0.000000e+000  9.876882e-001  1.564350e-001
    outer loop
      vertex  3.000000e+000  8.618510e+001  1.520593e-001
      vertex  4.500000e+000  8.601379e+001  1.233619e+000
      vertex  4.500000e+000  8.618510e+001  1.520593e-001
    endloop
  endfacet
  facet normal  0.000000e+000  9.876882e-001 -1.564350e-001
    outer loop
      vertex  3.000000e+000  8.618510e+001  1.520593e-001
      vertex  4.500000e+000  8.618510e+001  1.520593e-001
      vertex  3.000000e+000  8.601379e+001 -9.295002e-001
    endloop
  endfacet
  facet normal  0.000000e+000  9.876882e-001 -1.564350e-001
    outer loop
      vertex  3.000000e+000  8.601379e+001 -9.295002e-001
      vertex  4.500000e+000  8.618510e+001  1.520593e-001
      vertex  4.500000e+000  8.601379e+001 -9.295002e-001
    endloop
  endfacet
  facet normal  0.000000e+000  8.910063e-001 -4.539910e-001
    outer loop
      vertex  3.000000e+000  8.601379e+001 -9.295002e-001
      vertex  4.500000e+000  8.601379e+001 -9.295002e-001
      vertex  3.000000e+000  8.551665e+001 -1.905189e+000
    endloop
  endfacet
  facet normal  0.000000e+000  8.910063e-001 -4.539910e-001
    outer loop
      vertex  3.000000e+000  8.551665e+001 -1.905189e+000
      vertex  4.500000e+000  8.601379e+001 -9.295002e-001
      vertex  4.500000e+000  8.551665e+001 -1.905189e+000
    endloop
  endfacet
  facet normal  0.000000e+000  7.071050e-001 -7.071085e-001
    outer loop
      vertex  3.000000e+000  8.551665e+001 -1.905189e+000
      vertex  4.500000e+000  8.551665e+001 -1.905189e+000
      vertex  3.000000e+000  8.474234e+001 -2.679500e+000
    endloop
  endfacet
  facet normal  0.000000e+000  7.071050e-001 -7.071085e-001
    outer loop
      vertex  3.000000e+000  8.474234e+001 -2.679500e+000
      vertex  4.500000e+000  8.551665e+001 -1.905189e+000
      vertex  4.500000e+000  8.474234e+001 -2.679500e+000
    endloop
  endfacet
  facet normal  0.000000e+000  4.539920e-001 -8.910058e-001
    outer loop
      vertex  3.000000e+000  8.474234e+001 -2.679500e+000
      vertex  4.500000e+000  8.474234e+001 -2.679500e+000
      vertex  3.000000e+000  8.376665e+001 -3.176639e+000
    endloop
  endfacet
  facet normal  0.000000e+000  4.539920e-001 -8.910058e-001
    outer loop
      vertex  3.000000e+000  8.376665e+001 -3.176639e+000
      vertex  4.500000e+000  8.474234e+001 -2.679500e+000
      vertex  4.500000e+000  8.376665e+001 -3.176639e+000
    endloop
  endfacet
  facet normal  0.000000e+000  1.564346e-001 -9.876884e-001
    outer loop
      vertex  3.000000e+000  8.376665e+001 -3.176639e+000
      vertex  4.500000e+000  8.376665e+001 -3.176639e+000
      vertex  3.000000e+000  8.268510e+001 -3.347941e+000
    endloop
  endfacet
  facet normal  0.000000e+000  1.564346e-001 -9.876884e-001
    outer loop
      vertex  3.000000e+000  8.268510e+001 -3.347941e+000
      vertex  4.500000e+000  8.376665e+001 -3.176639e+000
      vertex  4.500000e+000  8.268510e+001 -3.347941e+000
    endloop
  endfacet
  facet normal  -0.000000e+000 -1.564335e-001 -9.876884e-001
    outer loop
      vertex  3.000000e+000  8.268510e+001 -3.347941e+000
      vertex  4.500000e+000  8.268510e+001 -3.347941e+000
      vertex  3.000000e+000  8.160353e+001 -3.176639e+000
    endloop
  endfacet
  facet normal  0.000000e+000 -1.564335e-001 -9.876884e-001
    outer loop
      vertex  3.000000e+000  8.160353e+001 -3.176639e+000
      vertex  4.500000e+000  8.268510e+001 -3.347941e+000
      vertex  4.500000e+000  8.160353e+001 -3.176639e+000
    endloop
  endfacet
  facet normal  -0.000000e+000 -4.539920e-001 -8.910058e-001
    outer loop
      vertex  3.000000e+000  8.160353e+001 -3.176639e+000
      vertex  4.500000e+000  8.160353e+001 -3.176639e+000
      vertex  3.000000e+000  8.062785e+001 -2.679500e+000
    endloop
  endfacet
  facet normal  0.000000e+000 -4.539920e-001 -8.910058e-001
    outer loop
      vertex  3.000000e+000  8.062785e+001 -2.679500e+000
      vertex  4.500000e+000  8.160353e+001 -3.176639e+000
      vertex  4.500000e+000  8.062785e+001 -2.679500e+000
    endloop
  endfacet
  facet normal  -0.000000e+000 -7.071050e-001 -7.071085e-001
    outer loop
      vertex  3.000000e+000  8.062785e+001 -2.679500e+000
      vertex  4.500000e+000  8.062785e+001 -2.679500e+000
      vertex  3.000000e+000  7.985353e+001 -1.905189e+000
    endloop
  endfacet
  facet normal  0.000000e+000 -7.071050e-001 -7.071085e-001
    outer loop
      vertex  3.000000e+000  7.985353e+001 -1.905189e+000
      vertex  4.500000e+000  8.062785e+001 -2.679500e+000
      vertex  4.500000e+000  7.985353e+001 -1.905189e+000
    endloop
  endfacet
  facet normal  -0.000000e+000 -8.910091e-001 -4.539855e-001
    outer loop
      vertex  3.000000e+000  7.985353e+001 -1.905189e+000
      vertex  4.500000e+000  7.985353e+001 -1.905189e+000
      vertex  3.000000e+000  7.935640e+001 -9.295002e-001
    endloop
  endfacet
  facet normal  0.000000e+000 -8.910091e-001 -4.539855e-001
    outer loop
      vertex  3.000000e+000  7.935640e+001 -9.295002e-001
      vertex  4.500000e+000  7.985353e+001 -1.905189e+000
      vertex  4.500000e+000  7.935640e+001 -9.295002e-001
    endloop
  endfacet
  facet normal  -0.000000e+000 -9.876882e-001 -1.564350e-001
    outer loop
      vertex  3.000000e+000  7.935640e+001 -9.295002e-001
      vertex  4.500000e+000  7.935640e+001 -9.295002e-001
      vertex  3.000000e+000  7.918510e+001  1.520593e-001
    endloop
  endfacet
  facet normal  0.000000e+000 -9.876882e-001 -1.564350e-001
    outer loop
      vertex  3.000000e+000  7.918510e+001  1.520593e-001
      vertex  4.500000e+000  7.935640e+001 -9.295002e-001
      vertex  4.500000e+000  7.918510e+001  1.520593e-001
    endloop
  endfacet
  facet normal  1.000000e+000  -0.000000e+000  0.000000e+000
    outer loop
      vertex  5.000000e+000  8.320604e+001  3.106483e+000
      vertex  5.000000e+000  8.216415e+001  3.106483e+000
      vertex  5.000000e+000  8.418510e+001  2.750135e+000
    endloop
  endfacet
  facet normal  1.000000e+000  0.000000e+000  0.000000e+000
    outer loop
      vertex  5.000000e+000  8.418510e+001  2.750135e+000
      vertex  5.000000e+000  8.216415e+001  3.106483e+000
      vertex  5.000000e+000  8.118510e+001  2.750135e+000
    endloop
  endfacet
  facet normal  1.000000e+000  -0.000000e+000  0.000000e+000
    outer loop
      vertex  5.000000e+000  8.418510e+001  2.750135e+000
      vertex  5.000000e+000  8.118510e+001  2.750135e+000
      vertex  5.000000e+000  8.498323e+001  2.080422e+000
    endloop
  endfacet
  facet normal  1.000000e+000  0.000000e+000  0.000000e+000
    outer loop
      vertex  5.000000e+000  8.498323e+001  2.080422e+000
      vertex  5.000000e+000  8.118510e+001  2.750135e+000
      vertex  5.000000e+000  8.038696e+001  2.080422e+000
    endloop
  endfacet
  facet normal  1.000000e+000  -0.000000e+000  0.000000e+000
    outer loop
      vertex  5.000000e+000  8.498323e+001  2.080422e+000
      vertex  5.000000e+000  8.038696e+001  2.080422e+000
      vertex  5.000000e+000  8.550417e+001  1.178120e+000
    endloop
  endfacet
  facet normal  1.000000e+000  0.000000e+000  0.000000e+000
    outer loop
      vertex  5.000000e+000  8.550417e+001  1.178120e+000
      vertex  5.000000e+000  8.038696e+001  2.080422e+000
      vertex  5.000000e+000  7.986601e+001  1.178120e+000
    endloop
  endfacet
  facet normal  1.000000e+000  -0.000000e+000  0.000000e+000
    outer loop
      vertex  5.000000e+000  8.550417e+001  1.178120e+000
      vertex  5.000000e+000  7.986601e+001  1.178120e+000
      vertex  5.000000e+000  8.568510e+001  1.520593e-001
    endloop
  endfacet
  facet normal  1.000000e+000  0.000000e+000  0.000000e+000
    outer loop
      vertex  5.000000e+000  8.568510e+001  1.520593e-001
      vertex  5.000000e+000  7.986601e+001  1.178120e+000
      vertex  5.000000e+000  7.968510e+001  1.520593e-001
    endloop
  endfacet
  facet normal  1.000000e+000  -0.000000e+000  0.000000e+000
    outer loop
      vertex  5.000000e+000  8.568510e+001  1.520593e-001
      vertex  5.000000e+000  7.968510e+001  1.520593e-001
      vertex  5.000000e+000  8.550417e+001 -8.740011e-001
    endloop
  endfacet
  facet normal  1.000000e+000  0.000000e+000  0.000000e+000
    outer loop
      vertex  5.000000e+000  8.550417e+001 -8.740011e-001
      vertex  5.000000e+000  7.968510e+001  1.520593e-001
      vertex  5.000000e+000  7.986601e+001 -8.740011e-001
    endloop
  endfacet
  facet normal  1.000000e+000  -0.000000e+000  0.000000e+000
    outer loop
      vertex  5.000000e+000  8.550417e+001 -8.740011e-001
      vertex  5.000000e+000  7.986601e+001 -8.740011e-001
      vertex  5.000000e+000  8.498323e+001 -1.776304e+000
    endloop
  endfacet
  facet normal  1.000000e+000  0.000000e+000  0.000000e+000
    outer loop
      vertex  5.000000e+000  8.498323e+001 -1.776304e+000
      vertex  5.000000e+000  7.986601e+001 -8.740011e-001
      vertex  5.000000e+000  8.038696e+001 -1.776304e+000
    endloop
  endfacet
  facet normal  1.000000e+000  -0.000000e+000  0.000000e+000
    outer loop
      vertex  5.000000e+000  8.498323e+001 -1.776304e+000
      vertex  5.000000e+000  8.038696e+001 -1.776304e+000
      vertex  5.000000e+000  8.418510e+001 -2.446017e+000
    endloop
  endfacet
  facet normal  1.000000e+000  0.000000e+000  0.000000e+000
    outer loop
      vertex  5.000000e+000  8.418510e+001 -2.446017e+000
      vertex  5.000000e+000  8.038696e+001 -1.776304e+000
      vertex  5.000000e+000  8.118510e+001 -2.446017e+000
    endloop
  endfacet
  facet normal  1.000000e+000  -0.000000e+000  0.000000e+000
    outer loop
      vertex  5.000000e+000  8.418510e+001 -2.446017e+000
      vertex  5.000000e+000  8.118510e+001 -2.446017e+000
      vertex  5.000000e+000  8.320604e+001 -2.802364e+000
    endloop
  endfacet
  facet normal  1.000000e+000  0.000000e+000  0.000000e+000
    outer loop
      vertex  5.000000e+000  8.320604e+001 -2.802364e+000
      vertex  5.000000e+000  8.118510e+001 -2.446017e+000
      vertex  5.000000e+000  8.216415e+001 -2.802364e+000
    endloop
  endfacet
  facet normal  9.286075e-001  3.654263e-001 -6.443498e-002
    outer loop
      vertex  5.000000e+000  8.568510e+001  1.520593e-001
      vertex  5.000000e+000  8.550417e+001 -8.740011e-001
      vertex  4.853553e+000  8.587451e+001 -8.842457e-001
    endloop
  endfacet
  facet normal  9.221871e-001  3.819822e-001 -6.050160e-002
    outer loop
      vertex  5.000000e+000  8.568510e+001  1.520593e-001
      vertex  4.853553e+000  8.587451e+001 -8.842457e-001
      vertex  4.853553e+000  8.603865e+001  1.520593e-001
    endloop
  endfacet
  facet normal  9.221873e-001 -3.819823e-001 -6.049880e-002
    outer loop
      vertex  5.000000e+000  7.968510e+001  1.520593e-001
      vertex  4.853553e+000  7.933154e+001  1.520593e-001
      vertex  4.853553e+000  7.949567e+001 -8.842457e-001
    endloop
  endfacet
  facet normal  9.286075e-001 -3.654264e-001 -6.443229e-002
    outer loop
      vertex  5.000000e+000  7.968510e+001  1.520593e-001
      vertex  4.853553e+000  7.949567e+001 -8.842457e-001
      vertex  5.000000e+000  7.986601e+001 -8.740011e-001
    endloop
  endfacet
  facet normal  9.333444e-001 -3.108870e-001 -1.794927e-001
    outer loop
      vertex  4.853553e+000  7.997202e+001 -1.819110e+000
      vertex  5.000000e+000  8.038696e+001 -1.776304e+000
      vertex  5.000000e+000  7.986601e+001 -8.740011e-001
    endloop
  endfacet
  facet normal  9.161085e-001 -3.572310e-001 -1.820198e-001
    outer loop
      vertex  4.853553e+000  7.997202e+001 -1.819110e+000
      vertex  5.000000e+000  7.986601e+001 -8.740011e-001
      vertex  4.853553e+000  7.949567e+001 -8.842457e-001
    endloop
  endfacet
  facet normal  9.364593e-001 -2.254745e-001 -2.687103e-001
    outer loop
      vertex  4.853553e+000  8.071392e+001 -2.561022e+000
      vertex  5.000000e+000  8.118510e+001 -2.446017e+000
      vertex  5.000000e+000  8.038696e+001 -1.776304e+000
    endloop
  endfacet
  facet normal  9.110878e-001 -2.914796e-001 -2.914768e-001
    outer loop
      vertex  4.853553e+000  8.071392e+001 -2.561022e+000
      vertex  5.000000e+000  8.038696e+001 -1.776304e+000
      vertex  4.853553e+000  7.997202e+001 -1.819110e+000
    endloop
  endfacet
  facet normal  9.382270e-001 -1.183466e-001 -3.251525e-001
    outer loop
      vertex  4.853553e+000  8.164879e+001 -3.037359e+000
      vertex  5.000000e+000  8.216415e+001 -2.802364e+000
      vertex  5.000000e+000  8.118510e+001 -2.446017e+000
    endloop
  endfacet
  facet normal  9.074946e-001 -1.907044e-001 -3.742798e-001
    outer loop
      vertex  4.853553e+000  8.164879e+001 -3.037359e+000
      vertex  5.000000e+000  8.118510e+001 -2.446017e+000
      vertex  4.853553e+000  8.071392e+001 -2.561022e+000
    endloop
  endfacet
  facet normal  9.388011e-001  0.000000e+000 -3.444599e-001
    outer loop
      vertex  4.853553e+000  8.268510e+001 -3.201494e+000
      vertex  5.000000e+000  8.320604e+001 -2.802364e+000
      vertex  5.000000e+000  8.216415e+001 -2.802364e+000
    endloop
  endfacet
  facet normal  9.056166e-001 -6.634322e-002 -4.188761e-001
    outer loop
      vertex  4.853553e+000  8.268510e+001 -3.201494e+000
      vertex  5.000000e+000  8.216415e+001 -2.802364e+000
      vertex  4.853553e+000  8.164879e+001 -3.037359e+000
    endloop
  endfacet
  facet normal  9.382268e-001  1.183460e-001 -3.251536e-001
    outer loop
      vertex  4.853553e+000  8.372140e+001 -3.037359e+000
      vertex  5.000000e+000  8.418510e+001 -2.446017e+000
      vertex  5.000000e+000  8.320604e+001 -2.802364e+000
    endloop
  endfacet
  facet normal  9.056169e-001  6.634361e-002 -4.188755e-001
    outer loop
      vertex  4.853553e+000  8.372140e+001 -3.037359e+000
      vertex  5.000000e+000  8.320604e+001 -2.802364e+000
      vertex  4.853553e+000  8.268510e+001 -3.201494e+000
    endloop
  endfacet
  facet normal  9.364578e-001  2.254770e-001 -2.687133e-001
    outer loop
      vertex  4.853553e+000  8.465627e+001 -2.561022e+000
      vertex  5.000000e+000  8.498323e+001 -1.776304e+000
      vertex  5.000000e+000  8.418510e+001 -2.446017e+000
    endloop
  endfacet
  facet normal  9.074928e-001  1.907061e-001 -3.742832e-001
    outer loop
      vertex  4.853553e+000  8.465627e+001 -2.561022e+000
      vertex  5.000000e+000  8.418510e+001 -2.446017e+000
      vertex  4.853553e+000  8.372140e+001 -3.037359e+000
    endloop
  endfacet
  facet normal  9.333447e-001  3.108873e-001 -1.794902e-001
    outer loop
      vertex  4.853553e+000  8.539818e+001 -1.819110e+000
      vertex  5.000000e+000  8.550417e+001 -8.740011e-001
      vertex  5.000000e+000  8.498323e+001 -1.776304e+000
    endloop
  endfacet
  facet normal  9.110872e-001  2.914791e-001 -2.914793e-001
    outer loop
      vertex  4.853553e+000  8.539818e+001 -1.819110e+000
      vertex  5.000000e+000  8.498323e+001 -1.776304e+000
      vertex  4.853553e+000  8.465627e+001 -2.561022e+000
    endloop
  endfacet
  facet normal  9.161090e-001  3.572313e-001 -1.820171e-001
    outer loop
      vertex  4.853553e+000  8.587451e+001 -8.842457e-001
      vertex  5.000000e+000  8.550417e+001 -8.740011e-001
      vertex  4.853553e+000  8.539818e+001 -1.819110e+000
    endloop
  endfacet
  facet normal  3.786505e-001 -9.141453e-001 -1.447834e-001
    outer loop
      vertex  4.853553e+000  7.933154e+001  1.520593e-001
      vertex  4.500000e+000  7.918510e+001  1.520593e-001
      vertex  4.853553e+000  7.949567e+001 -8.842457e-001
    endloop
  endfacet
  facet normal  3.786414e-001 -9.141483e-001 -1.447874e-001
    outer loop
      vertex  4.853553e+000  7.949567e+001 -8.842457e-001
      vertex  4.500000e+000  7.918510e+001  1.520593e-001
      vertex  4.500000e+000  7.935640e+001 -9.295002e-001
    endloop
  endfacet
  facet normal  3.786421e-001 -8.246635e-001 -4.201907e-001
    outer loop
      vertex  4.853553e+000  7.949567e+001 -8.842457e-001
      vertex  4.500000e+000  7.935640e+001 -9.295002e-001
      vertex  4.853553e+000  7.997202e+001 -1.819110e+000
    endloop
  endfacet
  facet normal  3.786642e-001 -8.246593e-001 -4.201790e-001
    outer loop
      vertex  4.853553e+000  7.997202e+001 -1.819110e+000
      vertex  4.500000e+000  7.935640e+001 -9.295002e-001
      vertex  4.500000e+000  7.985353e+001 -1.905189e+000
    endloop
  endfacet
  facet normal  3.786620e-001 -6.544552e-001 -6.544489e-001
    outer loop
      vertex  4.853553e+000  7.997202e+001 -1.819110e+000
      vertex  4.500000e+000  7.985353e+001 -1.905189e+000
      vertex  4.853553e+000  8.071392e+001 -2.561022e+000
    endloop
  endfacet
  facet normal  3.786445e-001 -6.544555e-001 -6.544588e-001
    outer loop
      vertex  4.853553e+000  8.071392e+001 -2.561022e+000
      vertex  4.500000e+000  7.985353e+001 -1.905189e+000
      vertex  4.500000e+000  8.062785e+001 -2.679500e+000
    endloop
  endfacet
  facet normal  3.786468e-001 -4.201857e-001 -8.246639e-001
    outer loop
      vertex  4.853553e+000  8.071392e+001 -2.561022e+000
      vertex  4.500000e+000  8.062785e+001 -2.679500e+000
      vertex  4.853553e+000  8.164879e+001 -3.037359e+000
    endloop
  endfacet
  facet normal  3.786545e-001 -4.201869e-001 -8.246598e-001
    outer loop
      vertex  4.853553e+000  8.164879e+001 -3.037359e+000
      vertex  4.500000e+000  8.062785e+001 -2.679500e+000
      vertex  4.500000e+000  8.160353e+001 -3.176639e+000
    endloop
  endfacet
  facet normal  3.786525e-001 -1.447857e-001 -9.141441e-001
    outer loop
      vertex  4.853553e+000  8.164879e+001 -3.037359e+000
      vertex  4.500000e+000  8.160353e+001 -3.176639e+000
      vertex  4.853553e+000  8.268510e+001 -3.201494e+000
    endloop
  endfacet
  facet normal  3.786514e-001 -1.447853e-001 -9.141446e-001
    outer loop
      vertex  4.853553e+000  8.268510e+001 -3.201494e+000
      vertex  4.500000e+000  8.160353e+001 -3.176639e+000
      vertex  4.500000e+000  8.268510e+001 -3.347941e+000
    endloop
  endfacet
  facet normal  3.786514e-001  1.447868e-001 -9.141444e-001
    outer loop
      vertex  4.853553e+000  8.268510e+001 -3.201494e+000
      vertex  4.500000e+000  8.268510e+001 -3.347941e+000
      vertex  4.853553e+000  8.372140e+001 -3.037359e+000
    endloop
  endfacet
  facet normal  3.786525e-001  1.447863e-001 -9.141440e-001
    outer loop
      vertex  4.853553e+000  8.372140e+001 -3.037359e+000
      vertex  4.500000e+000  8.268510e+001 -3.347941e+000
      vertex  4.500000e+000  8.376665e+001 -3.176639e+000
    endloop
  endfacet
  facet normal  3.786546e-001  4.201843e-001 -8.246611e-001
    outer loop
      vertex  4.853553e+000  8.372140e+001 -3.037359e+000
      vertex  4.500000e+000  8.376665e+001 -3.176639e+000
      vertex  4.853553e+000  8.465627e+001 -2.561022e+000
    endloop
  endfacet
  facet normal  3.786469e-001  4.201883e-001 -8.246626e-001
    outer loop
      vertex  4.853553e+000  8.465627e+001 -2.561022e+000
      vertex  4.500000e+000  8.376665e+001 -3.176639e+000
      vertex  4.500000e+000  8.474234e+001 -2.679500e+000
    endloop
  endfacet
  facet normal  3.786444e-001  6.544570e-001 -6.544574e-001
    outer loop
      vertex  4.853553e+000  8.465627e+001 -2.561022e+000
      vertex  4.500000e+000  8.474234e+001 -2.679500e+000
      vertex  4.853553e+000  8.539818e+001 -1.819110e+000
    endloop
  endfacet
  facet normal  3.786495e-001  6.544541e-001 -6.544573e-001
    outer loop
      vertex  4.853553e+000  8.539818e+001 -1.819110e+000
      vertex  4.500000e+000  8.474234e+001 -2.679500e+000
      vertex  4.500000e+000  8.551665e+001 -1.905189e+000
    endloop
  endfacet
  facet normal  3.786491e-001  8.246636e-001 -4.201840e-001
    outer loop
      vertex  4.853553e+000  8.539818e+001 -1.819110e+000
      vertex  4.500000e+000  8.551665e+001 -1.905189e+000
      vertex  4.853553e+000  8.587451e+001 -8.842457e-001
    endloop
  endfacet
  facet normal  3.786575e-001  8.246592e-001 -4.201854e-001
    outer loop
      vertex  4.853553e+000  8.587451e+001 -8.842457e-001
      vertex  4.500000e+000  8.551665e+001 -1.905189e+000
      vertex  4.500000e+000  8.601379e+001 -9.295002e-001
    endloop
  endfacet
  facet normal  3.786585e-001  9.141409e-001 -1.447894e-001
    outer loop
      vertex  4.853553e+000  8.587451e+001 -8.842457e-001
      vertex  4.500000e+000  8.601379e+001 -9.295002e-001
      vertex  4.853553e+000  8.603865e+001  1.520593e-001
    endloop
  endfacet
  facet normal  3.786503e-001  9.141448e-001 -1.447868e-001
    outer loop
      vertex  4.853553e+000  8.603865e+001  1.520593e-001
      vertex  4.500000e+000  8.601379e+001 -9.295002e-001
      vertex  4.500000e+000  8.618510e+001  1.520593e-001
    endloop
  endfacet
  facet normal  9.286075e-001 -3.654264e-001  6.443228e-002
    outer loop
      vertex  5.000000e+000  7.968510e+001  1.520593e-001
      vertex  5.000000e+000  7.986601e+001  1.178120e+000
      vertex  4.853553e+000  7.949567e+001  1.188364e+000
    endloop
  endfacet
  facet normal  9.221873e-001 -3.819823e-001  6.049880e-002
    outer loop
      vertex  5.000000e+000  7.968510e+001  1.520593e-001
      vertex  4.853553e+000  7.949567e+001  1.188364e+000
      vertex  4.853553e+000  7.933154e+001  1.520593e-001
    endloop
  endfacet
  facet normal  9.221871e-001  3.819822e-001  6.050160e-002
    outer loop
      vertex  5.000000e+000  8.568510e+001  1.520593e-001
      vertex  4.853553e+000  8.603865e+001  1.520593e-001
      vertex  4.853553e+000  8.587451e+001  1.188364e+000
    endloop
  endfacet
  facet normal  9.286074e-001  3.654263e-001  6.443498e-002
    outer loop
      vertex  5.000000e+000  8.568510e+001  1.520593e-001
      vertex  4.853553e+000  8.587451e+001  1.188364e+000
      vertex  5.000000e+000  8.550417e+001  1.178120e+000
    endloop
  endfacet
  facet normal  9.333447e-001  3.108873e-001  1.794902e-001
    outer loop
      vertex  4.853553e+000  8.539818e+001  2.123229e+000
      vertex  5.000000e+000  8.498323e+001  2.080422e+000
      vertex  5.000000e+000  8.550417e+001  1.178120e+000
    endloop
  endfacet
  facet normal  9.161089e-001  3.572313e-001  1.820171e-001
    outer loop
      vertex  4.853553e+000  8.539818e+001  2.123229e+000
      vertex  5.000000e+000  8.550417e+001  1.178120e+000
      vertex  4.853553e+000  8.587451e+001  1.188364e+000
    endloop
  endfacet
  facet normal  9.364578e-001  2.254770e-001  2.687133e-001
    outer loop
      vertex  4.853553e+000  8.465627e+001  2.865141e+000
      vertex  5.000000e+000  8.418510e+001  2.750135e+000
      vertex  5.000000e+000  8.498323e+001  2.080422e+000
    endloop
  endfacet
  facet normal  9.110872e-001  2.914791e-001  2.914793e-001
    outer loop
      vertex  4.853553e+000  8.465627e+001  2.865141e+000
      vertex  5.000000e+000  8.498323e+001  2.080422e+000
      vertex  4.853553e+000  8.539818e+001  2.123229e+000
    endloop
  endfacet
  facet normal  9.382268e-001  1.183460e-001  3.251536e-001
    outer loop
      vertex  4.853553e+000  8.372140e+001  3.341478e+000
      vertex  5.000000e+000  8.320604e+001  3.106483e+000
      vertex  5.000000e+000  8.418510e+001  2.750135e+000
    endloop
  endfacet
  facet normal  9.074928e-001  1.907061e-001  3.742832e-001
    outer loop
      vertex  4.853553e+000  8.372140e+001  3.341478e+000
      vertex  5.000000e+000  8.418510e+001  2.750135e+000
      vertex  4.853553e+000  8.465627e+001  2.865141e+000
    endloop
  endfacet
  facet normal  9.388011e-001  -0.000000e+000  3.444599e-001
    outer loop
      vertex  4.853553e+000  8.268510e+001  3.505613e+000
      vertex  5.000000e+000  8.216415e+001  3.106483e+000
      vertex  5.000000e+000  8.320604e+001  3.106483e+000
    endloop
  endfacet
  facet normal  9.056169e-001  6.634361e-002  4.188755e-001
    outer loop
      vertex  4.853553e+000  8.268510e+001  3.505613e+000
      vertex  5.000000e+000  8.320604e+001  3.106483e+000
      vertex  4.853553e+000  8.372140e+001  3.341478e+000
    endloop
  endfacet
  facet normal  9.382270e-001 -1.183466e-001  3.251525e-001
    outer loop
      vertex  4.853553e+000  8.164879e+001  3.341478e+000
      vertex  5.000000e+000  8.118510e+001  2.750135e+000
      vertex  5.000000e+000  8.216415e+001  3.106483e+000
    endloop
  endfacet
  facet normal  9.056166e-001 -6.634322e-002  4.188761e-001
    outer loop
      vertex  4.853553e+000  8.164879e+001  3.341478e+000
      vertex  5.000000e+000  8.216415e+001  3.106483e+000
      vertex  4.853553e+000  8.268510e+001  3.505613e+000
    endloop
  endfacet
  facet normal  9.364593e-001 -2.254745e-001  2.687103e-001
    outer loop
      vertex  4.853553e+000  8.071392e+001  2.865141e+000
      vertex  5.000000e+000  8.038696e+001  2.080422e+000
      vertex  5.000000e+000  8.118510e+001  2.750135e+000
    endloop
  endfacet
  facet normal  9.074946e-001 -1.907044e-001  3.742798e-001
    outer loop
      vertex  4.853553e+000  8.071392e+001  2.865141e+000
      vertex  5.000000e+000  8.118510e+001  2.750135e+000
      vertex  4.853553e+000  8.164879e+001  3.341478e+000
    endloop
  endfacet
  facet normal  9.333444e-001 -3.108870e-001  1.794927e-001
    outer loop
      vertex  4.853553e+000  7.997202e+001  2.123229e+000
      vertex  5.000000e+000  7.986601e+001  1.178120e+000
      vertex  5.000000e+000  8.038696e+001  2.080422e+000
    endloop
  endfacet
  facet normal  9.110878e-001 -2.914796e-001  2.914768e-001
    outer loop
      vertex  4.853553e+000  7.997202e+001  2.123229e+000
      vertex  5.000000e+000  8.038696e+001  2.080422e+000
      vertex  4.853553e+000  8.071392e+001  2.865141e+000
    endloop
  endfacet
  facet normal  9.161085e-001 -3.572310e-001  1.820198e-001
    outer loop
      vertex  4.853553e+000  7.949567e+001  1.188364e+000
      vertex  5.000000e+000  7.986601e+001  1.178120e+000
      vertex  4.853553e+000  7.997202e+001  2.123229e+000
    endloop
  endfacet
  facet normal  3.786501e-001  9.141443e-001  1.447900e-001
    outer loop
      vertex  4.853553e+000  8.603865e+001  1.520593e-001
      vertex  4.500000e+000  8.618510e+001  1.520593e-001
      vertex  4.853553e+000  8.587451e+001  1.188364e+000
    endloop
  endfacet
  facet normal  3.786583e-001  9.141415e-001  1.447863e-001
    outer loop
      vertex  4.853553e+000  8.587451e+001  1.188364e+000
      vertex  4.500000e+000  8.618510e+001  1.520593e-001
      vertex  4.500000e+000  8.601379e+001  1.233619e+000
    endloop
  endfacet
  facet normal  3.786577e-001  8.246605e-001  4.201824e-001
    outer loop
      vertex  4.853553e+000  8.587451e+001  1.188364e+000
      vertex  4.500000e+000  8.601379e+001  1.233619e+000
      vertex  4.853553e+000  8.539818e+001  2.123229e+000
    endloop
  endfacet
  facet normal  3.786493e-001  8.246622e-001  4.201869e-001
    outer loop
      vertex  4.853553e+000  8.539818e+001  2.123229e+000
      vertex  4.500000e+000  8.601379e+001  1.233619e+000
      vertex  4.500000e+000  8.551665e+001  2.209308e+000
    endloop
  endfacet
  facet normal  3.786497e-001  6.544555e-001  6.544559e-001
    outer loop
      vertex  4.853553e+000  8.539818e+001  2.123229e+000
      vertex  4.500000e+000  8.551665e+001  2.209308e+000
      vertex  4.853553e+000  8.465627e+001  2.865141e+000
    endloop
  endfacet
  facet normal  3.786445e-001  6.544555e-001  6.544588e-001
    outer loop
      vertex  4.853553e+000  8.465627e+001  2.865141e+000
      vertex  4.500000e+000  8.551665e+001  2.209308e+000
      vertex  4.500000e+000  8.474234e+001  2.983619e+000
    endloop
  endfacet
  facet normal  3.786468e-001  4.201857e-001  8.246639e-001
    outer loop
      vertex  4.853553e+000  8.465627e+001  2.865141e+000
      vertex  4.500000e+000  8.474234e+001  2.983619e+000
      vertex  4.853553e+000  8.372140e+001  3.341478e+000
    endloop
  endfacet
  facet normal  3.786540e-001  4.201868e-001  8.246601e-001
    outer loop
      vertex  4.853553e+000  8.372140e+001  3.341478e+000
      vertex  4.500000e+000  8.474234e+001  2.983619e+000
      vertex  4.500000e+000  8.376665e+001  3.480757e+000
    endloop
  endfacet
  facet normal  3.786520e-001  1.447867e-001  9.141442e-001
    outer loop
      vertex  4.853553e+000  8.372140e+001  3.341478e+000
      vertex  4.500000e+000  8.376665e+001  3.480757e+000
      vertex  4.853553e+000  8.268510e+001  3.505613e+000
    endloop
  endfacet
  facet normal  3.786514e-001  1.447865e-001  9.141443e-001
    outer loop
      vertex  4.853553e+000  8.268510e+001  3.505613e+000
      vertex  4.500000e+000  8.376665e+001  3.480757e+000
      vertex  4.500000e+000  8.268510e+001  3.652059e+000
    endloop
  endfacet
  facet normal  3.786514e-001 -1.447857e-001  9.141445e-001
    outer loop
      vertex  4.853553e+000  8.268510e+001  3.505613e+000
      vertex  4.500000e+000  8.268510e+001  3.652059e+000
      vertex  4.853553e+000  8.164879e+001  3.341478e+000
    endloop
  endfacet
  facet normal  3.786519e-001 -1.447855e-001  9.141443e-001
    outer loop
      vertex  4.853553e+000  8.164879e+001  3.341478e+000
      vertex  4.500000e+000  8.268510e+001  3.652059e+000
      vertex  4.500000e+000  8.160353e+001  3.480757e+000
    endloop
  endfacet
  facet normal  3.786541e-001 -4.201843e-001  8.246612e-001
    outer loop
      vertex  4.853553e+000  8.164879e+001  3.341478e+000
      vertex  4.500000e+000  8.160353e+001  3.480757e+000
      vertex  4.853553e+000  8.071392e+001  2.865141e+000
    endloop
  endfacet
  facet normal  3.786469e-001 -4.201882e-001  8.246626e-001
    outer loop
      vertex  4.853553e+000  8.071392e+001  2.865141e+000
      vertex  4.500000e+000  8.160353e+001  3.480757e+000
      vertex  4.500000e+000  8.062785e+001  2.983619e+000
    endloop
  endfacet
  facet normal  3.786441e-001 -6.544605e-001  6.544542e-001
    outer loop
      vertex  4.853553e+000  8.071392e+001  2.865141e+000
      vertex  4.500000e+000  8.062785e+001  2.983619e+000
      vertex  4.853553e+000  7.997202e+001  2.123229e+000
    endloop
  endfacet
  facet normal  3.786616e-001 -6.544506e-001  6.544538e-001
    outer loop
      vertex  4.853553e+000  7.997202e+001  2.123229e+000
      vertex  4.500000e+000  8.062785e+001  2.983619e+000
      vertex  4.500000e+000  7.985353e+001  2.209308e+000
    endloop
  endfacet
  facet normal  3.786647e-001 -8.246552e-001  4.201864e-001
    outer loop
      vertex  4.853553e+000  7.997202e+001  2.123229e+000
      vertex  4.500000e+000  7.985353e+001  2.209308e+000
      vertex  4.853553e+000  7.949567e+001  1.188364e+000
    endloop
  endfacet
  facet normal  3.786426e-001 -8.246672e-001  4.201830e-001
    outer loop
      vertex  4.853553e+000  7.949567e+001  1.188364e+000
      vertex  4.500000e+000  7.985353e+001  2.209308e+000
      vertex  4.500000e+000  7.935640e+001  1.233619e+000
    endloop
  endfacet
  facet normal  3.786412e-001 -9.141490e-001  1.447840e-001
    outer loop
      vertex  4.853553e+000  7.949567e+001  1.188364e+000
      vertex  4.500000e+000  7.935640e+001  1.233619e+000
      vertex  4.853553e+000  7.933154e+001  1.520593e-001
    endloop
  endfacet
  facet normal  3.786503e-001 -9.141448e-001  1.447868e-001
    outer loop
      vertex  4.853553e+000  7.933154e+001  1.520593e-001
      vertex  4.500000e+000  7.935640e+001  1.233619e+000
      vertex  4.500000e+000  7.918510e+001  1.520593e-001
    endloop
  endfacet
  facet normal -1.000000e+000  0.000000e+000  0.000000e+000
    outer loop
      vertex  3.000000e+000  8.268510e+001 -3.347941e+000
      vertex  3.000000e+000  8.474234e+001 -2.679500e+000
      vertex  3.000000e+000  8.376665e+001 -3.176639e+000
    endloop
  endfacet
  facet normal -1.000000e+000  0.000000e+000  0.000000e+000
    outer loop
      vertex  3.000000e+000  8.268510e+001 -3.347941e+000
      vertex  3.000000e+000  8.160353e+001 -3.176639e+000
      vertex  3.000000e+000  8.062785e+001 -2.679500e+000
    endloop
  endfacet
  facet normal -1.000000e+000  0.000000e+000  0.000000e+000
    outer loop
      vertex  3.000000e+000  8.551665e+001 -1.905189e+000
      vertex  3.000000e+000  8.474234e+001 -2.679500e+000
      vertex  3.000000e+000  8.301888e+001 -1.310333e+000
    endloop
  endfacet
  facet normal -1.000000e+000  0.000000e+000  0.000000e+000
    outer loop
      vertex  3.000000e+000  8.551665e+001 -1.905189e+000
      vertex  3.000000e+000  8.301888e+001 -1.310333e+000
      vertex  3.000000e+000  8.362033e+001 -1.020688e+000
    endloop
  endfacet
  facet normal -1.000000e+000  0.000000e+000  0.000000e+000
    outer loop
      vertex  3.000000e+000  8.551665e+001 -1.905189e+000
      vertex  3.000000e+000  8.362033e+001 -1.020688e+000
      vertex  3.000000e+000  8.601379e+001 -9.295002e-001
    endloop
  endfacet
  facet normal -1.000000e+000  0.000000e+000  0.000000e+000
    outer loop
      vertex  3.000000e+000  8.062785e+001 -2.679500e+000
      vertex  3.000000e+000  7.985353e+001 -1.905189e+000
      vertex  3.000000e+000  8.268510e+001 -3.347941e+000
    endloop
  endfacet
  facet normal -1.000000e+000  0.000000e+000  0.000000e+000
    outer loop
      vertex  3.000000e+000  8.268510e+001 -3.347941e+000
      vertex  3.000000e+000  7.985353e+001 -1.905189e+000
      vertex  3.000000e+000  8.235131e+001 -1.310333e+000
    endloop
  endfacet
  facet normal -1.000000e+000  0.000000e+000  0.000000e+000
    outer loop
      vertex  3.000000e+000  8.268510e+001 -3.347941e+000
      vertex  3.000000e+000  8.235131e+001 -1.310333e+000
      vertex  3.000000e+000  8.474234e+001 -2.679500e+000
    endloop
  endfacet
  facet normal -1.000000e+000  0.000000e+000  0.000000e+000
    outer loop
      vertex  3.000000e+000  8.474234e+001 -2.679500e+000
      vertex  3.000000e+000  8.235131e+001 -1.310333e+000
      vertex  3.000000e+000  8.301888e+001 -1.310333e+000
    endloop
  endfacet
  facet normal -1.000000e+000  0.000000e+000  -0.000000e+000
    outer loop
      vertex  3.000000e+000  7.985353e+001  2.209308e+000
      vertex  3.000000e+000  8.062785e+001  2.983619e+000
      vertex  3.000000e+000  8.235131e+001  1.614451e+000
    endloop
  endfacet
  facet normal -1.000000e+000  0.000000e+000  0.000000e+000
    outer loop
      vertex  3.000000e+000  8.235131e+001  1.614451e+000
      vertex  3.000000e+000  8.062785e+001  2.983619e+000
      vertex  3.000000e+000  8.160353e+001  3.480757e+000
    endloop
  endfacet
  facet normal -1.000000e+000  0.000000e+000  0.000000e+000
    outer loop
      vertex  3.000000e+000  8.235131e+001  1.614451e+000
      vertex  3.000000e+000  8.160353e+001  3.480757e+000
      vertex  3.000000e+000  8.301888e+001  1.614451e+000
    endloop
  endfacet
  facet normal -9.999999e-001  0.000000e+000  0.000000e+000
    outer loop
      vertex  3.000000e+000  8.301888e+001  1.614451e+000
      vertex  3.000000e+000  8.160353e+001  3.480757e+000
      vertex  3.000000e+000  8.268510e+001  3.652059e+000
    endloop
  endfacet
  facet normal -1.000000e+000  0.000000e+000  0.000000e+000
    outer loop
      vertex  3.000000e+000  8.301888e+001  1.614451e+000
      vertex  3.000000e+000  8.268510e+001  3.652059e+000
      vertex  3.000000e+000  8.551665e+001  2.209308e+000
    endloop
  endfacet
  facet normal -1.000000e+000  0.000000e+000  0.000000e+000
    outer loop
      vertex  3.000000e+000  8.551665e+001  2.209308e+000
      vertex  3.000000e+000  8.268510e+001  3.652059e+000
      vertex  3.000000e+000  8.376665e+001  3.480757e+000
    endloop
  endfacet
  facet normal -9.999999e-001  0.000000e+000  0.000000e+000
    outer loop
      vertex  3.000000e+000  8.551665e+001  2.209308e+000
      vertex  3.000000e+000  8.376665e+001  3.480757e+000
      vertex  3.000000e+000  8.474234e+001  2.983619e+000
    endloop
  endfacet
  facet normal -1.000000e+000  0.000000e+000  0.000000e+000
    outer loop
      vertex  3.000000e+000  8.301888e+001  1.614451e+000
      vertex  3.000000e+000  8.551665e+001  2.209308e+000
      vertex  3.000000e+000  8.362033e+001  1.324807e+000
    endloop
  endfacet
  facet normal -1.000000e+000  0.000000e+000  0.000000e+000
    outer loop
      vertex  3.000000e+000  8.362033e+001  1.324807e+000
      vertex  3.000000e+000  8.551665e+001  2.209308e+000
      vertex  3.000000e+000  8.601379e+001  1.233619e+000
    endloop
  endfacet
  facet normal -1.000000e+000  -0.000000e+000  0.000000e+000
    outer loop
      vertex  3.000000e+000  8.362033e+001  1.324807e+000
      vertex  3.000000e+000  8.601379e+001  1.233619e+000
      vertex  3.000000e+000  8.403654e+001  8.028849e-001
    endloop
  endfacet
  facet normal -1.000000e+000  0.000000e+000  0.000000e+000
    outer loop
      vertex  3.000000e+000  8.403654e+001  8.028849e-001
      vertex  3.000000e+000  8.601379e+001  1.233619e+000
      vertex  3.000000e+000  8.618510e+001  1.520593e-001
    endloop
  endfacet
  facet normal -1.000000e+000  0.000000e+000  0.000000e+000
    outer loop
      vertex  3.000000e+000  8.403654e+001  8.028849e-001
      vertex  3.000000e+000  8.618510e+001  1.520593e-001
      vertex  3.000000e+000  8.418510e+001  1.520593e-001
    endloop
  endfacet
  facet normal -1.000000e+000  -0.000000e+000  0.000000e+000
    outer loop
      vertex  3.000000e+000  8.418510e+001  1.520593e-001
      vertex  3.000000e+000  8.618510e+001  1.520593e-001
      vertex  3.000000e+000  8.403654e+001 -4.987663e-001
    endloop
  endfacet
  facet normal -1.000000e+000  0.000000e+000  0.000000e+000
    outer loop
      vertex  3.000000e+000  8.403654e+001 -4.987663e-001
      vertex  3.000000e+000  8.618510e+001  1.520593e-001
      vertex  3.000000e+000  8.601379e+001 -9.295002e-001
    endloop
  endfacet
  facet normal -9.999999e-001  -0.000000e+000  0.000000e+000
    outer loop
      vertex  3.000000e+000  8.403654e+001 -4.987663e-001
      vertex  3.000000e+000  8.601379e+001 -9.295002e-001
      vertex  3.000000e+000  8.362033e+001 -1.020688e+000
    endloop
  endfacet
  facet normal -1.000000e+000  -0.000000e+000  0.000000e+000
    outer loop
      vertex  3.000000e+000  7.985353e+001  2.209308e+000
      vertex  3.000000e+000  8.235131e+001  1.614451e+000
      vertex  3.000000e+000  7.935640e+001  1.233619e+000
    endloop
  endfacet
  facet normal -1.000000e+000  0.000000e+000  0.000000e+000
    outer loop
      vertex  3.000000e+000  7.935640e+001  1.233619e+000
      vertex  3.000000e+000  8.235131e+001  1.614451e+000
      vertex  3.000000e+000  8.174986e+001  1.324807e+000
    endloop
  endfacet
  facet normal -9.999999e-001  0.000000e+000  0.000000e+000
    outer loop
      vertex  3.000000e+000  7.935640e+001  1.233619e+000
      vertex  3.000000e+000  8.174986e+001  1.324807e+000
      vertex  3.000000e+000  7.918510e+001  1.520593e-001
    endloop
  endfacet
  facet normal -1.000000e+000  0.000000e+000  0.000000e+000
    outer loop
      vertex  3.000000e+000  7.918510e+001  1.520593e-001
      vertex  3.000000e+000  8.174986e+001  1.324807e+000
      vertex  3.000000e+000  8.133364e+001  8.028849e-001
    endloop
  endfacet
  facet normal -1.000000e+000  0.000000e+000  0.000000e+000
    outer loop
      vertex  3.000000e+000  7.918510e+001  1.520593e-001
      vertex  3.000000e+000  8.133364e+001  8.028849e-001
      vertex  3.000000e+000  8.118510e+001  1.520593e-001
    endloop
  endfacet
  facet normal -1.000000e+000  -0.000000e+000  0.000000e+000
    outer loop
      vertex  3.000000e+000  7.918510e+001  1.520593e-001
      vertex  3.000000e+000  8.118510e+001  1.520593e-001
      vertex  3.000000e+000  7.935640e+001 -9.295002e-001
    endloop
  endfacet
  facet normal -1.000000e+000  0.000000e+000  0.000000e+000
    outer loop
      vertex  3.000000e+000  7.935640e+001 -9.295002e-001
      vertex  3.000000e+000  8.118510e+001  1.520593e-001
      vertex  3.000000e+000  8.133364e+001 -4.987663e-001
    endloop
  endfacet
  facet normal -1.000000e+000  0.000000e+000  -0.000000e+000
    outer loop
      vertex  3.000000e+000  7.935640e+001 -9.295002e-001
      vertex  3.000000e+000  8.133364e+001 -4.987663e-001
      vertex  3.000000e+000  8.174986e+001 -1.020688e+000
    endloop
  endfacet
  facet normal -1.000000e+000  0.000000e+000  0.000000e+000
    outer loop
      vertex  3.000000e+000  8.174986e+001 -1.020688e+000
      vertex  3.000000e+000  8.235131e+001 -1.310333e+000
      vertex  3.000000e+000  7.935640e+001 -9.295002e-001
    endloop
  endfacet
  facet normal -1.000000e+000  0.000000e+000  0.000000e+000
    outer loop
      vertex  3.000000e+000  7.935640e+001 -9.295002e-001
      vertex  3.000000e+000  8.235131e+001 -1.310333e+000
      vertex  3.000000e+000  7.985353e+001 -1.905189e+000
    endloop
  endfacet
  facet normal  0.000000e+000 -9.749287e-001 -2.225175e-001
    outer loop
      vertex  3.000000e+000  8.118510e+001  1.520593e-001
      vertex -5.000000e+000  8.118510e+001  1.520593e-001
      vertex  3.000000e+000  8.133364e+001 -4.987663e-001
    endloop
  endfacet
  facet normal  -0.000000e+000 -9.749287e-001 -2.225175e-001
    outer loop
      vertex  3.000000e+000  8.133364e+001 -4.987663e-001
      vertex -5.000000e+000  8.118510e+001  1.520593e-001
      vertex -5.000000e+000  8.133364e+001 -4.987663e-001
    endloop
  endfacet
  facet normal  0.000000e+000 -7.818349e-001 -6.234856e-001
    outer loop
      vertex  3.000000e+000  8.133364e+001 -4.987663e-001
      vertex -5.000000e+000  8.133364e+001 -4.987663e-001
      vertex  3.000000e+000  8.174986e+001 -1.020688e+000
    endloop
  endfacet
  facet normal  -0.000000e+000 -7.818349e-001 -6.234856e-001
    outer loop
      vertex  3.000000e+000  8.174986e+001 -1.020688e+000
      vertex -5.000000e+000  8.133364e+001 -4.987663e-001
      vertex -5.000000e+000  8.174986e+001 -1.020688e+000
    endloop
  endfacet
  facet normal  0.000000e+000 -4.338823e-001 -9.009696e-001
    outer loop
      vertex  3.000000e+000  8.174986e+001 -1.020688e+000
      vertex -5.000000e+000  8.174986e+001 -1.020688e+000
      vertex  3.000000e+000  8.235131e+001 -1.310333e+000
    endloop
  endfacet
  facet normal  -0.000000e+000 -4.338823e-001 -9.009696e-001
    outer loop
      vertex  3.000000e+000  8.235131e+001 -1.310333e+000
      vertex -5.000000e+000  8.174986e+001 -1.020688e+000
      vertex -5.000000e+000  8.235131e+001 -1.310333e+000
    endloop
  endfacet
  facet normal  0.000000e+000  0.000000e+000 -1.000000e+000
    outer loop
      vertex  3.000000e+000  8.235131e+001 -1.310333e+000
      vertex -5.000000e+000  8.235131e+001 -1.310333e+000
      vertex  3.000000e+000  8.301888e+001 -1.310333e+000
    endloop
  endfacet
  facet normal  -0.000000e+000  0.000000e+000 -1.000000e+000
    outer loop
      vertex  3.000000e+000  8.301888e+001 -1.310333e+000
      vertex -5.000000e+000  8.235131e+001 -1.310333e+000
      vertex -5.000000e+000  8.301888e+001 -1.310333e+000
    endloop
  endfacet
  facet normal  0.000000e+000  4.338823e-001 -9.009696e-001
    outer loop
      vertex  3.000000e+000  8.301888e+001 -1.310333e+000
      vertex -5.000000e+000  8.301888e+001 -1.310333e+000
      vertex  3.000000e+000  8.362033e+001 -1.020688e+000
    endloop
  endfacet
  facet normal  0.000000e+000  4.338823e-001 -9.009696e-001
    outer loop
      vertex  3.000000e+000  8.362033e+001 -1.020688e+000
      vertex -5.000000e+000  8.301888e+001 -1.310333e+000
      vertex -5.000000e+000  8.362033e+001 -1.020688e+000
    endloop
  endfacet
  facet normal  0.000000e+000  7.818349e-001 -6.234856e-001
    outer loop
      vertex  3.000000e+000  8.362033e+001 -1.020688e+000
      vertex -5.000000e+000  8.362033e+001 -1.020688e+000
      vertex  3.000000e+000  8.403654e+001 -4.987663e-001
    endloop
  endfacet
  facet normal  0.000000e+000  7.818349e-001 -6.234856e-001
    outer loop
      vertex  3.000000e+000  8.403654e+001 -4.987663e-001
      vertex -5.000000e+000  8.362033e+001 -1.020688e+000
      vertex -5.000000e+000  8.403654e+001 -4.987663e-001
    endloop
  endfacet
  facet normal  0.000000e+000  9.749262e-001 -2.225284e-001
    outer loop
      vertex  3.000000e+000  8.403654e+001 -4.987663e-001
      vertex -5.000000e+000  8.403654e+001 -4.987663e-001
      vertex  3.000000e+000  8.418510e+001  1.520593e-001
    endloop
  endfacet
  facet normal  0.000000e+000  9.749262e-001 -2.225284e-001
    outer loop
      vertex  3.000000e+000  8.418510e+001  1.520593e-001
      vertex -5.000000e+000  8.403654e+001 -4.987663e-001
      vertex -5.000000e+000  8.418510e+001  1.520593e-001
    endloop
  endfacet
  facet normal  -0.000000e+000  9.749262e-001  2.225284e-001
    outer loop
      vertex  3.000000e+000  8.418510e+001  1.520593e-001
      vertex -5.000000e+000  8.418510e+001  1.520593e-001
      vertex  3.000000e+000  8.403654e+001  8.028849e-001
    endloop
  endfacet
  facet normal  0.000000e+000  9.749262e-001  2.225284e-001
    outer loop
      vertex  3.000000e+000  8.403654e+001  8.028849e-001
      vertex -5.000000e+000  8.418510e+001  1.520593e-001
      vertex -5.000000e+000  8.403654e+001  8.028849e-001
    endloop
  endfacet
  facet normal  -0.000000e+000  7.818349e-001  6.234856e-001
    outer loop
      vertex  3.000000e+000  8.403654e+001  8.028849e-001
      vertex -5.000000e+000  8.403654e+001  8.028849e-001
      vertex  3.000000e+000  8.362033e+001  1.324807e+000
    endloop
  endfacet
  facet normal  0.000000e+000  7.818349e-001  6.234856e-001
    outer loop
      vertex  3.000000e+000  8.362033e+001  1.324807e+000
      vertex -5.000000e+000  8.403654e+001  8.028849e-001
      vertex -5.000000e+000  8.362033e+001  1.324807e+000
    endloop
  endfacet
  facet normal  -0.000000e+000  4.338823e-001  9.009696e-001
    outer loop
      vertex  3.000000e+000  8.362033e+001  1.324807e+000
      vertex -5.000000e+000  8.362033e+001  1.324807e+000
      vertex  3.000000e+000  8.301888e+001  1.614451e+000
    endloop
  endfacet
  facet normal  0.000000e+000  4.338823e-001  9.009696e-001
    outer loop
      vertex  3.000000e+000  8.301888e+001  1.614451e+000
      vertex -5.000000e+000  8.362033e+001  1.324807e+000
      vertex -5.000000e+000  8.301888e+001  1.614451e+000
    endloop
  endfacet
  facet normal  -0.000000e+000  0.000000e+000  1.000000e+000
    outer loop
      vertex  3.000000e+000  8.301888e+001  1.614451e+000
      vertex -5.000000e+000  8.301888e+001  1.614451e+000
      vertex  3.000000e+000  8.235131e+001  1.614451e+000
    endloop
  endfacet
  facet normal  0.000000e+000  0.000000e+000  1.000000e+000
    outer loop
      vertex  3.000000e+000  8.235131e+001  1.614451e+000
      vertex -5.000000e+000  8.301888e+001  1.614451e+000
      vertex -5.000000e+000  8.235131e+001  1.614451e+000
    endloop
  endfacet
  facet normal  0.000000e+000 -4.338823e-001  9.009696e-001
    outer loop
      vertex  3.000000e+000  8.235131e+001  1.614451e+000
      vertex -5.000000e+000  8.235131e+001  1.614451e+000
      vertex  3.000000e+000  8.174986e+001  1.324807e+000
    endloop
  endfacet
  facet normal  0.000000e+000 -4.338823e-001  9.009696e-001
    outer loop
      vertex  3.000000e+000  8.174986e+001  1.324807e+000
      vertex -5.000000e+000  8.235131e+001  1.614451e+000
      vertex -5.000000e+000  8.174986e+001  1.324807e+000
    endloop
  endfacet
  facet normal  0.000000e+000 -7.818349e-001  6.234856e-001
    outer loop
      vertex  3.000000e+000  8.174986e+001  1.324807e+000
      vertex -5.000000e+000  8.174986e+001  1.324807e+000
      vertex  3.000000e+000  8.133364e+001  8.028849e-001
    endloop
  endfacet
  facet normal  0.000000e+000 -7.818349e-001  6.234856e-001
    outer loop
      vertex  3.000000e+000  8.133364e+001  8.028849e-001
      vertex -5.000000e+000  8.174986e+001  1.324807e+000
      vertex -5.000000e+000  8.133364e+001  8.028849e-001
    endloop
  endfacet
  facet normal  0.000000e+000 -9.749287e-001  2.225175e-001
    outer loop
      vertex  3.000000e+000  8.133364e+001  8.028849e-001
      vertex -5.000000e+000  8.133364e+001  8.028849e-001
      vertex  3.000000e+000  8.118510e+001  1.520593e-001
    endloop
  endfacet
  facet normal  0.000000e+000 -9.749287e-001  2.225175e-001
    outer loop
      vertex  3.000000e+000  8.118510e+001  1.520593e-001
      vertex -5.000000e+000  8.133364e+001  8.028849e-001
      vertex -5.000000e+000  8.118510e+001  1.520593e-001
    endloop
  endfacet
  facet normal -1.000000e+000  -0.000000e+000  0.000000e+000
    outer loop
      vertex -5.000000e+000  8.235131e+001  1.614451e+000
      vertex -5.000000e+000  8.301888e+001  1.614451e+000
      vertex -5.000000e+000  8.174986e+001  1.324807e+000
    endloop
  endfacet
  facet normal -1.000000e+000  0.000000e+000  0.000000e+000
    outer loop
      vertex -5.000000e+000  8.174986e+001  1.324807e+000
      vertex -5.000000e+000  8.301888e+001  1.614451e+000
      vertex -5.000000e+000  8.362033e+001  1.324807e+000
    endloop
  endfacet
  facet normal -1.000000e+000  -0.000000e+000  0.000000e+000
    outer loop
      vertex -5.000000e+000  8.174986e+001  1.324807e+000
      vertex -5.000000e+000  8.362033e+001  1.324807e+000
      vertex -5.000000e+000  8.133364e+001  8.028849e-001
    endloop
  endfacet
  facet normal -1.000000e+000  0.000000e+000  0.000000e+000
    outer loop
      vertex -5.000000e+000  8.133364e+001  8.028849e-001
      vertex -5.000000e+000  8.362033e+001  1.324807e+000
      vertex -5.000000e+000  8.403654e+001  8.028849e-001
    endloop
  endfacet
  facet normal -1.000000e+000  -0.000000e+000  0.000000e+000
    outer loop
      vertex -5.000000e+000  8.133364e+001  8.028849e-001
      vertex -5.000000e+000  8.403654e+001  8.028849e-001
      vertex -5.000000e+000  8.118510e+001  1.520593e-001
    endloop
  endfacet
  facet normal -1.000000e+000  0.000000e+000  0.000000e+000
    outer loop
      vertex -5.000000e+000  8.118510e+001  1.520593e-001
      vertex -5.000000e+000  8.403654e+001  8.028849e-001
      vertex -5.000000e+000  8.418510e+001  1.520593e-001
    endloop
  endfacet
  facet normal -1.000000e+000  -0.000000e+000  0.000000e+000
    outer loop
      vertex -5.000000e+000  8.118510e+001  1.520593e-001
      vertex -5.000000e+000  8.418510e+001  1.520593e-001
      vertex -5.000000e+000  8.133364e+001 -4.987663e-001
    endloop
  endfacet
  facet normal -1.000000e+000  0.000000e+000  0.000000e+000
    outer loop
      vertex -5.000000e+000  8.133364e+001 -4.987663e-001
      vertex -5.000000e+000  8.418510e+001  1.520593e-001
      vertex -5.000000e+000  8.403654e+001 -4.987663e-001
    endloop
  endfacet
  facet normal -1.000000e+000  -0.000000e+000  0.000000e+000
    outer loop
      vertex -5.000000e+000  8.133364e+001 -4.987663e-001
      vertex -5.000000e+000  8.403654e+001 -4.987663e-001
      vertex -5.000000e+000  8.174986e+001 -1.020688e+000
    endloop
  endfacet
  facet normal -1.000000e+000  0.000000e+000  0.000000e+000
    outer loop
      vertex -5.000000e+000  8.174986e+001 -1.020688e+000
      vertex -5.000000e+000  8.403654e+001 -4.987663e-001
      vertex -5.000000e+000  8.362033e+001 -1.020688e+000
    endloop
  endfacet
  facet normal -1.000000e+000  -0.000000e+000  0.000000e+000
    outer loop
      vertex -5.000000e+000  8.174986e+001 -1.020688e+000
      vertex -5.000000e+000  8.362033e+001 -1.020688e+000
      vertex -5.000000e+000  8.235131e+001 -1.310333e+000
    endloop
  endfacet
  facet normal -1.000000e+000  0.000000e+000  0.000000e+000
    outer loop
      vertex -5.000000e+000  8.235131e+001 -1.310333e+000
      vertex -5.000000e+000  8.362033e+001 -1.020688e+000
      vertex -5.000000e+000  8.301888e+001 -1.310333e+000
    endloop
  endfacet
endsolid CATIA STL
