solid widget
facet normal 0.0 0.0 1.0
outer loop
vertex -2.41481456572267 -5.6470476127563 12.5
vertex -2.41481456572267 -4.3529523872437 12.5
vertex -2.5 -5.0 12.5
endloop
endfacet
facet normal 0.0 0.0 1.0
outer loop
vertex -2.41481456572267 -4.3529523872437 12.5
vertex -2.41481456572267 -5.6470476127563 12.5
vertex -2.1650635094611 -6.25 12.5
endloop
endfacet
facet normal 0.0 0.0 1.0
outer loop
vertex -2.41481456572267 -4.3529523872437 12.5
vertex -2.1650635094611 -6.25 12.5
vertex -2.1650635094611 -3.75 12.5
endloop
endfacet
facet normal 0.0 0.0 1.0
outer loop
vertex -2.1650635094611 -3.75 12.5
vertex -2.1650635094611 -6.25 12.5
vertex -1.76776695296637 -6.76776695296637 12.5
endloop
endfacet
facet normal 0.0 0.0 1.0
outer loop
vertex -2.1650635094611 -3.75 12.5
vertex -1.76776695296637 -6.76776695296637 12.5
vertex -1.76776695296637 -3.23223304703363 12.5
endloop
endfacet
facet normal 0.0 0.0 1.0
outer loop
vertex -1.76776695296637 -3.23223304703363 12.5
vertex -1.76776695296637 -6.76776695296637 12.5
vertex -1.25 -7.1650635094611 12.5
endloop
endfacet
facet normal 0.0 0.0 1.0
outer loop
vertex -1.76776695296637 -3.23223304703363 12.5
vertex -1.25 -7.1650635094611 12.5
vertex -1.25 -2.8349364905389 12.5
endloop
endfacet
facet normal 0.0 0.0 1.0
outer loop
vertex -1.25 -2.8349364905389 12.5
vertex -1.25 -7.1650635094611 12.5
vertex -0.647047612756304 -7.41481456572267 12.5
endloop
endfacet
facet normal 0.0 0.0 1.0
outer loop
vertex -1.25 -2.8349364905389 12.5
vertex -0.647047612756304 -7.41481456572267 12.5
vertex -0.647047612756301 -2.58518543427733 12.5
endloop
endfacet
facet normal 0.0 0.0 1.0
outer loop
vertex -0.647047612756301 -2.58518543427733 12.5
vertex -0.647047612756304 -7.41481456572267 12.5
vertex 0.0 -7.5 12.5
endloop
endfacet
facet normal 0.0 0.0 1.0
outer loop
vertex -0.647047612756301 -2.58518543427733 12.5
vertex 0.0 -7.5 12.5
vertex 3.06161699786838e-16 -2.5 12.5
endloop
endfacet
facet normal 0.0 0.0 1.0
outer loop
vertex 3.06161699786838e-16 -2.5 12.5
vertex 0.0 -7.5 12.5
vertex 0.647047612756302 -7.41481456572267 12.5
endloop
endfacet
facet normal 0.0 0.0 1.0
outer loop
vertex 3.06161699786838e-16 -2.5 12.5
vertex 0.647047612756302 -7.41481456572267 12.5
vertex 0.647047612756303 -2.58518543427733 12.5
endloop
endfacet
facet normal 0.0 0.0 1.0
outer loop
vertex 0.647047612756303 -2.58518543427733 12.5
vertex 0.647047612756302 -7.41481456572267 12.5
vertex 1.25 -7.1650635094611 12.5
endloop
endfacet
facet normal 0.0 0.0 1.0
outer loop
vertex 0.647047612756303 -2.58518543427733 12.5
vertex 1.25 -7.1650635094611 12.5
vertex 1.25 -2.8349364905389 12.5
endloop
endfacet
facet normal 0.0 0.0 1.0
outer loop
vertex 1.25 -2.8349364905389 12.5
vertex 1.25 -7.1650635094611 12.5
vertex 1.76776695296637 -6.76776695296637 12.5
endloop
endfacet
facet normal 0.0 0.0 1.0
outer loop
vertex 1.25 -2.8349364905389 12.5
vertex 1.76776695296637 -6.76776695296637 12.5
vertex 1.76776695296637 -3.23223304703363 12.5
endloop
endfacet
facet normal 0.0 0.0 1.0
outer loop
vertex 1.76776695296637 -3.23223304703363 12.5
vertex 1.76776695296637 -6.76776695296637 12.5
vertex 2.1650635094611 -6.25 12.5
endloop
endfacet
facet normal 0.0 0.0 1.0
outer loop
vertex 1.76776695296637 -3.23223304703363 12.5
vertex 2.1650635094611 -6.25 12.5
vertex 2.1650635094611 -3.75 12.5
endloop
endfacet
facet normal 0.0 0.0 1.0
outer loop
vertex 2.1650635094611 -3.75 12.5
vertex 2.1650635094611 -6.25 12.5
vertex 2.41481456572267 -5.6470476127563 12.5
endloop
endfacet
facet normal 0.0 0.0 1.0
outer loop
vertex 2.1650635094611 -3.75 12.5
vertex 2.41481456572267 -5.6470476127563 12.5
vertex 2.41481456572267 -4.3529523872437 12.5
endloop
endfacet
facet normal 0.0 0.0 1.0
outer loop
vertex 2.41481456572267 -4.3529523872437 12.5
vertex 2.41481456572267 -5.6470476127563 12.5
vertex 2.5 -5.0 12.5
endloop
endfacet
facet normal 0.258819045102521 -0.965925826289068 0.0
outer loop
vertex 0.647047612756302 -7.41481456572267 12.5
vertex 0.0 -7.5 3.0
vertex 0.647047612756302 -7.41481456572267 3.0
endloop
endfacet
facet normal 1.96044417704232e-16 -1.0 0.0
outer loop
vertex 0.0 -7.5 3.0
vertex 0.647047612756302 -7.41481456572267 12.5
vertex 0.0 -7.5 12.5
endloop
endfacet
facet normal 1.96044417704232e-16 -1.0 0.0
outer loop
vertex 0.0 -7.5 12.5
vertex -0.647047612756304 -7.41481456572267 3.0
vertex 0.0 -7.5 3.0
endloop
endfacet
facet normal -0.258819045102522 -0.965925826289068 0.0
outer loop
vertex -0.647047612756304 -7.41481456572267 3.0
vertex 0.0 -7.5 12.5
vertex -0.647047612756304 -7.41481456572267 12.5
endloop
endfacet
facet normal -0.258819045102522 -0.965925826289068 0.0
outer loop
vertex -0.647047612756304 -7.41481456572267 12.5
vertex -1.25 -7.1650635094611 3.0
vertex -0.647047612756304 -7.41481456572267 3.0
endloop
endfacet
facet normal -0.5 -0.866025403784438 0.0
outer loop
vertex -1.25 -7.1650635094611 3.0
vertex -0.647047612756304 -7.41481456572267 12.5
vertex -1.25 -7.1650635094611 12.5
endloop
endfacet
facet normal -0.5 -0.866025403784438 0.0
outer loop
vertex -1.25 -7.1650635094611 12.5
vertex -1.76776695296637 -6.76776695296637 3.0
vertex -1.25 -7.1650635094611 3.0
endloop
endfacet
facet normal -0.707106781186547 -0.707106781186547 0.0
outer loop
vertex -1.76776695296637 -6.76776695296637 3.0
vertex -1.25 -7.1650635094611 12.5
vertex -1.76776695296637 -6.76776695296637 12.5
endloop
endfacet
facet normal -0.866025403784439 -0.499999999999999 0.0
outer loop
vertex -2.1650635094611 -6.25 12.5
vertex -1.76776695296637 -6.76776695296637 3.0
vertex -1.76776695296637 -6.76776695296637 12.5
endloop
endfacet
facet normal -0.707106781186547 -0.707106781186547 0.0
outer loop
vertex -1.76776695296637 -6.76776695296637 3.0
vertex -2.1650635094611 -6.25 12.5
vertex -2.1650635094611 -6.25 3.0
endloop
endfacet
facet normal -0.965925826289068 -0.25881904510252 0.0
outer loop
vertex -2.41481456572267 -5.6470476127563 12.5
vertex -2.1650635094611 -6.25 3.0
vertex -2.1650635094611 -6.25 12.5
endloop
endfacet
facet normal -0.866025403784439 -0.499999999999999 0.0
outer loop
vertex -2.1650635094611 -6.25 3.0
vertex -2.41481456572267 -5.6470476127563 12.5
vertex -2.41481456572267 -5.6470476127563 3.0
endloop
endfacet
facet normal -1.0 3.92088835408464e-16 0.0
outer loop
vertex -2.5 -5.0 12.5
vertex -2.41481456572267 -5.6470476127563 3.0
vertex -2.41481456572267 -5.6470476127563 12.5
endloop
endfacet
facet normal -0.965925826289068 -0.25881904510252 0.0
outer loop
vertex -2.41481456572267 -5.6470476127563 3.0
vertex -2.5 -5.0 12.5
vertex -2.5 -5.0 3.0
endloop
endfacet
facet normal -0.965925826289068 0.258819045102521 0.0
outer loop
vertex -2.41481456572267 -4.3529523872437 12.5
vertex -2.5 -5.0 3.0
vertex -2.5 -5.0 12.5
endloop
endfacet
facet normal -1.0 3.92088835408464e-16 0.0
outer loop
vertex -2.5 -5.0 3.0
vertex -2.41481456572267 -4.3529523872437 12.5
vertex -2.41481456572267 -4.3529523872437 3.0
endloop
endfacet
facet normal -0.866025403784438 0.500000000000001 0.0
outer loop
vertex -2.1650635094611 -3.75 12.5
vertex -2.41481456572267 -4.3529523872437 3.0
vertex -2.41481456572267 -4.3529523872437 12.5
endloop
endfacet
facet normal -0.965925826289068 0.258819045102521 0.0
outer loop
vertex -2.41481456572267 -4.3529523872437 3.0
vertex -2.1650635094611 -3.75 12.5
vertex -2.1650635094611 -3.75 3.0
endloop
endfacet
facet normal -0.707106781186547 0.707106781186548 0.0
outer loop
vertex -1.76776695296637 -3.23223304703363 12.5
vertex -2.1650635094611 -3.75 3.0
vertex -2.1650635094611 -3.75 12.5
endloop
endfacet
facet normal -0.866025403784438 0.500000000000001 0.0
outer loop
vertex -2.1650635094611 -3.75 3.0
vertex -1.76776695296637 -3.23223304703363 12.5
vertex -1.76776695296637 -3.23223304703363 3.0
endloop
endfacet
facet normal -0.707106781186547 0.707106781186548 0.0
outer loop
vertex -1.76776695296637 -3.23223304703363 12.5
vertex -1.25 -2.8349364905389 3.0
vertex -1.76776695296637 -3.23223304703363 3.0
endloop
endfacet
facet normal -0.5 0.866025403784439 0.0
outer loop
vertex -1.25 -2.8349364905389 3.0
vertex -1.76776695296637 -3.23223304703363 12.5
vertex -1.25 -2.8349364905389 12.5
endloop
endfacet
facet normal -0.5 0.866025403784439 0.0
outer loop
vertex -1.25 -2.8349364905389 12.5
vertex -0.647047612756301 -2.58518543427733 3.0
vertex -1.25 -2.8349364905389 3.0
endloop
endfacet
facet normal -0.25881904510252 0.965925826289068 0.0
outer loop
vertex -0.647047612756301 -2.58518543427733 3.0
vertex -1.25 -2.8349364905389 12.5
vertex -0.647047612756301 -2.58518543427733 12.5
endloop
endfacet
facet normal -0.25881904510252 0.965925826289068 0.0
outer loop
vertex -0.647047612756301 -2.58518543427733 12.5
vertex 3.06161699786838e-16 -2.5 3.0
vertex -0.647047612756301 -2.58518543427733 3.0
endloop
endfacet
facet normal 1.51488868225997e-16 1.0 0.0
outer loop
vertex 3.06161699786838e-16 -2.5 3.0
vertex -0.647047612756301 -2.58518543427733 12.5
vertex 3.06161699786838e-16 -2.5 12.5
endloop
endfacet
facet normal 1.51488868225997e-16 1.0 0.0
outer loop
vertex 3.06161699786838e-16 -2.5 12.5
vertex 0.647047612756303 -2.58518543427733 3.0
vertex 3.06161699786838e-16 -2.5 3.0
endloop
endfacet
facet normal 0.258819045102521 0.965925826289068 0.0
outer loop
vertex 0.647047612756303 -2.58518543427733 3.0
vertex 3.06161699786838e-16 -2.5 12.5
vertex 0.647047612756303 -2.58518543427733 12.5
endloop
endfacet
facet normal 0.258819045102521 0.965925826289068 0.0
outer loop
vertex 0.647047612756303 -2.58518543427733 12.5
vertex 1.25 -2.8349364905389 3.0
vertex 0.647047612756303 -2.58518543427733 3.0
endloop
endfacet
facet normal 0.5 0.866025403784439 0.0
outer loop
vertex 1.25 -2.8349364905389 3.0
vertex 0.647047612756303 -2.58518543427733 12.5
vertex 1.25 -2.8349364905389 12.5
endloop
endfacet
facet normal 0.5 0.866025403784439 0.0
outer loop
vertex 1.25 -2.8349364905389 12.5
vertex 1.76776695296637 -3.23223304703363 3.0
vertex 1.25 -2.8349364905389 3.0
endloop
endfacet
facet normal 0.707106781186548 0.707106781186547 0.0
outer loop
vertex 1.76776695296637 -3.23223304703363 3.0
vertex 1.25 -2.8349364905389 12.5
vertex 1.76776695296637 -3.23223304703363 12.5
endloop
endfacet
facet normal 0.707106781186548 0.707106781186547 0.0
outer loop
vertex 1.76776695296637 -3.23223304703363 3.0
vertex 2.1650635094611 -3.75 12.5
vertex 2.1650635094611 -3.75 3.0
endloop
endfacet
facet normal 0.866025403784439 0.5 0.0
outer loop
vertex 2.1650635094611 -3.75 12.5
vertex 1.76776695296637 -3.23223304703363 3.0
vertex 1.76776695296637 -3.23223304703363 12.5
endloop
endfacet
facet normal 0.866025403784439 0.5 0.0
outer loop
vertex 2.1650635094611 -3.75 3.0
vertex 2.41481456572267 -4.3529523872437 12.5
vertex 2.41481456572267 -4.3529523872437 3.0
endloop
endfacet
facet normal 0.965925826289068 0.258819045102521 0.0
outer loop
vertex 2.41481456572267 -4.3529523872437 12.5
vertex 2.1650635094611 -3.75 3.0
vertex 2.1650635094611 -3.75 12.5
endloop
endfacet
facet normal 0.965925826289068 0.258819045102521 0.0
outer loop
vertex 2.41481456572267 -4.3529523872437 3.0
vertex 2.5 -5.0 12.5
vertex 2.5 -5.0 3.0
endloop
endfacet
facet normal 1.0 8.01999890608221e-17 0.0
outer loop
vertex 2.5 -5.0 12.5
vertex 2.41481456572267 -4.3529523872437 3.0
vertex 2.41481456572267 -4.3529523872437 12.5
endloop
endfacet
facet normal 1.0 8.01999890608221e-17 0.0
outer loop
vertex 2.5 -5.0 3.0
vertex 2.41481456572267 -5.6470476127563 12.5
vertex 2.41481456572267 -5.6470476127563 3.0
endloop
endfacet
facet normal 0.965925826289068 -0.258819045102521 0.0
outer loop
vertex 2.41481456572267 -5.6470476127563 12.5
vertex 2.5 -5.0 3.0
vertex 2.5 -5.0 12.5
endloop
endfacet
facet normal 0.965925826289068 -0.258819045102521 0.0
outer loop
vertex 2.41481456572267 -5.6470476127563 3.0
vertex 2.1650635094611 -6.25 12.5
vertex 2.1650635094611 -6.25 3.0
endloop
endfacet
facet normal 0.866025403784439 -0.5 0.0
outer loop
vertex 2.1650635094611 -6.25 12.5
vertex 2.41481456572267 -5.6470476127563 3.0
vertex 2.41481456572267 -5.6470476127563 12.5
endloop
endfacet
facet normal 0.866025403784439 -0.5 0.0
outer loop
vertex 2.1650635094611 -6.25 3.0
vertex 1.76776695296637 -6.76776695296637 12.5
vertex 1.76776695296637 -6.76776695296637 3.0
endloop
endfacet
facet normal 0.707106781186547 -0.707106781186548 0.0
outer loop
vertex 1.76776695296637 -6.76776695296637 12.5
vertex 2.1650635094611 -6.25 3.0
vertex 2.1650635094611 -6.25 12.5
endloop
endfacet
facet normal 0.707106781186547 -0.707106781186548 0.0
outer loop
vertex 1.76776695296637 -6.76776695296637 12.5
vertex 1.25 -7.1650635094611 3.0
vertex 1.76776695296637 -6.76776695296637 3.0
endloop
endfacet
facet normal 0.5 -0.866025403784439 0.0
outer loop
vertex 1.25 -7.1650635094611 3.0
vertex 1.76776695296637 -6.76776695296637 12.5
vertex 1.25 -7.1650635094611 12.5
endloop
endfacet
facet normal 0.5 -0.866025403784439 0.0
outer loop
vertex 1.25 -7.1650635094611 12.5
vertex 0.647047612756302 -7.41481456572267 3.0
vertex 1.25 -7.1650635094611 3.0
endloop
endfacet
facet normal 0.258819045102521 -0.965925826289068 0.0
outer loop
vertex 0.647047612756302 -7.41481456572267 3.0
vertex 1.25 -7.1650635094611 12.5
vertex 0.647047612756302 -7.41481456572267 12.5
endloop
endfacet
facet normal 0.258819045102522 3.68355195926581e-19 -0.965925826289068
outer loop
vertex 21.2940952255126 -3.5 0.17037086855466
vertex 20.0 -10.0 0.0
vertex 20.0 -3.5 -5.4383532739584e-19
endloop
endfacet
facet normal 0.130526192220052 7.30407732323504e-19 -0.99144486137381
outer loop
vertex 20.0 -10.0 0.0
vertex 21.2940952255126 -3.5 0.17037086855466
vertex 21.2940952255126 -10.0 0.17037086855466
endloop
endfacet
facet normal 0.866025403784438 0.0 0.500000000000001
outer loop
vertex 24.3301270189222 -3.5 7.5
vertex 23.5355339059327 -10.0 8.53553390593274
vertex 24.3301270189222 -10.0 7.5
endloop
endfacet
facet normal 0.707106781186547 0.0 0.707106781186547
outer loop
vertex 23.5355339059327 -10.0 8.53553390593274
vertex 24.3301270189222 -3.5 7.5
vertex 23.5355339059327 -3.5 8.53553390593274
endloop
endfacet
facet normal 0.707106781186547 0.0 0.707106781186547
outer loop
vertex 23.5355339059327 -10.0 8.53553390593274
vertex 22.5 -3.5 9.33012701892219
vertex 22.5 -10.0 9.33012701892219
endloop
endfacet
facet normal 0.5 0.0 0.866025403784439
outer loop
vertex 22.5 -3.5 9.33012701892219
vertex 23.5355339059327 -10.0 8.53553390593274
vertex 23.5355339059327 -3.5 8.53553390593274
endloop
endfacet
facet normal -0.25881904510252 0.965925826289068 0.0
outer loop
vertex -1.2940952255126 -0.170370868554658 3.0
vertex 0.0 0.0 0.0
vertex -1.2940952255126 -0.170370868554658 0.0
endloop
endfacet
facet normal -0.130526192220051 0.99144486137381 0.0
outer loop
vertex 0.0 0.0 0.0
vertex -1.2940952255126 -0.170370868554658 3.0
vertex 0.0 0.0 3.0
endloop
endfacet
facet normal -0.0 -0.0 1.0
outer loop
vertex 20.0 -10.0 10.0
vertex 5.5 -3.52495810318487e-17 10.0
vertex 5.5 -10.0 10.0
endloop
endfacet
facet normal -0.0 -0.0 1.0
outer loop
vertex 5.5 -3.52495810318487e-17 10.0
vertex 20.0 -10.0 10.0
vertex 14.2475093200581 -3.5 10.0
endloop
endfacet
facet normal -0.0 -0.0 1.0
outer loop
vertex 14.2475093200581 -3.5 10.0
vertex 20.0 -10.0 10.0
vertex 20.0 -3.5 10.0
endloop
endfacet
facet normal -0.0 -0.0 1.0
outer loop
vertex 14.2475093200581 -6.99216849508846e-18 10.0
vertex 5.5 -3.52495810318487e-17 10.0
vertex 14.2475093200581 -3.5 10.0
endloop
endfacet
facet normal -1.0 7.04991620636974e-17 0.0
outer loop
vertex 5.5 -3.52495810318487e-17 10.0
vertex 5.5 -10.0 3.0
vertex 5.5 -10.0 10.0
endloop
endfacet
facet normal -1.0 7.04991620636974e-17 0.0
outer loop
vertex 5.5 -10.0 3.0
vertex 5.5 -3.52495810318487e-17 10.0
vertex 5.5 -3.52495810318487e-17 3.0
endloop
endfacet
facet normal 0.965925826289068 0.0 0.258819045102522
outer loop
vertex 24.8296291314453 -3.5 6.29409522551261
vertex 24.3301270189222 -10.0 7.5
vertex 24.8296291314453 -10.0 6.29409522551261
endloop
endfacet
facet normal 0.866025403784438 0.0 0.500000000000001
outer loop
vertex 24.3301270189222 -10.0 7.5
vertex 24.8296291314453 -3.5 6.29409522551261
vertex 24.3301270189222 -3.5 7.5
endloop
endfacet
facet normal 0.707106781186548 0.0 -0.707106781186547
outer loop
vertex 23.5355339059327 -3.5 1.46446609406726
vertex 22.5 -10.0 0.669872981077809
vertex 22.5 -3.5 0.669872981077809
endloop
endfacet
facet normal 0.5 0.0 -0.866025403784438
outer loop
vertex 22.5 -10.0 0.669872981077809
vertex 23.5355339059327 -3.5 1.46446609406726
vertex 23.5355339059327 -10.0 1.46446609406726
endloop
endfacet
facet normal 0.5 0.0 -0.866025403784438
outer loop
vertex 22.5 -3.5 0.669872981077809
vertex 21.2940952255126 -10.0 0.17037086855466
vertex 21.2940952255126 -3.5 0.17037086855466
endloop
endfacet
facet normal 0.258819045102522 3.68355195926581e-19 -0.965925826289068
outer loop
vertex 21.2940952255126 -10.0 0.17037086855466
vertex 22.5 -3.5 0.669872981077809
vertex 22.5 -10.0 0.669872981077809
endloop
endfacet
facet normal 0.5 0.0 0.866025403784439
outer loop
vertex 22.5 -10.0 9.33012701892219
vertex 21.2940952255126 -3.5 9.82962913144534
vertex 21.2940952255126 -10.0 9.82962913144534
endloop
endfacet
facet normal 0.258819045102521 1.86132591262059e-20 0.965925826289068
outer loop
vertex 21.2940952255126 -3.5 9.82962913144534
vertex 22.5 -10.0 9.33012701892219
vertex 22.5 -3.5 9.33012701892219
endloop
endfacet
facet normal 0.707106781186548 0.0 -0.707106781186547
outer loop
vertex 23.5355339059327 -3.5 1.46446609406726
vertex 24.3301270189222 -10.0 2.5
vertex 23.5355339059327 -10.0 1.46446609406726
endloop
endfacet
facet normal 0.866025403784439 0.0 -0.499999999999999
outer loop
vertex 24.3301270189222 -10.0 2.5
vertex 23.5355339059327 -3.5 1.46446609406726
vertex 24.3301270189222 -3.5 2.5
endloop
endfacet
facet normal 0.866025403784439 0.0 -0.499999999999999
outer loop
vertex 24.3301270189222 -3.5 2.5
vertex 24.8296291314453 -10.0 3.7059047744874
vertex 24.3301270189222 -10.0 2.5
endloop
endfacet
facet normal 0.965925826289068 0.0 -0.258819045102521
outer loop
vertex 24.8296291314453 -10.0 3.7059047744874
vertex 24.3301270189222 -3.5 2.5
vertex 24.8296291314453 -3.5 3.7059047744874
endloop
endfacet
facet normal 0.965925826289068 0.0 -0.258819045102521
outer loop
vertex 24.8296291314453 -3.5 3.7059047744874
vertex 25.0 -10.0 5.0
vertex 24.8296291314453 -10.0 3.7059047744874
endloop
endfacet
facet normal 1.0 0.0 -2.13866637495526e-16
outer loop
vertex 25.0 -10.0 5.0
vertex 24.8296291314453 -3.5 3.7059047744874
vertex 25.0 -3.5 5.0
endloop
endfacet
facet normal 1.0 0.0 -2.13866637495526e-16
outer loop
vertex 25.0 -3.5 5.0
vertex 24.8296291314453 -10.0 6.29409522551261
vertex 25.0 -10.0 5.0
endloop
endfacet
facet normal 0.965925826289068 0.0 0.258819045102522
outer loop
vertex 24.8296291314453 -10.0 6.29409522551261
vertex 25.0 -3.5 5.0
vertex 24.8296291314453 -3.5 6.29409522551261
endloop
endfacet
facet normal 0.258819045102521 1.86132591262059e-20 0.965925826289068
outer loop
vertex 21.2940952255126 -10.0 9.82962913144534
vertex 20.0 -3.5 10.0
vertex 20.0 -10.0 10.0
endloop
endfacet
facet normal 0.130526192220052 3.6908040228192e-20 0.99144486137381
outer loop
vertex 20.0 -3.5 10.0
vertex 21.2940952255126 -10.0 9.82962913144534
vertex 21.2940952255126 -3.5 9.82962913144534
endloop
endfacet
facet normal 0.0 0.0 1.0
outer loop
vertex -2.5 -9.33012701892219 3.0
vertex -2.41481456572267 -5.6470476127563 3.0
vertex -2.5 -5.0 3.0
endloop
endfacet
facet normal 0.0 0.0 1.0
outer loop
vertex -2.41481456572267 -5.6470476127563 3.0
vertex -2.5 -9.33012701892219 3.0
vertex -1.29409522551261 -9.82962913144534 3.0
endloop
endfacet
facet normal 0.0 0.0 1.0
outer loop
vertex -2.41481456572267 -5.6470476127563 3.0
vertex -1.29409522551261 -9.82962913144534 3.0
vertex -2.1650635094611 -6.25 3.0
endloop
endfacet
facet normal 0.0 0.0 1.0
outer loop
vertex -2.1650635094611 -6.25 3.0
vertex -1.29409522551261 -9.82962913144534 3.0
vertex -1.76776695296637 -6.76776695296637 3.0
endloop
endfacet
facet normal 0.0 0.0 1.0
outer loop
vertex -1.76776695296637 -6.76776695296637 3.0
vertex -1.29409522551261 -9.82962913144534 3.0
vertex -1.25 -7.1650635094611 3.0
endloop
endfacet
facet normal 0.0 0.0 1.0
outer loop
vertex -1.25 -7.1650635094611 3.0
vertex -1.29409522551261 -9.82962913144534 3.0
vertex 0.0 -10.0 3.0
endloop
endfacet
facet normal 0.0 0.0 1.0
outer loop
vertex -1.25 -7.1650635094611 3.0
vertex 0.0 -10.0 3.0
vertex -0.647047612756304 -7.41481456572267 3.0
endloop
endfacet
facet normal 0.0 0.0 1.0
outer loop
vertex -0.647047612756304 -7.41481456572267 3.0
vertex 0.0 -10.0 3.0
vertex 0.0 -7.5 3.0
endloop
endfacet
facet normal 0.0 0.0 1.0
outer loop
vertex 0.0 -7.5 3.0
vertex 0.0 -10.0 3.0
vertex 5.5 -10.0 3.0
endloop
endfacet
facet normal 0.0 0.0 1.0
outer loop
vertex 0.0 -7.5 3.0
vertex 5.5 -10.0 3.0
vertex 0.647047612756302 -7.41481456572267 3.0
endloop
endfacet
facet normal 0.0 0.0 1.0
outer loop
vertex 0.647047612756302 -7.41481456572267 3.0
vertex 5.5 -10.0 3.0
vertex 1.25 -7.1650635094611 3.0
endloop
endfacet
facet normal 0.0 0.0 1.0
outer loop
vertex 1.25 -7.1650635094611 3.0
vertex 5.5 -10.0 3.0
vertex 1.76776695296637 -6.76776695296637 3.0
endloop
endfacet
facet normal 0.0 0.0 1.0
outer loop
vertex 1.76776695296637 -6.76776695296637 3.0
vertex 5.5 -10.0 3.0
vertex 2.1650635094611 -6.25 3.0
endloop
endfacet
facet normal 0.0 0.0 1.0
outer loop
vertex 2.1650635094611 -6.25 3.0
vertex 5.5 -10.0 3.0
vertex 2.41481456572267 -5.6470476127563 3.0
endloop
endfacet
facet normal 0.0 0.0 1.0
outer loop
vertex 2.41481456572267 -5.6470476127563 3.0
vertex 5.5 -10.0 3.0
vertex 2.5 -5.0 3.0
endloop
endfacet
facet normal 0.0 0.0 1.0
outer loop
vertex -4.82962913144534 -6.2940952255126 3.0
vertex -4.82962913144534 -3.70590477448739 3.0
vertex -5.0 -5.0 3.0
endloop
endfacet
facet normal 0.0 0.0 1.0
outer loop
vertex -4.82962913144534 -3.70590477448739 3.0
vertex -4.82962913144534 -6.2940952255126 3.0
vertex -4.3301270189222 -7.5 3.0
endloop
endfacet
facet normal 0.0 0.0 1.0
outer loop
vertex -4.82962913144534 -3.70590477448739 3.0
vertex -4.3301270189222 -7.5 3.0
vertex -4.33012701892219 -2.5 3.0
endloop
endfacet
facet normal 0.0 0.0 1.0
outer loop
vertex -4.33012701892219 -2.5 3.0
vertex -4.3301270189222 -7.5 3.0
vertex -3.53553390593274 -8.53553390593274 3.0
endloop
endfacet
facet normal 0.0 0.0 1.0
outer loop
vertex -4.33012701892219 -2.5 3.0
vertex -3.53553390593274 -8.53553390593274 3.0
vertex -3.53553390593274 -1.46446609406726 3.0
endloop
endfacet
facet normal 0.0 0.0 1.0
outer loop
vertex -3.53553390593274 -1.46446609406726 3.0
vertex -3.53553390593274 -8.53553390593274 3.0
vertex -2.5 -9.33012701892219 3.0
endloop
endfacet
facet normal 0.0 0.0 1.0
outer loop
vertex -3.53553390593274 -1.46446609406726 3.0
vertex -2.5 -9.33012701892219 3.0
vertex -2.5 -0.669872981077806 3.0
endloop
endfacet
facet normal 0.0 0.0 1.0
outer loop
vertex -2.5 -0.669872981077806 3.0
vertex -2.5 -9.33012701892219 3.0
vertex -2.5 -5.0 3.0
endloop
endfacet
facet normal 0.0 0.0 1.0
outer loop
vertex -2.5 -0.669872981077806 3.0
vertex -2.5 -5.0 3.0
vertex -2.41481456572267 -4.3529523872437 3.0
endloop
endfacet
facet normal 0.0 0.0 1.0
outer loop
vertex -2.5 -0.669872981077806 3.0
vertex -2.41481456572267 -4.3529523872437 3.0
vertex -1.2940952255126 -0.170370868554658 3.0
endloop
endfacet
facet normal 0.0 0.0 1.0
outer loop
vertex -1.2940952255126 -0.170370868554658 3.0
vertex -2.41481456572267 -4.3529523872437 3.0
vertex -2.1650635094611 -3.75 3.0
endloop
endfacet
facet normal 0.0 0.0 1.0
outer loop
vertex -1.2940952255126 -0.170370868554658 3.0
vertex -2.1650635094611 -3.75 3.0
vertex -1.76776695296637 -3.23223304703363 3.0
endloop
endfacet
facet normal 0.0 0.0 1.0
outer loop
vertex -1.2940952255126 -0.170370868554658 3.0
vertex -1.76776695296637 -3.23223304703363 3.0
vertex -1.25 -2.8349364905389 3.0
endloop
endfacet
facet normal 0.0 0.0 1.0
outer loop
vertex -1.2940952255126 -0.170370868554658 3.0
vertex -1.25 -2.8349364905389 3.0
vertex 0.0 0.0 3.0
endloop
endfacet
facet normal 0.0 0.0 1.0
outer loop
vertex 0.0 0.0 3.0
vertex -1.25 -2.8349364905389 3.0
vertex -0.647047612756301 -2.58518543427733 3.0
endloop
endfacet
facet normal 0.0 0.0 1.0
outer loop
vertex 0.0 0.0 3.0
vertex -0.647047612756301 -2.58518543427733 3.0
vertex 3.06161699786838e-16 -2.5 3.0
endloop
endfacet
facet normal 0.0 0.0 1.0
outer loop
vertex 0.0 0.0 3.0
vertex 3.06161699786838e-16 -2.5 3.0
vertex 5.5 -3.52495810318487e-17 3.0
endloop
endfacet
facet normal 0.0 0.0 1.0
outer loop
vertex 5.5 -3.52495810318487e-17 3.0
vertex 3.06161699786838e-16 -2.5 3.0
vertex 0.647047612756303 -2.58518543427733 3.0
endloop
endfacet
facet normal 0.0 0.0 1.0
outer loop
vertex 5.5 -3.52495810318487e-17 3.0
vertex 0.647047612756303 -2.58518543427733 3.0
vertex 1.25 -2.8349364905389 3.0
endloop
endfacet
facet normal 0.0 0.0 1.0
outer loop
vertex 5.5 -3.52495810318487e-17 3.0
vertex 1.25 -2.8349364905389 3.0
vertex 1.76776695296637 -3.23223304703363 3.0
endloop
endfacet
facet normal 0.0 0.0 1.0
outer loop
vertex 5.5 -3.52495810318487e-17 3.0
vertex 1.76776695296637 -3.23223304703363 3.0
vertex 2.1650635094611 -3.75 3.0
endloop
endfacet
facet normal 0.0 0.0 1.0
outer loop
vertex 5.5 -3.52495810318487e-17 3.0
vertex 2.1650635094611 -3.75 3.0
vertex 2.41481456572267 -4.3529523872437 3.0
endloop
endfacet
facet normal 0.0 0.0 1.0
outer loop
vertex 5.5 -3.52495810318487e-17 3.0
vertex 2.41481456572267 -4.3529523872437 3.0
vertex 2.5 -5.0 3.0
endloop
endfacet
facet normal 0.0 0.0 1.0
outer loop
vertex 5.5 -3.52495810318487e-17 3.0
vertex 2.5 -5.0 3.0
vertex 5.5 -10.0 3.0
endloop
endfacet
facet normal -0.258819045102521 -0.965925826289068 0.0
outer loop
vertex -1.29409522551261 -9.82962913144534 3.0
vertex -2.5 -9.33012701892219 0.0
vertex -1.29409522551261 -9.82962913144534 0.0
endloop
endfacet
facet normal -0.5 -0.866025403784439 0.0
outer loop
vertex -2.5 -9.33012701892219 0.0
vertex -1.29409522551261 -9.82962913144534 3.0
vertex -2.5 -9.33012701892219 3.0
endloop
endfacet
facet normal -0.866025403784439 -0.499999999999999 0.0
outer loop
vertex -4.3301270189222 -7.5 3.0
vertex -3.53553390593274 -8.53553390593274 0.0
vertex -3.53553390593274 -8.53553390593274 3.0
endloop
endfacet
facet normal -0.707106781186548 -0.707106781186547 0.0
outer loop
vertex -3.53553390593274 -8.53553390593274 0.0
vertex -4.3301270189222 -7.5 3.0
vertex -4.3301270189222 -7.5 0.0
endloop
endfacet
facet normal -0.965925826289068 -0.25881904510252 0.0
outer loop
vertex -4.82962913144534 -6.2940952255126 3.0
vertex -4.3301270189222 -7.5 0.0
vertex -4.3301270189222 -7.5 3.0
endloop
endfacet
facet normal -0.866025403784439 -0.499999999999999 0.0
outer loop
vertex -4.3301270189222 -7.5 0.0
vertex -4.82962913144534 -6.2940952255126 3.0
vertex -4.82962913144534 -6.2940952255126 0.0
endloop
endfacet
facet normal -0.130526192220052 -0.99144486137381 -0.0
outer loop
vertex 0.0 -10.0 3.0
vertex -1.29409522551261 -9.82962913144534 0.0
vertex 0.0 -10.0 0.0
endloop
endfacet
facet normal -0.258819045102521 -0.965925826289068 0.0
outer loop
vertex -1.29409522551261 -9.82962913144534 0.0
vertex 0.0 -10.0 3.0
vertex -1.29409522551261 -9.82962913144534 3.0
endloop
endfacet
facet normal -1.0 3.38622176034582e-16 0.0
outer loop
vertex -5.0 -5.0 3.0
vertex -4.82962913144534 -6.2940952255126 0.0
vertex -4.82962913144534 -6.2940952255126 3.0
endloop
endfacet
facet normal -0.965925826289068 -0.25881904510252 0.0
outer loop
vertex -4.82962913144534 -6.2940952255126 0.0
vertex -5.0 -5.0 3.0
vertex -5.0 -5.0 0.0
endloop
endfacet
facet normal -0.5 -0.866025403784439 0.0
outer loop
vertex -2.5 -9.33012701892219 3.0
vertex -3.53553390593274 -8.53553390593274 0.0
vertex -2.5 -9.33012701892219 0.0
endloop
endfacet
facet normal -0.707106781186548 -0.707106781186547 0.0
outer loop
vertex -3.53553390593274 -8.53553390593274 0.0
vertex -2.5 -9.33012701892219 3.0
vertex -3.53553390593274 -8.53553390593274 3.0
endloop
endfacet
facet normal -0.5 0.866025403784439 0.0
outer loop
vertex -2.5 -0.669872981077806 3.0
vertex -1.2940952255126 -0.170370868554658 0.0
vertex -2.5 -0.669872981077806 0.0
endloop
endfacet
facet normal -0.25881904510252 0.965925826289068 0.0
outer loop
vertex -1.2940952255126 -0.170370868554658 0.0
vertex -2.5 -0.669872981077806 3.0
vertex -1.2940952255126 -0.170370868554658 3.0
endloop
endfacet
facet normal -0.707106781186547 0.707106781186548 0.0
outer loop
vertex -3.53553390593274 -1.46446609406726 3.0
vertex -2.5 -0.669872981077806 0.0
vertex -3.53553390593274 -1.46446609406726 0.0
endloop
endfacet
facet normal -0.5 0.866025403784439 0.0
outer loop
vertex -2.5 -0.669872981077806 0.0
vertex -3.53553390593274 -1.46446609406726 3.0
vertex -2.5 -0.669872981077806 3.0
endloop
endfacet
facet normal -0.707106781186547 0.707106781186548 0.0
outer loop
vertex -3.53553390593274 -1.46446609406726 3.0
vertex -4.33012701892219 -2.5 0.0
vertex -4.33012701892219 -2.5 3.0
endloop
endfacet
facet normal -0.866025403784438 0.5 0.0
outer loop
vertex -4.33012701892219 -2.5 0.0
vertex -3.53553390593274 -1.46446609406726 3.0
vertex -3.53553390593274 -1.46446609406726 0.0
endloop
endfacet
facet normal -0.866025403784438 0.5 0.0
outer loop
vertex -4.33012701892219 -2.5 3.0
vertex -4.82962913144534 -3.70590477448739 0.0
vertex -4.82962913144534 -3.70590477448739 3.0
endloop
endfacet
facet normal -0.965925826289068 0.258819045102521 0.0
outer loop
vertex -4.82962913144534 -3.70590477448739 0.0
vertex -4.33012701892219 -2.5 3.0
vertex -4.33012701892219 -2.5 0.0
endloop
endfacet
facet normal -0.965925826289068 0.258819045102521 0.0
outer loop
vertex -4.82962913144534 -3.70590477448739 3.0
vertex -5.0 -5.0 0.0
vertex -5.0 -5.0 3.0
endloop
endfacet
facet normal -1.0 3.38622176034582e-16 0.0
outer loop
vertex -5.0 -5.0 0.0
vertex -4.82962913144534 -3.70590477448739 3.0
vertex -4.82962913144534 -3.70590477448739 0.0
endloop
endfacet
facet normal 0.0 -1.0 0.0
outer loop
vertex 24.3301270189222 -10.0 2.5
vertex 20.0 -9.99999999999999 2.0
vertex 23.5355339059327 -10.0 1.46446609406726
endloop
endfacet
facet normal 0.0 -1.0 0.0
outer loop
vertex 20.0 -9.99999999999999 2.0
vertex 24.3301270189222 -10.0 2.5
vertex 20.7764571353076 -9.99999999999999 2.10222252113279
endloop
endfacet
facet normal 0.0 -1.0 0.0
outer loop
vertex 20.7764571353076 -9.99999999999999 2.10222252113279
vertex 24.3301270189222 -10.0 2.5
vertex 21.5 -9.99999999999999 2.40192378864668
endloop
endfacet
facet normal 0.0 -1.0 0.0
outer loop
vertex 21.5 -9.99999999999999 2.40192378864668
vertex 24.3301270189222 -10.0 2.5
vertex 22.1213203435596 -9.99999999999999 2.87867965644036
endloop
endfacet
facet normal 0.0 -1.0 0.0
outer loop
vertex 22.1213203435596 -9.99999999999999 2.87867965644036
vertex 24.3301270189222 -10.0 2.5
vertex 24.8296291314453 -10.0 3.7059047744874
endloop
endfacet
facet normal 0.0 -1.0 0.0
outer loop
vertex 22.1213203435596 -9.99999999999999 2.87867965644036
vertex 24.8296291314453 -10.0 3.7059047744874
vertex 22.5980762113533 -9.99999999999999 3.5
endloop
endfacet
facet normal 0.0 -1.0 0.0
outer loop
vertex 22.5980762113533 -9.99999999999999 3.5
vertex 24.8296291314453 -10.0 3.7059047744874
vertex 22.8977774788672 -9.99999999999999 4.22354286469244
endloop
endfacet
facet normal 0.0 -1.0 0.0
outer loop
vertex 22.8977774788672 -9.99999999999999 4.22354286469244
vertex 24.8296291314453 -10.0 3.7059047744874
vertex 25.0 -10.0 5.0
endloop
endfacet
facet normal 0.0 -1.0 0.0
outer loop
vertex 22.8977774788672 -9.99999999999999 4.22354286469244
vertex 25.0 -10.0 5.0
vertex 23.0 -9.99999999999999 5.0
endloop
endfacet
facet normal 0.0 -1.0 0.0
outer loop
vertex 23.0 -9.99999999999999 5.0
vertex 25.0 -10.0 5.0
vertex 22.8977774788672 -9.99999999999999 5.77645713530756
endloop
endfacet
facet normal 0.0 -1.0 0.0
outer loop
vertex 22.8977774788672 -9.99999999999999 5.77645713530756
vertex 25.0 -10.0 5.0
vertex 24.8296291314453 -10.0 6.29409522551261
endloop
endfacet
facet normal 0.0 -1.0 0.0
outer loop
vertex 22.8977774788672 -9.99999999999999 5.77645713530756
vertex 24.8296291314453 -10.0 6.29409522551261
vertex 22.5980762113533 -9.99999999999999 6.5
endloop
endfacet
facet normal 0.0 -1.0 0.0
outer loop
vertex 22.5980762113533 -9.99999999999999 6.5
vertex 24.8296291314453 -10.0 6.29409522551261
vertex 24.3301270189222 -10.0 7.5
endloop
endfacet
facet normal 0.0 -1.0 0.0
outer loop
vertex 22.5980762113533 -9.99999999999999 6.5
vertex 24.3301270189222 -10.0 7.5
vertex 22.1213203435596 -9.99999999999999 7.12132034355964
endloop
endfacet
facet normal 0.0 -1.0 0.0
outer loop
vertex 22.1213203435596 -9.99999999999999 7.12132034355964
vertex 24.3301270189222 -10.0 7.5
vertex 21.5 -9.99999999999999 7.59807621135331
endloop
endfacet
facet normal 0.0 -1.0 0.0
outer loop
vertex 21.5 -9.99999999999999 7.59807621135331
vertex 24.3301270189222 -10.0 7.5
vertex 23.5355339059327 -10.0 8.53553390593274
endloop
endfacet
facet normal 0.0 -1.0 0.0
outer loop
vertex 21.5 -9.99999999999999 7.59807621135331
vertex 23.5355339059327 -10.0 8.53553390593274
vertex 20.7764571353076 -9.99999999999999 7.8977774788672
endloop
endfacet
facet normal 0.0 -1.0 0.0
outer loop
vertex 20.7764571353076 -9.99999999999999 7.8977774788672
vertex 23.5355339059327 -10.0 8.53553390593274
vertex 20.0 -9.99999999999999 8.0
endloop
endfacet
facet normal 0.0 -1.0 0.0
outer loop
vertex 17.4019237886467 -9.99999999999999 3.5
vertex 5.5 -10.0 3.0
vertex 17.8786796564404 -9.99999999999999 2.87867965644036
endloop
endfacet
facet normal 0.0 -1.0 0.0
outer loop
vertex 5.5 -10.0 3.0
vertex 17.4019237886467 -9.99999999999999 3.5
vertex 5.5 -10.0 10.0
endloop
endfacet
facet normal 0.0 -1.0 0.0
outer loop
vertex 5.5 -10.0 10.0
vertex 17.4019237886467 -9.99999999999999 3.5
vertex 17.1022225211328 -9.99999999999999 4.22354286469244
endloop
endfacet
facet normal 0.0 -1.0 0.0
outer loop
vertex 5.5 -10.0 10.0
vertex 17.1022225211328 -9.99999999999999 4.22354286469244
vertex 17.0 -9.99999999999999 5.0
endloop
endfacet
facet normal 0.0 -1.0 0.0
outer loop
vertex 5.5 -10.0 10.0
vertex 17.0 -9.99999999999999 5.0
vertex 17.1022225211328 -9.99999999999999 5.77645713530756
endloop
endfacet
facet normal 0.0 -1.0 0.0
outer loop
vertex 5.5 -10.0 10.0
vertex 17.1022225211328 -9.99999999999999 5.77645713530756
vertex 17.4019237886467 -9.99999999999999 6.5
endloop
endfacet
facet normal 0.0 -1.0 0.0
outer loop
vertex 5.5 -10.0 10.0
vertex 17.4019237886467 -9.99999999999999 6.5
vertex 17.8786796564404 -9.99999999999999 7.12132034355964
endloop
endfacet
facet normal 0.0 -1.0 0.0
outer loop
vertex 5.5 -10.0 10.0
vertex 17.8786796564404 -9.99999999999999 7.12132034355964
vertex 18.5 -9.99999999999999 7.59807621135332
endloop
endfacet
facet normal 0.0 -1.0 0.0
outer loop
vertex 5.5 -10.0 10.0
vertex 18.5 -9.99999999999999 7.59807621135332
vertex 19.2235428646924 -9.99999999999999 7.8977774788672
endloop
endfacet
facet normal 0.0 -1.0 0.0
outer loop
vertex 5.5 -10.0 10.0
vertex 19.2235428646924 -9.99999999999999 7.8977774788672
vertex 20.0 -9.99999999999999 8.0
endloop
endfacet
facet normal 0.0 -1.0 0.0
outer loop
vertex 5.5 -10.0 10.0
vertex 20.0 -9.99999999999999 8.0
vertex 23.5355339059327 -10.0 8.53553390593274
endloop
endfacet
facet normal 0.0 -1.0 0.0
outer loop
vertex 5.5 -10.0 10.0
vertex 23.5355339059327 -10.0 8.53553390593274
vertex 22.5 -10.0 9.33012701892219
endloop
endfacet
facet normal 0.0 -1.0 0.0
outer loop
vertex 5.5 -10.0 10.0
vertex 22.5 -10.0 9.33012701892219
vertex 21.2940952255126 -10.0 9.82962913144534
endloop
endfacet
facet normal 0.0 -1.0 0.0
outer loop
vertex 5.5 -10.0 10.0
vertex 21.2940952255126 -10.0 9.82962913144534
vertex 20.0 -10.0 10.0
endloop
endfacet
facet normal 0.0 -1.0 0.0
outer loop
vertex 21.2940952255126 -10.0 0.17037086855466
vertex 0.0 -10.0 0.0
vertex 20.0 -10.0 0.0
endloop
endfacet
facet normal 0.0 -1.0 0.0
outer loop
vertex 0.0 -10.0 0.0
vertex 21.2940952255126 -10.0 0.17037086855466
vertex 0.0 -10.0 3.0
endloop
endfacet
facet normal 0.0 -1.0 0.0
outer loop
vertex 0.0 -10.0 3.0
vertex 21.2940952255126 -10.0 0.17037086855466
vertex 22.5 -10.0 0.669872981077809
endloop
endfacet
facet normal 0.0 -1.0 0.0
outer loop
vertex 0.0 -10.0 3.0
vertex 22.5 -10.0 0.669872981077809
vertex 23.5355339059327 -10.0 1.46446609406726
endloop
endfacet
facet normal 0.0 -1.0 0.0
outer loop
vertex 0.0 -10.0 3.0
vertex 23.5355339059327 -10.0 1.46446609406726
vertex 20.0 -9.99999999999999 2.0
endloop
endfacet
facet normal 0.0 -1.0 0.0
outer loop
vertex 0.0 -10.0 3.0
vertex 20.0 -9.99999999999999 2.0
vertex 19.2235428646924 -9.99999999999999 2.10222252113279
endloop
endfacet
facet normal 0.0 -1.0 0.0
outer loop
vertex 0.0 -10.0 3.0
vertex 19.2235428646924 -9.99999999999999 2.10222252113279
vertex 18.5 -9.99999999999999 2.40192378864668
endloop
endfacet
facet normal 0.0 -1.0 0.0
outer loop
vertex 0.0 -10.0 3.0
vertex 18.5 -9.99999999999999 2.40192378864668
vertex 17.8786796564404 -9.99999999999999 2.87867965644036
endloop
endfacet
facet normal 0.0 -1.0 0.0
outer loop
vertex 0.0 -10.0 3.0
vertex 17.8786796564404 -9.99999999999999 2.87867965644036
vertex 5.5 -10.0 3.0
endloop
endfacet
facet normal 1.51488868225997e-16 -5.63919204723399e-32 1.0
outer loop
vertex 20.0 -9.99999999999999 2.0
vertex 20.7764571353076 -3.5 2.10222252113279
vertex 20.0 -3.5 2.0
endloop
endfacet
facet normal -0.258819045102521 2.73035022990803e-17 0.965925826289068
outer loop
vertex 20.7764571353076 -3.5 2.10222252113279
vertex 20.0 -9.99999999999999 2.0
vertex 20.7764571353076 -9.99999999999999 2.10222252113279
endloop
endfacet
facet normal 0.258819045102521 -2.73035022990804e-17 0.965925826289068
outer loop
vertex 19.2235428646924 -9.99999999999999 2.10222252113279
vertex 20.0 -3.5 2.0
vertex 19.2235428646924 -3.5 2.10222252113279
endloop
endfacet
facet normal 2.94066626556348e-16 -7.22212314821196e-32 1.0
outer loop
vertex 20.0 -3.5 2.0
vertex 19.2235428646924 -9.99999999999999 2.10222252113279
vertex 20.0 -9.99999999999999 2.0
endloop
endfacet
facet normal 0.5 -5.27463160376494e-17 0.866025403784439
outer loop
vertex 18.5 -9.99999999999999 2.40192378864668
vertex 19.2235428646924 -3.5 2.10222252113279
vertex 18.5 -3.5 2.40192378864668
endloop
endfacet
facet normal 0.258819045102521 -2.73035022990804e-17 0.965925826289068
outer loop
vertex 19.2235428646924 -3.5 2.10222252113279
vertex 18.5 -9.99999999999999 2.40192378864668
vertex 19.2235428646924 -9.99999999999999 2.10222252113279
endloop
endfacet
facet normal 0.707106781186548 -7.45945555056612e-17 0.707106781186547
outer loop
vertex 17.8786796564404 -9.99999999999999 2.87867965644036
vertex 18.5 -3.5 2.40192378864668
vertex 17.8786796564404 -3.5 2.87867965644036
endloop
endfacet
facet normal 0.5 -5.27463160376494e-17 0.866025403784438
outer loop
vertex 18.5 -3.5 2.40192378864668
vertex 17.8786796564404 -9.99999999999999 2.87867965644036
vertex 18.5 -9.99999999999999 2.40192378864668
endloop
endfacet
facet normal 0.707106781186548 -7.45945555056612e-17 0.707106781186547
outer loop
vertex 17.8786796564404 -3.5 2.87867965644036
vertex 17.4019237886467 -9.99999999999999 3.5
vertex 17.8786796564404 -9.99999999999999 2.87867965644036
endloop
endfacet
facet normal 0.866025403784439 -9.13592992892937e-17 0.5
outer loop
vertex 17.4019237886467 -9.99999999999999 3.5
vertex 17.8786796564404 -3.5 2.87867965644036
vertex 17.4019237886467 -3.5 3.5
endloop
endfacet
facet normal 0.866025403784439 -9.13592992892937e-17 0.5
outer loop
vertex 17.4019237886467 -3.5 3.5
vertex 17.1022225211328 -9.99999999999999 4.22354286469244
vertex 17.4019237886467 -9.99999999999999 3.5
endloop
endfacet
facet normal 0.965925826289068 -1.01898057804741e-16 0.258819045102522
outer loop
vertex 17.1022225211328 -9.99999999999999 4.22354286469244
vertex 17.4019237886467 -3.5 3.5
vertex 17.1022225211328 -3.5 4.22354286469244
endloop
endfacet
facet normal 0.965925826289068 -1.01898057804741e-16 0.258819045102521
outer loop
vertex 17.1022225211328 -3.5 4.22354286469244
vertex 17.0 -9.99999999999999 5.0
vertex 17.1022225211328 -9.99999999999999 4.22354286469244
endloop
endfacet
facet normal 1.0 -1.05492632075299e-16 2.22777747391173e-16
outer loop
vertex 17.0 -9.99999999999999 5.0
vertex 17.1022225211328 -3.5 4.22354286469244
vertex 17.0 -3.5 5.0
endloop
endfacet
facet normal 1.0 -1.05492632075299e-16 2.22777747391173e-16
outer loop
vertex 17.0 -3.5 5.0
vertex 17.1022225211328 -9.99999999999999 5.77645713530756
vertex 17.0 -9.99999999999999 5.0
endloop
endfacet
facet normal 0.965925826289068 -1.01898057804741e-16 -0.258819045102522
outer loop
vertex 17.1022225211328 -9.99999999999999 5.77645713530756
vertex 17.0 -3.5 5.0
vertex 17.1022225211328 -3.5 5.77645713530756
endloop
endfacet
facet normal 0.965925826289068 -1.01898057804741e-16 -0.258819045102522
outer loop
vertex 17.1022225211328 -3.5 5.77645713530756
vertex 17.4019237886467 -9.99999999999999 6.5
vertex 17.1022225211328 -9.99999999999999 5.77645713530756
endloop
endfacet
facet normal 0.866025403784438 -9.13592992892936e-17 -0.500000000000001
outer loop
vertex 17.4019237886467 -9.99999999999999 6.5
vertex 17.1022225211328 -3.5 5.77645713530756
vertex 17.4019237886467 -3.5 6.5
endloop
endfacet
facet normal 0.866025403784438 -9.13592992892936e-17 -0.500000000000001
outer loop
vertex 17.4019237886467 -3.5 6.5
vertex 17.8786796564404 -9.99999999999999 7.12132034355964
vertex 17.4019237886467 -9.99999999999999 6.5
endloop
endfacet
facet normal 0.707106781186547 -7.45945555056611e-17 -0.707106781186548
outer loop
vertex 17.8786796564404 -9.99999999999999 7.12132034355964
vertex 17.4019237886467 -3.5 6.5
vertex 17.8786796564404 -3.5 7.12132034355964
endloop
endfacet
facet normal 0.499999999999999 -5.27463160376491e-17 -0.866025403784439
outer loop
vertex 18.5 -3.5 7.59807621135332
vertex 17.8786796564404 -9.99999999999999 7.12132034355964
vertex 17.8786796564404 -3.5 7.12132034355964
endloop
endfacet
facet normal 0.707106781186547 -7.45945555056611e-17 -0.707106781186548
outer loop
vertex 17.8786796564404 -9.99999999999999 7.12132034355964
vertex 18.5 -3.5 7.59807621135332
vertex 18.5 -9.99999999999999 7.59807621135332
endloop
endfacet
facet normal 0.25881904510252 -2.73035022990802e-17 -0.965925826289068
outer loop
vertex 19.2235428646924 -3.5 7.8977774788672
vertex 18.5 -9.99999999999999 7.59807621135332
vertex 18.5 -3.5 7.59807621135332
endloop
endfacet
facet normal 0.499999999999999 -5.27463160376491e-17 -0.866025403784439
outer loop
vertex 18.5 -9.99999999999999 7.59807621135332
vertex 19.2235428646924 -3.5 7.8977774788672
vertex 19.2235428646924 -9.99999999999999 7.8977774788672
endloop
endfacet
facet normal 5.34666593738814e-16 -1.58293110097796e-32 -1.0
outer loop
vertex 20.0 -3.5 8.0
vertex 19.2235428646924 -9.99999999999999 7.8977774788672
vertex 19.2235428646924 -3.5 7.8977774788672
endloop
endfacet
facet normal 0.25881904510252 -2.73035022990802e-17 -0.965925826289068
outer loop
vertex 19.2235428646924 -9.99999999999999 7.8977774788672
vertex 20.0 -3.5 8.0
vertex 20.0 -9.99999999999999 8.0
endloop
endfacet
facet normal -0.258819045102522 2.73035022990805e-17 -0.965925826289068
outer loop
vertex 20.7764571353076 -3.5 7.8977774788672
vertex 20.0 -9.99999999999999 8.0
vertex 20.0 -3.5 8.0
endloop
endfacet
facet normal 3.83177725512817e-16 0.0 -1.0
outer loop
vertex 20.0 -9.99999999999999 8.0
vertex 20.7764571353076 -3.5 7.8977774788672
vertex 20.7764571353076 -9.99999999999999 7.8977774788672
endloop
endfacet
facet normal -0.5 5.27463160376493e-17 -0.866025403784439
outer loop
vertex 21.5 -3.5 7.59807621135331
vertex 20.7764571353076 -9.99999999999999 7.8977774788672
vertex 20.7764571353076 -3.5 7.8977774788672
endloop
endfacet
facet normal -0.258819045102522 2.73035022990805e-17 -0.965925826289068
outer loop
vertex 20.7764571353076 -9.99999999999999 7.8977774788672
vertex 21.5 -3.5 7.59807621135331
vertex 21.5 -9.99999999999999 7.59807621135331
endloop
endfacet
facet normal -0.707106781186548 7.45945555056612e-17 -0.707106781186547
outer loop
vertex 22.1213203435596 -3.5 7.12132034355964
vertex 21.5 -9.99999999999999 7.59807621135331
vertex 21.5 -3.5 7.59807621135331
endloop
endfacet
facet normal -0.5 5.27463160376494e-17 -0.866025403784439
outer loop
vertex 21.5 -9.99999999999999 7.59807621135331
vertex 22.1213203435596 -3.5 7.12132034355964
vertex 22.1213203435596 -9.99999999999999 7.12132034355964
endloop
endfacet
facet normal -0.707106781186548 7.45945555056612e-17 -0.707106781186547
outer loop
vertex 22.1213203435596 -3.5 7.12132034355964
vertex 22.5980762113533 -9.99999999999999 6.5
vertex 22.1213203435596 -9.99999999999999 7.12132034355964
endloop
endfacet
facet normal -0.866025403784439 9.13592992892938e-17 -0.499999999999999
outer loop
vertex 22.5980762113533 -9.99999999999999 6.5
vertex 22.1213203435596 -3.5 7.12132034355964
vertex 22.5980762113533 -3.5 6.5
endloop
endfacet
facet normal -0.866025403784439 9.13592992892938e-17 -0.499999999999999
outer loop
vertex 22.5980762113533 -3.5 6.5
vertex 22.8977774788672 -9.99999999999999 5.77645713530756
vertex 22.5980762113533 -9.99999999999999 6.5
endloop
endfacet
facet normal -0.965925826289068 1.01898057804741e-16 -0.258819045102521
outer loop
vertex 22.8977774788672 -9.99999999999999 5.77645713530756
vertex 22.5980762113533 -3.5 6.5
vertex 22.8977774788672 -3.5 5.77645713530756
endloop
endfacet
facet normal -0.965925826289068 1.01898057804741e-16 -0.258819045102521
outer loop
vertex 22.8977774788672 -3.5 5.77645713530756
vertex 23.0 -9.99999999999999 5.0
vertex 22.8977774788672 -9.99999999999999 5.77645713530756
endloop
endfacet
facet normal -1.0 1.05492632075299e-16 -5.34666593738814e-17
outer loop
vertex 23.0 -9.99999999999999 5.0
vertex 22.8977774788672 -3.5 5.77645713530756
vertex 23.0 -3.5 5.0
endloop
endfacet
facet normal -1.0 1.05492632075299e-16 -5.34666593738814e-17
outer loop
vertex 23.0 -3.5 5.0
vertex 22.8977774788672 -9.99999999999999 4.22354286469244
vertex 23.0 -9.99999999999999 5.0
endloop
endfacet
facet normal -0.965925826289068 1.01898057804741e-16 0.258819045102521
outer loop
vertex 22.8977774788672 -9.99999999999999 4.22354286469244
vertex 23.0 -3.5 5.0
vertex 22.8977774788672 -3.5 4.22354286469244
endloop
endfacet
facet normal -0.965925826289068 1.01898057804741e-16 0.258819045102521
outer loop
vertex 22.8977774788672 -3.5 4.22354286469244
vertex 22.5980762113533 -9.99999999999999 3.5
vertex 22.8977774788672 -9.99999999999999 4.22354286469244
endloop
endfacet
facet normal -0.866025403784438 9.13592992892936e-17 0.500000000000001
outer loop
vertex 22.5980762113533 -9.99999999999999 3.5
vertex 22.8977774788672 -3.5 4.22354286469244
vertex 22.5980762113533 -3.5 3.5
endloop
endfacet
facet normal -0.866025403784438 9.13592992892936e-17 0.500000000000001
outer loop
vertex 22.5980762113533 -3.5 3.5
vertex 22.1213203435596 -9.99999999999999 2.87867965644036
vertex 22.5980762113533 -9.99999999999999 3.5
endloop
endfacet
facet normal -0.707106781186548 7.45945555056611e-17 0.707106781186547
outer loop
vertex 22.1213203435596 -9.99999999999999 2.87867965644036
vertex 22.5980762113533 -3.5 3.5
vertex 22.1213203435596 -3.5 2.87867965644036
endloop
endfacet
facet normal -0.5 5.27463160376493e-17 0.866025403784438
outer loop
vertex 21.5 -9.99999999999999 2.40192378864668
vertex 22.1213203435596 -3.5 2.87867965644036
vertex 21.5 -3.5 2.40192378864668
endloop
endfacet
facet normal -0.707106781186548 7.45945555056611e-17 0.707106781186547
outer loop
vertex 22.1213203435596 -3.5 2.87867965644036
vertex 21.5 -9.99999999999999 2.40192378864668
vertex 22.1213203435596 -9.99999999999999 2.87867965644036
endloop
endfacet
facet normal -0.258819045102521 2.73035022990803e-17 0.965925826289068
outer loop
vertex 20.7764571353076 -9.99999999999999 2.10222252113279
vertex 21.5 -3.5 2.40192378864668
vertex 20.7764571353076 -3.5 2.10222252113279
endloop
endfacet
facet normal -0.5 5.27463160376493e-17 0.866025403784439
outer loop
vertex 21.5 -3.5 2.40192378864668
vertex 20.7764571353076 -9.99999999999999 2.10222252113279
vertex 21.5 -9.99999999999999 2.40192378864668
endloop
endfacet
facet normal 0.0 0.0 -1.0
outer loop
vertex -4.82962913144534 -3.70590477448739 0.0
vertex -4.82962913144534 -6.2940952255126 0.0
vertex -5.0 -5.0 0.0
endloop
endfacet
facet normal 0.0 0.0 -1.0
outer loop
vertex -4.82962913144534 -6.2940952255126 0.0
vertex -4.82962913144534 -3.70590477448739 0.0
vertex -4.3301270189222 -7.5 0.0
endloop
endfacet
facet normal 0.0 0.0 -1.0
outer loop
vertex -4.3301270189222 -7.5 0.0
vertex -4.82962913144534 -3.70590477448739 0.0
vertex -4.33012701892219 -2.5 0.0
endloop
endfacet
facet normal 0.0 0.0 -1.0
outer loop
vertex -4.3301270189222 -7.5 0.0
vertex -4.33012701892219 -2.5 0.0
vertex -3.53553390593274 -8.53553390593274 0.0
endloop
endfacet
facet normal 0.0 0.0 -1.0
outer loop
vertex -3.53553390593274 -8.53553390593274 0.0
vertex -4.33012701892219 -2.5 0.0
vertex -3.53553390593274 -1.46446609406726 0.0
endloop
endfacet
facet normal 0.0 0.0 -1.0
outer loop
vertex -3.53553390593274 -8.53553390593274 0.0
vertex -3.53553390593274 -1.46446609406726 0.0
vertex -2.5 -9.33012701892219 0.0
endloop
endfacet
facet normal 0.0 0.0 -1.0
outer loop
vertex -2.5 -9.33012701892219 0.0
vertex -3.53553390593274 -1.46446609406726 0.0
vertex -2.5 -0.669872981077806 0.0
endloop
endfacet
facet normal 0.0 0.0 -1.0
outer loop
vertex -2.5 -9.33012701892219 0.0
vertex -2.5 -0.669872981077806 0.0
vertex -1.29409522551261 -9.82962913144534 0.0
endloop
endfacet
facet normal 0.0 0.0 -1.0
outer loop
vertex -1.29409522551261 -9.82962913144534 0.0
vertex -2.5 -0.669872981077806 0.0
vertex -1.2940952255126 -0.170370868554658 0.0
endloop
endfacet
facet normal 0.0 0.0 -1.0
outer loop
vertex -1.29409522551261 -9.82962913144534 0.0
vertex -1.2940952255126 -0.170370868554658 0.0
vertex 0.0 -10.0 0.0
endloop
endfacet
facet normal 0.0 0.0 -1.0
outer loop
vertex 0.0 -10.0 0.0
vertex -1.2940952255126 -0.170370868554658 0.0
vertex 0.0 0.0 0.0
endloop
endfacet
facet normal 0.0 0.0 -1.0
outer loop
vertex 0.0 -10.0 0.0
vertex 0.0 0.0 0.0
vertex 14.2475093200581 0.0 0.0
endloop
endfacet
facet normal 0.0 0.0 -1.0
outer loop
vertex 0.0 -10.0 0.0
vertex 14.2475093200581 0.0 0.0
vertex 14.2475093200581 -3.5 -5.4383532739584e-19
endloop
endfacet
facet normal 0.0 0.0 -1.0
outer loop
vertex 0.0 -10.0 0.0
vertex 14.2475093200581 -3.5 -5.4383532739584e-19
vertex 20.0 -10.0 0.0
endloop
endfacet
facet normal 0.0 0.0 -1.0
outer loop
vertex 20.0 -10.0 0.0
vertex 14.2475093200581 -3.5 -5.4383532739584e-19
vertex 20.0 -3.5 -5.4383532739584e-19
endloop
endfacet
facet normal -5.33820866222636e-19 1.0 2.04336101529256e-18
outer loop
vertex 0.0 0.0 3.0
vertex 14.2475093200581 0.0 0.0
vertex 0.0 0.0 0.0
endloop
endfacet
facet normal -5.33820866222636e-19 1.0 2.04336101529256e-18
outer loop
vertex 14.2475093200581 0.0 0.0
vertex 0.0 0.0 3.0
vertex 5.5 -3.52495810318487e-17 3.0
endloop
endfacet
facet normal -5.33820866222636e-19 1.0 2.04336101529256e-18
outer loop
vertex 14.2475093200581 0.0 0.0
vertex 5.5 -3.52495810318487e-17 3.0
vertex 14.2475093200581 -6.99216849508846e-18 10.0
endloop
endfacet
facet normal -5.33820866222636e-19 1.0 2.04336101529256e-18
outer loop
vertex 14.2475093200581 -6.99216849508846e-18 10.0
vertex 5.5 -3.52495810318487e-17 3.0
vertex 5.5 -3.52495810318487e-17 10.0
endloop
endfacet
facet normal 7.69237835535662e-17 1.0 1.55381522113097e-19
outer loop
vertex 14.2475093200581 -3.5 -5.4383532739584e-19
vertex 17.4019237886467 -3.5 3.5
vertex 20.0 -3.5 -5.4383532739584e-19
endloop
endfacet
facet normal 7.69237835535662e-17 1.0 1.55381522113097e-19
outer loop
vertex 17.4019237886467 -3.5 3.5
vertex 14.2475093200581 -3.5 -5.4383532739584e-19
vertex 14.2475093200581 -3.5 10.0
endloop
endfacet
facet normal 7.69237835535662e-17 1.0 1.55381522113097e-19
outer loop
vertex 20.0 -3.5 -5.4383532739584e-19
vertex 17.4019237886467 -3.5 3.5
vertex 17.8786796564404 -3.5 2.87867965644036
endloop
endfacet
facet normal 7.69237835535662e-17 1.0 1.55381522113097e-19
outer loop
vertex 20.0 -3.5 -5.4383532739584e-19
vertex 17.8786796564404 -3.5 2.87867965644036
vertex 21.2940952255126 -3.5 0.17037086855466
endloop
endfacet
facet normal 7.69237835535662e-17 1.0 1.55381522113097e-19
outer loop
vertex 21.2940952255126 -3.5 0.17037086855466
vertex 17.8786796564404 -3.5 2.87867965644036
vertex 18.5 -3.5 2.40192378864668
endloop
endfacet
facet normal 7.69237835535662e-17 1.0 1.55381522113097e-19
outer loop
vertex 21.2940952255126 -3.5 0.17037086855466
vertex 18.5 -3.5 2.40192378864668
vertex 22.5 -3.5 0.669872981077809
endloop
endfacet
facet normal 7.69237835535662e-17 1.0 1.55381522113097e-19
outer loop
vertex 22.5 -3.5 0.669872981077809
vertex 18.5 -3.5 2.40192378864668
vertex 19.2235428646924 -3.5 2.10222252113279
endloop
endfacet
facet normal 7.69237835535662e-17 1.0 1.55381522113097e-19
outer loop
vertex 22.5 -3.5 0.669872981077809
vertex 19.2235428646924 -3.5 2.10222252113279
vertex 23.5355339059327 -3.5 1.46446609406726
endloop
endfacet
facet normal 7.69237835535662e-17 1.0 1.55381522113097e-19
outer loop
vertex 23.5355339059327 -3.5 1.46446609406726
vertex 19.2235428646924 -3.5 2.10222252113279
vertex 20.0 -3.5 2.0
endloop
endfacet
facet normal 7.69237835535662e-17 1.0 1.55381522113097e-19
outer loop
vertex 17.4019237886467 -3.5 3.5
vertex 14.2475093200581 -3.5 10.0
vertex 17.1022225211328 -3.5 4.22354286469244
endloop
endfacet
facet normal 7.69237835535662e-17 1.0 1.55381522113097e-19
outer loop
vertex 17.1022225211328 -3.5 4.22354286469244
vertex 14.2475093200581 -3.5 10.0
vertex 17.0 -3.5 5.0
endloop
endfacet
facet normal 7.69237835535662e-17 1.0 1.55381522113097e-19
outer loop
vertex 17.0 -3.5 5.0
vertex 14.2475093200581 -3.5 10.0
vertex 17.1022225211328 -3.5 5.77645713530756
endloop
endfacet
facet normal 7.69237835535662e-17 1.0 1.55381522113097e-19
outer loop
vertex 17.1022225211328 -3.5 5.77645713530756
vertex 14.2475093200581 -3.5 10.0
vertex 17.4019237886467 -3.5 6.5
endloop
endfacet
facet normal 7.69237835535662e-17 1.0 1.55381522113097e-19
outer loop
vertex 17.4019237886467 -3.5 6.5
vertex 14.2475093200581 -3.5 10.0
vertex 17.8786796564404 -3.5 7.12132034355964
endloop
endfacet
facet normal 7.69237835535662e-17 1.0 1.55381522113097e-19
outer loop
vertex 17.8786796564404 -3.5 7.12132034355964
vertex 14.2475093200581 -3.5 10.0
vertex 18.5 -3.5 7.59807621135332
endloop
endfacet
facet normal 7.69237835535662e-17 1.0 1.55381522113097e-19
outer loop
vertex 18.5 -3.5 7.59807621135332
vertex 14.2475093200581 -3.5 10.0
vertex 19.2235428646924 -3.5 7.8977774788672
endloop
endfacet
facet normal 7.69237835535662e-17 1.0 1.55381522113097e-19
outer loop
vertex 19.2235428646924 -3.5 7.8977774788672
vertex 14.2475093200581 -3.5 10.0
vertex 20.0 -3.5 8.0
endloop
endfacet
facet normal 7.69237835535662e-17 1.0 1.55381522113097e-19
outer loop
vertex 20.0 -3.5 8.0
vertex 14.2475093200581 -3.5 10.0
vertex 23.5355339059327 -3.5 8.53553390593274
endloop
endfacet
facet normal 7.69237835535662e-17 1.0 1.55381522113097e-19
outer loop
vertex 23.5355339059327 -3.5 8.53553390593274
vertex 14.2475093200581 -3.5 10.0
vertex 22.5 -3.5 9.33012701892219
endloop
endfacet
facet normal 7.69237835535662e-17 1.0 1.55381522113097e-19
outer loop
vertex 22.5 -3.5 9.33012701892219
vertex 14.2475093200581 -3.5 10.0
vertex 21.2940952255126 -3.5 9.82962913144534
endloop
endfacet
facet normal 7.69237835535662e-17 1.0 1.55381522113097e-19
outer loop
vertex 21.2940952255126 -3.5 9.82962913144534
vertex 14.2475093200581 -3.5 10.0
vertex 20.0 -3.5 10.0
endloop
endfacet
facet normal 7.69237835535662e-17 1.0 1.55381522113097e-19
outer loop
vertex 20.0 -3.5 2.0
vertex 24.3301270189222 -3.5 2.5
vertex 23.5355339059327 -3.5 1.46446609406726
endloop
endfacet
facet normal 7.69237835535662e-17 1.0 1.55381522113097e-19
outer loop
vertex 24.3301270189222 -3.5 2.5
vertex 20.0 -3.5 2.0
vertex 20.7764571353076 -3.5 2.10222252113279
endloop
endfacet
facet normal 7.69237835535662e-17 1.0 1.55381522113097e-19
outer loop
vertex 24.3301270189222 -3.5 2.5
vertex 20.7764571353076 -3.5 2.10222252113279
vertex 21.5 -3.5 2.40192378864668
endloop
endfacet
facet normal 7.69237835535662e-17 1.0 1.55381522113097e-19
outer loop
vertex 24.3301270189222 -3.5 2.5
vertex 21.5 -3.5 2.40192378864668
vertex 22.1213203435596 -3.5 2.87867965644036
endloop
endfacet
facet normal 7.69237835535662e-17 1.0 1.55381522113097e-19
outer loop
vertex 24.3301270189222 -3.5 2.5
vertex 22.1213203435596 -3.5 2.87867965644036
vertex 24.8296291314453 -3.5 3.7059047744874
endloop
endfacet
facet normal 7.69237835535662e-17 1.0 1.55381522113097e-19
outer loop
vertex 24.8296291314453 -3.5 3.7059047744874
vertex 22.1213203435596 -3.5 2.87867965644036
vertex 22.5980762113533 -3.5 3.5
endloop
endfacet
facet normal 7.69237835535662e-17 1.0 1.55381522113097e-19
outer loop
vertex 24.8296291314453 -3.5 3.7059047744874
vertex 22.5980762113533 -3.5 3.5
vertex 22.8977774788672 -3.5 4.22354286469244
endloop
endfacet
facet normal 7.69237835535662e-17 1.0 1.55381522113097e-19
outer loop
vertex 24.8296291314453 -3.5 3.7059047744874
vertex 22.8977774788672 -3.5 4.22354286469244
vertex 25.0 -3.5 5.0
endloop
endfacet
facet normal 7.69237835535662e-17 1.0 1.55381522113097e-19
outer loop
vertex 25.0 -3.5 5.0
vertex 22.8977774788672 -3.5 4.22354286469244
vertex 23.0 -3.5 5.0
endloop
endfacet
facet normal 7.69237835535662e-17 1.0 1.55381522113097e-19
outer loop
vertex 25.0 -3.5 5.0
vertex 23.0 -3.5 5.0
vertex 22.8977774788672 -3.5 5.77645713530756
endloop
endfacet
facet normal 7.69237835535662e-17 1.0 1.55381522113097e-19
outer loop
vertex 25.0 -3.5 5.0
vertex 22.8977774788672 -3.5 5.77645713530756
vertex 24.8296291314453 -3.5 6.29409522551261
endloop
endfacet
facet normal 7.69237835535662e-17 1.0 1.55381522113097e-19
outer loop
vertex 24.8296291314453 -3.5 6.29409522551261
vertex 22.8977774788672 -3.5 5.77645713530756
vertex 22.5980762113533 -3.5 6.5
endloop
endfacet
facet normal 7.69237835535662e-17 1.0 1.55381522113097e-19
outer loop
vertex 24.8296291314453 -3.5 6.29409522551261
vertex 22.5980762113533 -3.5 6.5
vertex 24.3301270189222 -3.5 7.5
endloop
endfacet
facet normal 7.69237835535662e-17 1.0 1.55381522113097e-19
outer loop
vertex 24.3301270189222 -3.5 7.5
vertex 22.5980762113533 -3.5 6.5
vertex 22.1213203435596 -3.5 7.12132034355964
endloop
endfacet
facet normal 7.69237835535662e-17 1.0 1.55381522113097e-19
outer loop
vertex 24.3301270189222 -3.5 7.5
vertex 22.1213203435596 -3.5 7.12132034355964
vertex 21.5 -3.5 7.59807621135331
endloop
endfacet
facet normal 7.69237835535662e-17 1.0 1.55381522113097e-19
outer loop
vertex 24.3301270189222 -3.5 7.5
vertex 21.5 -3.5 7.59807621135331
vertex 23.5355339059327 -3.5 8.53553390593274
endloop
endfacet
facet normal 7.69237835535662e-17 1.0 1.55381522113097e-19
outer loop
vertex 23.5355339059327 -3.5 8.53553390593274
vertex 21.5 -3.5 7.59807621135331
vertex 20.7764571353076 -3.5 7.8977774788672
endloop
endfacet
facet normal 7.69237835535662e-17 1.0 1.55381522113097e-19
outer loop
vertex 23.5355339059327 -3.5 8.53553390593274
vertex 20.7764571353076 -3.5 7.8977774788672
vertex 20.0 -3.5 8.0
endloop
endfacet
facet normal 1.0 -7.69237835535662e-17 -5.3786405588625e-35
outer loop
vertex 14.2475093200581 0.0 0.0
vertex 14.2475093200581 -3.5 10.0
vertex 14.2475093200581 -3.5 -5.4383532739584e-19
endloop
endfacet
facet normal 1.0 -7.69237835535662e-17 -5.3786405588625e-35
outer loop
vertex 14.2475093200581 -3.5 10.0
vertex 14.2475093200581 0.0 0.0
vertex 14.2475093200581 -6.99216849508846e-18 10.0
endloop
endfacet
endsolid widget
