solid EscherLizard3D_FlatBottom_FlatTail
facet normal -0.0 -0.0 1.0
outer loop
vertex 90.0196939712209 32.9038249227411 0.0
vertex 84.0220605448222 45.4727730657376 0.0
vertex 81.1766000359189 41.4377999431081 0.0
endloop
endfacet
facet normal -0.0 -0.0 1.0
outer loop
vertex 84.0220605448222 45.4727730657376 0.0
vertex 90.0196939712209 32.9038249227411 0.0
vertex 94.3981480549238 40.4807475003363 0.0
endloop
endfacet
facet normal 0.499663150905271 0.866219796372385 -0.0
outer loop
vertex 67.0540638700316 76.6798849287371 6.35
vertex 68.9760074265224 75.5712467085994 -6.35
vertex 67.0540638700316 76.6798849287371 -6.35
endloop
endfacet
facet normal 0.499663150905271 0.866219796372385 -0.0
outer loop
vertex 68.9760074265224 75.5712467085994 -6.35
vertex 67.0540638700316 76.6798849287371 6.35
vertex 68.9760074265224 75.5712467085994 6.35
endloop
endfacet
facet normal 0.617479737242292 0.786586787389154 -2.74216088610354e-016
outer loop
vertex 68.9760074265224 75.5712467085994 6.35
vertex 71.7987402937114 73.3553687189343 -6.35
vertex 68.9760074265224 75.5712467085994 -6.35
endloop
endfacet
facet normal 0.617479737242292 0.786586787389154 -2.74216088610354e-016
outer loop
vertex 71.7987402937114 73.3553687189343 -6.35
vertex 68.9760074265224 75.5712467085994 6.35
vertex 71.7987402937114 73.3553687189343 6.35
endloop
endfacet
facet normal -0.25861620218702 0.965980155058251 1.14848664883658e-016
outer loop
vertex 71.7987402937114 73.3553687189343 6.35
vertex 90.3866280767325 78.3317949114927 -6.35
vertex 71.7987402937114 73.3553687189343 -6.35
endloop
endfacet
facet normal -0.25861620218702 0.965980155058251 1.14848664883658e-016
outer loop
vertex 90.3866280767325 78.3317949114927 -6.35
vertex 71.7987402937114 73.3553687189343 6.35
vertex 90.3866280767325 78.3317949114927 6.35
endloop
endfacet
facet normal 0.706812769863955 0.70740067031156 -0.0
outer loop
vertex 90.3866280767325 78.3317949114927 6.35
vertex 103.633981650042 65.0954508345297 -6.35
vertex 90.3866280767325 78.3317949114927 -6.35
endloop
endfacet
facet normal 0.706812769863955 0.70740067031156 -0.0
outer loop
vertex 103.633981650042 65.0954508345297 -6.35
vertex 90.3866280767325 78.3317949114927 6.35
vertex 103.633981650042 65.0954508345297 6.35
endloop
endfacet
facet normal 0.989918371913516 -0.141639037514716 -0.0
outer loop
vertex 103.633981650042 65.0954508345297 -6.35
vertex 103.187528779171 61.9751818266109 6.35
vertex 103.187528779171 61.9751818266109 -6.35
endloop
endfacet
facet normal 0.989918371913516 -0.141639037514716 -0.0
outer loop
vertex 103.187528779171 61.9751818266109 6.35
vertex 103.633981650042 65.0954508345297 -6.35
vertex 103.633981650042 65.0954508345297 6.35
endloop
endfacet
facet normal 1.0 -0.0 -0.0
outer loop
vertex 103.187528779171 61.9751818266109 -6.35
vertex 103.187528779171 60.1895713472378 6.35
vertex 103.187528779171 60.1895713472378 -6.35
endloop
endfacet
facet normal 1.0 -0.0 -0.0
outer loop
vertex 103.187528779171 60.1895713472378 6.35
vertex 103.187528779171 61.9751818266109 -6.35
vertex 103.187528779171 61.9751818266109 6.35
endloop
endfacet
facet normal 0.60476789009827 -0.79640178246039 -2.6857089445643e-016
outer loop
vertex 103.187528779171 60.1895713472378 6.35
vertex 91.6862464727044 51.4557809576459 -6.35
vertex 103.187528779171 60.1895713472378 -6.35
endloop
endfacet
facet normal 0.60476789009827 -0.79640178246039 -2.6857089445643e-016
outer loop
vertex 91.6862464727044 51.4557809576459 -6.35
vertex 103.187528779171 60.1895713472378 6.35
vertex 91.6862464727045 51.4557809576459 6.35
endloop
endfacet
facet normal -0.345176115213905 -0.938537931831121 1.53288988264457e-016
outer loop
vertex 91.6862464727045 51.4557809576459 6.35
vertex 75.9832985412522 57.2310217663043 -6.35
vertex 91.6862464727044 51.4557809576459 -6.35
endloop
endfacet
facet normal -0.345176115213905 -0.938537931831121 1.53288988264457e-016
outer loop
vertex 75.9832985412522 57.2310217663043 -6.35
vertex 91.6862464727045 51.4557809576459 6.35
vertex 75.9832985412522 57.2310217663043 6.35
endloop
endfacet
facet normal 0.882215997426731 -0.470844914896995 -0.0
outer loop
vertex 75.9832985412522 57.2310217663043 -6.35
vertex 74.9931396819503 55.3757739808184 6.35
vertex 74.9931396819503 55.3757739808184 -6.35
endloop
endfacet
facet normal 0.882215997426731 -0.470844914896995 -0.0
outer loop
vertex 74.9931396819503 55.3757739808184 6.35
vertex 75.9832985412522 57.2310217663043 -6.35
vertex 75.9832985412522 57.2310217663043 6.35
endloop
endfacet
facet normal 0.945284458751687 -0.326247286643937 -0.0
outer loop
vertex 74.9931396819503 55.3757739808184 -6.35
vertex 73.9731705122452 52.4204666296177 6.35
vertex 73.9731705122452 52.4204666296177 -6.35
endloop
endfacet
facet normal 0.945284458751687 -0.326247286643937 -0.0
outer loop
vertex 73.9731705122452 52.4204666296177 6.35
vertex 74.9931396819503 55.3757739808184 -6.35
vertex 74.9931396819503 55.3757739808184 6.35
endloop
endfacet
facet normal 0.959916795856068 0.280285113827723 -4.26288691393525e-016
outer loop
vertex 73.9731705122452 52.4204666296177 -6.35
vertex 75.3416107888554 47.7338502492292 6.35
vertex 75.3416107888554 47.7338502492292 -6.35
endloop
endfacet
facet normal 0.959916795856068 0.280285113827723 -4.26288691393525e-016
outer loop
vertex 75.3416107888554 47.7338502492292 6.35
vertex 73.9731705122452 52.4204666296177 -6.35
vertex 73.9731705122452 52.4204666296177 6.35
endloop
endfacet
facet normal 0.994419924734824 0.105494138654176 -4.41611158634647e-016
outer loop
vertex 75.3416107888554 47.7338502492292 -6.35
vertex 76.0567471280503 40.9927570124888 6.35
vertex 76.0567471280503 40.9927570124888 -6.35
endloop
endfacet
facet normal 0.994419924734824 0.105494138654176 -4.41611158634647e-016
outer loop
vertex 76.0567471280503 40.9927570124888 6.35
vertex 75.3416107888554 47.7338502492292 -6.35
vertex 75.3416107888554 47.7338502492292 6.35
endloop
endfacet
facet normal 0.258738974793047 -0.965947277506927 -6.22376217119843e-018
outer loop
vertex 81.2386460970997 32.1105833447204 6.35
vertex 72.2888259709878 29.7132814029529 -6.35
vertex 81.2386460970997 32.1105833447204 -6.35
endloop
endfacet
facet normal 0.258738974793047 -0.965947277506927 -6.22376217119843e-018
outer loop
vertex 72.2888259709878 29.7132814029529 -6.35
vertex 81.2386460970997 32.1105833447204 6.35
vertex 72.2888259709878 29.7132814029529 6.35
endloop
endfacet
facet normal -0.939973567055477 -0.341247261142128 4.17432118673612e-016
outer loop
vertex 67.2636099061762 43.5553566590474 6.35
vertex 72.2888259709878 29.7132814029529 -6.35
vertex 72.2888259709878 29.7132814029529 6.35
endloop
endfacet
facet normal -0.939973567055477 -0.341247261142128 4.17432118673612e-016
outer loop
vertex 72.2888259709878 29.7132814029529 -6.35
vertex 67.2636099061762 43.5553566590474 6.35
vertex 67.2636099061762 43.5553566590474 -6.35
endloop
endfacet
facet normal -0.896298440652075 -0.443451356165092 7.96072932598046e-016
outer loop
vertex 65.2376485229897 47.6502049514841 6.35
vertex 67.2636099061762 43.5553566590474 -6.35
vertex 67.2636099061762 43.5553566590474 6.35
endloop
endfacet
facet normal -0.896298440652075 -0.443451356165092 7.96072932598046e-016
outer loop
vertex 67.2636099061762 43.5553566590474 -6.35
vertex 65.2376485229897 47.6502049514841 6.35
vertex 65.2376485229897 47.6502049514841 -6.35
endloop
endfacet
facet normal 0.258650520761688 -0.965970966494184 -2.29727810784731e-016
outer loop
vertex 65.2376485229897 47.6502049514841 6.35
vertex 51.8555657212574 44.0669888864028 -6.35
vertex 65.2376485229897 47.6502049514841 -6.35
endloop
endfacet
facet normal 0.258650520761688 -0.965970966494184 -2.29727810784731e-016
outer loop
vertex 51.8555657212574 44.0669888864028 -6.35
vertex 65.2376485229897 47.6502049514841 6.35
vertex 51.8555657212574 44.0669888864028 6.35
endloop
endfacet
facet normal 0.796274272837779 0.604935767182489 -7.07233625296925e-016
outer loop
vertex 51.8555657212574 44.0669888864028 -6.35
vertex 57.7511565176891 36.3066488155179 6.35
vertex 57.751156517689 36.3066488155179 -6.35
endloop
endfacet
facet normal 0.796274272837779 0.604935767182489 -7.07233625296925e-016
outer loop
vertex 57.7511565176891 36.3066488155179 6.35
vertex 51.8555657212574 44.0669888864028 -6.35
vertex 51.8555657212574 44.0669888864028 6.35
endloop
endfacet
facet normal 0.976830186776588 0.214015855024846 -8.67599491606608e-016
outer loop
vertex 57.751156517689 36.3066488155179 -6.35
vertex 60.7832540983614 22.4672795514549 6.35
vertex 60.7832540983614 22.4672795514549 -6.35
endloop
endfacet
facet normal 0.976830186776588 0.214015855024846 -8.67599491606608e-016
outer loop
vertex 60.7832540983614 22.4672795514549 6.35
vertex 57.751156517689 36.3066488155179 -6.35
vertex 57.7511565176891 36.3066488155179 6.35
endloop
endfacet
facet normal -0.706798159472349 -0.707415268259387 4.70822154245331e-016
outer loop
vertex 50.8116911824747 28.1081090008386 6.35
vertex 43.6615660806583 35.2519967407733 -6.35
vertex 50.8116911824747 28.1081090008386 -6.35
endloop
endfacet
facet normal -0.706798159472349 -0.707415268259387 4.70822154245331e-016
outer loop
vertex 43.6615660806583 35.2519967407733 -6.35
vertex 50.8116911824747 28.1081090008386 6.35
vertex 43.6615660806583 35.2519967407733 6.35
endloop
endfacet
facet normal -0.817274862170623 -0.576248036581462 3.62942947771671e-016
outer loop
vertex 38.3304922337749 42.8128947687828 6.35
vertex 43.6615660806583 35.2519967407733 -6.35
vertex 43.6615660806583 35.2519967407733 6.35
endloop
endfacet
facet normal -0.817274862170623 -0.576248036581462 3.62942947771671e-016
outer loop
vertex 43.6615660806583 35.2519967407733 -6.35
vertex 38.3304922337749 42.8128947687828 6.35
vertex 38.3304922337749 42.8128947687828 -6.35
endloop
endfacet
facet normal 0.0 -1.0 0.0
outer loop
vertex 38.3304922337749 42.8128947687828 6.35
vertex 28.506948526532 42.8128947687828 -6.35
vertex 38.3304922337749 42.8128947687828 -6.35
endloop
endfacet
facet normal 0.0 -1.0 0.0
outer loop
vertex 28.506948526532 42.8128947687828 -6.35
vertex 38.3304922337749 42.8128947687828 6.35
vertex 28.506948526532 42.8128947687828 6.35
endloop
endfacet
facet normal 0.0201533594149878 -0.999796900427427 -8.94988945842624e-018
outer loop
vertex 28.506948526532 42.8128947687828 6.35
vertex 24.9500671589734 42.7411970984197 -6.35
vertex 28.506948526532 42.8128947687828 -6.35
endloop
endfacet
facet normal 0.0201533594149878 -0.999796900427427 -8.94988945842624e-018
outer loop
vertex 24.9500671589734 42.7411970984197 -6.35
vertex 28.506948526532 42.8128947687828 6.35
vertex 24.9500671589734 42.7411970984197 6.35
endloop
endfacet
facet normal -0.499760750184029 -0.866163490673381 2.219383566633e-016
outer loop
vertex 24.9500671589734 42.7411970984197 6.35
vertex 22.5630525170332 44.1184615998695 -6.35
vertex 24.9500671589734 42.7411970984197 -6.35
endloop
endfacet
facet normal -0.499760750184029 -0.866163490673381 2.219383566633e-016
outer loop
vertex 22.5630525170332 44.1184615998695 -6.35
vertex 24.9500671589734 42.7411970984197 6.35
vertex 22.5630525170332 44.1184615998695 6.35
endloop
endfacet
facet normal -0.458926109433578 0.888474437493933 2.03804133317921e-016
outer loop
vertex 28.1308802160574 51.7902779194776 6.35
vertex 34.2907600027367 54.9720573222177 -6.35
vertex 28.1308802160574 51.7902779194776 -6.35
endloop
endfacet
facet normal -0.458926109433578 0.888474437493933 2.03804133317921e-016
outer loop
vertex 34.2907600027367 54.9720573222177 -6.35
vertex 28.1308802160574 51.7902779194776 6.35
vertex 34.2907600027367 54.9720573222177 6.35
endloop
endfacet
facet normal -0.989763291049922 0.142718701262407 4.39543197860957e-016
outer loop
vertex 36.061608074689 67.2530015862934 6.35
vertex 34.2907600027367 54.9720573222177 -6.35
vertex 34.2907600027367 54.9720573222177 6.35
endloop
endfacet
facet normal -0.989763291049922 0.142718701262407 4.39543197860957e-016
outer loop
vertex 34.2907600027367 54.9720573222177 -6.35
vertex 36.061608074689 67.2530015862934 6.35
vertex 36.061608074689 67.2530015862934 -6.35
endloop
endfacet
facet normal -0.696607782828632 0.717452156525142 3.09355999851771e-016
outer loop
vertex 36.061608074689 67.2530015862934 6.35
vertex 40.3835734839864 71.4493995117169 -6.35
vertex 36.061608074689 67.2530015862934 -6.35
endloop
endfacet
facet normal -0.696607782828632 0.717452156525142 3.09355999851771e-016
outer loop
vertex 40.3835734839864 71.4493995117169 -6.35
vertex 36.061608074689 67.2530015862934 6.35
vertex 40.3835734839864 71.4493995117169 6.35
endloop
endfacet
facet normal -0.993246997191756 -0.116018975040981 4.41090274168834e-016
outer loop
vertex 39.0847950447066 82.5683374645509 6.35
vertex 40.3835734839864 71.4493995117169 -6.35
vertex 40.3835734839864 71.4493995117169 6.35
endloop
endfacet
facet normal -0.993246997191756 -0.116018975040981 4.41090274168834e-016
outer loop
vertex 40.3835734839864 71.4493995117169 -6.35
vertex 39.0847950447066 82.5683374645509 6.35
vertex 39.0847950447066 82.5683374645509 -6.35
endloop
endfacet
facet normal 0.539351216768206 0.842080913553238 -2.39520055686263e-016
outer loop
vertex 41.2565236984083 91.5845238039265 6.35
vertex 46.404472406636 88.2872724888159 -6.35
vertex 41.2565236984083 91.5845238039265 -6.35
endloop
endfacet
facet normal 0.539351216768206 0.842080913553238 -2.39520055686263e-016
outer loop
vertex 46.404472406636 88.2872724888159 -6.35
vertex 41.2565236984083 91.5845238039265 6.35
vertex 46.404472406636 88.2872724888159 6.35
endloop
endfacet
facet normal 0.908317879178968 0.41828056417173 -6.05061253885909e-016
outer loop
vertex 46.404472406636 88.2872724888159 -6.35
vertex 51.3682139764617 77.5082509379951 6.35
vertex 51.3682139764617 77.5082509379951 -6.35
endloop
endfacet
facet normal 0.908317879178968 0.41828056417173 -6.05061253885909e-016
outer loop
vertex 51.3682139764617 77.5082509379951 6.35
vertex 46.404472406636 88.2872724888159 -6.35
vertex 46.404472406636 88.2872724888159 6.35
endloop
endfacet
facet normal 0.980403251064883 -0.197001180964502 -6.53079757649755e-016
outer loop
vertex 51.3682139764617 77.5082509379951 -6.35
vertex 48.2990239643974 62.2340081581719 6.35
vertex 48.2990239643974 62.2340081581719 -6.35
endloop
endfacet
facet normal 0.980403251064883 -0.197001180964502 -6.53079757649755e-016
outer loop
vertex 48.2990239643974 62.2340081581719 6.35
vertex 51.3682139764617 77.5082509379951 -6.35
vertex 51.3682139764617 77.5082509379951 6.35
endloop
endfacet
facet normal -0.816330058152336 0.577585695942173 1.81261685250863e-016
outer loop
vertex 59.2476636602724 77.7082550836314 6.35
vertex 48.2990239643974 62.2340081581719 -6.35
vertex 48.2990239643974 62.2340081581719 6.35
endloop
endfacet
facet normal -0.816330058152336 0.577585695942173 1.81261685250863e-016
outer loop
vertex 48.2990239643974 62.2340081581719 -6.35
vertex 59.2476636602724 77.7082550836314 6.35
vertex 59.2476636602724 77.7082550836314 -6.35
endloop
endfacet
facet normal -0.998902821728374 -0.0468311087108932 4.43601964818352e-016
outer loop
vertex 59.0682899432004 81.5342783630117 6.35
vertex 59.2476636602724 77.7082550836314 -6.35
vertex 59.2476636602724 77.7082550836314 6.35
endloop
endfacet
facet normal -0.998902821728374 -0.0468311087108932 4.43601964818352e-016
outer loop
vertex 59.2476636602724 77.7082550836314 -6.35
vertex 59.0682899432004 81.5342783630117 6.35
vertex 59.0682899432004 81.5342783630117 -6.35
endloop
endfacet
facet normal -0.97761351636217 -0.210408680015803 8.68295228040035e-016
outer loop
vertex 57.6533145391706 88.108622540237 6.35
vertex 59.0682899432004 81.5342783630117 -6.35
vertex 59.0682899432004 81.5342783630117 6.35
endloop
endfacet
facet normal -0.97761351636217 -0.210408680015803 8.68295228040035e-016
outer loop
vertex 59.0682899432004 81.5342783630117 -6.35
vertex 57.6533145391706 88.108622540237 6.35
vertex 57.6533145391706 88.108622540237 -6.35
endloop
endfacet
facet normal -1.0 0.0 8.88178419700125e-016
outer loop
vertex 57.6533145391706 91.063623881501 6.35
vertex 57.6533145391706 88.108622540237 -6.35
vertex 57.6533145391706 88.108622540237 6.35
endloop
endfacet
facet normal -1.0 0.0 8.88178419700125e-016
outer loop
vertex 57.6533145391706 88.108622540237 -6.35
vertex 57.6533145391706 91.063623881501 6.35
vertex 57.6533145391706 91.063623881501 -6.35
endloop
endfacet
facet normal -0.84023803356116 -0.542217711770166 3.73140644410146e-016
outer loop
vertex 55.8298984026869 93.8892482674712 6.35
vertex 57.6533145391706 91.063623881501 -6.35
vertex 57.6533145391706 91.063623881501 6.35
endloop
endfacet
facet normal -0.84023803356116 -0.542217711770166 3.73140644410146e-016
outer loop
vertex 57.6533145391706 91.063623881501 -6.35
vertex 55.8298984026869 93.8892482674712 6.35
vertex 55.8298984026869 93.8892482674712 -6.35
endloop
endfacet
facet normal 0.992026879201575 0.126026469210178 -0.0
outer loop
vertex 65.1013346763156 92.0509403911987 -6.35
vertex 67.0540638700316 76.6798849287371 6.35
vertex 67.0540638700316 76.6798849287371 -6.35
endloop
endfacet
facet normal 0.992026879201575 0.126026469210178 -0.0
outer loop
vertex 67.0540638700316 76.6798849287371 6.35
vertex 65.1013346763156 92.0509403911987 -6.35
vertex 65.1013346763156 92.0509403911987 6.35
endloop
endfacet
facet normal -0.0 -0.0 1.0
outer loop
vertex 66.1102675300454 100.895451288663 0.0
vertex 65.4247351975117 109.048624393595 0.0
vertex 63.8722117306406 105.726797487307 0.0
endloop
endfacet
facet normal -0.0 -0.0 1.0
outer loop
vertex 65.4247351975117 109.048624393595 0.0
vertex 66.1102675300454 100.895451288663 0.0
vertex 70.7968670401667 106.664397292888 0.0
endloop
endfacet
facet normal -0.0 -0.0 1.0
outer loop
vertex 70.7968670401667 106.664397292888 0.0
vertex 66.1102675300454 100.895451288663 0.0
vertex 77.7050773370941 102.540980665668 0.0
endloop
endfacet
facet normal -0.0 -0.0 1.0
outer loop
vertex 70.7968670401667 106.664397292888 0.0
vertex 77.7050773370941 102.540980665668 0.0
vertex 75.3163761712023 105.561154792352 0.0
endloop
endfacet
facet normal -0.0 -0.0 1.0
outer loop
vertex 75.3163761712023 105.561154792352 0.0
vertex 77.7050773370941 102.540980665668 0.0
vertex 77.1034679356611 103.505391964868 0.0
endloop
endfacet
facet normal -0.0 -0.0 1.0
outer loop
vertex 67.2636099061762 43.5553566590474 6.35
vertex 73.9731705122452 52.4204666296177 6.35
vertex 65.2376485229897 47.6502049514841 6.35
endloop
endfacet
facet normal -0.0 -0.0 1.0
outer loop
vertex 73.9731705122452 52.4204666296177 6.35
vertex 67.2636099061762 43.5553566590474 6.35
vertex 72.2888259709878 29.7132814029529 6.35
endloop
endfacet
facet normal -0.0 -0.0 1.0
outer loop
vertex 73.9731705122452 52.4204666296177 6.35
vertex 72.2888259709878 29.7132814029529 6.35
vertex 76.0567471280503 40.9927570124888 6.35
endloop
endfacet
facet normal -0.0 -0.0 1.0
outer loop
vertex 73.9731705122452 52.4204666296177 6.35
vertex 76.0567471280503 40.9927570124888 6.35
vertex 75.3416107888554 47.7338502492292 6.35
endloop
endfacet
facet normal -0.0 -0.0 1.0
outer loop
vertex 26.9556573984516 76.4730892181982 0.0
vertex 24.2426806589944 88.6413917067029 0.0
vertex 16.8229963556427 83.1242756923256 0.0
endloop
endfacet
facet normal -0.0 -0.0 1.0
outer loop
vertex 24.2426806589944 88.6413917067029 0.0
vertex 26.9556573984516 76.4730892181982 0.0
vertex 29.8917205371522 87.0423179388022 0.0
endloop
endfacet
facet normal -0.0 -0.0 1.0
outer loop
vertex 50.1385747051295 12.7721736430259 7.04991620636974e-016
vertex 38.7209991016876 13.1086067442559 7.04991620636974e-016
vertex 46.8586903658456 4.97756087700581 7.04991620636974e-016
endloop
endfacet
facet normal -3.37620716088466e-019 -6.88131745572505e-018 -1.0
outer loop
vertex 24.2426806589944 88.6413917067029 -6.35
vertex 26.9556573984516 76.4730892181982 -6.35
vertex 16.8229963556427 83.1242756923256 -6.35
endloop
endfacet
facet normal -3.37620716088466e-019 -6.88131745572505e-018 -1.0
outer loop
vertex 26.9556573984516 76.4730892181982 -6.35
vertex 24.2426806589944 88.6413917067029 -6.35
vertex 29.8917205371522 87.0423179388022 -6.35
endloop
endfacet
facet normal -3.37620716088466e-019 -6.88131745572505e-018 -1.0
outer loop
vertex 26.9556573984516 76.4730892181982 -6.35
vertex 29.8917205371522 87.0423179388022 -6.35
vertex 39.0847950447066 82.5683374645509 -6.35
endloop
endfacet
facet normal -3.37620716088466e-019 -6.88131745572505e-018 -1.0
outer loop
vertex 39.0847950447066 82.5683374645509 -6.35
vertex 29.8917205371522 87.0423179388022 -6.35
vertex 41.2565236984083 91.5845238039265 -6.35
endloop
endfacet
facet normal -3.37620716088466e-019 -6.88131745572505e-018 -1.0
outer loop
vertex 39.0847950447066 82.5683374645509 -6.35
vertex 41.2565236984083 91.5845238039265 -6.35
vertex 40.3835734839864 71.4493995117169 -6.35
endloop
endfacet
facet normal -3.37620716088466e-019 -6.88131745572505e-018 -1.0
outer loop
vertex 51.3682139764617 77.5082509379951 -6.35
vertex 48.2990239643974 62.2340081581719 -6.35
vertex 46.404472406636 88.2872724888159 -6.35
endloop
endfacet
facet normal -3.37620716088466e-019 -6.88131745572505e-018 -1.0
outer loop
vertex 65.4247351975117 109.048624393595 -6.35
vertex 66.1102675300454 100.895451288663 -6.35
vertex 63.8722117306406 105.726797487307 -6.35
endloop
endfacet
facet normal -3.37620716088466e-019 -6.88131745572505e-018 -1.0
outer loop
vertex 66.1102675300454 100.895451288663 -6.35
vertex 65.4247351975117 109.048624393595 -6.35
vertex 70.7968670401667 106.664397292888 -6.35
endloop
endfacet
facet normal -3.37620716088466e-019 -6.88131745572505e-018 -1.0
outer loop
vertex 66.1102675300454 100.895451288663 -6.35
vertex 57.6533145391706 91.063623881501 -6.35
vertex 55.8298984026869 93.8892482674712 -6.35
endloop
endfacet
facet normal -3.37620716088466e-019 -6.88131745572505e-018 -1.0
outer loop
vertex 57.6533145391706 91.063623881501 -6.35
vertex 66.1102675300454 100.895451288663 -6.35
vertex 57.6533145391706 88.108622540237 -6.35
endloop
endfacet
facet normal -3.37620716088466e-019 -6.88131745572505e-018 -1.0
outer loop
vertex 57.6533145391706 88.108622540237 -6.35
vertex 66.1102675300454 100.895451288663 -6.35
vertex 59.0682899432004 81.5342783630117 -6.35
endloop
endfacet
facet normal -3.37620716088466e-019 -6.88131745572505e-018 -1.0
outer loop
vertex 59.0682899432004 81.5342783630117 -6.35
vertex 66.1102675300454 100.895451288663 -6.35
vertex 59.2476636602724 77.7082550836314 -6.35
endloop
endfacet
facet normal -3.37620716088466e-019 -6.88131745572505e-018 -1.0
outer loop
vertex 59.2476636602724 77.7082550836314 -6.35
vertex 66.1102675300454 100.895451288663 -6.35
vertex 65.1013346763156 92.0509403911987 -6.35
endloop
endfacet
facet normal -3.37620716088466e-019 -6.88131745572505e-018 -1.0
outer loop
vertex 65.1013346763156 92.0509403911987 -6.35
vertex 66.1102675300454 100.895451288663 -6.35
vertex 77.7050773370941 102.540980665668 -6.35
endloop
endfacet
facet normal -3.37620716088466e-019 -6.88131745572505e-018 -1.0
outer loop
vertex 77.7050773370941 102.540980665668 -6.35
vertex 66.1102675300454 100.895451288663 -6.35
vertex 70.7968670401667 106.664397292888 -6.35
endloop
endfacet
facet normal -3.37620716088466e-019 -6.88131745572505e-018 -1.0
outer loop
vertex 77.7050773370941 102.540980665668 -6.35
vertex 70.7968670401667 106.664397292888 -6.35
vertex 75.3163761712023 105.561154792352 -6.35
endloop
endfacet
facet normal -3.37620716088466e-019 -6.88131745572505e-018 -1.0
outer loop
vertex 77.7050773370941 102.540980665668 -6.35
vertex 75.3163761712023 105.561154792352 -6.35
vertex 77.1034679356611 103.505391964868 -6.35
endloop
endfacet
facet normal -3.37620716088466e-019 -6.88131745572505e-018 -1.0
outer loop
vertex 15.6803597043476 52.9429473143733 -6.35
vertex 13.1141080146338 47.7477408833875 -6.35
vertex 7.33110816867555 60.2855241773509 -6.35
endloop
endfacet
facet normal -3.37620716088466e-019 -6.88131745572505e-018 -1.0
outer loop
vertex 13.1141080146338 47.7477408833875 -6.35
vertex 15.6803597043476 52.9429473143733 -6.35
vertex 22.5630525170332 44.1184615998695 -6.35
endloop
endfacet
facet normal -3.37620716088466e-019 -6.88131745572505e-018 -1.0
outer loop
vertex 22.5630525170332 44.1184615998695 -6.35
vertex 15.6803597043476 52.9429473143733 -6.35
vertex 28.1308802160574 51.7902779194776 -6.35
endloop
endfacet
facet normal -3.37620716088466e-019 -6.88131745572505e-018 -1.0
outer loop
vertex 22.5630525170332 44.1184615998695 -6.35
vertex 28.1308802160574 51.7902779194776 -6.35
vertex 24.9500671589734 42.7411970984197 -6.35
endloop
endfacet
facet normal -3.37620716088466e-019 -6.88131745572505e-018 -1.0
outer loop
vertex 24.9500671589734 42.7411970984197 -6.35
vertex 28.1308802160574 51.7902779194776 -6.35
vertex 28.506948526532 42.8128947687828 -6.35
endloop
endfacet
facet normal -3.37620716088466e-019 -6.88131745572505e-018 -1.0
outer loop
vertex 28.506948526532 42.8128947687828 -6.35
vertex 28.1308802160574 51.7902779194776 -6.35
vertex 34.2907600027367 54.9720573222177 -6.35
endloop
endfacet
facet normal -3.37620716088466e-019 -6.88131745572505e-018 -1.0
outer loop
vertex 28.506948526532 42.8128947687828 -6.35
vertex 34.2907600027367 54.9720573222177 -6.35
vertex 38.3304922337749 42.8128947687828 -6.35
endloop
endfacet
facet normal -3.37620716088466e-019 -6.88131745572505e-018 -1.0
outer loop
vertex 38.3304922337749 42.8128947687828 -6.35
vertex 34.2907600027367 54.9720573222177 -6.35
vertex 36.061608074689 67.2530015862934 -6.35
endloop
endfacet
facet normal -3.37620716088466e-019 -6.88131745572505e-018 -1.0
outer loop
vertex 38.3304922337749 42.8128947687828 -6.35
vertex 36.061608074689 67.2530015862934 -6.35
vertex 40.3835734839864 71.4493995117169 -6.35
endloop
endfacet
facet normal -3.37620716088466e-019 -6.88131745572505e-018 -1.0
outer loop
vertex 38.3304922337749 42.8128947687828 -6.35
vertex 40.3835734839864 71.4493995117169 -6.35
vertex 43.6615660806583 35.2519967407733 -6.35
endloop
endfacet
facet normal -3.37620716088466e-019 -6.88131745572505e-018 -1.0
outer loop
vertex 43.6615660806583 35.2519967407733 -6.35
vertex 40.3835734839864 71.4493995117169 -6.35
vertex 41.2565236984083 91.5845238039265 -6.35
endloop
endfacet
facet normal -3.37620716088466e-019 -6.88131745572505e-018 -1.0
outer loop
vertex 43.6615660806583 35.2519967407733 -6.35
vertex 41.2565236984083 91.5845238039265 -6.35
vertex 46.404472406636 88.2872724888159 -6.35
endloop
endfacet
facet normal -3.37620716088466e-019 -6.88131745572505e-018 -1.0
outer loop
vertex 43.6615660806583 35.2519967407733 -6.35
vertex 46.404472406636 88.2872724888159 -6.35
vertex 48.2990239643974 62.2340081581719 -6.35
endloop
endfacet
facet normal -3.37620716088466e-019 -6.88131745572505e-018 -1.0
outer loop
vertex 43.6615660806583 35.2519967407733 -6.35
vertex 48.2990239643974 62.2340081581719 -6.35
vertex 50.8116911824747 28.1081090008386 -6.35
endloop
endfacet
facet normal -3.37620716088466e-019 -6.88131745572505e-018 -1.0
outer loop
vertex 50.8116911824747 28.1081090008386 -6.35
vertex 48.2990239643974 62.2340081581719 -6.35
vertex 51.8555657212574 44.0669888864028 -6.35
endloop
endfacet
facet normal -3.37620716088466e-019 -6.88131745572505e-018 -1.0
outer loop
vertex 51.8555657212574 44.0669888864028 -6.35
vertex 48.2990239643974 62.2340081581719 -6.35
vertex 59.2476636602724 77.7082550836314 -6.35
endloop
endfacet
facet normal -3.37620716088466e-019 -6.88131745572505e-018 -1.0
outer loop
vertex 51.8555657212574 44.0669888864028 -6.35
vertex 59.2476636602724 77.7082550836314 -6.35
vertex 65.2376485229897 47.6502049514841 -6.35
endloop
endfacet
facet normal -3.37620716088466e-019 -6.88131745572505e-018 -1.0
outer loop
vertex 65.2376485229897 47.6502049514841 -6.35
vertex 59.2476636602724 77.7082550836314 -6.35
vertex 65.1013346763156 92.0509403911987 -6.35
endloop
endfacet
facet normal -3.37620716088466e-019 -6.88131745572505e-018 -1.0
outer loop
vertex 65.2376485229897 47.6502049514841 -6.35
vertex 65.1013346763156 92.0509403911987 -6.35
vertex 67.0540638700316 76.6798849287371 -6.35
endloop
endfacet
facet normal -3.37620716088466e-019 -6.88131745572505e-018 -1.0
outer loop
vertex 65.2376485229897 47.6502049514841 -6.35
vertex 67.0540638700316 76.6798849287371 -6.35
vertex 67.2636099061762 43.5553566590474 -6.35
endloop
endfacet
facet normal -3.37620716088466e-019 -6.88131745572505e-018 -1.0
outer loop
vertex 67.2636099061762 43.5553566590474 -6.35
vertex 67.0540638700316 76.6798849287371 -6.35
vertex 68.9760074265224 75.5712467085994 -6.35
endloop
endfacet
facet normal -3.37620716088466e-019 -6.88131745572505e-018 -1.0
outer loop
vertex 67.2636099061762 43.5553566590474 -6.35
vertex 68.9760074265224 75.5712467085994 -6.35
vertex 72.2888259709878 29.7132814029529 -6.35
endloop
endfacet
facet normal -3.37620716088466e-019 -6.88131745572505e-018 -1.0
outer loop
vertex 72.2888259709878 29.7132814029529 -6.35
vertex 68.9760074265224 75.5712467085994 -6.35
vertex 71.7987402937114 73.3553687189343 -6.35
endloop
endfacet
facet normal -3.37620716088466e-019 -6.88131745572505e-018 -1.0
outer loop
vertex 72.2888259709878 29.7132814029529 -6.35
vertex 71.7987402937114 73.3553687189343 -6.35
vertex 73.9731705122452 52.4204666296177 -6.35
endloop
endfacet
facet normal -3.37620716088466e-019 -6.88131745572505e-018 -1.0
outer loop
vertex 73.9731705122452 52.4204666296177 -6.35
vertex 71.7987402937114 73.3553687189343 -6.35
vertex 74.9931396819503 55.3757739808184 -6.35
endloop
endfacet
facet normal -3.37620716088466e-019 -6.88131745572505e-018 -1.0
outer loop
vertex 74.9931396819503 55.3757739808184 -6.35
vertex 71.7987402937114 73.3553687189343 -6.35
vertex 75.9832985412522 57.2310217663043 -6.35
endloop
endfacet
facet normal -3.37620716088466e-019 -6.88131745572505e-018 -1.0
outer loop
vertex 75.9832985412522 57.2310217663043 -6.35
vertex 71.7987402937114 73.3553687189343 -6.35
vertex 90.3866280767325 78.3317949114927 -6.35
endloop
endfacet
facet normal -3.37620716088466e-019 -6.88131745572505e-018 -1.0
outer loop
vertex 75.9832985412522 57.2310217663043 -6.35
vertex 90.3866280767325 78.3317949114927 -6.35
vertex 91.6862464727044 51.4557809576459 -6.35
endloop
endfacet
facet normal -3.37620716088466e-019 -6.88131745572505e-018 -1.0
outer loop
vertex 91.6862464727044 51.4557809576459 -6.35
vertex 90.3866280767325 78.3317949114927 -6.35
vertex 103.633981650042 65.0954508345297 -6.35
endloop
endfacet
facet normal -3.37620716088466e-019 -6.88131745572505e-018 -1.0
outer loop
vertex 91.6862464727044 51.4557809576459 -6.35
vertex 103.633981650042 65.0954508345297 -6.35
vertex 103.187528779171 61.9751818266109 -6.35
endloop
endfacet
facet normal -3.37620716088466e-019 -6.88131745572505e-018 -1.0
outer loop
vertex 103.187528779171 60.1895713472378 -6.35
vertex 91.6862464727044 51.4557809576459 -6.35
vertex 103.187528779171 61.9751818266109 -6.35
endloop
endfacet
facet normal -3.37620716088466e-019 -6.88131745572505e-018 -1.0
outer loop
vertex 72.2888259709878 29.7132814029529 -6.35
vertex 76.0567471280503 40.9927570124888 -6.35
vertex 81.2386460970997 32.1105833447204 -6.35
endloop
endfacet
facet normal -3.37620716088466e-019 -6.88131745572505e-018 -1.0
outer loop
vertex 76.0567471280503 40.9927570124888 -6.35
vertex 72.2888259709878 29.7132814029529 -6.35
vertex 73.9731705122452 52.4204666296177 -6.35
endloop
endfacet
facet normal -3.37620716088466e-019 -6.88131745572505e-018 -1.0
outer loop
vertex 76.0567471280503 40.9927570124888 -6.35
vertex 73.9731705122452 52.4204666296177 -6.35
vertex 75.3416107888554 47.7338502492292 -6.35
endloop
endfacet
facet normal -3.37620716088466e-019 -6.88131745572505e-018 -1.0
outer loop
vertex 81.2386460970997 32.1105833447204 -6.35
vertex 76.0567471280503 40.9927570124888 -6.35
vertex 81.1766000359189 41.4377999431081 -6.35
endloop
endfacet
facet normal -3.37620716088466e-019 -6.88131745572505e-018 -1.0
outer loop
vertex 81.2386460970997 32.1105833447204 -6.35
vertex 81.1766000359189 41.4377999431081 -6.35
vertex 84.0220605448222 45.4727730657376 -6.35
endloop
endfacet
facet normal -3.37620716088466e-019 -6.88131745572505e-018 -1.0
outer loop
vertex 81.2386460970997 32.1105833447204 -6.35
vertex 84.0220605448222 45.4727730657376 -6.35
vertex 90.0196939712209 32.9038249227411 -6.35
endloop
endfacet
facet normal -3.37620716088466e-019 -6.88131745572505e-018 -1.0
outer loop
vertex 90.0196939712209 32.9038249227411 -6.35
vertex 84.0220605448222 45.4727730657376 -6.35
vertex 94.3981480549238 40.4807475003363 -6.35
endloop
endfacet
facet normal -3.37620716088466e-019 -6.88131745572505e-018 -1.0
outer loop
vertex 40.7633327594141 16.1696072780217 -6.35
vertex 46.8586903658456 4.97756087700581 -6.35
vertex 38.7209991016876 13.1086067442558 -6.35
endloop
endfacet
facet normal -3.37620716088466e-019 -6.88131745572505e-018 -1.0
outer loop
vertex 46.8586903658456 4.97756087700581 -6.35
vertex 40.7633327594141 16.1696072780217 -6.35
vertex 50.8116911824747 28.1081090008386 -6.35
endloop
endfacet
facet normal -3.37620716088466e-019 -6.88131745572505e-018 -1.0
outer loop
vertex 46.8586903658456 4.97756087700581 -6.35
vertex 50.8116911824747 28.1081090008386 -6.35
vertex 50.1385747051295 12.7721736430259 -6.35
endloop
endfacet
facet normal -3.37620716088466e-019 -6.88131745572505e-018 -1.0
outer loop
vertex 50.1385747051295 12.7721736430259 -6.35
vertex 50.8116911824747 28.1081090008386 -6.35
vertex 60.7832540983614 22.4672795514549 -6.35
endloop
endfacet
facet normal -3.37620716088466e-019 -6.88131745572505e-018 -1.0
outer loop
vertex 60.7832540983614 22.4672795514549 -6.35
vertex 50.8116911824747 28.1081090008386 -6.35
vertex 51.8555657212574 44.0669888864028 -6.35
endloop
endfacet
facet normal -3.37620716088466e-019 -6.88131745572505e-018 -1.0
outer loop
vertex 60.7832540983614 22.4672795514549 -6.35
vertex 51.8555657212574 44.0669888864028 -6.35
vertex 57.751156517689 36.3066488155179 -6.35
endloop
endfacet
facet normal -0.76507273347739 0.643943873710617 6.92075124716106e-016
outer loop
vertex 40.7633327594141 16.1696072780218 0.0
vertex 50.8116911824747 28.1081090008386 -6.35
vertex 40.7633327594141 16.1696072780217 -6.35
endloop
endfacet
facet normal -0.76507273347739 0.643943873710617 6.92075124716106e-016
outer loop
vertex 50.8116911824747 28.1081090008386 -6.35
vertex 40.7633327594141 16.1696072780218 0.0
vertex 50.8116911824747 28.1081090008386 6.35
endloop
endfacet
facet normal -0.831841197145081 0.555013714003753 -2.43218397426758e-016
outer loop
vertex 38.7209991016876 13.1086067442559 7.04991620636974e-016
vertex 40.7633327594141 16.1696072780217 -6.35
vertex 38.7209991016876 13.1086067442558 -6.35
endloop
endfacet
facet normal -0.831841197145081 0.555013714003753 -2.43218397426758e-016
outer loop
vertex 40.7633327594141 16.1696072780217 -6.35
vertex 38.7209991016876 13.1086067442559 7.04991620636974e-016
vertex 40.7633327594141 16.1696072780218 0.0
endloop
endfacet
facet normal 0.921722384140447 -0.387850288867303 2.02484814982339e-015
outer loop
vertex 50.1385747051295 12.7721736430259 -6.35
vertex 46.8586903658456 4.97756087700581 7.04991620636974e-016
vertex 46.8586903658456 4.97756087700581 -6.35
endloop
endfacet
facet normal 0.921722384140447 -0.387850288867303 2.02484814982339e-015
outer loop
vertex 46.8586903658456 4.97756087700581 7.04991620636974e-016
vertex 50.1385747051295 12.7721736430259 -6.35
vertex 50.1385747051295 12.7721736430259 7.04991620636974e-016
endloop
endfacet
facet normal -0.706817885711512 -0.70739555867867 8.63903520438899e-016
outer loop
vertex 46.8586903658456 4.97756087700581 7.04991620636974e-016
vertex 38.7209991016876 13.1086067442558 -6.35
vertex 46.8586903658456 4.97756087700581 -6.35
endloop
endfacet
facet normal -0.706817885711512 -0.70739555867867 8.63903520438899e-016
outer loop
vertex 38.7209991016876 13.1086067442558 -6.35
vertex 46.8586903658456 4.97756087700581 7.04991620636974e-016
vertex 38.7209991016876 13.1086067442559 7.04991620636974e-016
endloop
endfacet
facet normal 0.67336172302373 -0.739313188010679 2.80409159586725e-016
outer loop
vertex 60.7832540983614 22.4672795514549 -6.35
vertex 50.1385747051295 12.7721736430259 7.04991620636974e-016
vertex 50.1385747051295 12.7721736430259 -6.35
endloop
endfacet
facet normal 0.67336172302373 -0.739313188010679 2.80409159586725e-016
outer loop
vertex 50.1385747051295 12.7721736430259 7.04991620636974e-016
vertex 60.7832540983614 22.4672795514549 -6.35
vertex 60.7832540983614 22.4672795514549 6.35
endloop
endfacet
facet normal 6.65564119558593e-018 2.25873394330599e-016 1.0
outer loop
vertex 50.1385747051295 12.7721736430259 7.04991620636974e-016
vertex 40.7633327594141 16.1696072780218 0.0
vertex 38.7209991016876 13.1086067442559 7.04991620636974e-016
endloop
endfacet
facet normal -0.135513444236017 -0.373950299874339 0.917495111515687
outer loop
vertex 50.8116911824747 28.1081090008386 6.35
vertex 40.7633327594141 16.1696072780218 0.0
vertex 50.1385747051295 12.7721736430259 7.04991620636974e-016
endloop
endfacet
facet normal -0.207309142524346 -0.366470246312072 0.907040505156076
outer loop
vertex 60.7832540983614 22.4672795514549 6.35
vertex 50.8116911824747 28.1081090008386 6.35
vertex 50.1385747051295 12.7721736430259 7.04991620636974e-016
endloop
endfacet
facet normal -0.817230742183328 0.576310605516233 0.0
outer loop
vertex 84.0220605448222 45.4727730657376 0.0
vertex 81.1766000359189 41.4377999431081 -6.35
vertex 81.1766000359189 41.4377999431081 0.0
endloop
endfacet
facet normal -0.817230742183328 0.576310605516233 0.0
outer loop
vertex 81.1766000359189 41.4377999431081 -6.35
vertex 84.0220605448222 45.4727730657376 0.0
vertex 84.0220605448222 45.4727730657376 -6.35
endloop
endfacet
facet normal -0.0865983939421859 0.996243302696 -4.25351663823507e-018
outer loop
vertex 76.0567471280503 40.9927570124888 -6.35
vertex 81.1766000359189 41.4377999431081 0.0
vertex 81.1766000359189 41.4377999431081 -6.35
endloop
endfacet
facet normal -0.0865983939421859 0.996243302696 -4.25351663823507e-018
outer loop
vertex 81.1766000359189 41.4377999431081 0.0
vertex 76.0567471280503 40.9927570124888 -6.35
vertex 76.0567471280503 40.9927570124888 6.35
endloop
endfacet
facet normal 0.433542864347066 0.901132945116169 -0.0
outer loop
vertex 84.0220605448222 45.4727730657376 0.0
vertex 94.3981480549238 40.4807475003363 -6.35
vertex 84.0220605448222 45.4727730657376 -6.35
endloop
endfacet
facet normal 0.433542864347066 0.901132945116169 -0.0
outer loop
vertex 94.3981480549238 40.4807475003363 -6.35
vertex 84.0220605448222 45.4727730657376 0.0
vertex 94.3981480549238 40.4807475003363 0.0
endloop
endfacet
facet normal 0.865831580138478 -0.500335562232894 -0.0
outer loop
vertex 94.3981480549238 40.4807475003363 -6.35
vertex 90.0196939712209 32.9038249227411 0.0
vertex 90.0196939712209 32.9038249227411 -6.35
endloop
endfacet
facet normal 0.865831580138478 -0.500335562232894 -0.0
outer loop
vertex 90.0196939712209 32.9038249227411 0.0
vertex 94.3981480549238 40.4807475003363 -6.35
vertex 94.3981480549238 40.4807475003363 0.0
endloop
endfacet
facet normal 0.0899692872754389 -0.995944540296873 0.0
outer loop
vertex 90.0196939712209 32.9038249227411 -6.35
vertex 81.2386460970997 32.1105833447204 6.35
vertex 81.2386460970997 32.1105833447204 -6.35
endloop
endfacet
facet normal 0.0899692872754389 -0.995944540296873 0.0
outer loop
vertex 81.2386460970997 32.1105833447204 6.35
vertex 90.0196939712209 32.9038249227411 -6.35
vertex 90.0196939712209 32.9038249227411 0.0
endloop
endfacet
facet normal -0.0 -0.0 1.0
outer loop
vertex 81.2386460970997 32.1105833447204 6.35
vertex 76.0567471280503 40.9927570124888 6.35
vertex 72.2888259709878 29.7132814029529 6.35
endloop
endfacet
facet normal 0.697063367475712 0.406669817591165 0.590527155331395
outer loop
vertex 81.1766000359189 41.4377999431081 0.0
vertex 76.0567471280503 40.9927570124888 6.35
vertex 81.2386460970997 32.1105833447204 6.35
endloop
endfacet
facet normal 0.478870953694174 0.496216688741035 0.724190311674297
outer loop
vertex 90.0196939712209 32.9038249227411 0.0
vertex 81.1766000359189 41.4377999431081 0.0
vertex 81.2386460970997 32.1105833447204 6.35
endloop
endfacet
facet normal -0.563164537785585 0.826344784808828 -0.0
outer loop
vertex 55.8298984026869 93.8892482674712 -6.35
vertex 66.1102675300454 100.895451288663 0.0
vertex 66.1102675300454 100.895451288663 -6.35
endloop
endfacet
facet normal -0.563164537785585 0.826344784808828 -0.0
outer loop
vertex 66.1102675300454 100.895451288663 0.0
vertex 55.8298984026869 93.8892482674712 -6.35
vertex 55.8298984026869 93.8892482674712 6.35
endloop
endfacet
facet normal 0.848451776283097 0.529272692779494 -0.0
outer loop
vertex 77.1034679356611 103.505391964868 -6.35
vertex 77.7050773370941 102.540980665668 0.0
vertex 77.7050773370941 102.540980665668 -6.35
endloop
endfacet
facet normal 0.848451776283097 0.529272692779494 -0.0
outer loop
vertex 77.7050773370941 102.540980665668 0.0
vertex 77.1034679356611 103.505391964868 -6.35
vertex 77.1034679356611 103.505391964868 0.0
endloop
endfacet
facet normal -0.907372265766255 -0.420327933069184 0.0
outer loop
vertex 63.8722117306406 105.726797487307 0.0
vertex 66.1102675300454 100.895451288663 -6.35
vertex 66.1102675300454 100.895451288663 0.0
endloop
endfacet
facet normal -0.907372265766255 -0.420327933069184 0.0
outer loop
vertex 66.1102675300454 100.895451288663 -6.35
vertex 63.8722117306406 105.726797487307 0.0
vertex 63.8722117306406 105.726797487307 -6.35
endloop
endfacet
facet normal 0.237143476712306 0.971474637575681 -0.0
outer loop
vertex 70.7968670401667 106.664397292888 0.0
vertex 75.3163761712023 105.561154792352 -6.35
vertex 70.7968670401667 106.664397292888 -6.35
endloop
endfacet
facet normal 0.237143476712306 0.971474637575681 -0.0
outer loop
vertex 75.3163761712023 105.561154792352 -6.35
vertex 70.7968670401667 106.664397292888 0.0
vertex 75.3163761712023 105.561154792352 0.0
endloop
endfacet
facet normal 0.639713581170151 -0.768613384001646 5.67108779898631e-017
outer loop
vertex 77.7050773370941 102.540980665668 0.0
vertex 65.1013346763156 92.0509403911987 -6.35
vertex 77.7050773370941 102.540980665668 -6.35
endloop
endfacet
facet normal 0.639713581170151 -0.768613384001646 5.67108779898631e-017
outer loop
vertex 65.1013346763156 92.0509403911987 -6.35
vertex 77.7050773370941 102.540980665668 0.0
vertex 65.1013346763156 92.0509403911987 6.35
endloop
endfacet
facet normal 0.639713581170151 -0.768613384001646 5.67108779898631e-017
outer loop
vertex 65.1013346763156 92.0509403911987 6.35
vertex 77.7050773370941 102.540980665668 0.0
vertex 71.4032060067048 97.2959605284335 6.35
endloop
endfacet
facet normal -0.905938687063638 0.423408898443823 0.0
outer loop
vertex 65.4247351975117 109.048624393595 0.0
vertex 63.8722117306406 105.726797487307 -6.35
vertex 63.8722117306406 105.726797487307 0.0
endloop
endfacet
facet normal -0.905938687063638 0.423408898443823 0.0
outer loop
vertex 63.8722117306406 105.726797487307 -6.35
vertex 65.4247351975117 109.048624393595 0.0
vertex 65.4247351975117 109.048624393595 -6.35
endloop
endfacet
facet normal 0.405657186435609 0.914025298934961 -0.0
outer loop
vertex 65.4247351975117 109.048624393595 0.0
vertex 70.7968670401667 106.664397292888 -6.35
vertex 65.4247351975117 109.048624393595 -6.35
endloop
endfacet
facet normal 0.405657186435609 0.914025298934961 -0.0
outer loop
vertex 70.7968670401667 106.664397292888 -6.35
vertex 65.4247351975117 109.048624393595 0.0
vertex 70.7968670401667 106.664397292888 0.0
endloop
endfacet
facet normal 0.754701509083956 0.656068313658265 -0.0
outer loop
vertex 75.3163761712023 105.561154792352 -6.35
vertex 77.1034679356611 103.505391964868 0.0
vertex 77.1034679356611 103.505391964868 -6.35
endloop
endfacet
facet normal 0.754701509083956 0.656068313658265 -0.0
outer loop
vertex 77.1034679356611 103.505391964868 0.0
vertex 75.3163761712023 105.561154792352 -6.35
vertex 75.3163761712023 105.561154792352 0.0
endloop
endfacet
facet normal -0.172448107214035 0.788322351185684 0.590600982846602
outer loop
vertex 71.4032060067048 97.2959605284335 6.35
vertex 66.1102675300454 100.895451288663 0.0
vertex 55.8298984026869 93.8892482674712 6.35
endloop
endfacet
facet normal -0.116282025841362 0.819352113945897 0.561373853896509
outer loop
vertex 71.4032060067048 97.2959605284335 6.35
vertex 77.7050773370941 102.540980665668 0.0
vertex 66.1102675300454 100.895451288663 0.0
endloop
endfacet
facet normal -0.514473666636033 0.142917445385348 0.845512536951761
outer loop
vertex 39.0847950447066 82.5683374645509 6.35
vertex 29.8917205371522 87.0423179388022 0.0
vertex 26.9556573984516 76.4730892181982 0.0
endloop
endfacet
facet normal -0.521703043166958 0.12566260333607 0.843821571704076
outer loop
vertex 41.2565236984083 91.5845238039265 6.35
vertex 29.8917205371522 87.0423179388022 0.0
vertex 39.0847950447066 82.5683374645509 6.35
endloop
endfacet
facet normal -0.0 -0.0 1.0
outer loop
vertex 46.404472406636 88.2872724888159 6.35
vertex 41.2565236984083 91.5845238039265 6.35
vertex 39.0847950447066 82.5683374645509 6.35
endloop
endfacet
facet normal 0.27236802367771 0.962193150920281 -2.41911400846915e-016
outer loop
vertex 24.2426806589944 88.6413917067029 0.0
vertex 29.8917205371522 87.0423179388022 -6.35
vertex 24.2426806589944 88.6413917067029 -6.35
endloop
endfacet
facet normal 0.27236802367771 0.962193150920281 -2.41911400846915e-016
outer loop
vertex 29.8917205371522 87.0423179388022 -6.35
vertex 24.2426806589944 88.6413917067029 0.0
vertex 29.8917205371522 87.0423179388022 0.0
endloop
endfacet
facet normal 0.449020739023954 -0.893521334902744 -3.04523477499792e-016
outer loop
vertex 39.0847950447066 82.5683374645509 -6.35
vertex 26.9556573984516 76.4730892181982 0.0
vertex 26.9556573984516 76.4730892181982 -6.35
endloop
endfacet
facet normal 0.449020739023954 -0.893521334902744 -3.04523477499792e-016
outer loop
vertex 26.9556573984516 76.4730892181982 0.0
vertex 39.0847950447066 82.5683374645509 -6.35
vertex 39.0847950447066 82.5683374645509 6.35
endloop
endfacet
facet normal -0.548750302869768 -0.835986306766048 4.87388176812836e-016
outer loop
vertex 26.9556573984516 76.4730892181982 0.0
vertex 16.8229963556427 83.1242756923256 -6.35
vertex 26.9556573984516 76.4730892181982 -6.35
endloop
endfacet
facet normal -0.548750302869768 -0.835986306766048 4.87388176812836e-016
outer loop
vertex 16.8229963556427 83.1242756923256 -6.35
vertex 26.9556573984516 76.4730892181982 0.0
vertex 16.8229963556427 83.1242756923256 0.0
endloop
endfacet
facet normal -0.596696837138501 0.802466749808931 -0.0
outer loop
vertex 16.8229963556427 83.1242756923256 0.0
vertex 24.2426806589944 88.6413917067029 -6.35
vertex 16.8229963556427 83.1242756923256 -6.35
endloop
endfacet
facet normal -0.596696837138501 0.802466749808931 -0.0
outer loop
vertex 24.2426806589944 88.6413917067029 -6.35
vertex 16.8229963556427 83.1242756923256 0.0
vertex 24.2426806589944 88.6413917067029 0.0
endloop
endfacet
facet normal -0.37112896050253 0.928581334443199 2.83228182774106e-016
outer loop
vertex 29.8917205371522 87.0423179388022 0.0
vertex 41.2565236984083 91.5845238039265 -6.35
vertex 29.8917205371522 87.0423179388022 -6.35
endloop
endfacet
facet normal -0.37112896050253 0.928581334443199 2.83228182774106e-016
outer loop
vertex 41.2565236984083 91.5845238039265 -6.35
vertex 29.8917205371522 87.0423179388022 0.0
vertex 41.2565236984083 91.5845238039265 6.35
endloop
endfacet
facet normal -0.0 -0.0 1.0
outer loop
vertex 24.9500671589734 42.7411970984197 6.35
vertex 28.1308802160574 51.7902779194776 6.35
vertex 22.5630525170332 44.1184615998695 6.35
endloop
endfacet
facet normal -0.0 -0.0 1.0
outer loop
vertex 28.1308802160574 51.7902779194776 6.35
vertex 24.9500671589734 42.7411970984197 6.35
vertex 28.506948526532 42.8128947687828 6.35
endloop
endfacet
facet normal -0.0 -0.0 1.0
outer loop
vertex 28.1308802160574 51.7902779194776 6.35
vertex 28.506948526532 42.8128947687828 6.35
vertex 34.2907600027367 54.9720573222177 6.35
endloop
endfacet
facet normal -0.0 -0.0 1.0
outer loop
vertex 34.2907600027367 54.9720573222177 6.35
vertex 28.506948526532 42.8128947687828 6.35
vertex 38.3304922337749 42.8128947687828 6.35
endloop
endfacet
facet normal -0.0 -0.0 1.0
outer loop
vertex 34.2907600027367 54.9720573222177 6.35
vertex 38.3304922337749 42.8128947687828 6.35
vertex 36.061608074689 67.2530015862934 6.35
endloop
endfacet
facet normal -0.0 -0.0 1.0
outer loop
vertex 36.061608074689 67.2530015862934 6.35
vertex 38.3304922337749 42.8128947687828 6.35
vertex 40.3835734839864 71.4493995117169 6.35
endloop
endfacet
facet normal -0.0 -0.0 1.0
outer loop
vertex 40.3835734839864 71.4493995117169 6.35
vertex 38.3304922337749 42.8128947687828 6.35
vertex 43.6615660806583 35.2519967407733 6.35
endloop
endfacet
facet normal -0.0 -0.0 1.0
outer loop
vertex 60.7832540983614 22.4672795514549 6.35
vertex 51.8555657212574 44.0669888864028 6.35
vertex 50.8116911824747 28.1081090008386 6.35
endloop
endfacet
facet normal -0.0 -0.0 1.0
outer loop
vertex 51.8555657212574 44.0669888864028 6.35
vertex 60.7832540983614 22.4672795514549 6.35
vertex 57.7511565176891 36.3066488155179 6.35
endloop
endfacet
facet normal -0.0 -0.0 1.0
outer loop
vertex 59.0682899432004 81.5342783630117 6.35
vertex 57.6533145391706 91.063623881501 6.35
vertex 57.6533145391706 88.108622540237 6.35
endloop
endfacet
facet normal -0.0 -0.0 1.0
outer loop
vertex 40.3835734839864 71.4493995117169 6.35
vertex 46.404472406636 88.2872724888159 6.35
vertex 39.0847950447066 82.5683374645509 6.35
endloop
endfacet
facet normal -0.0 -0.0 1.0
outer loop
vertex 46.404472406636 88.2872724888159 6.35
vertex 40.3835734839864 71.4493995117169 6.35
vertex 43.6615660806583 35.2519967407733 6.35
endloop
endfacet
facet normal -0.0 -0.0 1.0
outer loop
vertex 46.404472406636 88.2872724888159 6.35
vertex 43.6615660806583 35.2519967407733 6.35
vertex 48.2990239643974 62.2340081581719 6.35
endloop
endfacet
facet normal -0.0 -0.0 1.0
outer loop
vertex 48.2990239643974 62.2340081581719 6.35
vertex 43.6615660806583 35.2519967407733 6.35
vertex 50.8116911824747 28.1081090008386 6.35
endloop
endfacet
facet normal -0.0 -0.0 1.0
outer loop
vertex 48.2990239643974 62.2340081581719 6.35
vertex 50.8116911824747 28.1081090008386 6.35
vertex 51.8555657212574 44.0669888864028 6.35
endloop
endfacet
facet normal -0.0 -0.0 1.0
outer loop
vertex 48.2990239643974 62.2340081581719 6.35
vertex 51.8555657212574 44.0669888864028 6.35
vertex 59.2476636602724 77.7082550836314 6.35
endloop
endfacet
facet normal -0.0 -0.0 1.0
outer loop
vertex 59.2476636602724 77.7082550836314 6.35
vertex 51.8555657212574 44.0669888864028 6.35
vertex 65.2376485229897 47.6502049514841 6.35
endloop
endfacet
facet normal -0.0 -0.0 1.0
outer loop
vertex 59.2476636602724 77.7082550836314 6.35
vertex 65.2376485229897 47.6502049514841 6.35
vertex 65.1013346763156 92.0509403911987 6.35
endloop
endfacet
facet normal -0.0 -0.0 1.0
outer loop
vertex 65.1013346763156 92.0509403911987 6.35
vertex 65.2376485229897 47.6502049514841 6.35
vertex 67.0540638700316 76.6798849287371 6.35
endloop
endfacet
facet normal -0.0 -0.0 1.0
outer loop
vertex 67.0540638700316 76.6798849287371 6.35
vertex 65.2376485229897 47.6502049514841 6.35
vertex 73.9731705122452 52.4204666296177 6.35
endloop
endfacet
facet normal -0.0 -0.0 1.0
outer loop
vertex 67.0540638700316 76.6798849287371 6.35
vertex 73.9731705122452 52.4204666296177 6.35
vertex 68.9760074265224 75.5712467085994 6.35
endloop
endfacet
facet normal -0.0 -0.0 1.0
outer loop
vertex 68.9760074265224 75.5712467085994 6.35
vertex 73.9731705122452 52.4204666296177 6.35
vertex 71.7987402937114 73.3553687189343 6.35
endloop
endfacet
facet normal -0.0 -0.0 1.0
outer loop
vertex 71.7987402937114 73.3553687189343 6.35
vertex 73.9731705122452 52.4204666296177 6.35
vertex 74.9931396819503 55.3757739808184 6.35
endloop
endfacet
facet normal -0.0 -0.0 1.0
outer loop
vertex 71.7987402937114 73.3553687189343 6.35
vertex 74.9931396819503 55.3757739808184 6.35
vertex 75.9832985412522 57.2310217663043 6.35
endloop
endfacet
facet normal -0.0 -0.0 1.0
outer loop
vertex 71.7987402937114 73.3553687189343 6.35
vertex 75.9832985412522 57.2310217663043 6.35
vertex 90.3866280767325 78.3317949114927 6.35
endloop
endfacet
facet normal -0.0 -0.0 1.0
outer loop
vertex 90.3866280767325 78.3317949114927 6.35
vertex 75.9832985412522 57.2310217663043 6.35
vertex 91.6862464727045 51.4557809576459 6.35
endloop
endfacet
facet normal -0.0 -0.0 1.0
outer loop
vertex 90.3866280767325 78.3317949114927 6.35
vertex 91.6862464727045 51.4557809576459 6.35
vertex 103.633981650042 65.0954508345297 6.35
endloop
endfacet
facet normal -0.0 -0.0 1.0
outer loop
vertex 103.633981650042 65.0954508345297 6.35
vertex 91.6862464727045 51.4557809576459 6.35
vertex 103.187528779171 61.9751818266109 6.35
endloop
endfacet
facet normal -0.0 -0.0 1.0
outer loop
vertex 103.187528779171 61.9751818266109 6.35
vertex 91.6862464727045 51.4557809576459 6.35
vertex 103.187528779171 60.1895713472378 6.35
endloop
endfacet
facet normal -0.0 -0.0 1.0
outer loop
vertex 57.6533145391706 91.063623881501 6.35
vertex 71.4032060067048 97.2959605284335 6.35
vertex 55.8298984026869 93.8892482674712 6.35
endloop
endfacet
facet normal -0.0 -0.0 1.0
outer loop
vertex 71.4032060067048 97.2959605284335 6.35
vertex 57.6533145391706 91.063623881501 6.35
vertex 65.1013346763156 92.0509403911987 6.35
endloop
endfacet
facet normal -0.0 -0.0 1.0
outer loop
vertex 65.1013346763156 92.0509403911987 6.35
vertex 57.6533145391706 91.063623881501 6.35
vertex 59.0682899432004 81.5342783630117 6.35
endloop
endfacet
facet normal -0.0 -0.0 1.0
outer loop
vertex 65.1013346763156 92.0509403911987 6.35
vertex 59.0682899432004 81.5342783630117 6.35
vertex 59.2476636602724 77.7082550836314 6.35
endloop
endfacet
facet normal -0.0 -0.0 1.0
outer loop
vertex 51.3682139764617 77.5082509379951 6.35
vertex 46.404472406636 88.2872724888159 6.35
vertex 48.2990239643974 62.2340081581719 6.35
endloop
endfacet
facet normal 0.660386362263026 0.750925996711399 -2.4439204817762e-016
outer loop
vertex 7.33110816867556 60.2855241773509 6.35000000000001
vertex 15.6803597043476 52.9429473143733 -6.35
vertex 7.33110816867555 60.2855241773509 -6.35
endloop
endfacet
facet normal 0.660386362263026 0.750925996711399 -2.4439204817762e-016
outer loop
vertex 15.6803597043476 52.9429473143733 -6.35
vertex 7.33110816867556 60.2855241773509 6.35000000000001
vertex 15.6803597043476 52.9429473143733 6.35000000000001
endloop
endfacet
facet normal -0.908060475460759 -0.418839077577511 6.04889788565161e-016
outer loop
vertex 7.33110816867556 60.2855241773509 6.35000000000001
vertex 13.1141080146338 47.7477408833875 -6.35
vertex 13.1141080146338 47.7477408833875 6.35000000000001
endloop
endfacet
facet normal -0.908060475460759 -0.418839077577511 6.04889788565161e-016
outer loop
vertex 13.1141080146338 47.7477408833875 -6.35
vertex 7.33110816867556 60.2855241773509 6.35000000000001
vertex 7.33110816867555 60.2855241773509 -6.35
endloop
endfacet
facet normal 0.0 0.0 1.0
outer loop
vertex 15.6803597043476 52.9429473143733 6.35000000000001
vertex 7.33110816867556 60.2855241773509 6.35000000000001
vertex 13.1141080146338 47.7477408833875 6.35000000000001
endloop
endfacet
facet normal -0.358554736048263 -0.933508704435776 2.80713683908407e-016
outer loop
vertex 22.5630525170332 44.1184615998695 6.35
vertex 13.1141080146338 47.7477408833875 -6.35
vertex 22.5630525170332 44.1184615998695 -6.35
endloop
endfacet
facet normal -0.358554736048263 -0.933508704435776 2.80713683908407e-016
outer loop
vertex 13.1141080146338 47.7477408833875 -6.35
vertex 22.5630525170332 44.1184615998695 6.35
vertex 13.1141080146338 47.7477408833875 6.35000000000001
endloop
endfacet
facet normal 4.49190531441733e-016 -2.94260667775994e-016 1.0
outer loop
vertex 22.5630525170332 44.1184615998695 6.35
vertex 15.6803597043476 52.9429473143733 6.35000000000001
vertex 13.1141080146338 47.7477408833875 6.35000000000001
endloop
endfacet
facet normal 4.49190531441733e-016 -2.94260667775994e-016 1.0
outer loop
vertex 15.6803597043476 52.9429473143733 6.35000000000001
vertex 22.5630525170332 44.1184615998695 6.35
vertex 28.1308802160574 51.7902779194776 6.35
endloop
endfacet
facet normal 0.0921857944988842 0.995741823613234 -3.00667161238414e-017
outer loop
vertex 15.6803597043476 52.9429473143733 6.35000000000001
vertex 28.1308802160574 51.7902779194776 -6.35
vertex 15.6803597043476 52.9429473143733 -6.35
endloop
endfacet
facet normal 0.0921857944988842 0.995741823613234 -3.00667161238414e-017
outer loop
vertex 28.1308802160574 51.7902779194776 -6.35
vertex 15.6803597043476 52.9429473143733 6.35000000000001
vertex 28.1308802160574 51.7902779194776 6.35
endloop
endfacet
endsolid EscherLizard3D_FlatBottom_FlatTail
