solid ascii
  facet normal 0.000000e+000 0.000000e+000 -1.000000e+000
    outer loop
      vertex   4.341204e-001 2.462019e+000 -5.000000e+000
      vertex   1.250000e+000 2.165064e+000 -5.000000e+000
      vertex   1.606969e+000 1.915111e+000 -5.000000e+000
    endloop
  endfacet
  facet normal 0.000000e+000 0.000000e+000 -1.000000e+000
    outer loop
      vertex   4.341204e-001 2.462019e+000 -5.000000e+000
      vertex   8.550504e-001 2.349232e+000 -5.000000e+000
      vertex   1.250000e+000 2.165064e+000 -5.000000e+000
    endloop
  endfacet
  facet normal 0.000000e+000 0.000000e+000 -1.000000e+000
    outer loop
      vertex   -2.349232e+000 -8.550504e-001 -5.000000e+000
      vertex   -2.462019e+000 4.341204e-001 -5.000000e+000
      vertex   -2.349232e+000 8.550504e-001 -5.000000e+000
    endloop
  endfacet
  facet normal 0.000000e+000 0.000000e+000 -1.000000e+000
    outer loop
      vertex   -2.349232e+000 -8.550504e-001 -5.000000e+000
      vertex   -2.462019e+000 -4.341204e-001 -5.000000e+000
      vertex   -2.500000e+000 3.061516e-016 -5.000000e+000
    endloop
  endfacet
  facet normal 0.000000e+000 0.000000e+000 -1.000000e+000
    outer loop
      vertex   4.341204e-001 2.462019e+000 -5.000000e+000
      vertex   2.462019e+000 4.341204e-001 -5.000000e+000
      vertex   2.500000e+000 -6.123032e-016 -5.000000e+000
    endloop
  endfacet
  facet normal 0.000000e+000 0.000000e+000 -1.000000e+000
    outer loop
      vertex   4.341204e-001 2.462019e+000 -5.000000e+000
      vertex   2.165064e+000 1.250000e+000 -5.000000e+000
      vertex   2.349232e+000 8.550504e-001 -5.000000e+000
    endloop
  endfacet
  facet normal -0.000000e+000 -0.000000e+000 -1.000000e+000
    outer loop
      vertex   1.606969e+000 1.915111e+000 -5.000000e+000
      vertex   1.915111e+000 1.606969e+000 -5.000000e+000
      vertex   4.341204e-001 2.462019e+000 -5.000000e+000
    endloop
  endfacet
  facet normal 0.000000e+000 0.000000e+000 -1.000000e+000
    outer loop
      vertex   -2.500000e+000 3.061516e-016 -5.000000e+000
      vertex   -2.462019e+000 4.341204e-001 -5.000000e+000
      vertex   -2.349232e+000 -8.550504e-001 -5.000000e+000
    endloop
  endfacet
  facet normal 0.000000e+000 -0.000000e+000 -1.000000e+000
    outer loop
      vertex   -1.915111e+000 1.606969e+000 -5.000000e+000
      vertex   -1.606969e+000 -1.915111e+000 -5.000000e+000
      vertex   -1.915111e+000 -1.606969e+000 -5.000000e+000
    endloop
  endfacet
  facet normal -0.000000e+000 0.000000e+000 -1.000000e+000
    outer loop
      vertex   2.500000e+000 -6.123032e-016 -5.000000e+000
      vertex   2.462019e+000 -4.341204e-001 -5.000000e+000
      vertex   4.341204e-001 2.462019e+000 -5.000000e+000
    endloop
  endfacet
  facet normal -0.000000e+000 -0.000000e+000 -1.000000e+000
    outer loop
      vertex   1.915111e+000 1.606969e+000 -5.000000e+000
      vertex   2.165064e+000 1.250000e+000 -5.000000e+000
      vertex   4.341204e-001 2.462019e+000 -5.000000e+000
    endloop
  endfacet
  facet normal 0.000000e+000 -0.000000e+000 -1.000000e+000
    outer loop
      vertex   -2.349232e+000 8.550504e-001 -5.000000e+000
      vertex   -2.165064e+000 1.250000e+000 -5.000000e+000
      vertex   -2.349232e+000 -8.550504e-001 -5.000000e+000
    endloop
  endfacet
  facet normal 0.000000e+000 0.000000e+000 -1.000000e+000
    outer loop
      vertex   -1.915111e+000 -1.606969e+000 -5.000000e+000
      vertex   -2.165064e+000 -1.250000e+000 -5.000000e+000
      vertex   -1.915111e+000 1.606969e+000 -5.000000e+000
    endloop
  endfacet
  facet normal 0.000000e+000 0.000000e+000 -1.000000e+000
    outer loop
      vertex   -1.915111e+000 1.606969e+000 -5.000000e+000
      vertex   -4.341204e-001 -2.462019e+000 -5.000000e+000
      vertex   -8.550504e-001 -2.349232e+000 -5.000000e+000
    endloop
  endfacet
  facet normal 0.000000e+000 0.000000e+000 -1.000000e+000
    outer loop
      vertex   -1.915111e+000 1.606969e+000 -5.000000e+000
      vertex   8.550504e-001 -2.349232e+000 -5.000000e+000
      vertex   4.341204e-001 -2.462019e+000 -5.000000e+000
    endloop
  endfacet
  facet normal 0.000000e+000 0.000000e+000 -1.000000e+000
    outer loop
      vertex   -1.915111e+000 1.606969e+000 -5.000000e+000
      vertex   1.915111e+000 -1.606969e+000 -5.000000e+000
      vertex   1.606969e+000 -1.915111e+000 -5.000000e+000
    endloop
  endfacet
  facet normal 0.000000e+000 0.000000e+000 -1.000000e+000
    outer loop
      vertex   4.341204e-001 2.462019e+000 -5.000000e+000
      vertex   2.349232e+000 -8.550504e-001 -5.000000e+000
      vertex   2.165064e+000 -1.250000e+000 -5.000000e+000
    endloop
  endfacet
  facet normal -0.000000e+000 -0.000000e+000 -1.000000e+000
    outer loop
      vertex   2.349232e+000 8.550504e-001 -5.000000e+000
      vertex   2.462019e+000 4.341204e-001 -5.000000e+000
      vertex   4.341204e-001 2.462019e+000 -5.000000e+000
    endloop
  endfacet
  facet normal 0.000000e+000 0.000000e+000 -1.000000e+000
    outer loop
      vertex   1.915111e+000 -1.606969e+000 -5.000000e+000
      vertex   -4.341204e-001 2.462019e+000 -5.000000e+000
      vertex   4.072196e-015 2.500000e+000 -5.000000e+000
    endloop
  endfacet
  facet normal 0.000000e+000 0.000000e+000 -1.000000e+000
    outer loop
      vertex   1.915111e+000 -1.606969e+000 -5.000000e+000
      vertex   -1.250000e+000 2.165064e+000 -5.000000e+000
      vertex   -8.550504e-001 2.349232e+000 -5.000000e+000
    endloop
  endfacet
  facet normal 0.000000e+000 0.000000e+000 -1.000000e+000
    outer loop
      vertex   -2.165064e+000 -1.250000e+000 -5.000000e+000
      vertex   -2.349232e+000 -8.550504e-001 -5.000000e+000
      vertex   -1.915111e+000 1.606969e+000 -5.000000e+000
    endloop
  endfacet
  facet normal 0.000000e+000 0.000000e+000 -1.000000e+000
    outer loop
      vertex   -8.550504e-001 -2.349232e+000 -5.000000e+000
      vertex   -1.250000e+000 -2.165064e+000 -5.000000e+000
      vertex   -1.915111e+000 1.606969e+000 -5.000000e+000
    endloop
  endfacet
  facet normal -0.000000e+000 0.000000e+000 -1.000000e+000
    outer loop
      vertex   4.341204e-001 -2.462019e+000 -5.000000e+000
      vertex   2.847589e-015 -2.500000e+000 -5.000000e+000
      vertex   -1.915111e+000 1.606969e+000 -5.000000e+000
    endloop
  endfacet
  facet normal -0.000000e+000 0.000000e+000 -1.000000e+000
    outer loop
      vertex   1.606969e+000 -1.915111e+000 -5.000000e+000
      vertex   1.250000e+000 -2.165064e+000 -5.000000e+000
      vertex   -1.915111e+000 1.606969e+000 -5.000000e+000
    endloop
  endfacet
  facet normal -0.000000e+000 0.000000e+000 -1.000000e+000
    outer loop
      vertex   2.462019e+000 -4.341204e-001 -5.000000e+000
      vertex   2.349232e+000 -8.550504e-001 -5.000000e+000
      vertex   4.341204e-001 2.462019e+000 -5.000000e+000
    endloop
  endfacet
  facet normal 0.000000e+000 0.000000e+000 -1.000000e+000
    outer loop
      vertex   -8.550504e-001 2.349232e+000 -5.000000e+000
      vertex   -4.341204e-001 2.462019e+000 -5.000000e+000
      vertex   1.915111e+000 -1.606969e+000 -5.000000e+000
    endloop
  endfacet
  facet normal 0.000000e+000 0.000000e+000 -1.000000e+000
    outer loop
      vertex   -1.250000e+000 -2.165064e+000 -5.000000e+000
      vertex   -1.606969e+000 -1.915111e+000 -5.000000e+000
      vertex   -1.915111e+000 1.606969e+000 -5.000000e+000
    endloop
  endfacet
  facet normal -0.000000e+000 0.000000e+000 -1.000000e+000
    outer loop
      vertex   1.250000e+000 -2.165064e+000 -5.000000e+000
      vertex   8.550504e-001 -2.349232e+000 -5.000000e+000
      vertex   -1.915111e+000 1.606969e+000 -5.000000e+000
    endloop
  endfacet
  facet normal 0.000000e+000 0.000000e+000 -1.000000e+000
    outer loop
      vertex   4.072196e-015 2.500000e+000 -5.000000e+000
      vertex   4.341204e-001 2.462019e+000 -5.000000e+000
      vertex   1.915111e+000 -1.606969e+000 -5.000000e+000
    endloop
  endfacet
  facet normal 0.000000e+000 0.000000e+000 -1.000000e+000
    outer loop
      vertex   1.915111e+000 -1.606969e+000 -5.000000e+000
      vertex   -1.915111e+000 1.606969e+000 -5.000000e+000
      vertex   -1.606969e+000 1.915111e+000 -5.000000e+000
    endloop
  endfacet
  facet normal 0.000000e+000 0.000000e+000 -1.000000e+000
    outer loop
      vertex   2.847589e-015 -2.500000e+000 -5.000000e+000
      vertex   -4.341204e-001 -2.462019e+000 -5.000000e+000
      vertex   -1.915111e+000 1.606969e+000 -5.000000e+000
    endloop
  endfacet
  facet normal 0.000000e+000 0.000000e+000 -1.000000e+000
    outer loop
      vertex   -1.606969e+000 1.915111e+000 -5.000000e+000
      vertex   -1.250000e+000 2.165064e+000 -5.000000e+000
      vertex   1.915111e+000 -1.606969e+000 -5.000000e+000
    endloop
  endfacet
  facet normal -0.000000e+000 0.000000e+000 -1.000000e+000
    outer loop
      vertex   2.165064e+000 -1.250000e+000 -5.000000e+000
      vertex   1.915111e+000 -1.606969e+000 -5.000000e+000
      vertex   4.341204e-001 2.462019e+000 -5.000000e+000
    endloop
  endfacet
  facet normal 0.000000e+000 -0.000000e+000 -1.000000e+000
    outer loop
      vertex   -2.165064e+000 1.250000e+000 -5.000000e+000
      vertex   -1.915111e+000 1.606969e+000 -5.000000e+000
      vertex   -2.349232e+000 -8.550504e-001 -5.000000e+000
    endloop
  endfacet
  facet normal 9.961947e-001 8.715574e-002 0.000000e+000
    outer loop
      vertex   2.500000e+000 -6.123032e-016 -5.000000e+000
      vertex   2.462019e+000 4.341204e-001 -5.000000e+000
      vertex   2.462019e+000 4.341204e-001 0.000000e+000
    endloop
  endfacet
  facet normal 9.659258e-001 2.588190e-001 0.000000e+000
    outer loop
      vertex   2.462019e+000 4.341204e-001 -5.000000e+000
      vertex   2.349232e+000 8.550504e-001 -5.000000e+000
      vertex   2.349232e+000 8.550504e-001 0.000000e+000
    endloop
  endfacet
  facet normal 9.063078e-001 4.226183e-001 0.000000e+000
    outer loop
      vertex   2.349232e+000 8.550504e-001 -5.000000e+000
      vertex   2.165064e+000 1.250000e+000 -5.000000e+000
      vertex   2.165064e+000 1.250000e+000 0.000000e+000
    endloop
  endfacet
  facet normal 8.191520e-001 5.735764e-001 0.000000e+000
    outer loop
      vertex   2.165064e+000 1.250000e+000 -5.000000e+000
      vertex   1.915111e+000 1.606969e+000 -5.000000e+000
      vertex   1.915111e+000 1.606969e+000 0.000000e+000
    endloop
  endfacet
  facet normal 7.071068e-001 7.071068e-001 0.000000e+000
    outer loop
      vertex   1.915111e+000 1.606969e+000 -5.000000e+000
      vertex   1.606969e+000 1.915111e+000 -5.000000e+000
      vertex   1.606969e+000 1.915111e+000 0.000000e+000
    endloop
  endfacet
  facet normal 5.735764e-001 8.191520e-001 0.000000e+000
    outer loop
      vertex   1.606969e+000 1.915111e+000 -5.000000e+000
      vertex   1.250000e+000 2.165064e+000 -5.000000e+000
      vertex   1.250000e+000 2.165064e+000 0.000000e+000
    endloop
  endfacet
  facet normal 4.226183e-001 9.063078e-001 0.000000e+000
    outer loop
      vertex   1.250000e+000 2.165064e+000 -5.000000e+000
      vertex   8.550504e-001 2.349232e+000 -5.000000e+000
      vertex   8.550504e-001 2.349232e+000 0.000000e+000
    endloop
  endfacet
  facet normal 2.588190e-001 9.659258e-001 0.000000e+000
    outer loop
      vertex   8.550504e-001 2.349232e+000 -5.000000e+000
      vertex   4.341204e-001 2.462019e+000 -5.000000e+000
      vertex   4.341204e-001 2.462019e+000 0.000000e+000
    endloop
  endfacet
  facet normal 8.715574e-002 9.961947e-001 1.062973e-017
    outer loop
      vertex   4.341204e-001 2.462019e+000 -5.000000e+000
      vertex   4.072196e-015 2.500000e+000 -5.000000e+000
      vertex   3.459892e-015 2.500000e+000 0.000000e+000
    endloop
  endfacet
  facet normal -8.715574e-002 9.961947e-001 0.000000e+000
    outer loop
      vertex   4.072196e-015 2.500000e+000 -5.000000e+000
      vertex   -4.341204e-001 2.462019e+000 -5.000000e+000
      vertex   -4.341204e-001 2.462019e+000 0.000000e+000
    endloop
  endfacet
  facet normal -2.588190e-001 9.659258e-001 0.000000e+000
    outer loop
      vertex   -4.341204e-001 2.462019e+000 -5.000000e+000
      vertex   -8.550504e-001 2.349232e+000 -5.000000e+000
      vertex   -8.550504e-001 2.349232e+000 0.000000e+000
    endloop
  endfacet
  facet normal -4.226183e-001 9.063078e-001 0.000000e+000
    outer loop
      vertex   -8.550504e-001 2.349232e+000 -5.000000e+000
      vertex   -1.250000e+000 2.165064e+000 -5.000000e+000
      vertex   -1.250000e+000 2.165064e+000 0.000000e+000
    endloop
  endfacet
  facet normal -5.735764e-001 8.191520e-001 0.000000e+000
    outer loop
      vertex   -1.250000e+000 2.165064e+000 -5.000000e+000
      vertex   -1.606969e+000 1.915111e+000 -5.000000e+000
      vertex   -1.606969e+000 1.915111e+000 0.000000e+000
    endloop
  endfacet
  facet normal -7.071068e-001 7.071068e-001 0.000000e+000
    outer loop
      vertex   -1.606969e+000 1.915111e+000 -5.000000e+000
      vertex   -1.915111e+000 1.606969e+000 -5.000000e+000
      vertex   -1.915111e+000 1.606969e+000 0.000000e+000
    endloop
  endfacet
  facet normal -8.191520e-001 5.735764e-001 0.000000e+000
    outer loop
      vertex   -1.915111e+000 1.606969e+000 -5.000000e+000
      vertex   -2.165064e+000 1.250000e+000 -5.000000e+000
      vertex   -2.165064e+000 1.250000e+000 0.000000e+000
    endloop
  endfacet
  facet normal -9.063078e-001 4.226183e-001 0.000000e+000
    outer loop
      vertex   -2.165064e+000 1.250000e+000 -5.000000e+000
      vertex   -2.349232e+000 8.550504e-001 -5.000000e+000
      vertex   -2.349232e+000 8.550504e-001 0.000000e+000
    endloop
  endfacet
  facet normal -9.659258e-001 2.588190e-001 0.000000e+000
    outer loop
      vertex   -2.349232e+000 8.550504e-001 -5.000000e+000
      vertex   -2.462019e+000 4.341204e-001 -5.000000e+000
      vertex   -2.462019e+000 4.341204e-001 0.000000e+000
    endloop
  endfacet
  facet normal -9.961947e-001 8.715574e-002 0.000000e+000
    outer loop
      vertex   -2.462019e+000 4.341204e-001 -5.000000e+000
      vertex   -2.500000e+000 3.061516e-016 -5.000000e+000
      vertex   -2.500000e+000 3.061516e-016 0.000000e+000
    endloop
  endfacet
  facet normal -9.961947e-001 -8.715574e-002 0.000000e+000
    outer loop
      vertex   -2.500000e+000 3.061516e-016 -5.000000e+000
      vertex   -2.462019e+000 -4.341204e-001 -5.000000e+000
      vertex   -2.462019e+000 -4.341204e-001 0.000000e+000
    endloop
  endfacet
  facet normal -9.659258e-001 -2.588190e-001 0.000000e+000
    outer loop
      vertex   -2.462019e+000 -4.341204e-001 -5.000000e+000
      vertex   -2.349232e+000 -8.550504e-001 -5.000000e+000
      vertex   -2.349232e+000 -8.550504e-001 0.000000e+000
    endloop
  endfacet
  facet normal -9.063078e-001 -4.226183e-001 0.000000e+000
    outer loop
      vertex   -2.349232e+000 -8.550504e-001 -5.000000e+000
      vertex   -2.165064e+000 -1.250000e+000 -5.000000e+000
      vertex   -2.165064e+000 -1.250000e+000 0.000000e+000
    endloop
  endfacet
  facet normal -8.191520e-001 -5.735764e-001 0.000000e+000
    outer loop
      vertex   -2.165064e+000 -1.250000e+000 -5.000000e+000
      vertex   -1.915111e+000 -1.606969e+000 -5.000000e+000
      vertex   -1.915111e+000 -1.606969e+000 0.000000e+000
    endloop
  endfacet
  facet normal -7.071068e-001 -7.071068e-001 0.000000e+000
    outer loop
      vertex   -1.915111e+000 -1.606969e+000 -5.000000e+000
      vertex   -1.606969e+000 -1.915111e+000 -5.000000e+000
      vertex   -1.606969e+000 -1.915111e+000 0.000000e+000
    endloop
  endfacet
  facet normal -5.735764e-001 -8.191520e-001 0.000000e+000
    outer loop
      vertex   -1.606969e+000 -1.915111e+000 -5.000000e+000
      vertex   -1.250000e+000 -2.165064e+000 -5.000000e+000
      vertex   -1.250000e+000 -2.165064e+000 0.000000e+000
    endloop
  endfacet
  facet normal -4.226183e-001 -9.063078e-001 0.000000e+000
    outer loop
      vertex   -1.250000e+000 -2.165064e+000 -5.000000e+000
      vertex   -8.550504e-001 -2.349232e+000 -5.000000e+000
      vertex   -8.550504e-001 -2.349232e+000 0.000000e+000
    endloop
  endfacet
  facet normal -2.588190e-001 -9.659258e-001 0.000000e+000
    outer loop
      vertex   -8.550504e-001 -2.349232e+000 -5.000000e+000
      vertex   -4.341204e-001 -2.462019e+000 -5.000000e+000
      vertex   -4.341204e-001 -2.462019e+000 0.000000e+000
    endloop
  endfacet
  facet normal -8.715574e-002 -9.961947e-001 0.000000e+000
    outer loop
      vertex   -4.341204e-001 -2.462019e+000 -5.000000e+000
      vertex   2.847589e-015 -2.500000e+000 -5.000000e+000
      vertex   2.847589e-015 -2.500000e+000 0.000000e+000
    endloop
  endfacet
  facet normal 8.715574e-002 -9.961947e-001 0.000000e+000
    outer loop
      vertex   2.847589e-015 -2.500000e+000 -5.000000e+000
      vertex   4.341204e-001 -2.462019e+000 -5.000000e+000
      vertex   4.341204e-001 -2.462019e+000 0.000000e+000
    endloop
  endfacet
  facet normal 2.588190e-001 -9.659258e-001 0.000000e+000
    outer loop
      vertex   4.341204e-001 -2.462019e+000 -5.000000e+000
      vertex   8.550504e-001 -2.349232e+000 -5.000000e+000
      vertex   8.550504e-001 -2.349232e+000 0.000000e+000
    endloop
  endfacet
  facet normal 4.226183e-001 -9.063078e-001 0.000000e+000
    outer loop
      vertex   8.550504e-001 -2.349232e+000 -5.000000e+000
      vertex   1.250000e+000 -2.165064e+000 -5.000000e+000
      vertex   1.250000e+000 -2.165064e+000 0.000000e+000
    endloop
  endfacet
  facet normal 5.735764e-001 -8.191520e-001 0.000000e+000
    outer loop
      vertex   1.250000e+000 -2.165064e+000 -5.000000e+000
      vertex   1.606969e+000 -1.915111e+000 -5.000000e+000
      vertex   1.606969e+000 -1.915111e+000 0.000000e+000
    endloop
  endfacet
  facet normal 7.071068e-001 -7.071068e-001 0.000000e+000
    outer loop
      vertex   1.606969e+000 -1.915111e+000 -5.000000e+000
      vertex   1.915111e+000 -1.606969e+000 -5.000000e+000
      vertex   1.915111e+000 -1.606969e+000 0.000000e+000
    endloop
  endfacet
  facet normal 8.191520e-001 -5.735764e-001 0.000000e+000
    outer loop
      vertex   1.915111e+000 -1.606969e+000 -5.000000e+000
      vertex   2.165064e+000 -1.250000e+000 -5.000000e+000
      vertex   2.165064e+000 -1.250000e+000 0.000000e+000
    endloop
  endfacet
  facet normal 9.063078e-001 -4.226183e-001 0.000000e+000
    outer loop
      vertex   2.165064e+000 -1.250000e+000 -5.000000e+000
      vertex   2.349232e+000 -8.550504e-001 -5.000000e+000
      vertex   2.349232e+000 -8.550504e-001 0.000000e+000
    endloop
  endfacet
  facet normal 9.659258e-001 -2.588190e-001 0.000000e+000
    outer loop
      vertex   2.349232e+000 -8.550504e-001 -5.000000e+000
      vertex   2.462019e+000 -4.341204e-001 -5.000000e+000
      vertex   2.462019e+000 -4.341204e-001 0.000000e+000
    endloop
  endfacet
  facet normal 9.961947e-001 -8.715574e-002 0.000000e+000
    outer loop
      vertex   2.462019e+000 -4.341204e-001 -5.000000e+000
      vertex   2.500000e+000 -6.123032e-016 -5.000000e+000
      vertex   2.500000e+000 -6.123032e-016 0.000000e+000
    endloop
  endfacet
  facet normal 9.961947e-001 -8.715574e-002 0.000000e+000
    outer loop
      vertex   2.500000e+000 -6.123032e-016 0.000000e+000
      vertex   2.462019e+000 -4.341204e-001 0.000000e+000
      vertex   2.462019e+000 -4.341204e-001 -5.000000e+000
    endloop
  endfacet
  facet normal 9.659258e-001 -2.588190e-001 0.000000e+000
    outer loop
      vertex   2.462019e+000 -4.341204e-001 0.000000e+000
      vertex   2.349232e+000 -8.550504e-001 0.000000e+000
      vertex   2.349232e+000 -8.550504e-001 -5.000000e+000
    endloop
  endfacet
  facet normal 9.063078e-001 -4.226183e-001 0.000000e+000
    outer loop
      vertex   2.349232e+000 -8.550504e-001 0.000000e+000
      vertex   2.165064e+000 -1.250000e+000 0.000000e+000
      vertex   2.165064e+000 -1.250000e+000 -5.000000e+000
    endloop
  endfacet
  facet normal 8.191520e-001 -5.735764e-001 0.000000e+000
    outer loop
      vertex   2.165064e+000 -1.250000e+000 0.000000e+000
      vertex   1.915111e+000 -1.606969e+000 0.000000e+000
      vertex   1.915111e+000 -1.606969e+000 -5.000000e+000
    endloop
  endfacet
  facet normal 7.071068e-001 -7.071068e-001 0.000000e+000
    outer loop
      vertex   1.915111e+000 -1.606969e+000 0.000000e+000
      vertex   1.606969e+000 -1.915111e+000 0.000000e+000
      vertex   1.606969e+000 -1.915111e+000 -5.000000e+000
    endloop
  endfacet
  facet normal 5.735764e-001 -8.191520e-001 0.000000e+000
    outer loop
      vertex   1.606969e+000 -1.915111e+000 0.000000e+000
      vertex   1.250000e+000 -2.165064e+000 0.000000e+000
      vertex   1.250000e+000 -2.165064e+000 -5.000000e+000
    endloop
  endfacet
  facet normal 4.226183e-001 -9.063078e-001 0.000000e+000
    outer loop
      vertex   1.250000e+000 -2.165064e+000 0.000000e+000
      vertex   8.550504e-001 -2.349232e+000 0.000000e+000
      vertex   8.550504e-001 -2.349232e+000 -5.000000e+000
    endloop
  endfacet
  facet normal 2.588190e-001 -9.659258e-001 0.000000e+000
    outer loop
      vertex   8.550504e-001 -2.349232e+000 0.000000e+000
      vertex   4.341204e-001 -2.462019e+000 0.000000e+000
      vertex   4.341204e-001 -2.462019e+000 -5.000000e+000
    endloop
  endfacet
  facet normal 8.715574e-002 -9.961947e-001 0.000000e+000
    outer loop
      vertex   4.341204e-001 -2.462019e+000 0.000000e+000
      vertex   2.847589e-015 -2.500000e+000 0.000000e+000
      vertex   2.847589e-015 -2.500000e+000 -5.000000e+000
    endloop
  endfacet
  facet normal -8.715574e-002 -9.961947e-001 0.000000e+000
    outer loop
      vertex   2.847589e-015 -2.500000e+000 0.000000e+000
      vertex   -4.341204e-001 -2.462019e+000 0.000000e+000
      vertex   -4.341204e-001 -2.462019e+000 -5.000000e+000
    endloop
  endfacet
  facet normal -2.588190e-001 -9.659258e-001 0.000000e+000
    outer loop
      vertex   -4.341204e-001 -2.462019e+000 0.000000e+000
      vertex   -8.550504e-001 -2.349232e+000 0.000000e+000
      vertex   -8.550504e-001 -2.349232e+000 -5.000000e+000
    endloop
  endfacet
  facet normal -4.226183e-001 -9.063078e-001 0.000000e+000
    outer loop
      vertex   -8.550504e-001 -2.349232e+000 0.000000e+000
      vertex   -1.250000e+000 -2.165064e+000 0.000000e+000
      vertex   -1.250000e+000 -2.165064e+000 -5.000000e+000
    endloop
  endfacet
  facet normal -5.735764e-001 -8.191520e-001 0.000000e+000
    outer loop
      vertex   -1.250000e+000 -2.165064e+000 0.000000e+000
      vertex   -1.606969e+000 -1.915111e+000 0.000000e+000
      vertex   -1.606969e+000 -1.915111e+000 -5.000000e+000
    endloop
  endfacet
  facet normal -7.071068e-001 -7.071068e-001 0.000000e+000
    outer loop
      vertex   -1.606969e+000 -1.915111e+000 0.000000e+000
      vertex   -1.915111e+000 -1.606969e+000 0.000000e+000
      vertex   -1.915111e+000 -1.606969e+000 -5.000000e+000
    endloop
  endfacet
  facet normal -8.191520e-001 -5.735764e-001 0.000000e+000
    outer loop
      vertex   -1.915111e+000 -1.606969e+000 0.000000e+000
      vertex   -2.165064e+000 -1.250000e+000 0.000000e+000
      vertex   -2.165064e+000 -1.250000e+000 -5.000000e+000
    endloop
  endfacet
  facet normal -9.063078e-001 -4.226183e-001 0.000000e+000
    outer loop
      vertex   -2.165064e+000 -1.250000e+000 0.000000e+000
      vertex   -2.349232e+000 -8.550504e-001 0.000000e+000
      vertex   -2.349232e+000 -8.550504e-001 -5.000000e+000
    endloop
  endfacet
  facet normal -9.659258e-001 -2.588190e-001 0.000000e+000
    outer loop
      vertex   -2.349232e+000 -8.550504e-001 0.000000e+000
      vertex   -2.462019e+000 -4.341204e-001 0.000000e+000
      vertex   -2.462019e+000 -4.341204e-001 -5.000000e+000
    endloop
  endfacet
  facet normal -9.961947e-001 -8.715574e-002 0.000000e+000
    outer loop
      vertex   -2.462019e+000 -4.341204e-001 0.000000e+000
      vertex   -2.500000e+000 3.061516e-016 0.000000e+000
      vertex   -2.500000e+000 3.061516e-016 -5.000000e+000
    endloop
  endfacet
  facet normal -9.961947e-001 8.715574e-002 0.000000e+000
    outer loop
      vertex   -2.500000e+000 3.061516e-016 0.000000e+000
      vertex   -2.462019e+000 4.341204e-001 0.000000e+000
      vertex   -2.462019e+000 4.341204e-001 -5.000000e+000
    endloop
  endfacet
  facet normal -9.659258e-001 2.588190e-001 0.000000e+000
    outer loop
      vertex   -2.462019e+000 4.341204e-001 0.000000e+000
      vertex   -2.349232e+000 8.550504e-001 0.000000e+000
      vertex   -2.349232e+000 8.550504e-001 -5.000000e+000
    endloop
  endfacet
  facet normal -9.063078e-001 4.226183e-001 0.000000e+000
    outer loop
      vertex   -2.349232e+000 8.550504e-001 0.000000e+000
      vertex   -2.165064e+000 1.250000e+000 0.000000e+000
      vertex   -2.165064e+000 1.250000e+000 -5.000000e+000
    endloop
  endfacet
  facet normal -8.191520e-001 5.735764e-001 0.000000e+000
    outer loop
      vertex   -2.165064e+000 1.250000e+000 0.000000e+000
      vertex   -1.915111e+000 1.606969e+000 0.000000e+000
      vertex   -1.915111e+000 1.606969e+000 -5.000000e+000
    endloop
  endfacet
  facet normal -7.071068e-001 7.071068e-001 0.000000e+000
    outer loop
      vertex   -1.915111e+000 1.606969e+000 0.000000e+000
      vertex   -1.606969e+000 1.915111e+000 0.000000e+000
      vertex   -1.606969e+000 1.915111e+000 -5.000000e+000
    endloop
  endfacet
  facet normal -5.735764e-001 8.191520e-001 0.000000e+000
    outer loop
      vertex   -1.606969e+000 1.915111e+000 0.000000e+000
      vertex   -1.250000e+000 2.165064e+000 0.000000e+000
      vertex   -1.250000e+000 2.165064e+000 -5.000000e+000
    endloop
  endfacet
  facet normal -4.226183e-001 9.063078e-001 0.000000e+000
    outer loop
      vertex   -1.250000e+000 2.165064e+000 0.000000e+000
      vertex   -8.550504e-001 2.349232e+000 0.000000e+000
      vertex   -8.550504e-001 2.349232e+000 -5.000000e+000
    endloop
  endfacet
  facet normal -2.588190e-001 9.659258e-001 0.000000e+000
    outer loop
      vertex   -8.550504e-001 2.349232e+000 0.000000e+000
      vertex   -4.341204e-001 2.462019e+000 0.000000e+000
      vertex   -4.341204e-001 2.462019e+000 -5.000000e+000
    endloop
  endfacet
  facet normal -8.715574e-002 9.961947e-001 -1.062973e-017
    outer loop
      vertex   -4.341204e-001 2.462019e+000 0.000000e+000
      vertex   3.459892e-015 2.500000e+000 0.000000e+000
      vertex   4.072196e-015 2.500000e+000 -5.000000e+000
    endloop
  endfacet
  facet normal 8.715574e-002 9.961947e-001 0.000000e+000
    outer loop
      vertex   3.459892e-015 2.500000e+000 0.000000e+000
      vertex   4.341204e-001 2.462019e+000 0.000000e+000
      vertex   4.341204e-001 2.462019e+000 -5.000000e+000
    endloop
  endfacet
  facet normal 2.588190e-001 9.659258e-001 0.000000e+000
    outer loop
      vertex   4.341204e-001 2.462019e+000 0.000000e+000
      vertex   8.550504e-001 2.349232e+000 0.000000e+000
      vertex   8.550504e-001 2.349232e+000 -5.000000e+000
    endloop
  endfacet
  facet normal 4.226183e-001 9.063078e-001 0.000000e+000
    outer loop
      vertex   8.550504e-001 2.349232e+000 0.000000e+000
      vertex   1.250000e+000 2.165064e+000 0.000000e+000
      vertex   1.250000e+000 2.165064e+000 -5.000000e+000
    endloop
  endfacet
  facet normal 5.735764e-001 8.191520e-001 0.000000e+000
    outer loop
      vertex   1.250000e+000 2.165064e+000 0.000000e+000
      vertex   1.606969e+000 1.915111e+000 0.000000e+000
      vertex   1.606969e+000 1.915111e+000 -5.000000e+000
    endloop
  endfacet
  facet normal 7.071068e-001 7.071068e-001 0.000000e+000
    outer loop
      vertex   1.606969e+000 1.915111e+000 0.000000e+000
      vertex   1.915111e+000 1.606969e+000 0.000000e+000
      vertex   1.915111e+000 1.606969e+000 -5.000000e+000
    endloop
  endfacet
  facet normal 8.191520e-001 5.735764e-001 0.000000e+000
    outer loop
      vertex   1.915111e+000 1.606969e+000 0.000000e+000
      vertex   2.165064e+000 1.250000e+000 0.000000e+000
      vertex   2.165064e+000 1.250000e+000 -5.000000e+000
    endloop
  endfacet
  facet normal 9.063078e-001 4.226183e-001 0.000000e+000
    outer loop
      vertex   2.165064e+000 1.250000e+000 0.000000e+000
      vertex   2.349232e+000 8.550504e-001 0.000000e+000
      vertex   2.349232e+000 8.550504e-001 -5.000000e+000
    endloop
  endfacet
  facet normal 9.659258e-001 2.588190e-001 0.000000e+000
    outer loop
      vertex   2.349232e+000 8.550504e-001 0.000000e+000
      vertex   2.462019e+000 4.341204e-001 0.000000e+000
      vertex   2.462019e+000 4.341204e-001 -5.000000e+000
    endloop
  endfacet
  facet normal 9.961947e-001 8.715574e-002 0.000000e+000
    outer loop
      vertex   2.462019e+000 4.341204e-001 0.000000e+000
      vertex   2.500000e+000 -6.123032e-016 0.000000e+000
      vertex   2.500000e+000 -6.123032e-016 -5.000000e+000
    endloop
  endfacet
  facet normal 0.000000e+000 0.000000e+000 -1.000000e+000
    outer loop
      vertex   7.500000e+000 7.500000e+000 0.000000e+000
      vertex   1.250000e+000 2.165064e+000 0.000000e+000
      vertex   8.550504e-001 2.349232e+000 0.000000e+000
    endloop
  endfacet
  facet normal 0.000000e+000 0.000000e+000 -1.000000e+000
    outer loop
      vertex   -7.500000e+000 7.500000e+000 0.000000e+000
      vertex   -8.550504e-001 2.349232e+000 0.000000e+000
      vertex   -1.250000e+000 2.165064e+000 0.000000e+000
    endloop
  endfacet
  facet normal 0.000000e+000 0.000000e+000 -1.000000e+000
    outer loop
      vertex   7.500000e+000 7.500000e+000 0.000000e+000
      vertex   1.606969e+000 1.915111e+000 0.000000e+000
      vertex   1.250000e+000 2.165064e+000 0.000000e+000
    endloop
  endfacet
  facet normal -0.000000e+000 0.000000e+000 -1.000000e+000
    outer loop
      vertex   -1.250000e+000 2.165064e+000 0.000000e+000
      vertex   -1.606969e+000 1.915111e+000 0.000000e+000
      vertex   -7.500000e+000 7.500000e+000 0.000000e+000
    endloop
  endfacet
  facet normal 0.000000e+000 0.000000e+000 -1.000000e+000
    outer loop
      vertex   7.500000e+000 7.500000e+000 0.000000e+000
      vertex   1.915111e+000 1.606969e+000 0.000000e+000
      vertex   1.606969e+000 1.915111e+000 0.000000e+000
    endloop
  endfacet
  facet normal 0.000000e+000 0.000000e+000 -1.000000e+000
    outer loop
      vertex   7.500000e+000 -7.500000e+000 0.000000e+000
      vertex   1.915111e+000 -1.606969e+000 0.000000e+000
      vertex   2.165064e+000 -1.250000e+000 0.000000e+000
    endloop
  endfacet
  facet normal 0.000000e+000 0.000000e+000 -1.000000e+000
    outer loop
      vertex   7.500000e+000 -7.500000e+000 0.000000e+000
      vertex   4.341204e-001 -2.462019e+000 0.000000e+000
      vertex   8.550504e-001 -2.349232e+000 0.000000e+000
    endloop
  endfacet
  facet normal -0.000000e+000 0.000000e+000 -1.000000e+000
    outer loop
      vertex   7.500000e+000 -7.500000e+000 0.000000e+000
      vertex   -7.500000e+000 -7.500000e+000 0.000000e+000
      vertex   2.847589e-015 -2.500000e+000 0.000000e+000
    endloop
  endfacet
  facet normal 0.000000e+000 0.000000e+000 -1.000000e+000
    outer loop
      vertex   -7.500000e+000 7.500000e+000 0.000000e+000
      vertex   -4.341204e-001 2.462019e+000 0.000000e+000
      vertex   -8.550504e-001 2.349232e+000 0.000000e+000
    endloop
  endfacet
  facet normal 0.000000e+000 0.000000e+000 -1.000000e+000
    outer loop
      vertex   7.500000e+000 7.500000e+000 0.000000e+000
      vertex   4.341204e-001 2.462019e+000 0.000000e+000
      vertex   3.459892e-015 2.500000e+000 0.000000e+000
    endloop
  endfacet
  facet normal 0.000000e+000 0.000000e+000 -1.000000e+000
    outer loop
      vertex   7.500000e+000 7.500000e+000 0.000000e+000
      vertex   2.165064e+000 1.250000e+000 0.000000e+000
      vertex   1.915111e+000 1.606969e+000 0.000000e+000
    endloop
  endfacet
  facet normal 0.000000e+000 0.000000e+000 -1.000000e+000
    outer loop
      vertex   7.500000e+000 7.500000e+000 0.000000e+000
      vertex   2.462019e+000 4.341204e-001 0.000000e+000
      vertex   2.349232e+000 8.550504e-001 0.000000e+000
    endloop
  endfacet
  facet normal 0.000000e+000 -0.000000e+000 -1.000000e+000
    outer loop
      vertex   7.500000e+000 7.500000e+000 0.000000e+000
      vertex   7.500000e+000 -7.500000e+000 0.000000e+000
      vertex   2.500000e+000 -6.123032e-016 0.000000e+000
    endloop
  endfacet
  facet normal 0.000000e+000 0.000000e+000 -1.000000e+000
    outer loop
      vertex   7.500000e+000 -7.500000e+000 0.000000e+000
      vertex   1.606969e+000 -1.915111e+000 0.000000e+000
      vertex   1.915111e+000 -1.606969e+000 0.000000e+000
    endloop
  endfacet
  facet normal 0.000000e+000 0.000000e+000 -1.000000e+000
    outer loop
      vertex   2.847589e-015 -2.500000e+000 0.000000e+000
      vertex   4.341204e-001 -2.462019e+000 0.000000e+000
      vertex   7.500000e+000 -7.500000e+000 0.000000e+000
    endloop
  endfacet
  facet normal 0.000000e+000 0.000000e+000 -1.000000e+000
    outer loop
      vertex   -7.500000e+000 -7.500000e+000 0.000000e+000
      vertex   -8.550504e-001 -2.349232e+000 0.000000e+000
      vertex   -4.341204e-001 -2.462019e+000 0.000000e+000
    endloop
  endfacet
  facet normal 0.000000e+000 0.000000e+000 -1.000000e+000
    outer loop
      vertex   -7.500000e+000 -7.500000e+000 0.000000e+000
      vertex   -2.462019e+000 -4.341204e-001 0.000000e+000
      vertex   -2.349232e+000 -8.550504e-001 0.000000e+000
    endloop
  endfacet
  facet normal 0.000000e+000 0.000000e+000 -1.000000e+000
    outer loop
      vertex   -7.500000e+000 -7.500000e+000 0.000000e+000
      vertex   -7.500000e+000 7.500000e+000 0.000000e+000
      vertex   -2.500000e+000 3.061516e-016 0.000000e+000
    endloop
  endfacet
  facet normal 0.000000e+000 0.000000e+000 -1.000000e+000
    outer loop
      vertex   -7.500000e+000 7.500000e+000 0.000000e+000
      vertex   3.459892e-015 2.500000e+000 0.000000e+000
      vertex   -4.341204e-001 2.462019e+000 0.000000e+000
    endloop
  endfacet
  facet normal 0.000000e+000 0.000000e+000 -1.000000e+000
    outer loop
      vertex   8.550504e-001 2.349232e+000 0.000000e+000
      vertex   4.341204e-001 2.462019e+000 0.000000e+000
      vertex   7.500000e+000 7.500000e+000 0.000000e+000
    endloop
  endfacet
  facet normal 0.000000e+000 0.000000e+000 -1.000000e+000
    outer loop
      vertex   2.500000e+000 -6.123032e-016 0.000000e+000
      vertex   2.462019e+000 4.341204e-001 0.000000e+000
      vertex   7.500000e+000 7.500000e+000 0.000000e+000
    endloop
  endfacet
  facet normal 0.000000e+000 0.000000e+000 -1.000000e+000
    outer loop
      vertex   7.500000e+000 -7.500000e+000 0.000000e+000
      vertex   2.349232e+000 -8.550504e-001 0.000000e+000
      vertex   2.462019e+000 -4.341204e-001 0.000000e+000
    endloop
  endfacet
  facet normal 0.000000e+000 0.000000e+000 -1.000000e+000
    outer loop
      vertex   7.500000e+000 -7.500000e+000 0.000000e+000
      vertex   1.250000e+000 -2.165064e+000 0.000000e+000
      vertex   1.606969e+000 -1.915111e+000 0.000000e+000
    endloop
  endfacet
  facet normal 0.000000e+000 -0.000000e+000 -1.000000e+000
    outer loop
      vertex   -4.341204e-001 -2.462019e+000 0.000000e+000
      vertex   2.847589e-015 -2.500000e+000 0.000000e+000
      vertex   -7.500000e+000 -7.500000e+000 0.000000e+000
    endloop
  endfacet
  facet normal 0.000000e+000 0.000000e+000 -1.000000e+000
    outer loop
      vertex   -7.500000e+000 -7.500000e+000 0.000000e+000
      vertex   -2.165064e+000 -1.250000e+000 0.000000e+000
      vertex   -1.915111e+000 -1.606969e+000 0.000000e+000
    endloop
  endfacet
  facet normal 0.000000e+000 -0.000000e+000 -1.000000e+000
    outer loop
      vertex   -2.500000e+000 3.061516e-016 0.000000e+000
      vertex   -2.462019e+000 -4.341204e-001 0.000000e+000
      vertex   -7.500000e+000 -7.500000e+000 0.000000e+000
    endloop
  endfacet
  facet normal 0.000000e+000 0.000000e+000 -1.000000e+000
    outer loop
      vertex   -7.500000e+000 7.500000e+000 0.000000e+000
      vertex   -1.915111e+000 1.606969e+000 0.000000e+000
      vertex   -2.165064e+000 1.250000e+000 0.000000e+000
    endloop
  endfacet
  facet normal 0.000000e+000 0.000000e+000 -1.000000e+000
    outer loop
      vertex   3.459892e-015 2.500000e+000 0.000000e+000
      vertex   -7.500000e+000 7.500000e+000 0.000000e+000
      vertex   7.500000e+000 7.500000e+000 0.000000e+000
    endloop
  endfacet
  facet normal 0.000000e+000 0.000000e+000 -1.000000e+000
    outer loop
      vertex   2.462019e+000 -4.341204e-001 0.000000e+000
      vertex   2.500000e+000 -6.123032e-016 0.000000e+000
      vertex   7.500000e+000 -7.500000e+000 0.000000e+000
    endloop
  endfacet
  facet normal 0.000000e+000 0.000000e+000 -1.000000e+000
    outer loop
      vertex   8.550504e-001 -2.349232e+000 0.000000e+000
      vertex   1.250000e+000 -2.165064e+000 0.000000e+000
      vertex   7.500000e+000 -7.500000e+000 0.000000e+000
    endloop
  endfacet
  facet normal 0.000000e+000 0.000000e+000 -1.000000e+000
    outer loop
      vertex   -7.500000e+000 -7.500000e+000 0.000000e+000
      vertex   -1.606969e+000 -1.915111e+000 0.000000e+000
      vertex   -1.250000e+000 -2.165064e+000 0.000000e+000
    endloop
  endfacet
  facet normal 0.000000e+000 -0.000000e+000 -1.000000e+000
    outer loop
      vertex   -2.349232e+000 -8.550504e-001 0.000000e+000
      vertex   -2.165064e+000 -1.250000e+000 0.000000e+000
      vertex   -7.500000e+000 -7.500000e+000 0.000000e+000
    endloop
  endfacet
  facet normal 0.000000e+000 0.000000e+000 -1.000000e+000
    outer loop
      vertex   -7.500000e+000 7.500000e+000 0.000000e+000
      vertex   -2.349232e+000 8.550504e-001 0.000000e+000
      vertex   -2.462019e+000 4.341204e-001 0.000000e+000
    endloop
  endfacet
  facet normal -0.000000e+000 0.000000e+000 -1.000000e+000
    outer loop
      vertex   -1.606969e+000 1.915111e+000 0.000000e+000
      vertex   -1.915111e+000 1.606969e+000 0.000000e+000
      vertex   -7.500000e+000 7.500000e+000 0.000000e+000
    endloop
  endfacet
  facet normal 0.000000e+000 0.000000e+000 -1.000000e+000
    outer loop
      vertex   2.165064e+000 -1.250000e+000 0.000000e+000
      vertex   2.349232e+000 -8.550504e-001 0.000000e+000
      vertex   7.500000e+000 -7.500000e+000 0.000000e+000
    endloop
  endfacet
  facet normal 0.000000e+000 -0.000000e+000 -1.000000e+000
    outer loop
      vertex   -1.915111e+000 -1.606969e+000 0.000000e+000
      vertex   -1.606969e+000 -1.915111e+000 0.000000e+000
      vertex   -7.500000e+000 -7.500000e+000 0.000000e+000
    endloop
  endfacet
  facet normal -0.000000e+000 0.000000e+000 -1.000000e+000
    outer loop
      vertex   -2.165064e+000 1.250000e+000 0.000000e+000
      vertex   -2.349232e+000 8.550504e-001 0.000000e+000
      vertex   -7.500000e+000 7.500000e+000 0.000000e+000
    endloop
  endfacet
  facet normal 0.000000e+000 -0.000000e+000 -1.000000e+000
    outer loop
      vertex   -1.250000e+000 -2.165064e+000 0.000000e+000
      vertex   -8.550504e-001 -2.349232e+000 0.000000e+000
      vertex   -7.500000e+000 -7.500000e+000 0.000000e+000
    endloop
  endfacet
  facet normal 0.000000e+000 0.000000e+000 -1.000000e+000
    outer loop
      vertex   2.349232e+000 8.550504e-001 0.000000e+000
      vertex   2.165064e+000 1.250000e+000 0.000000e+000
      vertex   7.500000e+000 7.500000e+000 0.000000e+000
    endloop
  endfacet
  facet normal -0.000000e+000 0.000000e+000 -1.000000e+000
    outer loop
      vertex   -2.462019e+000 4.341204e-001 0.000000e+000
      vertex   -2.500000e+000 3.061516e-016 0.000000e+000
      vertex   -7.500000e+000 7.500000e+000 0.000000e+000
    endloop
  endfacet
  facet normal 5.782412e-016 -1.000000e+000 0.000000e+000
    outer loop
      vertex   -7.500000e+000 -7.500000e+000 0.000000e+000
      vertex   7.500000e+000 -7.500000e+000 0.000000e+000
      vertex   7.500000e+000 -7.500000e+000 5.000000e-001
    endloop
  endfacet
  facet normal 5.782412e-016 -1.000000e+000 0.000000e+000
    outer loop
      vertex   7.500000e+000 -7.500000e+000 5.000000e-001
      vertex   -7.500000e+000 -7.500000e+000 5.000000e-001
      vertex   -7.500000e+000 -7.500000e+000 0.000000e+000
    endloop
  endfacet
  facet normal 5.204170e-016 1.000000e+000 -9.171095e-032
    outer loop
      vertex   7.500000e+000 7.500000e+000 0.000000e+000
      vertex   -7.500000e+000 7.500000e+000 0.000000e+000
      vertex   -7.500000e+000 7.500000e+000 1.750000e+001
    endloop
  endfacet
  facet normal 0.000000e+000 1.000000e+000 -4.460718e-016
    outer loop
      vertex   -7.500000e+000 7.500000e+000 1.750000e+001
      vertex   7.500000e+000 7.500000e+000 1.750000e+001
      vertex   7.500000e+000 7.500000e+000 0.000000e+000
    endloop
  endfacet
  facet normal 0.000000e+000 -0.000000e+000 1.000000e+000
    outer loop
      vertex   7.500000e+000 7.000000e+000 1.750000e+001
      vertex   7.500000e+000 7.500000e+000 1.750000e+001
      vertex   -7.500000e+000 7.500000e+000 1.750000e+001
    endloop
  endfacet
  facet normal 0.000000e+000 0.000000e+000 1.000000e+000
    outer loop
      vertex   -7.500000e+000 7.500000e+000 1.750000e+001
      vertex   -7.500000e+000 7.000000e+000 1.750000e+001
      vertex   7.500000e+000 7.000000e+000 1.750000e+001
    endloop
  endfacet
  facet normal 0.000000e+000 -9.951847e-001 9.801714e-002
    outer loop
      vertex   7.500000e+000 5.000000e+000 1.550000e+001
      vertex   7.500000e+000 5.038429e+000 1.589018e+001
      vertex   -7.500000e+000 5.038429e+000 1.589018e+001
    endloop
  endfacet
  facet normal 0.000000e+000 -9.569403e-001 2.902847e-001
    outer loop
      vertex   7.500000e+000 5.038429e+000 1.589018e+001
      vertex   7.500000e+000 5.152241e+000 1.626537e+001
      vertex   -7.500000e+000 5.152241e+000 1.626537e+001
    endloop
  endfacet
  facet normal 0.000000e+000 -8.819213e-001 4.713967e-001
    outer loop
      vertex   7.500000e+000 5.152241e+000 1.626537e+001
      vertex   7.500000e+000 5.337061e+000 1.661114e+001
      vertex   -7.500000e+000 5.337061e+000 1.661114e+001
    endloop
  endfacet
  facet normal 0.000000e+000 -7.730105e-001 6.343933e-001
    outer loop
      vertex   7.500000e+000 5.337061e+000 1.661114e+001
      vertex   7.500000e+000 5.585786e+000 1.691421e+001
      vertex   -7.500000e+000 5.585786e+000 1.691421e+001
    endloop
  endfacet
  facet normal 0.000000e+000 -6.343933e-001 7.730105e-001
    outer loop
      vertex   7.500000e+000 5.585786e+000 1.691421e+001
      vertex   7.500000e+000 5.888860e+000 1.716294e+001
      vertex   -7.500000e+000 5.888860e+000 1.716294e+001
    endloop
  endfacet
  facet normal 0.000000e+000 -4.713967e-001 8.819213e-001
    outer loop
      vertex   7.500000e+000 5.888860e+000 1.716294e+001
      vertex   7.500000e+000 6.234633e+000 1.734776e+001
      vertex   -7.500000e+000 6.234633e+000 1.734776e+001
    endloop
  endfacet
  facet normal 0.000000e+000 -2.902847e-001 9.569403e-001
    outer loop
      vertex   7.500000e+000 6.234633e+000 1.734776e+001
      vertex   7.500000e+000 6.609819e+000 1.746157e+001
      vertex   -7.500000e+000 6.609819e+000 1.746157e+001
    endloop
  endfacet
  facet normal 0.000000e+000 -9.801714e-002 9.951847e-001
    outer loop
      vertex   7.500000e+000 6.609819e+000 1.746157e+001
      vertex   7.500000e+000 7.000000e+000 1.750000e+001
      vertex   -7.500000e+000 7.000000e+000 1.750000e+001
    endloop
  endfacet
  facet normal 0.000000e+000 -9.801714e-002 9.951847e-001
    outer loop
      vertex   -7.500000e+000 7.000000e+000 1.750000e+001
      vertex   -7.500000e+000 6.609819e+000 1.746157e+001
      vertex   7.500000e+000 6.609819e+000 1.746157e+001
    endloop
  endfacet
  facet normal 0.000000e+000 -2.902847e-001 9.569403e-001
    outer loop
      vertex   -7.500000e+000 6.609819e+000 1.746157e+001
      vertex   -7.500000e+000 6.234633e+000 1.734776e+001
      vertex   7.500000e+000 6.234633e+000 1.734776e+001
    endloop
  endfacet
  facet normal 0.000000e+000 -4.713967e-001 8.819213e-001
    outer loop
      vertex   -7.500000e+000 6.234633e+000 1.734776e+001
      vertex   -7.500000e+000 5.888860e+000 1.716294e+001
      vertex   7.500000e+000 5.888860e+000 1.716294e+001
    endloop
  endfacet
  facet normal 0.000000e+000 -6.343933e-001 7.730105e-001
    outer loop
      vertex   -7.500000e+000 5.888860e+000 1.716294e+001
      vertex   -7.500000e+000 5.585786e+000 1.691421e+001
      vertex   7.500000e+000 5.585786e+000 1.691421e+001
    endloop
  endfacet
  facet normal 0.000000e+000 -7.730105e-001 6.343933e-001
    outer loop
      vertex   -7.500000e+000 5.585786e+000 1.691421e+001
      vertex   -7.500000e+000 5.337061e+000 1.661114e+001
      vertex   7.500000e+000 5.337061e+000 1.661114e+001
    endloop
  endfacet
  facet normal 0.000000e+000 -8.819213e-001 4.713967e-001
    outer loop
      vertex   -7.500000e+000 5.337061e+000 1.661114e+001
      vertex   -7.500000e+000 5.152241e+000 1.626537e+001
      vertex   7.500000e+000 5.152241e+000 1.626537e+001
    endloop
  endfacet
  facet normal 0.000000e+000 -9.569403e-001 2.902847e-001
    outer loop
      vertex   -7.500000e+000 5.152241e+000 1.626537e+001
      vertex   -7.500000e+000 5.038429e+000 1.589018e+001
      vertex   7.500000e+000 5.038429e+000 1.589018e+001
    endloop
  endfacet
  facet normal 0.000000e+000 -9.951847e-001 9.801714e-002
    outer loop
      vertex   -7.500000e+000 5.038429e+000 1.589018e+001
      vertex   -7.500000e+000 5.000000e+000 1.550000e+001
      vertex   7.500000e+000 5.000000e+000 1.550000e+001
    endloop
  endfacet
  facet normal 0.000000e+000 -1.000000e+000 0.000000e+000
    outer loop
      vertex   7.500000e+000 5.000000e+000 4.500000e+000
      vertex   7.500000e+000 5.000000e+000 1.550000e+001
      vertex   -7.500000e+000 5.000000e+000 1.550000e+001
    endloop
  endfacet
  facet normal 0.000000e+000 -1.000000e+000 0.000000e+000
    outer loop
      vertex   -7.500000e+000 5.000000e+000 1.550000e+001
      vertex   -7.500000e+000 5.000000e+000 4.500000e+000
      vertex   7.500000e+000 5.000000e+000 4.500000e+000
    endloop
  endfacet
  facet normal -1.000000e+000 0.000000e+000 0.000000e+000
    outer loop
      vertex   -7.500000e+000 -6.914214e+000 1.914214e+000
      vertex   -7.500000e+000 -6.611140e+000 2.162939e+000
      vertex   -7.500000e+000 -6.265367e+000 2.347759e+000
    endloop
  endfacet
  facet normal -1.000000e+000 -4.234022e-015 6.336662e-015
    outer loop
      vertex   -7.500000e+000 -6.265367e+000 2.347759e+000
      vertex   -7.500000e+000 -5.890181e+000 2.461571e+000
      vertex   -7.500000e+000 -6.914214e+000 1.914214e+000
    endloop
  endfacet
  facet normal -1.000000e+000 -7.302046e-016 3.903025e-016
    outer loop
      vertex   -7.500000e+000 -5.500000e+000 2.500000e+000
      vertex   -7.500000e+000 -7.347759e+000 1.265367e+000
      vertex   -7.500000e+000 -7.162939e+000 1.611140e+000
    endloop
  endfacet
  facet normal -1.000000e+000 -9.291790e-016 7.625575e-016
    outer loop
      vertex   -7.500000e+000 -7.162939e+000 1.611140e+000
      vertex   -7.500000e+000 -6.914214e+000 1.914214e+000
      vertex   -7.500000e+000 -5.500000e+000 2.500000e+000
    endloop
  endfacet
  facet normal -1.000000e+000 -4.810613e-016 4.738040e-017
    outer loop
      vertex   -7.500000e+000 -5.500000e+000 2.500000e+000
      vertex   -7.500000e+000 -7.500000e+000 5.000000e-001
      vertex   -7.500000e+000 -7.461571e+000 8.901806e-001
    endloop
  endfacet
  facet normal -1.000000e+000 0.000000e+000 0.000000e+000
    outer loop
      vertex   -7.500000e+000 5.000000e+000 1.550000e+001
      vertex   -7.500000e+000 6.234633e+000 1.734776e+001
      vertex   -7.500000e+000 6.609819e+000 1.746157e+001
    endloop
  endfacet
  facet normal -1.000000e+000 0.000000e+000 0.000000e+000
    outer loop
      vertex   -7.500000e+000 5.888860e+000 1.716294e+001
      vertex   -7.500000e+000 5.152241e+000 1.626537e+001
      vertex   -7.500000e+000 5.337061e+000 1.661114e+001
    endloop
  endfacet
  facet normal -1.000000e+000 0.000000e+000 0.000000e+000
    outer loop
      vertex   -7.500000e+000 5.888860e+000 1.716294e+001
      vertex   -7.500000e+000 5.000000e+000 1.550000e+001
      vertex   -7.500000e+000 5.038429e+000 1.589018e+001
    endloop
  endfacet
  facet normal -1.000000e+000 -4.081702e-016 -2.551064e-017
    outer loop
      vertex   -7.500000e+000 -7.500000e+000 5.000000e-001
      vertex   -7.500000e+000 -5.500000e+000 2.500000e+000
      vertex   -7.500000e+000 3.000000e+000 2.500000e+000
    endloop
  endfacet
  facet normal -1.000000e+000 -5.887455e-016 1.785940e-016
    outer loop
      vertex   -7.500000e+000 -7.461571e+000 8.901806e-001
      vertex   -7.500000e+000 -7.347759e+000 1.265367e+000
      vertex   -7.500000e+000 -5.500000e+000 2.500000e+000
    endloop
  endfacet
  facet normal -1.000000e+000 0.000000e+000 0.000000e+000
    outer loop
      vertex   -7.500000e+000 5.000000e+000 1.550000e+001
      vertex   -7.500000e+000 5.888860e+000 1.716294e+001
      vertex   -7.500000e+000 6.234633e+000 1.734776e+001
    endloop
  endfacet
  facet normal -1.000000e+000 0.000000e+000 0.000000e+000
    outer loop
      vertex   -7.500000e+000 5.038429e+000 1.589018e+001
      vertex   -7.500000e+000 5.152241e+000 1.626537e+001
      vertex   -7.500000e+000 5.888860e+000 1.716294e+001
    endloop
  endfacet
  facet normal -1.000000e+000 1.913280e-016 -1.942586e-015
    outer loop
      vertex   -7.500000e+000 -5.890181e+000 2.461571e+000
      vertex   -7.500000e+000 -5.500000e+000 2.500000e+000
      vertex   -7.500000e+000 -6.914214e+000 1.914214e+000
    endloop
  endfacet
  facet normal -1.000000e+000 0.000000e+000 0.000000e+000
    outer loop
      vertex   -7.500000e+000 5.337061e+000 1.661114e+001
      vertex   -7.500000e+000 5.585786e+000 1.691421e+001
      vertex   -7.500000e+000 5.888860e+000 1.716294e+001
    endloop
  endfacet
  facet normal -1.000000e+000 -1.995977e-015 2.403533e-016
    outer loop
      vertex   -7.500000e+000 7.000000e+000 1.750000e+001
      vertex   -7.500000e+000 7.500000e+000 0.000000e+000
      vertex   -7.500000e+000 5.000000e+000 4.500000e+000
    endloop
  endfacet
  facet normal -1.000000e+000 -1.492735e-015 7.978834e-016
    outer loop
      vertex   -7.500000e+000 7.500000e+000 0.000000e+000
      vertex   -7.500000e+000 4.662939e+000 3.388860e+000
      vertex   -7.500000e+000 4.847759e+000 3.734633e+000
    endloop
  endfacet
  facet normal -1.000000e+000 -7.517135e-016 0.000000e+000
    outer loop
      vertex   -7.500000e+000 7.500000e+000 0.000000e+000
      vertex   -7.500000e+000 -7.500000e+000 0.000000e+000
      vertex   -7.500000e+000 -7.500000e+000 5.000000e-001
    endloop
  endfacet
  facet normal -1.000000e+000 -4.336809e-016 0.000000e+000
    outer loop
      vertex   -7.500000e+000 5.000000e+000 4.500000e+000
      vertex   -7.500000e+000 5.000000e+000 1.550000e+001
      vertex   -7.500000e+000 7.000000e+000 1.750000e+001
    endloop
  endfacet
  facet normal -1.000000e+000 -1.235069e-015 1.013595e-015
    outer loop
      vertex   -7.500000e+000 7.500000e+000 0.000000e+000
      vertex   -7.500000e+000 4.414214e+000 3.085786e+000
      vertex   -7.500000e+000 4.662939e+000 3.388860e+000
    endloop
  endfacet
  facet normal -1.000000e+000 -5.560947e-016 1.833199e-015
    outer loop
      vertex   -7.500000e+000 7.500000e+000 0.000000e+000
      vertex   -7.500000e+000 3.390181e+000 2.538429e+000
      vertex   -7.500000e+000 3.765367e+000 2.652241e+000
    endloop
  endfacet
  facet normal -1.000000e+000 -7.012712e-016 1.513269e-015
    outer loop
      vertex   -7.500000e+000 3.000000e+000 2.500000e+000
      vertex   -7.500000e+000 7.500000e+000 0.000000e+000
      vertex   -7.500000e+000 -7.500000e+000 5.000000e-001
    endloop
  endfacet
  facet normal -1.000000e+000 -2.418458e-015 1.984777e-015
    outer loop
      vertex   -7.500000e+000 6.609819e+000 1.746157e+001
      vertex   -7.500000e+000 7.000000e+000 1.750000e+001
      vertex   -7.500000e+000 5.000000e+000 1.550000e+001
    endloop
  endfacet
  facet normal -1.000000e+000 -1.013595e-015 1.235069e-015
    outer loop
      vertex   -7.500000e+000 7.500000e+000 0.000000e+000
      vertex   -7.500000e+000 4.111140e+000 2.837061e+000
      vertex   -7.500000e+000 4.414214e+000 3.085786e+000
    endloop
  endfacet
  facet normal -1.000000e+000 -2.322026e-016 2.357593e-015
    outer loop
      vertex   -7.500000e+000 3.000000e+000 2.500000e+000
      vertex   -7.500000e+000 3.390181e+000 2.538429e+000
      vertex   -7.500000e+000 7.500000e+000 0.000000e+000
    endloop
  endfacet
  facet normal -1.000000e+000 -5.461694e-015 -1.685045e-015
    outer loop
      vertex   -7.500000e+000 7.500000e+000 0.000000e+000
      vertex   -7.500000e+000 4.961571e+000 4.109819e+000
      vertex   -7.500000e+000 5.000000e+000 4.500000e+000
    endloop
  endfacet
  facet normal -1.000000e+000 -7.978834e-016 1.492735e-015
    outer loop
      vertex   -7.500000e+000 3.765367e+000 2.652241e+000
      vertex   -7.500000e+000 4.111140e+000 2.837061e+000
      vertex   -7.500000e+000 7.500000e+000 0.000000e+000
    endloop
  endfacet
  facet normal -1.000000e+000 -1.833199e-015 5.560947e-016
    outer loop
      vertex   -7.500000e+000 4.847759e+000 3.734633e+000
      vertex   -7.500000e+000 4.961571e+000 4.109819e+000
      vertex   -7.500000e+000 7.500000e+000 0.000000e+000
    endloop
  endfacet
  facet normal -1.000000e+000 0.000000e+000 2.973812e-016
    outer loop
      vertex   -7.500000e+000 7.000000e+000 1.750000e+001
      vertex   -7.500000e+000 7.500000e+000 1.750000e+001
      vertex   -7.500000e+000 7.500000e+000 0.000000e+000
    endloop
  endfacet
  facet normal 1.000000e+000 5.345509e-015 -1.000074e-014
    outer loop
      vertex   7.500000e+000 -5.890181e+000 2.461571e+000
      vertex   7.500000e+000 -6.265367e+000 2.347759e+000
      vertex   7.500000e+000 -6.611140e+000 2.162939e+000
    endloop
  endfacet
  facet normal 1.000000e+000 2.429064e-015 -2.959823e-015
    outer loop
      vertex   7.500000e+000 -6.611140e+000 2.162939e+000
      vertex   7.500000e+000 -6.914214e+000 1.914214e+000
      vertex   7.500000e+000 -5.890181e+000 2.461571e+000
    endloop
  endfacet
  facet normal 1.000000e+000 1.508905e-015 -1.238326e-015
    outer loop
      vertex   7.500000e+000 -6.914214e+000 1.914214e+000
      vertex   7.500000e+000 -7.162939e+000 1.611140e+000
      vertex   7.500000e+000 -5.890181e+000 2.461571e+000
    endloop
  endfacet
  facet normal 1.000000e+000 5.887455e-016 -1.785940e-016
    outer loop
      vertex   7.500000e+000 -5.500000e+000 2.500000e+000
      vertex   7.500000e+000 -7.347759e+000 1.265367e+000
      vertex   7.500000e+000 -7.461571e+000 8.901806e-001
    endloop
  endfacet
  facet normal 1.000000e+000 -8.115528e-017 8.239833e-016
    outer loop
      vertex   7.500000e+000 -7.347759e+000 1.265367e+000
      vertex   7.500000e+000 -5.500000e+000 2.500000e+000
      vertex   7.500000e+000 -5.890181e+000 2.461571e+000
    endloop
  endfacet
  facet normal 1.000000e+000 1.060093e-015 -5.666314e-016
    outer loop
      vertex   7.500000e+000 -7.162939e+000 1.611140e+000
      vertex   7.500000e+000 -7.347759e+000 1.265367e+000
      vertex   7.500000e+000 -5.890181e+000 2.461571e+000
    endloop
  endfacet
  facet normal 1.000000e+000 1.722420e-016 -3.690901e-017
    outer loop
      vertex   7.500000e+000 -7.500000e+000 5.000000e-001
      vertex   7.500000e+000 7.500000e+000 0.000000e+000
      vertex   7.500000e+000 3.000000e+000 2.500000e+000
    endloop
  endfacet
  facet normal 1.000000e+000 0.000000e+000 0.000000e+000
    outer loop
      vertex   7.500000e+000 5.337061e+000 1.661114e+001
      vertex   7.500000e+000 5.152241e+000 1.626537e+001
      vertex   7.500000e+000 5.038429e+000 1.589018e+001
    endloop
  endfacet
  facet normal 1.000000e+000 -7.625575e-016 9.291790e-016
    outer loop
      vertex   7.500000e+000 5.000000e+000 1.550000e+001
      vertex   7.500000e+000 5.888860e+000 1.716294e+001
      vertex   7.500000e+000 5.585786e+000 1.691421e+001
    endloop
  endfacet
  facet normal 1.000000e+000 -2.465839e-015 2.465839e-015
    outer loop
      vertex   7.500000e+000 5.000000e+000 1.550000e+001
      vertex   7.500000e+000 7.000000e+000 1.750000e+001
      vertex   7.500000e+000 6.609819e+000 1.746157e+001
    endloop
  endfacet
  facet normal 1.000000e+000 1.020426e-016 3.316383e-016
    outer loop
      vertex   7.500000e+000 3.000000e+000 2.500000e+000
      vertex   7.500000e+000 -5.500000e+000 2.500000e+000
      vertex   7.500000e+000 -7.500000e+000 5.000000e-001
    endloop
  endfacet
  facet normal 1.000000e+000 -1.508905e-015 1.238326e-015
    outer loop
      vertex   7.500000e+000 5.585786e+000 1.691421e+001
      vertex   7.500000e+000 5.337061e+000 1.661114e+001
      vertex   7.500000e+000 5.000000e+000 1.550000e+001
    endloop
  endfacet
  facet normal 1.000000e+000 -1.785940e-016 5.887455e-016
    outer loop
      vertex   7.500000e+000 6.609819e+000 1.746157e+001
      vertex   7.500000e+000 6.234633e+000 1.734776e+001
      vertex   7.500000e+000 5.000000e+000 1.550000e+001
    endloop
  endfacet
  facet normal 1.000000e+000 4.810613e-016 -4.738040e-017
    outer loop
      vertex   7.500000e+000 -7.461571e+000 8.901806e-001
      vertex   7.500000e+000 -7.500000e+000 5.000000e-001
      vertex   7.500000e+000 -5.500000e+000 2.500000e+000
    endloop
  endfacet
  facet normal 1.000000e+000 0.000000e+000 0.000000e+000
    outer loop
      vertex   7.500000e+000 7.500000e+000 0.000000e+000
      vertex   7.500000e+000 4.414214e+000 3.085786e+000
      vertex   7.500000e+000 4.111140e+000 2.837061e+000
    endloop
  endfacet
  facet normal 1.000000e+000 0.000000e+000 0.000000e+000
    outer loop
      vertex   7.500000e+000 7.000000e+000 1.750000e+001
      vertex   7.500000e+000 5.000000e+000 1.550000e+001
      vertex   7.500000e+000 5.000000e+000 4.500000e+000
    endloop
  endfacet
  facet normal 1.000000e+000 -3.903025e-016 7.302046e-016
    outer loop
      vertex   7.500000e+000 6.234633e+000 1.734776e+001
      vertex   7.500000e+000 5.888860e+000 1.716294e+001
      vertex   7.500000e+000 5.000000e+000 1.550000e+001
    endloop
  endfacet
  facet normal 1.000000e+000 1.917248e-015 3.104101e-015
    outer loop
      vertex   7.500000e+000 7.500000e+000 0.000000e+000
      vertex   7.500000e+000 3.390181e+000 2.538429e+000
      vertex   7.500000e+000 3.000000e+000 2.500000e+000
    endloop
  endfacet
  facet normal 1.000000e+000 0.000000e+000 0.000000e+000
    outer loop
      vertex   7.500000e+000 4.111140e+000 2.837061e+000
      vertex   7.500000e+000 3.765367e+000 2.652241e+000
      vertex   7.500000e+000 7.500000e+000 0.000000e+000
    endloop
  endfacet
  facet normal 1.000000e+000 0.000000e+000 0.000000e+000
    outer loop
      vertex   7.500000e+000 7.500000e+000 0.000000e+000
      vertex   7.500000e+000 4.961571e+000 4.109819e+000
      vertex   7.500000e+000 4.847759e+000 3.734633e+000
    endloop
  endfacet
  facet normal 1.000000e+000 -7.040921e-015 2.916445e-015
    outer loop
      vertex   7.500000e+000 5.038429e+000 1.589018e+001
      vertex   7.500000e+000 5.000000e+000 1.550000e+001
      vertex   7.500000e+000 5.337061e+000 1.661114e+001
    endloop
  endfacet
  facet normal 1.000000e+000 0.000000e+000 0.000000e+000
    outer loop
      vertex   7.500000e+000 3.765367e+000 2.652241e+000
      vertex   7.500000e+000 3.390181e+000 2.538429e+000
      vertex   7.500000e+000 7.500000e+000 0.000000e+000
    endloop
  endfacet
  facet normal 1.000000e+000 0.000000e+000 0.000000e+000
    outer loop
      vertex   7.500000e+000 4.847759e+000 3.734633e+000
      vertex   7.500000e+000 4.662939e+000 3.388860e+000
      vertex   7.500000e+000 7.500000e+000 0.000000e+000
    endloop
  endfacet
  facet normal 1.000000e+000 0.000000e+000 -0.000000e+000
    outer loop
      vertex   7.500000e+000 7.500000e+000 0.000000e+000
      vertex   7.500000e+000 7.500000e+000 1.750000e+001
      vertex   7.500000e+000 7.000000e+000 1.750000e+001
    endloop
  endfacet
  facet normal 1.000000e+000 0.000000e+000 0.000000e+000
    outer loop
      vertex   7.500000e+000 4.662939e+000 3.388860e+000
      vertex   7.500000e+000 4.414214e+000 3.085786e+000
      vertex   7.500000e+000 7.500000e+000 0.000000e+000
    endloop
  endfacet
  facet normal 1.000000e+000 -0.000000e+000 0.000000e+000
    outer loop
      vertex   7.500000e+000 5.000000e+000 4.500000e+000
      vertex   7.500000e+000 7.500000e+000 0.000000e+000
      vertex   7.500000e+000 7.000000e+000 1.750000e+001
    endloop
  endfacet
  facet normal 1.000000e+000 0.000000e+000 0.000000e+000
    outer loop
      vertex   7.500000e+000 5.000000e+000 4.500000e+000
      vertex   7.500000e+000 4.961571e+000 4.109819e+000
      vertex   7.500000e+000 7.500000e+000 0.000000e+000
    endloop
  endfacet
  facet normal 1.000000e+000 1.734723e-016 0.000000e+000
    outer loop
      vertex   7.500000e+000 -7.500000e+000 5.000000e-001
      vertex   7.500000e+000 -7.500000e+000 0.000000e+000
      vertex   7.500000e+000 7.500000e+000 0.000000e+000
    endloop
  endfacet
  facet normal 0.000000e+000 0.000000e+000 1.000000e+000
    outer loop
      vertex   -7.500000e+000 -5.500000e+000 2.500000e+000
      vertex   7.500000e+000 -5.500000e+000 2.500000e+000
      vertex   7.500000e+000 3.000000e+000 2.500000e+000
    endloop
  endfacet
  facet normal 0.000000e+000 0.000000e+000 1.000000e+000
    outer loop
      vertex   7.500000e+000 3.000000e+000 2.500000e+000
      vertex   -7.500000e+000 3.000000e+000 2.500000e+000
      vertex   -7.500000e+000 -5.500000e+000 2.500000e+000
    endloop
  endfacet
  facet normal 5.755495e-016 -9.951847e-001 9.801714e-002
    outer loop
      vertex   -7.500000e+000 -7.461571e+000 8.901806e-001
      vertex   -7.500000e+000 -7.500000e+000 5.000000e-001
      vertex   7.500000e+000 -7.500000e+000 5.000000e-001
    endloop
  endfacet
  facet normal 5.536077e-016 -9.569403e-001 2.902847e-001
    outer loop
      vertex   7.500000e+000 -7.461571e+000 8.901806e-001
      vertex   7.500000e+000 -7.347759e+000 1.265367e+000
      vertex   -7.500000e+000 -7.347759e+000 1.265367e+000
    endloop
  endfacet
  facet normal 5.108494e-016 -8.819213e-001 4.713967e-001
    outer loop
      vertex   -7.500000e+000 -7.162939e+000 1.611140e+000
      vertex   -7.500000e+000 -7.347759e+000 1.265367e+000
      vertex   7.500000e+000 -7.347759e+000 1.265367e+000
    endloop
  endfacet
  facet normal 4.455867e-016 -7.730105e-001 6.343933e-001
    outer loop
      vertex   -7.500000e+000 -6.914214e+000 1.914214e+000
      vertex   -7.500000e+000 -7.162939e+000 1.611140e+000
      vertex   7.500000e+000 -7.162939e+000 1.611140e+000
    endloop
  endfacet
  facet normal 3.668214e-016 -6.343933e-001 7.730105e-001
    outer loop
      vertex   7.500000e+000 -6.914214e+000 1.914214e+000
      vertex   7.500000e+000 -6.611140e+000 2.162939e+000
      vertex   -7.500000e+000 -6.611140e+000 2.162939e+000
    endloop
  endfacet
  facet normal 2.723030e-016 -4.713967e-001 8.819213e-001
    outer loop
      vertex   -7.500000e+000 -6.265367e+000 2.347759e+000
      vertex   -7.500000e+000 -6.611140e+000 2.162939e+000
      vertex   7.500000e+000 -6.611140e+000 2.162939e+000
    endloop
  endfacet
  facet normal 1.678545e-016 -2.902847e-001 9.569403e-001
    outer loop
      vertex   7.500000e+000 -5.890181e+000 2.461571e+000
      vertex   -7.500000e+000 -5.890181e+000 2.461571e+000
      vertex   -7.500000e+000 -6.265367e+000 2.347759e+000
    endloop
  endfacet
  facet normal 5.682356e-017 -9.801714e-002 9.951847e-001
    outer loop
      vertex   -7.500000e+000 -5.500000e+000 2.500000e+000
      vertex   -7.500000e+000 -5.890181e+000 2.461571e+000
      vertex   7.500000e+000 -5.890181e+000 2.461571e+000
    endloop
  endfacet
  facet normal 5.682356e-017 -9.801714e-002 9.951847e-001
    outer loop
      vertex   7.500000e+000 -5.890181e+000 2.461571e+000
      vertex   7.500000e+000 -5.500000e+000 2.500000e+000
      vertex   -7.500000e+000 -5.500000e+000 2.500000e+000
    endloop
  endfacet
  facet normal 1.678545e-016 -2.902847e-001 9.569403e-001
    outer loop
      vertex   -7.500000e+000 -6.265367e+000 2.347759e+000
      vertex   7.500000e+000 -6.265367e+000 2.347759e+000
      vertex   7.500000e+000 -5.890181e+000 2.461571e+000
    endloop
  endfacet
  facet normal 2.723030e-016 -4.713967e-001 8.819213e-001
    outer loop
      vertex   7.500000e+000 -6.611140e+000 2.162939e+000
      vertex   7.500000e+000 -6.265367e+000 2.347759e+000
      vertex   -7.500000e+000 -6.265367e+000 2.347759e+000
    endloop
  endfacet
  facet normal 3.668214e-016 -6.343933e-001 7.730105e-001
    outer loop
      vertex   -7.500000e+000 -6.611140e+000 2.162939e+000
      vertex   -7.500000e+000 -6.914214e+000 1.914214e+000
      vertex   7.500000e+000 -6.914214e+000 1.914214e+000
    endloop
  endfacet
  facet normal 4.455867e-016 -7.730105e-001 6.343933e-001
    outer loop
      vertex   7.500000e+000 -7.162939e+000 1.611140e+000
      vertex   7.500000e+000 -6.914214e+000 1.914214e+000
      vertex   -7.500000e+000 -6.914214e+000 1.914214e+000
    endloop
  endfacet
  facet normal 5.108494e-016 -8.819213e-001 4.713967e-001
    outer loop
      vertex   7.500000e+000 -7.347759e+000 1.265367e+000
      vertex   7.500000e+000 -7.162939e+000 1.611140e+000
      vertex   -7.500000e+000 -7.162939e+000 1.611140e+000
    endloop
  endfacet
  facet normal 5.536077e-016 -9.569403e-001 2.902847e-001
    outer loop
      vertex   -7.500000e+000 -7.347759e+000 1.265367e+000
      vertex   -7.500000e+000 -7.461571e+000 8.901806e-001
      vertex   7.500000e+000 -7.461571e+000 8.901806e-001
    endloop
  endfacet
  facet normal 5.755495e-016 -9.951847e-001 9.801714e-002
    outer loop
      vertex   7.500000e+000 -7.500000e+000 5.000000e-001
      vertex   7.500000e+000 -7.461571e+000 8.901806e-001
      vertex   -7.500000e+000 -7.461571e+000 8.901806e-001
    endloop
  endfacet
  facet normal 0.000000e+000 -9.951847e-001 9.801714e-002
    outer loop
      vertex   -7.500000e+000 5.000000e+000 4.500000e+000
      vertex   -7.500000e+000 4.961571e+000 4.109819e+000
      vertex   7.500000e+000 4.961571e+000 4.109819e+000
    endloop
  endfacet
  facet normal 0.000000e+000 -9.569403e-001 2.902847e-001
    outer loop
      vertex   -7.500000e+000 4.961571e+000 4.109819e+000
      vertex   -7.500000e+000 4.847759e+000 3.734633e+000
      vertex   7.500000e+000 4.847759e+000 3.734633e+000
    endloop
  endfacet
  facet normal 0.000000e+000 -8.819213e-001 4.713967e-001
    outer loop
      vertex   -7.500000e+000 4.847759e+000 3.734633e+000
      vertex   -7.500000e+000 4.662939e+000 3.388860e+000
      vertex   7.500000e+000 4.662939e+000 3.388860e+000
    endloop
  endfacet
  facet normal 0.000000e+000 -7.730105e-001 6.343933e-001
    outer loop
      vertex   -7.500000e+000 4.662939e+000 3.388860e+000
      vertex   -7.500000e+000 4.414214e+000 3.085786e+000
      vertex   7.500000e+000 4.414214e+000 3.085786e+000
    endloop
  endfacet
  facet normal 0.000000e+000 -6.343933e-001 7.730105e-001
    outer loop
      vertex   -7.500000e+000 4.414214e+000 3.085786e+000
      vertex   -7.500000e+000 4.111140e+000 2.837061e+000
      vertex   7.500000e+000 4.111140e+000 2.837061e+000
    endloop
  endfacet
  facet normal 0.000000e+000 -4.713967e-001 8.819213e-001
    outer loop
      vertex   -7.500000e+000 4.111140e+000 2.837061e+000
      vertex   -7.500000e+000 3.765367e+000 2.652241e+000
      vertex   7.500000e+000 3.765367e+000 2.652241e+000
    endloop
  endfacet
  facet normal 0.000000e+000 -2.902847e-001 9.569403e-001
    outer loop
      vertex   -7.500000e+000 3.765367e+000 2.652241e+000
      vertex   -7.500000e+000 3.390181e+000 2.538429e+000
      vertex   7.500000e+000 3.390181e+000 2.538429e+000
    endloop
  endfacet
  facet normal 0.000000e+000 -9.801714e-002 9.951847e-001
    outer loop
      vertex   -7.500000e+000 3.390181e+000 2.538429e+000
      vertex   -7.500000e+000 3.000000e+000 2.500000e+000
      vertex   7.500000e+000 3.000000e+000 2.500000e+000
    endloop
  endfacet
  facet normal 0.000000e+000 -9.801714e-002 9.951847e-001
    outer loop
      vertex   7.500000e+000 3.000000e+000 2.500000e+000
      vertex   7.500000e+000 3.390181e+000 2.538429e+000
      vertex   -7.500000e+000 3.390181e+000 2.538429e+000
    endloop
  endfacet
  facet normal 0.000000e+000 -2.902847e-001 9.569403e-001
    outer loop
      vertex   7.500000e+000 3.390181e+000 2.538429e+000
      vertex   7.500000e+000 3.765367e+000 2.652241e+000
      vertex   -7.500000e+000 3.765367e+000 2.652241e+000
    endloop
  endfacet
  facet normal 0.000000e+000 -4.713967e-001 8.819213e-001
    outer loop
      vertex   7.500000e+000 3.765367e+000 2.652241e+000
      vertex   7.500000e+000 4.111140e+000 2.837061e+000
      vertex   -7.500000e+000 4.111140e+000 2.837061e+000
    endloop
  endfacet
  facet normal 0.000000e+000 -6.343933e-001 7.730105e-001
    outer loop
      vertex   7.500000e+000 4.111140e+000 2.837061e+000
      vertex   7.500000e+000 4.414214e+000 3.085786e+000
      vertex   -7.500000e+000 4.414214e+000 3.085786e+000
    endloop
  endfacet
  facet normal 0.000000e+000 -7.730105e-001 6.343933e-001
    outer loop
      vertex   7.500000e+000 4.414214e+000 3.085786e+000
      vertex   7.500000e+000 4.662939e+000 3.388860e+000
      vertex   -7.500000e+000 4.662939e+000 3.388860e+000
    endloop
  endfacet
  facet normal 0.000000e+000 -8.819213e-001 4.713967e-001
    outer loop
      vertex   7.500000e+000 4.662939e+000 3.388860e+000
      vertex   7.500000e+000 4.847759e+000 3.734633e+000
      vertex   -7.500000e+000 4.847759e+000 3.734633e+000
    endloop
  endfacet
  facet normal 0.000000e+000 -9.569403e-001 2.902847e-001
    outer loop
      vertex   7.500000e+000 4.847759e+000 3.734633e+000
      vertex   7.500000e+000 4.961571e+000 4.109819e+000
      vertex   -7.500000e+000 4.961571e+000 4.109819e+000
    endloop
  endfacet
  facet normal 0.000000e+000 -9.951847e-001 9.801714e-002
    outer loop
      vertex   7.500000e+000 4.961571e+000 4.109819e+000
      vertex   7.500000e+000 5.000000e+000 4.500000e+000
      vertex   -7.500000e+000 5.000000e+000 4.500000e+000
    endloop
  endfacet
endsolid
