solid 犀牛2014版列印
facet normal 0.701293553959313 -0.71287260515124 4.69565972951601e-015
   outer loop
      vertex -185.145373461507 -76.5362437117118 10.1954569592288
      vertex -185.889761835014 -77.2685411295259 13.6186009592288
      vertex -185.889761835014 -77.2685411295259 10.1954569592287
   endloop
endfacet
facet normal 0.701293553959313 -0.71287260515124 4.69565972951601e-015
   outer loop
      vertex -185.889761835014 -77.2685411295259 13.6186009592288
      vertex -185.145373461507 -76.5362437117118 10.1954569592288
      vertex -185.145373461507 -76.5362437117117 13.6186009592287
   endloop
endfacet
facet normal 0.861902562524315 -0.507073932197287 3.34048627128561e-015
   outer loop
      vertex -184.615882025157 -75.6362368353037 10.1954569592288
      vertex -185.145373461507 -76.5362437117117 13.6186009592287
      vertex -185.145373461507 -76.5362437117118 10.1954569592288
   endloop
endfacet
facet normal 0.861902562524315 -0.507073932197287 3.34048627128561e-015
   outer loop
      vertex -185.145373461507 -76.5362437117117 13.6186009592287
      vertex -184.615882025157 -75.6362368353037 10.1954569592288
      vertex -184.615882025157 -75.6362368353037 13.6186009592288
   endloop
endfacet
facet normal -0.703645850939783 0.413968450755361 -0.577505530912419
   outer loop
      vertex -192.556867311507 -72.270538137861 14.4942889592287
      vertex -191.452112958115 -71.6143500799951 13.6186009592287
      vertex -191.981604394465 -72.5143569564031 13.6186009592288
   endloop
endfacet
facet normal -0.703645850939783 0.413968450755361 -0.577505530912419
   outer loop
      vertex -191.452112958115 -71.6143500799951 13.6186009592287
      vertex -192.556867311507 -72.270538137861 14.4942889592287
      vertex -191.9446693128 -71.229950187358 14.4942889592287
   endloop
endfacet
facet normal -0.0468563480595825 0.220016952748949 -0.974370064785236
   outer loop
      vertex -196.823244081021 -96.5622625047038 1.54233695922867
      vertex -183.278048449188 -100.507997371846 1.12798659301916e-014
      vertex -198.199495627367 -100.507997371846 0.717555421499464
   endloop
endfacet
facet normal -0.0468563480595825 0.220016952748949 -0.974370064785236
   outer loop
      vertex -183.278048449188 -100.507997371846 1.12798659301916e-014
      vertex -196.823244081021 -96.5622625047038 1.54233695922867
      vertex -184.333414642638 -93.9023411302017 1.54233695922869
   endloop
endfacet
facet normal 0.790272651479712 0.204832854026807 -0.577505530912439
   outer loop
      vertex -184.590815875763 -72.5748719942263 13.6186009592288
      vertex -183.735620751552 -73.4054157846633 14.4942889592287
      vertex -184.356805040885 -73.4777172132348 13.6186009592288
   endloop
endfacet
facet normal 0.790272651479712 0.204832854026807 -0.577505530912439
   outer loop
      vertex -183.735620751552 -73.4054157846633 14.4942889592287
      vertex -184.590815875763 -72.5748719942263 13.6186009592288
      vertex -184.011637626185 -72.340505624592 14.4942889592287
   endloop
endfacet
facet normal 0.492892548634345 -0.870090188141862 1.4335516139877e-014
   outer loop
      vertex -185.889761835014 -77.2685411295259 13.6186009592288
      vertex -186.798318308184 -77.783224229901 10.1954569592288
      vertex -185.889761835014 -77.2685411295259 10.1954569592287
   endloop
endfacet
facet normal 0.492892548634345 -0.870090188141862 1.4335516139877e-014
   outer loop
      vertex -186.798318308184 -77.783224229901 10.1954569592288
      vertex -185.889761835014 -77.2685411295259 13.6186009592288
      vertex -186.798318308184 -77.7832242299009 13.6186009592287
   endloop
endfacet
facet normal -0.492892548634337 0.870090188141866 -2.29306915439552e-014
   outer loop
      vertex -190.707724584607 -70.8820526621808 13.6186009592288
      vertex -189.799168111438 -70.3673695618059 10.1954569592288
      vertex -190.707724584607 -70.8820526621809 10.1954569592288
   endloop
endfacet
facet normal -0.492892548634337 0.870090188141866 -2.29306915439552e-014
   outer loop
      vertex -189.799168111438 -70.3673695618059 10.1954569592288
      vertex -190.707724584607 -70.8820526621808 13.6186009592288
      vertex -189.799168111438 -70.3673695618058 13.6186009592288
   endloop
endfacet
facet normal -0.0468563480595735 0.22001695274896 0.974370064785234
   outer loop
      vertex -183.278048449188 -100.507997371846 11.7377939184574
      vertex -196.823244081021 -96.5622625047038 10.1954569592287
      vertex -198.199495627367 -100.507997371846 11.0202384969581
   endloop
endfacet
facet normal -0.0468563480595735 0.22001695274896 0.974370064785234
   outer loop
      vertex -196.823244081021 -96.5622625047038 10.1954569592287
      vertex -183.278048449188 -100.507997371846 11.7377939184574
      vertex -184.333414642638 -93.9023411302017 10.1954569592287
   endloop
endfacet
facet normal 0.266719008743271 0.963774335814669 -2.85873672275957e-014
   outer loop
      vertex -187.744185624067 -70.1139251783679 13.6186009592288
      vertex -186.737803270361 -70.3924357111997 10.1954569592288
      vertex -187.744185624067 -70.113925178368 10.1954569592287
   endloop
endfacet
facet normal 0.266719008743271 0.963774335814669 -2.85873672275957e-014
   outer loop
      vertex -186.737803270361 -70.3924357111997 10.1954569592288
      vertex -187.744185624067 -70.1139251783679 13.6186009592288
      vertex -186.737803270361 -70.3924357111996 13.6186009592287
   endloop
endfacet
facet normal -5.62442867889112e-016 2.4993806355673e-015 -1.0
   outer loop
      vertex -193.889292081021 -68.58895823435 1.54233695922875
      vertex -196.823244081021 -96.5622625047038 1.54233695922867
      vertex -198.953811167576 -75.2816953692655 1.54233695922872
   endloop
endfacet
facet normal -5.62442867889112e-016 2.4993806355673e-015 -1.0
   outer loop
      vertex -196.823244081021 -96.5622625047038 1.54233695922867
      vertex -193.889292081021 -68.58895823435 1.54233695922875
      vertex -184.333414642638 -93.9023411302017 1.54233695922869
   endloop
endfacet
facet normal -5.62442867889112e-016 2.4993806355673e-015 -1.0
   outer loop
      vertex -184.333414642638 -93.9023411302017 1.54233695922869
      vertex -193.889292081021 -68.58895823435 1.54233695922875
      vertex -183.501516081021 -68.58895823435 1.54233695922875
   endloop
endfacet
facet normal -5.62442867889112e-016 2.4993806355673e-015 -1.0
   outer loop
      vertex -184.333414642638 -93.9023411302017 1.54233695922869
      vertex -183.501516081021 -68.58895823435 1.54233695922875
      vertex -179.259180081021 -88.2406519660615 1.54233695922868
   endloop
endfacet
facet normal -5.62442867889112e-016 2.4993806355673e-015 -1.0
   outer loop
      vertex -179.259180081021 -88.2406519660615 1.54233695922868
      vertex -183.501516081021 -68.58895823435 1.54233695922875
      vertex -178.081967047294 -75.3663337586358 1.54233695922871
   endloop
endfacet
facet normal -0.50707393219725 -0.861902562524337 8.52311417457228e-015
   outer loop
      vertex -189.859683149261 -77.7581580805072 10.1954569592288
      vertex -190.759690025669 -77.2286666441571 13.6186009592287
      vertex -190.759690025669 -77.2286666441571 10.1954569592287
   endloop
endfacet
facet normal -0.50707393219725 -0.861902562524337 8.52311417457228e-015
   outer loop
      vertex -190.759690025669 -77.2286666441571 13.6186009592287
      vertex -189.859683149261 -77.7581580805072 10.1954569592288
      vertex -189.859683149261 -77.7581580805071 13.6186009592288
   endloop
endfacet
facet normal 0.655015924117613 0.269475638464709 -0.705929896963138
   outer loop
      vertex -179.734956081021 -100.507997371846 3.28755295922873
      vertex -183.278048449188 -100.507997371846 1.12798659301916e-014
      vertex -184.333414642638 -93.9023411302017 1.54233695922869
   endloop
endfacet
facet normal 0.57252678085678 -0.581979765084069 -0.577505530912445
   outer loop
      vertex -184.652817106822 -76.9206436043488 14.4942889592287
      vertex -185.889761835014 -77.2685411295259 13.6186009592288
      vertex -185.145373461507 -76.5362437117117 13.6186009592287
   endloop
endfacet
facet normal 0.57252678085678 -0.581979765084069 -0.577505530912445
   outer loop
      vertex -185.889761835014 -77.2685411295259 13.6186009592288
      vertex -184.652817106822 -76.9206436043488 14.4942889592287
      vertex -185.513478944271 -77.7673258788256 14.4942889592287
   endloop
endfacet
facet normal 0.50707393219725 0.861902562524337 -3.12422986355856e-014
   outer loop
      vertex -186.737803270361 -70.3924357111997 10.1954569592288
      vertex -185.837796393953 -70.9219271475496 13.6186009592287
      vertex -185.837796393953 -70.9219271475498 10.1954569592288
   endloop
endfacet
facet normal 0.50707393219725 0.861902562524337 -3.12422986355856e-014
   outer loop
      vertex -185.837796393953 -70.9219271475496 13.6186009592287
      vertex -186.737803270361 -70.3924357111997 10.1954569592288
      vertex -186.737803270361 -70.3924357111996 13.6186009592287
   endloop
endfacet
facet normal 0.646222293186299 0.269913659967899 0.713823062076153
   outer loop
      vertex -179.734956081021 -100.507997371846 8.53024095922875
      vertex -184.333414642638 -93.9023411302017 10.1954569592287
      vertex -183.278048449188 -100.507997371846 11.7377939184574
   endloop
endfacet
facet normal 0.204832854026863 -0.790272651479698 -0.577505530912439
   outer loop
      vertex -186.798318308184 -77.7832242299009 13.6186009592287
      vertex -187.732648091086 -78.6653199193856 14.4942889592287
      vertex -187.80912625883 -78.0452182101003 13.6186009592287
   endloop
endfacet
facet normal 0.204832854026863 -0.790272651479698 -0.577505530912439
   outer loop
      vertex -187.732648091086 -78.6653199193856 14.4942889592287
      vertex -186.798318308184 -77.7832242299009 13.6186009592287
      vertex -186.56395193855 -78.3624024794792 14.4942889592287
   endloop
endfacet
facet normal -0.581979765084072 -0.572526780856814 -0.577505530912408
   outer loop
      vertex -191.990772192783 -76.8605611613933 14.4942889592288
      vertex -190.759690025669 -77.2286666441571 13.6186009592287
      vertex -191.144089918306 -77.7212229988421 14.4942889592288
   endloop
endfacet
facet normal -0.581979765084072 -0.572526780856814 -0.577505530912408
   outer loop
      vertex -190.759690025669 -77.2286666441571 13.6186009592287
      vertex -191.990772192783 -76.8605611613933 14.4942889592288
      vertex -191.491987443483 -76.4842782706501 13.6186009592287
   endloop
endfacet
facet normal 0.968012562702635 0.250901730663376 -5.70034451947027e-016
   outer loop
      vertex -184.590815875763 -72.5748719942263 10.1954569592288
      vertex -184.328821895564 -73.5856799448722 12.3109965258151
      vertex -184.328821895564 -73.5856799448722 10.1954569592288
   endloop
endfacet
facet normal 0.968012562702635 0.250901730663376 -5.70034451947027e-016
   outer loop
      vertex -184.328821895564 -73.5856799448722 12.3109965258151
      vertex -184.590815875763 -72.5748719942263 10.1954569592288
      vertex -184.356805040885 -73.4777172132348 13.6186009592288
   endloop
endfacet
facet normal 0.968012562702635 0.250901730663376 -5.70034451947027e-016
   outer loop
      vertex -184.356805040885 -73.4777172132348 13.6186009592288
      vertex -184.590815875763 -72.5748719942263 10.1954569592288
      vertex -184.590815875763 -72.5748719942263 13.6186009592288
   endloop
endfacet
facet normal -0.786812619110958 0.217745870622925 -0.577505530912405
   outer loop
      vertex -192.870938178257 -73.4054157846633 14.4942889592287
      vertex -191.981604394465 -72.5143569564031 13.6186009592288
      vertex -192.248208809229 -73.4777172132348 13.6186009592288
   endloop
endfacet
facet normal -0.786812619110958 0.217745870622925 -0.577505530912405
   outer loop
      vertex -191.981604394465 -72.5143569564031 13.6186009592288
      vertex -192.870938178257 -73.4054157846633 14.4942889592287
      vertex -192.556867311507 -72.270538137861 14.4942889592287
   endloop
endfacet
facet normal 0.620993388434344 0.351783088790066 0.700439768975286
   outer loop
      vertex -186.164565672415 -73.2116949875314 16.840563171933
      vertex -184.606714226839 -71.2900326303134 14.4942889592287
      vertex -187.069662789743 -73.1480794256554 17.6110511864694
   endloop
endfacet
facet normal 0.620993388434344 0.351783088790066 0.700439768975286
   outer loop
      vertex -184.606714226839 -71.2900326303134 14.4942889592287
      vertex -186.164565672415 -73.2116949875314 16.840563171933
      vertex -184.011637626185 -72.340505624592 14.4942889592287
   endloop
endfacet
facet normal 0.690881714967328 0.179071454904571 0.700439768975294
   outer loop
      vertex -183.735620751552 -73.4054157846633 14.4942889592287
      vertex -184.011637626185 -72.340505624592 14.4942889592287
      vertex -186.164565672415 -73.2116949875314 16.840563171933
   endloop
endfacet
facet normal 0.70364585093977 -0.413968450755378 -0.577505530912422
   outer loop
      vertex -185.145373461507 -76.5362437117117 13.6186009592287
      vertex -184.040619108114 -75.8800556538458 14.4942889592288
      vertex -184.652817106822 -76.9206436043488 14.4942889592287
   endloop
endfacet
facet normal 0.70364585093977 -0.413968450755378 -0.577505530912422
   outer loop
      vertex -184.040619108114 -75.8800556538458 14.4942889592288
      vertex -185.145373461507 -76.5362437117117 13.6186009592287
      vertex -184.615882025157 -75.6362368353037 13.6186009592288
   endloop
endfacet
facet normal -0.204832854026882 0.790272651479684 -0.577505530912451
   outer loop
      vertex -190.033534481072 -69.7881913122276 14.4942889592288
      vertex -188.788360160792 -70.1053755816064 13.6186009592288
      vertex -189.799168111438 -70.3673695618058 13.6186009592288
   endloop
endfacet
facet normal -0.204832854026882 0.790272651479684 -0.577505530912451
   outer loop
      vertex -188.788360160792 -70.1053755816064 13.6186009592288
      vertex -190.033534481072 -69.7881913122276 14.4942889592288
      vertex -188.864838328535 -69.4852738723211 14.4942889592287
   endloop
endfacet
facet normal 0.190360428443638 0.687856843624156 0.700439768975298
   outer loop
      vertex -187.888489698207 -73.1073501507107 18.1043490095192
      vertex -187.657563729174 -69.4951589160966 14.4942889592287
      vertex -188.16244306727 -73.1016639610047 18.1732180234468
   endloop
endfacet
facet normal 0.190360428443638 0.687856843624156 0.700439768975298
   outer loop
      vertex -187.657563729174 -69.4951589160966 14.4942889592287
      vertex -187.888489698207 -73.1073501507107 18.1043490095192
      vertex -186.493984451818 -69.8171727941567 14.4942889592288
   endloop
endfacet
facet normal 4.03493869120646e-016 0.99660881545336 0.0822852900623874
   outer loop
      vertex -192.268664524058 -74.5649138468346 11.5244597215262
      vertex -184.336371853972 -74.5077672132348 10.8323209592288
      vertex -192.268196613133 -74.5077672132348 10.8323209592288
   endloop
endfacet
facet normal 4.03493869120646e-016 0.99660881545336 0.0822852900623874
   outer loop
      vertex -184.336371853972 -74.5077672132348 10.8323209592288
      vertex -192.268664524058 -74.5649138468346 11.5244597215262
      vertex -184.337371492325 -74.6298544815973 12.3109965258151
   endloop
endfacet
facet normal 4.03493869120646e-016 0.99660881545336 0.0822852900623874
   outer loop
      vertex -184.337371492325 -74.6298544815973 12.3109965258151
      vertex -192.268664524058 -74.5649138468346 11.5244597215262
      vertex -192.223849244237 -74.7378172132348 13.6186009592288
   endloop
endfacet
facet normal 4.03493869120646e-016 0.99660881545336 0.0822852900623874
   outer loop
      vertex -184.337371492325 -74.6298544815973 12.3109965258151
      vertex -192.223849244237 -74.7378172132348 13.6186009592288
      vertex -184.367249557857 -74.7378172132348 13.6186009592288
   endloop
endfacet
facet normal 4.03493869120646e-016 0.99660881545336 0.0822852900623874
   outer loop
      vertex -184.367249557857 -74.7378172132348 13.6186009592288
      vertex -192.223849244237 -74.7378172132348 13.6186009592288
      vertex -192.845033533571 -74.8101186418062 14.4942889592287
   endloop
endfacet
facet normal 4.03493869120646e-016 0.99660881545336 0.0822852900623874
   outer loop
      vertex -184.367249557857 -74.7378172132348 13.6186009592288
      vertex -192.845033533571 -74.8101186418062 14.4942889592287
      vertex -183.74452018883 -74.8101186418062 14.4942889592287
   endloop
endfacet
facet normal 4.03493869120646e-016 0.99660881545336 0.0822852900623874
   outer loop
      vertex -183.74452018883 -74.8101186418062 14.4942889592287
      vertex -192.845033533571 -74.8101186418062 14.4942889592287
      vertex -190.564211178234 -74.9920259057367 16.6974820535313
   endloop
endfacet
facet normal 4.03493869120646e-016 0.99660881545336 0.0822852900623874
   outer loop
      vertex -183.74452018883 -74.8101186418062 14.4942889592287
      vertex -190.564211178234 -74.9920259057367 16.6974820535313
      vertex -186.120462599952 -74.9985370161779 16.7763422004573
   endloop
endfacet
facet normal 4.03493869120646e-016 0.99660881545336 0.0822852900623874
   outer loop
      vertex -186.120462599952 -74.9985370161779 16.7763422004573
      vertex -190.564211178234 -74.9920259057367 16.6974820535313
      vertex -189.603434255185 -75.059554972648 17.5153689848667
   endloop
endfacet
facet normal 4.03493869120646e-016 0.99660881545336 0.0822852900623874
   outer loop
      vertex -186.120462599952 -74.9985370161779 16.7763422004573
      vertex -189.603434255185 -75.059554972648 17.5153689848667
      vertex -187.034301852896 -75.0620898124825 17.5460700217455
   endloop
endfacet
facet normal 4.03493869120646e-016 0.99660881545336 0.0822852900623874
   outer loop
      vertex -187.034301852896 -75.0620898124825 17.5460700217455
      vertex -189.603434255185 -75.059554972648 17.5153689848667
      vertex -189.089586553783 -75.0886554375572 17.8678229877668
   endloop
endfacet
facet normal 4.03493869120646e-016 0.99660881545336 0.0822852900623874
   outer loop
      vertex -187.034301852896 -75.0620898124825 17.5460700217455
      vertex -189.089586553783 -75.0886554375572 17.8678229877668
      vertex -187.533351710409 -75.089867625847 17.882504561286
   endloop
endfacet
facet normal 4.03493869120646e-016 0.99660881545336 0.0822852900623874
   outer loop
      vertex -187.533351710409 -75.089867625847 17.882504561286
      vertex -189.089586553783 -75.0886554375572 17.8678229877668
      vertex -188.734234715642 -75.1027898329852 18.0390135258807
   endloop
endfacet
facet normal 4.03493869120646e-016 0.99660881545336 0.0822852900623874
   outer loop
      vertex -187.533351710409 -75.089867625847 17.882504561286
      vertex -188.734234715642 -75.1027898329852 18.0390135258807
      vertex -187.882731227695 -75.1033671432253 18.046005692696
   endloop
endfacet
facet normal 4.03493869120646e-016 0.99660881545336 0.0822852900623874
   outer loop
      vertex -187.882731227695 -75.1033671432253 18.046005692696
      vertex -188.734234715642 -75.1027898329852 18.0390135258807
      vertex -188.443428270733 -75.1088258259687 18.1121192269463
   endloop
endfacet
facet normal 4.03493869120646e-016 0.99660881545336 0.0822852900623874
   outer loop
      vertex -187.882731227695 -75.1033671432253 18.046005692696
      vertex -188.443428270733 -75.1088258259687 18.1121192269463
      vertex -188.1712550524 -75.108998756883 18.1142137018336
   endloop
endfacet
facet normal 0.00668426924960822 0.816359407559014 -0.577505530912471
   outer loop
      vertex -188.864838328535 -69.4852738723211 14.4942889592287
      vertex -187.744185624067 -70.1139251783679 13.6186009592288
      vertex -188.788360160792 -70.1053755816064 13.6186009592288
   endloop
endfacet
facet normal 0.00668426924960822 0.816359407559014 -0.577505530912471
   outer loop
      vertex -187.744185624067 -70.1139251783679 13.6186009592288
      vertex -188.864838328535 -69.4852738723211 14.4942889592287
      vertex -187.657563729174 -69.4951589160966 14.4942889592287
   endloop
endfacet
facet normal -7.41667995267051e-016 -1.40174706557318e-015 1.0
   outer loop
      vertex -196.823244081021 -96.5622625047038 10.1954569592287
      vertex -193.889292081021 -62.6417582343501 10.1954569592287
      vertex -199.479660081021 -70.0294021294578 10.1954569592288
   endloop
endfacet
facet normal -7.41667995267051e-016 -1.40174706557318e-015 1.0
   outer loop
      vertex -193.889292081021 -62.6417582343501 10.1954569592287
      vertex -196.823244081021 -96.5622625047038 10.1954569592287
      vertex -192.268664524058 -74.5649138468346 10.1954569592288
   endloop
endfacet
facet normal -7.41667995267051e-016 -1.40174706557318e-015 1.0
   outer loop
      vertex -192.268664524058 -74.5649138468346 10.1954569592288
      vertex -196.823244081021 -96.5622625047038 10.1954569592287
      vertex -192.006670543858 -75.5757217974806 10.1954569592288
   endloop
endfacet
facet normal -7.41667995267051e-016 -1.40174706557318e-015 1.0
   outer loop
      vertex -192.006670543858 -75.5757217974806 10.1954569592288
      vertex -196.823244081021 -96.5622625047038 10.1954569592287
      vertex -184.333414642638 -93.9023411302017 10.1954569592287
   endloop
endfacet
facet normal -7.41667995267051e-016 -1.40174706557318e-015 1.0
   outer loop
      vertex -192.006670543858 -75.5757217974806 10.1954569592288
      vertex -184.333414642638 -93.9023411302017 10.1954569592287
      vertex -191.491987443483 -76.4842782706501 10.1954569592288
   endloop
endfacet
facet normal -7.41667995267051e-016 -1.40174706557318e-015 1.0
   outer loop
      vertex -191.491987443483 -76.4842782706501 10.1954569592288
      vertex -184.333414642638 -93.9023411302017 10.1954569592287
      vertex -190.759690025669 -77.2286666441571 10.1954569592287
   endloop
endfacet
facet normal -7.41667995267051e-016 -1.40174706557318e-015 1.0
   outer loop
      vertex -190.759690025669 -77.2286666441571 10.1954569592287
      vertex -184.333414642638 -93.9023411302017 10.1954569592287
      vertex -189.859683149261 -77.7581580805072 10.1954569592288
   endloop
endfacet
facet normal -7.41667995267051e-016 -1.40174706557318e-015 1.0
   outer loop
      vertex -189.859683149261 -77.7581580805072 10.1954569592288
      vertex -184.333414642638 -93.9023411302017 10.1954569592287
      vertex -188.853300795555 -78.0366686133389 10.1954569592287
   endloop
endfacet
facet normal -7.41667995267051e-016 -1.40174706557318e-015 1.0
   outer loop
      vertex -188.853300795555 -78.0366686133389 10.1954569592287
      vertex -184.333414642638 -93.9023411302017 10.1954569592287
      vertex -187.80912625883 -78.0452182101003 10.1954569592288
   endloop
endfacet
facet normal -7.41667995267051e-016 -1.40174706557318e-015 1.0
   outer loop
      vertex -187.80912625883 -78.0452182101003 10.1954569592288
      vertex -184.333414642638 -93.9023411302017 10.1954569592287
      vertex -186.798318308184 -77.783224229901 10.1954569592288
   endloop
endfacet
facet normal -7.41667995267051e-016 -1.40174706557318e-015 1.0
   outer loop
      vertex -186.798318308184 -77.783224229901 10.1954569592288
      vertex -184.333414642638 -93.9023411302017 10.1954569592287
      vertex -185.889761835014 -77.2685411295259 10.1954569592287
   endloop
endfacet
facet normal -7.41667995267051e-016 -1.40174706557318e-015 1.0
   outer loop
      vertex -185.889761835014 -77.2685411295259 10.1954569592287
      vertex -184.333414642638 -93.9023411302017 10.1954569592287
      vertex -185.145373461507 -76.5362437117118 10.1954569592288
   endloop
endfacet
facet normal -7.41667995267051e-016 -1.40174706557318e-015 1.0
   outer loop
      vertex -185.145373461507 -76.5362437117118 10.1954569592288
      vertex -184.333414642638 -93.9023411302017 10.1954569592287
      vertex -184.615882025157 -75.6362368353037 10.1954569592288
   endloop
endfacet
facet normal -7.41667995267051e-016 -1.40174706557318e-015 1.0
   outer loop
      vertex -184.615882025157 -75.6362368353037 10.1954569592288
      vertex -184.333414642638 -93.9023411302017 10.1954569592287
      vertex -184.337371492325 -74.6298544815974 10.1954569592288
   endloop
endfacet
facet normal -7.41667995267051e-016 -1.40174706557318e-015 1.0
   outer loop
      vertex -184.337371492325 -74.6298544815974 10.1954569592288
      vertex -184.333414642638 -93.9023411302017 10.1954569592287
      vertex -184.333096693945 -74.1077672132348 10.1954569592288
   endloop
endfacet
facet normal -7.41667995267051e-016 -1.40174706557318e-015 1.0
   outer loop
      vertex -184.333096693945 -74.1077672132348 10.1954569592288
      vertex -184.333414642638 -93.9023411302017 10.1954569592287
      vertex -179.259180081021 -88.2406519660615 10.1954569592288
   endloop
endfacet
facet normal -7.41667995267051e-016 -1.40174706557318e-015 1.0
   outer loop
      vertex -184.333096693945 -74.1077672132348 10.1954569592288
      vertex -179.259180081021 -88.2406519660615 10.1954569592288
      vertex -184.328821895564 -73.5856799448722 10.1954569592288
   endloop
endfacet
facet normal -7.41667995267051e-016 -1.40174706557318e-015 1.0
   outer loop
      vertex -184.328821895564 -73.5856799448722 10.1954569592288
      vertex -179.259180081021 -88.2406519660615 10.1954569592288
      vertex -183.501516081021 -62.6417582343501 10.1954569592287
   endloop
endfacet
facet normal -7.41667995267051e-016 -1.40174706557318e-015 1.0
   outer loop
      vertex -183.501516081021 -62.6417582343501 10.1954569592287
      vertex -179.259180081021 -88.2406519660615 10.1954569592288
      vertex -177.593964081021 -70.0294021294578 10.1954569592288
   endloop
endfacet
facet normal -7.41667995267051e-016 -1.40174706557318e-015 1.0
   outer loop
      vertex -193.889292081021 -62.6417582343501 10.1954569592287
      vertex -191.452112958115 -71.6143500799951 10.1954569592288
      vertex -183.501516081021 -62.6417582343501 10.1954569592287
   endloop
endfacet
facet normal -7.41667995267051e-016 -1.40174706557318e-015 1.0
   outer loop
      vertex -191.452112958115 -71.6143500799951 10.1954569592288
      vertex -193.889292081021 -62.6417582343501 10.1954569592287
      vertex -191.981604394465 -72.5143569564032 10.1954569592287
   endloop
endfacet
facet normal -7.41667995267051e-016 -1.40174706557318e-015 1.0
   outer loop
      vertex -191.981604394465 -72.5143569564032 10.1954569592287
      vertex -193.889292081021 -62.6417582343501 10.1954569592287
      vertex -192.260114927296 -73.5207393101095 10.1954569592288
   endloop
endfacet
facet normal -7.41667995267051e-016 -1.40174706557318e-015 1.0
   outer loop
      vertex -192.260114927296 -73.5207393101095 10.1954569592288
      vertex -193.889292081021 -62.6417582343501 10.1954569592287
      vertex -192.268664524058 -74.5649138468346 10.1954569592288
   endloop
endfacet
facet normal -7.41667995267051e-016 -1.40174706557318e-015 1.0
   outer loop
      vertex -183.501516081021 -62.6417582343501 10.1954569592287
      vertex -191.452112958115 -71.6143500799951 10.1954569592288
      vertex -190.707724584607 -70.8820526621809 10.1954569592288
   endloop
endfacet
facet normal -7.41667995267051e-016 -1.40174706557318e-015 1.0
   outer loop
      vertex -183.501516081021 -62.6417582343501 10.1954569592287
      vertex -190.707724584607 -70.8820526621809 10.1954569592288
      vertex -189.799168111438 -70.3673695618059 10.1954569592288
   endloop
endfacet
facet normal -7.41667995267051e-016 -1.40174706557318e-015 1.0
   outer loop
      vertex -183.501516081021 -62.6417582343501 10.1954569592287
      vertex -189.799168111438 -70.3673695618059 10.1954569592288
      vertex -188.788360160792 -70.1053755816065 10.1954569592288
   endloop
endfacet
facet normal -7.41667995267051e-016 -1.40174706557318e-015 1.0
   outer loop
      vertex -183.501516081021 -62.6417582343501 10.1954569592287
      vertex -188.788360160792 -70.1053755816065 10.1954569592288
      vertex -187.744185624067 -70.113925178368 10.1954569592287
   endloop
endfacet
facet normal -7.41667995267051e-016 -1.40174706557318e-015 1.0
   outer loop
      vertex -183.501516081021 -62.6417582343501 10.1954569592287
      vertex -187.744185624067 -70.113925178368 10.1954569592287
      vertex -186.737803270361 -70.3924357111997 10.1954569592288
   endloop
endfacet
facet normal -7.41667995267051e-016 -1.40174706557318e-015 1.0
   outer loop
      vertex -183.501516081021 -62.6417582343501 10.1954569592287
      vertex -186.737803270361 -70.3924357111997 10.1954569592288
      vertex -185.837796393953 -70.9219271475498 10.1954569592288
   endloop
endfacet
facet normal -7.41667995267051e-016 -1.40174706557318e-015 1.0
   outer loop
      vertex -183.501516081021 -62.6417582343501 10.1954569592287
      vertex -185.837796393953 -70.9219271475498 10.1954569592288
      vertex -185.105498976138 -71.6663155210568 10.1954569592287
   endloop
endfacet
facet normal -7.41667995267051e-016 -1.40174706557318e-015 1.0
   outer loop
      vertex -183.501516081021 -62.6417582343501 10.1954569592287
      vertex -185.105498976138 -71.6663155210568 10.1954569592287
      vertex -184.590815875763 -72.5748719942263 10.1954569592288
   endloop
endfacet
facet normal -7.41667995267051e-016 -1.40174706557318e-015 1.0
   outer loop
      vertex -183.501516081021 -62.6417582343501 10.1954569592287
      vertex -184.590815875763 -72.5748719942263 10.1954569592288
      vertex -184.328821895564 -73.5856799448722 10.1954569592288
   endloop
endfacet
facet normal -0.351783088790097 0.620993388434315 0.700439768975297
   outer loop
      vertex -189.019778054755 -73.1195234785143 17.9569101927737
      vertex -190.033534481072 -69.7881913122276 14.4942889592288
      vertex -191.084007475351 -70.3832679128812 14.4942889592288
   endloop
endfacet
facet normal -0.351783088790097 0.620993388434315 0.700439768975297
   outer loop
      vertex -190.033534481072 -69.7881913122276 14.4942889592288
      vertex -189.019778054755 -73.1195234785143 17.9569101927737
      vertex -188.690646092524 -73.1068062972713 18.1109359600137
   endloop
endfacet
facet normal -0.710330120189373 -0.402390956803609 -0.577505530912412
   outer loop
      vertex -192.585848793437 -75.8100881671147 14.4942889592288
      vertex -191.491987443483 -76.4842782706501 13.6186009592287
      vertex -191.990772192783 -76.8605611613933 14.4942889592288
   endloop
endfacet
facet normal -0.710330120189373 -0.402390956803609 -0.577505530912412
   outer loop
      vertex -191.491987443483 -76.4842782706501 13.6186009592287
      vertex -192.585848793437 -75.8100881671147 14.4942889592288
      vertex -192.006670543858 -75.5757217974805 13.6186009592288
   endloop
endfacet
facet normal -0.712872605151175 -0.70129355395938 2.93935673136084e-018
   outer loop
      vertex -191.491987443483 -76.4842782706501 13.6186009592287
      vertex -190.759690025669 -77.2286666441571 10.1954569592287
      vertex -190.759690025669 -77.2286666441571 13.6186009592287
   endloop
endfacet
facet normal -0.712872605151175 -0.70129355395938 2.93935673136084e-018
   outer loop
      vertex -190.759690025669 -77.2286666441571 10.1954569592287
      vertex -191.491987443483 -76.4842782706501 13.6186009592287
      vertex -191.491987443483 -76.4842782706501 10.1954569592288
   endloop
endfacet
facet normal 0.00818762561755356 0.999966480831606 -2.30653634280412e-014
   outer loop
      vertex -188.788360160792 -70.1053755816065 10.1954569592288
      vertex -187.744185624067 -70.1139251783679 13.6186009592288
      vertex -187.744185624067 -70.113925178368 10.1954569592287
   endloop
endfacet
facet normal 0.00818762561755356 0.999966480831606 -2.30653634280412e-014
   outer loop
      vertex -187.744185624067 -70.1139251783679 13.6186009592288
      vertex -188.788360160792 -70.1053755816065 10.1954569592288
      vertex -188.788360160792 -70.1053755816064 13.6186009592288
   endloop
endfacet
facet normal 0.402390956803627 -0.710330120189319 -0.577505530912467
   outer loop
      vertex -185.889761835014 -77.2685411295259 13.6186009592288
      vertex -186.56395193855 -78.3624024794792 14.4942889592287
      vertex -186.798318308184 -77.7832242299009 13.6186009592287
   endloop
endfacet
facet normal 0.402390956803627 -0.710330120189319 -0.577505530912467
   outer loop
      vertex -186.56395193855 -78.3624024794792 14.4942889592287
      vertex -185.889761835014 -77.2685411295259 13.6186009592288
      vertex -185.513478944271 -77.7673258788256 14.4942889592287
   endloop
endfacet
facet normal -0.615149785731119 0.361904505571279 0.700439768975296
   outer loop
      vertex -190.350786148622 -73.2055612148006 16.9148531449148
      vertex -191.9446693128 -71.229950187358 14.4942889592287
      vertex -192.556867311507 -72.270538137861 14.4942889592287
   endloop
endfacet
facet normal -0.615149785731119 0.361904505571279 0.700439768975296
   outer loop
      vertex -191.9446693128 -71.229950187358 14.4942889592287
      vertex -190.350786148622 -73.2055612148006 16.9148531449148
      vertex -189.489906527454 -73.1456914871319 17.639973009331
   endloop
endfacet
facet normal -0.413968450755385 -0.703645850939754 -0.577505530912437
   outer loop
      vertex -189.859683149261 -77.7581580805071 13.6186009592288
      vertex -191.144089918306 -77.7212229988421 14.4942889592288
      vertex -190.759690025669 -77.2286666441571 13.6186009592287
   endloop
endfacet
facet normal -0.413968450755385 -0.703645850939754 -0.577505530912437
   outer loop
      vertex -191.144089918306 -77.7212229988421 14.4942889592288
      vertex -189.859683149261 -77.7581580805071 13.6186009592288
      vertex -190.103501967803 -78.33342099755 14.4942889592287
   endloop
endfacet
facet normal -0.0 0.824122836921176 -0.566411113648905
   outer loop
      vertex -193.889292081021 -62.6417582343501 10.1954569592287
      vertex -183.501516081021 -68.58895823435 1.54233695922875
      vertex -193.889292081021 -68.58895823435 1.54233695922875
   endloop
endfacet
facet normal -0.0 0.824122836921176 -0.566411113648905
   outer loop
      vertex -183.501516081021 -68.58895823435 1.54233695922875
      vertex -193.889292081021 -62.6417582343501 10.1954569592287
      vertex -183.501516081021 -62.6417582343501 10.1954569592287
   endloop
endfacet
facet normal -0.179071454904509 0.690881714967342 0.700439768975296
   outer loop
      vertex -188.690646092524 -73.1068062972713 18.1109359600137
      vertex -188.864838328535 -69.4852738723211 14.4942889592287
      vertex -190.033534481072 -69.7881913122276 14.4942889592288
   endloop
endfacet
facet normal -0.179071454904509 0.690881714967342 0.700439768975296
   outer loop
      vertex -188.864838328535 -69.4852738723211 14.4942889592287
      vertex -188.690646092524 -73.1068062972713 18.1109359600137
      vertex -188.418843059212 -73.1015010519379 18.1751911174474
   endloop
endfacet
facet normal 0.999966480831606 -0.00818762561753999 9.13599279637657e-015
   outer loop
      vertex -184.337371492325 -74.6298544815974 10.1954569592288
      vertex -184.336371853972 -74.5077672132348 10.8323209592288
      vertex -184.337371492325 -74.6298544815973 12.3109965258151
   endloop
endfacet
facet normal 0.999966480831606 -0.00818762561753999 9.13599279637657e-015
   outer loop
      vertex -184.336371853972 -74.5077672132348 10.8323209592288
      vertex -184.337371492325 -74.6298544815974 10.1954569592288
      vertex -184.333096693945 -74.1077672132348 10.1954569592288
   endloop
endfacet
facet normal 0.999966480831606 -0.00818762561753999 9.13599279637657e-015
   outer loop
      vertex -184.336371853972 -74.5077672132348 10.8323209592288
      vertex -184.333096693945 -74.1077672132348 10.1954569592288
      vertex -184.329821533917 -73.7077672132348 10.8323209592288
   endloop
endfacet
facet normal 0.999966480831606 -0.00818762561753999 9.13599279637657e-015
   outer loop
      vertex -184.329821533917 -73.7077672132348 10.8323209592288
      vertex -184.333096693945 -74.1077672132348 10.1954569592288
      vertex -184.328821895564 -73.5856799448722 10.1954569592288
   endloop
endfacet
facet normal 0.999966480831606 -0.00818762561753999 9.13599279637657e-015
   outer loop
      vertex -184.329821533917 -73.7077672132348 10.8323209592288
      vertex -184.328821895564 -73.5856799448722 10.1954569592288
      vertex -184.328821895564 -73.5856799448722 12.3109965258151
   endloop
endfacet
facet normal 0.179071454904493 -0.690881714967362 0.700439768975281
   outer loop
      vertex -187.732648091086 -78.6653199193856 14.4942889592287
      vertex -187.882731227695 -75.1033671432253 18.046005692696
      vertex -188.1712550524 -75.108998756883 18.1142137018336
   endloop
endfacet
facet normal 0.179071454904493 -0.690881714967362 0.700439768975281
   outer loop
      vertex -187.882731227695 -75.1033671432253 18.046005692696
      vertex -187.732648091086 -78.6653199193856 14.4942889592287
      vertex -186.56395193855 -78.3624024794792 14.4942889592287
   endloop
endfacet
facet normal -0.995025561769655 -0.0996199348774278 9.95304903245988e-017
   outer loop
      vertex -196.823244081021 -96.5622625047038 10.1954569592287
      vertex -198.953811167576 -75.2816953692655 1.54233695922872
      vertex -196.823244081021 -96.5622625047038 1.54233695922867
   endloop
endfacet
facet normal -0.995025561769655 -0.0996199348774278 9.95304903245988e-017
   outer loop
      vertex -198.953811167576 -75.2816953692655 1.54233695922872
      vertex -196.823244081021 -96.5622625047038 10.1954569592287
      vertex -199.479660081021 -70.0294021294578 10.1954569592288
   endloop
endfacet
facet normal 1.30110168386115e-015 -0.996608815453358 0.0822852900624042
   outer loop
      vertex -184.328821895564 -73.5856799448722 12.3109965258151
      vertex -192.261646293077 -73.7077672132348 10.8323209592288
      vertex -184.329821533917 -73.7077672132348 10.8323209592288
   endloop
endfacet
facet normal 1.30110168386115e-015 -0.996608815453358 0.0822852900624042
   outer loop
      vertex -192.261646293077 -73.7077672132348 10.8323209592288
      vertex -184.328821895564 -73.5856799448722 12.3109965258151
      vertex -192.260114927296 -73.5207393101095 13.0975333301039
   endloop
endfacet
facet normal 1.30110168386115e-015 -0.996608815453358 0.0822852900624042
   outer loop
      vertex -192.260114927296 -73.5207393101095 13.0975333301039
      vertex -184.328821895564 -73.5856799448722 12.3109965258151
      vertex -184.356805040885 -73.4777172132348 13.6186009592288
   endloop
endfacet
facet normal 1.30110168386115e-015 -0.996608815453358 0.0822852900624042
   outer loop
      vertex -192.260114927296 -73.5207393101095 13.0975333301039
      vertex -184.356805040885 -73.4777172132348 13.6186009592288
      vertex -192.248208809229 -73.4777172132348 13.6186009592288
   endloop
endfacet
facet normal 1.30110168386115e-015 -0.996608815453358 0.0822852900624042
   outer loop
      vertex -192.248208809229 -73.4777172132348 13.6186009592288
      vertex -184.356805040885 -73.4777172132348 13.6186009592288
      vertex -183.735620751552 -73.4054157846633 14.4942889592287
   endloop
endfacet
facet normal 1.30110168386115e-015 -0.996608815453358 0.0822852900624042
   outer loop
      vertex -192.248208809229 -73.4777172132348 13.6186009592288
      vertex -183.735620751552 -73.4054157846633 14.4942889592287
      vertex -192.870938178257 -73.4054157846633 14.4942889592287
   endloop
endfacet
facet normal 1.30110168386115e-015 -0.996608815453358 0.0822852900624042
   outer loop
      vertex -192.870938178257 -73.4054157846633 14.4942889592287
      vertex -183.735620751552 -73.4054157846633 14.4942889592287
      vertex -186.164565672415 -73.2116949875314 16.840563171933
   endloop
endfacet
facet normal 1.30110168386115e-015 -0.996608815453358 0.0822852900624042
   outer loop
      vertex -192.870938178257 -73.4054157846633 14.4942889592287
      vertex -186.164565672415 -73.2116949875314 16.840563171933
      vertex -190.350786148622 -73.2055612148006 16.9148531449148
   endloop
endfacet
facet normal 1.30110168386115e-015 -0.996608815453358 0.0822852900624042
   outer loop
      vertex -190.350786148622 -73.2055612148006 16.9148531449148
      vertex -186.164565672415 -73.2116949875314 16.840563171933
      vertex -187.069662789743 -73.1480794256554 17.6110511864694
   endloop
endfacet
facet normal 1.30110168386115e-015 -0.996608815453358 0.0822852900624042
   outer loop
      vertex -190.350786148622 -73.2055612148006 16.9148531449148
      vertex -187.069662789743 -73.1480794256554 17.6110511864694
      vertex -189.489906527454 -73.1456914871319 17.639973009331
   endloop
endfacet
facet normal 1.30110168386115e-015 -0.996608815453358 0.0822852900624042
   outer loop
      vertex -189.489906527454 -73.1456914871319 17.639973009331
      vertex -187.069662789743 -73.1480794256554 17.6110511864694
      vertex -187.553731528414 -73.1206654169814 17.9430794589672
   endloop
endfacet
facet normal 1.30110168386115e-015 -0.996608815453358 0.0822852900624042
   outer loop
      vertex -189.489906527454 -73.1456914871319 17.639973009331
      vertex -187.553731528414 -73.1206654169814 17.9430794589672
      vertex -189.019778054755 -73.1195234785143 17.9569101927737
   endloop
endfacet
facet normal 1.30110168386115e-015 -0.996608815453358 0.0822852900624042
   outer loop
      vertex -189.019778054755 -73.1195234785143 17.9569101927737
      vertex -187.553731528414 -73.1206654169814 17.9430794589672
      vertex -187.888489698207 -73.1073501507107 18.1043490095192
   endloop
endfacet
facet normal 1.30110168386115e-015 -0.996608815453358 0.0822852900624042
   outer loop
      vertex -189.019778054755 -73.1195234785143 17.9569101927737
      vertex -187.888489698207 -73.1073501507107 18.1043490095192
      vertex -188.690646092524 -73.1068062972713 18.1109359600137
   endloop
endfacet
facet normal 1.30110168386115e-015 -0.996608815453358 0.0822852900624042
   outer loop
      vertex -188.690646092524 -73.1068062972713 18.1109359600137
      vertex -187.888489698207 -73.1073501507107 18.1043490095192
      vertex -188.16244306727 -73.1016639610047 18.1732180234468
   endloop
endfacet
facet normal 1.30110168386115e-015 -0.996608815453358 0.0822852900624042
   outer loop
      vertex -188.690646092524 -73.1068062972713 18.1109359600137
      vertex -188.16244306727 -73.1016639610047 18.1732180234468
      vertex -188.418843059212 -73.1015010519379 18.1751911174474
   endloop
endfacet
facet normal -0.870090188141892 -0.492892548634292 4.8720542193038e-015
   outer loop
      vertex -192.006670543858 -75.5757217974805 13.6186009592288
      vertex -191.491987443483 -76.4842782706501 10.1954569592288
      vertex -191.491987443483 -76.4842782706501 13.6186009592287
   endloop
endfacet
facet normal -0.870090188141892 -0.492892548634292 4.8720542193038e-015
   outer loop
      vertex -191.491987443483 -76.4842782706501 10.1954569592288
      vertex -192.006670543858 -75.5757217974805 13.6186009592288
      vertex -192.006670543858 -75.5757217974806 10.1954569592288
   endloop
endfacet
facet normal -0.00818762561750894 -0.999966480831606 9.88510255816608e-015
   outer loop
      vertex -187.80912625883 -78.0452182101003 10.1954569592288
      vertex -188.853300795555 -78.0366686133389 13.6186009592288
      vertex -188.853300795555 -78.0366686133389 10.1954569592287
   endloop
endfacet
facet normal -0.00818762561750894 -0.999966480831606 9.88510255816608e-015
   outer loop
      vertex -188.853300795555 -78.0366686133389 13.6186009592288
      vertex -187.80912625883 -78.0452182101003 10.1954569592288
      vertex -187.80912625883 -78.0452182101003 13.6186009592287
   endloop
endfacet
facet normal -0.701293553959309 0.712872605151245 -1.64421748183238e-014
   outer loop
      vertex -191.452112958115 -71.6143500799951 13.6186009592287
      vertex -190.707724584607 -70.8820526621809 10.1954569592288
      vertex -191.452112958115 -71.6143500799951 10.1954569592288
   endloop
endfacet
facet normal -0.701293553959309 0.712872605151245 -1.64421748183238e-014
   outer loop
      vertex -190.707724584607 -70.8820526621809 10.1954569592288
      vertex -191.452112958115 -71.6143500799951 13.6186009592287
      vertex -190.707724584607 -70.8820526621808 13.6186009592288
   endloop
endfacet
facet normal -0.190360428443733 -0.68785684362414 0.700439768975287
   outer loop
      vertex -188.939922690448 -78.6554348756101 14.4942889592287
      vertex -188.734234715642 -75.1027898329852 18.0390135258807
      vertex -190.103501967803 -78.33342099755 14.4942889592287
   endloop
endfacet
facet normal -0.190360428443733 -0.68785684362414 0.700439768975287
   outer loop
      vertex -188.734234715642 -75.1027898329852 18.0390135258807
      vertex -188.939922690448 -78.6554348756101 14.4942889592287
      vertex -188.443428270733 -75.1088258259687 18.1121192269463
   endloop
endfacet
facet normal -0.250901730663431 0.968012562702621 -2.23271184836214e-014
   outer loop
      vertex -189.799168111438 -70.3673695618059 10.1954569592288
      vertex -188.788360160792 -70.1053755816064 13.6186009592288
      vertex -188.788360160792 -70.1053755816065 10.1954569592288
   endloop
endfacet
facet normal -0.250901730663431 0.968012562702621 -2.23271184836214e-014
   outer loop
      vertex -188.788360160792 -70.1053755816064 13.6186009592288
      vertex -189.799168111438 -70.3673695618059 10.1954569592288
      vertex -189.799168111438 -70.3673695618058 13.6186009592288
   endloop
endfacet
facet normal 0.581979765084064 0.572526780856782 -0.577505530912448
   outer loop
      vertex -185.837796393953 -70.9219271475496 13.6186009592287
      vertex -184.606714226839 -71.2900326303134 14.4942889592287
      vertex -185.105498976138 -71.6663155210567 13.6186009592287
   endloop
endfacet
facet normal 0.581979765084064 0.572526780856782 -0.577505530912448
   outer loop
      vertex -184.606714226839 -71.2900326303134 14.4942889592287
      vertex -185.837796393953 -70.9219271475496 13.6186009592287
      vertex -185.453396501315 -70.4293707928647 14.4942889592288
   endloop
endfacet
facet normal 0.361904505571296 0.615149785731102 0.700439768975302
   outer loop
      vertex -187.553731528414 -73.1206654169814 17.9430794589672
      vertex -186.493984451818 -69.8171727941567 14.4942889592288
      vertex -187.888489698207 -73.1073501507107 18.1043490095192
   endloop
endfacet
facet normal 0.361904505571296 0.615149785731102 0.700439768975302
   outer loop
      vertex -186.493984451818 -69.8171727941567 14.4942889592288
      vertex -187.553731528414 -73.1206654169814 17.9430794589672
      vertex -185.453396501315 -70.4293707928647 14.4942889592288
   endloop
endfacet
facet normal -0.620993388434315 -0.351783088790087 0.700439768975302
   outer loop
      vertex -191.990772192783 -76.8605611613933 14.4942889592288
      vertex -190.564211178234 -74.9920259057367 16.6974820535313
      vertex -192.585848793437 -75.8100881671147 14.4942889592288
   endloop
endfacet
facet normal -0.620993388434315 -0.351783088790087 0.700439768975302
   outer loop
      vertex -190.564211178234 -74.9920259057367 16.6974820535313
      vertex -191.990772192783 -76.8605611613933 14.4942889592288
      vertex -189.603434255185 -75.059554972648 17.5153689848667
   endloop
endfacet
facet normal -0.968012562702615 -0.250901730663451 7.16300935182347e-015
   outer loop
      vertex -192.006670543858 -75.5757217974805 13.6186009592288
      vertex -192.268664524058 -74.5649138468346 10.1954569592288
      vertex -192.006670543858 -75.5757217974806 10.1954569592288
   endloop
endfacet
facet normal -0.968012562702615 -0.250901730663451 7.16300935182347e-015
   outer loop
      vertex -192.268664524058 -74.5649138468346 10.1954569592288
      vertex -192.006670543858 -75.5757217974805 13.6186009592288
      vertex -192.223849244237 -74.7378172132348 13.6186009592288
   endloop
endfacet
facet normal -0.968012562702615 -0.250901730663451 7.16300935182347e-015
   outer loop
      vertex -192.268664524058 -74.5649138468346 10.1954569592288
      vertex -192.223849244237 -74.7378172132348 13.6186009592288
      vertex -192.268664524058 -74.5649138468346 11.5244597215262
   endloop
endfacet
facet normal 0.712872605151277 0.701293553959276 -2.08065185132648e-014
   outer loop
      vertex -185.837796393953 -70.9219271475498 10.1954569592288
      vertex -185.105498976138 -71.6663155210567 13.6186009592287
      vertex -185.105498976138 -71.6663155210568 10.1954569592287
   endloop
endfacet
facet normal 0.712872605151277 0.701293553959276 -2.08065185132648e-014
   outer loop
      vertex -185.105498976138 -71.6663155210567 13.6186009592287
      vertex -185.837796393953 -70.9219271475498 10.1954569592288
      vertex -185.837796393953 -70.9219271475496 13.6186009592287
   endloop
endfacet
facet normal 0.250901730663432 -0.96801256270262 1.59484119267769e-014
   outer loop
      vertex -186.798318308184 -77.7832242299009 13.6186009592287
      vertex -187.80912625883 -78.0452182101003 10.1954569592288
      vertex -186.798318308184 -77.783224229901 10.1954569592288
   endloop
endfacet
facet normal 0.250901730663432 -0.96801256270262 1.59484119267769e-014
   outer loop
      vertex -187.80912625883 -78.0452182101003 10.1954569592288
      vertex -186.798318308184 -77.7832242299009 13.6186009592287
      vertex -187.80912625883 -78.0452182101003 13.6186009592287
   endloop
endfacet
facet normal -0.963774335814654 0.266719008743325 -2.60432132950754e-015
   outer loop
      vertex -192.248208809229 -73.4777172132348 13.6186009592288
      vertex -192.260114927296 -73.5207393101095 10.1954569592288
      vertex -192.260114927296 -73.5207393101095 13.0975333301039
   endloop
endfacet
facet normal -0.963774335814654 0.266719008743325 -2.60432132950754e-015
   outer loop
      vertex -192.260114927296 -73.5207393101095 10.1954569592288
      vertex -192.248208809229 -73.4777172132348 13.6186009592288
      vertex -191.981604394465 -72.5143569564032 10.1954569592287
   endloop
endfacet
facet normal -0.963774335814654 0.266719008743325 -2.60432132950754e-015
   outer loop
      vertex -191.981604394465 -72.5143569564032 10.1954569592287
      vertex -192.248208809229 -73.4777172132348 13.6186009592288
      vertex -191.981604394465 -72.5143569564031 13.6186009592288
   endloop
endfacet
facet normal 0.508785388719638 0.500521286523603 0.700439768975295
   outer loop
      vertex -187.069662789743 -73.1480794256554 17.6110511864694
      vertex -185.453396501315 -70.4293707928647 14.4942889592288
      vertex -187.553731528414 -73.1206654169814 17.9430794589672
   endloop
endfacet
facet normal 0.508785388719638 0.500521286523603 0.700439768975295
   outer loop
      vertex -185.453396501315 -70.4293707928647 14.4942889592288
      vertex -187.069662789743 -73.1480794256554 17.6110511864694
      vertex -184.606714226839 -71.2900326303134 14.4942889592287
   endloop
endfacet
facet normal -1.84993912635106e-015 -1.0 2.6467811794783e-016
   outer loop
      vertex -179.734956081021 -100.507997371846 3.28755295922873
      vertex -198.199495627367 -100.507997371846 0.717555421499464
      vertex -183.278048449188 -100.507997371846 1.12798659301916e-014
   endloop
endfacet
facet normal -1.84993912635106e-015 -1.0 2.6467811794783e-016
   outer loop
      vertex -198.199495627367 -100.507997371846 0.717555421499464
      vertex -179.734956081021 -100.507997371846 3.28755295922873
      vertex -198.199495627367 -100.507997371846 11.0202384969581
   endloop
endfacet
facet normal -1.84993912635106e-015 -1.0 2.6467811794783e-016
   outer loop
      vertex -198.199495627367 -100.507997371846 11.0202384969581
      vertex -179.734956081021 -100.507997371846 3.28755295922873
      vertex -179.734956081021 -100.507997371846 8.53024095922875
   endloop
endfacet
facet normal -1.84993912635106e-015 -1.0 2.6467811794783e-016
   outer loop
      vertex -198.199495627367 -100.507997371846 11.0202384969581
      vertex -179.734956081021 -100.507997371846 8.53024095922875
      vertex -183.278048449188 -100.507997371846 11.7377939184574
   endloop
endfacet
facet normal -0.86190256252435 0.507073932197228 -5.01255309668725e-015
   outer loop
      vertex -191.981604394465 -72.5143569564031 13.6186009592288
      vertex -191.452112958115 -71.6143500799951 10.1954569592288
      vertex -191.981604394465 -72.5143569564032 10.1954569592287
   endloop
endfacet
facet normal -0.86190256252435 0.507073932197228 -5.01255309668725e-015
   outer loop
      vertex -191.452112958115 -71.6143500799951 10.1954569592288
      vertex -191.981604394465 -72.5143569564031 13.6186009592288
      vertex -191.452112958115 -71.6143500799951 13.6186009592287
   endloop
endfacet
facet normal -0.790272651479694 -0.204832854026878 -0.577505530912439
   outer loop
      vertex -192.845033533571 -74.8101186418062 14.4942889592287
      vertex -192.006670543858 -75.5757217974805 13.6186009592288
      vertex -192.585848793437 -75.8100881671147 14.4942889592288
   endloop
endfacet
facet normal -0.790272651479694 -0.204832854026878 -0.577505530912439
   outer loop
      vertex -192.006670543858 -75.5757217974805 13.6186009592288
      vertex -192.845033533571 -74.8101186418062 14.4942889592287
      vertex -192.223849244237 -74.7378172132348 13.6186009592288
   endloop
endfacet
facet normal 0.615149785731128 -0.361904505571284 0.700439768975286
   outer loop
      vertex -184.652817106822 -76.9206436043488 14.4942889592287
      vertex -186.120462599952 -74.9985370161779 16.7763422004573
      vertex -187.034301852896 -75.0620898124825 17.5460700217455
   endloop
endfacet
facet normal 0.615149785731128 -0.361904505571284 0.700439768975286
   outer loop
      vertex -186.120462599952 -74.9985370161779 16.7763422004573
      vertex -184.652817106822 -76.9206436043488 14.4942889592287
      vertex -184.040619108114 -75.8800556538458 14.4942889592288
   endloop
endfacet
facet normal -0.217745870622922 -0.786812619110925 -0.577505530912452
   outer loop
      vertex -188.853300795555 -78.0366686133389 13.6186009592288
      vertex -190.103501967803 -78.33342099755 14.4942889592287
      vertex -189.859683149261 -77.7581580805071 13.6186009592288
   endloop
endfacet
facet normal -0.217745870622922 -0.786812619110925 -0.577505530912452
   outer loop
      vertex -190.103501967803 -78.33342099755 14.4942889592287
      vertex -188.853300795555 -78.0366686133389 13.6186009592288
      vertex -188.939922690448 -78.6554348756101 14.4942889592287
   endloop
endfacet
facet normal -0.736587255954062 0.55738932240904 -0.383087924151176
   outer loop
      vertex -199.479660081021 -70.0294021294578 10.1954569592288
      vertex -193.889292081021 -68.58895823435 1.54233695922875
      vertex -198.953811167576 -75.2816953692655 1.54233695922872
   endloop
endfacet
facet normal -0.736587255954062 0.55738932240904 -0.383087924151176
   outer loop
      vertex -193.889292081021 -68.58895823435 1.54233695922875
      vertex -199.479660081021 -70.0294021294578 10.1954569592288
      vertex -193.889292081021 -62.6417582343501 10.1954569592287
   endloop
endfacet
facet normal -0.500521286523666 0.508785388719575 0.700439768975295
   outer loop
      vertex -189.489906527454 -73.1456914871319 17.639973009331
      vertex -191.084007475351 -70.3832679128812 14.4942889592288
      vertex -191.9446693128 -71.229950187358 14.4942889592287
   endloop
endfacet
facet normal -0.500521286523666 0.508785388719575 0.700439768975295
   outer loop
      vertex -191.084007475351 -70.3832679128812 14.4942889592288
      vertex -189.489906527454 -73.1456914871319 17.639973009331
      vertex -189.019778054755 -73.1195234785143 17.9569101927737
   endloop
endfacet
facet normal 0.820717642582941 0.571334010149143 -1.34851071184649e-015
   outer loop
      vertex -184.333414642638 -93.9023411302017 1.54233695922869
      vertex -179.734956081021 -100.507997371846 8.53024095922875
      vertex -179.734956081021 -100.507997371846 3.28755295922873
   endloop
endfacet
facet normal 0.820717642582941 0.571334010149143 -1.34851071184649e-015
   outer loop
      vertex -179.734956081021 -100.507997371846 8.53024095922875
      vertex -184.333414642638 -93.9023411302017 1.54233695922869
      vertex -184.333414642638 -93.9023411302017 10.1954569592287
   endloop
endfacet
facet normal -0.266719008743336 -0.963774335814652 1.5880913259103e-014
   outer loop
      vertex -188.853300795555 -78.0366686133389 13.6186009592288
      vertex -189.859683149261 -77.7581580805072 10.1954569592288
      vertex -188.853300795555 -78.0366686133389 10.1954569592287
   endloop
endfacet
facet normal -0.266719008743336 -0.963774335814652 1.5880913259103e-014
   outer loop
      vertex -189.859683149261 -77.7581580805072 10.1954569592288
      vertex -188.853300795555 -78.0366686133389 13.6186009592288
      vertex -189.859683149261 -77.7581580805071 13.6186009592288
   endloop
endfacet
facet normal -6.27016427478374e-032 2.11497486191111e-014 1.0
   outer loop
      vertex -184.336371853972 -74.5077672132348 10.8323209592288
      vertex -192.261646293077 -73.7077672132348 10.8323209592288
      vertex -192.268196613133 -74.5077672132348 10.8323209592288
   endloop
endfacet
facet normal -6.27016427478374e-032 2.11497486191111e-014 1.0
   outer loop
      vertex -192.261646293077 -73.7077672132348 10.8323209592288
      vertex -184.336371853972 -74.5077672132348 10.8323209592288
      vertex -184.329821533917 -73.7077672132348 10.8323209592288
   endloop
endfacet
facet normal 0.717681167826396 0.573895937399321 -0.39443275014113
   outer loop
      vertex -183.501516081021 -68.58895823435 1.54233695922875
      vertex -177.593964081021 -70.0294021294578 10.1954569592288
      vertex -178.081967047294 -75.3663337586358 1.54233695922871
   endloop
endfacet
facet normal 0.717681167826396 0.573895937399321 -0.39443275014113
   outer loop
      vertex -177.593964081021 -70.0294021294578 10.1954569592288
      vertex -183.501516081021 -68.58895823435 1.54233695922875
      vertex -183.501516081021 -62.6417582343501 10.1954569592287
   endloop
endfacet
facet normal 0.00584360270321361 0.713687594361342 0.700439768975297
   outer loop
      vertex -188.418843059212 -73.1015010519379 18.1751911174474
      vertex -187.657563729174 -69.4951589160966 14.4942889592287
      vertex -188.864838328535 -69.4852738723211 14.4942889592287
   endloop
endfacet
facet normal 0.00584360270321361 0.713687594361342 0.700439768975297
   outer loop
      vertex -187.657563729174 -69.4951589160966 14.4942889592287
      vertex -188.418843059212 -73.1015010519379 18.1751911174474
      vertex -188.16244306727 -73.1016639610047 18.1732180234468
   endloop
endfacet
facet normal 0.995845501013913 -0.0910589814919388 -2.36506978502361e-016
   outer loop
      vertex -179.259180081021 -88.2406519660615 1.54233695922868
      vertex -177.593964081021 -70.0294021294578 10.1954569592288
      vertex -179.259180081021 -88.2406519660615 10.1954569592288
   endloop
endfacet
facet normal 0.995845501013913 -0.0910589814919388 -2.36506978502361e-016
   outer loop
      vertex -177.593964081021 -70.0294021294578 10.1954569592288
      vertex -179.259180081021 -88.2406519660615 1.54233695922868
      vertex -178.081967047294 -75.3663337586358 1.54233695922871
   endloop
endfacet
facet normal -0.690881714967346 -0.179071454904468 0.700439768975303
   outer loop
      vertex -190.564211178234 -74.9920259057367 16.6974820535313
      vertex -192.845033533571 -74.8101186418062 14.4942889592287
      vertex -192.585848793437 -75.8100881671147 14.4942889592288
   endloop
endfacet
facet normal -0.999966480831607 0.00818762561749898 -1.27743299280135e-015
   outer loop
      vertex -192.268664524058 -74.5649138468346 10.1954569592288
      vertex -192.268196613133 -74.5077672132348 10.8323209592288
      vertex -192.260114927296 -73.5207393101095 10.1954569592288
   endloop
endfacet
facet normal -0.999966480831607 0.00818762561749898 -1.27743299280135e-015
   outer loop
      vertex -192.268196613133 -74.5077672132348 10.8323209592288
      vertex -192.268664524058 -74.5649138468346 10.1954569592288
      vertex -192.268664524058 -74.5649138468346 11.5244597215262
   endloop
endfacet
facet normal -0.999966480831607 0.00818762561749898 -1.27743299280135e-015
   outer loop
      vertex -192.260114927296 -73.5207393101095 10.1954569592288
      vertex -192.268196613133 -74.5077672132348 10.8323209592288
      vertex -192.261646293077 -73.7077672132348 10.8323209592288
   endloop
endfacet
facet normal -0.999966480831607 0.00818762561749898 -1.27743299280135e-015
   outer loop
      vertex -192.260114927296 -73.5207393101095 10.1954569592288
      vertex -192.261646293077 -73.7077672132348 10.8323209592288
      vertex -192.260114927296 -73.5207393101095 13.0975333301039
   endloop
endfacet
facet normal -0.687856843624133 0.190360428443712 0.7004397689753
   outer loop
      vertex -190.350786148622 -73.2055612148006 16.9148531449148
      vertex -192.556867311507 -72.270538137861 14.4942889592287
      vertex -192.870938178257 -73.4054157846633 14.4942889592287
   endloop
endfacet
facet normal 0.963774335814673 -0.266719008743259 -4.97434662990094e-015
   outer loop
      vertex -184.337371492325 -74.6298544815974 10.1954569592288
      vertex -184.615882025157 -75.6362368353037 13.6186009592288
      vertex -184.615882025157 -75.6362368353037 10.1954569592288
   endloop
endfacet
facet normal 0.963774335814673 -0.266719008743259 -4.97434662990094e-015
   outer loop
      vertex -184.615882025157 -75.6362368353037 13.6186009592288
      vertex -184.337371492325 -74.6298544815974 10.1954569592288
      vertex -184.367249557857 -74.7378172132348 13.6186009592288
   endloop
endfacet
facet normal 0.963774335814673 -0.266719008743259 -4.97434662990094e-015
   outer loop
      vertex -184.367249557857 -74.7378172132348 13.6186009592288
      vertex -184.337371492325 -74.6298544815974 10.1954569592288
      vertex -184.337371492325 -74.6298544815973 12.3109965258151
   endloop
endfacet
facet normal 0.687856843624142 -0.190360428443698 0.700439768975295
   outer loop
      vertex -183.74452018883 -74.8101186418062 14.4942889592287
      vertex -186.120462599952 -74.9985370161779 16.7763422004573
      vertex -184.040619108114 -75.8800556538458 14.4942889592288
   endloop
endfacet
facet normal 0.500521286523664 -0.508785388719587 0.700439768975288
   outer loop
      vertex -185.513478944271 -77.7673258788256 14.4942889592287
      vertex -187.034301852896 -75.0620898124825 17.5460700217455
      vertex -187.533351710409 -75.089867625847 17.882504561286
   endloop
endfacet
facet normal 0.500521286523664 -0.508785388719587 0.700439768975288
   outer loop
      vertex -187.034301852896 -75.0620898124825 17.5460700217455
      vertex -185.513478944271 -77.7673258788256 14.4942889592287
      vertex -184.652817106822 -76.9206436043488 14.4942889592287
   endloop
endfacet
facet normal -0.508785388719599 -0.500521286523631 0.700439768975303
   outer loop
      vertex -191.144089918306 -77.7212229988421 14.4942889592288
      vertex -189.603434255185 -75.059554972648 17.5153689848667
      vertex -191.990772192783 -76.8605611613933 14.4942889592288
   endloop
endfacet
facet normal -0.508785388719599 -0.500521286523631 0.700439768975303
   outer loop
      vertex -189.603434255185 -75.059554972648 17.5153689848667
      vertex -191.144089918306 -77.7212229988421 14.4942889592288
      vertex -189.089586553783 -75.0886554375572 17.8678229877668
   endloop
endfacet
facet normal -0.00668426924957816 -0.816359407559038 -0.577505530912437
   outer loop
      vertex -187.732648091086 -78.6653199193856 14.4942889592287
      vertex -188.853300795555 -78.0366686133389 13.6186009592288
      vertex -187.80912625883 -78.0452182101003 13.6186009592287
   endloop
endfacet
facet normal -0.00668426924957816 -0.816359407559038 -0.577505530912437
   outer loop
      vertex -188.853300795555 -78.0366686133389 13.6186009592288
      vertex -187.732648091086 -78.6653199193856 14.4942889592287
      vertex -188.939922690448 -78.6554348756101 14.4942889592287
   endloop
endfacet
facet normal 0.87009018814182 0.492892548634419 -9.74861216077394e-015
   outer loop
      vertex -185.105498976138 -71.6663155210568 10.1954569592287
      vertex -184.590815875763 -72.5748719942263 13.6186009592288
      vertex -184.590815875763 -72.5748719942263 10.1954569592288
   endloop
endfacet
facet normal 0.87009018814182 0.492892548634419 -9.74861216077394e-015
   outer loop
      vertex -184.590815875763 -72.5748719942263 13.6186009592288
      vertex -185.105498976138 -71.6663155210568 10.1954569592287
      vertex -185.105498976138 -71.6663155210567 13.6186009592287
   endloop
endfacet
facet normal -0.944212653158571 0.329336401898201 -1.30461906274788e-015
   outer loop
      vertex -198.199495627367 -100.507997371846 11.0202384969581
      vertex -196.823244081021 -96.5622625047038 1.54233695922867
      vertex -198.199495627367 -100.507997371846 0.717555421499464
   endloop
endfacet
facet normal -0.944212653158571 0.329336401898201 -1.30461906274788e-015
   outer loop
      vertex -196.823244081021 -96.5622625047038 1.54233695922867
      vertex -198.199495627367 -100.507997371846 11.0202384969581
      vertex -196.823244081021 -96.5622625047038 10.1954569592287
   endloop
endfacet
facet normal -0.36190450557122 -0.615149785731157 0.700439768975294
   outer loop
      vertex -190.103501967803 -78.33342099755 14.4942889592287
      vertex -189.089586553783 -75.0886554375572 17.8678229877668
      vertex -191.144089918306 -77.7212229988421 14.4942889592288
   endloop
endfacet
facet normal -0.36190450557122 -0.615149785731157 0.700439768975294
   outer loop
      vertex -189.089586553783 -75.0886554375572 17.8678229877668
      vertex -190.103501967803 -78.33342099755 14.4942889592287
      vertex -188.734234715642 -75.1027898329852 18.0390135258807
   endloop
endfacet
facet normal 0.351783088790043 -0.620993388434356 0.700439768975287
   outer loop
      vertex -186.56395193855 -78.3624024794792 14.4942889592287
      vertex -187.533351710409 -75.089867625847 17.882504561286
      vertex -187.882731227695 -75.1033671432253 18.046005692696
   endloop
endfacet
facet normal 0.351783088790043 -0.620993388434356 0.700439768975287
   outer loop
      vertex -187.533351710409 -75.089867625847 17.882504561286
      vertex -186.56395193855 -78.3624024794792 14.4942889592287
      vertex -185.513478944271 -77.7673258788256 14.4942889592287
   endloop
endfacet
facet normal 0.744684660956736 -0.66741647847184 -8.68366916822907e-016
   outer loop
      vertex -179.259180081021 -88.2406519660615 1.54233695922868
      vertex -184.333414642638 -93.9023411302017 10.1954569592287
      vertex -184.333414642638 -93.9023411302017 1.54233695922869
   endloop
endfacet
facet normal 0.744684660956736 -0.66741647847184 -8.68366916822907e-016
   outer loop
      vertex -184.333414642638 -93.9023411302017 10.1954569592287
      vertex -179.259180081021 -88.2406519660615 1.54233695922868
      vertex -179.259180081021 -88.2406519660615 10.1954569592288
   endloop
endfacet
facet normal -0.402390956803644 0.710330120189348 -0.577505530912419
   outer loop
      vertex -191.084007475351 -70.3832679128812 14.4942889592288
      vertex -189.799168111438 -70.3673695618058 13.6186009592288
      vertex -190.707724584607 -70.8820526621808 13.6186009592288
   endloop
endfacet
facet normal -0.402390956803644 0.710330120189348 -0.577505530912419
   outer loop
      vertex -189.799168111438 -70.3673695618058 13.6186009592288
      vertex -191.084007475351 -70.3832679128812 14.4942889592288
      vertex -190.033534481072 -69.7881913122276 14.4942889592288
   endloop
endfacet
facet normal 0.710330120189306 0.402390956803642 -0.577505530912471
   outer loop
      vertex -185.105498976138 -71.6663155210567 13.6186009592287
      vertex -184.011637626185 -72.340505624592 14.4942889592287
      vertex -184.590815875763 -72.5748719942263 13.6186009592288
   endloop
endfacet
facet normal 0.710330120189306 0.402390956803642 -0.577505530912471
   outer loop
      vertex -184.011637626185 -72.340505624592 14.4942889592287
      vertex -185.105498976138 -71.6663155210567 13.6186009592287
      vertex -184.606714226839 -71.2900326303134 14.4942889592287
   endloop
endfacet
facet normal 0.786812619110933 -0.217745870622965 -0.577505530912425
   outer loop
      vertex -184.615882025157 -75.6362368353037 13.6186009592288
      vertex -183.74452018883 -74.8101186418062 14.4942889592287
      vertex -184.040619108114 -75.8800556538458 14.4942889592288
   endloop
endfacet
facet normal 0.786812619110933 -0.217745870622965 -0.577505530912425
   outer loop
      vertex -183.74452018883 -74.8101186418062 14.4942889592287
      vertex -184.615882025157 -75.6362368353037 13.6186009592288
      vertex -184.367249557857 -74.7378172132348 13.6186009592288
   endloop
endfacet
facet normal -0.00584360270316268 -0.713687594361353 0.700439768975287
   outer loop
      vertex -188.1712550524 -75.108998756883 18.1142137018336
      vertex -188.939922690448 -78.6554348756101 14.4942889592287
      vertex -187.732648091086 -78.6653199193856 14.4942889592287
   endloop
endfacet
facet normal -0.00584360270316268 -0.713687594361353 0.700439768975287
   outer loop
      vertex -188.939922690448 -78.6554348756101 14.4942889592287
      vertex -188.1712550524 -75.108998756883 18.1142137018336
      vertex -188.443428270733 -75.1088258259687 18.1121192269463
   endloop
endfacet
facet normal 0.217745870622857 0.78681261911094 -0.577505530912455
   outer loop
      vertex -187.744185624067 -70.1139251783679 13.6186009592288
      vertex -186.493984451818 -69.8171727941567 14.4942889592288
      vertex -186.737803270361 -70.3924357111996 13.6186009592287
   endloop
endfacet
facet normal 0.217745870622857 0.78681261911094 -0.577505530912455
   outer loop
      vertex -186.493984451818 -69.8171727941567 14.4942889592288
      vertex -187.744185624067 -70.1139251783679 13.6186009592288
      vertex -187.657563729174 -69.4951589160966 14.4942889592287
   endloop
endfacet
facet normal -0.572526780856773 0.581979765084113 -0.577505530912407
   outer loop
      vertex -191.9446693128 -71.229950187358 14.4942889592287
      vertex -190.707724584607 -70.8820526621808 13.6186009592288
      vertex -191.452112958115 -71.6143500799951 13.6186009592287
   endloop
endfacet
facet normal -0.572526780856773 0.581979765084113 -0.577505530912407
   outer loop
      vertex -190.707724584607 -70.8820526621808 13.6186009592288
      vertex -191.9446693128 -71.229950187358 14.4942889592287
      vertex -191.084007475351 -70.3832679128812 14.4942889592288
   endloop
endfacet
facet normal 0.413968450755434 0.703645850939748 -0.577505530912409
   outer loop
      vertex -186.493984451818 -69.8171727941567 14.4942889592288
      vertex -185.837796393953 -70.9219271475496 13.6186009592287
      vertex -186.737803270361 -70.3924357111996 13.6186009592287
   endloop
endfacet
facet normal 0.413968450755434 0.703645850939748 -0.577505530912409
   outer loop
      vertex -185.837796393953 -70.9219271475496 13.6186009592287
      vertex -186.493984451818 -69.8171727941567 14.4942889592288
      vertex -185.453396501315 -70.4293707928647 14.4942889592288
   endloop
endfacet
endsolid 犀牛2014版列印
