solid 犀牛2014版列印
facet normal 0.250901730663456 0.968012562702614 -9.10986890410621e-016
   outer loop
      vertex -218.071834537164 -34.3953683760982 10.118686592046
      vertex -217.061026586518 -34.6573623562976 13.5418305920458
      vertex -217.061026586518 -34.6573623562976 10.1186865920456
   endloop
endfacet
facet normal 0.250901730663456 0.968012562702614 -9.10986890410621e-016
   outer loop
      vertex -217.061026586518 -34.6573623562976 13.5418305920458
      vertex -218.071834537164 -34.3953683760982 10.118686592046
      vertex -218.071834537164 -34.3953683760982 12.2342261586323
   endloop
endfacet
facet normal 0.250901730663456 0.968012562702614 -9.10986890410621e-016
   outer loop
      vertex -217.061026586518 -34.6573623562976 13.5418305920458
      vertex -218.071834537164 -34.3953683760982 12.2342261586323
      vertex -217.963871805526 -34.4233515214196 13.5418305920458
   endloop
endfacet
facet normal -0.861902562524313 -0.507073932197291 -3.97553554491884e-014
   outer loop
      vertex -221.714821236449 -40.8262365062035 13.5418305920458
      vertex -222.244312672799 -39.9262296297955 10.1186865920459
      vertex -221.714821236448 -40.8262365062035 10.1186865920458
   endloop
endfacet
facet normal -0.861902562524313 -0.507073932197291 -3.97553554491884e-014
   outer loop
      vertex -222.244312672799 -39.9262296297955 10.1186865920459
      vertex -221.714821236449 -40.8262365062035 13.5418305920458
      vertex -222.244312672799 -39.9262296297955 13.5418305920458
   endloop
endfacet
facet normal 0.870090188141829 -0.492892548634403 -2.86684680773734e-014
   outer loop
      vertex -215.368207254473 -40.7742710651418 10.1186865920459
      vertex -214.853524154097 -39.8657145919722 13.5418305920458
      vertex -215.368207254472 -40.7742710651419 13.541830592046
   endloop
endfacet
facet normal 0.870090188141829 -0.492892548634403 -2.86684680773734e-014
   outer loop
      vertex -214.853524154097 -39.8657145919722 13.5418305920458
      vertex -215.368207254473 -40.7742710651418 10.1186865920459
      vertex -214.853524154097 -39.8657145919723 10.118686592046
   endloop
endfacet
facet normal -0.712872605151336 0.701293553959216 4.69654287560815e-015
   outer loop
      vertex -221.754695721817 -35.9563083155485 13.5418305920458
      vertex -221.022398304003 -35.2119199420414 10.1186865920459
      vertex -221.754695721817 -35.9563083155486 10.1186865920458
   endloop
endfacet
facet normal -0.712872605151336 0.701293553959216 4.69654287560815e-015
   outer loop
      vertex -221.022398304003 -35.2119199420414 10.1186865920459
      vertex -221.754695721817 -35.9563083155485 13.5418305920458
      vertex -221.022398304003 -35.2119199420414 13.5418305920459
   endloop
endfacet
facet normal -0.870090188141811 0.492892548634435 1.72019114255316e-014
   outer loop
      vertex -221.754695721817 -35.9563083155485 13.5418305920458
      vertex -222.269378822192 -36.8648647887179 10.1186865920459
      vertex -222.269378822192 -36.864864788718 13.5418305920458
   endloop
endfacet
facet normal -0.870090188141811 0.492892548634435 1.72019114255316e-014
   outer loop
      vertex -222.269378822192 -36.8648647887179 10.1186865920459
      vertex -221.754695721817 -35.9563083155485 13.5418305920458
      vertex -221.754695721817 -35.9563083155486 10.1186865920458
   endloop
endfacet
facet normal -0.507073932197223 0.861902562524353 -1.33718814599856e-014
   outer loop
      vertex -221.022398304003 -35.2119199420414 10.1186865920459
      vertex -220.122391427595 -34.6824285056915 13.5418305920458
      vertex -220.122391427595 -34.6824285056915 10.1186865920459
   endloop
endfacet
facet normal -0.507073932197223 0.861902562524353 -1.33718814599856e-014
   outer loop
      vertex -220.122391427595 -34.6824285056915 13.5418305920458
      vertex -221.022398304003 -35.2119199420414 10.1186865920459
      vertex -221.022398304003 -35.2119199420414 13.5418305920459
   endloop
endfacet
facet normal 0.861902562524275 0.507073932197355 -5.68138695011875e-015
   outer loop
      vertex -214.878590303491 -36.8043497508949 10.1186865920458
      vertex -215.408081739841 -35.9043428744869 13.5418305920459
      vertex -214.878590303491 -36.804349750895 13.5418305920458
   endloop
endfacet
facet normal 0.861902562524275 0.507073932197355 -5.68138695011875e-015
   outer loop
      vertex -215.408081739841 -35.9043428744869 13.5418305920459
      vertex -214.878590303491 -36.8043497508949 10.1186865920458
      vertex -215.408081739841 -35.904342874487 10.1186865920458
   endloop
endfacet
facet normal -0.620993388434277 0.351783088790136 0.700439768975311
   outer loop
      vertex -219.589521735517 -37.9492777082294 17.9692353255131
      vertex -222.253480471117 -35.5800254248052 14.4175185920459
      vertex -222.848557071771 -36.6304984190839 14.4175185920458
   endloop
endfacet
facet normal -0.620993388434277 0.351783088790136 0.700439768975311
   outer loop
      vertex -222.253480471117 -35.5800254248052 14.4175185920459
      vertex -219.589521735517 -37.9492777082294 17.9692353255131
      vertex -219.576022218138 -37.5998981909429 17.8057341941029
   endloop
endfacet
facet normal -0.615149785731116 -0.361904505571305 0.700439768975285
   outer loop
      vertex -222.207377591134 -41.2106363988406 14.4175185920459
      vertex -219.588944425277 -38.8007811961765 17.9622431586978
      vertex -222.819575589841 -40.1700484483377 14.4175185920459
   endloop
endfacet
facet normal -0.615149785731116 -0.361904505571305 0.700439768975285
   outer loop
      vertex -219.588944425277 -38.8007811961765 17.9622431586978
      vertex -222.207377591134 -41.2106363988406 14.4175185920459
      vertex -219.574810029849 -39.1561330343171 17.7910526205838
   endloop
endfacet
facet normal 0.620993388434336 -0.351783088790066 0.700439768975294
   outer loop
      vertex -214.869422505173 -41.1505539558851 14.4175185920459
      vertex -217.592960889563 -38.7571925730585 18.0341655928309
      vertex -217.605678070805 -39.0863245352896 17.8801398255907
   endloop
endfacet
facet normal 0.620993388434336 -0.351783088790066 0.700439768975294
   outer loop
      vertex -217.592960889563 -38.7571925730585 18.0341655928309
      vertex -214.869422505173 -41.1505539558851 14.4175185920459
      vertex -214.274345904519 -40.1000809616065 14.4175185920457
   endloop
endfacet
facet normal 0.351783088789917 0.620993388434395 0.700439768975316
   outer loop
      vertex -217.634234017947 -37.1362092702775 17.5342808192865
      vertex -216.826660216884 -34.0781841067195 14.4175185920458
      vertex -217.697849579823 -36.231112152949 16.76379280475
   endloop
endfacet
facet normal 0.351783088789917 0.620993388434395 0.700439768975316
   outer loop
      vertex -216.826660216884 -34.0781841067195 14.4175185920458
      vertex -217.634234017947 -37.1362092702775 17.5342808192865
      vertex -215.776187222605 -34.673260707373 14.417518592046
   endloop
endfacet
facet normal -0.710330120189258 0.402390956803735 -0.577505530912466
   outer loop
      vertex -222.848557071771 -36.6304984190839 14.4175185920458
      vertex -221.754695721817 -35.9563083155485 13.5418305920458
      vertex -222.269378822192 -36.864864788718 13.5418305920458
   endloop
endfacet
facet normal -0.710330120189258 0.402390956803735 -0.577505530912466
   outer loop
      vertex -221.754695721817 -35.9563083155485 13.5418305920458
      vertex -222.848557071771 -36.6304984190839 14.4175185920458
      vertex -222.253480471117 -35.5800254248052 14.4175185920459
   endloop
endfacet
facet normal 0.81635940755904 0.00668426924950117 -0.577505530912434
   outer loop
      vertex -214.591530173898 -38.8549066413264 13.5418305920458
      vertex -213.981313508388 -37.7241102097081 14.4175185920458
      vertex -213.971428464613 -38.9313848090697 14.4175185920459
   endloop
endfacet
facet normal 0.81635940755904 0.00668426924950117 -0.577505530912434
   outer loop
      vertex -213.981313508388 -37.7241102097081 14.4175185920458
      vertex -214.591530173898 -38.8549066413264 13.5418305920458
      vertex -214.600079770659 -37.8107321046012 13.5418305920458
   endloop
endfacet
facet normal -0.816359407559079 -0.00668426924964407 -0.577505530912378
   outer loop
      vertex -223.151474511677 -37.7991945716207 14.4175185920458
      vertex -222.52282320563 -38.9198472760891 13.5418305920459
      vertex -223.141589467901 -39.0064691709822 14.417518592046
   endloop
endfacet
facet normal -0.816359407559079 -0.00668426924964407 -0.577505530912378
   outer loop
      vertex -222.52282320563 -38.9198472760891 13.5418305920459
      vertex -223.151474511677 -37.7991945716207 14.4175185920458
      vertex -222.531372802392 -37.875672739364 13.5418305920458
   endloop
endfacet
facet normal -0.996608815453359 9.06219543850284e-015 0.0822852900623964
   outer loop
      vertex -217.691715807092 -40.4173326291565 16.8380827777321
      vertex -217.963871805526 -42.3147552897633 13.5418305920458
      vertex -217.891570376955 -42.937484658791 14.4175185920458
   endloop
endfacet
facet normal -0.996608815453359 9.06219543850284e-015 0.0822852900623964
   outer loop
      vertex -217.891570376955 -33.802167232086 14.4175185920458
      vertex -217.963871805526 -34.4233515214196 13.5418305920458
      vertex -217.697849579823 -36.231112152949 16.76379280475
   endloop
endfacet
facet normal -0.996608815453359 9.06219543850284e-015 0.0822852900623964
   outer loop
      vertex -218.006893902401 -42.3266614078306 13.020762962921
      vertex -218.193921805526 -34.3963680144513 10.7555505920459
      vertex -218.193921805526 -42.3281927736115 10.7555505920459
   endloop
endfacet
facet normal -0.996608815453359 9.06219543850284e-015 0.0822852900623964
   outer loop
      vertex -218.193921805526 -34.3963680144513 10.7555505920459
      vertex -218.006893902401 -42.3266614078306 13.020762962921
      vertex -217.963871805526 -42.3147552897633 13.5418305920458
   endloop
endfacet
facet normal -0.996608815453359 9.06219543850284e-015 0.0822852900623964
   outer loop
      vertex -218.193921805526 -34.3963680144513 10.7555505920459
      vertex -217.963871805526 -42.3147552897633 13.5418305920458
      vertex -217.691715807092 -40.4173326291565 16.8380827777321
   endloop
endfacet
facet normal -0.996608815453359 9.06219543850284e-015 0.0822852900623964
   outer loop
      vertex -218.193921805526 -34.3963680144513 10.7555505920459
      vertex -217.691715807092 -40.4173326291565 16.8380827777321
      vertex -217.631846079423 -39.5564530079888 17.5632026421481
   endloop
endfacet
facet normal -0.996608815453359 9.06219543850284e-015 0.0822852900623964
   outer loop
      vertex -218.193921805526 -34.3963680144513 10.7555505920459
      vertex -217.631846079423 -39.5564530079888 17.5632026421481
      vertex -217.605678070805 -39.0863245352896 17.8801398255907
   endloop
endfacet
facet normal -0.996608815453359 9.06219543850284e-015 0.0822852900623964
   outer loop
      vertex -218.193921805526 -34.3963680144513 10.7555505920459
      vertex -217.605678070805 -39.0863245352896 17.8801398255907
      vertex -217.592960889563 -38.7571925730585 18.0341655928309
   endloop
endfacet
facet normal -0.996608815453359 9.06219543850284e-015 0.0822852900623964
   outer loop
      vertex -218.193921805526 -34.3963680144513 10.7555505920459
      vertex -217.592960889563 -38.7571925730585 18.0341655928309
      vertex -217.587655644229 -38.4853895397463 18.0984207502645
   endloop
endfacet
facet normal -0.996608815453359 9.06219543850284e-015 0.0822852900623964
   outer loop
      vertex -218.193921805526 -34.3963680144513 10.7555505920459
      vertex -217.587655644229 -38.4853895397463 18.0984207502645
      vertex -217.587818553296 -38.2289895478043 18.0964476562637
   endloop
endfacet
facet normal -0.996608815453359 9.06219543850284e-015 0.0822852900623964
   outer loop
      vertex -218.193921805526 -34.3963680144513 10.7555505920459
      vertex -217.587818553296 -38.2289895478043 18.0964476562637
      vertex -217.593504743002 -37.9550361787413 18.0275786423363
   endloop
endfacet
facet normal -0.996608815453359 9.06219543850284e-015 0.0822852900623964
   outer loop
      vertex -218.193921805526 -34.3963680144513 10.7555505920459
      vertex -217.593504743002 -37.9550361787413 18.0275786423363
      vertex -217.606820009273 -37.6202780089489 17.8663090917843
   endloop
endfacet
facet normal -0.996608815453359 9.06219543850284e-015 0.0822852900623964
   outer loop
      vertex -218.193921805526 -34.3963680144513 10.7555505920459
      vertex -217.606820009273 -37.6202780089489 17.8663090917843
      vertex -217.634234017947 -37.1362092702775 17.5342808192865
   endloop
endfacet
facet normal -0.996608815453359 9.06219543850284e-015 0.0822852900623964
   outer loop
      vertex -218.193921805526 -34.3963680144513 10.7555505920459
      vertex -217.634234017947 -37.1362092702775 17.5342808192865
      vertex -217.697849579823 -36.231112152949 16.76379280475
   endloop
endfacet
facet normal -0.996608815453359 9.06219543850284e-015 0.0822852900623964
   outer loop
      vertex -218.193921805526 -34.3963680144513 10.7555505920459
      vertex -217.697849579823 -36.231112152949 16.76379280475
      vertex -217.963871805526 -34.4233515214196 13.5418305920458
   endloop
endfacet
facet normal -0.996608815453359 9.06219543850284e-015 0.0822852900623964
   outer loop
      vertex -218.193921805526 -34.3963680144513 10.7555505920459
      vertex -217.963871805526 -34.4233515214196 13.5418305920458
      vertex -218.071834537164 -34.3953683760982 12.2342261586323
   endloop
endfacet
facet normal -0.500521286523624 -0.508785388719615 0.700439768975296
   outer loop
      vertex -221.346715753685 -42.0573186733173 14.4175185920458
      vertex -219.574810029849 -39.1561330343171 17.7910526205838
      vertex -222.207377591134 -41.2106363988406 14.4175185920459
   endloop
endfacet
facet normal -0.500521286523624 -0.508785388719615 0.700439768975296
   outer loop
      vertex -219.574810029849 -39.1561330343171 17.7910526205838
      vertex -221.346715753685 -42.0573186733173 14.4175185920458
      vertex -219.545709564939 -39.6699807357192 17.4385986176838
   endloop
endfacet
facet normal -0.35178308879014 -0.620993388434271 0.700439768975314
   outer loop
      vertex -220.296242759406 -42.652395273971 14.4175185920459
      vertex -219.545709564939 -39.6699807357192 17.4385986176838
      vertex -221.346715753685 -42.0573186733173 14.4175185920458
   endloop
endfacet
facet normal -0.35178308879014 -0.620993388434271 0.700439768975314
   outer loop
      vertex -219.545709564939 -39.6699807357192 17.4385986176838
      vertex -220.296242759406 -42.652395273971 14.4175185920459
      vertex -219.478180498028 -40.6307576587681 16.6207116863483
   endloop
endfacet
facet normal -0.361904505571243 0.615149785731171 0.70043976897527
   outer loop
      vertex -219.548244404774 -37.1008483334306 17.4692996545627
      vertex -220.366210246137 -34.1071655886485 14.4175185920458
      vertex -221.40679819664 -34.7193635873564 14.4175185920458
   endloop
endfacet
facet normal -0.361904505571243 0.615149785731171 0.70043976897527
   outer loop
      vertex -220.366210246137 -34.1071655886485 14.4175185920458
      vertex -219.548244404774 -37.1008483334306 17.4692996545627
      vertex -219.48469160847 -36.1870090804865 16.6995718332745
   endloop
endfacet
facet normal -0.413968450755417 0.703645850939785 -0.577505530912377
   outer loop
      vertex -221.022398304003 -35.2119199420414 13.5418305920459
      vertex -220.366210246137 -34.1071655886485 14.4175185920458
      vertex -220.122391427595 -34.6824285056915 13.5418305920458
   endloop
endfacet
facet normal -0.413968450755417 0.703645850939785 -0.577505530912377
   outer loop
      vertex -220.366210246137 -34.1071655886485 14.4175185920458
      vertex -221.022398304003 -35.2119199420414 13.5418305920459
      vertex -221.40679819664 -34.7193635873564 14.4175185920458
   endloop
endfacet
facet normal 0.572526780856783 0.581979765084055 -0.577505530912456
   outer loop
      vertex -215.776187222605 -34.673260707373 14.417518592046
      vertex -215.408081739841 -35.9043428744869 13.5418305920459
      vertex -216.152470113348 -35.1720454566724 13.5418305920458
   endloop
endfacet
facet normal 0.572526780856783 0.581979765084055 -0.577505530912456
   outer loop
      vertex -215.408081739841 -35.9043428744869 13.5418305920459
      vertex -215.776187222605 -34.673260707373 14.417518592046
      vertex -214.915525385156 -35.5199429818496 14.4175185920458
   endloop
endfacet
facet normal 0.0 0.0 1.0
   outer loop
      vertex -218.193921805526 -42.3281927736115 10.7555505920459
      vertex -218.993921805526 -34.4029183345066 10.7555505920459
      vertex -218.993921805526 -42.3347430936668 10.7555505920459
   endloop
endfacet
facet normal 0.0 0.0 1.0
   outer loop
      vertex -218.993921805526 -34.4029183345066 10.7555505920459
      vertex -218.193921805526 -42.3281927736115 10.7555505920459
      vertex -218.193921805526 -34.3963680144513 10.7555505920459
   endloop
endfacet
facet normal 0.690881714967341 -0.179071454904468 0.700439768975309
   outer loop
      vertex -214.274345904519 -40.1000809616065 14.4175185920457
      vertex -217.587655644229 -38.4853895397463 18.0984207502645
      vertex -217.592960889563 -38.7571925730585 18.0341655928309
   endloop
endfacet
facet normal 0.690881714967341 -0.179071454904468 0.700439768975309
   outer loop
      vertex -217.587655644229 -38.4853895397463 18.0984207502645
      vertex -214.274345904519 -40.1000809616065 14.4175185920457
      vertex -213.971428464613 -38.9313848090697 14.4175185920459
   endloop
endfacet
facet normal -0.713687594361325 -0.00584360270307942 0.700439768975315
   outer loop
      vertex -219.59498041826 -38.5099747512677 18.0353488597633
      vertex -223.151474511677 -37.7991945716207 14.4175185920458
      vertex -223.141589467901 -39.0064691709822 14.417518592046
   endloop
endfacet
facet normal -0.713687594361325 -0.00584360270307942 0.700439768975315
   outer loop
      vertex -223.151474511677 -37.7991945716207 14.4175185920458
      vertex -219.59498041826 -38.5099747512677 18.0353488597633
      vertex -219.595153349174 -38.237801532934 18.0374433346507
   endloop
endfacet
facet normal 0.402390956803695 0.710330120189368 -0.577505530912358
   outer loop
      vertex -216.826660216884 -34.0781841067195 14.4175185920458
      vertex -216.152470113348 -35.1720454566724 13.5418305920458
      vertex -217.061026586518 -34.6573623562976 13.5418305920458
   endloop
endfacet
facet normal 0.402390956803695 0.710330120189368 -0.577505530912358
   outer loop
      vertex -216.152470113348 -35.1720454566724 13.5418305920458
      vertex -216.826660216884 -34.0781841067195 14.4175185920458
      vertex -215.776187222605 -34.673260707373 14.417518592046
   endloop
endfacet
facet normal 0.713687594361329 0.0058436027032386 0.700439768975311
   outer loop
      vertex -213.981313508388 -37.7241102097081 14.4175185920458
      vertex -217.587655644229 -38.4853895397463 18.0984207502645
      vertex -213.971428464613 -38.9313848090697 14.4175185920459
   endloop
endfacet
facet normal 0.713687594361329 0.0058436027032386 0.700439768975311
   outer loop
      vertex -217.587655644229 -38.4853895397463 18.0984207502645
      vertex -213.981313508388 -37.7241102097081 14.4175185920458
      vertex -217.587818553296 -38.2289895478043 18.0964476562637
   endloop
endfacet
facet normal 0.786812619110957 0.217745870622887 -0.577505530912421
   outer loop
      vertex -214.878590303491 -36.804349750895 13.5418305920458
      vertex -213.981313508388 -37.7241102097081 14.4175185920458
      vertex -214.600079770659 -37.8107321046012 13.5418305920458
   endloop
endfacet
facet normal 0.786812619110957 0.217745870622887 -0.577505530912421
   outer loop
      vertex -213.981313508388 -37.7241102097081 14.4175185920458
      vertex -214.878590303491 -36.804349750895 13.5418305920458
      vertex -214.303327386448 -36.5605309323529 14.4175185920457
   endloop
endfacet
facet normal 0.508785388719527 -0.500521286523735 0.700439768975281
   outer loop
      vertex -215.71610477965 -42.0112157933338 14.4175185920457
      vertex -217.605678070805 -39.0863245352896 17.8801398255907
      vertex -217.631846079423 -39.5564530079888 17.5632026421481
   endloop
endfacet
facet normal 0.508785388719527 -0.500521286523735 0.700439768975281
   outer loop
      vertex -217.605678070805 -39.0863245352896 17.8801398255907
      vertex -215.71610477965 -42.0112157933338 14.4175185920457
      vertex -214.869422505173 -41.1505539558851 14.4175185920459
   endloop
endfacet
facet normal -0.69088171496736 0.179071454904441 0.700439768975296
   outer loop
      vertex -219.595153349174 -38.237801532934 18.0374433346507
      vertex -222.848557071771 -36.6304984190839 14.4175185920458
      vertex -223.151474511677 -37.7991945716207 14.4175185920458
   endloop
endfacet
facet normal -0.69088171496736 0.179071454904441 0.700439768975296
   outer loop
      vertex -222.848557071771 -36.6304984190839 14.4175185920458
      vertex -219.595153349174 -38.237801532934 18.0374433346507
      vertex -219.589521735517 -37.9492777082294 17.9692353255131
   endloop
endfacet
facet normal 0.615149785731201 0.361904505571189 0.700439768975271
   outer loop
      vertex -217.593504743002 -37.9550361787413 18.0275786423363
      vertex -214.915525385156 -35.5199429818496 14.4175185920458
      vertex -217.606820009273 -37.6202780089489 17.8663090917843
   endloop
endfacet
facet normal 0.615149785731201 0.361904505571189 0.700439768975271
   outer loop
      vertex -214.915525385156 -35.5199429818496 14.4175185920458
      vertex -217.593504743002 -37.9550361787413 18.0275786423363
      vertex -214.303327386448 -36.5605309323529 14.4175185920457
   endloop
endfacet
facet normal 0.179071454904546 0.690881714967294 0.700439768975335
   outer loop
      vertex -216.826660216884 -34.0781841067195 14.4175185920458
      vertex -217.891570376955 -33.802167232086 14.4175185920458
      vertex -217.697849579823 -36.231112152949 16.76379280475
   endloop
endfacet
facet normal -0.508785388719651 0.500521286523571 0.700439768975308
   outer loop
      vertex -219.576022218138 -37.5998981909429 17.8057341941029
      vertex -221.40679819664 -34.7193635873564 14.4175185920458
      vertex -222.253480471117 -35.5800254248052 14.4175185920459
   endloop
endfacet
facet normal -0.508785388719651 0.500521286523571 0.700439768975308
   outer loop
      vertex -221.40679819664 -34.7193635873564 14.4175185920458
      vertex -219.576022218138 -37.5998981909429 17.8057341941029
      vertex -219.548244404774 -37.1008483334306 17.4692996545627
   endloop
endfacet
facet normal 0.99660881545336 -3.2612801348364e-015 0.0822852900623879
   outer loop
      vertex -219.478180498028 -40.6307576587681 16.6207116863483
      vertex -219.296273234098 -42.911580014105 14.4175185920459
      vertex -219.223971805526 -42.2903957247715 13.5418305920458
   endloop
endfacet
facet normal 0.99660881545336 -3.2612801348364e-015 0.0822852900623879
   outer loop
      vertex -218.993921805526 -42.3347430936668 10.7555505920459
      vertex -219.223971805526 -42.2903957247715 13.5418305920458
      vertex -219.051068439126 -42.3352110045921 11.4476893543432
   endloop
endfacet
facet normal 0.99660881545336 -3.2612801348364e-015 0.0822852900623879
   outer loop
      vertex -219.223971805526 -42.2903957247715 13.5418305920458
      vertex -218.993921805526 -42.3347430936668 10.7555505920459
      vertex -218.993921805526 -34.4029183345066 10.7555505920459
   endloop
endfacet
facet normal 0.99660881545336 -3.2612801348364e-015 0.0822852900623879
   outer loop
      vertex -219.223971805526 -42.2903957247715 13.5418305920458
      vertex -218.993921805526 -34.4029183345066 10.7555505920459
      vertex -219.478180498028 -40.6307576587681 16.6207116863483
   endloop
endfacet
facet normal 0.99660881545336 -3.2612801348364e-015 0.0822852900623879
   outer loop
      vertex -219.478180498028 -40.6307576587681 16.6207116863483
      vertex -218.993921805526 -34.4029183345066 10.7555505920459
      vertex -219.545709564939 -39.6699807357192 17.4385986176838
   endloop
endfacet
facet normal 0.99660881545336 -3.2612801348364e-015 0.0822852900623879
   outer loop
      vertex -219.545709564939 -39.6699807357192 17.4385986176838
      vertex -218.993921805526 -34.4029183345066 10.7555505920459
      vertex -219.574810029849 -39.1561330343171 17.7910526205838
   endloop
endfacet
facet normal 0.99660881545336 -3.2612801348364e-015 0.0822852900623879
   outer loop
      vertex -219.574810029849 -39.1561330343171 17.7910526205838
      vertex -218.993921805526 -34.4029183345066 10.7555505920459
      vertex -219.588944425277 -38.8007811961765 17.9622431586978
   endloop
endfacet
facet normal 0.99660881545336 -3.2612801348364e-015 0.0822852900623879
   outer loop
      vertex -219.588944425277 -38.8007811961765 17.9622431586978
      vertex -218.993921805526 -34.4029183345066 10.7555505920459
      vertex -219.59498041826 -38.5099747512677 18.0353488597633
   endloop
endfacet
facet normal 0.99660881545336 -3.2612801348364e-015 0.0822852900623879
   outer loop
      vertex -219.59498041826 -38.5099747512677 18.0353488597633
      vertex -218.993921805526 -34.4029183345066 10.7555505920459
      vertex -219.595153349174 -38.237801532934 18.0374433346507
   endloop
endfacet
facet normal 0.99660881545336 -3.2612801348364e-015 0.0822852900623879
   outer loop
      vertex -219.595153349174 -38.237801532934 18.0374433346507
      vertex -218.993921805526 -34.4029183345066 10.7555505920459
      vertex -219.589521735517 -37.9492777082294 17.9692353255131
   endloop
endfacet
facet normal 0.99660881545336 -3.2612801348364e-015 0.0822852900623879
   outer loop
      vertex -219.589521735517 -37.9492777082294 17.9692353255131
      vertex -218.993921805526 -34.4029183345066 10.7555505920459
      vertex -219.576022218138 -37.5998981909429 17.8057341941029
   endloop
endfacet
facet normal 0.99660881545336 -3.2612801348364e-015 0.0822852900623879
   outer loop
      vertex -219.576022218138 -37.5998981909429 17.8057341941029
      vertex -218.993921805526 -34.4029183345066 10.7555505920459
      vertex -219.548244404774 -37.1008483334306 17.4692996545627
   endloop
endfacet
facet normal 0.99660881545336 -3.2612801348364e-015 0.0822852900623879
   outer loop
      vertex -219.548244404774 -37.1008483334306 17.4692996545627
      vertex -218.993921805526 -34.4029183345066 10.7555505920459
      vertex -219.48469160847 -36.1870090804865 16.6995718332745
   endloop
endfacet
facet normal 0.99660881545336 -3.2612801348364e-015 0.0822852900623879
   outer loop
      vertex -219.48469160847 -36.1870090804865 16.6995718332745
      vertex -218.993921805526 -34.4029183345066 10.7555505920459
      vertex -219.223971805526 -34.4337960383918 13.5418305920458
   endloop
endfacet
facet normal 0.99660881545336 -3.2612801348364e-015 0.0822852900623879
   outer loop
      vertex -219.223971805526 -34.4337960383918 13.5418305920458
      vertex -218.993921805526 -34.4029183345066 10.7555505920459
      vertex -219.116009073889 -34.4039179728595 12.2342261586322
   endloop
endfacet
facet normal 0.99660881545336 -3.2612801348364e-015 0.0822852900623879
   outer loop
      vertex -219.296273234097 -33.8110666693639 14.4175185920459
      vertex -219.48469160847 -36.1870090804865 16.6995718332745
      vertex -219.223971805526 -34.4337960383918 13.5418305920458
   endloop
endfacet
facet normal -0.492892548634363 -0.870090188141851 -6.4986371205632e-015
   outer loop
      vertex -220.061876389772 -42.0732170243928 10.1186865920461
      vertex -220.970432862942 -41.5585339240177 13.541830592046
      vertex -220.970432862942 -41.5585339240176 10.1186865920458
   endloop
endfacet
facet normal -0.492892548634363 -0.870090188141851 -6.4986371205632e-015
   outer loop
      vertex -220.970432862942 -41.5585339240177 13.541830592046
      vertex -220.061876389772 -42.0732170243928 10.1186865920461
      vertex -220.061876389772 -42.0732170243928 13.541830592046
   endloop
endfacet
facet normal -0.968012562702634 0.25090173066338 -6.38234172425359e-015
   outer loop
      vertex -222.531372802392 -37.875672739364 13.5418305920458
      vertex -222.269378822192 -36.8648647887179 10.1186865920459
      vertex -222.531372802392 -37.875672739364 10.1186865920459
   endloop
endfacet
facet normal -0.968012562702634 0.25090173066338 -6.38234172425359e-015
   outer loop
      vertex -222.269378822192 -36.8648647887179 10.1186865920459
      vertex -222.531372802392 -37.875672739364 13.5418305920458
      vertex -222.269378822192 -36.864864788718 13.5418305920458
   endloop
endfacet
facet normal 0.0081876256175278 -0.999966480831606 -9.00669976329684e-015
   outer loop
      vertex -219.051068439126 -42.3352110045921 10.118686592046
      vertex -218.993921805526 -42.3347430936668 10.7555505920459
      vertex -219.051068439126 -42.3352110045921 11.4476893543432
   endloop
endfacet
facet normal 0.0081876256175278 -0.999966480831606 -9.00669976329684e-015
   outer loop
      vertex -218.993921805526 -42.3347430936668 10.7555505920459
      vertex -219.051068439126 -42.3352110045921 10.118686592046
      vertex -218.193921805526 -42.3281927736115 10.7555505920459
   endloop
endfacet
facet normal 0.0081876256175278 -0.999966480831606 -9.00669976329684e-015
   outer loop
      vertex -218.006893902401 -42.3266614078306 10.1186865920459
      vertex -218.193921805526 -42.3281927736115 10.7555505920459
      vertex -219.051068439126 -42.3352110045921 10.118686592046
   endloop
endfacet
facet normal 0.0081876256175278 -0.999966480831606 -9.00669976329684e-015
   outer loop
      vertex -218.193921805526 -42.3281927736115 10.7555505920459
      vertex -218.006893902401 -42.3266614078306 10.1186865920459
      vertex -218.006893902401 -42.3266614078306 13.020762962921
   endloop
endfacet
facet normal -0.00818762561752391 0.999966480831606 7.43134448009189e-016
   outer loop
      vertex -219.116009073889 -34.4039179728595 10.1186865920458
      vertex -218.993921805526 -34.4029183345066 10.7555505920459
      vertex -218.593921805526 -34.399643174479 10.1186865920459
   endloop
endfacet
facet normal -0.00818762561752391 0.999966480831606 7.43134448009189e-016
   outer loop
      vertex -218.993921805526 -34.4029183345066 10.7555505920459
      vertex -219.116009073889 -34.4039179728595 10.1186865920458
      vertex -219.116009073889 -34.4039179728595 12.2342261586322
   endloop
endfacet
facet normal -0.00818762561752391 0.999966480831606 7.43134448009189e-016
   outer loop
      vertex -218.593921805526 -34.399643174479 10.1186865920459
      vertex -218.993921805526 -34.4029183345066 10.7555505920459
      vertex -218.071834537164 -34.3953683760982 10.118686592046
   endloop
endfacet
facet normal -0.00818762561752391 0.999966480831606 7.43134448009189e-016
   outer loop
      vertex -218.071834537164 -34.3953683760982 10.118686592046
      vertex -218.193921805526 -34.3963680144513 10.7555505920459
      vertex -218.071834537164 -34.3953683760982 12.2342261586323
   endloop
endfacet
facet normal -0.00818762561752391 0.999966480831606 7.43134448009189e-016
   outer loop
      vertex -218.193921805526 -34.3963680144513 10.7555505920459
      vertex -218.071834537164 -34.3953683760982 10.118686592046
      vertex -218.993921805526 -34.4029183345066 10.7555505920459
   endloop
endfacet
facet normal -0.701293553959356 -0.712872605151198 -3.69709705408219e-014
   outer loop
      vertex -220.970432862942 -41.5585339240176 10.1186865920458
      vertex -221.714821236449 -40.8262365062035 13.5418305920458
      vertex -221.714821236448 -40.8262365062035 10.1186865920458
   endloop
endfacet
facet normal -0.701293553959356 -0.712872605151198 -3.69709705408219e-014
   outer loop
      vertex -221.714821236449 -40.8262365062035 13.5418305920458
      vertex -220.970432862942 -41.5585339240176 10.1186865920458
      vertex -220.970432862942 -41.5585339240177 13.541830592046
   endloop
endfacet
facet normal -0.266719008743266 0.963774335814671 1.7491565775396e-014
   outer loop
      vertex -220.122391427595 -34.6824285056915 10.1186865920459
      vertex -219.116009073889 -34.4039179728595 12.2342261586322
      vertex -219.116009073889 -34.4039179728595 10.1186865920458
   endloop
endfacet
facet normal -0.266719008743266 0.963774335814671 1.7491565775396e-014
   outer loop
      vertex -219.116009073889 -34.4039179728595 12.2342261586322
      vertex -220.122391427595 -34.6824285056915 10.1186865920459
      vertex -220.122391427595 -34.6824285056915 13.5418305920458
   endloop
endfacet
facet normal -0.266719008743266 0.963774335814671 1.7491565775396e-014
   outer loop
      vertex -219.116009073889 -34.4039179728595 12.2342261586322
      vertex -220.122391427595 -34.6824285056915 13.5418305920458
      vertex -219.223971805526 -34.4337960383918 13.5418305920458
   endloop
endfacet
facet normal 0.963774335814699 0.266719008743165 -1.90543024389455e-014
   outer loop
      vertex -214.878590303491 -36.8043497508949 10.1186865920458
      vertex -214.600079770659 -37.8107321046012 13.5418305920458
      vertex -214.600079770659 -37.8107321046012 10.1186865920458
   endloop
endfacet
facet normal 0.963774335814699 0.266719008743165 -1.90543024389455e-014
   outer loop
      vertex -214.600079770659 -37.8107321046012 13.5418305920458
      vertex -214.878590303491 -36.8043497508949 10.1186865920458
      vertex -214.878590303491 -36.804349750895 13.5418305920458
   endloop
endfacet
facet normal 0.266719008743362 -0.963774335814644 -6.72570931838415e-015
   outer loop
      vertex -217.000511548695 -42.0481508749988 10.1186865920459
      vertex -218.006893902401 -42.3266614078306 13.020762962921
      vertex -218.006893902401 -42.3266614078306 10.1186865920459
   endloop
endfacet
facet normal 0.266719008743362 -0.963774335814644 -6.72570931838415e-015
   outer loop
      vertex -218.006893902401 -42.3266614078306 13.020762962921
      vertex -217.000511548695 -42.0481508749988 10.1186865920459
      vertex -217.000511548694 -42.0481508749988 13.5418305920458
   endloop
endfacet
facet normal 0.266719008743362 -0.963774335814644 -6.72570931838415e-015
   outer loop
      vertex -218.006893902401 -42.3266614078306 13.020762962921
      vertex -217.000511548694 -42.0481508749988 13.5418305920458
      vertex -217.963871805526 -42.3147552897633 13.5418305920458
   endloop
endfacet
facet normal 0.790272651479739 -0.204832854026648 -0.577505530912459
   outer loop
      vertex -214.853524154097 -39.8657145919722 13.5418305920458
      vertex -213.971428464613 -38.9313848090697 14.4175185920459
      vertex -214.274345904519 -40.1000809616065 14.4175185920457
   endloop
endfacet
facet normal 0.790272651479739 -0.204832854026648 -0.577505530912459
   outer loop
      vertex -213.971428464613 -38.9313848090697 14.4175185920459
      vertex -214.853524154097 -39.8657145919722 13.5418305920458
      vertex -214.591530173898 -38.8549066413264 13.5418305920458
   endloop
endfacet
facet normal 0.710330120189157 -0.402390956803793 -0.577505530912549
   outer loop
      vertex -215.368207254472 -40.7742710651419 13.541830592046
      vertex -214.274345904519 -40.1000809616065 14.4175185920457
      vertex -214.869422505173 -41.1505539558851 14.4175185920459
   endloop
endfacet
facet normal 0.710330120189157 -0.402390956803793 -0.577505530912549
   outer loop
      vertex -214.274345904519 -40.1000809616065 14.4175185920457
      vertex -215.368207254472 -40.7742710651419 13.541830592046
      vertex -214.853524154097 -39.8657145919722 13.5418305920458
   endloop
endfacet
facet normal 0.581979765084167 -0.572526780856673 -0.577505530912451
   outer loop
      vertex -216.100504672286 -41.5186594386488 13.5418305920457
      vertex -214.869422505173 -41.1505539558851 14.4175185920459
      vertex -215.71610477965 -42.0112157933338 14.4175185920457
   endloop
endfacet
facet normal 0.581979765084167 -0.572526780856673 -0.577505530912451
   outer loop
      vertex -214.869422505173 -41.1505539558851 14.4175185920459
      vertex -216.100504672286 -41.5186594386488 13.5418305920457
      vertex -215.368207254472 -40.7742710651419 13.541830592046
   endloop
endfacet
facet normal 0.70129355395938 0.712872605151175 2.77279032407801e-014
   outer loop
      vertex -216.152470113348 -35.1720454566724 13.5418305920458
      vertex -215.408081739841 -35.904342874487 10.1186865920458
      vertex -216.152470113348 -35.1720454566723 10.1186865920457
   endloop
endfacet
facet normal 0.70129355395938 0.712872605151175 2.77279032407801e-014
   outer loop
      vertex -215.408081739841 -35.904342874487 10.1186865920458
      vertex -216.152470113348 -35.1720454566724 13.5418305920458
      vertex -215.408081739841 -35.9043428744869 13.5418305920459
   endloop
endfacet
facet normal -0.217745870622866 0.786812619110987 -0.577505530912389
   outer loop
      vertex -220.366210246137 -34.1071655886485 14.4175185920458
      vertex -219.223971805526 -34.4337960383918 13.5418305920458
      vertex -220.122391427595 -34.6824285056915 13.5418305920458
   endloop
endfacet
facet normal -0.217745870622866 0.786812619110987 -0.577505530912389
   outer loop
      vertex -219.223971805526 -34.4337960383918 13.5418305920458
      vertex -220.366210246137 -34.1071655886485 14.4175185920458
      vertex -219.296273234097 -33.8110666693639 14.4175185920459
   endloop
endfacet
facet normal -0.999966480831606 -0.00818762561758621 -5.27209902437325e-014
   outer loop
      vertex -222.52282320563 -38.9198472760891 13.5418305920459
      vertex -222.531372802392 -37.875672739364 10.1186865920459
      vertex -222.52282320563 -38.9198472760891 10.1186865920459
   endloop
endfacet
facet normal -0.999966480831606 -0.00818762561758621 -5.27209902437325e-014
   outer loop
      vertex -222.531372802392 -37.875672739364 10.1186865920459
      vertex -222.52282320563 -38.9198472760891 13.5418305920459
      vertex -222.531372802392 -37.875672739364 13.5418305920458
   endloop
endfacet
facet normal 0.999966480831606 0.0081876256176278 1.31802411522508e-014
   outer loop
      vertex -214.600079770659 -37.8107321046012 10.1186865920458
      vertex -214.591530173898 -38.8549066413264 13.5418305920458
      vertex -214.591530173898 -38.8549066413265 10.1186865920457
   endloop
endfacet
facet normal 0.999966480831606 0.0081876256176278 1.31802411522508e-014
   outer loop
      vertex -214.591530173898 -38.8549066413264 13.5418305920458
      vertex -214.600079770659 -37.8107321046012 10.1186865920458
      vertex -214.600079770659 -37.8107321046012 13.5418305920458
   endloop
endfacet
facet normal -0.250901730663371 -0.968012562702636 1.53014423273651e-014
   outer loop
      vertex -219.051068439126 -42.3352110045921 11.4476893543432
      vertex -220.061876389772 -42.0732170243928 10.1186865920461
      vertex -219.051068439126 -42.3352110045921 10.118686592046
   endloop
endfacet
facet normal -0.250901730663371 -0.968012562702636 1.53014423273651e-014
   outer loop
      vertex -220.061876389772 -42.0732170243928 10.1186865920461
      vertex -219.051068439126 -42.3352110045921 11.4476893543432
      vertex -220.061876389772 -42.0732170243928 13.541830592046
   endloop
endfacet
facet normal -0.250901730663371 -0.968012562702636 1.53014423273651e-014
   outer loop
      vertex -220.061876389772 -42.0732170243928 13.541830592046
      vertex -219.051068439126 -42.3352110045921 11.4476893543432
      vertex -219.223971805526 -42.2903957247715 13.5418305920458
   endloop
endfacet
facet normal 0.190360428443749 -0.687856843624143 0.70043976897528
   outer loop
      vertex -216.756692730153 -42.6234137920417 14.4175185920458
      vertex -217.691715807092 -40.4173326291565 16.8380827777321
      vertex -217.891570376955 -42.937484658791 14.4175185920458
   endloop
endfacet
facet normal 0.500521286523722 0.508785388719513 0.7004397689753
   outer loop
      vertex -217.606820009273 -37.6202780089489 17.8663090917843
      vertex -215.776187222605 -34.673260707373 14.417518592046
      vertex -217.634234017947 -37.1362092702775 17.5342808192865
   endloop
endfacet
facet normal 0.500521286523722 0.508785388719513 0.7004397689753
   outer loop
      vertex -215.776187222605 -34.673260707373 14.417518592046
      vertex -217.606820009273 -37.6202780089489 17.8663090917843
      vertex -214.915525385156 -35.5199429818496 14.4175185920458
   endloop
endfacet
facet normal 0.361904505571278 -0.615149785731145 0.700439768975274
   outer loop
      vertex -216.756692730153 -42.6234137920417 14.4175185920458
      vertex -217.631846079423 -39.5564530079888 17.5632026421481
      vertex -217.691715807092 -40.4173326291565 16.8380827777321
   endloop
endfacet
facet normal 0.361904505571278 -0.615149785731145 0.700439768975274
   outer loop
      vertex -217.631846079423 -39.5564530079888 17.5632026421481
      vertex -216.756692730153 -42.6234137920417 14.4175185920458
      vertex -215.71610477965 -42.0112157933338 14.4175185920457
   endloop
endfacet
facet normal 0.68785684362412 0.190360428443814 0.700439768975285
   outer loop
      vertex -217.587818553296 -38.2289895478043 18.0964476562637
      vertex -214.303327386448 -36.5605309323529 14.4175185920457
      vertex -217.593504743002 -37.9550361787413 18.0275786423363
   endloop
endfacet
facet normal 0.68785684362412 0.190360428443814 0.700439768975285
   outer loop
      vertex -214.303327386448 -36.5605309323529 14.4175185920457
      vertex -217.587818553296 -38.2289895478043 18.0964476562637
      vertex -213.981313508388 -37.7241102097081 14.4175185920458
   endloop
endfacet
facet normal -0.190360428443835 0.687856843624139 0.70043976897526
   outer loop
      vertex -219.296273234097 -33.8110666693639 14.4175185920459
      vertex -220.366210246137 -34.1071655886485 14.4175185920458
      vertex -219.48469160847 -36.1870090804865 16.6995718332745
   endloop
endfacet
facet normal -0.687856843624115 -0.19036042844375 0.700439768975307
   outer loop
      vertex -222.819575589841 -40.1700484483377 14.4175185920459
      vertex -219.59498041826 -38.5099747512677 18.0353488597633
      vertex -223.141589467901 -39.0064691709822 14.417518592046
   endloop
endfacet
facet normal -0.687856843624115 -0.19036042844375 0.700439768975307
   outer loop
      vertex -219.59498041826 -38.5099747512677 18.0353488597633
      vertex -222.819575589841 -40.1700484483377 14.4175185920459
      vertex -219.588944425277 -38.8007811961765 17.9622431586978
   endloop
endfacet
facet normal 0.703645850939719 0.413968450755464 -0.577505530912423
   outer loop
      vertex -215.408081739841 -35.9043428744869 13.5418305920459
      vertex -214.303327386448 -36.5605309323529 14.4175185920457
      vertex -214.878590303491 -36.804349750895 13.5418305920458
   endloop
endfacet
facet normal 0.703645850939719 0.413968450755464 -0.577505530912423
   outer loop
      vertex -214.303327386448 -36.5605309323529 14.4175185920457
      vertex -215.408081739841 -35.9043428744869 13.5418305920459
      vertex -214.915525385156 -35.5199429818496 14.4175185920458
   endloop
endfacet
facet normal -0.1790714549044 -0.690881714967327 0.700439768975339
   outer loop
      vertex -219.296273234098 -42.911580014105 14.4175185920459
      vertex -219.478180498028 -40.6307576587681 16.6207116863483
      vertex -220.296242759406 -42.652395273971 14.4175185920459
   endloop
endfacet
facet normal 0.71287260515124 -0.701293553959313 -3.7588429296283e-014
   outer loop
      vertex -216.100504672287 -41.5186594386488 10.1186865920458
      vertex -215.368207254472 -40.7742710651419 13.541830592046
      vertex -216.100504672286 -41.5186594386488 13.5418305920457
   endloop
endfacet
facet normal 0.71287260515124 -0.701293553959313 -3.7588429296283e-014
   outer loop
      vertex -215.368207254472 -40.7742710651419 13.541830592046
      vertex -216.100504672287 -41.5186594386488 10.1186865920458
      vertex -215.368207254473 -40.7742710651418 10.1186865920459
   endloop
endfacet
facet normal 0.968012562702607 -0.250901730663482 -6.38073886439889e-015
   outer loop
      vertex -214.591530173898 -38.8549066413265 10.1186865920457
      vertex -214.853524154097 -39.8657145919722 13.5418305920458
      vertex -214.853524154097 -39.8657145919723 10.118686592046
   endloop
endfacet
facet normal 0.968012562702607 -0.250901730663482 -6.38073886439889e-015
   outer loop
      vertex -214.853524154097 -39.8657145919722 13.5418305920458
      vertex -214.591530173898 -38.8549066413265 10.1186865920457
      vertex -214.591530173898 -38.8549066413264 13.5418305920458
   endloop
endfacet
facet normal 0.50707393219728 -0.861902562524319 -4.01047033706015e-014
   outer loop
      vertex -216.100504672286 -41.5186594386488 13.5418305920457
      vertex -217.000511548695 -42.0481508749988 10.1186865920459
      vertex -216.100504672287 -41.5186594386488 10.1186865920458
   endloop
endfacet
facet normal 0.50707393219728 -0.861902562524319 -4.01047033706015e-014
   outer loop
      vertex -217.000511548695 -42.0481508749988 10.1186865920459
      vertex -216.100504672286 -41.5186594386488 13.5418305920457
      vertex -217.000511548694 -42.0481508749988 13.5418305920458
   endloop
endfacet
facet normal -0.963774335814689 -0.266719008743201 -5.71637364908973e-014
   outer loop
      vertex -222.244312672799 -39.9262296297955 13.5418305920458
      vertex -222.52282320563 -38.9198472760891 10.1186865920459
      vertex -222.244312672799 -39.9262296297955 10.1186865920459
   endloop
endfacet
facet normal -0.963774335814689 -0.266719008743201 -5.71637364908973e-014
   outer loop
      vertex -222.52282320563 -38.9198472760891 10.1186865920459
      vertex -222.244312672799 -39.9262296297955 13.5418305920458
      vertex -222.52282320563 -38.9198472760891 13.5418305920459
   endloop
endfacet
facet normal 0.492892548634334 0.870090188141868 3.24803645909137e-015
   outer loop
      vertex -217.061026586518 -34.6573623562976 13.5418305920458
      vertex -216.152470113348 -35.1720454566723 10.1186865920457
      vertex -217.061026586518 -34.6573623562976 10.1186865920456
   endloop
endfacet
facet normal 0.492892548634334 0.870090188141868 3.24803645909137e-015
   outer loop
      vertex -216.152470113348 -35.1720454566723 10.1186865920457
      vertex -217.061026586518 -34.6573623562976 13.5418305920458
      vertex -216.152470113348 -35.1720454566724 13.5418305920458
   endloop
endfacet
facet normal -0.786812619111017 -0.217745870622927 -0.577505530912324
   outer loop
      vertex -223.141589467901 -39.0064691709822 14.417518592046
      vertex -222.244312672799 -39.9262296297955 13.5418305920458
      vertex -222.819575589841 -40.1700484483377 14.4175185920459
   endloop
endfacet
facet normal -0.786812619111017 -0.217745870622927 -0.577505530912324
   outer loop
      vertex -222.244312672799 -39.9262296297955 13.5418305920458
      vertex -223.141589467901 -39.0064691709822 14.417518592046
      vertex -222.52282320563 -38.9198472760891 13.5418305920459
   endloop
endfacet
facet normal -0.581979765084157 0.572526780856707 -0.577505530912429
   outer loop
      vertex -222.253480471117 -35.5800254248052 14.4175185920459
      vertex -221.022398304003 -35.2119199420414 13.5418305920459
      vertex -221.754695721817 -35.9563083155485 13.5418305920458
   endloop
endfacet
facet normal -0.581979765084157 0.572526780856707 -0.577505530912429
   outer loop
      vertex -221.022398304003 -35.2119199420414 13.5418305920459
      vertex -222.253480471117 -35.5800254248052 14.4175185920459
      vertex -221.40679819664 -34.7193635873564 14.4175185920458
   endloop
endfacet
facet normal -0.790272651479697 0.204832854026846 -0.577505530912446
   outer loop
      vertex -223.151474511677 -37.7991945716207 14.4175185920458
      vertex -222.269378822192 -36.864864788718 13.5418305920458
      vertex -222.531372802392 -37.875672739364 13.5418305920458
   endloop
endfacet
facet normal -0.790272651479697 0.204832854026846 -0.577505530912446
   outer loop
      vertex -222.269378822192 -36.864864788718 13.5418305920458
      vertex -223.151474511677 -37.7991945716207 14.4175185920458
      vertex -222.848557071771 -36.6304984190839 14.4175185920458
   endloop
endfacet
facet normal -0.572526780856812 -0.581979765084114 -0.577505530912368
   outer loop
      vertex -220.970432862942 -41.5585339240177 13.541830592046
      vertex -222.207377591134 -41.2106363988406 14.4175185920459
      vertex -221.714821236449 -40.8262365062035 13.5418305920458
   endloop
endfacet
facet normal -0.572526780856812 -0.581979765084114 -0.577505530912368
   outer loop
      vertex -222.207377591134 -41.2106363988406 14.4175185920459
      vertex -220.970432862942 -41.5585339240177 13.541830592046
      vertex -221.346715753685 -42.0573186733173 14.4175185920458
   endloop
endfacet
facet normal -0.703645850939843 -0.413968450755425 -0.5775055309123
   outer loop
      vertex -222.819575589841 -40.1700484483377 14.4175185920459
      vertex -221.714821236449 -40.8262365062035 13.5418305920458
      vertex -222.207377591134 -41.2106363988406 14.4175185920459
   endloop
endfacet
facet normal -0.703645850939843 -0.413968450755425 -0.5775055309123
   outer loop
      vertex -221.714821236449 -40.8262365062035 13.5418305920458
      vertex -222.819575589841 -40.1700484483377 14.4175185920459
      vertex -222.244312672799 -39.9262296297955 13.5418305920458
   endloop
endfacet
facet normal -0.40239095680363 -0.710330120189297 -0.577505530912491
   outer loop
      vertex -220.061876389772 -42.0732170243928 13.541830592046
      vertex -221.346715753685 -42.0573186733173 14.4175185920458
      vertex -220.970432862942 -41.5585339240177 13.541830592046
   endloop
endfacet
facet normal -0.40239095680363 -0.710330120189297 -0.577505530912491
   outer loop
      vertex -221.346715753685 -42.0573186733173 14.4175185920458
      vertex -220.061876389772 -42.0732170243928 13.541830592046
      vertex -220.296242759406 -42.652395273971 14.4175185920459
   endloop
endfacet
facet normal 0.41396845075535 -0.70364585093984 -0.577505530912357
   outer loop
      vertex -215.71610477965 -42.0112157933338 14.4175185920457
      vertex -217.000511548694 -42.0481508749988 13.5418305920458
      vertex -216.100504672286 -41.5186594386488 13.5418305920457
   endloop
endfacet
facet normal 0.41396845075535 -0.70364585093984 -0.577505530912357
   outer loop
      vertex -217.000511548694 -42.0481508749988 13.5418305920458
      vertex -215.71610477965 -42.0112157933338 14.4175185920457
      vertex -216.756692730153 -42.6234137920417 14.4175185920458
   endloop
endfacet
facet normal 0.204832854026856 0.790272651479721 -0.57750553091241
   outer loop
      vertex -217.963871805526 -34.4233515214196 13.5418305920458
      vertex -216.826660216884 -34.0781841067195 14.4175185920458
      vertex -217.061026586518 -34.6573623562976 13.5418305920458
   endloop
endfacet
facet normal 0.204832854026856 0.790272651479721 -0.57750553091241
   outer loop
      vertex -216.826660216884 -34.0781841067195 14.4175185920458
      vertex -217.963871805526 -34.4233515214196 13.5418305920458
      vertex -217.891570376955 -33.802167232086 14.4175185920458
   endloop
endfacet
facet normal 0.21774587062296 -0.786812619110968 -0.577505530912379
   outer loop
      vertex -216.756692730153 -42.6234137920417 14.4175185920458
      vertex -217.963871805526 -42.3147552897633 13.5418305920458
      vertex -217.000511548694 -42.0481508749988 13.5418305920458
   endloop
endfacet
facet normal 0.21774587062296 -0.786812619110968 -0.577505530912379
   outer loop
      vertex -217.963871805526 -42.3147552897633 13.5418305920458
      vertex -216.756692730153 -42.6234137920417 14.4175185920458
      vertex -217.891570376955 -42.937484658791 14.4175185920458
   endloop
endfacet
facet normal -0.204832854026835 -0.790272651479704 -0.57750553091244
   outer loop
      vertex -219.296273234098 -42.911580014105 14.4175185920459
      vertex -220.061876389772 -42.0732170243928 13.541830592046
      vertex -219.223971805526 -42.2903957247715 13.5418305920458
   endloop
endfacet
facet normal -0.204832854026835 -0.790272651479704 -0.57750553091244
   outer loop
      vertex -220.061876389772 -42.0732170243928 13.541830592046
      vertex -219.296273234098 -42.911580014105 14.4175185920459
      vertex -220.296242759406 -42.652395273971 14.4175185920459
   endloop
endfacet
facet normal 6.19077370227492e-015 -2.5251648102186e-015 1.0
   outer loop
      vertex -225.074408046703 -45.5715738965717 10.1186865920458
      vertex -222.52282320563 -38.9198472760891 10.1186865920459
      vertex -222.531372802392 -37.875672739364 10.1186865920459
   endloop
endfacet
facet normal 6.19077370227492e-015 -2.5251648102186e-015 1.0
   outer loop
      vertex -222.52282320563 -38.9198472760891 10.1186865920459
      vertex -225.074408046703 -45.5715738965717 10.1186865920458
      vertex -222.244312672799 -39.9262296297955 10.1186865920459
   endloop
endfacet
facet normal 6.19077370227492e-015 -2.5251648102186e-015 1.0
   outer loop
      vertex -222.244312672799 -39.9262296297955 10.1186865920459
      vertex -225.074408046703 -45.5715738965717 10.1186865920458
      vertex -221.714821236448 -40.8262365062035 10.1186865920458
   endloop
endfacet
facet normal 6.19077370227492e-015 -2.5251648102186e-015 1.0
   outer loop
      vertex -221.714821236448 -40.8262365062035 10.1186865920458
      vertex -225.074408046703 -45.5715738965717 10.1186865920458
      vertex -220.970432862942 -41.5585339240176 10.1186865920458
   endloop
endfacet
facet normal 6.19077370227492e-015 -2.5251648102186e-015 1.0
   outer loop
      vertex -220.970432862942 -41.5585339240176 10.1186865920458
      vertex -225.074408046703 -45.5715738965717 10.1186865920458
      vertex -214.43640127459 -46.5209907076922 10.1186865920457
   endloop
endfacet
facet normal 6.19077370227492e-015 -2.5251648102186e-015 1.0
   outer loop
      vertex -220.970432862942 -41.5585339240176 10.1186865920458
      vertex -214.43640127459 -46.5209907076922 10.1186865920457
      vertex -220.061876389772 -42.0732170243928 10.1186865920461
   endloop
endfacet
facet normal 6.19077370227492e-015 -2.5251648102186e-015 1.0
   outer loop
      vertex -220.061876389772 -42.0732170243928 10.1186865920461
      vertex -214.43640127459 -46.5209907076922 10.1186865920457
      vertex -219.051068439126 -42.3352110045921 10.118686592046
   endloop
endfacet
facet normal 6.19077370227492e-015 -2.5251648102186e-015 1.0
   outer loop
      vertex -219.051068439126 -42.3352110045921 10.118686592046
      vertex -214.43640127459 -46.5209907076922 10.1186865920457
      vertex -218.006893902401 -42.3266614078306 10.1186865920459
   endloop
endfacet
facet normal 6.19077370227492e-015 -2.5251648102186e-015 1.0
   outer loop
      vertex -218.006893902401 -42.3266614078306 10.1186865920459
      vertex -214.43640127459 -46.5209907076922 10.1186865920457
      vertex -217.000511548695 -42.0481508749988 10.1186865920459
   endloop
endfacet
facet normal 6.19077370227492e-015 -2.5251648102186e-015 1.0
   outer loop
      vertex -217.000511548695 -42.0481508749988 10.1186865920459
      vertex -214.43640127459 -46.5209907076922 10.1186865920457
      vertex -216.100504672287 -41.5186594386488 10.1186865920458
   endloop
endfacet
facet normal 6.19077370227492e-015 -2.5251648102186e-015 1.0
   outer loop
      vertex -216.100504672287 -41.5186594386488 10.1186865920458
      vertex -214.43640127459 -46.5209907076922 10.1186865920457
      vertex -215.368207254473 -40.7742710651418 10.1186865920459
   endloop
endfacet
facet normal 6.19077370227492e-015 -2.5251648102186e-015 1.0
   outer loop
      vertex -215.368207254473 -40.7742710651418 10.1186865920459
      vertex -214.43640127459 -46.5209907076922 10.1186865920457
      vertex -214.853524154097 -39.8657145919723 10.118686592046
   endloop
endfacet
facet normal 6.19077370227492e-015 -2.5251648102186e-015 1.0
   outer loop
      vertex -214.853524154097 -39.8657145919723 10.118686592046
      vertex -214.43640127459 -46.5209907076922 10.1186865920457
      vertex -214.591530173898 -38.8549066413265 10.1186865920457
   endloop
endfacet
facet normal 6.19077370227492e-015 -2.5251648102186e-015 1.0
   outer loop
      vertex -225.074408046703 -45.5715738965717 10.1186865920458
      vertex -226.975508823565 -13.1359137192546 10.1186865920459
      vertex -228.658845521363 -38.3488525806646 10.1186865920458
   endloop
endfacet
facet normal 6.19077370227492e-015 -2.5251648102186e-015 1.0
   outer loop
      vertex -226.975508823565 -13.1359137192546 10.1186865920459
      vertex -225.074408046703 -45.5715738965717 10.1186865920458
      vertex -222.475230063639 -6.46707044124786 10.1186865920459
   endloop
endfacet
facet normal 6.19077370227492e-015 -2.5251648102186e-015 1.0
   outer loop
      vertex -222.475230063639 -6.46707044124786 10.1186865920459
      vertex -225.074408046703 -45.5715738965717 10.1186865920458
      vertex -222.531372802392 -37.875672739364 10.1186865920459
   endloop
endfacet
facet normal 6.19077370227492e-015 -2.5251648102186e-015 1.0
   outer loop
      vertex -222.475230063639 -6.46707044124786 10.1186865920459
      vertex -222.531372802392 -37.875672739364 10.1186865920459
      vertex -222.269378822192 -36.8648647887179 10.1186865920459
   endloop
endfacet
facet normal 6.19077370227492e-015 -2.5251648102186e-015 1.0
   outer loop
      vertex -222.475230063639 -6.46707044124786 10.1186865920459
      vertex -222.269378822192 -36.8648647887179 10.1186865920459
      vertex -210.20506196522 -11.590814835542 10.1186865920458
   endloop
endfacet
facet normal 6.19077370227492e-015 -2.5251648102186e-015 1.0
   outer loop
      vertex -210.20506196522 -11.590814835542 10.1186865920458
      vertex -222.269378822192 -36.8648647887179 10.1186865920459
      vertex -221.754695721817 -35.9563083155486 10.1186865920458
   endloop
endfacet
facet normal 6.19077370227492e-015 -2.5251648102186e-015 1.0
   outer loop
      vertex -210.20506196522 -11.590814835542 10.1186865920458
      vertex -221.754695721817 -35.9563083155486 10.1186865920458
      vertex -221.022398304003 -35.2119199420414 10.1186865920459
   endloop
endfacet
facet normal 6.19077370227492e-015 -2.5251648102186e-015 1.0
   outer loop
      vertex -210.20506196522 -11.590814835542 10.1186865920458
      vertex -221.022398304003 -35.2119199420414 10.1186865920459
      vertex -220.122391427595 -34.6824285056915 10.1186865920459
   endloop
endfacet
facet normal 6.19077370227492e-015 -2.5251648102186e-015 1.0
   outer loop
      vertex -210.20506196522 -11.590814835542 10.1186865920458
      vertex -220.122391427595 -34.6824285056915 10.1186865920459
      vertex -219.116009073889 -34.4039179728595 10.1186865920458
   endloop
endfacet
facet normal 6.19077370227492e-015 -2.5251648102186e-015 1.0
   outer loop
      vertex -210.20506196522 -11.590814835542 10.1186865920458
      vertex -219.116009073889 -34.4039179728595 10.1186865920458
      vertex -218.593921805526 -34.399643174479 10.1186865920459
   endloop
endfacet
facet normal 6.19077370227492e-015 -2.5251648102186e-015 1.0
   outer loop
      vertex -210.20506196522 -11.590814835542 10.1186865920458
      vertex -218.593921805526 -34.399643174479 10.1186865920459
      vertex -218.071834537164 -34.3953683760982 10.118686592046
   endloop
endfacet
facet normal 6.19077370227492e-015 -2.5251648102186e-015 1.0
   outer loop
      vertex -210.20506196522 -11.590814835542 10.1186865920458
      vertex -218.071834537164 -34.3953683760982 10.118686592046
      vertex -217.061026586518 -34.6573623562976 10.1186865920456
   endloop
endfacet
facet normal 6.19077370227492e-015 -2.5251648102186e-015 1.0
   outer loop
      vertex -210.20506196522 -11.590814835542 10.1186865920458
      vertex -217.061026586518 -34.6573623562976 10.1186865920456
      vertex -216.152470113348 -35.1720454566723 10.1186865920457
   endloop
endfacet
facet normal 6.19077370227492e-015 -2.5251648102186e-015 1.0
   outer loop
      vertex -210.20506196522 -11.590814835542 10.1186865920458
      vertex -216.152470113348 -35.1720454566723 10.1186865920457
      vertex -215.408081739841 -35.904342874487 10.1186865920458
   endloop
endfacet
facet normal 6.19077370227492e-015 -2.5251648102186e-015 1.0
   outer loop
      vertex -210.20506196522 -11.590814835542 10.1186865920458
      vertex -215.408081739841 -35.904342874487 10.1186865920458
      vertex -214.878590303491 -36.8043497508949 10.1186865920458
   endloop
endfacet
facet normal 6.19077370227492e-015 -2.5251648102186e-015 1.0
   outer loop
      vertex -210.20506196522 -11.590814835542 10.1186865920458
      vertex -214.878590303491 -36.8043497508949 10.1186865920458
      vertex -214.600079770659 -37.8107321046012 10.1186865920458
   endloop
endfacet
facet normal 6.19077370227492e-015 -2.5251648102186e-015 1.0
   outer loop
      vertex -210.20506196522 -11.590814835542 10.1186865920458
      vertex -214.600079770659 -37.8107321046012 10.1186865920458
      vertex -214.591530173898 -38.8549066413265 10.1186865920457
   endloop
endfacet
facet normal 6.19077370227492e-015 -2.5251648102186e-015 1.0
   outer loop
      vertex -210.20506196522 -11.590814835542 10.1186865920458
      vertex -214.591530173898 -38.8549066413265 10.1186865920457
      vertex -214.43640127459 -46.5209907076922 10.1186865920457
   endloop
endfacet
facet normal 6.19077370227492e-015 -2.5251648102186e-015 1.0
   outer loop
      vertex -210.20506196522 -11.590814835542 10.1186865920458
      vertex -214.43640127459 -46.5209907076922 10.1186865920457
      vertex -208.528998089689 -38.3822585274537 10.1186865920458
   endloop
endfacet
facet normal -0.828917284111989 0.55937119706006 -2.88407744581525e-015
   outer loop
      vertex -222.475230063639 -6.46707044124786 10.1186865920459
      vertex -226.975508823565 -13.1359137192546 1.47542259204612
      vertex -226.975508823565 -13.1359137192546 10.1186865920459
   endloop
endfacet
facet normal -0.828917284111989 0.55937119706006 -2.88407744581525e-015
   outer loop
      vertex -226.975508823565 -13.1359137192546 1.47542259204612
      vertex -222.475230063639 -6.46707044124786 10.1186865920459
      vertex -222.475230063639 -6.46707044124783 1.47542259204587
   endloop
endfacet
facet normal 0.690417784100931 -0.17026628946822 -0.70308795613912
   outer loop
      vertex -206.448967227261 -3.15612521199191 3.12120714962913
      vertex -210.20506196522 -11.5908148355421 1.47542259204573
      vertex -209.638108304914 -3.19933141870293 0.0
   endloop
endfacet
facet normal -0.0702101775714877 -0.168136935554685 0.983260139468524
   outer loop
      vertex -222.475230063639 -6.46707044124786 10.1186865920459
      vertex -209.638108304914 -3.19933141870295 11.5941091840918
      vertex -223.576770423304 -3.38817120411809 10.566520609396
   endloop
endfacet
facet normal -0.0702101775714877 -0.168136935554685 0.983260139468524
   outer loop
      vertex -209.638108304914 -3.19933141870295 11.5941091840918
      vertex -222.475230063639 -6.46707044124786 10.1186865920459
      vertex -210.20506196522 -11.590814835542 10.1186865920458
   endloop
endfacet
facet normal -0.070210177571497 -0.168136935554649 -0.983260139468529
   outer loop
      vertex -209.638108304914 -3.19933141870293 0.0
      vertex -222.475230063639 -6.46707044124783 1.47542259204587
      vertex -223.576770423304 -3.38817120411791 1.02758857469595
   endloop
endfacet
facet normal -0.070210177571497 -0.168136935554649 -0.983260139468529
   outer loop
      vertex -222.475230063639 -6.46707044124783 1.47542259204587
      vertex -209.638108304914 -3.19933141870293 0.0
      vertex -210.20506196522 -11.5908148355421 1.47542259204573
   endloop
endfacet
facet normal 0.913516119477522 -0.406802531278667 9.45950852287538e-015
   outer loop
      vertex -206.448967227261 -3.15612521199191 3.12120714962913
      vertex -210.20506196522 -11.590814835542 10.1186865920458
      vertex -210.20506196522 -11.5908148355421 1.47542259204573
   endloop
endfacet
facet normal 0.913516119477522 -0.406802531278667 9.45950852287538e-015
   outer loop
      vertex -210.20506196522 -11.590814835542 10.1186865920458
      vertex -206.448967227261 -3.15612521199191 3.12120714962913
      vertex -206.448967227261 -3.15612521199192 8.5017394013382
   endloop
endfacet
facet normal -5.28175393749588e-015 -9.88629008157509e-016 -1.0
   outer loop
      vertex -226.975508823565 -13.1359137192546 1.47542259204612
      vertex -224.477968543896 -39.677604704082 1.47542259204584
      vertex -228.241272510652 -32.0944634242919 1.47542259204594
   endloop
endfacet
facet normal -5.28175393749588e-015 -9.88629008157509e-016 -1.0
   outer loop
      vertex -224.477968543896 -39.677604704082 1.47542259204584
      vertex -226.975508823565 -13.1359137192546 1.47542259204612
      vertex -222.475230063639 -6.46707044124783 1.47542259204587
   endloop
endfacet
facet normal -5.28175393749588e-015 -9.88629008157509e-016 -1.0
   outer loop
      vertex -224.477968543896 -39.677604704082 1.47542259204584
      vertex -222.475230063639 -6.46707044124783 1.47542259204587
      vertex -214.43640127459 -40.5737907076923 1.47542259204594
   endloop
endfacet
facet normal -5.28175393749588e-015 -9.88629008157509e-016 -1.0
   outer loop
      vertex -214.43640127459 -40.5737907076923 1.47542259204594
      vertex -222.475230063639 -6.46707044124783 1.47542259204587
      vertex -210.20506196522 -11.5908148355421 1.47542259204573
   endloop
endfacet
facet normal -5.28175393749588e-015 -9.88629008157509e-016 -1.0
   outer loop
      vertex -214.43640127459 -40.5737907076923 1.47542259204594
      vertex -210.20506196522 -11.5908148355421 1.47542259204573
      vertex -208.871530266149 -32.9069710683893 1.475422592046
   endloop
endfacet
facet normal -0.841472206447069 -0.417599458535256 -0.342834096915932
   outer loop
      vertex -228.658845521363 -38.3488525806646 10.1186865920458
      vertex -224.477968543896 -39.677604704082 1.47542259204584
      vertex -225.074408046703 -45.5715738965717 10.1186865920458
   endloop
endfacet
facet normal -0.841472206447069 -0.417599458535256 -0.342834096915932
   outer loop
      vertex -224.477968543896 -39.677604704082 1.47542259204584
      vertex -228.658845521363 -38.3488525806646 10.1186865920458
      vertex -228.241272510652 -32.0944634242919 1.47542259204594
   endloop
endfacet
facet normal -0.073326169651283 -0.821603620440204 -0.565323592046025
   outer loop
      vertex -214.43640127459 -40.5737907076923 1.47542259204594
      vertex -225.074408046703 -45.5715738965717 10.1186865920458
      vertex -224.477968543896 -39.677604704082 1.47542259204584
   endloop
endfacet
facet normal -0.073326169651283 -0.821603620440204 -0.565323592046025
   outer loop
      vertex -225.074408046703 -45.5715738965717 10.1186865920458
      vertex -214.43640127459 -40.5737907076923 1.47542259204594
      vertex -214.43640127459 -46.5209907076922 10.1186865920457
   endloop
endfacet
facet normal -0.0135466701041553 0.999908239654564 1.626876975144e-015
   outer loop
      vertex -223.576770423304 -3.38817120411791 1.02758857469595
      vertex -206.448967227261 -3.15612521199191 3.12120714962913
      vertex -209.638108304914 -3.19933141870293 0.0
   endloop
endfacet
facet normal -0.0135466701041553 0.999908239654564 1.626876975144e-015
   outer loop
      vertex -206.448967227261 -3.15612521199191 3.12120714962913
      vertex -223.576770423304 -3.38817120411791 1.02758857469595
      vertex -223.576770423304 -3.38817120411809 10.566520609396
   endloop
endfacet
facet normal -0.0135466701041553 0.999908239654564 1.626876975144e-015
   outer loop
      vertex -206.448967227261 -3.15612521199191 3.12120714962913
      vertex -223.576770423304 -3.38817120411809 10.566520609396
      vertex -206.448967227261 -3.15612521199192 8.5017394013382
   endloop
endfacet
facet normal -0.0135466701041553 0.999908239654564 1.626876975144e-015
   outer loop
      vertex -206.448967227261 -3.15612521199192 8.5017394013382
      vertex -223.576770423304 -3.38817120411809 10.566520609396
      vertex -209.638108304914 -3.19933141870295 11.5941091840918
   endloop
endfacet
facet normal 0.998048869105816 0.0624376078705841 1.73354831248819e-014
   outer loop
      vertex -208.871530266149 -32.9069710683893 1.475422592046
      vertex -210.20506196522 -11.590814835542 10.1186865920458
      vertex -208.528998089689 -38.3822585274537 10.1186865920458
   endloop
endfacet
facet normal 0.998048869105816 0.0624376078705841 1.73354831248819e-014
   outer loop
      vertex -210.20506196522 -11.590814835542 10.1186865920458
      vertex -208.871530266149 -32.9069710683893 1.475422592046
      vertex -210.20506196522 -11.5908148355421 1.47542259204573
   endloop
endfacet
facet normal -0.997778654611325 0.0666164874638034 9.93327978822129e-016
   outer loop
      vertex -226.975508823565 -13.1359137192546 10.1186865920459
      vertex -228.241272510652 -32.0944634242919 1.47542259204594
      vertex -228.658845521363 -38.3488525806646 10.1186865920458
   endloop
endfacet
facet normal -0.997778654611325 0.0666164874638034 9.93327978822129e-016
   outer loop
      vertex -228.241272510652 -32.0944634242919 1.47542259204594
      vertex -226.975508823565 -13.1359137192546 10.1186865920459
      vertex -226.975508823565 -13.1359137192546 1.47542259204612
   endloop
endfacet
facet normal 0.750317933594535 -0.544609461577669 -0.374731280902074
   outer loop
      vertex -214.43640127459 -40.5737907076923 1.47542259204594
      vertex -208.528998089689 -38.3822585274537 10.1186865920458
      vertex -214.43640127459 -46.5209907076922 10.1186865920457
   endloop
endfacet
facet normal 0.750317933594535 -0.544609461577669 -0.374731280902074
   outer loop
      vertex -208.528998089689 -38.3822585274537 10.1186865920458
      vertex -214.43640127459 -40.5737907076923 1.47542259204594
      vertex -208.871530266149 -32.9069710683893 1.475422592046
   endloop
endfacet
facet normal 0.687116309741008 -0.170596571141987 0.706235078994591
   outer loop
      vertex -206.448967227261 -3.15612521199192 8.5017394013382
      vertex -209.638108304914 -3.19933141870295 11.5941091840918
      vertex -210.20506196522 -11.590814835542 10.1186865920458
   endloop
endfacet
facet normal -0.941554482961438 -0.336860736232675 -1.20641581989593e-015
   outer loop
      vertex -223.576770423304 -3.38817120411809 10.566520609396
      vertex -222.475230063639 -6.46707044124783 1.47542259204587
      vertex -222.475230063639 -6.46707044124786 10.1186865920459
   endloop
endfacet
facet normal -0.941554482961438 -0.336860736232675 -1.20641581989593e-015
   outer loop
      vertex -222.475230063639 -6.46707044124783 1.47542259204587
      vertex -223.576770423304 -3.38817120411809 10.566520609396
      vertex -223.576770423304 -3.38817120411791 1.02758857469595
   endloop
endfacet
endsolid 犀牛2014版列印
