solid Armdudroid
facet normal 0.0166930683261023 3.82856869892694e-16 0.999860661027255
outer loop
vertex 144.264672807655 560.344991045864 4.45302394244424
vertex 143.877351539136 555.344991045864 4.51060880722608
vertex 144.264672807655 555.344991045864 4.45302394244424
endloop
endfacet
facet normal 0.274907247338845 5.9820807626606e-16 0.961470751172691
outer loop
vertex 143.877351539136 555.344991045864 4.51060880722608
vertex 144.264672807655 560.344991045864 4.45302394244424
vertex 143.877351539136 560.344991045864 4.51060880722608
endloop
endfacet
facet normal 0.961470751172693 7.53297580516773e-16 -0.274907247338839
outer loop
vertex 146.693389288076 555.344991045864 5.26554681563803
vertex 146.789364062713 560.344991045864 5.91108226316986
vertex 146.789364062713 555.344991045864 5.91108226316986
endloop
endfacet
facet normal 0.999860661027256 8.82457230974016e-16 -0.0166930683261023
outer loop
vertex 146.789364062713 560.344991045864 5.91108226316986
vertex 146.693389288076 555.344991045864 5.26554681563803
vertex 146.693389288076 560.344991045864 5.26554681563803
endloop
endfacet
facet normal 0.857558198531254 5.72801944830424e-16 -0.51438695175114
outer loop
vertex 143.003375112348 555.344991045864 6.72439536161184
vertex 143.246905702382 560.344991045864 7.03103298718447
vertex 143.246905702382 555.344991045864 7.03103298718447
endloop
endfacet
facet normal 0.695204471841833 3.53270803203842e-16 -0.71881203546624
outer loop
vertex 143.246905702382 560.344991045864 7.03103298718447
vertex 143.003375112348 555.344991045864 6.72439536161184
vertex 143.003375112348 560.344991045864 6.72439536161184
endloop
endfacet
facet normal -0.874251266857355 -9.55658814723117e-16 -0.485473709276115
outer loop
vertex 142.104084243001 560.344991045864 4.73913066079482
vertex 141.864433112193 555.344991045864 5.34616814471896
vertex 141.864433112193 560.344991045864 5.34616814471896
endloop
endfacet
facet normal -0.970111719180679 -9.51478879469906e-16 -0.242658715706457
outer loop
vertex 141.864433112193 555.344991045864 5.34616814471896
vertex 142.104084243001 560.344991045864 4.73913066079482
vertex 142.104084243001 555.344991045864 4.73913066079483
endloop
endfacet
facet normal 0.874251266857361 9.55658814723118e-16 0.485473709276105
outer loop
vertex 142.978335509858 555.344991045864 5.22460437007096
vertex 142.834544831374 560.344991045864 5.58882686042543
vertex 142.834544831374 555.344991045864 5.58882686042543
endloop
endfacet
facet normal 0.970111719180679 9.51478879469906e-16 0.242658715706457
outer loop
vertex 142.834544831374 560.344991045864 5.58882686042543
vertex 142.978335509858 555.344991045864 5.22460437007096
vertex 142.978335509858 560.344991045864 5.22460437007096
endloop
endfacet
facet normal -0.961470751172693 -7.53297580516772e-16 0.27490724733884
outer loop
vertex 145.731918536904 560.344991045864 5.54045406297686
vertex 145.789503401685 555.344991045864 5.92777533149597
vertex 145.789503401685 560.344991045864 5.92777533149596
endloop
endfacet
facet normal -0.999860661027256 -8.82457230974016e-16 0.0166930683261023
outer loop
vertex 145.789503401685 555.344991045864 5.92777533149597
vertex 145.731918536904 560.344991045864 5.54045406297686
vertex 145.731918536904 555.344991045864 5.54045406297686
endloop
endfacet
facet normal 0.274907247338845 5.9820807626606e-16 0.961470751172691
outer loop
vertex 143.877351539136 560.344991045864 4.51060880722608
vertex 143.518131982518 555.344991045864 4.66647763618825
vertex 143.877351539136 555.344991045864 4.51060880722608
endloop
endfacet
facet normal 0.514386951751137 7.72792390827472e-16 0.857558198531256
outer loop
vertex 143.518131982518 555.344991045864 4.66647763618825
vertex 143.877351539136 560.344991045864 4.51060880722608
vertex 143.518131982518 560.344991045864 4.66647763618824
endloop
endfacet
facet normal 8.88725326178197e-16 -1.0 3.68072604158223e-16
outer loop
vertex 141.864433112193 555.344991045864 5.34616814471896
vertex 141.886035532213 555.344991045864 6.64008305233221
vertex 141.790060757576 555.344991045864 5.99454760480037
endloop
endfacet
facet normal 8.88725326178197e-16 -1.0 3.68072604158223e-16
outer loop
vertex 141.886035532213 555.344991045864 6.64008305233221
vertex 141.864433112193 555.344991045864 5.34616814471896
vertex 142.104084243001 555.344991045864 4.73913066079483
endloop
endfacet
facet normal 8.88725326178197e-16 -1.0 3.68072604158223e-16
outer loop
vertex 141.886035532213 555.344991045864 6.64008305233221
vertex 142.104084243001 555.344991045864 4.73913066079483
vertex 142.145816913816 555.344991045864 7.23878231336296
endloop
endfacet
facet normal 8.88725326178197e-16 -1.0 3.68072604158223e-16
outer loop
vertex 142.145816913816 555.344991045864 7.23878231336296
vertex 142.104084243001 555.344991045864 4.73913066079483
vertex 142.492682321479 555.344991045864 4.21480375438052
endloop
endfacet
facet normal 8.88725326178197e-16 -1.0 3.68072604158223e-16
outer loop
vertex 142.145816913816 555.344991045864 7.23878231336296
vertex 142.492682321479 555.344991045864 4.21480375438052
vertex 142.55170123054 555.344991045864 7.74984502265071
endloop
endfacet
facet normal 8.88725326178197e-16 -1.0 3.68072604158223e-16
outer loop
vertex 142.55170123054 555.344991045864 7.74984502265071
vertex 142.492682321479 555.344991045864 4.21480375438052
vertex 143.003745030767 555.344991045864 3.808919437657
endloop
endfacet
facet normal 8.88725326178197e-16 -1.0 3.68072604158223e-16
outer loop
vertex 142.55170123054 555.344991045864 7.74984502265071
vertex 143.003745030767 555.344991045864 3.808919437657
vertex 142.789921418604 555.344991045864 5.97785453647427
endloop
endfacet
facet normal 8.88725326178197e-16 -1.0 3.68072604158223e-16
outer loop
vertex 142.789921418604 555.344991045864 5.97785453647427
vertex 143.003745030767 555.344991045864 3.808919437657
vertex 142.834544831374 555.344991045864 5.58882686042543
endloop
endfacet
facet normal 8.88725326178197e-16 -1.0 3.68072604158223e-16
outer loop
vertex 142.834544831374 555.344991045864 5.58882686042543
vertex 143.003745030767 555.344991045864 3.808919437657
vertex 142.978335509858 555.344991045864 5.22460437007096
endloop
endfacet
facet normal 8.88725326178197e-16 -1.0 3.68072604158223e-16
outer loop
vertex 142.978335509858 555.344991045864 5.22460437007096
vertex 143.003745030767 555.344991045864 3.808919437657
vertex 143.211494356945 555.344991045864 4.91000822622236
endloop
endfacet
facet normal 8.88725326178197e-16 -1.0 3.68072604158223e-16
outer loop
vertex 143.211494356945 555.344991045864 4.91000822622236
vertex 143.003745030767 555.344991045864 3.808919437657
vertex 143.602444291797 555.344991045864 3.54913805605339
endloop
endfacet
facet normal 8.88725326178197e-16 -1.0 3.68072604158223e-16
outer loop
vertex 143.211494356945 555.344991045864 4.91000822622236
vertex 143.602444291797 555.344991045864 3.54913805605339
vertex 143.518131982518 555.344991045864 4.66647763618825
endloop
endfacet
facet normal 8.88725326178197e-16 -1.0 3.68072604158223e-16
outer loop
vertex 143.518131982518 555.344991045864 4.66647763618825
vertex 143.602444291797 555.344991045864 3.54913805605339
vertex 143.877351539136 555.344991045864 4.51060880722608
endloop
endfacet
facet normal 8.88725326178197e-16 -1.0 3.68072604158223e-16
outer loop
vertex 143.877351539136 555.344991045864 4.51060880722608
vertex 143.602444291797 555.344991045864 3.54913805605339
vertex 144.247979739329 555.344991045864 3.45316328141698
endloop
endfacet
facet normal 8.88725326178197e-16 -1.0 3.68072604158223e-16
outer loop
vertex 143.877351539136 555.344991045864 4.51060880722608
vertex 144.247979739329 555.344991045864 3.45316328141698
vertex 144.264672807655 555.344991045864 4.45302394244424
endloop
endfacet
facet normal 8.88725326178197e-16 -1.0 3.68072604158223e-16
outer loop
vertex 144.264672807655 555.344991045864 4.45302394244424
vertex 144.247979739329 555.344991045864 3.45316328141698
vertex 144.896359199411 555.344991045864 3.52753563603343
endloop
endfacet
facet normal 8.88725326178197e-16 -1.0 3.68072604158223e-16
outer loop
vertex 144.264672807655 555.344991045864 4.45302394244424
vertex 144.896359199411 555.344991045864 3.52753563603343
vertex 144.653700483704 555.344991045864 4.4976473552141
endloop
endfacet
facet normal 8.88725326178197e-16 -1.0 3.68072604158223e-16
outer loop
vertex 144.653700483704 555.344991045864 4.4976473552141
vertex 144.896359199411 555.344991045864 3.52753563603343
vertex 145.017922974059 555.344991045864 4.64143803369909
endloop
endfacet
facet normal 8.88725326178197e-16 -1.0 3.68072604158223e-16
outer loop
vertex 145.017922974059 555.344991045864 4.64143803369909
vertex 144.896359199411 555.344991045864 3.52753563603343
vertex 145.503396683335 555.344991045864 3.76718676684174
endloop
endfacet
facet normal 8.88725326178197e-16 -1.0 3.68072604158223e-16
outer loop
vertex 145.017922974059 555.344991045864 4.64143803369909
vertex 145.503396683335 555.344991045864 3.76718676684174
vertex 145.332519117907 555.344991045864 4.87459688078577
endloop
endfacet
facet normal 8.88725326178197e-16 -1.0 3.68072604158223e-16
outer loop
vertex 145.332519117907 555.344991045864 4.87459688078577
vertex 145.503396683335 555.344991045864 3.76718676684174
vertex 145.576049707941 555.344991045864 5.1812345063584
endloop
endfacet
facet normal 8.88725326178197e-16 -1.0 3.68072604158223e-16
outer loop
vertex 145.576049707941 555.344991045864 5.1812345063584
vertex 145.503396683335 555.344991045864 3.76718676684174
vertex 146.027723589749 555.344991045864 4.15578484531953
endloop
endfacet
facet normal 8.88725326178197e-16 -1.0 3.68072604158223e-16
outer loop
vertex 145.576049707941 555.344991045864 5.1812345063584
vertex 146.027723589749 555.344991045864 4.15578484531953
vertex 145.731918536904 555.344991045864 5.54045406297686
endloop
endfacet
facet normal 8.88725326178197e-16 -1.0 3.68072604158223e-16
outer loop
vertex 145.731918536904 555.344991045864 5.54045406297686
vertex 146.027723589749 555.344991045864 4.15578484531953
vertex 145.789503401685 555.344991045864 5.92777533149597
endloop
endfacet
facet normal 8.88725326178197e-16 -1.0 3.68072604158223e-16
outer loop
vertex 142.789921418604 555.344991045864 5.97785453647427
vertex 143.076028136954 555.344991045864 8.1384431011285
vertex 142.55170123054 555.344991045864 7.74984502265071
endloop
endfacet
facet normal 8.88725326178197e-16 -1.0 3.68072604158223e-16
outer loop
vertex 143.076028136954 555.344991045864 8.1384431011285
vertex 142.789921418604 555.344991045864 5.97785453647427
vertex 142.847506283385 555.344991045864 6.36517580499338
endloop
endfacet
facet normal 8.88725326178197e-16 -1.0 3.68072604158223e-16
outer loop
vertex 143.076028136954 555.344991045864 8.1384431011285
vertex 142.847506283385 555.344991045864 6.36517580499338
vertex 143.003375112348 555.344991045864 6.72439536161184
endloop
endfacet
facet normal 8.88725326178197e-16 -1.0 3.68072604158223e-16
outer loop
vertex 143.076028136954 555.344991045864 8.1384431011285
vertex 143.003375112348 555.344991045864 6.72439536161184
vertex 143.246905702382 555.344991045864 7.03103298718447
endloop
endfacet
facet normal 8.88725326178197e-16 -1.0 3.68072604158223e-16
outer loop
vertex 143.076028136954 555.344991045864 8.1384431011285
vertex 143.246905702382 555.344991045864 7.03103298718447
vertex 143.683065620878 555.344991045864 8.37809423193681
endloop
endfacet
facet normal 8.88725326178197e-16 -1.0 3.68072604158223e-16
outer loop
vertex 143.683065620878 555.344991045864 8.37809423193681
vertex 143.246905702382 555.344991045864 7.03103298718447
vertex 143.56150184623 555.344991045864 7.26419183427115
endloop
endfacet
facet normal 8.88725326178197e-16 -1.0 3.68072604158223e-16
outer loop
vertex 143.683065620878 555.344991045864 8.37809423193681
vertex 143.56150184623 555.344991045864 7.26419183427115
vertex 143.925724336585 555.344991045864 7.40798251275614
endloop
endfacet
facet normal 8.88725326178197e-16 -1.0 3.68072604158223e-16
outer loop
vertex 143.683065620878 555.344991045864 8.37809423193681
vertex 143.925724336585 555.344991045864 7.40798251275614
vertex 144.33144508096 555.344991045864 8.45246658655325
endloop
endfacet
facet normal 8.88725326178197e-16 -1.0 3.68072604158223e-16
outer loop
vertex 144.33144508096 555.344991045864 8.45246658655325
vertex 143.925724336585 555.344991045864 7.40798251275614
vertex 144.314752012634 555.344991045864 7.452605925526
endloop
endfacet
facet normal 8.88725326178197e-16 -1.0 3.68072604158223e-16
outer loop
vertex 144.33144508096 555.344991045864 8.45246658655325
vertex 144.314752012634 555.344991045864 7.452605925526
vertex 144.702073281153 555.344991045864 7.39502106074416
endloop
endfacet
facet normal 8.88725326178197e-16 -1.0 3.68072604158223e-16
outer loop
vertex 144.33144508096 555.344991045864 8.45246658655325
vertex 144.702073281153 555.344991045864 7.39502106074416
vertex 144.976980528492 555.344991045864 8.35649181191684
endloop
endfacet
facet normal 8.88725326178197e-16 -1.0 3.68072604158223e-16
outer loop
vertex 144.976980528492 555.344991045864 8.35649181191684
vertex 144.702073281153 555.344991045864 7.39502106074416
vertex 145.061292837771 555.344991045864 7.23915223178199
endloop
endfacet
facet normal 8.88725326178197e-16 -1.0 3.68072604158223e-16
outer loop
vertex 144.976980528492 555.344991045864 8.35649181191684
vertex 145.061292837771 555.344991045864 7.23915223178199
vertex 145.575679789522 555.344991045864 8.09671043031324
endloop
endfacet
facet normal 8.88725326178197e-16 -1.0 3.68072604158223e-16
outer loop
vertex 145.575679789522 555.344991045864 8.09671043031324
vertex 145.061292837771 555.344991045864 7.23915223178199
vertex 145.367930463344 555.344991045864 6.99562164174788
endloop
endfacet
facet normal 8.88725326178197e-16 -1.0 3.68072604158223e-16
outer loop
vertex 145.575679789522 555.344991045864 8.09671043031324
vertex 145.367930463344 555.344991045864 6.99562164174788
vertex 145.601089310431 555.344991045864 6.68102549789928
endloop
endfacet
facet normal 8.88725326178197e-16 -1.0 3.68072604158223e-16
outer loop
vertex 145.575679789522 555.344991045864 8.09671043031324
vertex 145.601089310431 555.344991045864 6.68102549789928
vertex 146.08674249881 555.344991045864 7.69082611358972
endloop
endfacet
facet normal 8.88725326178197e-16 -1.0 3.68072604158223e-16
outer loop
vertex 146.08674249881 555.344991045864 7.69082611358972
vertex 145.601089310431 555.344991045864 6.68102549789928
vertex 145.744879988916 555.344991045864 6.31680300754481
endloop
endfacet
facet normal 8.88725326178197e-16 -1.0 3.68072604158223e-16
outer loop
vertex 146.08674249881 555.344991045864 7.69082611358972
vertex 145.744879988916 555.344991045864 6.31680300754481
vertex 145.789503401685 555.344991045864 5.92777533149597
endloop
endfacet
facet normal 8.88725326178197e-16 -1.0 3.68072604158223e-16
outer loop
vertex 146.08674249881 555.344991045864 7.69082611358972
vertex 145.789503401685 555.344991045864 5.92777533149597
vertex 146.027723589749 555.344991045864 4.15578484531953
endloop
endfacet
facet normal 8.88725326178197e-16 -1.0 3.68072604158223e-16
outer loop
vertex 146.08674249881 555.344991045864 7.69082611358972
vertex 146.027723589749 555.344991045864 4.15578484531953
vertex 146.433607906473 555.344991045864 4.66684755460728
endloop
endfacet
facet normal 8.88725326178197e-16 -1.0 3.68072604158223e-16
outer loop
vertex 146.08674249881 555.344991045864 7.69082611358972
vertex 146.433607906473 555.344991045864 4.66684755460728
vertex 146.475340577288 555.344991045864 7.16649920717541
endloop
endfacet
facet normal 8.88725326178197e-16 -1.0 3.68072604158223e-16
outer loop
vertex 146.475340577288 555.344991045864 7.16649920717541
vertex 146.433607906473 555.344991045864 4.66684755460728
vertex 146.693389288076 555.344991045864 5.26554681563803
endloop
endfacet
facet normal 8.88725326178197e-16 -1.0 3.68072604158223e-16
outer loop
vertex 146.475340577288 555.344991045864 7.16649920717541
vertex 146.693389288076 555.344991045864 5.26554681563803
vertex 146.714991708096 555.344991045864 6.55946172325126
endloop
endfacet
facet normal 8.88725326178197e-16 -1.0 3.68072604158223e-16
outer loop
vertex 146.714991708096 555.344991045864 6.55946172325126
vertex 146.693389288076 555.344991045864 5.26554681563803
vertex 146.789364062713 555.344991045864 5.91108226316986
endloop
endfacet
facet normal 0.718812035466232 8.94712181053809e-16 0.695204471841841
outer loop
vertex 143.211494356945 555.344991045864 4.91000822622236
vertex 142.978335509858 560.344991045864 5.22460437007096
vertex 142.978335509858 555.344991045864 5.22460437007096
endloop
endfacet
facet normal 0.874251266857361 9.55658814723118e-16 0.485473709276105
outer loop
vertex 142.978335509858 560.344991045864 5.22460437007096
vertex 143.211494356945 555.344991045864 4.91000822622236
vertex 143.211494356945 560.344991045864 4.91000822622236
endloop
endfacet
facet normal -0.857558198531254 -5.72801944830424e-16 0.51438695175114
outer loop
vertex 145.576049707941 560.344991045864 5.18123450635839
vertex 145.731918536904 555.344991045864 5.54045406297686
vertex 145.731918536904 560.344991045864 5.54045406297686
endloop
endfacet
facet normal -0.961470751172693 -7.53297580516772e-16 0.27490724733884
outer loop
vertex 145.731918536904 555.344991045864 5.54045406297686
vertex 145.576049707941 560.344991045864 5.18123450635839
vertex 145.576049707941 555.344991045864 5.1812345063584
endloop
endfacet
facet normal -0.874251266857361 -9.55658814723118e-16 -0.485473709276105
outer loop
vertex 145.601089310431 560.344991045864 6.68102549789928
vertex 145.367930463344 555.344991045864 6.99562164174788
vertex 145.367930463344 560.344991045864 6.99562164174788
endloop
endfacet
facet normal -0.718812035466232 -8.94712181053809e-16 -0.695204471841841
outer loop
vertex 145.367930463344 555.344991045864 6.99562164174788
vertex 145.601089310431 560.344991045864 6.68102549789928
vertex 145.601089310431 555.344991045864 6.68102549789928
endloop
endfacet
facet normal 0.485473709276109 1.09664840146536e-16 -0.874251266857358
outer loop
vertex 143.56150184623 560.344991045864 7.26419183427114
vertex 143.925724336585 555.344991045864 7.40798251275614
vertex 143.56150184623 555.344991045864 7.26419183427115
endloop
endfacet
facet normal 0.242658715706464 -1.41414600537032e-16 -0.970111719180677
outer loop
vertex 143.925724336585 555.344991045864 7.40798251275614
vertex 143.56150184623 560.344991045864 7.26419183427114
vertex 143.925724336585 560.344991045864 7.40798251275614
endloop
endfacet
facet normal -0.274907247338846 -5.98208076266061e-16 -0.961470751172691
outer loop
vertex 143.602444291797 560.344991045864 3.54913805605339
vertex 144.247979739329 555.344991045864 3.45316328141698
vertex 143.602444291797 555.344991045864 3.54913805605339
endloop
endfacet
facet normal -0.0166930683261023 -3.82856869892694e-16 -0.999860661027255
outer loop
vertex 144.247979739329 555.344991045864 3.45316328141698
vertex 143.602444291797 560.344991045864 3.54913805605339
vertex 144.247979739329 560.344991045864 3.45316328141698
endloop
endfacet
facet normal -0.695204471841833 -3.53270803203842e-16 0.71881203546624
outer loop
vertex 145.332519117907 560.344991045864 4.87459688078576
vertex 145.017922974059 555.344991045864 4.64143803369909
vertex 145.332519117907 555.344991045864 4.87459688078577
endloop
endfacet
facet normal -0.485473709276109 -1.09664840146536e-16 0.874251266857358
outer loop
vertex 145.017922974059 555.344991045864 4.64143803369909
vertex 145.332519117907 560.344991045864 4.87459688078576
vertex 145.017922974059 560.344991045864 4.64143803369909
endloop
endfacet
facet normal 0.874251266857358 9.55658814723117e-16 0.48547370927611
outer loop
vertex 146.475340577288 555.344991045864 7.16649920717541
vertex 146.08674249881 560.344991045864 7.69082611358972
vertex 146.08674249881 555.344991045864 7.69082611358972
endloop
endfacet
facet normal 0.718812035466224 8.94712181053805e-16 0.695204471841849
outer loop
vertex 146.08674249881 560.344991045864 7.69082611358972
vertex 146.475340577288 555.344991045864 7.16649920717541
vertex 146.475340577288 560.344991045864 7.16649920717541
endloop
endfacet
facet normal 0.718812035466224 8.94712181053805e-16 0.695204471841849
outer loop
vertex 146.08674249881 560.344991045864 7.69082611358972
vertex 145.575679789522 555.344991045864 8.09671043031324
vertex 146.08674249881 555.344991045864 7.69082611358972
endloop
endfacet
facet normal 0.514386951751138 7.72792390827472e-16 0.857558198531256
outer loop
vertex 145.575679789522 555.344991045864 8.09671043031324
vertex 146.08674249881 560.344991045864 7.69082611358972
vertex 145.575679789522 560.344991045864 8.09671043031324
endloop
endfacet
facet normal -0.0166930683261023 -3.82856869892694e-16 -0.999860661027255
outer loop
vertex 144.314752012634 560.344991045864 7.452605925526
vertex 144.702073281153 555.344991045864 7.39502106074416
vertex 144.314752012634 555.344991045864 7.452605925526
endloop
endfacet
facet normal -0.274907247338845 -5.9820807626606e-16 -0.961470751172691
outer loop
vertex 144.702073281153 555.344991045864 7.39502106074416
vertex 144.314752012634 560.344991045864 7.452605925526
vertex 144.702073281153 560.344991045864 7.39502106074416
endloop
endfacet
facet normal -0.857558198531258 -5.72801944830429e-16 0.514386951751134
outer loop
vertex 142.145816913816 560.344991045864 7.23878231336296
vertex 142.55170123054 555.344991045864 7.74984502265071
vertex 142.55170123054 560.344991045864 7.74984502265071
endloop
endfacet
facet normal -0.695204471841837 -3.53270803203847e-16 0.718812035466236
outer loop
vertex 142.55170123054 555.344991045864 7.74984502265071
vertex 142.145816913816 560.344991045864 7.23878231336296
vertex 142.145816913816 555.344991045864 7.23878231336296
endloop
endfacet
facet normal -0.242658715706465 1.41414600537031e-16 0.970111719180677
outer loop
vertex 143.683065620878 560.344991045864 8.37809423193681
vertex 143.076028136954 555.344991045864 8.1384431011285
vertex 143.683065620878 555.344991045864 8.37809423193681
endloop
endfacet
facet normal -0.48547370927611 -1.09664840146537e-16 0.874251266857358
outer loop
vertex 143.076028136954 555.344991045864 8.1384431011285
vertex 143.683065620878 560.344991045864 8.37809423193681
vertex 143.076028136954 560.344991045864 8.13844310112849
endloop
endfacet
facet normal 0.274907247338846 5.98208076266061e-16 0.961470751172691
outer loop
vertex 144.976980528492 560.344991045864 8.35649181191684
vertex 144.33144508096 555.344991045864 8.45246658655325
vertex 144.976980528492 555.344991045864 8.35649181191684
endloop
endfacet
facet normal 0.0166930683261023 3.82856869892694e-16 0.999860661027255
outer loop
vertex 144.33144508096 555.344991045864 8.45246658655325
vertex 144.976980528492 560.344991045864 8.35649181191684
vertex 144.33144508096 560.344991045864 8.45246658655325
endloop
endfacet
facet normal -0.961470751172693 -7.53297580516773e-16 0.274907247338839
outer loop
vertex 141.886035532213 560.344991045864 6.6400830523322
vertex 142.145816913816 555.344991045864 7.23878231336296
vertex 142.145816913816 560.344991045864 7.23878231336296
endloop
endfacet
facet normal -0.857558198531258 -5.72801944830429e-16 0.514386951751134
outer loop
vertex 142.145816913816 555.344991045864 7.23878231336296
vertex 141.886035532213 560.344991045864 6.6400830523322
vertex 141.886035532213 555.344991045864 6.64008305233221
endloop
endfacet
facet normal 0.999860661027256 8.82457230974016e-16 -0.0166930683261023
outer loop
vertex 142.789921418604 555.344991045864 5.97785453647427
vertex 142.847506283385 560.344991045864 6.36517580499337
vertex 142.847506283385 555.344991045864 6.36517580499338
endloop
endfacet
facet normal 0.961470751172693 7.53297580516772e-16 -0.27490724733884
outer loop
vertex 142.847506283385 560.344991045864 6.36517580499337
vertex 142.789921418604 555.344991045864 5.97785453647427
vertex 142.789921418604 560.344991045864 5.97785453647427
endloop
endfacet
facet normal -0.970111719180679 -9.51478879469906e-16 -0.242658715706457
outer loop
vertex 145.744879988916 560.344991045864 6.3168030075448
vertex 145.601089310431 555.344991045864 6.68102549789928
vertex 145.601089310431 560.344991045864 6.68102549789928
endloop
endfacet
facet normal -0.874251266857361 -9.55658814723118e-16 -0.485473709276105
outer loop
vertex 145.601089310431 555.344991045864 6.68102549789928
vertex 145.744879988916 560.344991045864 6.3168030075448
vertex 145.744879988916 555.344991045864 6.31680300754481
endloop
endfacet
facet normal -0.999860661027255 -8.82457230974015e-16 0.0166930683261045
outer loop
vertex 141.790060757576 560.344991045864 5.99454760480037
vertex 141.886035532213 555.344991045864 6.64008305233221
vertex 141.886035532213 560.344991045864 6.6400830523322
endloop
endfacet
facet normal -0.961470751172693 -7.53297580516773e-16 0.274907247338839
outer loop
vertex 141.886035532213 555.344991045864 6.64008305233221
vertex 141.790060757576 560.344991045864 5.99454760480037
vertex 141.790060757576 555.344991045864 5.99454760480037
endloop
endfacet
facet normal -0.514386951751138 -7.72792390827472e-16 -0.857558198531256
outer loop
vertex 143.003745030767 560.344991045864 3.808919437657
vertex 143.602444291797 555.344991045864 3.54913805605339
vertex 143.003745030767 555.344991045864 3.808919437657
endloop
endfacet
facet normal -0.274907247338846 -5.98208076266061e-16 -0.961470751172691
outer loop
vertex 143.602444291797 555.344991045864 3.54913805605339
vertex 143.003745030767 560.344991045864 3.808919437657
vertex 143.602444291797 560.344991045864 3.54913805605339
endloop
endfacet
facet normal -0.0166930683261023 -3.82856869892694e-16 -0.999860661027255
outer loop
vertex 144.247979739329 560.344991045864 3.45316328141698
vertex 144.896359199411 555.344991045864 3.52753563603343
vertex 144.247979739329 555.344991045864 3.45316328141698
endloop
endfacet
facet normal 0.242658715706465 -1.41414600537031e-16 -0.970111719180677
outer loop
vertex 144.896359199411 555.344991045864 3.52753563603343
vertex 144.247979739329 560.344991045864 3.45316328141698
vertex 144.896359199411 560.344991045864 3.52753563603343
endloop
endfacet
facet normal -0.274907247338845 -5.9820807626606e-16 -0.961470751172691
outer loop
vertex 144.702073281153 560.344991045864 7.39502106074416
vertex 145.061292837771 555.344991045864 7.23915223178199
vertex 144.702073281153 555.344991045864 7.39502106074416
endloop
endfacet
facet normal -0.514386951751137 -7.72792390827472e-16 -0.857558198531256
outer loop
vertex 145.061292837771 555.344991045864 7.23915223178199
vertex 144.702073281153 560.344991045864 7.39502106074416
vertex 145.061292837771 560.344991045864 7.23915223178199
endloop
endfacet
facet normal 0.514386951751137 7.72792390827472e-16 0.857558198531256
outer loop
vertex 143.518131982518 560.344991045864 4.66647763618824
vertex 143.211494356945 555.344991045864 4.91000822622236
vertex 143.518131982518 555.344991045864 4.66647763618825
endloop
endfacet
facet normal 0.718812035466232 8.94712181053809e-16 0.695204471841841
outer loop
vertex 143.211494356945 555.344991045864 4.91000822622236
vertex 143.518131982518 560.344991045864 4.66647763618824
vertex 143.211494356945 560.344991045864 4.91000822622236
endloop
endfacet
facet normal 0.97011171918068 9.51478879469906e-16 0.242658715706453
outer loop
vertex 146.714991708096 555.344991045864 6.55946172325126
vertex 146.475340577288 560.344991045864 7.16649920717541
vertex 146.475340577288 555.344991045864 7.16649920717541
endloop
endfacet
facet normal 0.874251266857358 9.55658814723117e-16 0.48547370927611
outer loop
vertex 146.475340577288 560.344991045864 7.16649920717541
vertex 146.714991708096 555.344991045864 6.55946172325126
vertex 146.714991708096 560.344991045864 6.55946172325125
endloop
endfacet
facet normal 0.999860661027256 8.82457230974016e-16 -0.0166930683261023
outer loop
vertex 146.789364062713 555.344991045864 5.91108226316986
vertex 146.714991708096 560.344991045864 6.55946172325125
vertex 146.714991708096 555.344991045864 6.55946172325126
endloop
endfacet
facet normal 0.97011171918068 9.51478879469906e-16 0.242658715706453
outer loop
vertex 146.714991708096 560.344991045864 6.55946172325125
vertex 146.789364062713 555.344991045864 5.91108226316986
vertex 146.789364062713 560.344991045864 5.91108226316986
endloop
endfacet
facet normal -0.485473709276109 -1.09664840146536e-16 0.874251266857358
outer loop
vertex 145.017922974059 560.344991045864 4.64143803369909
vertex 144.653700483704 555.344991045864 4.4976473552141
vertex 145.017922974059 555.344991045864 4.64143803369909
endloop
endfacet
facet normal -0.242658715706464 1.41414600537032e-16 0.970111719180677
outer loop
vertex 144.653700483704 555.344991045864 4.4976473552141
vertex 145.017922974059 560.344991045864 4.64143803369909
vertex 144.653700483704 560.344991045864 4.4976473552141
endloop
endfacet
facet normal 0.514386951751138 7.72792390827472e-16 0.857558198531256
outer loop
vertex 145.575679789522 560.344991045864 8.09671043031324
vertex 144.976980528492 555.344991045864 8.35649181191684
vertex 145.575679789522 555.344991045864 8.09671043031324
endloop
endfacet
facet normal 0.274907247338846 5.98208076266061e-16 0.961470751172691
outer loop
vertex 144.976980528492 555.344991045864 8.35649181191684
vertex 145.575679789522 560.344991045864 8.09671043031324
vertex 144.976980528492 560.344991045864 8.35649181191684
endloop
endfacet
facet normal -0.48547370927611 -1.09664840146537e-16 0.874251266857358
outer loop
vertex 143.076028136954 560.344991045864 8.13844310112849
vertex 142.55170123054 555.344991045864 7.74984502265071
vertex 143.076028136954 555.344991045864 8.1384431011285
endloop
endfacet
facet normal -0.695204471841837 -3.53270803203847e-16 0.718812035466236
outer loop
vertex 142.55170123054 555.344991045864 7.74984502265071
vertex 143.076028136954 560.344991045864 8.13844310112849
vertex 142.55170123054 560.344991045864 7.74984502265071
endloop
endfacet
facet normal -0.242658715706464 1.41414600537032e-16 0.970111719180677
outer loop
vertex 144.653700483704 560.344991045864 4.4976473552141
vertex 144.264672807655 555.344991045864 4.45302394244424
vertex 144.653700483704 555.344991045864 4.4976473552141
endloop
endfacet
facet normal 0.0166930683261023 3.82856869892694e-16 0.999860661027255
outer loop
vertex 144.264672807655 555.344991045864 4.45302394244424
vertex 144.653700483704 560.344991045864 4.4976473552141
vertex 144.264672807655 560.344991045864 4.45302394244424
endloop
endfacet
facet normal 0.695204471841833 3.53270803203842e-16 -0.71881203546624
outer loop
vertex 143.246905702382 560.344991045864 7.03103298718447
vertex 143.56150184623 555.344991045864 7.26419183427115
vertex 143.246905702382 555.344991045864 7.03103298718447
endloop
endfacet
facet normal 0.485473709276109 1.09664840146536e-16 -0.874251266857358
outer loop
vertex 143.56150184623 555.344991045864 7.26419183427115
vertex 143.246905702382 560.344991045864 7.03103298718447
vertex 143.56150184623 560.344991045864 7.26419183427114
endloop
endfacet
facet normal 0.970111719180679 9.51478879469906e-16 0.242658715706457
outer loop
vertex 142.834544831374 555.344991045864 5.58882686042543
vertex 142.789921418604 560.344991045864 5.97785453647427
vertex 142.789921418604 555.344991045864 5.97785453647427
endloop
endfacet
facet normal 0.999860661027256 8.82457230974016e-16 -0.0166930683261023
outer loop
vertex 142.789921418604 560.344991045864 5.97785453647427
vertex 142.834544831374 555.344991045864 5.58882686042543
vertex 142.834544831374 560.344991045864 5.58882686042543
endloop
endfacet
facet normal -0.970111719180679 -9.51478879469906e-16 -0.242658715706457
outer loop
vertex 141.864433112193 560.344991045864 5.34616814471896
vertex 141.790060757576 555.344991045864 5.99454760480037
vertex 141.790060757576 560.344991045864 5.99454760480037
endloop
endfacet
facet normal -0.999860661027255 -8.82457230974015e-16 0.0166930683261045
outer loop
vertex 141.790060757576 555.344991045864 5.99454760480037
vertex 141.864433112193 560.344991045864 5.34616814471896
vertex 141.864433112193 555.344991045864 5.34616814471896
endloop
endfacet
facet normal -8.88725326178197e-16 1.0 -3.68072604158223e-16
outer loop
vertex 141.886035532213 560.344991045864 6.6400830523322
vertex 141.864433112193 560.344991045864 5.34616814471896
vertex 141.790060757576 560.344991045864 5.99454760480037
endloop
endfacet
facet normal -8.88725326178197e-16 1.0 -3.68072604158223e-16
outer loop
vertex 141.864433112193 560.344991045864 5.34616814471896
vertex 141.886035532213 560.344991045864 6.6400830523322
vertex 142.145816913816 560.344991045864 7.23878231336296
endloop
endfacet
facet normal -8.88725326178197e-16 1.0 -3.68072604158223e-16
outer loop
vertex 141.864433112193 560.344991045864 5.34616814471896
vertex 142.145816913816 560.344991045864 7.23878231336296
vertex 142.104084243001 560.344991045864 4.73913066079482
endloop
endfacet
facet normal -8.88725326178197e-16 1.0 -3.68072604158223e-16
outer loop
vertex 142.104084243001 560.344991045864 4.73913066079482
vertex 142.145816913816 560.344991045864 7.23878231336296
vertex 142.55170123054 560.344991045864 7.74984502265071
endloop
endfacet
facet normal -8.88725326178197e-16 1.0 -3.68072604158223e-16
outer loop
vertex 142.104084243001 560.344991045864 4.73913066079482
vertex 142.55170123054 560.344991045864 7.74984502265071
vertex 142.492682321479 560.344991045864 4.21480375438052
endloop
endfacet
facet normal -8.88725326178197e-16 1.0 -3.68072604158223e-16
outer loop
vertex 142.492682321479 560.344991045864 4.21480375438052
vertex 142.55170123054 560.344991045864 7.74984502265071
vertex 143.076028136954 560.344991045864 8.13844310112849
endloop
endfacet
facet normal -8.88725326178197e-16 1.0 -3.68072604158223e-16
outer loop
vertex 142.492682321479 560.344991045864 4.21480375438052
vertex 143.076028136954 560.344991045864 8.13844310112849
vertex 142.789921418604 560.344991045864 5.97785453647427
endloop
endfacet
facet normal -8.88725326178197e-16 1.0 -3.68072604158223e-16
outer loop
vertex 142.789921418604 560.344991045864 5.97785453647427
vertex 143.076028136954 560.344991045864 8.13844310112849
vertex 142.847506283385 560.344991045864 6.36517580499337
endloop
endfacet
facet normal -8.88725326178197e-16 1.0 -3.68072604158223e-16
outer loop
vertex 142.847506283385 560.344991045864 6.36517580499337
vertex 143.076028136954 560.344991045864 8.13844310112849
vertex 143.003375112348 560.344991045864 6.72439536161184
endloop
endfacet
facet normal -8.88725326178197e-16 1.0 -3.68072604158223e-16
outer loop
vertex 143.003375112348 560.344991045864 6.72439536161184
vertex 143.076028136954 560.344991045864 8.13844310112849
vertex 143.246905702382 560.344991045864 7.03103298718447
endloop
endfacet
facet normal -8.88725326178197e-16 1.0 -3.68072604158223e-16
outer loop
vertex 143.246905702382 560.344991045864 7.03103298718447
vertex 143.076028136954 560.344991045864 8.13844310112849
vertex 143.683065620878 560.344991045864 8.37809423193681
endloop
endfacet
facet normal -8.88725326178197e-16 1.0 -3.68072604158223e-16
outer loop
vertex 143.246905702382 560.344991045864 7.03103298718447
vertex 143.683065620878 560.344991045864 8.37809423193681
vertex 143.56150184623 560.344991045864 7.26419183427114
endloop
endfacet
facet normal -8.88725326178197e-16 1.0 -3.68072604158223e-16
outer loop
vertex 143.56150184623 560.344991045864 7.26419183427114
vertex 143.683065620878 560.344991045864 8.37809423193681
vertex 143.925724336585 560.344991045864 7.40798251275614
endloop
endfacet
facet normal -8.88725326178197e-16 1.0 -3.68072604158223e-16
outer loop
vertex 143.925724336585 560.344991045864 7.40798251275614
vertex 143.683065620878 560.344991045864 8.37809423193681
vertex 144.33144508096 560.344991045864 8.45246658655325
endloop
endfacet
facet normal -8.88725326178197e-16 1.0 -3.68072604158223e-16
outer loop
vertex 143.925724336585 560.344991045864 7.40798251275614
vertex 144.33144508096 560.344991045864 8.45246658655325
vertex 144.314752012634 560.344991045864 7.452605925526
endloop
endfacet
facet normal -8.88725326178197e-16 1.0 -3.68072604158223e-16
outer loop
vertex 144.314752012634 560.344991045864 7.452605925526
vertex 144.33144508096 560.344991045864 8.45246658655325
vertex 144.976980528492 560.344991045864 8.35649181191684
endloop
endfacet
facet normal -8.88725326178197e-16 1.0 -3.68072604158223e-16
outer loop
vertex 144.314752012634 560.344991045864 7.452605925526
vertex 144.976980528492 560.344991045864 8.35649181191684
vertex 144.702073281153 560.344991045864 7.39502106074416
endloop
endfacet
facet normal -8.88725326178197e-16 1.0 -3.68072604158223e-16
outer loop
vertex 144.702073281153 560.344991045864 7.39502106074416
vertex 144.976980528492 560.344991045864 8.35649181191684
vertex 145.061292837771 560.344991045864 7.23915223178199
endloop
endfacet
facet normal -8.88725326178197e-16 1.0 -3.68072604158223e-16
outer loop
vertex 145.061292837771 560.344991045864 7.23915223178199
vertex 144.976980528492 560.344991045864 8.35649181191684
vertex 145.575679789522 560.344991045864 8.09671043031324
endloop
endfacet
facet normal -8.88725326178197e-16 1.0 -3.68072604158223e-16
outer loop
vertex 145.061292837771 560.344991045864 7.23915223178199
vertex 145.575679789522 560.344991045864 8.09671043031324
vertex 145.367930463344 560.344991045864 6.99562164174788
endloop
endfacet
facet normal -8.88725326178197e-16 1.0 -3.68072604158223e-16
outer loop
vertex 145.367930463344 560.344991045864 6.99562164174788
vertex 145.575679789522 560.344991045864 8.09671043031324
vertex 145.601089310431 560.344991045864 6.68102549789928
endloop
endfacet
facet normal -8.88725326178197e-16 1.0 -3.68072604158223e-16
outer loop
vertex 145.601089310431 560.344991045864 6.68102549789928
vertex 145.575679789522 560.344991045864 8.09671043031324
vertex 146.08674249881 560.344991045864 7.69082611358972
endloop
endfacet
facet normal -8.88725326178197e-16 1.0 -3.68072604158223e-16
outer loop
vertex 145.601089310431 560.344991045864 6.68102549789928
vertex 146.08674249881 560.344991045864 7.69082611358972
vertex 145.744879988916 560.344991045864 6.3168030075448
endloop
endfacet
facet normal -8.88725326178197e-16 1.0 -3.68072604158223e-16
outer loop
vertex 145.744879988916 560.344991045864 6.3168030075448
vertex 146.08674249881 560.344991045864 7.69082611358972
vertex 145.789503401685 560.344991045864 5.92777533149596
endloop
endfacet
facet normal -8.88725326178197e-16 1.0 -3.68072604158223e-16
outer loop
vertex 142.789921418604 560.344991045864 5.97785453647427
vertex 143.003745030767 560.344991045864 3.808919437657
vertex 142.492682321479 560.344991045864 4.21480375438052
endloop
endfacet
facet normal -8.88725326178197e-16 1.0 -3.68072604158223e-16
outer loop
vertex 143.003745030767 560.344991045864 3.808919437657
vertex 142.789921418604 560.344991045864 5.97785453647427
vertex 142.834544831374 560.344991045864 5.58882686042543
endloop
endfacet
facet normal -8.88725326178197e-16 1.0 -3.68072604158223e-16
outer loop
vertex 143.003745030767 560.344991045864 3.808919437657
vertex 142.834544831374 560.344991045864 5.58882686042543
vertex 142.978335509858 560.344991045864 5.22460437007096
endloop
endfacet
facet normal -8.88725326178197e-16 1.0 -3.68072604158223e-16
outer loop
vertex 143.003745030767 560.344991045864 3.808919437657
vertex 142.978335509858 560.344991045864 5.22460437007096
vertex 143.211494356945 560.344991045864 4.91000822622236
endloop
endfacet
facet normal -8.88725326178197e-16 1.0 -3.68072604158223e-16
outer loop
vertex 143.003745030767 560.344991045864 3.808919437657
vertex 143.211494356945 560.344991045864 4.91000822622236
vertex 143.602444291797 560.344991045864 3.54913805605339
endloop
endfacet
facet normal -8.88725326178197e-16 1.0 -3.68072604158223e-16
outer loop
vertex 143.602444291797 560.344991045864 3.54913805605339
vertex 143.211494356945 560.344991045864 4.91000822622236
vertex 143.518131982518 560.344991045864 4.66647763618824
endloop
endfacet
facet normal -8.88725326178197e-16 1.0 -3.68072604158223e-16
outer loop
vertex 143.602444291797 560.344991045864 3.54913805605339
vertex 143.518131982518 560.344991045864 4.66647763618824
vertex 143.877351539136 560.344991045864 4.51060880722608
endloop
endfacet
facet normal -8.88725326178197e-16 1.0 -3.68072604158223e-16
outer loop
vertex 143.602444291797 560.344991045864 3.54913805605339
vertex 143.877351539136 560.344991045864 4.51060880722608
vertex 144.247979739329 560.344991045864 3.45316328141698
endloop
endfacet
facet normal -8.88725326178197e-16 1.0 -3.68072604158223e-16
outer loop
vertex 144.247979739329 560.344991045864 3.45316328141698
vertex 143.877351539136 560.344991045864 4.51060880722608
vertex 144.264672807655 560.344991045864 4.45302394244424
endloop
endfacet
facet normal -8.88725326178197e-16 1.0 -3.68072604158223e-16
outer loop
vertex 144.247979739329 560.344991045864 3.45316328141698
vertex 144.264672807655 560.344991045864 4.45302394244424
vertex 144.653700483704 560.344991045864 4.4976473552141
endloop
endfacet
facet normal -8.88725326178197e-16 1.0 -3.68072604158223e-16
outer loop
vertex 144.247979739329 560.344991045864 3.45316328141698
vertex 144.653700483704 560.344991045864 4.4976473552141
vertex 144.896359199411 560.344991045864 3.52753563603343
endloop
endfacet
facet normal -8.88725326178197e-16 1.0 -3.68072604158223e-16
outer loop
vertex 144.896359199411 560.344991045864 3.52753563603343
vertex 144.653700483704 560.344991045864 4.4976473552141
vertex 145.017922974059 560.344991045864 4.64143803369909
endloop
endfacet
facet normal -8.88725326178197e-16 1.0 -3.68072604158223e-16
outer loop
vertex 144.896359199411 560.344991045864 3.52753563603343
vertex 145.017922974059 560.344991045864 4.64143803369909
vertex 145.503396683335 560.344991045864 3.76718676684174
endloop
endfacet
facet normal -8.88725326178197e-16 1.0 -3.68072604158223e-16
outer loop
vertex 145.503396683335 560.344991045864 3.76718676684174
vertex 145.017922974059 560.344991045864 4.64143803369909
vertex 145.332519117907 560.344991045864 4.87459688078576
endloop
endfacet
facet normal -8.88725326178197e-16 1.0 -3.68072604158223e-16
outer loop
vertex 145.503396683335 560.344991045864 3.76718676684174
vertex 145.332519117907 560.344991045864 4.87459688078576
vertex 145.576049707941 560.344991045864 5.18123450635839
endloop
endfacet
facet normal -8.88725326178197e-16 1.0 -3.68072604158223e-16
outer loop
vertex 145.503396683335 560.344991045864 3.76718676684174
vertex 145.576049707941 560.344991045864 5.18123450635839
vertex 146.027723589749 560.344991045864 4.15578484531953
endloop
endfacet
facet normal -8.88725326178197e-16 1.0 -3.68072604158223e-16
outer loop
vertex 146.027723589749 560.344991045864 4.15578484531953
vertex 145.576049707941 560.344991045864 5.18123450635839
vertex 145.731918536904 560.344991045864 5.54045406297686
endloop
endfacet
facet normal -8.88725326178197e-16 1.0 -3.68072604158223e-16
outer loop
vertex 146.027723589749 560.344991045864 4.15578484531953
vertex 145.731918536904 560.344991045864 5.54045406297686
vertex 145.789503401685 560.344991045864 5.92777533149596
endloop
endfacet
facet normal -8.88725326178197e-16 1.0 -3.68072604158223e-16
outer loop
vertex 146.027723589749 560.344991045864 4.15578484531953
vertex 145.789503401685 560.344991045864 5.92777533149596
vertex 146.08674249881 560.344991045864 7.69082611358972
endloop
endfacet
facet normal -8.88725326178197e-16 1.0 -3.68072604158223e-16
outer loop
vertex 146.027723589749 560.344991045864 4.15578484531953
vertex 146.08674249881 560.344991045864 7.69082611358972
vertex 146.475340577288 560.344991045864 7.16649920717541
endloop
endfacet
facet normal -8.88725326178197e-16 1.0 -3.68072604158223e-16
outer loop
vertex 146.027723589749 560.344991045864 4.15578484531953
vertex 146.475340577288 560.344991045864 7.16649920717541
vertex 146.433607906473 560.344991045864 4.66684755460728
endloop
endfacet
facet normal -8.88725326178197e-16 1.0 -3.68072604158223e-16
outer loop
vertex 146.433607906473 560.344991045864 4.66684755460728
vertex 146.475340577288 560.344991045864 7.16649920717541
vertex 146.714991708096 560.344991045864 6.55946172325125
endloop
endfacet
facet normal -8.88725326178197e-16 1.0 -3.68072604158223e-16
outer loop
vertex 146.433607906473 560.344991045864 4.66684755460728
vertex 146.714991708096 560.344991045864 6.55946172325125
vertex 146.693389288076 560.344991045864 5.26554681563803
endloop
endfacet
facet normal -8.88725326178197e-16 1.0 -3.68072604158223e-16
outer loop
vertex 146.693389288076 560.344991045864 5.26554681563803
vertex 146.714991708096 560.344991045864 6.55946172325125
vertex 146.789364062713 560.344991045864 5.91108226316986
endloop
endfacet
facet normal 0.242658715706464 -1.41414600537032e-16 -0.970111719180677
outer loop
vertex 143.925724336585 560.344991045864 7.40798251275614
vertex 144.314752012634 555.344991045864 7.452605925526
vertex 143.925724336585 555.344991045864 7.40798251275614
endloop
endfacet
facet normal -0.0166930683261023 -3.82856869892694e-16 -0.999860661027255
outer loop
vertex 144.314752012634 555.344991045864 7.452605925526
vertex 143.925724336585 560.344991045864 7.40798251275614
vertex 144.314752012634 560.344991045864 7.452605925526
endloop
endfacet
facet normal -0.514386951751137 -7.72792390827472e-16 -0.857558198531256
outer loop
vertex 145.061292837771 560.344991045864 7.23915223178199
vertex 145.367930463344 555.344991045864 6.99562164174788
vertex 145.061292837771 555.344991045864 7.23915223178199
endloop
endfacet
facet normal -0.718812035466232 -8.94712181053809e-16 -0.695204471841841
outer loop
vertex 145.367930463344 555.344991045864 6.99562164174788
vertex 145.061292837771 560.344991045864 7.23915223178199
vertex 145.367930463344 560.344991045864 6.99562164174788
endloop
endfacet
facet normal -0.718812035466224 -8.94712181053805e-16 -0.695204471841849
outer loop
vertex 142.492682321479 560.344991045864 4.21480375438052
vertex 143.003745030767 555.344991045864 3.808919437657
vertex 142.492682321479 555.344991045864 4.21480375438052
endloop
endfacet
facet normal -0.514386951751138 -7.72792390827472e-16 -0.857558198531256
outer loop
vertex 143.003745030767 555.344991045864 3.808919437657
vertex 142.492682321479 560.344991045864 4.21480375438052
vertex 143.003745030767 560.344991045864 3.808919437657
endloop
endfacet
facet normal -0.695204471841833 -3.53270803203842e-16 0.71881203546624
outer loop
vertex 145.332519117907 560.344991045864 4.87459688078576
vertex 145.576049707941 555.344991045864 5.1812345063584
vertex 145.576049707941 560.344991045864 5.18123450635839
endloop
endfacet
facet normal -0.857558198531254 -5.72801944830424e-16 0.51438695175114
outer loop
vertex 145.576049707941 555.344991045864 5.1812345063584
vertex 145.332519117907 560.344991045864 4.87459688078576
vertex 145.332519117907 555.344991045864 4.87459688078577
endloop
endfacet
facet normal -0.718812035466224 -8.94712181053805e-16 -0.695204471841849
outer loop
vertex 142.492682321479 560.344991045864 4.21480375438052
vertex 142.104084243001 555.344991045864 4.73913066079483
vertex 142.104084243001 560.344991045864 4.73913066079482
endloop
endfacet
facet normal -0.874251266857355 -9.55658814723117e-16 -0.485473709276115
outer loop
vertex 142.104084243001 555.344991045864 4.73913066079483
vertex 142.492682321479 560.344991045864 4.21480375438052
vertex 142.492682321479 555.344991045864 4.21480375438052
endloop
endfacet
facet normal 0.857558198531258 5.72801944830429e-16 -0.514386951751134
outer loop
vertex 146.433607906473 555.344991045864 4.66684755460728
vertex 146.693389288076 560.344991045864 5.26554681563803
vertex 146.693389288076 555.344991045864 5.26554681563803
endloop
endfacet
facet normal 0.961470751172693 7.53297580516773e-16 -0.274907247338839
outer loop
vertex 146.693389288076 560.344991045864 5.26554681563803
vertex 146.433607906473 555.344991045864 4.66684755460728
vertex 146.433607906473 560.344991045864 4.66684755460728
endloop
endfacet
facet normal 0.48547370927611 1.09664840146537e-16 -0.874251266857358
outer loop
vertex 145.503396683335 560.344991045864 3.76718676684174
vertex 146.027723589749 555.344991045864 4.15578484531953
vertex 145.503396683335 555.344991045864 3.76718676684174
endloop
endfacet
facet normal 0.695204471841837 3.53270803203847e-16 -0.718812035466236
outer loop
vertex 146.027723589749 555.344991045864 4.15578484531953
vertex 145.503396683335 560.344991045864 3.76718676684174
vertex 146.027723589749 560.344991045864 4.15578484531953
endloop
endfacet
facet normal 0.961470751172693 7.53297580516772e-16 -0.27490724733884
outer loop
vertex 142.847506283385 555.344991045864 6.36517580499338
vertex 143.003375112348 560.344991045864 6.72439536161184
vertex 143.003375112348 555.344991045864 6.72439536161184
endloop
endfacet
facet normal 0.857558198531254 5.72801944830424e-16 -0.51438695175114
outer loop
vertex 143.003375112348 560.344991045864 6.72439536161184
vertex 142.847506283385 555.344991045864 6.36517580499338
vertex 142.847506283385 560.344991045864 6.36517580499337
endloop
endfacet
facet normal 0.242658715706465 -1.41414600537031e-16 -0.970111719180677
outer loop
vertex 144.896359199411 560.344991045864 3.52753563603343
vertex 145.503396683335 555.344991045864 3.76718676684174
vertex 144.896359199411 555.344991045864 3.52753563603343
endloop
endfacet
facet normal 0.48547370927611 1.09664840146537e-16 -0.874251266857358
outer loop
vertex 145.503396683335 555.344991045864 3.76718676684174
vertex 144.896359199411 560.344991045864 3.52753563603343
vertex 145.503396683335 560.344991045864 3.76718676684174
endloop
endfacet
facet normal 0.0166930683261023 3.82856869892694e-16 0.999860661027255
outer loop
vertex 144.33144508096 560.344991045864 8.45246658655325
vertex 143.683065620878 555.344991045864 8.37809423193681
vertex 144.33144508096 555.344991045864 8.45246658655325
endloop
endfacet
facet normal -0.242658715706465 1.41414600537031e-16 0.970111719180677
outer loop
vertex 143.683065620878 555.344991045864 8.37809423193681
vertex 144.33144508096 560.344991045864 8.45246658655325
vertex 143.683065620878 560.344991045864 8.37809423193681
endloop
endfacet
facet normal -0.999860661027256 -8.82457230974016e-16 0.0166930683261023
outer loop
vertex 145.789503401685 560.344991045864 5.92777533149596
vertex 145.744879988916 555.344991045864 6.31680300754481
vertex 145.744879988916 560.344991045864 6.3168030075448
endloop
endfacet
facet normal -0.970111719180679 -9.51478879469906e-16 -0.242658715706457
outer loop
vertex 145.744879988916 555.344991045864 6.31680300754481
vertex 145.789503401685 560.344991045864 5.92777533149596
vertex 145.789503401685 555.344991045864 5.92777533149597
endloop
endfacet
facet normal 0.695204471841837 3.53270803203847e-16 -0.718812035466236
outer loop
vertex 146.027723589749 555.344991045864 4.15578484531953
vertex 146.433607906473 560.344991045864 4.66684755460728
vertex 146.433607906473 555.344991045864 4.66684755460728
endloop
endfacet
facet normal 0.857558198531258 5.72801944830429e-16 -0.514386951751134
outer loop
vertex 146.433607906473 560.344991045864 4.66684755460728
vertex 146.027723589749 555.344991045864 4.15578484531953
vertex 146.027723589749 560.344991045864 4.15578484531953
endloop
endfacet
endsolid Armdudroid
