solid Armdudroid
facet normal 0.0354315088578822 0.999372106965195 -9.67044530678223e-18
outer loop
vertex 144.49621078608 523.086207005138 -56.2858633011757
vertex 143.716619284636 523.011559716682 -131.285863301176
vertex 143.716619284636 523.011559716682 -56.2858633011757
endloop
endfacet
facet normal -0.224432324956597 0.974489677479745 -1.64881578649404e-17
outer loop
vertex 143.716619284636 523.011559716682 -131.285863301176
vertex 144.49621078608 523.086207005138 -56.2858633011757
vertex 144.49621078608 523.086207005138 -131.285863301176
endloop
endfacet
facet normal -0.224432324956597 0.974489677479745 -1.64881578649404e-17
outer loop
vertex 143.716619284636 523.011559716682 -56.2858633011757
vertex 142.982911859354 522.737682844926 -131.285863301176
vertex 142.982911859354 522.737682844926 -56.2858633011757
endloop
endfacet
facet normal -0.469001466717271 0.883197386894373 -2.21822297125728e-17
outer loop
vertex 142.982911859354 522.737682844926 -131.285863301176
vertex 143.716619284636 523.011559716682 -56.2858633011757
vertex 143.716619284636 523.011559716682 -131.285863301176
endloop
endfacet
facet normal -0.681608933582693 0.731716653944861 -2.63646192631604e-17
outer loop
vertex 142.345089458758 522.283240646077 -56.2858633011757
vertex 142.982911859354 522.737682844926 -131.285863301176
vertex 142.345089458758 522.283240646077 -131.285863301176
endloop
endfacet
facet normal -0.469001466717271 0.883197386894373 -2.21822297125728e-17
outer loop
vertex 142.982911859354 522.737682844926 -131.285863301176
vertex 142.345089458758 522.283240646077 -56.2858633011757
vertex 142.982911859354 522.737682844926 -56.2858633011757
endloop
endfacet
facet normal -0.84776587803649 0.530370640247949 -2.87503035805573e-17
outer loop
vertex 141.846618625397 521.679202604987 -56.2858633011757
vertex 142.345089458758 522.283240646077 -131.285863301176
vertex 141.846618625397 521.679202604987 -131.285863301176
endloop
endfacet
facet normal -0.681608933582693 0.731716653944861 -2.63646192631604e-17
outer loop
vertex 142.345089458758 522.283240646077 -131.285863301176
vertex 141.846618625397 521.679202604987 -56.2858633011757
vertex 142.345089458758 522.283240646077 -56.2858633011757
endloop
endfacet
facet normal -0.956148978901465 0.292880743897043 -2.91767022210624e-17
outer loop
vertex 141.521469322802 520.966732915934 -56.2858633011757
vertex 141.846618625397 521.679202604987 -131.285863301176
vertex 141.521469322802 520.966732915934 -131.285863301176
endloop
endfacet
facet normal -0.84776587803649 0.530370640247949 -2.87503035805573e-17
outer loop
vertex 141.846618625397 521.679202604987 -131.285863301176
vertex 141.521469322802 520.966732915934 -56.2858633011757
vertex 141.846618625397 521.679202604987 -56.2858633011757
endloop
endfacet
facet normal -0.999372106965196 0.0354315088578671 -2.76147568219821e-17
outer loop
vertex 141.391799938611 520.194385210816 -56.2858633011757
vertex 141.521469322802 520.966732915934 -131.285863301176
vertex 141.391799938611 520.194385210816 -131.285863301176
endloop
endfacet
facet normal -0.956148978901465 0.292880743897043 -2.91767022210624e-17
outer loop
vertex 141.521469322802 520.966732915934 -131.285863301176
vertex 141.391799938611 520.194385210816 -56.2858633011757
vertex 141.521469322802 520.966732915934 -56.2858633011757
endloop
endfacet
facet normal -0.974489677479738 -0.224432324956628 -2.4170911381027e-17
outer loop
vertex 141.466447227067 519.414793709373 -56.2858633011757
vertex 141.391799938611 520.194385210816 -131.285863301176
vertex 141.466447227067 519.414793709373 -131.285863301176
endloop
endfacet
facet normal -0.999372106965196 0.0354315088578671 -2.76147568219821e-17
outer loop
vertex 141.391799938611 520.194385210816 -131.285863301176
vertex 141.466447227067 519.414793709373 -56.2858633011757
vertex 141.391799938611 520.194385210816 -56.2858633011757
endloop
endfacet
facet normal -0.883197386894388 -0.469001466717242 -1.90798582737756e-17
outer loop
vertex 141.740324098823 518.681086284091 -56.2858633011757
vertex 141.466447227067 519.414793709373 -131.285863301176
vertex 141.740324098823 518.681086284091 -131.285863301176
endloop
endfacet
facet normal -0.974489677479738 -0.224432324956628 -2.4170911381027e-17
outer loop
vertex 141.466447227067 519.414793709373 -131.285863301176
vertex 141.740324098823 518.681086284091 -56.2858633011757
vertex 141.466447227067 519.414793709373 -56.2858633011757
endloop
endfacet
facet normal -0.731716653944861 -0.681608933582693 -1.2688544356122e-17
outer loop
vertex 142.194766297672 518.043263883495 -131.285863301176
vertex 141.740324098823 518.681086284091 -56.2858633011757
vertex 141.740324098823 518.681086284091 -131.285863301176
endloop
endfacet
facet normal -0.883197386894388 -0.469001466717242 -1.90798582737756e-17
outer loop
vertex 141.740324098823 518.681086284091 -56.2858633011757
vertex 142.194766297672 518.043263883495 -131.285863301176
vertex 142.194766297672 518.043263883495 -56.2858633011757
endloop
endfacet
facet normal -0.530370640247934 -0.847765878036499 -5.43252710940962e-18
outer loop
vertex 142.798804338762 517.544793050133 -131.285863301176
vertex 142.194766297672 518.043263883495 -56.2858633011757
vertex 142.194766297672 518.043263883495 -131.285863301176
endloop
endfacet
facet normal -0.731716653944861 -0.681608933582693 -1.2688544356122e-17
outer loop
vertex 142.194766297672 518.043263883495 -56.2858633011757
vertex 142.798804338762 517.544793050133 -131.285863301176
vertex 142.798804338762 517.544793050133 -56.2858633011757
endloop
endfacet
facet normal -0.292880743897041 -0.956148978901466 2.19370788213321e-18
outer loop
vertex 143.511274027815 517.219643747538 -131.285863301176
vertex 142.798804338762 517.544793050133 -56.2858633011757
vertex 142.798804338762 517.544793050133 -131.285863301176
endloop
endfacet
facet normal -0.530370640247934 -0.847765878036499 -5.43252710940962e-18
outer loop
vertex 142.798804338762 517.544793050133 -56.2858633011757
vertex 143.511274027815 517.219643747538 -131.285863301176
vertex 143.511274027815 517.219643747538 -56.2858633011757
endloop
endfacet
facet normal -0.0354315088578822 -0.999372106965195 9.67044530678223e-18
outer loop
vertex 144.283621732933 517.089974363347 -131.285863301176
vertex 143.511274027815 517.219643747538 -56.2858633011757
vertex 143.511274027815 517.219643747538 -131.285863301176
endloop
endfacet
facet normal -0.292880743897041 -0.956148978901466 2.19370788213321e-18
outer loop
vertex 143.511274027815 517.219643747538 -56.2858633011757
vertex 144.283621732933 517.089974363347 -131.285863301176
vertex 144.283621732933 517.089974363347 -56.2858633011757
endloop
endfacet
facet normal 0.224432324956597 -0.974489677479745 1.64881578649404e-17
outer loop
vertex 145.063213234376 517.164621651804 -131.285863301176
vertex 144.283621732933 517.089974363347 -56.2858633011757
vertex 144.283621732933 517.089974363347 -131.285863301176
endloop
endfacet
facet normal -0.0354315088578822 -0.999372106965195 9.67044530678223e-18
outer loop
vertex 144.283621732933 517.089974363347 -56.2858633011757
vertex 145.063213234376 517.164621651804 -131.285863301176
vertex 145.063213234376 517.164621651804 -56.2858633011757
endloop
endfacet
facet normal 0.46900146671726 -0.883197386894379 2.21822297125726e-17
outer loop
vertex 145.796920659658 517.43849852356 -131.285863301176
vertex 145.063213234376 517.164621651804 -56.2858633011757
vertex 145.063213234376 517.164621651804 -131.285863301176
endloop
endfacet
facet normal 0.224432324956597 -0.974489677479745 1.64881578649404e-17
outer loop
vertex 145.063213234376 517.164621651804 -56.2858633011757
vertex 145.796920659658 517.43849852356 -131.285863301176
vertex 145.796920659658 517.43849852356 -56.2858633011757
endloop
endfacet
facet normal 0.681608933582704 -0.731716653944851 2.63646192631606e-17
outer loop
vertex 146.434743060254 517.892940722408 -56.2858633011757
vertex 145.796920659658 517.43849852356 -131.285863301176
vertex 146.434743060254 517.892940722408 -131.285863301176
endloop
endfacet
facet normal 0.46900146671726 -0.883197386894379 2.21822297125726e-17
outer loop
vertex 145.796920659658 517.43849852356 -131.285863301176
vertex 146.434743060254 517.892940722408 -56.2858633011757
vertex 145.796920659658 517.43849852356 -56.2858633011757
endloop
endfacet
facet normal 0.847765878036497 -0.530370640247938 2.87503035805574e-17
outer loop
vertex 146.933213893616 518.496978763499 -56.2858633011757
vertex 146.434743060254 517.892940722408 -131.285863301176
vertex 146.933213893616 518.496978763499 -131.285863301176
endloop
endfacet
facet normal 0.681608933582704 -0.731716653944851 2.63646192631606e-17
outer loop
vertex 146.434743060254 517.892940722408 -131.285863301176
vertex 146.933213893616 518.496978763499 -56.2858633011757
vertex 146.434743060254 517.892940722408 -56.2858633011757
endloop
endfacet
facet normal 0.956148978901465 -0.292880743897044 2.91767022210624e-17
outer loop
vertex 147.258363196211 519.209448452552 -56.2858633011757
vertex 146.933213893616 518.496978763499 -131.285863301176
vertex 147.258363196211 519.209448452552 -131.285863301176
endloop
endfacet
facet normal 0.847765878036497 -0.530370640247938 2.87503035805574e-17
outer loop
vertex 146.933213893616 518.496978763499 -131.285863301176
vertex 147.258363196211 519.209448452552 -56.2858633011757
vertex 146.933213893616 518.496978763499 -56.2858633011757
endloop
endfacet
facet normal 0.999372106965196 -0.0354315088578723 2.76147568219822e-17
outer loop
vertex 147.388032580402 519.981796157669 -56.2858633011757
vertex 147.258363196211 519.209448452552 -131.285863301176
vertex 147.388032580402 519.981796157669 -131.285863301176
endloop
endfacet
facet normal 0.956148978901465 -0.292880743897044 2.91767022210624e-17
outer loop
vertex 147.258363196211 519.209448452552 -131.285863301176
vertex 147.388032580402 519.981796157669 -56.2858633011757
vertex 147.258363196211 519.209448452552 -56.2858633011757
endloop
endfacet
facet normal 0.97448967747974 0.224432324956618 2.41709113810272e-17
outer loop
vertex 147.313385291945 520.761387659113 -56.2858633011757
vertex 147.388032580402 519.981796157669 -131.285863301176
vertex 147.313385291945 520.761387659113 -131.285863301176
endloop
endfacet
facet normal 0.999372106965196 -0.0354315088578723 2.76147568219822e-17
outer loop
vertex 147.388032580402 519.981796157669 -131.285863301176
vertex 147.313385291945 520.761387659113 -56.2858633011757
vertex 147.388032580402 519.981796157669 -56.2858633011757
endloop
endfacet
facet normal 0.883197386894384 0.469001466717251 1.90798582737753e-17
outer loop
vertex 147.039508420189 521.495095084395 -56.2858633011757
vertex 147.313385291945 520.761387659113 -131.285863301176
vertex 147.039508420189 521.495095084395 -131.285863301176
endloop
endfacet
facet normal 0.97448967747974 0.224432324956618 2.41709113810272e-17
outer loop
vertex 147.313385291945 520.761387659113 -131.285863301176
vertex 147.039508420189 521.495095084395 -56.2858633011757
vertex 147.313385291945 520.761387659113 -56.2858633011757
endloop
endfacet
facet normal 2.7254779239969e-17 -1.0642805802477e-17 -1.0
outer loop
vertex 145.98102818025 522.631388318352 -131.285863301176
vertex 144.49621078608 523.086207005138 -131.285863301176
vertex 145.268558491197 522.956537620947 -131.285863301176
endloop
endfacet
facet normal 2.7254779239969e-17 -1.0642805802477e-17 -1.0
outer loop
vertex 144.49621078608 523.086207005138 -131.285863301176
vertex 145.98102818025 522.631388318352 -131.285863301176
vertex 146.585066221341 522.132917484991 -131.285863301176
endloop
endfacet
facet normal 2.7254779239969e-17 -1.0642805802477e-17 -1.0
outer loop
vertex 144.49621078608 523.086207005138 -131.285863301176
vertex 146.585066221341 522.132917484991 -131.285863301176
vertex 143.716619284636 523.011559716682 -131.285863301176
endloop
endfacet
facet normal 2.7254779239969e-17 -1.0642805802477e-17 -1.0
outer loop
vertex 143.716619284636 523.011559716682 -131.285863301176
vertex 146.585066221341 522.132917484991 -131.285863301176
vertex 147.039508420189 521.495095084395 -131.285863301176
endloop
endfacet
facet normal 2.7254779239969e-17 -1.0642805802477e-17 -1.0
outer loop
vertex 143.716619284636 523.011559716682 -131.285863301176
vertex 147.039508420189 521.495095084395 -131.285863301176
vertex 142.982911859354 522.737682844926 -131.285863301176
endloop
endfacet
facet normal 2.7254779239969e-17 -1.0642805802477e-17 -1.0
outer loop
vertex 142.982911859354 522.737682844926 -131.285863301176
vertex 147.039508420189 521.495095084395 -131.285863301176
vertex 147.313385291945 520.761387659113 -131.285863301176
endloop
endfacet
facet normal 2.7254779239969e-17 -1.0642805802477e-17 -1.0
outer loop
vertex 142.982911859354 522.737682844926 -131.285863301176
vertex 147.313385291945 520.761387659113 -131.285863301176
vertex 142.345089458758 522.283240646077 -131.285863301176
endloop
endfacet
facet normal 2.7254779239969e-17 -1.0642805802477e-17 -1.0
outer loop
vertex 142.345089458758 522.283240646077 -131.285863301176
vertex 147.313385291945 520.761387659113 -131.285863301176
vertex 147.388032580402 519.981796157669 -131.285863301176
endloop
endfacet
facet normal 2.7254779239969e-17 -1.0642805802477e-17 -1.0
outer loop
vertex 142.345089458758 522.283240646077 -131.285863301176
vertex 147.388032580402 519.981796157669 -131.285863301176
vertex 141.846618625397 521.679202604987 -131.285863301176
endloop
endfacet
facet normal 2.7254779239969e-17 -1.0642805802477e-17 -1.0
outer loop
vertex 141.846618625397 521.679202604987 -131.285863301176
vertex 147.388032580402 519.981796157669 -131.285863301176
vertex 147.258363196211 519.209448452552 -131.285863301176
endloop
endfacet
facet normal 2.7254779239969e-17 -1.0642805802477e-17 -1.0
outer loop
vertex 141.846618625397 521.679202604987 -131.285863301176
vertex 147.258363196211 519.209448452552 -131.285863301176
vertex 141.521469322802 520.966732915934 -131.285863301176
endloop
endfacet
facet normal 2.7254779239969e-17 -1.0642805802477e-17 -1.0
outer loop
vertex 141.521469322802 520.966732915934 -131.285863301176
vertex 147.258363196211 519.209448452552 -131.285863301176
vertex 146.933213893616 518.496978763499 -131.285863301176
endloop
endfacet
facet normal 2.7254779239969e-17 -1.0642805802477e-17 -1.0
outer loop
vertex 141.521469322802 520.966732915934 -131.285863301176
vertex 146.933213893616 518.496978763499 -131.285863301176
vertex 141.391799938611 520.194385210816 -131.285863301176
endloop
endfacet
facet normal 2.7254779239969e-17 -1.0642805802477e-17 -1.0
outer loop
vertex 141.391799938611 520.194385210816 -131.285863301176
vertex 146.933213893616 518.496978763499 -131.285863301176
vertex 146.434743060254 517.892940722408 -131.285863301176
endloop
endfacet
facet normal 2.7254779239969e-17 -1.0642805802477e-17 -1.0
outer loop
vertex 141.391799938611 520.194385210816 -131.285863301176
vertex 146.434743060254 517.892940722408 -131.285863301176
vertex 141.466447227067 519.414793709373 -131.285863301176
endloop
endfacet
facet normal 2.7254779239969e-17 -1.0642805802477e-17 -1.0
outer loop
vertex 141.466447227067 519.414793709373 -131.285863301176
vertex 146.434743060254 517.892940722408 -131.285863301176
vertex 145.796920659658 517.43849852356 -131.285863301176
endloop
endfacet
facet normal 2.7254779239969e-17 -1.0642805802477e-17 -1.0
outer loop
vertex 141.466447227067 519.414793709373 -131.285863301176
vertex 145.796920659658 517.43849852356 -131.285863301176
vertex 141.740324098823 518.681086284091 -131.285863301176
endloop
endfacet
facet normal 2.7254779239969e-17 -1.0642805802477e-17 -1.0
outer loop
vertex 141.740324098823 518.681086284091 -131.285863301176
vertex 145.796920659658 517.43849852356 -131.285863301176
vertex 145.063213234376 517.164621651804 -131.285863301176
endloop
endfacet
facet normal 2.7254779239969e-17 -1.0642805802477e-17 -1.0
outer loop
vertex 141.740324098823 518.681086284091 -131.285863301176
vertex 145.063213234376 517.164621651804 -131.285863301176
vertex 142.194766297672 518.043263883495 -131.285863301176
endloop
endfacet
facet normal 2.7254779239969e-17 -1.0642805802477e-17 -1.0
outer loop
vertex 142.194766297672 518.043263883495 -131.285863301176
vertex 145.063213234376 517.164621651804 -131.285863301176
vertex 144.283621732933 517.089974363347 -131.285863301176
endloop
endfacet
facet normal 2.7254779239969e-17 -1.0642805802477e-17 -1.0
outer loop
vertex 142.194766297672 518.043263883495 -131.285863301176
vertex 144.283621732933 517.089974363347 -131.285863301176
vertex 142.798804338762 517.544793050133 -131.285863301176
endloop
endfacet
facet normal 2.7254779239969e-17 -1.0642805802477e-17 -1.0
outer loop
vertex 142.798804338762 517.544793050133 -131.285863301176
vertex 144.283621732933 517.089974363347 -131.285863301176
vertex 143.511274027815 517.219643747538 -131.285863301176
endloop
endfacet
facet normal 0.883197386894384 0.469001466717251 1.90798582737753e-17
outer loop
vertex 147.039508420189 521.495095084395 -56.2858633011757
vertex 146.585066221341 522.132917484991 -131.285863301176
vertex 146.585066221341 522.132917484991 -56.2858633011757
endloop
endfacet
facet normal 0.731716653944861 0.681608933582693 1.2688544356122e-17
outer loop
vertex 146.585066221341 522.132917484991 -131.285863301176
vertex 147.039508420189 521.495095084395 -56.2858633011757
vertex 147.039508420189 521.495095084395 -131.285863301176
endloop
endfacet
facet normal 0.731716653944861 0.681608933582693 1.2688544356122e-17
outer loop
vertex 146.585066221341 522.132917484991 -56.2858633011757
vertex 145.98102818025 522.631388318352 -131.285863301176
vertex 145.98102818025 522.631388318352 -56.2858633011757
endloop
endfacet
facet normal 0.530370640247934 0.847765878036499 5.43252710940962e-18
outer loop
vertex 145.98102818025 522.631388318352 -131.285863301176
vertex 146.585066221341 522.132917484991 -56.2858633011757
vertex 146.585066221341 522.132917484991 -131.285863301176
endloop
endfacet
facet normal 0.530370640247934 0.847765878036499 5.43252710940962e-18
outer loop
vertex 145.98102818025 522.631388318352 -56.2858633011757
vertex 145.268558491197 522.956537620947 -131.285863301176
vertex 145.268558491197 522.956537620947 -56.2858633011757
endloop
endfacet
facet normal 0.292880743897041 0.956148978901466 -2.19370788213321e-18
outer loop
vertex 145.268558491197 522.956537620947 -131.285863301176
vertex 145.98102818025 522.631388318352 -56.2858633011757
vertex 145.98102818025 522.631388318352 -131.285863301176
endloop
endfacet
facet normal 0.292880743897041 0.956148978901466 -2.19370788213321e-18
outer loop
vertex 145.268558491197 522.956537620947 -56.2858633011757
vertex 144.49621078608 523.086207005138 -131.285863301176
vertex 144.49621078608 523.086207005138 -56.2858633011757
endloop
endfacet
facet normal 0.0354315088578822 0.999372106965195 -9.67044530678223e-18
outer loop
vertex 144.49621078608 523.086207005138 -131.285863301176
vertex 145.268558491197 522.956537620947 -56.2858633011757
vertex 145.268558491197 522.956537620947 -131.285863301176
endloop
endfacet
facet normal -2.7254779239969e-17 1.0642805802477e-17 1.0
outer loop
vertex 144.49621078608 523.086207005138 -56.2858633011757
vertex 145.98102818025 522.631388318352 -56.2858633011757
vertex 145.268558491197 522.956537620947 -56.2858633011757
endloop
endfacet
facet normal -2.7254779239969e-17 1.0642805802477e-17 1.0
outer loop
vertex 145.98102818025 522.631388318352 -56.2858633011757
vertex 144.49621078608 523.086207005138 -56.2858633011757
vertex 146.585066221341 522.132917484991 -56.2858633011757
endloop
endfacet
facet normal -2.7254779239969e-17 1.0642805802477e-17 1.0
outer loop
vertex 146.585066221341 522.132917484991 -56.2858633011757
vertex 144.49621078608 523.086207005138 -56.2858633011757
vertex 143.716619284636 523.011559716682 -56.2858633011757
endloop
endfacet
facet normal -2.7254779239969e-17 1.0642805802477e-17 1.0
outer loop
vertex 146.585066221341 522.132917484991 -56.2858633011757
vertex 143.716619284636 523.011559716682 -56.2858633011757
vertex 147.039508420189 521.495095084395 -56.2858633011757
endloop
endfacet
facet normal -2.7254779239969e-17 1.0642805802477e-17 1.0
outer loop
vertex 147.039508420189 521.495095084395 -56.2858633011757
vertex 143.716619284636 523.011559716682 -56.2858633011757
vertex 142.982911859354 522.737682844926 -56.2858633011757
endloop
endfacet
facet normal -2.7254779239969e-17 1.0642805802477e-17 1.0
outer loop
vertex 147.039508420189 521.495095084395 -56.2858633011757
vertex 142.982911859354 522.737682844926 -56.2858633011757
vertex 147.313385291945 520.761387659113 -56.2858633011757
endloop
endfacet
facet normal -2.7254779239969e-17 1.0642805802477e-17 1.0
outer loop
vertex 147.313385291945 520.761387659113 -56.2858633011757
vertex 142.982911859354 522.737682844926 -56.2858633011757
vertex 142.345089458758 522.283240646077 -56.2858633011757
endloop
endfacet
facet normal -2.7254779239969e-17 1.0642805802477e-17 1.0
outer loop
vertex 147.313385291945 520.761387659113 -56.2858633011757
vertex 142.345089458758 522.283240646077 -56.2858633011757
vertex 147.388032580402 519.981796157669 -56.2858633011757
endloop
endfacet
facet normal -2.7254779239969e-17 1.0642805802477e-17 1.0
outer loop
vertex 147.388032580402 519.981796157669 -56.2858633011757
vertex 142.345089458758 522.283240646077 -56.2858633011757
vertex 141.846618625397 521.679202604987 -56.2858633011757
endloop
endfacet
facet normal -2.7254779239969e-17 1.0642805802477e-17 1.0
outer loop
vertex 147.388032580402 519.981796157669 -56.2858633011757
vertex 141.846618625397 521.679202604987 -56.2858633011757
vertex 147.258363196211 519.209448452552 -56.2858633011757
endloop
endfacet
facet normal -2.7254779239969e-17 1.0642805802477e-17 1.0
outer loop
vertex 147.258363196211 519.209448452552 -56.2858633011757
vertex 141.846618625397 521.679202604987 -56.2858633011757
vertex 141.521469322802 520.966732915934 -56.2858633011757
endloop
endfacet
facet normal -2.7254779239969e-17 1.0642805802477e-17 1.0
outer loop
vertex 147.258363196211 519.209448452552 -56.2858633011757
vertex 141.521469322802 520.966732915934 -56.2858633011757
vertex 146.933213893616 518.496978763499 -56.2858633011757
endloop
endfacet
facet normal -2.7254779239969e-17 1.0642805802477e-17 1.0
outer loop
vertex 146.933213893616 518.496978763499 -56.2858633011757
vertex 141.521469322802 520.966732915934 -56.2858633011757
vertex 141.391799938611 520.194385210816 -56.2858633011757
endloop
endfacet
facet normal -2.7254779239969e-17 1.0642805802477e-17 1.0
outer loop
vertex 146.933213893616 518.496978763499 -56.2858633011757
vertex 141.391799938611 520.194385210816 -56.2858633011757
vertex 146.434743060254 517.892940722408 -56.2858633011757
endloop
endfacet
facet normal -2.7254779239969e-17 1.0642805802477e-17 1.0
outer loop
vertex 146.434743060254 517.892940722408 -56.2858633011757
vertex 141.391799938611 520.194385210816 -56.2858633011757
vertex 141.466447227067 519.414793709373 -56.2858633011757
endloop
endfacet
facet normal -2.7254779239969e-17 1.0642805802477e-17 1.0
outer loop
vertex 146.434743060254 517.892940722408 -56.2858633011757
vertex 141.466447227067 519.414793709373 -56.2858633011757
vertex 145.796920659658 517.43849852356 -56.2858633011757
endloop
endfacet
facet normal -2.7254779239969e-17 1.0642805802477e-17 1.0
outer loop
vertex 145.796920659658 517.43849852356 -56.2858633011757
vertex 141.466447227067 519.414793709373 -56.2858633011757
vertex 141.740324098823 518.681086284091 -56.2858633011757
endloop
endfacet
facet normal -2.7254779239969e-17 1.0642805802477e-17 1.0
outer loop
vertex 145.796920659658 517.43849852356 -56.2858633011757
vertex 141.740324098823 518.681086284091 -56.2858633011757
vertex 145.063213234376 517.164621651804 -56.2858633011757
endloop
endfacet
facet normal -2.7254779239969e-17 1.0642805802477e-17 1.0
outer loop
vertex 145.063213234376 517.164621651804 -56.2858633011757
vertex 141.740324098823 518.681086284091 -56.2858633011757
vertex 142.194766297672 518.043263883495 -56.2858633011757
endloop
endfacet
facet normal -2.7254779239969e-17 1.0642805802477e-17 1.0
outer loop
vertex 145.063213234376 517.164621651804 -56.2858633011757
vertex 142.194766297672 518.043263883495 -56.2858633011757
vertex 144.283621732933 517.089974363347 -56.2858633011757
endloop
endfacet
facet normal -2.7254779239969e-17 1.0642805802477e-17 1.0
outer loop
vertex 144.283621732933 517.089974363347 -56.2858633011757
vertex 142.194766297672 518.043263883495 -56.2858633011757
vertex 142.798804338762 517.544793050133 -56.2858633011757
endloop
endfacet
facet normal -2.7254779239969e-17 1.0642805802477e-17 1.0
outer loop
vertex 144.283621732933 517.089974363347 -56.2858633011757
vertex 142.798804338762 517.544793050133 -56.2858633011757
vertex 143.511274027815 517.219643747538 -56.2858633011757
endloop
endfacet
endsolid Armdudroid
