solid big II
facet normal 0.0 0.0 -1.0
outer loop
vertex 315.951715805968 68.1505352293754 -1.40998324127395e-015
vertex 314.489664572367 62.3362169008381 -1.40998324127395e-015
vertex 313.918232795606 68.1505352293754 -1.40998324127395e-015
endloop
endfacet
facet normal 0.0 0.0 -1.0
outer loop
vertex 314.489664572367 62.3362169008381 -1.40998324127395e-015
vertex 315.951715805968 68.1505352293754 -1.40998324127395e-015
vertex 314.489664572367 60.3458064651631 -1.40998324127395e-015
endloop
endfacet
facet normal 0.0 0.0 -1.0
outer loop
vertex 314.489664572367 60.3458064651631 -1.40998324127395e-015
vertex 315.951715805968 54.5314881366258 -1.40998324127395e-015
vertex 313.918232795606 54.5314881366258 -1.40998324127395e-015
endloop
endfacet
facet normal 0.0 0.0 -1.0
outer loop
vertex 315.951715805968 54.5314881366258 -1.40998324127395e-015
vertex 314.489664572367 60.3458064651631 -1.40998324127395e-015
vertex 315.951715805968 68.1505352293754 -1.40998324127395e-015
endloop
endfacet
facet normal 0.0 0.0 -1.0
outer loop
vertex 315.951715805968 54.5314881366258 -1.40998324127395e-015
vertex 315.951715805968 68.1505352293754 -1.40998324127395e-015
vertex 316.451715805968 67.6505352293754 -1.40998324127395e-015
endloop
endfacet
facet normal 0.0 0.0 -1.0
outer loop
vertex 315.951715805968 54.5314881366258 -1.40998324127395e-015
vertex 316.451715805968 67.6505352293754 -1.40998324127395e-015
vertex 316.451715805968 55.0314881366258 -1.40998324127395e-015
endloop
endfacet
facet normal 0.0 0.0 -1.0
outer loop
vertex 308.951715805968 68.1505352293755 -1.40998324127395e-015
vertex 308.451715805968 55.0314881366258 -1.40998324127395e-015
vertex 308.451715805968 67.6505352293754 -1.40998324127395e-015
endloop
endfacet
facet normal 0.0 0.0 -1.0
outer loop
vertex 308.451715805968 55.0314881366258 -1.40998324127395e-015
vertex 308.951715805968 68.1505352293755 -1.40998324127395e-015
vertex 308.951715805968 54.5314881366258 -1.40998324127395e-015
endloop
endfacet
facet normal 0.0 0.0 -1.0
outer loop
vertex 308.951715805968 54.5314881366258 -1.40998324127395e-015
vertex 308.951715805968 68.1505352293755 -1.40998324127395e-015
vertex 310.466062331525 68.1505352293754 -1.40998324127395e-015
endloop
endfacet
facet normal 0.0 0.0 -1.0
outer loop
vertex 308.951715805968 54.5314881366258 -1.40998324127395e-015
vertex 310.466062331525 68.1505352293754 -1.40998324127395e-015
vertex 310.466062331525 54.5314881366258 -1.40998324127395e-015
endloop
endfacet
facet normal 0.0 0.0 -1.0
outer loop
vertex 310.466062331525 54.5314881366258 -1.40998324127395e-015
vertex 310.466062331525 68.1505352293754 -1.40998324127395e-015
vertex 310.989664572367 62.3362169008381 -1.40998324127395e-015
endloop
endfacet
facet normal 0.0 0.0 -1.0
outer loop
vertex 310.466062331525 54.5314881366258 -1.40998324127395e-015
vertex 310.989664572367 62.3362169008381 -1.40998324127395e-015
vertex 310.989664572367 60.3458064651631 -1.40998324127395e-015
endloop
endfacet
facet normal 0.0 0.0 -1.0
outer loop
vertex 310.989664572367 60.3458064651631 -1.40998324127395e-015
vertex 310.989664572367 62.3362169008381 -1.40998324127395e-015
vertex 314.489664572367 62.3362169008381 -1.40998324127395e-015
endloop
endfacet
facet normal 0.0 0.0 -1.0
outer loop
vertex 310.989664572367 60.3458064651631 -1.40998324127395e-015
vertex 314.489664572367 62.3362169008381 -1.40998324127395e-015
vertex 314.489664572367 60.3458064651631 -1.40998324127395e-015
endloop
endfacet
facet normal 0.0 -1.0 0.0
outer loop
vertex 315.951715805968 54.5314881366258 10.0
vertex 313.918232795606 54.5314881366258 -1.40998324127395e-015
vertex 315.951715805968 54.5314881366258 -1.40998324127395e-015
endloop
endfacet
facet normal 0.0 -1.0 0.0
outer loop
vertex 313.918232795606 54.5314881366258 -1.40998324127395e-015
vertex 315.951715805968 54.5314881366258 10.0
vertex 313.918232795606 54.5314881366258 10.0
endloop
endfacet
facet normal -0.995205217837465 0.0978088666179278 0.0
outer loop
vertex 314.489664572367 60.3458064651631 10.0
vertex 313.918232795606 54.5314881366258 -1.40998324127395e-015
vertex 313.918232795606 54.5314881366258 10.0
endloop
endfacet
facet normal -0.995205217837465 0.0978088666179278 0.0
outer loop
vertex 313.918232795606 54.5314881366258 -1.40998324127395e-015
vertex 314.489664572367 60.3458064651631 10.0
vertex 314.489664572367 60.3458064651631 -1.40998324127395e-015
endloop
endfacet
facet normal -0.0 -0.0 1.0
outer loop
vertex 315.951715805968 54.5314881366258 10.0
vertex 314.489664572367 60.3458064651631 10.0
vertex 313.918232795606 54.5314881366258 10.0
endloop
endfacet
facet normal -0.0 -0.0 1.0
outer loop
vertex 314.489664572367 60.3458064651631 10.0
vertex 315.951715805968 54.5314881366258 10.0
vertex 314.489664572367 62.3362169008381 10.0
endloop
endfacet
facet normal -0.0 -0.0 1.0
outer loop
vertex 314.489664572367 62.3362169008381 10.0
vertex 315.951715805968 68.1505352293754 10.0
vertex 313.918232795606 68.1505352293754 10.0
endloop
endfacet
facet normal -0.0 -0.0 1.0
outer loop
vertex 315.951715805968 68.1505352293754 10.0
vertex 314.489664572367 62.3362169008381 10.0
vertex 315.951715805968 54.5314881366258 10.0
endloop
endfacet
facet normal -0.0 -0.0 1.0
outer loop
vertex 315.951715805968 68.1505352293754 10.0
vertex 315.951715805968 54.5314881366258 10.0
vertex 316.451715805968 55.0314881366258 10.0
endloop
endfacet
facet normal -0.0 -0.0 1.0
outer loop
vertex 315.951715805968 68.1505352293754 10.0
vertex 316.451715805968 55.0314881366258 10.0
vertex 316.451715805968 67.6505352293754 10.0
endloop
endfacet
facet normal -0.0 -0.0 1.0
outer loop
vertex 308.951715805968 54.5314881366258 10.0
vertex 308.451715805968 67.6505352293754 10.0
vertex 308.451715805968 55.0314881366258 10.0
endloop
endfacet
facet normal -0.0 -0.0 1.0
outer loop
vertex 308.451715805968 67.6505352293754 10.0
vertex 308.951715805968 54.5314881366258 10.0
vertex 308.951715805968 68.1505352293755 10.0
endloop
endfacet
facet normal -0.0 -0.0 1.0
outer loop
vertex 308.951715805968 68.1505352293755 10.0
vertex 308.951715805968 54.5314881366258 10.0
vertex 310.466062331525 54.5314881366258 10.0
endloop
endfacet
facet normal -0.0 -0.0 1.0
outer loop
vertex 308.951715805968 68.1505352293755 10.0
vertex 310.466062331525 54.5314881366258 10.0
vertex 310.466062331525 68.1505352293754 10.0
endloop
endfacet
facet normal -0.0 -0.0 1.0
outer loop
vertex 310.466062331525 68.1505352293754 10.0
vertex 310.466062331525 54.5314881366258 10.0
vertex 310.989664572367 60.3458064651631 10.0
endloop
endfacet
facet normal -0.0 -0.0 1.0
outer loop
vertex 310.466062331525 68.1505352293754 10.0
vertex 310.989664572367 60.3458064651631 10.0
vertex 310.989664572367 62.3362169008381 10.0
endloop
endfacet
facet normal -0.0 -0.0 1.0
outer loop
vertex 310.989664572367 62.3362169008381 10.0
vertex 310.989664572367 60.3458064651631 10.0
vertex 314.489664572367 60.3458064651631 10.0
endloop
endfacet
facet normal -0.0 -0.0 1.0
outer loop
vertex 310.989664572367 62.3362169008381 10.0
vertex 314.489664572367 60.3458064651631 10.0
vertex 314.489664572367 62.3362169008381 10.0
endloop
endfacet
facet normal 0.707106781186547 0.707106781186547 -0.0
outer loop
vertex 315.951715805968 68.1505352293754 -1.40998324127395e-015
vertex 316.451715805968 67.6505352293754 10.0
vertex 316.451715805968 67.6505352293754 -1.40998324127395e-015
endloop
endfacet
facet normal 0.707106781186547 0.707106781186547 -0.0
outer loop
vertex 316.451715805968 67.6505352293754 10.0
vertex 315.951715805968 68.1505352293754 -1.40998324127395e-015
vertex 315.951715805968 68.1505352293754 10.0
endloop
endfacet
facet normal -0.707106781186579 0.707106781186516 0.0
outer loop
vertex 308.951715805968 68.1505352293755 10.0
vertex 308.451715805968 67.6505352293754 -1.40998324127395e-015
vertex 308.451715805968 67.6505352293754 10.0
endloop
endfacet
facet normal -0.707106781186579 0.707106781186516 0.0
outer loop
vertex 308.451715805968 67.6505352293754 -1.40998324127395e-015
vertex 308.951715805968 68.1505352293755 10.0
vertex 308.951715805968 68.1505352293755 -1.40998324127395e-015
endloop
endfacet
facet normal 0.707106781186579 -0.707106781186516 -0.0
outer loop
vertex 316.451715805968 55.0314881366258 -1.40998324127395e-015
vertex 315.951715805968 54.5314881366258 10.0
vertex 315.951715805968 54.5314881366258 -1.40998324127395e-015
endloop
endfacet
facet normal 0.707106781186579 -0.707106781186516 -0.0
outer loop
vertex 315.951715805968 54.5314881366258 10.0
vertex 316.451715805968 55.0314881366258 -1.40998324127395e-015
vertex 316.451715805968 55.0314881366258 10.0
endloop
endfacet
facet normal -0.707106781186547 -0.707106781186548 0.0
outer loop
vertex 308.951715805968 54.5314881366258 10.0
vertex 308.451715805968 55.0314881366258 -1.40998324127395e-015
vertex 308.951715805968 54.5314881366258 -1.40998324127395e-015
endloop
endfacet
facet normal -0.707106781186547 -0.707106781186548 0.0
outer loop
vertex 308.451715805968 55.0314881366258 -1.40998324127395e-015
vertex 308.951715805968 54.5314881366258 10.0
vertex 308.451715805968 55.0314881366258 10.0
endloop
endfacet
facet normal -0.0 1.0 -0.0
outer loop
vertex 310.989664572367 62.3362169008381 10.0
vertex 314.489664572367 62.3362169008381 -1.40998324127395e-015
vertex 310.989664572367 62.3362169008381 -1.40998324127395e-015
endloop
endfacet
facet normal -0.0 1.0 -0.0
outer loop
vertex 314.489664572367 62.3362169008381 -1.40998324127395e-015
vertex 310.989664572367 62.3362169008381 10.0
vertex 314.489664572367 62.3362169008381 10.0
endloop
endfacet
facet normal -0.995205217837465 -0.0978088666179293 0.0
outer loop
vertex 313.918232795606 68.1505352293754 10.0
vertex 314.489664572367 62.3362169008381 -1.40998324127395e-015
vertex 314.489664572367 62.3362169008381 10.0
endloop
endfacet
facet normal -0.995205217837465 -0.0978088666179293 0.0
outer loop
vertex 314.489664572367 62.3362169008381 -1.40998324127395e-015
vertex 313.918232795606 68.1505352293754 10.0
vertex 313.918232795606 68.1505352293754 -1.40998324127395e-015
endloop
endfacet
facet normal -0.0 1.0 -0.0
outer loop
vertex 313.918232795606 68.1505352293754 10.0
vertex 315.951715805968 68.1505352293754 -1.40998324127395e-015
vertex 313.918232795606 68.1505352293754 -1.40998324127395e-015
endloop
endfacet
facet normal -0.0 1.0 -0.0
outer loop
vertex 315.951715805968 68.1505352293754 -1.40998324127395e-015
vertex 313.918232795606 68.1505352293754 10.0
vertex 315.951715805968 68.1505352293754 10.0
endloop
endfacet
facet normal 1.0 -0.0 -0.0
outer loop
vertex 316.451715805968 67.6505352293754 -1.40998324127395e-015
vertex 316.451715805968 55.0314881366258 10.0
vertex 316.451715805968 55.0314881366258 -1.40998324127395e-015
endloop
endfacet
facet normal 1.0 -0.0 -0.0
outer loop
vertex 316.451715805968 55.0314881366258 10.0
vertex 316.451715805968 67.6505352293754 -1.40998324127395e-015
vertex 316.451715805968 67.6505352293754 10.0
endloop
endfacet
facet normal 0.0 -1.0 0.0
outer loop
vertex 314.489664572367 60.3458064651631 10.0
vertex 310.989664572367 60.3458064651631 -1.40998324127395e-015
vertex 314.489664572367 60.3458064651631 -1.40998324127395e-015
endloop
endfacet
facet normal 0.0 -1.0 0.0
outer loop
vertex 310.989664572367 60.3458064651631 -1.40998324127395e-015
vertex 314.489664572367 60.3458064651631 10.0
vertex 310.989664572367 60.3458064651631 10.0
endloop
endfacet
facet normal 0.99596964173824 -0.0896909846963588 -0.0
outer loop
vertex 310.989664572367 60.3458064651631 -1.40998324127395e-015
vertex 310.466062331525 54.5314881366258 10.0
vertex 310.466062331525 54.5314881366258 -1.40998324127395e-015
endloop
endfacet
facet normal 0.99596964173824 -0.0896909846963588 -0.0
outer loop
vertex 310.466062331525 54.5314881366258 10.0
vertex 310.989664572367 60.3458064651631 -1.40998324127395e-015
vertex 310.989664572367 60.3458064651631 10.0
endloop
endfacet
facet normal 0.0 -1.0 0.0
outer loop
vertex 310.466062331525 54.5314881366258 10.0
vertex 308.951715805968 54.5314881366258 -1.40998324127395e-015
vertex 310.466062331525 54.5314881366258 -1.40998324127395e-015
endloop
endfacet
facet normal 0.0 -1.0 0.0
outer loop
vertex 308.951715805968 54.5314881366258 -1.40998324127395e-015
vertex 310.466062331525 54.5314881366258 10.0
vertex 308.951715805968 54.5314881366258 10.0
endloop
endfacet
facet normal 5.95893515246489e-014 1.0 -0.0
outer loop
vertex 308.951715805968 68.1505352293755 10.0
vertex 310.466062331525 68.1505352293754 -1.40998324127395e-015
vertex 308.951715805968 68.1505352293755 -1.40998324127395e-015
endloop
endfacet
facet normal 5.95893515246489e-014 1.0 -0.0
outer loop
vertex 310.466062331525 68.1505352293754 -1.40998324127395e-015
vertex 308.951715805968 68.1505352293755 10.0
vertex 310.466062331525 68.1505352293754 10.0
endloop
endfacet
facet normal 0.99596964173824 0.0896909846963602 -0.0
outer loop
vertex 310.466062331525 68.1505352293754 -1.40998324127395e-015
vertex 310.989664572367 62.3362169008381 10.0
vertex 310.989664572367 62.3362169008381 -1.40998324127395e-015
endloop
endfacet
facet normal 0.99596964173824 0.0896909846963602 -0.0
outer loop
vertex 310.989664572367 62.3362169008381 10.0
vertex 310.466062331525 68.1505352293754 -1.40998324127395e-015
vertex 310.466062331525 68.1505352293754 10.0
endloop
endfacet
facet normal -1.0 0.0 0.0
outer loop
vertex 308.451715805968 67.6505352293754 10.0
vertex 308.451715805968 55.0314881366258 -1.40998324127395e-015
vertex 308.451715805968 55.0314881366258 10.0
endloop
endfacet
facet normal -1.0 0.0 0.0
outer loop
vertex 308.451715805968 55.0314881366258 -1.40998324127395e-015
vertex 308.451715805968 67.6505352293754 10.0
vertex 308.451715805968 67.6505352293754 -1.40998324127395e-015
endloop
endfacet
endsolid big II
