solid Default
  facet normal 0.000000e+00 0.000000e+00 -1.000000e+00
    outer loop
      vertex -4.400000e+00 0.000000e+00 0.000000e+00
      vertex -4.184650e+00 1.359670e+00 0.000000e+00
      vertex -4.184650e+00 -1.359670e+00 0.000000e+00
    endloop
  endfacet
  facet normal 0.000000e+00 0.000000e+00 -1.000000e+00
    outer loop
      vertex -4.184650e+00 -1.359670e+00 0.000000e+00
      vertex -4.184650e+00 1.359670e+00 0.000000e+00
      vertex -3.559670e+00 2.586250e+00 0.000000e+00
    endloop
  endfacet
  facet normal 0.000000e+00 0.000000e+00 -1.000000e+00
    outer loop
      vertex -4.184650e+00 -1.359670e+00 0.000000e+00
      vertex -3.559670e+00 2.586250e+00 0.000000e+00
      vertex -2.586250e+00 3.559670e+00 0.000000e+00
    endloop
  endfacet
  facet normal 0.000000e+00 0.000000e+00 -1.000000e+00
    outer loop
      vertex -4.184650e+00 -1.359670e+00 0.000000e+00
      vertex -2.586250e+00 3.559670e+00 0.000000e+00
      vertex -1.359670e+00 4.184650e+00 0.000000e+00
    endloop
  endfacet
  facet normal 0.000000e+00 0.000000e+00 -1.000000e+00
    outer loop
      vertex -4.184650e+00 -1.359670e+00 0.000000e+00
      vertex -1.359670e+00 4.184650e+00 0.000000e+00
      vertex 0.000000e+00 4.400000e+00 0.000000e+00
    endloop
  endfacet
  facet normal 0.000000e+00 0.000000e+00 -1.000000e+00
    outer loop
      vertex -1.293130e+00 1.779840e+00 0.000000e+00
      vertex 0.000000e+00 4.400000e+00 0.000000e+00
      vertex 1.359670e+00 4.184650e+00 0.000000e+00
    endloop
  endfacet
  facet normal 0.000000e+00 0.000000e+00 -1.000000e+00
    outer loop
      vertex 0.000000e+00 2.200000e+00 0.000000e+00
      vertex 1.359670e+00 4.184650e+00 0.000000e+00
      vertex 2.586250e+00 3.559670e+00 0.000000e+00
    endloop
  endfacet
  facet normal 0.000000e+00 0.000000e+00 -1.000000e+00
    outer loop
      vertex 1.293130e+00 1.779840e+00 0.000000e+00
      vertex 2.586250e+00 3.559670e+00 0.000000e+00
      vertex 3.559670e+00 2.586250e+00 0.000000e+00
    endloop
  endfacet
  facet normal 0.000000e+00 0.000000e+00 -1.000000e+00
    outer loop
      vertex 1.779840e+00 1.293130e+00 0.000000e+00
      vertex 3.559670e+00 2.586250e+00 0.000000e+00
      vertex 4.184650e+00 1.359670e+00 0.000000e+00
    endloop
  endfacet
  facet normal 0.000000e+00 0.000000e+00 -1.000000e+00
    outer loop
      vertex 2.200000e+00 0.000000e+00 0.000000e+00
      vertex 4.184650e+00 1.359670e+00 0.000000e+00
      vertex 4.400000e+00 0.000000e+00 0.000000e+00
    endloop
  endfacet
  facet normal 0.000000e+00 0.000000e+00 -1.000000e+00
    outer loop
      vertex 1.779840e+00 -1.293130e+00 0.000000e+00
      vertex 4.400000e+00 0.000000e+00 0.000000e+00
      vertex 4.184650e+00 -1.359670e+00 0.000000e+00
    endloop
  endfacet
  facet normal 0.000000e+00 0.000000e+00 -1.000000e+00
    outer loop
      vertex 6.798370e-01 -2.092320e+00 0.000000e+00
      vertex 4.184650e+00 -1.359670e+00 0.000000e+00
      vertex 3.559670e+00 -2.586250e+00 0.000000e+00
    endloop
  endfacet
  facet normal 0.000000e+00 0.000000e+00 -1.000000e+00
    outer loop
      vertex 0.000000e+00 -2.200000e+00 0.000000e+00
      vertex 3.559670e+00 -2.586250e+00 0.000000e+00
      vertex 2.586250e+00 -3.559670e+00 0.000000e+00
    endloop
  endfacet
  facet normal 0.000000e+00 0.000000e+00 -1.000000e+00
    outer loop
      vertex -4.184650e+00 -1.359670e+00 0.000000e+00
      vertex 2.586250e+00 -3.559670e+00 0.000000e+00
      vertex 1.359670e+00 -4.184650e+00 0.000000e+00
    endloop
  endfacet
  facet normal 0.000000e+00 0.000000e+00 -1.000000e+00
    outer loop
      vertex -4.184650e+00 -1.359670e+00 0.000000e+00
      vertex 1.359670e+00 -4.184650e+00 0.000000e+00
      vertex 0.000000e+00 -4.400000e+00 0.000000e+00
    endloop
  endfacet
  facet normal 0.000000e+00 0.000000e+00 -1.000000e+00
    outer loop
      vertex -4.184650e+00 -1.359670e+00 0.000000e+00
      vertex 0.000000e+00 -4.400000e+00 0.000000e+00
      vertex -1.359670e+00 -4.184650e+00 0.000000e+00
    endloop
  endfacet
  facet normal 0.000000e+00 0.000000e+00 -1.000000e+00
    outer loop
      vertex -4.184650e+00 -1.359670e+00 0.000000e+00
      vertex -1.359670e+00 -4.184650e+00 0.000000e+00
      vertex -2.586250e+00 -3.559670e+00 0.000000e+00
    endloop
  endfacet
  facet normal 0.000000e+00 0.000000e+00 -1.000000e+00
    outer loop
      vertex -4.184650e+00 -1.359670e+00 0.000000e+00
      vertex -2.586250e+00 -3.559670e+00 0.000000e+00
      vertex -3.559670e+00 -2.586250e+00 0.000000e+00
    endloop
  endfacet
  facet normal 0.000000e+00 0.000000e+00 -1.000000e+00
    outer loop
      vertex -2.092320e+00 -6.798370e-01 0.000000e+00
      vertex -4.184650e+00 -1.359670e+00 0.000000e+00
      vertex -2.200000e+00 0.000000e+00 0.000000e+00
    endloop
  endfacet
  facet normal 0.000000e+00 0.000000e+00 -1.000000e+00
    outer loop
      vertex -1.779840e+00 -1.293130e+00 0.000000e+00
      vertex -4.184650e+00 -1.359670e+00 0.000000e+00
      vertex -2.092320e+00 -6.798370e-01 0.000000e+00
    endloop
  endfacet
  facet normal 0.000000e+00 0.000000e+00 -1.000000e+00
    outer loop
      vertex -1.293130e+00 -1.779840e+00 0.000000e+00
      vertex -4.184650e+00 -1.359670e+00 0.000000e+00
      vertex -1.779840e+00 -1.293130e+00 0.000000e+00
    endloop
  endfacet
  facet normal 0.000000e+00 0.000000e+00 -1.000000e+00
    outer loop
      vertex -6.798370e-01 -2.092320e+00 0.000000e+00
      vertex -4.184650e+00 -1.359670e+00 0.000000e+00
      vertex -1.293130e+00 -1.779840e+00 0.000000e+00
    endloop
  endfacet
  facet normal 0.000000e+00 0.000000e+00 -1.000000e+00
    outer loop
      vertex 6.798370e-01 -2.092320e+00 0.000000e+00
      vertex 3.559670e+00 -2.586250e+00 0.000000e+00
      vertex 0.000000e+00 -2.200000e+00 0.000000e+00
    endloop
  endfacet
  facet normal 0.000000e+00 0.000000e+00 -1.000000e+00
    outer loop
      vertex -4.184650e+00 -1.359670e+00 0.000000e+00
      vertex -6.798370e-01 -2.092320e+00 0.000000e+00
      vertex 2.586250e+00 -3.559670e+00 0.000000e+00
    endloop
  endfacet
  facet normal 0.000000e+00 0.000000e+00 -1.000000e+00
    outer loop
      vertex -6.798370e-01 -2.092320e+00 0.000000e+00
      vertex 0.000000e+00 -2.200000e+00 0.000000e+00
      vertex 2.586250e+00 -3.559670e+00 0.000000e+00
    endloop
  endfacet
  facet normal 0.000000e+00 0.000000e+00 -1.000000e+00
    outer loop
      vertex 1.293130e+00 -1.779840e+00 0.000000e+00
      vertex 4.184650e+00 -1.359670e+00 0.000000e+00
      vertex 6.798370e-01 -2.092320e+00 0.000000e+00
    endloop
  endfacet
  facet normal 0.000000e+00 0.000000e+00 -1.000000e+00
    outer loop
      vertex 1.779840e+00 -1.293130e+00 0.000000e+00
      vertex 4.184650e+00 -1.359670e+00 0.000000e+00
      vertex 1.293130e+00 -1.779840e+00 0.000000e+00
    endloop
  endfacet
  facet normal 0.000000e+00 0.000000e+00 -1.000000e+00
    outer loop
      vertex 2.092320e+00 -6.798370e-01 0.000000e+00
      vertex 4.400000e+00 0.000000e+00 0.000000e+00
      vertex 1.779840e+00 -1.293130e+00 0.000000e+00
    endloop
  endfacet
  facet normal 0.000000e+00 0.000000e+00 -1.000000e+00
    outer loop
      vertex 2.200000e+00 0.000000e+00 0.000000e+00
      vertex 4.400000e+00 0.000000e+00 0.000000e+00
      vertex 2.092320e+00 -6.798370e-01 0.000000e+00
    endloop
  endfacet
  facet normal 0.000000e+00 0.000000e+00 -1.000000e+00
    outer loop
      vertex 2.092320e+00 6.798370e-01 0.000000e+00
      vertex 4.184650e+00 1.359670e+00 0.000000e+00
      vertex 2.200000e+00 0.000000e+00 0.000000e+00
    endloop
  endfacet
  facet normal 0.000000e+00 0.000000e+00 -1.000000e+00
    outer loop
      vertex 1.293130e+00 1.779840e+00 0.000000e+00
      vertex 3.559670e+00 2.586250e+00 0.000000e+00
      vertex 1.779840e+00 1.293130e+00 0.000000e+00
    endloop
  endfacet
  facet normal 0.000000e+00 0.000000e+00 -1.000000e+00
    outer loop
      vertex 6.798370e-01 2.092320e+00 0.000000e+00
      vertex 2.586250e+00 3.559670e+00 0.000000e+00
      vertex 1.293130e+00 1.779840e+00 0.000000e+00
    endloop
  endfacet
  facet normal 0.000000e+00 0.000000e+00 -1.000000e+00
    outer loop
      vertex 0.000000e+00 2.200000e+00 0.000000e+00
      vertex 2.586250e+00 3.559670e+00 0.000000e+00
      vertex 6.798370e-01 2.092320e+00 0.000000e+00
    endloop
  endfacet
  facet normal 0.000000e+00 0.000000e+00 -1.000000e+00
    outer loop
      vertex -6.798370e-01 2.092320e+00 0.000000e+00
      vertex 1.359670e+00 4.184650e+00 0.000000e+00
      vertex 0.000000e+00 2.200000e+00 0.000000e+00
    endloop
  endfacet
  facet normal 0.000000e+00 0.000000e+00 -1.000000e+00
    outer loop
      vertex -1.779840e+00 1.293130e+00 0.000000e+00
      vertex 0.000000e+00 4.400000e+00 0.000000e+00
      vertex -1.293130e+00 1.779840e+00 0.000000e+00
    endloop
  endfacet
  facet normal 0.000000e+00 0.000000e+00 -1.000000e+00
    outer loop
      vertex -2.092320e+00 6.798370e-01 0.000000e+00
      vertex -4.184650e+00 -1.359670e+00 0.000000e+00
      vertex -1.779840e+00 1.293130e+00 0.000000e+00
    endloop
  endfacet
  facet normal 0.000000e+00 0.000000e+00 -1.000000e+00
    outer loop
      vertex -4.184650e+00 -1.359670e+00 0.000000e+00
      vertex 0.000000e+00 4.400000e+00 0.000000e+00
      vertex -1.779840e+00 1.293130e+00 0.000000e+00
    endloop
  endfacet
  facet normal 0.000000e+00 0.000000e+00 -1.000000e+00
    outer loop
      vertex -2.200000e+00 0.000000e+00 0.000000e+00
      vertex -4.184650e+00 -1.359670e+00 0.000000e+00
      vertex -2.092320e+00 6.798370e-01 0.000000e+00
    endloop
  endfacet
  facet normal 0.000000e+00 0.000000e+00 -1.000000e+00
    outer loop
      vertex -1.293130e+00 1.779840e+00 0.000000e+00
      vertex 1.359670e+00 4.184650e+00 0.000000e+00
      vertex -6.798370e-01 2.092320e+00 0.000000e+00
    endloop
  endfacet
  facet normal 0.000000e+00 0.000000e+00 -1.000000e+00
    outer loop
      vertex 1.779840e+00 1.293130e+00 0.000000e+00
      vertex 4.184650e+00 1.359670e+00 0.000000e+00
      vertex 2.092320e+00 6.798370e-01 0.000000e+00
    endloop
  endfacet
  facet normal -9.876885e-01 1.564341e-01 0.000000e+00
    outer loop
      vertex -4.400000e+00 0.000000e+00 0.000000e+00
      vertex -4.400000e+00 0.000000e+00 5.400000e+00
      vertex -4.184650e+00 1.359670e+00 0.000000e+00
    endloop
  endfacet
  facet normal -9.876885e-01 1.564341e-01 0.000000e+00
    outer loop
      vertex -4.184650e+00 1.359670e+00 0.000000e+00
      vertex -4.400000e+00 0.000000e+00 5.400000e+00
      vertex -4.184650e+00 1.359670e+00 5.400000e+00
    endloop
  endfacet
  facet normal -9.876885e-01 -1.564341e-01 0.000000e+00
    outer loop
      vertex -4.400000e+00 0.000000e+00 0.000000e+00
      vertex -4.184650e+00 -1.359670e+00 0.000000e+00
      vertex -4.400000e+00 0.000000e+00 5.400000e+00
    endloop
  endfacet
  facet normal -9.876885e-01 -1.564341e-01 0.000000e+00
    outer loop
      vertex -4.400000e+00 0.000000e+00 5.400000e+00
      vertex -4.184650e+00 -1.359670e+00 0.000000e+00
      vertex -4.184650e+00 -1.359670e+00 5.400000e+00
    endloop
  endfacet
  facet normal -8.910062e-01 -4.539911e-01 0.000000e+00
    outer loop
      vertex -4.184650e+00 -1.359670e+00 0.000000e+00
      vertex -3.559670e+00 -2.586250e+00 0.000000e+00
      vertex -4.184650e+00 -1.359670e+00 5.400000e+00
    endloop
  endfacet
  facet normal -8.910062e-01 -4.539911e-01 0.000000e+00
    outer loop
      vertex -4.184650e+00 -1.359670e+00 5.400000e+00
      vertex -3.559670e+00 -2.586250e+00 0.000000e+00
      vertex -3.559670e+00 -2.586250e+00 5.400000e+00
    endloop
  endfacet
  facet normal -7.071068e-01 -7.071068e-01 0.000000e+00
    outer loop
      vertex -3.559670e+00 -2.586250e+00 5.400000e+00
      vertex -3.559670e+00 -2.586250e+00 0.000000e+00
      vertex -2.586250e+00 -3.559670e+00 0.000000e+00
    endloop
  endfacet
  facet normal -7.071068e-01 -7.071068e-01 0.000000e+00
    outer loop
      vertex -2.586250e+00 -3.559670e+00 5.400000e+00
      vertex -3.559670e+00 -2.586250e+00 5.400000e+00
      vertex -2.586250e+00 -3.559670e+00 0.000000e+00
    endloop
  endfacet
  facet normal -4.539911e-01 -8.910062e-01 0.000000e+00
    outer loop
      vertex -2.586250e+00 -3.559670e+00 5.400000e+00
      vertex -2.586250e+00 -3.559670e+00 0.000000e+00
      vertex -1.359670e+00 -4.184650e+00 0.000000e+00
    endloop
  endfacet
  facet normal -4.539911e-01 -8.910062e-01 0.000000e+00
    outer loop
      vertex -1.359670e+00 -4.184650e+00 5.400000e+00
      vertex -2.586250e+00 -3.559670e+00 5.400000e+00
      vertex -1.359670e+00 -4.184650e+00 0.000000e+00
    endloop
  endfacet
  facet normal -1.564341e-01 -9.876885e-01 0.000000e+00
    outer loop
      vertex -1.359670e+00 -4.184650e+00 5.400000e+00
      vertex -1.359670e+00 -4.184650e+00 0.000000e+00
      vertex 0.000000e+00 -4.400000e+00 0.000000e+00
    endloop
  endfacet
  facet normal -1.564341e-01 -9.876885e-01 0.000000e+00
    outer loop
      vertex 0.000000e+00 -4.400000e+00 5.400000e+00
      vertex -1.359670e+00 -4.184650e+00 5.400000e+00
      vertex 0.000000e+00 -4.400000e+00 0.000000e+00
    endloop
  endfacet
  facet normal 1.564341e-01 -9.876885e-01 0.000000e+00
    outer loop
      vertex 0.000000e+00 -4.400000e+00 5.400000e+00
      vertex 0.000000e+00 -4.400000e+00 0.000000e+00
      vertex 1.359670e+00 -4.184650e+00 0.000000e+00
    endloop
  endfacet
  facet normal 1.564341e-01 -9.876885e-01 0.000000e+00
    outer loop
      vertex 1.359670e+00 -4.184650e+00 5.400000e+00
      vertex 0.000000e+00 -4.400000e+00 5.400000e+00
      vertex 1.359670e+00 -4.184650e+00 0.000000e+00
    endloop
  endfacet
  facet normal 4.539911e-01 -8.910062e-01 0.000000e+00
    outer loop
      vertex 1.359670e+00 -4.184650e+00 5.400000e+00
      vertex 1.359670e+00 -4.184650e+00 0.000000e+00
      vertex 2.586250e+00 -3.559670e+00 0.000000e+00
    endloop
  endfacet
  facet normal 4.539911e-01 -8.910062e-01 0.000000e+00
    outer loop
      vertex 2.586250e+00 -3.559670e+00 5.400000e+00
      vertex 1.359670e+00 -4.184650e+00 5.400000e+00
      vertex 2.586250e+00 -3.559670e+00 0.000000e+00
    endloop
  endfacet
  facet normal 7.071068e-01 -7.071068e-01 0.000000e+00
    outer loop
      vertex 2.586250e+00 -3.559670e+00 5.400000e+00
      vertex 2.586250e+00 -3.559670e+00 0.000000e+00
      vertex 3.559670e+00 -2.586250e+00 0.000000e+00
    endloop
  endfacet
  facet normal 7.071068e-01 -7.071068e-01 0.000000e+00
    outer loop
      vertex 3.559670e+00 -2.586250e+00 5.400000e+00
      vertex 2.586250e+00 -3.559670e+00 5.400000e+00
      vertex 3.559670e+00 -2.586250e+00 0.000000e+00
    endloop
  endfacet
  facet normal 8.910062e-01 -4.539911e-01 0.000000e+00
    outer loop
      vertex 3.559670e+00 -2.586250e+00 5.400000e+00
      vertex 3.559670e+00 -2.586250e+00 0.000000e+00
      vertex 4.184650e+00 -1.359670e+00 0.000000e+00
    endloop
  endfacet
  facet normal 8.910062e-01 -4.539911e-01 0.000000e+00
    outer loop
      vertex 4.184650e+00 -1.359670e+00 5.400000e+00
      vertex 3.559670e+00 -2.586250e+00 5.400000e+00
      vertex 4.184650e+00 -1.359670e+00 0.000000e+00
    endloop
  endfacet
  facet normal 9.876885e-01 -1.564341e-01 0.000000e+00
    outer loop
      vertex 4.184650e+00 -1.359670e+00 5.400000e+00
      vertex 4.184650e+00 -1.359670e+00 0.000000e+00
      vertex 4.400000e+00 0.000000e+00 0.000000e+00
    endloop
  endfacet
  facet normal 9.876885e-01 -1.564341e-01 0.000000e+00
    outer loop
      vertex 4.400000e+00 0.000000e+00 5.400000e+00
      vertex 4.184650e+00 -1.359670e+00 5.400000e+00
      vertex 4.400000e+00 0.000000e+00 0.000000e+00
    endloop
  endfacet
  facet normal 9.876885e-01 1.564341e-01 0.000000e+00
    outer loop
      vertex 4.400000e+00 0.000000e+00 0.000000e+00
      vertex 4.184650e+00 1.359670e+00 0.000000e+00
      vertex 4.184650e+00 1.359670e+00 5.400000e+00
    endloop
  endfacet
  facet normal 9.876885e-01 1.564341e-01 0.000000e+00
    outer loop
      vertex 4.400000e+00 0.000000e+00 5.400000e+00
      vertex 4.400000e+00 0.000000e+00 0.000000e+00
      vertex 4.184650e+00 1.359670e+00 5.400000e+00
    endloop
  endfacet
  facet normal 8.910062e-01 4.539911e-01 0.000000e+00
    outer loop
      vertex 4.184650e+00 1.359670e+00 0.000000e+00
      vertex 3.559670e+00 2.586250e+00 0.000000e+00
      vertex 3.559670e+00 2.586250e+00 5.400000e+00
    endloop
  endfacet
  facet normal 8.910062e-01 4.539911e-01 0.000000e+00
    outer loop
      vertex 4.184650e+00 1.359670e+00 5.400000e+00
      vertex 4.184650e+00 1.359670e+00 0.000000e+00
      vertex 3.559670e+00 2.586250e+00 5.400000e+00
    endloop
  endfacet
  facet normal 7.071068e-01 7.071068e-01 0.000000e+00
    outer loop
      vertex 2.586250e+00 3.559670e+00 0.000000e+00
      vertex 2.586250e+00 3.559670e+00 5.400000e+00
      vertex 3.559670e+00 2.586250e+00 0.000000e+00
    endloop
  endfacet
  facet normal 7.071068e-01 7.071068e-01 0.000000e+00
    outer loop
      vertex 3.559670e+00 2.586250e+00 0.000000e+00
      vertex 2.586250e+00 3.559670e+00 5.400000e+00
      vertex 3.559670e+00 2.586250e+00 5.400000e+00
    endloop
  endfacet
  facet normal 4.539911e-01 8.910062e-01 0.000000e+00
    outer loop
      vertex 1.359670e+00 4.184650e+00 0.000000e+00
      vertex 1.359670e+00 4.184650e+00 5.400000e+00
      vertex 2.586250e+00 3.559670e+00 0.000000e+00
    endloop
  endfacet
  facet normal 4.539911e-01 8.910062e-01 0.000000e+00
    outer loop
      vertex 2.586250e+00 3.559670e+00 0.000000e+00
      vertex 1.359670e+00 4.184650e+00 5.400000e+00
      vertex 2.586250e+00 3.559670e+00 5.400000e+00
    endloop
  endfacet
  facet normal 1.564341e-01 9.876885e-01 0.000000e+00
    outer loop
      vertex 0.000000e+00 4.400000e+00 0.000000e+00
      vertex 0.000000e+00 4.400000e+00 5.400000e+00
      vertex 1.359670e+00 4.184650e+00 0.000000e+00
    endloop
  endfacet
  facet normal 1.564341e-01 9.876885e-01 0.000000e+00
    outer loop
      vertex 1.359670e+00 4.184650e+00 0.000000e+00
      vertex 0.000000e+00 4.400000e+00 5.400000e+00
      vertex 1.359670e+00 4.184650e+00 5.400000e+00
    endloop
  endfacet
  facet normal -1.564341e-01 9.876885e-01 0.000000e+00
    outer loop
      vertex -1.359670e+00 4.184650e+00 0.000000e+00
      vertex -1.359670e+00 4.184650e+00 5.400000e+00
      vertex 0.000000e+00 4.400000e+00 0.000000e+00
    endloop
  endfacet
  facet normal -1.564341e-01 9.876885e-01 0.000000e+00
    outer loop
      vertex 0.000000e+00 4.400000e+00 0.000000e+00
      vertex -1.359670e+00 4.184650e+00 5.400000e+00
      vertex 0.000000e+00 4.400000e+00 5.400000e+00
    endloop
  endfacet
  facet normal -4.539911e-01 8.910062e-01 0.000000e+00
    outer loop
      vertex -2.586250e+00 3.559670e+00 0.000000e+00
      vertex -2.586250e+00 3.559670e+00 5.400000e+00
      vertex -1.359670e+00 4.184650e+00 0.000000e+00
    endloop
  endfacet
  facet normal -4.539911e-01 8.910062e-01 0.000000e+00
    outer loop
      vertex -1.359670e+00 4.184650e+00 0.000000e+00
      vertex -2.586250e+00 3.559670e+00 5.400000e+00
      vertex -1.359670e+00 4.184650e+00 5.400000e+00
    endloop
  endfacet
  facet normal -7.071068e-01 7.071068e-01 0.000000e+00
    outer loop
      vertex -3.559670e+00 2.586250e+00 0.000000e+00
      vertex -3.559670e+00 2.586250e+00 5.400000e+00
      vertex -2.586250e+00 3.559670e+00 0.000000e+00
    endloop
  endfacet
  facet normal -7.071068e-01 7.071068e-01 0.000000e+00
    outer loop
      vertex -2.586250e+00 3.559670e+00 0.000000e+00
      vertex -3.559670e+00 2.586250e+00 5.400000e+00
      vertex -2.586250e+00 3.559670e+00 5.400000e+00
    endloop
  endfacet
  facet normal -8.910062e-01 4.539911e-01 0.000000e+00
    outer loop
      vertex -4.184650e+00 1.359670e+00 0.000000e+00
      vertex -4.184650e+00 1.359670e+00 5.400000e+00
      vertex -3.559670e+00 2.586250e+00 0.000000e+00
    endloop
  endfacet
  facet normal -8.910062e-01 4.539911e-01 0.000000e+00
    outer loop
      vertex -3.559670e+00 2.586250e+00 0.000000e+00
      vertex -4.184650e+00 1.359670e+00 5.400000e+00
      vertex -3.559670e+00 2.586250e+00 5.400000e+00
    endloop
  endfacet
  facet normal 9.876882e-01 -1.564350e-01 0.000000e+00
    outer loop
      vertex -2.092320e+00 6.798370e-01 0.000000e+00
      vertex -2.092320e+00 6.798370e-01 5.400000e+00
      vertex -2.200000e+00 0.000000e+00 5.400000e+00
    endloop
  endfacet
  facet normal 9.876882e-01 -1.564350e-01 0.000000e+00
    outer loop
      vertex -2.200000e+00 0.000000e+00 0.000000e+00
      vertex -2.092320e+00 6.798370e-01 0.000000e+00
      vertex -2.200000e+00 0.000000e+00 5.400000e+00
    endloop
  endfacet
  facet normal 9.876882e-01 1.564350e-01 0.000000e+00
    outer loop
      vertex -2.200000e+00 0.000000e+00 5.400000e+00
      vertex -2.092320e+00 -6.798370e-01 5.400000e+00
      vertex -2.092320e+00 -6.798370e-01 0.000000e+00
    endloop
  endfacet
  facet normal 9.876882e-01 1.564350e-01 0.000000e+00
    outer loop
      vertex -2.200000e+00 0.000000e+00 0.000000e+00
      vertex -2.200000e+00 0.000000e+00 5.400000e+00
      vertex -2.092320e+00 -6.798370e-01 0.000000e+00
    endloop
  endfacet
  facet normal 8.910068e-01 -4.539899e-01 0.000000e+00
    outer loop
      vertex -1.779840e+00 1.293130e+00 0.000000e+00
      vertex -1.779840e+00 1.293130e+00 5.400000e+00
      vertex -2.092320e+00 6.798370e-01 5.400000e+00
    endloop
  endfacet
  facet normal 8.910068e-01 -4.539899e-01 0.000000e+00
    outer loop
      vertex -2.092320e+00 6.798370e-01 0.000000e+00
      vertex -1.779840e+00 1.293130e+00 0.000000e+00
      vertex -2.092320e+00 6.798370e-01 5.400000e+00
    endloop
  endfacet
  facet normal 7.071068e-01 -7.071068e-01 0.000000e+00
    outer loop
      vertex -1.293130e+00 1.779840e+00 0.000000e+00
      vertex -1.293130e+00 1.779840e+00 5.400000e+00
      vertex -1.779840e+00 1.293130e+00 5.400000e+00
    endloop
  endfacet
  facet normal 7.071068e-01 -7.071068e-01 0.000000e+00
    outer loop
      vertex -1.779840e+00 1.293130e+00 0.000000e+00
      vertex -1.293130e+00 1.779840e+00 0.000000e+00
      vertex -1.779840e+00 1.293130e+00 5.400000e+00
    endloop
  endfacet
  facet normal 4.539899e-01 -8.910068e-01 0.000000e+00
    outer loop
      vertex -6.798370e-01 2.092320e+00 0.000000e+00
      vertex -6.798370e-01 2.092320e+00 5.400000e+00
      vertex -1.293130e+00 1.779840e+00 5.400000e+00
    endloop
  endfacet
  facet normal 4.539899e-01 -8.910068e-01 0.000000e+00
    outer loop
      vertex -1.293130e+00 1.779840e+00 0.000000e+00
      vertex -6.798370e-01 2.092320e+00 0.000000e+00
      vertex -1.293130e+00 1.779840e+00 5.400000e+00
    endloop
  endfacet
  facet normal 1.564350e-01 -9.876882e-01 0.000000e+00
    outer loop
      vertex 0.000000e+00 2.200000e+00 0.000000e+00
      vertex 0.000000e+00 2.200000e+00 5.400000e+00
      vertex -6.798370e-01 2.092320e+00 5.400000e+00
    endloop
  endfacet
  facet normal 1.564350e-01 -9.876882e-01 0.000000e+00
    outer loop
      vertex -6.798370e-01 2.092320e+00 0.000000e+00
      vertex 0.000000e+00 2.200000e+00 0.000000e+00
      vertex -6.798370e-01 2.092320e+00 5.400000e+00
    endloop
  endfacet
  facet normal -1.564350e-01 -9.876882e-01 0.000000e+00
    outer loop
      vertex 6.798370e-01 2.092320e+00 0.000000e+00
      vertex 6.798370e-01 2.092320e+00 5.400000e+00
      vertex 0.000000e+00 2.200000e+00 5.400000e+00
    endloop
  endfacet
  facet normal -1.564350e-01 -9.876882e-01 0.000000e+00
    outer loop
      vertex 0.000000e+00 2.200000e+00 0.000000e+00
      vertex 6.798370e-01 2.092320e+00 0.000000e+00
      vertex 0.000000e+00 2.200000e+00 5.400000e+00
    endloop
  endfacet
  facet normal -4.539899e-01 -8.910068e-01 0.000000e+00
    outer loop
      vertex 1.293130e+00 1.779840e+00 0.000000e+00
      vertex 1.293130e+00 1.779840e+00 5.400000e+00
      vertex 6.798370e-01 2.092320e+00 5.400000e+00
    endloop
  endfacet
  facet normal -4.539899e-01 -8.910068e-01 0.000000e+00
    outer loop
      vertex 6.798370e-01 2.092320e+00 0.000000e+00
      vertex 1.293130e+00 1.779840e+00 0.000000e+00
      vertex 6.798370e-01 2.092320e+00 5.400000e+00
    endloop
  endfacet
  facet normal -7.071068e-01 -7.071068e-01 0.000000e+00
    outer loop
      vertex 1.779840e+00 1.293130e+00 0.000000e+00
      vertex 1.779840e+00 1.293130e+00 5.400000e+00
      vertex 1.293130e+00 1.779840e+00 5.400000e+00
    endloop
  endfacet
  facet normal -7.071068e-01 -7.071068e-01 0.000000e+00
    outer loop
      vertex 1.293130e+00 1.779840e+00 0.000000e+00
      vertex 1.779840e+00 1.293130e+00 0.000000e+00
      vertex 1.293130e+00 1.779840e+00 5.400000e+00
    endloop
  endfacet
  facet normal -8.910068e-01 -4.539899e-01 0.000000e+00
    outer loop
      vertex 2.092320e+00 6.798370e-01 5.400000e+00
      vertex 1.779840e+00 1.293130e+00 5.400000e+00
      vertex 2.092320e+00 6.798370e-01 0.000000e+00
    endloop
  endfacet
  facet normal -8.910068e-01 -4.539899e-01 0.000000e+00
    outer loop
      vertex 2.092320e+00 6.798370e-01 0.000000e+00
      vertex 1.779840e+00 1.293130e+00 5.400000e+00
      vertex 1.779840e+00 1.293130e+00 0.000000e+00
    endloop
  endfacet
  facet normal -9.876882e-01 -1.564350e-01 0.000000e+00
    outer loop
      vertex 2.200000e+00 0.000000e+00 5.400000e+00
      vertex 2.092320e+00 6.798370e-01 5.400000e+00
      vertex 2.200000e+00 0.000000e+00 0.000000e+00
    endloop
  endfacet
  facet normal -9.876882e-01 -1.564350e-01 0.000000e+00
    outer loop
      vertex 2.200000e+00 0.000000e+00 0.000000e+00
      vertex 2.092320e+00 6.798370e-01 5.400000e+00
      vertex 2.092320e+00 6.798370e-01 0.000000e+00
    endloop
  endfacet
  facet normal -9.876882e-01 1.564350e-01 0.000000e+00
    outer loop
      vertex 2.200000e+00 0.000000e+00 5.400000e+00
      vertex 2.200000e+00 0.000000e+00 0.000000e+00
      vertex 2.092320e+00 -6.798370e-01 5.400000e+00
    endloop
  endfacet
  facet normal -9.876882e-01 1.564350e-01 0.000000e+00
    outer loop
      vertex 2.092320e+00 -6.798370e-01 5.400000e+00
      vertex 2.200000e+00 0.000000e+00 0.000000e+00
      vertex 2.092320e+00 -6.798370e-01 0.000000e+00
    endloop
  endfacet
  facet normal -8.910068e-01 4.539899e-01 0.000000e+00
    outer loop
      vertex 2.092320e+00 -6.798370e-01 5.400000e+00
      vertex 2.092320e+00 -6.798370e-01 0.000000e+00
      vertex 1.779840e+00 -1.293130e+00 5.400000e+00
    endloop
  endfacet
  facet normal -8.910068e-01 4.539899e-01 0.000000e+00
    outer loop
      vertex 1.779840e+00 -1.293130e+00 5.400000e+00
      vertex 2.092320e+00 -6.798370e-01 0.000000e+00
      vertex 1.779840e+00 -1.293130e+00 0.000000e+00
    endloop
  endfacet
  facet normal -7.071068e-01 7.071068e-01 0.000000e+00
    outer loop
      vertex 1.779840e+00 -1.293130e+00 5.400000e+00
      vertex 1.779840e+00 -1.293130e+00 0.000000e+00
      vertex 1.293130e+00 -1.779840e+00 5.400000e+00
    endloop
  endfacet
  facet normal -7.071068e-01 7.071068e-01 0.000000e+00
    outer loop
      vertex 1.293130e+00 -1.779840e+00 5.400000e+00
      vertex 1.779840e+00 -1.293130e+00 0.000000e+00
      vertex 1.293130e+00 -1.779840e+00 0.000000e+00
    endloop
  endfacet
  facet normal -4.539899e-01 8.910068e-01 0.000000e+00
    outer loop
      vertex 1.293130e+00 -1.779840e+00 5.400000e+00
      vertex 1.293130e+00 -1.779840e+00 0.000000e+00
      vertex 6.798370e-01 -2.092320e+00 5.400000e+00
    endloop
  endfacet
  facet normal -4.539899e-01 8.910068e-01 0.000000e+00
    outer loop
      vertex 6.798370e-01 -2.092320e+00 5.400000e+00
      vertex 1.293130e+00 -1.779840e+00 0.000000e+00
      vertex 6.798370e-01 -2.092320e+00 0.000000e+00
    endloop
  endfacet
  facet normal -1.564350e-01 9.876882e-01 0.000000e+00
    outer loop
      vertex 6.798370e-01 -2.092320e+00 5.400000e+00
      vertex 6.798370e-01 -2.092320e+00 0.000000e+00
      vertex 0.000000e+00 -2.200000e+00 5.400000e+00
    endloop
  endfacet
  facet normal -1.564350e-01 9.876882e-01 0.000000e+00
    outer loop
      vertex 0.000000e+00 -2.200000e+00 5.400000e+00
      vertex 6.798370e-01 -2.092320e+00 0.000000e+00
      vertex 0.000000e+00 -2.200000e+00 0.000000e+00
    endloop
  endfacet
  facet normal 1.564350e-01 9.876882e-01 0.000000e+00
    outer loop
      vertex 0.000000e+00 -2.200000e+00 5.400000e+00
      vertex 0.000000e+00 -2.200000e+00 0.000000e+00
      vertex -6.798370e-01 -2.092320e+00 5.400000e+00
    endloop
  endfacet
  facet normal 1.564350e-01 9.876882e-01 0.000000e+00
    outer loop
      vertex -6.798370e-01 -2.092320e+00 5.400000e+00
      vertex 0.000000e+00 -2.200000e+00 0.000000e+00
      vertex -6.798370e-01 -2.092320e+00 0.000000e+00
    endloop
  endfacet
  facet normal 4.539899e-01 8.910068e-01 0.000000e+00
    outer loop
      vertex -6.798370e-01 -2.092320e+00 5.400000e+00
      vertex -6.798370e-01 -2.092320e+00 0.000000e+00
      vertex -1.293130e+00 -1.779840e+00 5.400000e+00
    endloop
  endfacet
  facet normal 4.539899e-01 8.910068e-01 0.000000e+00
    outer loop
      vertex -1.293130e+00 -1.779840e+00 5.400000e+00
      vertex -6.798370e-01 -2.092320e+00 0.000000e+00
      vertex -1.293130e+00 -1.779840e+00 0.000000e+00
    endloop
  endfacet
  facet normal 7.071068e-01 7.071068e-01 0.000000e+00
    outer loop
      vertex -1.293130e+00 -1.779840e+00 5.400000e+00
      vertex -1.293130e+00 -1.779840e+00 0.000000e+00
      vertex -1.779840e+00 -1.293130e+00 5.400000e+00
    endloop
  endfacet
  facet normal 7.071068e-01 7.071068e-01 0.000000e+00
    outer loop
      vertex -1.779840e+00 -1.293130e+00 5.400000e+00
      vertex -1.293130e+00 -1.779840e+00 0.000000e+00
      vertex -1.779840e+00 -1.293130e+00 0.000000e+00
    endloop
  endfacet
  facet normal 8.910068e-01 4.539899e-01 0.000000e+00
    outer loop
      vertex -2.092320e+00 -6.798370e-01 5.400000e+00
      vertex -1.779840e+00 -1.293130e+00 5.400000e+00
      vertex -1.779840e+00 -1.293130e+00 0.000000e+00
    endloop
  endfacet
  facet normal 8.910068e-01 4.539899e-01 0.000000e+00
    outer loop
      vertex -2.092320e+00 -6.798370e-01 0.000000e+00
      vertex -2.092320e+00 -6.798370e-01 5.400000e+00
      vertex -1.779840e+00 -1.293130e+00 0.000000e+00
    endloop
  endfacet
  facet normal 0.000000e+00 0.000000e+00 1.000000e+00
    outer loop
      vertex -4.184650e+00 1.359670e+00 5.400000e+00
      vertex -4.400000e+00 0.000000e+00 5.400000e+00
      vertex -4.184650e+00 -1.359670e+00 5.400000e+00
    endloop
  endfacet
  facet normal 0.000000e+00 0.000000e+00 1.000000e+00
    outer loop
      vertex -2.586250e+00 -3.559670e+00 5.400000e+00
      vertex -4.184650e+00 1.359670e+00 5.400000e+00
      vertex -3.559670e+00 -2.586250e+00 5.400000e+00
    endloop
  endfacet
  facet normal 0.000000e+00 0.000000e+00 1.000000e+00
    outer loop
      vertex -3.559670e+00 -2.586250e+00 5.400000e+00
      vertex -4.184650e+00 1.359670e+00 5.400000e+00
      vertex -4.184650e+00 -1.359670e+00 5.400000e+00
    endloop
  endfacet
  facet normal 0.000000e+00 0.000000e+00 1.000000e+00
    outer loop
      vertex -1.359670e+00 -4.184650e+00 5.400000e+00
      vertex -4.184650e+00 1.359670e+00 5.400000e+00
      vertex -2.586250e+00 -3.559670e+00 5.400000e+00
    endloop
  endfacet
  facet normal 0.000000e+00 0.000000e+00 1.000000e+00
    outer loop
      vertex 0.000000e+00 -4.400000e+00 5.400000e+00
      vertex -4.184650e+00 1.359670e+00 5.400000e+00
      vertex -1.359670e+00 -4.184650e+00 5.400000e+00
    endloop
  endfacet
  facet normal 0.000000e+00 0.000000e+00 1.000000e+00
    outer loop
      vertex -1.779840e+00 -1.293130e+00 5.400000e+00
      vertex -4.184650e+00 1.359670e+00 5.400000e+00
      vertex 0.000000e+00 -4.400000e+00 5.400000e+00
    endloop
  endfacet
  facet normal 0.000000e+00 0.000000e+00 1.000000e+00
    outer loop
      vertex -6.798370e-01 -2.092320e+00 5.400000e+00
      vertex -1.293130e+00 -1.779840e+00 5.400000e+00
      vertex 1.359670e+00 -4.184650e+00 5.400000e+00
    endloop
  endfacet
  facet normal 0.000000e+00 0.000000e+00 1.000000e+00
    outer loop
      vertex 2.092320e+00 6.798370e-01 5.400000e+00
      vertex 2.200000e+00 0.000000e+00 5.400000e+00
      vertex 4.400000e+00 0.000000e+00 5.400000e+00
    endloop
  endfacet
  facet normal 0.000000e+00 0.000000e+00 1.000000e+00
    outer loop
      vertex 1.359670e+00 4.184650e+00 5.400000e+00
      vertex -4.184650e+00 1.359670e+00 5.400000e+00
      vertex 2.586250e+00 3.559670e+00 5.400000e+00
    endloop
  endfacet
  facet normal 0.000000e+00 0.000000e+00 1.000000e+00
    outer loop
      vertex 0.000000e+00 4.400000e+00 5.400000e+00
      vertex -4.184650e+00 1.359670e+00 5.400000e+00
      vertex 1.359670e+00 4.184650e+00 5.400000e+00
    endloop
  endfacet
  facet normal 0.000000e+00 0.000000e+00 1.000000e+00
    outer loop
      vertex -1.359670e+00 4.184650e+00 5.400000e+00
      vertex -4.184650e+00 1.359670e+00 5.400000e+00
      vertex 0.000000e+00 4.400000e+00 5.400000e+00
    endloop
  endfacet
  facet normal 0.000000e+00 0.000000e+00 1.000000e+00
    outer loop
      vertex -2.586250e+00 3.559670e+00 5.400000e+00
      vertex -4.184650e+00 1.359670e+00 5.400000e+00
      vertex -1.359670e+00 4.184650e+00 5.400000e+00
    endloop
  endfacet
  facet normal 0.000000e+00 0.000000e+00 1.000000e+00
    outer loop
      vertex -3.559670e+00 2.586250e+00 5.400000e+00
      vertex -4.184650e+00 1.359670e+00 5.400000e+00
      vertex -2.586250e+00 3.559670e+00 5.400000e+00
    endloop
  endfacet
  facet normal 0.000000e+00 0.000000e+00 1.000000e+00
    outer loop
      vertex -2.200000e+00 0.000000e+00 5.400000e+00
      vertex -2.092320e+00 6.798370e-01 5.400000e+00
      vertex -4.184650e+00 1.359670e+00 5.400000e+00
    endloop
  endfacet
  facet normal 0.000000e+00 0.000000e+00 1.000000e+00
    outer loop
      vertex 6.798370e-01 -2.092320e+00 5.400000e+00
      vertex 0.000000e+00 -2.200000e+00 5.400000e+00
      vertex 2.586250e+00 -3.559670e+00 5.400000e+00
    endloop
  endfacet
  facet normal 0.000000e+00 0.000000e+00 1.000000e+00
    outer loop
      vertex 2.092320e+00 -6.798370e-01 5.400000e+00
      vertex 1.779840e+00 -1.293130e+00 5.400000e+00
      vertex 4.184650e+00 -1.359670e+00 5.400000e+00
    endloop
  endfacet
  facet normal 0.000000e+00 0.000000e+00 1.000000e+00
    outer loop
      vertex -1.293130e+00 1.779840e+00 5.400000e+00
      vertex -6.798370e-01 2.092320e+00 5.400000e+00
      vertex -4.184650e+00 1.359670e+00 5.400000e+00
    endloop
  endfacet
  facet normal 0.000000e+00 0.000000e+00 1.000000e+00
    outer loop
      vertex 1.779840e+00 -1.293130e+00 5.400000e+00
      vertex 1.293130e+00 -1.779840e+00 5.400000e+00
      vertex 3.559670e+00 -2.586250e+00 5.400000e+00
    endloop
  endfacet
  facet normal 0.000000e+00 0.000000e+00 1.000000e+00
    outer loop
      vertex 1.293130e+00 1.779840e+00 5.400000e+00
      vertex 1.779840e+00 1.293130e+00 5.400000e+00
      vertex 4.184650e+00 1.359670e+00 5.400000e+00
    endloop
  endfacet
  facet normal 0.000000e+00 0.000000e+00 1.000000e+00
    outer loop
      vertex 2.586250e+00 3.559670e+00 5.400000e+00
      vertex -4.184650e+00 1.359670e+00 5.400000e+00
      vertex -6.798370e-01 2.092320e+00 5.400000e+00
    endloop
  endfacet
  facet normal 0.000000e+00 0.000000e+00 1.000000e+00
    outer loop
      vertex 2.586250e+00 3.559670e+00 5.400000e+00
      vertex 0.000000e+00 2.200000e+00 5.400000e+00
      vertex 3.559670e+00 2.586250e+00 5.400000e+00
    endloop
  endfacet
  facet normal 0.000000e+00 0.000000e+00 1.000000e+00
    outer loop
      vertex 2.586250e+00 3.559670e+00 5.400000e+00
      vertex -6.798370e-01 2.092320e+00 5.400000e+00
      vertex 0.000000e+00 2.200000e+00 5.400000e+00
    endloop
  endfacet
  facet normal 0.000000e+00 0.000000e+00 1.000000e+00
    outer loop
      vertex 3.559670e+00 2.586250e+00 5.400000e+00
      vertex 6.798370e-01 2.092320e+00 5.400000e+00
      vertex 4.184650e+00 1.359670e+00 5.400000e+00
    endloop
  endfacet
  facet normal 0.000000e+00 0.000000e+00 1.000000e+00
    outer loop
      vertex 6.798370e-01 2.092320e+00 5.400000e+00
      vertex 1.293130e+00 1.779840e+00 5.400000e+00
      vertex 4.184650e+00 1.359670e+00 5.400000e+00
    endloop
  endfacet
  facet normal 0.000000e+00 0.000000e+00 1.000000e+00
    outer loop
      vertex 4.184650e+00 1.359670e+00 5.400000e+00
      vertex 1.779840e+00 1.293130e+00 5.400000e+00
      vertex 4.400000e+00 0.000000e+00 5.400000e+00
    endloop
  endfacet
  facet normal 0.000000e+00 0.000000e+00 1.000000e+00
    outer loop
      vertex 1.779840e+00 1.293130e+00 5.400000e+00
      vertex 2.092320e+00 6.798370e-01 5.400000e+00
      vertex 4.400000e+00 0.000000e+00 5.400000e+00
    endloop
  endfacet
  facet normal 0.000000e+00 0.000000e+00 1.000000e+00
    outer loop
      vertex 4.400000e+00 0.000000e+00 5.400000e+00
      vertex 2.200000e+00 0.000000e+00 5.400000e+00
      vertex 4.184650e+00 -1.359670e+00 5.400000e+00
    endloop
  endfacet
  facet normal 0.000000e+00 0.000000e+00 1.000000e+00
    outer loop
      vertex -1.779840e+00 1.293130e+00 5.400000e+00
      vertex -1.293130e+00 1.779840e+00 5.400000e+00
      vertex -4.184650e+00 1.359670e+00 5.400000e+00
    endloop
  endfacet
  facet normal 0.000000e+00 0.000000e+00 1.000000e+00
    outer loop
      vertex 2.200000e+00 0.000000e+00 5.400000e+00
      vertex 2.092320e+00 -6.798370e-01 5.400000e+00
      vertex 4.184650e+00 -1.359670e+00 5.400000e+00
    endloop
  endfacet
  facet normal 0.000000e+00 0.000000e+00 1.000000e+00
    outer loop
      vertex 0.000000e+00 2.200000e+00 5.400000e+00
      vertex 6.798370e-01 2.092320e+00 5.400000e+00
      vertex 3.559670e+00 2.586250e+00 5.400000e+00
    endloop
  endfacet
  facet normal 0.000000e+00 0.000000e+00 1.000000e+00
    outer loop
      vertex 4.184650e+00 -1.359670e+00 5.400000e+00
      vertex 1.779840e+00 -1.293130e+00 5.400000e+00
      vertex 3.559670e+00 -2.586250e+00 5.400000e+00
    endloop
  endfacet
  facet normal 0.000000e+00 0.000000e+00 1.000000e+00
    outer loop
      vertex 3.559670e+00 -2.586250e+00 5.400000e+00
      vertex 1.293130e+00 -1.779840e+00 5.400000e+00
      vertex 2.586250e+00 -3.559670e+00 5.400000e+00
    endloop
  endfacet
  facet normal 0.000000e+00 0.000000e+00 1.000000e+00
    outer loop
      vertex 1.293130e+00 -1.779840e+00 5.400000e+00
      vertex 6.798370e-01 -2.092320e+00 5.400000e+00
      vertex 2.586250e+00 -3.559670e+00 5.400000e+00
    endloop
  endfacet
  facet normal 0.000000e+00 0.000000e+00 1.000000e+00
    outer loop
      vertex 2.586250e+00 -3.559670e+00 5.400000e+00
      vertex 0.000000e+00 -2.200000e+00 5.400000e+00
      vertex 1.359670e+00 -4.184650e+00 5.400000e+00
    endloop
  endfacet
  facet normal 0.000000e+00 0.000000e+00 1.000000e+00
    outer loop
      vertex 0.000000e+00 -2.200000e+00 5.400000e+00
      vertex -6.798370e-01 -2.092320e+00 5.400000e+00
      vertex 1.359670e+00 -4.184650e+00 5.400000e+00
    endloop
  endfacet
  facet normal 0.000000e+00 0.000000e+00 1.000000e+00
    outer loop
      vertex 1.359670e+00 -4.184650e+00 5.400000e+00
      vertex -1.293130e+00 -1.779840e+00 5.400000e+00
      vertex 0.000000e+00 -4.400000e+00 5.400000e+00
    endloop
  endfacet
  facet normal 0.000000e+00 0.000000e+00 1.000000e+00
    outer loop
      vertex -2.092320e+00 -6.798370e-01 5.400000e+00
      vertex -2.200000e+00 0.000000e+00 5.400000e+00
      vertex -4.184650e+00 1.359670e+00 5.400000e+00
    endloop
  endfacet
  facet normal 0.000000e+00 0.000000e+00 1.000000e+00
    outer loop
      vertex -1.293130e+00 -1.779840e+00 5.400000e+00
      vertex -1.779840e+00 -1.293130e+00 5.400000e+00
      vertex 0.000000e+00 -4.400000e+00 5.400000e+00
    endloop
  endfacet
  facet normal 0.000000e+00 0.000000e+00 1.000000e+00
    outer loop
      vertex -1.779840e+00 -1.293130e+00 5.400000e+00
      vertex -2.092320e+00 -6.798370e-01 5.400000e+00
      vertex -4.184650e+00 1.359670e+00 5.400000e+00
    endloop
  endfacet
  facet normal 0.000000e+00 0.000000e+00 1.000000e+00
    outer loop
      vertex -2.092320e+00 6.798370e-01 5.400000e+00
      vertex -1.779840e+00 1.293130e+00 5.400000e+00
      vertex -4.184650e+00 1.359670e+00 5.400000e+00
    endloop
  endfacet
endsolid Default
