solid OpenSCAD_Model
  facet normal -0.000000 0.000000 -1.000000
    outer loop
      vertex -12.000000 0.000000 0.000000
      vertex -11.737771 2.494940 0.000000
      vertex -11.737771 -2.494940 0.000000
    endloop
  endfacet
  facet normal 0.000000 -0.000000 -1.000000
    outer loop
      vertex -11.737771 -2.494940 0.000000
      vertex -11.737771 2.494940 0.000000
      vertex -10.962545 4.880840 0.000000
    endloop
  endfacet
  facet normal 0.000000 0.000000 -1.000000
    outer loop
      vertex -11.737771 -2.494940 0.000000
      vertex -10.962545 4.880840 0.000000
      vertex -9.708204 7.053423 0.000000
    endloop
  endfacet
  facet normal 0.000000 0.000000 -1.000000
    outer loop
      vertex -11.737771 -2.494940 0.000000
      vertex -9.708204 7.053423 0.000000
      vertex -8.029567 8.917738 0.000000
    endloop
  endfacet
  facet normal 0.000000 0.000000 -1.000000
    outer loop
      vertex -11.737771 -2.494940 0.000000
      vertex -8.029567 8.917738 0.000000
      vertex -6.000000 10.392305 0.000000
    endloop
  endfacet
  facet normal 0.000000 0.000000 -1.000000
    outer loop
      vertex -11.737771 -2.494940 0.000000
      vertex -6.000000 10.392305 0.000000
      vertex -3.708204 11.412678 0.000000
    endloop
  endfacet
  facet normal 0.000000 0.000000 -1.000000
    outer loop
      vertex -5.362012 6.723751 0.000000
      vertex -3.708204 11.412678 0.000000
      vertex -1.254342 11.934263 0.000000
    endloop
  endfacet
  facet normal 0.000000 0.000000 -1.000000
    outer loop
      vertex -3.731400 7.748332 0.000000
      vertex -1.254342 11.934263 0.000000
      vertex 1.254342 11.934263 0.000000
    endloop
  endfacet
  facet normal 0.000000 0.000000 -1.000000
    outer loop
      vertex 0.000000 8.600000 0.000000
      vertex 1.254342 11.934263 0.000000
      vertex 3.708204 11.412678 0.000000
    endloop
  endfacet
  facet normal 0.000000 0.000000 -1.000000
    outer loop
      vertex 1.913680 8.384380 0.000000
      vertex 3.708204 11.412678 0.000000
      vertex 6.000000 10.392305 0.000000
    endloop
  endfacet
  facet normal 0.000000 0.000000 -1.000000
    outer loop
      vertex 3.731400 7.748332 0.000000
      vertex 6.000000 10.392305 0.000000
      vertex 8.029567 8.917738 0.000000
    endloop
  endfacet
  facet normal 0.000000 0.000000 -1.000000
    outer loop
      vertex 5.362012 6.723751 0.000000
      vertex 8.029567 8.917738 0.000000
      vertex 9.708204 7.053423 0.000000
    endloop
  endfacet
  facet normal -0.000000 0.000000 -1.000000
    outer loop
      vertex 6.723751 5.362012 0.000000
      vertex 9.708204 7.053423 0.000000
      vertex 10.962545 4.880840 0.000000
    endloop
  endfacet
  facet normal 0.000000 0.000000 -1.000000
    outer loop
      vertex 8.384380 1.913680 0.000000
      vertex 10.962545 4.880840 0.000000
      vertex 11.737771 2.494940 0.000000
    endloop
  endfacet
  facet normal -0.000000 0.000000 -1.000000
    outer loop
      vertex 8.600000 0.000000 0.000000
      vertex 11.737771 2.494940 0.000000
      vertex 12.000000 0.000000 0.000000
    endloop
  endfacet
  facet normal -0.000000 0.000000 -1.000000
    outer loop
      vertex 8.384380 -1.913680 0.000000
      vertex 12.000000 0.000000 0.000000
      vertex 11.737771 -2.494940 0.000000
    endloop
  endfacet
  facet normal -0.000000 0.000000 -1.000000
    outer loop
      vertex 7.748332 -3.731400 0.000000
      vertex 11.737771 -2.494940 0.000000
      vertex 10.962545 -4.880840 0.000000
    endloop
  endfacet
  facet normal -0.000000 0.000000 -1.000000
    outer loop
      vertex 6.723751 -5.362012 0.000000
      vertex 10.962545 -4.880840 0.000000
      vertex 9.708204 -7.053423 0.000000
    endloop
  endfacet
  facet normal -0.000000 0.000000 -1.000000
    outer loop
      vertex 4.000000 -7.579560 0.000000
      vertex 9.708204 -7.053423 0.000000
      vertex 8.029567 -8.917738 0.000000
    endloop
  endfacet
  facet normal 0.000000 0.000000 -1.000000
    outer loop
      vertex 1.913680 -8.384380 0.000000
      vertex 8.029567 -8.917738 0.000000
      vertex 6.000000 -10.392305 0.000000
    endloop
  endfacet
  facet normal 0.000000 0.000000 -1.000000
    outer loop
      vertex 0.000000 -8.600000 0.000000
      vertex 6.000000 -10.392305 0.000000
      vertex 3.708204 -11.412678 0.000000
    endloop
  endfacet
  facet normal 0.000000 0.000000 -1.000000
    outer loop
      vertex -11.737771 -2.494940 0.000000
      vertex 1.254342 -11.934263 0.000000
      vertex -1.254342 -11.934263 0.000000
    endloop
  endfacet
  facet normal 0.000000 0.000000 -1.000000
    outer loop
      vertex -11.737771 -2.494940 0.000000
      vertex -1.254342 -11.934263 0.000000
      vertex -3.708204 -11.412678 0.000000
    endloop
  endfacet
  facet normal 0.000000 0.000000 -1.000000
    outer loop
      vertex -11.737771 -2.494940 0.000000
      vertex -3.708204 -11.412678 0.000000
      vertex -6.000000 -10.392305 0.000000
    endloop
  endfacet
  facet normal 0.000000 0.000000 -1.000000
    outer loop
      vertex -11.737771 -2.494940 0.000000
      vertex -6.000000 -10.392305 0.000000
      vertex -8.029567 -8.917738 0.000000
    endloop
  endfacet
  facet normal 0.000000 0.000000 -1.000000
    outer loop
      vertex -11.737771 -2.494940 0.000000
      vertex -8.029567 -8.917738 0.000000
      vertex -9.708204 -7.053423 0.000000
    endloop
  endfacet
  facet normal 0.000000 0.000000 -1.000000
    outer loop
      vertex -11.737771 -2.494940 0.000000
      vertex -9.708204 -7.053423 0.000000
      vertex -10.962545 -4.880840 0.000000
    endloop
  endfacet
  facet normal 0.000000 0.000000 -1.000000
    outer loop
      vertex -8.384380 -1.913680 0.000000
      vertex -11.737771 -2.494940 0.000000
      vertex -8.600000 0.000000 0.000000
    endloop
  endfacet
  facet normal 0.000000 0.000000 -1.000000
    outer loop
      vertex -7.748332 -3.731400 0.000000
      vertex -11.737771 -2.494940 0.000000
      vertex -8.384380 -1.913680 0.000000
    endloop
  endfacet
  facet normal 0.000000 0.000000 -1.000000
    outer loop
      vertex -6.723751 -5.362012 0.000000
      vertex -11.737771 -2.494940 0.000000
      vertex -7.748332 -3.731400 0.000000
    endloop
  endfacet
  facet normal 0.000000 0.000000 -1.000000
    outer loop
      vertex -5.362012 -6.723751 0.000000
      vertex -11.737771 -2.494940 0.000000
      vertex -6.723751 -5.362012 0.000000
    endloop
  endfacet
  facet normal 0.000000 0.000000 -1.000000
    outer loop
      vertex 0.000000 -8.600000 0.000000
      vertex 3.708204 -11.412678 0.000000
      vertex -1.913680 -8.384380 0.000000
    endloop
  endfacet
  facet normal 0.000000 0.000000 -1.000000
    outer loop
      vertex -2.998239 -8.004876 0.000000
      vertex 3.708204 -11.412678 0.000000
      vertex 1.254342 -11.934263 0.000000
    endloop
  endfacet
  facet normal 0.000000 0.000000 -1.000000
    outer loop
      vertex -1.913680 -8.384380 0.000000
      vertex 3.708204 -11.412678 0.000000
      vertex -2.998239 -8.004876 0.000000
    endloop
  endfacet
  facet normal 0.000000 0.000000 -1.000000
    outer loop
      vertex -2.998239 -8.004876 0.000000
      vertex 1.254342 -11.934263 0.000000
      vertex -4.000000 -8.004876 0.000000
    endloop
  endfacet
  facet normal 0.000000 0.000000 -1.000000
    outer loop
      vertex -11.737771 -2.494940 0.000000
      vertex -5.362012 -6.723751 0.000000
      vertex -4.000000 -8.004876 0.000000
    endloop
  endfacet
  facet normal 0.000000 0.000000 -1.000000
    outer loop
      vertex -11.737771 -2.494940 0.000000
      vertex -4.000000 -8.004876 0.000000
      vertex 1.254342 -11.934263 0.000000
    endloop
  endfacet
  facet normal 0.000000 0.000000 -1.000000
    outer loop
      vertex -4.000000 -8.004876 0.000000
      vertex -5.362012 -6.723751 0.000000
      vertex -4.000000 -7.579560 0.000000
    endloop
  endfacet
  facet normal 0.000000 0.000000 -1.000000
    outer loop
      vertex 1.913680 -8.384380 0.000000
      vertex 6.000000 -10.392305 0.000000
      vertex 0.000000 -8.600000 0.000000
    endloop
  endfacet
  facet normal 0.000000 0.000000 -1.000000
    outer loop
      vertex 2.998239 -8.004876 0.000000
      vertex 8.029567 -8.917738 0.000000
      vertex 1.913680 -8.384380 0.000000
    endloop
  endfacet
  facet normal 0.000000 0.000000 -1.000000
    outer loop
      vertex 4.000000 -8.004876 0.000000
      vertex 8.029567 -8.917738 0.000000
      vertex 2.998239 -8.004876 0.000000
    endloop
  endfacet
  facet normal 0.000000 0.000000 -1.000000
    outer loop
      vertex 5.362012 -6.723751 0.000000
      vertex 9.708204 -7.053423 0.000000
      vertex 4.000000 -7.579560 0.000000
    endloop
  endfacet
  facet normal 0.000000 0.000000 -1.000000
    outer loop
      vertex 6.723751 -5.362012 0.000000
      vertex 9.708204 -7.053423 0.000000
      vertex 5.362012 -6.723751 0.000000
    endloop
  endfacet
  facet normal 0.000000 0.000000 -1.000000
    outer loop
      vertex 4.000000 -7.579560 0.000000
      vertex 8.029567 -8.917738 0.000000
      vertex 4.000000 -8.004876 0.000000
    endloop
  endfacet
  facet normal -0.000000 0.000000 -1.000000
    outer loop
      vertex 8.384380 1.913680 0.000000
      vertex 11.737771 2.494940 0.000000
      vertex 8.600000 0.000000 0.000000
    endloop
  endfacet
  facet normal -0.000000 0.000000 -1.000000
    outer loop
      vertex 7.748332 3.731400 0.000000
      vertex 10.962545 4.880840 0.000000
      vertex 8.384380 1.913680 0.000000
    endloop
  endfacet
  facet normal 0.000000 0.000000 -1.000000
    outer loop
      vertex 8.600000 0.000000 0.000000
      vertex 12.000000 0.000000 0.000000
      vertex 8.384380 -1.913680 0.000000
    endloop
  endfacet
  facet normal 0.000000 0.000000 -1.000000
    outer loop
      vertex 8.384380 -1.913680 0.000000
      vertex 11.737771 -2.494940 0.000000
      vertex 7.748332 -3.731400 0.000000
    endloop
  endfacet
  facet normal 0.000000 0.000000 -1.000000
    outer loop
      vertex 7.748332 -3.731400 0.000000
      vertex 10.962545 -4.880840 0.000000
      vertex 6.723751 -5.362012 0.000000
    endloop
  endfacet
  facet normal -0.000000 0.000000 -1.000000
    outer loop
      vertex 0.000000 8.600000 0.000000
      vertex 3.708204 11.412678 0.000000
      vertex 1.913680 8.384380 0.000000
    endloop
  endfacet
  facet normal 0.000000 0.000000 -1.000000
    outer loop
      vertex -1.913680 8.384380 0.000000
      vertex 1.254342 11.934263 0.000000
      vertex 0.000000 8.600000 0.000000
    endloop
  endfacet
  facet normal -0.000000 0.000000 -1.000000
    outer loop
      vertex 1.913680 8.384380 0.000000
      vertex 6.000000 10.392305 0.000000
      vertex 3.731400 7.748332 0.000000
    endloop
  endfacet
  facet normal -0.000000 0.000000 -1.000000
    outer loop
      vertex 3.731400 7.748332 0.000000
      vertex 8.029567 8.917738 0.000000
      vertex 5.362012 6.723751 0.000000
    endloop
  endfacet
  facet normal 0.000000 0.000000 -1.000000
    outer loop
      vertex -6.723751 5.362012 0.000000
      vertex -3.708204 11.412678 0.000000
      vertex -5.362012 6.723751 0.000000
    endloop
  endfacet
  facet normal 0.000000 -0.000000 -1.000000
    outer loop
      vertex -8.384380 1.913680 0.000000
      vertex -11.737771 -2.494940 0.000000
      vertex -7.748332 3.731400 0.000000
    endloop
  endfacet
  facet normal 0.000000 0.000000 -1.000000
    outer loop
      vertex -11.737771 -2.494940 0.000000
      vertex -3.708204 11.412678 0.000000
      vertex -6.723751 5.362012 0.000000
    endloop
  endfacet
  facet normal 0.000000 0.000000 -1.000000
    outer loop
      vertex -11.737771 -2.494940 0.000000
      vertex -6.723751 5.362012 0.000000
      vertex -7.748332 3.731400 0.000000
    endloop
  endfacet
  facet normal 0.000000 -0.000000 -1.000000
    outer loop
      vertex -8.600000 0.000000 0.000000
      vertex -11.737771 -2.494940 0.000000
      vertex -8.384380 1.913680 0.000000
    endloop
  endfacet
  facet normal 0.000000 0.000000 -1.000000
    outer loop
      vertex -5.362012 6.723751 0.000000
      vertex -1.254342 11.934263 0.000000
      vertex -3.731400 7.748332 0.000000
    endloop
  endfacet
  facet normal 0.000000 0.000000 -1.000000
    outer loop
      vertex -3.731400 7.748332 0.000000
      vertex 1.254342 11.934263 0.000000
      vertex -1.913680 8.384380 0.000000
    endloop
  endfacet
  facet normal -0.000000 0.000000 -1.000000
    outer loop
      vertex 5.362012 6.723751 0.000000
      vertex 9.708204 7.053423 0.000000
      vertex 6.723751 5.362012 0.000000
    endloop
  endfacet
  facet normal 0.000000 0.000000 -1.000000
    outer loop
      vertex 6.723751 5.362012 0.000000
      vertex 10.962545 4.880840 0.000000
      vertex 7.748332 3.731400 0.000000
    endloop
  endfacet
  facet normal -0.994522 0.104529 0.000000
    outer loop
      vertex -12.000000 0.000000 0.000000
      vertex -12.000000 0.000000 15.000000
      vertex -11.737771 2.494940 0.000000
    endloop
  endfacet
  facet normal -0.994522 0.104529 0.000000
    outer loop
      vertex -11.737771 2.494940 0.000000
      vertex -12.000000 0.000000 15.000000
      vertex -11.737771 2.494940 15.000000
    endloop
  endfacet
  facet normal -0.994522 -0.104529 -0.000000
    outer loop
      vertex -12.000000 0.000000 0.000000
      vertex -11.737771 -2.494940 0.000000
      vertex -12.000000 0.000000 15.000000
    endloop
  endfacet
  facet normal -0.994522 -0.104529 0.000000
    outer loop
      vertex -12.000000 0.000000 15.000000
      vertex -11.737771 -2.494940 0.000000
      vertex -11.737771 -2.494940 15.000000
    endloop
  endfacet
  facet normal -0.951057 -0.309017 -0.000000
    outer loop
      vertex -11.737771 -2.494940 0.000000
      vertex -10.962545 -4.880840 0.000000
      vertex -11.737771 -2.494940 15.000000
    endloop
  endfacet
  facet normal -0.951057 -0.309017 0.000000
    outer loop
      vertex -11.086287 -4.500000 15.000000
      vertex -10.962545 -4.880840 0.000000
      vertex -10.962545 -4.880840 30.000000
    endloop
  endfacet
  facet normal -0.951057 -0.309017 0.000000
    outer loop
      vertex -11.737771 -2.494940 15.000000
      vertex -10.962545 -4.880840 0.000000
      vertex -11.086287 -4.500000 15.000000
    endloop
  endfacet
  facet normal -0.951057 -0.309017 -0.000000
    outer loop
      vertex -11.086287 -4.500000 15.000000
      vertex -10.962545 -4.880840 30.000000
      vertex -11.086287 -4.500000 30.000000
    endloop
  endfacet
  facet normal -0.866025 -0.500000 -0.000000
    outer loop
      vertex -10.962545 -4.880840 0.000000
      vertex -9.708204 -7.053423 0.000000
      vertex -10.962545 -4.880840 30.000000
    endloop
  endfacet
  facet normal -0.866025 -0.500000 0.000000
    outer loop
      vertex -10.962545 -4.880840 30.000000
      vertex -9.708204 -7.053423 0.000000
      vertex -9.708204 -7.053423 30.000000
    endloop
  endfacet
  facet normal -0.743145 -0.669131 -0.000000
    outer loop
      vertex -9.708204 -7.053423 0.000000
      vertex -8.029567 -8.917738 0.000000
      vertex -9.708204 -7.053423 30.000000
    endloop
  endfacet
  facet normal -0.743145 -0.669131 0.000000
    outer loop
      vertex -9.708204 -7.053423 30.000000
      vertex -8.029567 -8.917738 0.000000
      vertex -8.029567 -8.917738 30.000000
    endloop
  endfacet
  facet normal -0.587785 -0.809017 0.000000
    outer loop
      vertex -8.029567 -8.917738 30.000000
      vertex -8.029567 -8.917738 0.000000
      vertex -6.000000 -10.392305 0.000000
    endloop
  endfacet
  facet normal -0.587785 -0.809017 0.000000
    outer loop
      vertex -6.000000 -10.392305 30.000000
      vertex -8.029567 -8.917738 30.000000
      vertex -6.000000 -10.392305 0.000000
    endloop
  endfacet
  facet normal -0.406737 -0.913546 0.000000
    outer loop
      vertex -6.000000 -10.392305 30.000000
      vertex -6.000000 -10.392305 0.000000
      vertex -3.708204 -11.412678 0.000000
    endloop
  endfacet
  facet normal -0.406737 -0.913546 0.000000
    outer loop
      vertex -3.708204 -11.412678 30.000000
      vertex -6.000000 -10.392305 30.000000
      vertex -3.708204 -11.412678 0.000000
    endloop
  endfacet
  facet normal -0.207912 -0.978148 0.000000
    outer loop
      vertex -3.708204 -11.412678 30.000000
      vertex -3.708204 -11.412678 0.000000
      vertex -1.254342 -11.934263 0.000000
    endloop
  endfacet
  facet normal -0.207912 -0.978148 0.000000
    outer loop
      vertex -1.254342 -11.934263 30.000000
      vertex -3.708204 -11.412678 30.000000
      vertex -1.254342 -11.934263 0.000000
    endloop
  endfacet
  facet normal 0.000000 -1.000000 0.000000
    outer loop
      vertex -1.254342 -11.934263 30.000000
      vertex -1.254342 -11.934263 0.000000
      vertex 1.254342 -11.934263 0.000000
    endloop
  endfacet
  facet normal 0.000000 -1.000000 0.000000
    outer loop
      vertex 1.254342 -11.934263 30.000000
      vertex -1.254342 -11.934263 30.000000
      vertex 1.254342 -11.934263 0.000000
    endloop
  endfacet
  facet normal 0.207912 -0.978148 0.000000
    outer loop
      vertex 1.254342 -11.934263 30.000000
      vertex 1.254342 -11.934263 0.000000
      vertex 3.708204 -11.412678 0.000000
    endloop
  endfacet
  facet normal 0.207912 -0.978148 0.000000
    outer loop
      vertex 3.708204 -11.412678 30.000000
      vertex 1.254342 -11.934263 30.000000
      vertex 3.708204 -11.412678 0.000000
    endloop
  endfacet
  facet normal 0.406737 -0.913546 0.000000
    outer loop
      vertex 3.708204 -11.412678 30.000000
      vertex 3.708204 -11.412678 0.000000
      vertex 6.000000 -10.392305 0.000000
    endloop
  endfacet
  facet normal 0.406737 -0.913546 0.000000
    outer loop
      vertex 6.000000 -10.392305 30.000000
      vertex 3.708204 -11.412678 30.000000
      vertex 6.000000 -10.392305 0.000000
    endloop
  endfacet
  facet normal 0.587785 -0.809017 0.000000
    outer loop
      vertex 6.000000 -10.392305 30.000000
      vertex 6.000000 -10.392305 0.000000
      vertex 8.029567 -8.917738 0.000000
    endloop
  endfacet
  facet normal 0.587785 -0.809017 0.000000
    outer loop
      vertex 8.029567 -8.917738 30.000000
      vertex 6.000000 -10.392305 30.000000
      vertex 8.029567 -8.917738 0.000000
    endloop
  endfacet
  facet normal 0.743145 -0.669131 0.000000
    outer loop
      vertex 8.029567 -8.917738 30.000000
      vertex 8.029567 -8.917738 0.000000
      vertex 9.708204 -7.053423 0.000000
    endloop
  endfacet
  facet normal 0.743145 -0.669131 0.000000
    outer loop
      vertex 9.708204 -7.053423 30.000000
      vertex 8.029567 -8.917738 30.000000
      vertex 9.708204 -7.053423 0.000000
    endloop
  endfacet
  facet normal 0.866025 -0.500000 0.000000
    outer loop
      vertex 9.708204 -7.053423 30.000000
      vertex 9.708204 -7.053423 0.000000
      vertex 10.962545 -4.880840 0.000000
    endloop
  endfacet
  facet normal 0.866025 -0.500000 0.000000
    outer loop
      vertex 10.962545 -4.880840 30.000000
      vertex 9.708204 -7.053423 30.000000
      vertex 10.962545 -4.880840 0.000000
    endloop
  endfacet
  facet normal 0.951057 -0.309017 0.000000
    outer loop
      vertex 11.086287 -4.500000 15.000000
      vertex 10.962545 -4.880840 0.000000
      vertex 11.737771 -2.494940 0.000000
    endloop
  endfacet
  facet normal 0.951057 -0.309017 0.000000
    outer loop
      vertex 11.086287 -4.500000 15.000000
      vertex 11.086287 -4.500000 30.000000
      vertex 10.962545 -4.880840 30.000000
    endloop
  endfacet
  facet normal 0.951057 -0.309017 0.000000
    outer loop
      vertex 10.962545 -4.880840 30.000000
      vertex 10.962545 -4.880840 0.000000
      vertex 11.086287 -4.500000 15.000000
    endloop
  endfacet
  facet normal 0.951057 -0.309017 0.000000
    outer loop
      vertex 11.737771 -2.494940 15.000000
      vertex 11.086287 -4.500000 15.000000
      vertex 11.737771 -2.494940 0.000000
    endloop
  endfacet
  facet normal 0.994522 -0.104529 0.000000
    outer loop
      vertex 11.737771 -2.494940 15.000000
      vertex 11.737771 -2.494940 0.000000
      vertex 12.000000 0.000000 0.000000
    endloop
  endfacet
  facet normal 0.994522 -0.104529 0.000000
    outer loop
      vertex 12.000000 0.000000 15.000000
      vertex 11.737771 -2.494940 15.000000
      vertex 12.000000 0.000000 0.000000
    endloop
  endfacet
  facet normal 0.994522 0.104529 0.000000
    outer loop
      vertex 12.000000 0.000000 0.000000
      vertex 11.737771 2.494940 0.000000
      vertex 11.737771 2.494940 15.000000
    endloop
  endfacet
  facet normal 0.994522 0.104529 -0.000000
    outer loop
      vertex 12.000000 0.000000 15.000000
      vertex 12.000000 0.000000 0.000000
      vertex 11.737771 2.494940 15.000000
    endloop
  endfacet
  facet normal 0.951057 0.309017 0.000000
    outer loop
      vertex 11.737771 2.494940 0.000000
      vertex 10.962545 4.880840 0.000000
      vertex 10.962545 4.880840 15.000000
    endloop
  endfacet
  facet normal 0.951057 0.309017 -0.000000
    outer loop
      vertex 11.737771 2.494940 15.000000
      vertex 11.737771 2.494940 0.000000
      vertex 10.962545 4.880840 15.000000
    endloop
  endfacet
  facet normal 0.866025 0.500000 0.000000
    outer loop
      vertex 10.962545 4.880840 0.000000
      vertex 9.708204 7.053423 0.000000
      vertex 9.708204 7.053423 15.000000
    endloop
  endfacet
  facet normal 0.866025 0.500000 -0.000000
    outer loop
      vertex 10.962545 4.880840 15.000000
      vertex 10.962545 4.880840 0.000000
      vertex 9.708204 7.053423 15.000000
    endloop
  endfacet
  facet normal 0.743145 0.669131 0.000000
    outer loop
      vertex 9.708204 7.053423 0.000000
      vertex 8.029567 8.917738 0.000000
      vertex 8.029567 8.917738 15.000000
    endloop
  endfacet
  facet normal 0.743145 0.669131 -0.000000
    outer loop
      vertex 9.708204 7.053423 15.000000
      vertex 9.708204 7.053423 0.000000
      vertex 8.029567 8.917738 15.000000
    endloop
  endfacet
  facet normal 0.587785 0.809017 0.000000
    outer loop
      vertex 6.000000 10.392305 0.000000
      vertex 6.000000 10.392305 15.000000
      vertex 8.029567 8.917738 0.000000
    endloop
  endfacet
  facet normal 0.587785 0.809017 0.000000
    outer loop
      vertex 8.029567 8.917738 0.000000
      vertex 6.000000 10.392305 15.000000
      vertex 8.029567 8.917738 15.000000
    endloop
  endfacet
  facet normal 0.406737 0.913546 0.000000
    outer loop
      vertex 3.708204 11.412678 0.000000
      vertex 3.708204 11.412678 15.000000
      vertex 6.000000 10.392305 0.000000
    endloop
  endfacet
  facet normal 0.406737 0.913546 0.000000
    outer loop
      vertex 6.000000 10.392305 0.000000
      vertex 3.708204 11.412678 15.000000
      vertex 6.000000 10.392305 15.000000
    endloop
  endfacet
  facet normal 0.207912 0.978148 0.000000
    outer loop
      vertex 1.254342 11.934263 0.000000
      vertex 1.254342 11.934263 15.000000
      vertex 3.708204 11.412678 0.000000
    endloop
  endfacet
  facet normal 0.207912 0.978148 0.000000
    outer loop
      vertex 3.708204 11.412678 0.000000
      vertex 1.254342 11.934263 15.000000
      vertex 3.708204 11.412678 15.000000
    endloop
  endfacet
  facet normal 0.000000 1.000000 0.000000
    outer loop
      vertex -1.254342 11.934263 0.000000
      vertex -1.254342 11.934263 15.000000
      vertex 1.254342 11.934263 0.000000
    endloop
  endfacet
  facet normal 0.000000 1.000000 0.000000
    outer loop
      vertex 1.254342 11.934263 0.000000
      vertex -1.254342 11.934263 15.000000
      vertex 1.254342 11.934263 15.000000
    endloop
  endfacet
  facet normal -0.207912 0.978148 0.000000
    outer loop
      vertex -3.708204 11.412678 0.000000
      vertex -3.708204 11.412678 15.000000
      vertex -1.254342 11.934263 0.000000
    endloop
  endfacet
  facet normal -0.207912 0.978148 0.000000
    outer loop
      vertex -1.254342 11.934263 0.000000
      vertex -3.708204 11.412678 15.000000
      vertex -1.254342 11.934263 15.000000
    endloop
  endfacet
  facet normal -0.406737 0.913546 0.000000
    outer loop
      vertex -6.000000 10.392305 0.000000
      vertex -6.000000 10.392305 15.000000
      vertex -3.708204 11.412678 0.000000
    endloop
  endfacet
  facet normal -0.406737 0.913546 0.000000
    outer loop
      vertex -3.708204 11.412678 0.000000
      vertex -6.000000 10.392305 15.000000
      vertex -3.708204 11.412678 15.000000
    endloop
  endfacet
  facet normal -0.587785 0.809017 0.000000
    outer loop
      vertex -8.029567 8.917738 0.000000
      vertex -8.029567 8.917738 15.000000
      vertex -6.000000 10.392305 0.000000
    endloop
  endfacet
  facet normal -0.587785 0.809017 0.000000
    outer loop
      vertex -6.000000 10.392305 0.000000
      vertex -8.029567 8.917738 15.000000
      vertex -6.000000 10.392305 15.000000
    endloop
  endfacet
  facet normal -0.743145 0.669131 0.000000
    outer loop
      vertex -9.708204 7.053423 0.000000
      vertex -9.708204 7.053423 15.000000
      vertex -8.029567 8.917738 0.000000
    endloop
  endfacet
  facet normal -0.743145 0.669131 0.000000
    outer loop
      vertex -8.029567 8.917738 0.000000
      vertex -9.708204 7.053423 15.000000
      vertex -8.029567 8.917738 15.000000
    endloop
  endfacet
  facet normal -0.866025 0.500000 0.000000
    outer loop
      vertex -10.962545 4.880840 0.000000
      vertex -10.962545 4.880840 15.000000
      vertex -9.708204 7.053423 0.000000
    endloop
  endfacet
  facet normal -0.866025 0.500000 0.000000
    outer loop
      vertex -9.708204 7.053423 0.000000
      vertex -10.962545 4.880840 15.000000
      vertex -9.708204 7.053423 15.000000
    endloop
  endfacet
  facet normal -0.951057 0.309017 0.000000
    outer loop
      vertex -11.737771 2.494940 0.000000
      vertex -11.737771 2.494940 15.000000
      vertex -10.962545 4.880840 0.000000
    endloop
  endfacet
  facet normal -0.951057 0.309017 0.000000
    outer loop
      vertex -10.962545 4.880840 0.000000
      vertex -11.737771 2.494940 15.000000
      vertex -10.962545 4.880840 15.000000
    endloop
  endfacet
  facet normal 0.993712 -0.111965 0.000000
    outer loop
      vertex -8.384380 1.913680 0.000000
      vertex -8.384380 1.913680 5.000000
      vertex -8.600000 0.000000 5.000000
    endloop
  endfacet
  facet normal 0.993712 -0.111965 0.000000
    outer loop
      vertex -8.600000 0.000000 0.000000
      vertex -8.384380 1.913680 0.000000
      vertex -8.600000 0.000000 5.000000
    endloop
  endfacet
  facet normal 0.993712 0.111965 0.000000
    outer loop
      vertex -8.600000 0.000000 5.000000
      vertex -8.384380 -1.913680 5.000000
      vertex -8.384380 -1.913680 0.000000
    endloop
  endfacet
  facet normal 0.993712 0.111965 0.000000
    outer loop
      vertex -8.600000 0.000000 0.000000
      vertex -8.600000 0.000000 5.000000
      vertex -8.384380 -1.913680 0.000000
    endloop
  endfacet
  facet normal 0.943883 -0.330279 0.000000
    outer loop
      vertex -7.748332 3.731400 0.000000
      vertex -7.748332 3.731400 5.000000
      vertex -8.384380 1.913680 5.000000
    endloop
  endfacet
  facet normal 0.943883 -0.330279 0.000000
    outer loop
      vertex -8.384380 1.913680 0.000000
      vertex -7.748332 3.731400 0.000000
      vertex -8.384380 1.913680 5.000000
    endloop
  endfacet
  facet normal 0.846724 -0.532032 0.000000
    outer loop
      vertex -6.723751 5.362012 0.000000
      vertex -6.723751 5.362012 5.000000
      vertex -7.748332 3.731400 5.000000
    endloop
  endfacet
  facet normal 0.846724 -0.532032 0.000000
    outer loop
      vertex -7.748332 3.731400 0.000000
      vertex -6.723751 5.362012 0.000000
      vertex -7.748332 3.731400 5.000000
    endloop
  endfacet
  facet normal 0.707107 -0.707107 0.000000
    outer loop
      vertex -5.362012 6.723751 0.000000
      vertex -5.362012 6.723751 5.000000
      vertex -6.723751 5.362012 5.000000
    endloop
  endfacet
  facet normal 0.707107 -0.707107 0.000000
    outer loop
      vertex -6.723751 5.362012 0.000000
      vertex -5.362012 6.723751 0.000000
      vertex -6.723751 5.362012 5.000000
    endloop
  endfacet
  facet normal 0.532032 -0.846724 0.000000
    outer loop
      vertex -3.731400 7.748332 0.000000
      vertex -3.731400 7.748332 5.000000
      vertex -5.362012 6.723751 5.000000
    endloop
  endfacet
  facet normal 0.532032 -0.846724 0.000000
    outer loop
      vertex -5.362012 6.723751 0.000000
      vertex -3.731400 7.748332 0.000000
      vertex -5.362012 6.723751 5.000000
    endloop
  endfacet
  facet normal 0.330279 -0.943883 0.000000
    outer loop
      vertex -1.913680 8.384380 0.000000
      vertex -1.913680 8.384380 5.000000
      vertex -3.731400 7.748332 5.000000
    endloop
  endfacet
  facet normal 0.330279 -0.943883 0.000000
    outer loop
      vertex -3.731400 7.748332 0.000000
      vertex -1.913680 8.384380 0.000000
      vertex -3.731400 7.748332 5.000000
    endloop
  endfacet
  facet normal 0.111965 -0.993712 0.000000
    outer loop
      vertex 0.000000 8.600000 0.000000
      vertex 0.000000 8.600000 5.000000
      vertex -1.913680 8.384380 5.000000
    endloop
  endfacet
  facet normal 0.111965 -0.993712 0.000000
    outer loop
      vertex -1.913680 8.384380 0.000000
      vertex 0.000000 8.600000 0.000000
      vertex -1.913680 8.384380 5.000000
    endloop
  endfacet
  facet normal -0.111965 -0.993712 -0.000000
    outer loop
      vertex 1.913680 8.384380 0.000000
      vertex 1.913680 8.384380 5.000000
      vertex 0.000000 8.600000 5.000000
    endloop
  endfacet
  facet normal -0.111965 -0.993712 -0.000000
    outer loop
      vertex 0.000000 8.600000 0.000000
      vertex 1.913680 8.384380 0.000000
      vertex 0.000000 8.600000 5.000000
    endloop
  endfacet
  facet normal -0.330279 -0.943883 -0.000000
    outer loop
      vertex 3.731400 7.748332 0.000000
      vertex 3.731400 7.748332 5.000000
      vertex 1.913680 8.384380 5.000000
    endloop
  endfacet
  facet normal -0.330279 -0.943883 -0.000000
    outer loop
      vertex 1.913680 8.384380 0.000000
      vertex 3.731400 7.748332 0.000000
      vertex 1.913680 8.384380 5.000000
    endloop
  endfacet
  facet normal -0.532032 -0.846724 -0.000000
    outer loop
      vertex 5.362012 6.723751 0.000000
      vertex 5.362012 6.723751 5.000000
      vertex 3.731400 7.748332 5.000000
    endloop
  endfacet
  facet normal -0.532032 -0.846724 -0.000000
    outer loop
      vertex 3.731400 7.748332 0.000000
      vertex 5.362012 6.723751 0.000000
      vertex 3.731400 7.748332 5.000000
    endloop
  endfacet
  facet normal -0.707107 -0.707107 -0.000000
    outer loop
      vertex 6.723751 5.362012 0.000000
      vertex 6.723751 5.362012 5.000000
      vertex 5.362012 6.723751 5.000000
    endloop
  endfacet
  facet normal -0.707107 -0.707107 -0.000000
    outer loop
      vertex 5.362012 6.723751 0.000000
      vertex 6.723751 5.362012 0.000000
      vertex 5.362012 6.723751 5.000000
    endloop
  endfacet
  facet normal -0.846724 -0.532032 0.000000
    outer loop
      vertex 7.748332 3.731400 5.000000
      vertex 6.723751 5.362012 5.000000
      vertex 7.748332 3.731400 0.000000
    endloop
  endfacet
  facet normal -0.846724 -0.532032 0.000000
    outer loop
      vertex 7.748332 3.731400 0.000000
      vertex 6.723751 5.362012 5.000000
      vertex 6.723751 5.362012 0.000000
    endloop
  endfacet
  facet normal -0.943883 -0.330279 0.000000
    outer loop
      vertex 8.384380 1.913680 5.000000
      vertex 7.748332 3.731400 5.000000
      vertex 8.384380 1.913680 0.000000
    endloop
  endfacet
  facet normal -0.943883 -0.330279 0.000000
    outer loop
      vertex 8.384380 1.913680 0.000000
      vertex 7.748332 3.731400 5.000000
      vertex 7.748332 3.731400 0.000000
    endloop
  endfacet
  facet normal -0.993712 -0.111965 0.000000
    outer loop
      vertex 8.600000 0.000000 5.000000
      vertex 8.384380 1.913680 5.000000
      vertex 8.600000 0.000000 0.000000
    endloop
  endfacet
  facet normal -0.993712 -0.111965 0.000000
    outer loop
      vertex 8.600000 0.000000 0.000000
      vertex 8.384380 1.913680 5.000000
      vertex 8.384380 1.913680 0.000000
    endloop
  endfacet
  facet normal -0.993712 0.111965 0.000000
    outer loop
      vertex 8.600000 0.000000 5.000000
      vertex 8.600000 0.000000 0.000000
      vertex 8.384380 -1.913680 5.000000
    endloop
  endfacet
  facet normal -0.993712 0.111965 0.000000
    outer loop
      vertex 8.384380 -1.913680 5.000000
      vertex 8.600000 0.000000 0.000000
      vertex 8.384380 -1.913680 0.000000
    endloop
  endfacet
  facet normal -0.943883 0.330279 0.000000
    outer loop
      vertex 8.384380 -1.913680 5.000000
      vertex 8.384380 -1.913680 0.000000
      vertex 7.748332 -3.731400 5.000000
    endloop
  endfacet
  facet normal -0.943883 0.330279 0.000000
    outer loop
      vertex 7.748332 -3.731400 5.000000
      vertex 8.384380 -1.913680 0.000000
      vertex 7.748332 -3.731400 0.000000
    endloop
  endfacet
  facet normal -0.846724 0.532032 0.000000
    outer loop
      vertex 7.748332 -3.731400 5.000000
      vertex 7.748332 -3.731400 0.000000
      vertex 6.723751 -5.362012 5.000000
    endloop
  endfacet
  facet normal -0.846724 0.532032 0.000000
    outer loop
      vertex 6.723751 -5.362012 5.000000
      vertex 7.748332 -3.731400 0.000000
      vertex 6.723751 -5.362012 0.000000
    endloop
  endfacet
  facet normal -0.707107 0.707107 0.000000
    outer loop
      vertex 6.723751 -5.362012 5.000000
      vertex 6.723751 -5.362012 0.000000
      vertex 5.362012 -6.723751 5.000000
    endloop
  endfacet
  facet normal -0.707107 0.707107 0.000000
    outer loop
      vertex 5.362012 -6.723751 5.000000
      vertex 6.723751 -5.362012 0.000000
      vertex 5.362012 -6.723751 0.000000
    endloop
  endfacet
  facet normal -0.532032 0.846724 0.000000
    outer loop
      vertex 5.362012 -6.723751 5.000000
      vertex 5.362012 -6.723751 0.000000
      vertex 4.000000 -7.579560 5.000000
    endloop
  endfacet
  facet normal -0.532032 0.846724 0.000000
    outer loop
      vertex 4.000000 -7.579560 5.000000
      vertex 5.362012 -6.723751 0.000000
      vertex 4.000000 -7.579560 0.000000
    endloop
  endfacet
  facet normal -1.000000 0.000000 0.000000
    outer loop
      vertex 4.000000 -6.178261 5.000000
      vertex 4.000000 -7.579560 5.000000
      vertex 4.000000 -7.051280 30.000000
    endloop
  endfacet
  facet normal -1.000000 -0.000000 0.000000
    outer loop
      vertex 4.000000 -8.004876 0.000000
      vertex 4.000000 -7.579560 5.000000
      vertex 4.000000 -7.579560 0.000000
    endloop
  endfacet
  facet normal -1.000000 0.000000 0.000000
    outer loop
      vertex 4.000000 -7.051280 30.000000
      vertex 4.000000 -7.579560 5.000000
      vertex 4.000000 -8.004876 0.000000
    endloop
  endfacet
  facet normal -1.000000 0.000000 0.000000
    outer loop
      vertex 4.000000 -7.051280 30.000000
      vertex 4.000000 -8.004876 0.000000
      vertex 4.000000 -9.052499 30.000000
    endloop
  endfacet
  facet normal -0.000000 0.999391 0.034899
    outer loop
      vertex 4.000000 -8.004876 0.000000
      vertex 2.998239 -8.004876 0.000000
      vertex 4.000000 -9.052499 30.000000
    endloop
  endfacet
  facet normal -0.000000 0.999391 0.034899
    outer loop
      vertex 4.000000 -9.052499 30.000000
      vertex 2.998239 -8.004876 0.000000
      vertex 2.499250 -8.179480 5.000000
    endloop
  endfacet
  facet normal 0.000000 0.999391 0.034899
    outer loop
      vertex 4.000000 -9.052499 30.000000
      vertex 2.499250 -8.179480 5.000000
      vertex -2.499250 -8.179480 5.000000
    endloop
  endfacet
  facet normal 0.000000 0.999391 0.034899
    outer loop
      vertex -2.499250 -8.179480 5.000000
      vertex -2.998239 -8.004876 0.000000
      vertex -4.000000 -8.004876 0.000000
    endloop
  endfacet
  facet normal 0.000000 0.999391 0.034899
    outer loop
      vertex -2.499250 -8.179480 5.000000
      vertex -4.000000 -8.004876 0.000000
      vertex 4.000000 -9.052499 30.000000
    endloop
  endfacet
  facet normal -0.000000 0.999391 0.034899
    outer loop
      vertex 4.000000 -9.052499 30.000000
      vertex -4.000000 -8.004876 0.000000
      vertex -4.000000 -9.052499 30.000000
    endloop
  endfacet
  facet normal -0.330279 0.943883 -0.000000
    outer loop
      vertex 2.499250 -8.179480 5.000000
      vertex 2.998239 -8.004876 0.000000
      vertex 1.913680 -8.384380 5.000000
    endloop
  endfacet
  facet normal -0.330279 0.943883 0.000000
    outer loop
      vertex 1.913680 -8.384380 5.000000
      vertex 2.998239 -8.004876 0.000000
      vertex 1.913680 -8.384380 0.000000
    endloop
  endfacet
  facet normal -0.111965 0.993712 0.000000
    outer loop
      vertex 1.913680 -8.384380 5.000000
      vertex 1.913680 -8.384380 0.000000
      vertex 0.000000 -8.600000 5.000000
    endloop
  endfacet
  facet normal -0.111965 0.993712 0.000000
    outer loop
      vertex 0.000000 -8.600000 5.000000
      vertex 1.913680 -8.384380 0.000000
      vertex 0.000000 -8.600000 0.000000
    endloop
  endfacet
  facet normal 0.111965 0.993712 -0.000000
    outer loop
      vertex 0.000000 -8.600000 5.000000
      vertex 0.000000 -8.600000 0.000000
      vertex -1.913680 -8.384380 5.000000
    endloop
  endfacet
  facet normal 0.111965 0.993712 -0.000000
    outer loop
      vertex -1.913680 -8.384380 5.000000
      vertex 0.000000 -8.600000 0.000000
      vertex -1.913680 -8.384380 0.000000
    endloop
  endfacet
  facet normal 0.330279 0.943883 -0.000000
    outer loop
      vertex -1.913680 -8.384380 5.000000
      vertex -1.913680 -8.384380 0.000000
      vertex -2.499250 -8.179480 5.000000
    endloop
  endfacet
  facet normal 0.330279 0.943883 -0.000000
    outer loop
      vertex -2.499250 -8.179480 5.000000
      vertex -1.913680 -8.384380 0.000000
      vertex -2.998239 -8.004876 0.000000
    endloop
  endfacet
  facet normal 1.000000 0.000000 0.000000
    outer loop
      vertex -4.000000 -8.004876 0.000000
      vertex -4.000000 -7.579560 0.000000
      vertex -4.000000 -7.579560 5.000000
    endloop
  endfacet
  facet normal 1.000000 0.000000 0.000000
    outer loop
      vertex -4.000000 -7.051280 30.000000
      vertex -4.000000 -8.004876 0.000000
      vertex -4.000000 -7.579560 5.000000
    endloop
  endfacet
  facet normal 1.000000 -0.000000 0.000000
    outer loop
      vertex -4.000000 -6.178261 5.000000
      vertex -4.000000 -7.051280 30.000000
      vertex -4.000000 -7.579560 5.000000
    endloop
  endfacet
  facet normal 1.000000 0.000000 0.000000
    outer loop
      vertex -4.000000 -7.051280 30.000000
      vertex -4.000000 -9.052499 30.000000
      vertex -4.000000 -8.004876 0.000000
    endloop
  endfacet
  facet normal 0.532032 0.846724 -0.000000
    outer loop
      vertex -4.000000 -7.579560 5.000000
      vertex -4.000000 -7.579560 0.000000
      vertex -5.362012 -6.723751 5.000000
    endloop
  endfacet
  facet normal 0.532032 0.846724 -0.000000
    outer loop
      vertex -5.362012 -6.723751 5.000000
      vertex -4.000000 -7.579560 0.000000
      vertex -5.362012 -6.723751 0.000000
    endloop
  endfacet
  facet normal 0.707107 0.707107 -0.000000
    outer loop
      vertex -5.362012 -6.723751 5.000000
      vertex -5.362012 -6.723751 0.000000
      vertex -6.723751 -5.362012 5.000000
    endloop
  endfacet
  facet normal 0.707107 0.707107 -0.000000
    outer loop
      vertex -6.723751 -5.362012 5.000000
      vertex -5.362012 -6.723751 0.000000
      vertex -6.723751 -5.362012 0.000000
    endloop
  endfacet
  facet normal 0.846724 0.532032 0.000000
    outer loop
      vertex -7.748332 -3.731400 5.000000
      vertex -6.723751 -5.362012 5.000000
      vertex -6.723751 -5.362012 0.000000
    endloop
  endfacet
  facet normal 0.846724 0.532032 0.000000
    outer loop
      vertex -7.748332 -3.731400 0.000000
      vertex -7.748332 -3.731400 5.000000
      vertex -6.723751 -5.362012 0.000000
    endloop
  endfacet
  facet normal 0.943883 0.330279 0.000000
    outer loop
      vertex -8.384380 -1.913680 5.000000
      vertex -7.748332 -3.731400 5.000000
      vertex -7.748332 -3.731400 0.000000
    endloop
  endfacet
  facet normal 0.943883 0.330279 0.000000
    outer loop
      vertex -8.384380 -1.913680 0.000000
      vertex -8.384380 -1.913680 5.000000
      vertex -7.748332 -3.731400 0.000000
    endloop
  endfacet
  facet normal 0.000000 0.000000 1.000000
    outer loop
      vertex -11.737771 -2.494940 15.000000
      vertex -11.086287 -4.500000 15.000000
      vertex 11.086287 -4.500000 15.000000
    endloop
  endfacet
  facet normal 0.000000 0.000000 1.000000
    outer loop
      vertex 12.000000 0.000000 15.000000
      vertex -11.737771 -2.494940 15.000000
      vertex 11.737771 -2.494940 15.000000
    endloop
  endfacet
  facet normal 0.000000 0.000000 1.000000
    outer loop
      vertex 11.737771 -2.494940 15.000000
      vertex -11.737771 -2.494940 15.000000
      vertex 11.086287 -4.500000 15.000000
    endloop
  endfacet
  facet normal 0.000000 -0.000000 1.000000
    outer loop
      vertex 11.737771 2.494940 15.000000
      vertex -11.737771 -2.494940 15.000000
      vertex 12.000000 0.000000 15.000000
    endloop
  endfacet
  facet normal 0.000000 -0.000000 1.000000
    outer loop
      vertex 10.962545 4.880840 15.000000
      vertex -11.737771 -2.494940 15.000000
      vertex 11.737771 2.494940 15.000000
    endloop
  endfacet
  facet normal 0.000000 -0.000000 1.000000
    outer loop
      vertex 9.708204 7.053423 15.000000
      vertex -11.737771 -2.494940 15.000000
      vertex 10.962545 4.880840 15.000000
    endloop
  endfacet
  facet normal 0.000000 -0.000000 1.000000
    outer loop
      vertex 8.029567 8.917738 15.000000
      vertex -11.737771 -2.494940 15.000000
      vertex 9.708204 7.053423 15.000000
    endloop
  endfacet
  facet normal 0.000000 -0.000000 1.000000
    outer loop
      vertex 6.000000 10.392305 15.000000
      vertex -11.737771 -2.494940 15.000000
      vertex 8.029567 8.917738 15.000000
    endloop
  endfacet
  facet normal 0.000000 -0.000000 1.000000
    outer loop
      vertex 3.708204 11.412678 15.000000
      vertex -11.737771 -2.494940 15.000000
      vertex 6.000000 10.392305 15.000000
    endloop
  endfacet
  facet normal 0.000000 -0.000000 1.000000
    outer loop
      vertex 1.254342 11.934263 15.000000
      vertex -11.737771 -2.494940 15.000000
      vertex 3.708204 11.412678 15.000000
    endloop
  endfacet
  facet normal 0.000000 -0.000000 1.000000
    outer loop
      vertex -1.254342 11.934263 15.000000
      vertex -11.737771 -2.494940 15.000000
      vertex 1.254342 11.934263 15.000000
    endloop
  endfacet
  facet normal 0.000000 -0.000000 1.000000
    outer loop
      vertex -3.708204 11.412678 15.000000
      vertex -11.737771 -2.494940 15.000000
      vertex -1.254342 11.934263 15.000000
    endloop
  endfacet
  facet normal 0.000000 -0.000000 1.000000
    outer loop
      vertex -6.000000 10.392305 15.000000
      vertex -11.737771 -2.494940 15.000000
      vertex -3.708204 11.412678 15.000000
    endloop
  endfacet
  facet normal 0.000000 -0.000000 1.000000
    outer loop
      vertex -8.029567 8.917738 15.000000
      vertex -11.737771 -2.494940 15.000000
      vertex -6.000000 10.392305 15.000000
    endloop
  endfacet
  facet normal 0.000000 -0.000000 1.000000
    outer loop
      vertex -9.708204 7.053423 15.000000
      vertex -11.737771 -2.494940 15.000000
      vertex -8.029567 8.917738 15.000000
    endloop
  endfacet
  facet normal 0.000000 -0.000000 1.000000
    outer loop
      vertex -10.962545 4.880840 15.000000
      vertex -11.737771 -2.494940 15.000000
      vertex -9.708204 7.053423 15.000000
    endloop
  endfacet
  facet normal 0.000000 -0.000000 1.000000
    outer loop
      vertex -11.737771 2.494940 15.000000
      vertex -11.737771 -2.494940 15.000000
      vertex -10.962545 4.880840 15.000000
    endloop
  endfacet
  facet normal 0.000000 0.000000 1.000000
    outer loop
      vertex -12.000000 0.000000 15.000000
      vertex -11.737771 -2.494940 15.000000
      vertex -11.737771 2.494940 15.000000
    endloop
  endfacet
  facet normal 0.000000 1.000000 0.000000
    outer loop
      vertex 11.086287 -4.500000 30.000000
      vertex 11.086287 -4.500000 15.000000
      vertex -11.086287 -4.500000 30.000000
    endloop
  endfacet
  facet normal 0.000000 1.000000 -0.000000
    outer loop
      vertex -11.086287 -4.500000 30.000000
      vertex 11.086287 -4.500000 15.000000
      vertex -11.086287 -4.500000 15.000000
    endloop
  endfacet
  facet normal 0.000000 0.000000 1.000000
    outer loop
      vertex 11.086287 -4.500000 30.000000
      vertex -11.086287 -4.500000 30.000000
      vertex -10.962545 -4.880840 30.000000
    endloop
  endfacet
  facet normal -0.000000 0.000000 1.000000
    outer loop
      vertex -4.000000 -7.051280 30.000000
      vertex 11.086287 -4.500000 30.000000
      vertex -9.708204 -7.053423 30.000000
    endloop
  endfacet
  facet normal 0.000000 0.000000 1.000000
    outer loop
      vertex -9.708204 -7.053423 30.000000
      vertex 11.086287 -4.500000 30.000000
      vertex -10.962545 -4.880840 30.000000
    endloop
  endfacet
  facet normal 0.000000 0.000000 1.000000
    outer loop
      vertex -4.000000 -7.051280 30.000000
      vertex 4.000000 -7.051280 30.000000
      vertex 11.086287 -4.500000 30.000000
    endloop
  endfacet
  facet normal 0.000000 0.000000 1.000000
    outer loop
      vertex -4.000000 -9.052499 30.000000
      vertex -4.000000 -7.051280 30.000000
      vertex -8.029567 -8.917738 30.000000
    endloop
  endfacet
  facet normal -0.000000 0.000000 1.000000
    outer loop
      vertex 3.708204 -11.412678 30.000000
      vertex 11.086287 -4.500000 30.000000
      vertex 1.254342 -11.934263 30.000000
    endloop
  endfacet
  facet normal -0.000000 0.000000 1.000000
    outer loop
      vertex 6.000000 -10.392305 30.000000
      vertex 11.086287 -4.500000 30.000000
      vertex 3.708204 -11.412678 30.000000
    endloop
  endfacet
  facet normal -0.000000 0.000000 1.000000
    outer loop
      vertex 8.029567 -8.917738 30.000000
      vertex 11.086287 -4.500000 30.000000
      vertex 6.000000 -10.392305 30.000000
    endloop
  endfacet
  facet normal -0.000000 0.000000 1.000000
    outer loop
      vertex 9.708204 -7.053423 30.000000
      vertex 11.086287 -4.500000 30.000000
      vertex 8.029567 -8.917738 30.000000
    endloop
  endfacet
  facet normal -0.000000 0.000000 1.000000
    outer loop
      vertex 10.962545 -4.880840 30.000000
      vertex 11.086287 -4.500000 30.000000
      vertex 9.708204 -7.053423 30.000000
    endloop
  endfacet
  facet normal 0.000000 0.000000 1.000000
    outer loop
      vertex -6.000000 -10.392305 30.000000
      vertex -4.000000 -9.052499 30.000000
      vertex -8.029567 -8.917738 30.000000
    endloop
  endfacet
  facet normal 0.000000 0.000000 1.000000
    outer loop
      vertex -8.029567 -8.917738 30.000000
      vertex -4.000000 -7.051280 30.000000
      vertex -9.708204 -7.053423 30.000000
    endloop
  endfacet
  facet normal -0.000000 0.000000 1.000000
    outer loop
      vertex 1.254342 -11.934263 30.000000
      vertex 4.000000 -9.052499 30.000000
      vertex -1.254342 -11.934263 30.000000
    endloop
  endfacet
  facet normal 0.000000 0.000000 1.000000
    outer loop
      vertex 1.254342 -11.934263 30.000000
      vertex 11.086287 -4.500000 30.000000
      vertex 4.000000 -9.052499 30.000000
    endloop
  endfacet
  facet normal 0.000000 -0.000000 1.000000
    outer loop
      vertex 4.000000 -7.051280 30.000000
      vertex 4.000000 -9.052499 30.000000
      vertex 11.086287 -4.500000 30.000000
    endloop
  endfacet
  facet normal 0.000000 0.000000 1.000000
    outer loop
      vertex 4.000000 -9.052499 30.000000
      vertex -3.708204 -11.412678 30.000000
      vertex -1.254342 -11.934263 30.000000
    endloop
  endfacet
  facet normal 0.000000 0.000000 1.000000
    outer loop
      vertex 4.000000 -9.052499 30.000000
      vertex -6.000000 -10.392305 30.000000
      vertex -3.708204 -11.412678 30.000000
    endloop
  endfacet
  facet normal 0.000000 0.000000 1.000000
    outer loop
      vertex 4.000000 -9.052499 30.000000
      vertex -4.000000 -9.052499 30.000000
      vertex -6.000000 -10.392305 30.000000
    endloop
  endfacet
  facet normal -0.000000 0.000000 -1.000000
    outer loop
      vertex -7.748332 3.731400 5.000000
      vertex -6.723751 5.362012 5.000000
      vertex -8.384380 1.913680 5.000000
    endloop
  endfacet
  facet normal 0.000000 0.000000 -1.000000
    outer loop
      vertex -8.384380 1.913680 5.000000
      vertex -6.723751 5.362012 5.000000
      vertex -5.362012 6.723751 5.000000
    endloop
  endfacet
  facet normal 0.000000 0.000000 -1.000000
    outer loop
      vertex -8.384380 1.913680 5.000000
      vertex -5.362012 6.723751 5.000000
      vertex -3.731400 7.748332 5.000000
    endloop
  endfacet
  facet normal 0.000000 0.000000 -1.000000
    outer loop
      vertex -8.384380 1.913680 5.000000
      vertex -3.731400 7.748332 5.000000
      vertex -1.913680 8.384380 5.000000
    endloop
  endfacet
  facet normal 0.000000 0.000000 -1.000000
    outer loop
      vertex -8.384380 1.913680 5.000000
      vertex -1.913680 8.384380 5.000000
      vertex 0.000000 8.600000 5.000000
    endloop
  endfacet
  facet normal 0.000000 0.000000 -1.000000
    outer loop
      vertex -3.200000 5.542563 5.000000
      vertex 0.000000 8.600000 5.000000
      vertex 1.913680 8.384380 5.000000
    endloop
  endfacet
  facet normal 0.000000 0.000000 -1.000000
    outer loop
      vertex 0.478273 6.382104 5.000000
      vertex 1.913680 8.384380 5.000000
      vertex 3.731400 7.748332 5.000000
    endloop
  endfacet
  facet normal 0.000000 0.000000 -1.000000
    outer loop
      vertex 2.338183 5.957592 5.000000
      vertex 3.731400 7.748332 5.000000
      vertex 5.362012 6.723751 5.000000
    endloop
  endfacet
  facet normal 0.000000 0.000000 -1.000000
    outer loop
      vertex 3.990335 5.003721 5.000000
      vertex 5.362012 6.723751 5.000000
      vertex 6.723751 5.362012 5.000000
    endloop
  endfacet
  facet normal 0.000000 0.000000 -1.000000
    outer loop
      vertex 5.287928 3.605248 5.000000
      vertex 6.723751 5.362012 5.000000
      vertex 7.748332 3.731400 5.000000
    endloop
  endfacet
  facet normal -0.000000 0.000000 -1.000000
    outer loop
      vertex 6.115666 1.886433 5.000000
      vertex 8.384380 1.913680 5.000000
      vertex 8.600000 0.000000 5.000000
    endloop
  endfacet
  facet normal 0.000000 0.000000 -1.000000
    outer loop
      vertex 6.400000 0.000000 5.000000
      vertex 8.600000 0.000000 5.000000
      vertex 8.384380 -1.913680 5.000000
    endloop
  endfacet
  facet normal 0.000000 0.000000 -1.000000
    outer loop
      vertex 6.115666 -1.886433 5.000000
      vertex 8.384380 -1.913680 5.000000
      vertex 7.748332 -3.731400 5.000000
    endloop
  endfacet
  facet normal 0.000000 0.000000 -1.000000
    outer loop
      vertex 5.287928 -3.605248 5.000000
      vertex 7.748332 -3.731400 5.000000
      vertex 6.723751 -5.362012 5.000000
    endloop
  endfacet
  facet normal 0.000000 0.000000 -1.000000
    outer loop
      vertex 3.990335 -5.003721 5.000000
      vertex 6.723751 -5.362012 5.000000
      vertex 5.362012 -6.723751 5.000000
    endloop
  endfacet
  facet normal 0.000000 0.000000 -1.000000
    outer loop
      vertex 4.000000 -6.178261 5.000000
      vertex 5.362012 -6.723751 5.000000
      vertex 4.000000 -7.579560 5.000000
    endloop
  endfacet
  facet normal 0.000000 0.000000 -1.000000
    outer loop
      vertex 3.990335 -5.003721 5.000000
      vertex 5.362012 -6.723751 5.000000
      vertex 4.000000 -6.178261 5.000000
    endloop
  endfacet
  facet normal 0.000000 0.000000 -1.000000
    outer loop
      vertex 3.990335 -5.003721 5.000000
      vertex 4.000000 -6.178261 5.000000
      vertex 2.338183 -5.957592 5.000000
    endloop
  endfacet
  facet normal 0.000000 0.000000 -1.000000
    outer loop
      vertex 5.287928 -3.605248 5.000000
      vertex 6.723751 -5.362012 5.000000
      vertex 3.990335 -5.003721 5.000000
    endloop
  endfacet
  facet normal 0.000000 0.000000 -1.000000
    outer loop
      vertex 6.115666 -1.886433 5.000000
      vertex 7.748332 -3.731400 5.000000
      vertex 5.287928 -3.605248 5.000000
    endloop
  endfacet
  facet normal 0.000000 0.000000 -1.000000
    outer loop
      vertex 6.400000 0.000000 5.000000
      vertex 8.384380 -1.913680 5.000000
      vertex 6.115666 -1.886433 5.000000
    endloop
  endfacet
  facet normal 0.000000 0.000000 -1.000000
    outer loop
      vertex 5.287928 3.605248 5.000000
      vertex 8.384380 1.913680 5.000000
      vertex 6.115666 1.886433 5.000000
    endloop
  endfacet
  facet normal 0.000000 0.000000 -1.000000
    outer loop
      vertex 6.115666 1.886433 5.000000
      vertex 8.600000 0.000000 5.000000
      vertex 6.400000 0.000000 5.000000
    endloop
  endfacet
  facet normal -0.000000 0.000000 -1.000000
    outer loop
      vertex 5.287928 3.605248 5.000000
      vertex 7.748332 3.731400 5.000000
      vertex 8.384380 1.913680 5.000000
    endloop
  endfacet
  facet normal 0.000000 -0.000000 -1.000000
    outer loop
      vertex -6.328517 0.953871 5.000000
      vertex -8.384380 1.913680 5.000000
      vertex -5.766201 2.776856 5.000000
    endloop
  endfacet
  facet normal -0.000000 0.000000 -1.000000
    outer loop
      vertex 3.990335 5.003721 5.000000
      vertex 6.723751 5.362012 5.000000
      vertex 5.287928 3.605248 5.000000
    endloop
  endfacet
  facet normal -0.000000 0.000000 -1.000000
    outer loop
      vertex 2.338183 5.957592 5.000000
      vertex 5.362012 6.723751 5.000000
      vertex 3.990335 5.003721 5.000000
    endloop
  endfacet
  facet normal -0.000000 0.000000 -1.000000
    outer loop
      vertex 0.478273 6.382104 5.000000
      vertex 3.731400 7.748332 5.000000
      vertex 2.338183 5.957592 5.000000
    endloop
  endfacet
  facet normal 0.000000 0.000000 -1.000000
    outer loop
      vertex -1.424134 6.239539 5.000000
      vertex 1.913680 8.384380 5.000000
      vertex 0.478273 6.382104 5.000000
    endloop
  endfacet
  facet normal 0.000000 0.000000 -1.000000
    outer loop
      vertex -3.200000 5.542563 5.000000
      vertex 1.913680 8.384380 5.000000
      vertex -1.424134 6.239539 5.000000
    endloop
  endfacet
  facet normal 0.000000 0.000000 -1.000000
    outer loop
      vertex -8.384380 1.913680 5.000000
      vertex 0.000000 8.600000 5.000000
      vertex -3.200000 5.542563 5.000000
    endloop
  endfacet
  facet normal 0.000000 -0.000000 -1.000000
    outer loop
      vertex -5.766201 2.776856 5.000000
      vertex -8.384380 1.913680 5.000000
      vertex -4.691532 4.353106 5.000000
    endloop
  endfacet
  facet normal 0.000000 0.000000 -1.000000
    outer loop
      vertex -8.384380 1.913680 5.000000
      vertex -3.200000 5.542563 5.000000
      vertex -4.691532 4.353106 5.000000
    endloop
  endfacet
  facet normal 0.000000 0.000000 -1.000000
    outer loop
      vertex -6.328517 -0.953871 5.000000
      vertex -8.384380 1.913680 5.000000
      vertex -6.328517 0.953871 5.000000
    endloop
  endfacet
  facet normal 0.000000 0.000000 -1.000000
    outer loop
      vertex -8.384380 1.913680 5.000000
      vertex -6.328517 -0.953871 5.000000
      vertex -5.766201 -2.776856 5.000000
    endloop
  endfacet
  facet normal 0.000000 0.000000 -1.000000
    outer loop
      vertex -5.766201 -2.776856 5.000000
      vertex -4.000000 -6.178261 5.000000
      vertex -8.384380 1.913680 5.000000
    endloop
  endfacet
  facet normal 0.000000 0.000000 -1.000000
    outer loop
      vertex -4.691532 -4.353106 5.000000
      vertex -4.000000 -6.178261 5.000000
      vertex -5.766201 -2.776856 5.000000
    endloop
  endfacet
  facet normal 0.000000 0.000000 -1.000000
    outer loop
      vertex -3.200000 -5.542563 5.000000
      vertex -1.580268 -6.178261 5.000000
      vertex -4.000000 -6.178261 5.000000
    endloop
  endfacet
  facet normal 0.000000 0.000000 -1.000000
    outer loop
      vertex -3.200000 -5.542563 5.000000
      vertex -4.000000 -6.178261 5.000000
      vertex -4.691532 -4.353106 5.000000
    endloop
  endfacet
  facet normal 0.000000 0.000000 -1.000000
    outer loop
      vertex -4.000000 -6.178261 5.000000
      vertex -4.000000 -7.579560 5.000000
      vertex -8.384380 1.913680 5.000000
    endloop
  endfacet
  facet normal 0.000000 0.000000 -1.000000
    outer loop
      vertex -8.384380 1.913680 5.000000
      vertex -4.000000 -7.579560 5.000000
      vertex -5.362012 -6.723751 5.000000
    endloop
  endfacet
  facet normal 0.000000 0.000000 -1.000000
    outer loop
      vertex -8.384380 1.913680 5.000000
      vertex -5.362012 -6.723751 5.000000
      vertex -6.723751 -5.362012 5.000000
    endloop
  endfacet
  facet normal 0.000000 0.000000 -1.000000
    outer loop
      vertex -8.384380 1.913680 5.000000
      vertex -6.723751 -5.362012 5.000000
      vertex -7.748332 -3.731400 5.000000
    endloop
  endfacet
  facet normal 0.000000 0.000000 -1.000000
    outer loop
      vertex -8.384380 1.913680 5.000000
      vertex -7.748332 -3.731400 5.000000
      vertex -8.384380 -1.913680 5.000000
    endloop
  endfacet
  facet normal 0.000000 0.000000 -1.000000
    outer loop
      vertex -8.384380 1.913680 5.000000
      vertex -8.384380 -1.913680 5.000000
      vertex -8.600000 0.000000 5.000000
    endloop
  endfacet
  facet normal -0.000000 0.000000 -1.000000
    outer loop
      vertex 1.371368 -6.178261 5.000000
      vertex 2.338183 -5.957592 5.000000
      vertex 4.000000 -6.178261 5.000000
    endloop
  endfacet
  facet normal 0.000000 -0.999391 -0.034899
    outer loop
      vertex 2.136358 -6.003657 0.000000
      vertex -1.580268 -6.178261 5.000000
      vertex -2.025151 -6.003657 0.000000
    endloop
  endfacet
  facet normal 0.000000 -0.999391 -0.034899
    outer loop
      vertex 1.371368 -6.178261 5.000000
      vertex -1.580268 -6.178261 5.000000
      vertex 2.136358 -6.003657 0.000000
    endloop
  endfacet
  facet normal -0.000000 -0.999391 -0.034899
    outer loop
      vertex -4.000000 -6.178261 5.000000
      vertex -1.580268 -6.178261 5.000000
      vertex 4.000000 -7.051280 30.000000
    endloop
  endfacet
  facet normal 0.000000 -0.999391 -0.034899
    outer loop
      vertex 4.000000 -7.051280 30.000000
      vertex -1.580268 -6.178261 5.000000
      vertex 1.371368 -6.178261 5.000000
    endloop
  endfacet
  facet normal 0.000000 -0.999391 -0.034899
    outer loop
      vertex 4.000000 -7.051280 30.000000
      vertex 1.371368 -6.178261 5.000000
      vertex 4.000000 -6.178261 5.000000
    endloop
  endfacet
  facet normal -0.000000 -0.999391 -0.034899
    outer loop
      vertex -4.000000 -7.051280 30.000000
      vertex -4.000000 -6.178261 5.000000
      vertex 4.000000 -7.051280 30.000000
    endloop
  endfacet
  facet normal 0.000000 -0.000000 -1.000000
    outer loop
      vertex 1.913680 -8.384380 5.000000
      vertex 0.000000 -8.600000 5.000000
      vertex 2.499250 -8.179480 5.000000
    endloop
  endfacet
  facet normal 0.000000 0.000000 -1.000000
    outer loop
      vertex 2.499250 -8.179480 5.000000
      vertex 0.000000 -8.600000 5.000000
      vertex -1.913680 -8.384380 5.000000
    endloop
  endfacet
  facet normal 0.000000 0.000000 -1.000000
    outer loop
      vertex 2.499250 -8.179480 5.000000
      vertex -1.913680 -8.384380 5.000000
      vertex -2.499250 -8.179480 5.000000
    endloop
  endfacet
  facet normal -0.365341 -0.930874 0.000000
    outer loop
      vertex -3.200000 -5.542563 5.000000
      vertex -3.200000 -5.542563 0.000000
      vertex -2.025151 -6.003657 0.000000
    endloop
  endfacet
  facet normal -0.365341 -0.930874 -0.000000
    outer loop
      vertex -1.580268 -6.178261 5.000000
      vertex -3.200000 -5.542563 5.000000
      vertex -2.025151 -6.003657 0.000000
    endloop
  endfacet
  facet normal -0.623490 -0.781832 0.000000
    outer loop
      vertex -4.691532 -4.353106 5.000000
      vertex -4.691532 -4.353106 0.000000
      vertex -3.200000 -5.542563 0.000000
    endloop
  endfacet
  facet normal -0.623490 -0.781832 0.000000
    outer loop
      vertex -3.200000 -5.542563 5.000000
      vertex -4.691532 -4.353106 5.000000
      vertex -3.200000 -5.542563 0.000000
    endloop
  endfacet
  facet normal -0.826239 -0.563320 -0.000000
    outer loop
      vertex -5.766201 -2.776856 0.000000
      vertex -4.691532 -4.353106 0.000000
      vertex -5.766201 -2.776856 5.000000
    endloop
  endfacet
  facet normal -0.826239 -0.563320 0.000000
    outer loop
      vertex -5.766201 -2.776856 5.000000
      vertex -4.691532 -4.353106 0.000000
      vertex -4.691532 -4.353106 5.000000
    endloop
  endfacet
  facet normal -0.955573 -0.294755 -0.000000
    outer loop
      vertex -6.328517 -0.953871 0.000000
      vertex -5.766201 -2.776856 0.000000
      vertex -6.328517 -0.953871 5.000000
    endloop
  endfacet
  facet normal -0.955573 -0.294755 0.000000
    outer loop
      vertex -6.328517 -0.953871 5.000000
      vertex -5.766201 -2.776856 0.000000
      vertex -5.766201 -2.776856 5.000000
    endloop
  endfacet
  facet normal -1.000000 -0.000000 -0.000000
    outer loop
      vertex -6.328517 -0.953871 0.000000
      vertex -6.328517 -0.953871 5.000000
      vertex -6.328517 0.953871 0.000000
    endloop
  endfacet
  facet normal -1.000000 0.000000 0.000000
    outer loop
      vertex -6.328517 0.953871 0.000000
      vertex -6.328517 -0.953871 5.000000
      vertex -6.328517 0.953871 5.000000
    endloop
  endfacet
  facet normal -0.955573 0.294755 0.000000
    outer loop
      vertex -6.328517 0.953871 0.000000
      vertex -6.328517 0.953871 5.000000
      vertex -5.766201 2.776856 0.000000
    endloop
  endfacet
  facet normal -0.955573 0.294755 0.000000
    outer loop
      vertex -5.766201 2.776856 0.000000
      vertex -6.328517 0.953871 5.000000
      vertex -5.766201 2.776856 5.000000
    endloop
  endfacet
  facet normal -0.826239 0.563320 0.000000
    outer loop
      vertex -5.766201 2.776856 0.000000
      vertex -5.766201 2.776856 5.000000
      vertex -4.691532 4.353106 0.000000
    endloop
  endfacet
  facet normal -0.826239 0.563320 0.000000
    outer loop
      vertex -4.691532 4.353106 0.000000
      vertex -5.766201 2.776856 5.000000
      vertex -4.691532 4.353106 5.000000
    endloop
  endfacet
  facet normal -0.623490 0.781832 0.000000
    outer loop
      vertex -4.691532 4.353106 0.000000
      vertex -4.691532 4.353106 5.000000
      vertex -3.200000 5.542563 0.000000
    endloop
  endfacet
  facet normal -0.623490 0.781832 0.000000
    outer loop
      vertex -3.200000 5.542563 0.000000
      vertex -4.691532 4.353106 5.000000
      vertex -3.200000 5.542563 5.000000
    endloop
  endfacet
  facet normal -0.365341 0.930874 0.000000
    outer loop
      vertex -3.200000 5.542563 0.000000
      vertex -3.200000 5.542563 5.000000
      vertex -1.424134 6.239539 0.000000
    endloop
  endfacet
  facet normal -0.365341 0.930874 0.000000
    outer loop
      vertex -1.424134 6.239539 0.000000
      vertex -3.200000 5.542563 5.000000
      vertex -1.424134 6.239539 5.000000
    endloop
  endfacet
  facet normal -0.074730 0.997204 0.000000
    outer loop
      vertex -1.424134 6.239539 0.000000
      vertex -1.424134 6.239539 5.000000
      vertex 0.478273 6.382104 0.000000
    endloop
  endfacet
  facet normal -0.074730 0.997204 0.000000
    outer loop
      vertex 0.478273 6.382104 0.000000
      vertex -1.424134 6.239539 5.000000
      vertex 0.478273 6.382104 5.000000
    endloop
  endfacet
  facet normal 0.222521 0.974928 0.000000
    outer loop
      vertex 0.478273 6.382104 0.000000
      vertex 0.478273 6.382104 5.000000
      vertex 2.338183 5.957592 0.000000
    endloop
  endfacet
  facet normal 0.222521 0.974928 0.000000
    outer loop
      vertex 2.338183 5.957592 0.000000
      vertex 0.478273 6.382104 5.000000
      vertex 2.338183 5.957592 5.000000
    endloop
  endfacet
  facet normal 0.500000 0.866025 0.000000
    outer loop
      vertex 2.338183 5.957592 0.000000
      vertex 2.338183 5.957592 5.000000
      vertex 3.990335 5.003721 0.000000
    endloop
  endfacet
  facet normal 0.500000 0.866025 0.000000
    outer loop
      vertex 3.990335 5.003721 0.000000
      vertex 2.338183 5.957592 5.000000
      vertex 3.990335 5.003721 5.000000
    endloop
  endfacet
  facet normal 0.733052 0.680173 0.000000
    outer loop
      vertex 5.287928 3.605248 0.000000
      vertex 3.990335 5.003721 0.000000
      vertex 3.990335 5.003721 5.000000
    endloop
  endfacet
  facet normal 0.733052 0.680173 -0.000000
    outer loop
      vertex 5.287928 3.605248 5.000000
      vertex 5.287928 3.605248 0.000000
      vertex 3.990335 5.003721 5.000000
    endloop
  endfacet
  facet normal 0.900969 0.433884 0.000000
    outer loop
      vertex 6.115666 1.886433 0.000000
      vertex 5.287928 3.605248 0.000000
      vertex 5.287928 3.605248 5.000000
    endloop
  endfacet
  facet normal 0.900969 0.433884 -0.000000
    outer loop
      vertex 6.115666 1.886433 5.000000
      vertex 6.115666 1.886433 0.000000
      vertex 5.287928 3.605248 5.000000
    endloop
  endfacet
  facet normal 0.988831 0.149042 0.000000
    outer loop
      vertex 6.400000 0.000000 0.000000
      vertex 6.115666 1.886433 0.000000
      vertex 6.115666 1.886433 5.000000
    endloop
  endfacet
  facet normal 0.988831 0.149042 -0.000000
    outer loop
      vertex 6.400000 0.000000 5.000000
      vertex 6.400000 0.000000 0.000000
      vertex 6.115666 1.886433 5.000000
    endloop
  endfacet
  facet normal 0.988831 -0.149042 0.000000
    outer loop
      vertex 6.115666 -1.886433 5.000000
      vertex 6.115666 -1.886433 0.000000
      vertex 6.400000 0.000000 0.000000
    endloop
  endfacet
  facet normal 0.988831 -0.149042 0.000000
    outer loop
      vertex 6.400000 0.000000 5.000000
      vertex 6.115666 -1.886433 5.000000
      vertex 6.400000 0.000000 0.000000
    endloop
  endfacet
  facet normal 0.900969 -0.433884 0.000000
    outer loop
      vertex 5.287928 -3.605248 5.000000
      vertex 5.287928 -3.605248 0.000000
      vertex 6.115666 -1.886433 0.000000
    endloop
  endfacet
  facet normal 0.900969 -0.433884 0.000000
    outer loop
      vertex 6.115666 -1.886433 5.000000
      vertex 5.287928 -3.605248 5.000000
      vertex 6.115666 -1.886433 0.000000
    endloop
  endfacet
  facet normal 0.733052 -0.680173 0.000000
    outer loop
      vertex 3.990335 -5.003721 5.000000
      vertex 3.990335 -5.003721 0.000000
      vertex 5.287928 -3.605248 0.000000
    endloop
  endfacet
  facet normal 0.733052 -0.680173 0.000000
    outer loop
      vertex 5.287928 -3.605248 5.000000
      vertex 3.990335 -5.003721 5.000000
      vertex 5.287928 -3.605248 0.000000
    endloop
  endfacet
  facet normal 0.500000 -0.866025 0.000000
    outer loop
      vertex 2.338183 -5.957592 5.000000
      vertex 2.338183 -5.957592 0.000000
      vertex 3.990335 -5.003721 0.000000
    endloop
  endfacet
  facet normal 0.500000 -0.866025 0.000000
    outer loop
      vertex 3.990335 -5.003721 5.000000
      vertex 2.338183 -5.957592 5.000000
      vertex 3.990335 -5.003721 0.000000
    endloop
  endfacet
  facet normal 0.222521 -0.974928 -0.000000
    outer loop
      vertex 2.338183 -5.957592 5.000000
      vertex 1.371368 -6.178261 5.000000
      vertex 2.136358 -6.003657 0.000000
    endloop
  endfacet
  facet normal 0.222521 -0.974928 0.000000
    outer loop
      vertex 2.338183 -5.957592 0.000000
      vertex 2.338183 -5.957592 5.000000
      vertex 2.136358 -6.003657 0.000000
    endloop
  endfacet
  facet normal -0.000000 -0.000000 -1.000000
    outer loop
      vertex -6.328517 -0.953871 0.000000
      vertex -6.328517 0.953871 0.000000
      vertex -5.766201 -2.776856 0.000000
    endloop
  endfacet
  facet normal 0.000000 0.000000 -1.000000
    outer loop
      vertex -5.766201 -2.776856 0.000000
      vertex -6.328517 0.953871 0.000000
      vertex -5.766201 2.776856 0.000000
    endloop
  endfacet
  facet normal 0.000000 -0.000000 -1.000000
    outer loop
      vertex -5.766201 -2.776856 0.000000
      vertex -5.766201 2.776856 0.000000
      vertex -4.691532 4.353106 0.000000
    endloop
  endfacet
  facet normal 0.000000 0.000000 -1.000000
    outer loop
      vertex -5.766201 -2.776856 0.000000
      vertex -4.691532 4.353106 0.000000
      vertex -3.200000 5.542563 0.000000
    endloop
  endfacet
  facet normal 0.000000 0.000000 -1.000000
    outer loop
      vertex -5.766201 -2.776856 0.000000
      vertex -3.200000 5.542563 0.000000
      vertex -1.424134 6.239539 0.000000
    endloop
  endfacet
  facet normal 0.000000 0.000000 -1.000000
    outer loop
      vertex -5.766201 -2.776856 0.000000
      vertex -1.424134 6.239539 0.000000
      vertex 0.478273 6.382104 0.000000
    endloop
  endfacet
  facet normal 0.000000 0.000000 -1.000000
    outer loop
      vertex -5.766201 -2.776856 0.000000
      vertex 0.478273 6.382104 0.000000
      vertex 2.338183 5.957592 0.000000
    endloop
  endfacet
  facet normal 0.000000 0.000000 -1.000000
    outer loop
      vertex -5.766201 -2.776856 0.000000
      vertex 2.338183 5.957592 0.000000
      vertex 3.990335 5.003721 0.000000
    endloop
  endfacet
  facet normal 0.000000 0.000000 -1.000000
    outer loop
      vertex -5.766201 -2.776856 0.000000
      vertex 3.990335 5.003721 0.000000
      vertex 5.287928 3.605248 0.000000
    endloop
  endfacet
  facet normal 0.000000 0.000000 -1.000000
    outer loop
      vertex -5.766201 -2.776856 0.000000
      vertex 5.287928 3.605248 0.000000
      vertex 6.115666 1.886433 0.000000
    endloop
  endfacet
  facet normal 0.000000 0.000000 -1.000000
    outer loop
      vertex -5.766201 -2.776856 0.000000
      vertex 6.115666 1.886433 0.000000
      vertex 6.400000 0.000000 0.000000
    endloop
  endfacet
  facet normal 0.000000 0.000000 -1.000000
    outer loop
      vertex -5.766201 -2.776856 0.000000
      vertex 6.400000 0.000000 0.000000
      vertex 6.115666 -1.886433 0.000000
    endloop
  endfacet
  facet normal -0.000000 0.000000 -1.000000
    outer loop
      vertex -5.766201 -2.776856 0.000000
      vertex 6.115666 -1.886433 0.000000
      vertex 5.287928 -3.605248 0.000000
    endloop
  endfacet
  facet normal 0.000000 0.000000 -1.000000
    outer loop
      vertex -5.766201 -2.776856 0.000000
      vertex 5.287928 -3.605248 0.000000
      vertex 3.990335 -5.003721 0.000000
    endloop
  endfacet
  facet normal 0.000000 0.000000 -1.000000
    outer loop
      vertex -5.766201 -2.776856 0.000000
      vertex 3.990335 -5.003721 0.000000
      vertex 2.338183 -5.957592 0.000000
    endloop
  endfacet
  facet normal 0.000000 0.000000 -1.000000
    outer loop
      vertex -5.766201 -2.776856 0.000000
      vertex 2.338183 -5.957592 0.000000
      vertex 2.136358 -6.003657 0.000000
    endloop
  endfacet
  facet normal 0.000000 0.000000 -1.000000
    outer loop
      vertex -5.766201 -2.776856 0.000000
      vertex 2.136358 -6.003657 0.000000
      vertex -2.025151 -6.003657 0.000000
    endloop
  endfacet
  facet normal 0.000000 0.000000 -1.000000
    outer loop
      vertex -5.766201 -2.776856 0.000000
      vertex -2.025151 -6.003657 0.000000
      vertex -3.200000 -5.542563 0.000000
    endloop
  endfacet
  facet normal 0.000000 0.000000 -1.000000
    outer loop
      vertex -5.766201 -2.776856 0.000000
      vertex -3.200000 -5.542563 0.000000
      vertex -4.691532 -4.353106 0.000000
    endloop
  endfacet
endsolid OpenSCAD_Model
