solid OpenSCAD_Model
  facet normal -0.5 0.866025 0
    outer loop
      vertex -5.47076 -0.0243594 -3.2
      vertex -5.47076 -0.0243594 3.2
      vertex -5.42857 0 -3.2
    endloop
  endfacet
  facet normal -0.5 0.866025 0
    outer loop
      vertex -5.42857 0 -3.2
      vertex -5.47076 -0.0243594 3.2
      vertex -5.42857 0 3.2
    endloop
  endfacet
  facet normal -0.866025 -0.5 -0
    outer loop
      vertex -5.47076 -0.0243594 -3.2
      vertex -2.75648 -4.72564 -3.2
      vertex -5.47076 -0.0243594 3.2
    endloop
  endfacet
  facet normal -0.866025 -0.5 0
    outer loop
      vertex -5.47076 -0.0243594 3.2
      vertex -2.75648 -4.72564 -3.2
      vertex -2.75648 -4.72564 3.2
    endloop
  endfacet
  facet normal -0 0 -1
    outer loop
      vertex -5.47076 -0.0243594 -3.2
      vertex -5.42857 0 -3.2
      vertex -2.75648 -4.72564 -3.2
    endloop
  endfacet
  facet normal 0 0 -1
    outer loop
      vertex -2.75648 4.72564 -3.2
      vertex -5.42857 0 -3.2
      vertex -5.47076 0.0243594 -3.2
    endloop
  endfacet
  facet normal 0 0 -1
    outer loop
      vertex -2.75648 -4.72564 -3.2
      vertex -5.42857 0 -3.2
      vertex -2.75648 4.72564 -3.2
    endloop
  endfacet
  facet normal 0 -0 -1
    outer loop
      vertex -2.75648 -4.72564 -3.2
      vertex -2.75648 4.72564 -3.2
      vertex -2.71429 4.70128 -3.2
    endloop
  endfacet
  facet normal 0 -0 -1
    outer loop
      vertex -2.71429 4.70128 -3.2
      vertex -2.71429 4.75 -3.2
      vertex 2.71429 4.75 -3.2
    endloop
  endfacet
  facet normal -0 0 -1
    outer loop
      vertex -2.71429 4.70128 -3.2
      vertex 2.71429 4.75 -3.2
      vertex -2.75648 -4.72564 -3.2
    endloop
  endfacet
  facet normal 0 0 -1
    outer loop
      vertex -2.75648 -4.72564 -3.2
      vertex 2.71429 4.75 -3.2
      vertex 2.71429 4.70128 -3.2
    endloop
  endfacet
  facet normal 0 0 -1
    outer loop
      vertex -2.75648 -4.72564 -3.2
      vertex 2.71429 4.70128 -3.2
      vertex 2.75648 4.72564 -3.2
    endloop
  endfacet
  facet normal 0 -0 -1
    outer loop
      vertex 5.42857 0 -3.2
      vertex 2.75648 4.72564 -3.2
      vertex 5.47076 0.0243594 -3.2
    endloop
  endfacet
  facet normal 0 0 -1
    outer loop
      vertex -2.75648 -4.72564 -3.2
      vertex 2.75648 4.72564 -3.2
      vertex -2.71429 -4.70128 -3.2
    endloop
  endfacet
  facet normal -0 0 -1
    outer loop
      vertex 2.71429 -4.70128 -3.2
      vertex 5.47076 -0.0243594 -3.2
      vertex 2.75648 -4.72564 -3.2
    endloop
  endfacet
  facet normal 0 0 -1
    outer loop
      vertex -2.71429 -4.70128 -3.2
      vertex 2.71429 -4.70128 -3.2
      vertex 2.71429 -4.75 -3.2
    endloop
  endfacet
  facet normal -0 0 -1
    outer loop
      vertex -2.71429 -4.70128 -3.2
      vertex 5.47076 -0.0243594 -3.2
      vertex 2.71429 -4.70128 -3.2
    endloop
  endfacet
  facet normal 0 0 -1
    outer loop
      vertex 5.42857 0 -3.2
      vertex 5.47076 -0.0243594 -3.2
      vertex -2.71429 -4.70128 -3.2
    endloop
  endfacet
  facet normal 0 0 -1
    outer loop
      vertex 5.42857 0 -3.2
      vertex -2.71429 -4.70128 -3.2
      vertex 2.75648 4.72564 -3.2
    endloop
  endfacet
  facet normal 0 0 -1
    outer loop
      vertex -2.71429 -4.70128 -3.2
      vertex 2.71429 -4.75 -3.2
      vertex -2.71429 -4.75 -3.2
    endloop
  endfacet
  facet normal -0.5 -0.866025 0
    outer loop
      vertex -5.47076 0.0243594 3.2
      vertex -5.47076 0.0243594 -3.2
      vertex -5.42857 0 -3.2
    endloop
  endfacet
  facet normal -0.5 -0.866025 0
    outer loop
      vertex -5.42857 0 3.2
      vertex -5.47076 0.0243594 3.2
      vertex -5.42857 0 -3.2
    endloop
  endfacet
  facet normal 0 -0 1
    outer loop
      vertex -5.42857 0 3.2
      vertex -5.47076 -0.0243594 3.2
      vertex -2.75648 -4.72564 3.2
    endloop
  endfacet
  facet normal 0 0 1
    outer loop
      vertex 2.71429 -4.75 3.2
      vertex -5.42857 0 3.2
      vertex -2.71429 -4.70128 3.2
    endloop
  endfacet
  facet normal -0 0 1
    outer loop
      vertex -2.71429 -4.70128 3.2
      vertex -5.42857 0 3.2
      vertex -2.75648 -4.72564 3.2
    endloop
  endfacet
  facet normal -0 0 1
    outer loop
      vertex 2.71429 -4.75 3.2
      vertex -2.71429 -4.70128 3.2
      vertex -2.71429 -4.75 3.2
    endloop
  endfacet
  facet normal -0 0 1
    outer loop
      vertex 2.71429 -4.70128 3.2
      vertex -5.42857 0 3.2
      vertex 2.71429 -4.75 3.2
    endloop
  endfacet
  facet normal -0 0 1
    outer loop
      vertex 5.47076 -0.0243594 3.2
      vertex -5.42857 0 3.2
      vertex 2.71429 -4.70128 3.2
    endloop
  endfacet
  facet normal 0 0 1
    outer loop
      vertex 5.47076 -0.0243594 3.2
      vertex 2.71429 -4.70128 3.2
      vertex 2.75648 -4.72564 3.2
    endloop
  endfacet
  facet normal 0 -0 1
    outer loop
      vertex 5.42857 0 3.2
      vertex -5.42857 0 3.2
      vertex 5.47076 -0.0243594 3.2
    endloop
  endfacet
  facet normal 0 0 1
    outer loop
      vertex 5.47076 0.0243594 3.2
      vertex -5.42857 0 3.2
      vertex 5.42857 0 3.2
    endloop
  endfacet
  facet normal 0 -0 1
    outer loop
      vertex 2.71429 4.70128 3.2
      vertex -5.42857 0 3.2
      vertex 5.47076 0.0243594 3.2
    endloop
  endfacet
  facet normal 0 0 1
    outer loop
      vertex 2.71429 4.75 3.2
      vertex -5.42857 0 3.2
      vertex 2.71429 4.70128 3.2
    endloop
  endfacet
  facet normal 0 -0 1
    outer loop
      vertex 2.75648 4.72564 3.2
      vertex 2.71429 4.70128 3.2
      vertex 5.47076 0.0243594 3.2
    endloop
  endfacet
  facet normal -0 0 1
    outer loop
      vertex -2.71429 4.70128 3.2
      vertex -2.75648 4.72564 3.2
      vertex -5.47076 0.0243594 3.2
    endloop
  endfacet
  facet normal 0 0 1
    outer loop
      vertex 2.71429 4.75 3.2
      vertex -2.71429 4.75 3.2
      vertex -2.71429 4.70128 3.2
    endloop
  endfacet
  facet normal 0 0 1
    outer loop
      vertex -5.47076 0.0243594 3.2
      vertex 2.71429 4.75 3.2
      vertex -2.71429 4.70128 3.2
    endloop
  endfacet
  facet normal 0 0 1
    outer loop
      vertex -5.47076 0.0243594 3.2
      vertex -5.42857 0 3.2
      vertex 2.71429 4.75 3.2
    endloop
  endfacet
  facet normal 0.5 -0.866025 0
    outer loop
      vertex -2.75648 -4.72564 3.2
      vertex -2.75648 -4.72564 -3.2
      vertex -2.71429 -4.70128 -3.2
    endloop
  endfacet
  facet normal 0.5 -0.866025 0
    outer loop
      vertex -2.71429 -4.70128 3.2
      vertex -2.75648 -4.72564 3.2
      vertex -2.71429 -4.70128 -3.2
    endloop
  endfacet
  facet normal -1 -0 -0
    outer loop
      vertex -2.71429 -4.75 -3.2
      vertex -2.71429 -4.75 3.2
      vertex -2.71429 -4.70128 -3.2
    endloop
  endfacet
  facet normal -1 0 0
    outer loop
      vertex -2.71429 -4.70128 -3.2
      vertex -2.71429 -4.75 3.2
      vertex -2.71429 -4.70128 3.2
    endloop
  endfacet
  facet normal 0 -1 0
    outer loop
      vertex -2.71429 -4.75 3.2
      vertex -2.71429 -4.75 -3.2
      vertex 2.71429 -4.75 -3.2
    endloop
  endfacet
  facet normal 0 -1 0
    outer loop
      vertex 2.71429 -4.75 3.2
      vertex -2.71429 -4.75 3.2
      vertex 2.71429 -4.75 -3.2
    endloop
  endfacet
  facet normal 1 0 -0
    outer loop
      vertex 2.71429 -4.75 3.2
      vertex 2.71429 -4.75 -3.2
      vertex 2.71429 -4.70128 -3.2
    endloop
  endfacet
  facet normal 1 0 0
    outer loop
      vertex 2.71429 -4.70128 3.2
      vertex 2.71429 -4.75 3.2
      vertex 2.71429 -4.70128 -3.2
    endloop
  endfacet
  facet normal -0.5 -0.866025 0
    outer loop
      vertex 2.71429 -4.70128 3.2
      vertex 2.71429 -4.70128 -3.2
      vertex 2.75648 -4.72564 -3.2
    endloop
  endfacet
  facet normal -0.5 -0.866025 0
    outer loop
      vertex 2.75648 -4.72564 3.2
      vertex 2.71429 -4.70128 3.2
      vertex 2.75648 -4.72564 -3.2
    endloop
  endfacet
  facet normal 0.866025 -0.5 0
    outer loop
      vertex 2.75648 -4.72564 3.2
      vertex 2.75648 -4.72564 -3.2
      vertex 5.47076 -0.0243594 -3.2
    endloop
  endfacet
  facet normal 0.866025 -0.5 0
    outer loop
      vertex 5.47076 -0.0243594 3.2
      vertex 2.75648 -4.72564 3.2
      vertex 5.47076 -0.0243594 -3.2
    endloop
  endfacet
  facet normal 0.5 0.866025 0
    outer loop
      vertex 5.42857 0 -3.2
      vertex 5.42857 0 3.2
      vertex 5.47076 -0.0243594 -3.2
    endloop
  endfacet
  facet normal 0.5 0.866025 0
    outer loop
      vertex 5.47076 -0.0243594 -3.2
      vertex 5.42857 0 3.2
      vertex 5.47076 -0.0243594 3.2
    endloop
  endfacet
  facet normal 0.5 -0.866025 0
    outer loop
      vertex 5.42857 0 3.2
      vertex 5.42857 0 -3.2
      vertex 5.47076 0.0243594 -3.2
    endloop
  endfacet
  facet normal 0.5 -0.866025 0
    outer loop
      vertex 5.47076 0.0243594 3.2
      vertex 5.42857 0 3.2
      vertex 5.47076 0.0243594 -3.2
    endloop
  endfacet
  facet normal 0.866025 0.5 0
    outer loop
      vertex 5.47076 0.0243594 -3.2
      vertex 2.75648 4.72564 -3.2
      vertex 2.75648 4.72564 3.2
    endloop
  endfacet
  facet normal 0.866025 0.5 -0
    outer loop
      vertex 5.47076 0.0243594 3.2
      vertex 5.47076 0.0243594 -3.2
      vertex 2.75648 4.72564 3.2
    endloop
  endfacet
  facet normal -0.5 0.866025 0
    outer loop
      vertex 2.71429 4.70128 -3.2
      vertex 2.71429 4.70128 3.2
      vertex 2.75648 4.72564 -3.2
    endloop
  endfacet
  facet normal -0.5 0.866025 0
    outer loop
      vertex 2.75648 4.72564 -3.2
      vertex 2.71429 4.70128 3.2
      vertex 2.75648 4.72564 3.2
    endloop
  endfacet
  facet normal 1 0 -0
    outer loop
      vertex 2.71429 4.70128 3.2
      vertex 2.71429 4.70128 -3.2
      vertex 2.71429 4.75 -3.2
    endloop
  endfacet
  facet normal 1 0 0
    outer loop
      vertex 2.71429 4.75 3.2
      vertex 2.71429 4.70128 3.2
      vertex 2.71429 4.75 -3.2
    endloop
  endfacet
  facet normal 0 1 0
    outer loop
      vertex -2.71429 4.75 -3.2
      vertex -2.71429 4.75 3.2
      vertex 2.71429 4.75 -3.2
    endloop
  endfacet
  facet normal 0 1 0
    outer loop
      vertex 2.71429 4.75 -3.2
      vertex -2.71429 4.75 3.2
      vertex 2.71429 4.75 3.2
    endloop
  endfacet
  facet normal -1 -0 -0
    outer loop
      vertex -2.71429 4.70128 -3.2
      vertex -2.71429 4.70128 3.2
      vertex -2.71429 4.75 -3.2
    endloop
  endfacet
  facet normal -1 0 0
    outer loop
      vertex -2.71429 4.75 -3.2
      vertex -2.71429 4.70128 3.2
      vertex -2.71429 4.75 3.2
    endloop
  endfacet
  facet normal 0.5 0.866025 0
    outer loop
      vertex -2.75648 4.72564 -3.2
      vertex -2.75648 4.72564 3.2
      vertex -2.71429 4.70128 -3.2
    endloop
  endfacet
  facet normal 0.5 0.866025 0
    outer loop
      vertex -2.71429 4.70128 -3.2
      vertex -2.75648 4.72564 3.2
      vertex -2.71429 4.70128 3.2
    endloop
  endfacet
  facet normal -0.866025 0.5 0
    outer loop
      vertex -5.47076 0.0243594 -3.2
      vertex -5.47076 0.0243594 3.2
      vertex -2.75648 4.72564 -3.2
    endloop
  endfacet
  facet normal -0.866025 0.5 0
    outer loop
      vertex -2.75648 4.72564 -3.2
      vertex -5.47076 0.0243594 3.2
      vertex -2.75648 4.72564 3.2
    endloop
  endfacet
endsolid OpenSCAD_Model
