solid Default
  facet normal 1.000000e+00 0.000000e+00 0.000000e+00
    outer loop
      vertex 9.999997e+00 3.000000e+01 0.000000e+00
      vertex 9.999997e+00 -1.000000e+01 1.000000e+01
      vertex 9.999997e+00 -1.000000e+01 0.000000e+00
    endloop
  endfacet
  facet normal 1.000000e+00 0.000000e+00 0.000000e+00
    outer loop
      vertex 9.999997e+00 -1.000000e+01 1.000000e+01
      vertex 9.999997e+00 3.000000e+01 0.000000e+00
      vertex 9.999997e+00 3.000000e+01 1.000000e+01
    endloop
  endfacet
  facet normal 0.000000e+00 0.000000e+00 1.000000e+00
    outer loop
      vertex 9.999997e+00 -1.000000e+01 1.000000e+01
      vertex -9.999997e+00 1.000000e+01 1.000000e+01
      vertex -9.999997e+00 -3.000000e+01 1.000000e+01
    endloop
  endfacet
  facet normal 0.000000e+00 0.000000e+00 1.000000e+00
    outer loop
      vertex -9.999997e+00 1.000000e+01 1.000000e+01
      vertex 9.999997e+00 -1.000000e+01 1.000000e+01
      vertex 9.999997e+00 3.000000e+01 1.000000e+01
    endloop
  endfacet
  facet normal 7.071068e-01 -7.071068e-01 0.000000e+00
    outer loop
      vertex 9.999997e+00 -1.000000e+01 0.000000e+00
      vertex -9.999997e+00 -3.000000e+01 1.000000e+01
      vertex -9.999997e+00 -3.000000e+01 0.000000e+00
    endloop
  endfacet
  facet normal 7.071068e-01 -7.071068e-01 0.000000e+00
    outer loop
      vertex -9.999997e+00 -3.000000e+01 1.000000e+01
      vertex 9.999997e+00 -1.000000e+01 0.000000e+00
      vertex 9.999997e+00 -1.000000e+01 1.000000e+01
    endloop
  endfacet
  facet normal 0.000000e+00 0.000000e+00 -1.000000e+00
    outer loop
      vertex 9.999997e+00 3.000000e+01 0.000000e+00
      vertex -9.999997e+00 -3.000000e+01 0.000000e+00
      vertex -9.999997e+00 1.000000e+01 0.000000e+00
    endloop
  endfacet
  facet normal 0.000000e+00 0.000000e+00 -1.000000e+00
    outer loop
      vertex -9.999997e+00 -3.000000e+01 0.000000e+00
      vertex 9.999997e+00 3.000000e+01 0.000000e+00
      vertex 9.999997e+00 -1.000000e+01 0.000000e+00
    endloop
  endfacet
  facet normal -7.071068e-01 7.071068e-01 0.000000e+00
    outer loop
      vertex 9.999997e+00 3.000000e+01 1.000000e+01
      vertex -9.999997e+00 1.000000e+01 0.000000e+00
      vertex -9.999997e+00 1.000000e+01 1.000000e+01
    endloop
  endfacet
  facet normal -7.071068e-01 7.071068e-01 0.000000e+00
    outer loop
      vertex -9.999997e+00 1.000000e+01 0.000000e+00
      vertex 9.999997e+00 3.000000e+01 1.000000e+01
      vertex 9.999997e+00 3.000000e+01 0.000000e+00
    endloop
  endfacet
  facet normal -1.000000e+00 0.000000e+00 0.000000e+00
    outer loop
      vertex -9.999997e+00 1.000000e+01 1.000000e+01
      vertex -9.999997e+00 -3.000000e+01 0.000000e+00
      vertex -9.999997e+00 -3.000000e+01 1.000000e+01
    endloop
  endfacet
  facet normal -1.000000e+00 0.000000e+00 0.000000e+00
    outer loop
      vertex -9.999997e+00 -3.000000e+01 0.000000e+00
      vertex -9.999997e+00 1.000000e+01 1.000000e+01
      vertex -9.999997e+00 1.000000e+01 0.000000e+00
    endloop
  endfacet
endsolid Default
