solid Default
  facet normal 0.000000e+00 0.000000e+00 1.000000e+00
    outer loop
      vertex 0.000000e+00 -2.000000e+01 1.000000e+01
      vertex 0.000000e+00 2.000000e+01 1.000000e+01
      vertex -2.000000e+01 0.000000e+00 1.000000e+01
    endloop
  endfacet
  facet normal 0.000000e+00 0.000000e+00 1.000000e+00
    outer loop
      vertex 0.000000e+00 2.000000e+01 1.000000e+01
      vertex 0.000000e+00 -2.000000e+01 1.000000e+01
      vertex 2.000000e+01 0.000000e+00 1.000000e+01
    endloop
  endfacet
  facet normal 0.000000e+00 0.000000e+00 -1.000000e+00
    outer loop
      vertex 0.000000e+00 2.000000e+01 0.000000e+00
      vertex 0.000000e+00 -2.000000e+01 0.000000e+00
      vertex -2.000000e+01 0.000000e+00 0.000000e+00
    endloop
  endfacet
  facet normal 0.000000e+00 0.000000e+00 -1.000000e+00
    outer loop
      vertex 0.000000e+00 -2.000000e+01 0.000000e+00
      vertex 0.000000e+00 2.000000e+01 0.000000e+00
      vertex 2.000000e+01 0.000000e+00 0.000000e+00
    endloop
  endfacet
  facet normal 7.071068e-01 -7.071068e-01 0.000000e+00
    outer loop
      vertex 2.000000e+01 0.000000e+00 0.000000e+00
      vertex 0.000000e+00 -2.000000e+01 1.000000e+01
      vertex 0.000000e+00 -2.000000e+01 0.000000e+00
    endloop
  endfacet
  facet normal 7.071068e-01 -7.071068e-01 0.000000e+00
    outer loop
      vertex 0.000000e+00 -2.000000e+01 1.000000e+01
      vertex 2.000000e+01 0.000000e+00 0.000000e+00
      vertex 2.000000e+01 0.000000e+00 1.000000e+01
    endloop
  endfacet
  facet normal 7.071068e-01 7.071068e-01 0.000000e+00
    outer loop
      vertex 0.000000e+00 2.000000e+01 0.000000e+00
      vertex 2.000000e+01 0.000000e+00 1.000000e+01
      vertex 2.000000e+01 0.000000e+00 0.000000e+00
    endloop
  endfacet
  facet normal 7.071068e-01 7.071068e-01 0.000000e+00
    outer loop
      vertex 2.000000e+01 0.000000e+00 1.000000e+01
      vertex 0.000000e+00 2.000000e+01 0.000000e+00
      vertex 0.000000e+00 2.000000e+01 1.000000e+01
    endloop
  endfacet
  facet normal -7.071068e-01 7.071068e-01 0.000000e+00
    outer loop
      vertex 0.000000e+00 2.000000e+01 1.000000e+01
      vertex -2.000000e+01 0.000000e+00 0.000000e+00
      vertex -2.000000e+01 0.000000e+00 1.000000e+01
    endloop
  endfacet
  facet normal -7.071068e-01 7.071068e-01 0.000000e+00
    outer loop
      vertex -2.000000e+01 0.000000e+00 0.000000e+00
      vertex 0.000000e+00 2.000000e+01 1.000000e+01
      vertex 0.000000e+00 2.000000e+01 0.000000e+00
    endloop
  endfacet
  facet normal -7.071068e-01 -7.071068e-01 0.000000e+00
    outer loop
      vertex -2.000000e+01 0.000000e+00 1.000000e+01
      vertex 0.000000e+00 -2.000000e+01 0.000000e+00
      vertex 0.000000e+00 -2.000000e+01 1.000000e+01
    endloop
  endfacet
  facet normal -7.071068e-01 -7.071068e-01 0.000000e+00
    outer loop
      vertex 0.000000e+00 -2.000000e+01 0.000000e+00
      vertex -2.000000e+01 0.000000e+00 1.000000e+01
      vertex -2.000000e+01 0.000000e+00 0.000000e+00
    endloop
  endfacet
endsolid Default
