solid Default
  facet normal -1.000000e+00 1.735364e-15 1.304978e-29
    outer loop
      vertex -3.250000e+00 3.375000e+00 2.500000e+00
      vertex -3.250000e+00 1.625000e+00 0.000000e+00
      vertex -3.250000e+00 1.625000e+00 2.500000e+00
    endloop
  endfacet
  facet normal -1.000000e+00 1.735364e-15 1.304978e-29
    outer loop
      vertex -3.250000e+00 1.625000e+00 0.000000e+00
      vertex -3.250000e+00 3.375000e+00 2.500000e+00
      vertex -3.250000e+00 3.375000e+00 0.000000e+00
    endloop
  endfacet
  facet normal 1.000000e+00 -1.735364e-15 0.000000e+00
    outer loop
      vertex 3.250000e+00 3.375000e+00 0.000000e+00
      vertex 3.250000e+00 1.625000e+00 2.500000e+00
      vertex 3.250000e+00 1.625000e+00 0.000000e+00
    endloop
  endfacet
  facet normal 1.000000e+00 -1.735364e-15 0.000000e+00
    outer loop
      vertex 3.250000e+00 1.625000e+00 2.500000e+00
      vertex 3.250000e+00 3.375000e+00 0.000000e+00
      vertex 3.250000e+00 3.375000e+00 2.500000e+00
    endloop
  endfacet
  facet normal 0.000000e+00 -3.759955e-15 1.000000e+00
    outer loop
      vertex 3.250000e+00 1.625000e+00 2.500000e+00
      vertex -3.250000e+00 3.375000e+00 2.500000e+00
      vertex -3.250000e+00 1.625000e+00 2.500000e+00
    endloop
  endfacet
  facet normal 0.000000e+00 -3.759955e-15 1.000000e+00
    outer loop
      vertex -3.250000e+00 3.375000e+00 2.500000e+00
      vertex 3.250000e+00 1.625000e+00 2.500000e+00
      vertex 3.250000e+00 3.375000e+00 2.500000e+00
    endloop
  endfacet
  facet normal 1.735364e-15 1.000000e+00 3.759955e-15
    outer loop
      vertex -3.250000e+00 3.375000e+00 2.500000e+00
      vertex 3.250000e+00 3.375000e+00 0.000000e+00
      vertex -3.250000e+00 3.375000e+00 0.000000e+00
    endloop
  endfacet
  facet normal 1.735364e-15 1.000000e+00 3.759955e-15
    outer loop
      vertex 3.250000e+00 3.375000e+00 0.000000e+00
      vertex -3.250000e+00 3.375000e+00 2.500000e+00
      vertex 3.250000e+00 3.375000e+00 2.500000e+00
    endloop
  endfacet
  facet normal 1.304978e-29 3.759955e-15 -1.000000e+00
    outer loop
      vertex -3.250000e+00 3.375000e+00 0.000000e+00
      vertex -1.750000e+00 1.625000e+00 0.000000e+00
      vertex -3.250000e+00 1.625000e+00 0.000000e+00
    endloop
  endfacet
  facet normal 1.304978e-29 3.759955e-15 -1.000000e+00
    outer loop
      vertex -1.750000e+00 1.625000e+00 0.000000e+00
      vertex -3.250000e+00 3.375000e+00 0.000000e+00
      vertex 3.250000e+00 3.375000e+00 0.000000e+00
    endloop
  endfacet
  facet normal 1.304978e-29 3.759955e-15 -1.000000e+00
    outer loop
      vertex -1.750000e+00 1.625000e+00 0.000000e+00
      vertex 3.250000e+00 3.375000e+00 0.000000e+00
      vertex -5.000000e-01 3.750000e-01 0.000000e+00
    endloop
  endfacet
  facet normal 1.304978e-29 3.759955e-15 -1.000000e+00
    outer loop
      vertex -1.750000e+00 1.625000e+00 0.000000e+00
      vertex -5.000000e-01 3.750000e-01 0.000000e+00
      vertex -5.000000e-01 -2.125000e+00 0.000000e+00
    endloop
  endfacet
  facet normal 1.304978e-29 3.759955e-15 -1.000000e+00
    outer loop
      vertex -5.000000e-01 3.750000e-01 0.000000e+00
      vertex 3.250000e+00 3.375000e+00 0.000000e+00
      vertex 5.000000e-01 3.750000e-01 0.000000e+00
    endloop
  endfacet
  facet normal 1.304978e-29 3.759955e-15 -1.000000e+00
    outer loop
      vertex 5.000000e-01 3.750000e-01 0.000000e+00
      vertex 3.250000e+00 3.375000e+00 0.000000e+00
      vertex 1.750000e+00 1.625000e+00 0.000000e+00
    endloop
  endfacet
  facet normal 1.304978e-29 3.759955e-15 -1.000000e+00
    outer loop
      vertex 5.000000e-01 3.750000e-01 0.000000e+00
      vertex 1.750000e+00 1.625000e+00 0.000000e+00
      vertex 1.750000e+00 -3.375000e+00 0.000000e+00
    endloop
  endfacet
  facet normal 1.304978e-29 3.759955e-15 -1.000000e+00
    outer loop
      vertex 1.750000e+00 1.625000e+00 0.000000e+00
      vertex 3.250000e+00 3.375000e+00 0.000000e+00
      vertex 3.250000e+00 1.625000e+00 0.000000e+00
    endloop
  endfacet
  facet normal 1.304978e-29 3.759955e-15 -1.000000e+00
    outer loop
      vertex -1.750000e+00 -3.375000e+00 0.000000e+00
      vertex -5.000000e-01 -2.125000e+00 0.000000e+00
      vertex 1.750000e+00 -3.375000e+00 0.000000e+00
    endloop
  endfacet
  facet normal 1.304978e-29 3.759955e-15 -1.000000e+00
    outer loop
      vertex -5.000000e-01 -2.125000e+00 0.000000e+00
      vertex -1.750000e+00 -3.375000e+00 0.000000e+00
      vertex -1.750000e+00 1.625000e+00 0.000000e+00
    endloop
  endfacet
  facet normal 1.304978e-29 3.759955e-15 -1.000000e+00
    outer loop
      vertex 1.750000e+00 -3.375000e+00 0.000000e+00
      vertex -5.000000e-01 -2.125000e+00 0.000000e+00
      vertex 5.000000e-01 -2.125000e+00 0.000000e+00
    endloop
  endfacet
  facet normal 1.304978e-29 3.759955e-15 -1.000000e+00
    outer loop
      vertex 1.750000e+00 -3.375000e+00 0.000000e+00
      vertex 5.000000e-01 -2.125000e+00 0.000000e+00
      vertex 5.000000e-01 3.750000e-01 0.000000e+00
    endloop
  endfacet
  facet normal -2.069700e-15 -1.000000e+00 -4.171629e-15
    outer loop
      vertex 3.250000e+00 1.625000e+00 2.500000e+00
      vertex 1.750000e+00 1.625000e+00 0.000000e+00
      vertex 3.250000e+00 1.625000e+00 0.000000e+00
    endloop
  endfacet
  facet normal -2.069700e-15 -1.000000e+00 -4.171629e-15
    outer loop
      vertex 1.750000e+00 1.625000e+00 0.000000e+00
      vertex 3.250000e+00 1.625000e+00 2.500000e+00
      vertex 1.750000e+00 1.625000e+00 1.250000e+00
    endloop
  endfacet
  facet normal -2.069700e-15 -1.000000e+00 -4.171629e-15
    outer loop
      vertex 1.750000e+00 1.625000e+00 1.250000e+00
      vertex 3.250000e+00 1.625000e+00 2.500000e+00
      vertex -1.750000e+00 1.625000e+00 1.250000e+00
    endloop
  endfacet
  facet normal -2.069700e-15 -1.000000e+00 -4.171629e-15
    outer loop
      vertex -1.750000e+00 1.625000e+00 1.250000e+00
      vertex -3.250000e+00 1.625000e+00 0.000000e+00
      vertex -1.750000e+00 1.625000e+00 0.000000e+00
    endloop
  endfacet
  facet normal -2.069700e-15 -1.000000e+00 -4.171629e-15
    outer loop
      vertex -3.250000e+00 1.625000e+00 0.000000e+00
      vertex -1.750000e+00 1.625000e+00 1.250000e+00
      vertex -3.250000e+00 1.625000e+00 2.500000e+00
    endloop
  endfacet
  facet normal -2.069700e-15 -1.000000e+00 -4.171629e-15
    outer loop
      vertex -3.250000e+00 1.625000e+00 2.500000e+00
      vertex -1.750000e+00 1.625000e+00 1.250000e+00
      vertex 3.250000e+00 1.625000e+00 2.500000e+00
    endloop
  endfacet
  facet normal -1.000000e+00 3.222819e-15 4.154625e-29
    outer loop
      vertex -1.750000e+00 1.625000e+00 1.250000e+00
      vertex -1.750000e+00 -3.375000e+00 0.000000e+00
      vertex -1.750000e+00 -3.375000e+00 1.250000e+00
    endloop
  endfacet
  facet normal -1.000000e+00 3.222819e-15 4.154625e-29
    outer loop
      vertex -1.750000e+00 -3.375000e+00 0.000000e+00
      vertex -1.750000e+00 1.625000e+00 1.250000e+00
      vertex -1.750000e+00 1.625000e+00 0.000000e+00
    endloop
  endfacet
  facet normal 1.000000e+00 -3.222819e-15 0.000000e+00
    outer loop
      vertex 1.750000e+00 1.625000e+00 0.000000e+00
      vertex 1.750000e+00 -3.375000e+00 1.250000e+00
      vertex 1.750000e+00 -3.375000e+00 0.000000e+00
    endloop
  endfacet
  facet normal 1.000000e+00 -3.222819e-15 0.000000e+00
    outer loop
      vertex 1.750000e+00 -3.375000e+00 1.250000e+00
      vertex 1.750000e+00 1.625000e+00 0.000000e+00
      vertex 1.750000e+00 1.625000e+00 1.250000e+00
    endloop
  endfacet
  facet normal -3.222819e-15 -1.000000e+00 -6.445638e-15
    outer loop
      vertex 1.750000e+00 -3.375000e+00 1.250000e+00
      vertex -1.750000e+00 -3.375000e+00 0.000000e+00
      vertex 1.750000e+00 -3.375000e+00 0.000000e+00
    endloop
  endfacet
  facet normal -3.222819e-15 -1.000000e+00 -6.445638e-15
    outer loop
      vertex -1.750000e+00 -3.375000e+00 0.000000e+00
      vertex 1.750000e+00 -3.375000e+00 1.250000e+00
      vertex -1.750000e+00 -3.375000e+00 1.250000e+00
    endloop
  endfacet
  facet normal 0.000000e+00 -6.445638e-15 1.000000e+00
    outer loop
      vertex -1.750000e+00 -3.375000e+00 1.250000e+00
      vertex -5.000000e-01 -2.125000e+00 1.250000e+00
      vertex -1.750000e+00 1.625000e+00 1.250000e+00
    endloop
  endfacet
  facet normal 0.000000e+00 -6.445638e-15 1.000000e+00
    outer loop
      vertex -5.000000e-01 -2.125000e+00 1.250000e+00
      vertex -1.750000e+00 -3.375000e+00 1.250000e+00
      vertex 1.750000e+00 -3.375000e+00 1.250000e+00
    endloop
  endfacet
  facet normal 0.000000e+00 -6.445638e-15 1.000000e+00
    outer loop
      vertex -5.000000e-01 -2.125000e+00 1.250000e+00
      vertex 1.750000e+00 -3.375000e+00 1.250000e+00
      vertex 5.000000e-01 -2.125000e+00 1.250000e+00
    endloop
  endfacet
  facet normal 0.000000e+00 -6.445638e-15 1.000000e+00
    outer loop
      vertex 5.000000e-01 -2.125000e+00 1.250000e+00
      vertex 1.750000e+00 -3.375000e+00 1.250000e+00
      vertex 5.000000e-01 3.750000e-01 1.250000e+00
    endloop
  endfacet
  facet normal 0.000000e+00 -6.445638e-15 1.000000e+00
    outer loop
      vertex -1.750000e+00 1.625000e+00 1.250000e+00
      vertex -5.000000e-01 3.750000e-01 1.250000e+00
      vertex 1.750000e+00 1.625000e+00 1.250000e+00
    endloop
  endfacet
  facet normal 0.000000e+00 -6.445638e-15 1.000000e+00
    outer loop
      vertex -5.000000e-01 3.750000e-01 1.250000e+00
      vertex -1.750000e+00 1.625000e+00 1.250000e+00
      vertex -5.000000e-01 -2.125000e+00 1.250000e+00
    endloop
  endfacet
  facet normal 0.000000e+00 -6.445638e-15 1.000000e+00
    outer loop
      vertex 1.750000e+00 1.625000e+00 1.250000e+00
      vertex -5.000000e-01 3.750000e-01 1.250000e+00
      vertex 5.000000e-01 3.750000e-01 1.250000e+00
    endloop
  endfacet
  facet normal 0.000000e+00 -6.445638e-15 1.000000e+00
    outer loop
      vertex 1.750000e+00 1.625000e+00 1.250000e+00
      vertex 5.000000e-01 3.750000e-01 1.250000e+00
      vertex 1.750000e+00 -3.375000e+00 1.250000e+00
    endloop
  endfacet
  facet normal 1.000000e+00 -2.255973e-15 -9.997420e-30
    outer loop
      vertex -5.000000e-01 3.750000e-01 0.000000e+00
      vertex -5.000000e-01 -2.125000e+00 1.250000e+00
      vertex -5.000000e-01 -2.125000e+00 0.000000e+00
    endloop
  endfacet
  facet normal 1.000000e+00 -2.255973e-15 -9.997420e-30
    outer loop
      vertex -5.000000e-01 -2.125000e+00 1.250000e+00
      vertex -5.000000e-01 3.750000e-01 0.000000e+00
      vertex -5.000000e-01 3.750000e-01 1.250000e+00
    endloop
  endfacet
  facet normal -0.000000e+00 -1.000000e+00 -4.511946e-15
    outer loop
      vertex 5.000000e-01 3.750000e-01 1.250000e+00
      vertex -5.000000e-01 3.750000e-01 0.000000e+00
      vertex 5.000000e-01 3.750000e-01 0.000000e+00
    endloop
  endfacet
  facet normal -0.000000e+00 -1.000000e+00 -4.511946e-15
    outer loop
      vertex -5.000000e-01 3.750000e-01 0.000000e+00
      vertex 5.000000e-01 3.750000e-01 1.250000e+00
      vertex -5.000000e-01 3.750000e-01 1.250000e+00
    endloop
  endfacet
  facet normal -1.000000e+00 2.255973e-15 9.997420e-30
    outer loop
      vertex 5.000000e-01 3.750000e-01 1.250000e+00
      vertex 5.000000e-01 -2.125000e+00 0.000000e+00
      vertex 5.000000e-01 -2.125000e+00 1.250000e+00
    endloop
  endfacet
  facet normal -1.000000e+00 2.255973e-15 9.997420e-30
    outer loop
      vertex 5.000000e-01 -2.125000e+00 0.000000e+00
      vertex 5.000000e-01 3.750000e-01 1.250000e+00
      vertex 5.000000e-01 3.750000e-01 0.000000e+00
    endloop
  endfacet
  facet normal 0.000000e+00 1.000000e+00 4.511946e-15
    outer loop
      vertex -5.000000e-01 -2.125000e+00 1.250000e+00
      vertex 5.000000e-01 -2.125000e+00 0.000000e+00
      vertex -5.000000e-01 -2.125000e+00 0.000000e+00
    endloop
  endfacet
  facet normal 0.000000e+00 1.000000e+00 4.511946e-15
    outer loop
      vertex 5.000000e-01 -2.125000e+00 0.000000e+00
      vertex -5.000000e-01 -2.125000e+00 1.250000e+00
      vertex 5.000000e-01 -2.125000e+00 1.250000e+00
    endloop
  endfacet
endsolid Default
