solid OpenSCAD_Model
  facet normal -1 -0 -0
    outer loop
      vertex -18.5 -20 0
      vertex -18.5 -20 12
      vertex -18.5 20 0
    endloop
  endfacet
  facet normal -1 0 0
    outer loop
      vertex -18.5 20 0
      vertex -18.5 -20 12
      vertex -18.5 20 12
    endloop
  endfacet
  facet normal 0 -1 0
    outer loop
      vertex -18.5 -20 12
      vertex -18.5 -20 0
      vertex 18.5 -20 0
    endloop
  endfacet
  facet normal 0 -1 0
    outer loop
      vertex 18.5 -20 12
      vertex -18.5 -20 12
      vertex 18.5 -20 0
    endloop
  endfacet
  facet normal -0 -0 -1
    outer loop
      vertex -18.5 -20 0
      vertex -18.5 20 0
      vertex 18.5 -20 0
    endloop
  endfacet
  facet normal 0 0 -1
    outer loop
      vertex 18.5 2.5 0
      vertex -18.5 20 0
      vertex 18.5 20 0
    endloop
  endfacet
  facet normal 0 0 -1
    outer loop
      vertex 18.5 -20 0
      vertex -18.5 20 0
      vertex 18.5 -2.5 0
    endloop
  endfacet
  facet normal 0 0 -1
    outer loop
      vertex 18.5 2.5 0
      vertex 40 2.5 0
      vertex 18.5 -2.5 0
    endloop
  endfacet
  facet normal 0 0 -1
    outer loop
      vertex 18.5 2.5 0
      vertex 18.5 -2.5 0
      vertex -18.5 20 0
    endloop
  endfacet
  facet normal -0 0 -1
    outer loop
      vertex 18.5 -2.5 0
      vertex 40 2.5 0
      vertex 40 -2.5 0
    endloop
  endfacet
  facet normal 0 1 0
    outer loop
      vertex -18.5 20 0
      vertex -18.5 20 12
      vertex 18.5 20 0
    endloop
  endfacet
  facet normal 0 1 0
    outer loop
      vertex 18.5 20 0
      vertex -18.5 20 12
      vertex 18.5 20 12
    endloop
  endfacet
  facet normal 0 -0 1
    outer loop
      vertex 4.86702 -14.9791 12
      vertex -18.5 -20 12
      vertex 18.5 -20 12
    endloop
  endfacet
  facet normal 0 0 1
    outer loop
      vertex 1.64632 -15.6637 12
      vertex -1.64632 -15.6637 12
      vertex -18.5 -20 12
    endloop
  endfacet
  facet normal 0 0 1
    outer loop
      vertex 18.5 -2.5 12
      vertex 15.4872 -2.5 12
      vertex 18.5 -20 12
    endloop
  endfacet
  facet normal 0 -0 1
    outer loop
      vertex 15.4872 -2.5 12
      vertex 15.4058 -3.27461 12
      vertex 18.5 -20 12
    endloop
  endfacet
  facet normal 0 0 1
    outer loop
      vertex 15.4872 2.5 12
      vertex 18.5 2.5 12
      vertex 15.4058 3.27461 12
    endloop
  endfacet
  facet normal 0 -0 1
    outer loop
      vertex 15.4058 -3.27461 12
      vertex 14.3883 -6.4061 12
      vertex 18.5 -20 12
    endloop
  endfacet
  facet normal 0 -0 1
    outer loop
      vertex 14.3883 -6.4061 12
      vertex 12.742 -9.25762 12
      vertex 18.5 -20 12
    endloop
  endfacet
  facet normal 0 -0 1
    outer loop
      vertex 10.5388 -11.7045 12
      vertex 7.875 -13.6399 12
      vertex 18.5 -20 12
    endloop
  endfacet
  facet normal 0 -0 1
    outer loop
      vertex 7.875 -13.6399 12
      vertex 4.86702 -14.9791 12
      vertex 18.5 -20 12
    endloop
  endfacet
  facet normal 0 -0 1
    outer loop
      vertex 1.64632 -15.6637 12
      vertex -18.5 -20 12
      vertex 4.86702 -14.9791 12
    endloop
  endfacet
  facet normal -0 0 1
    outer loop
      vertex -1.64632 -15.6637 12
      vertex -4.86702 -14.9791 12
      vertex -18.5 -20 12
    endloop
  endfacet
  facet normal 0 0 1
    outer loop
      vertex -15.75 0 12
      vertex -15.4058 3.27461 12
      vertex -18.5 20 12
    endloop
  endfacet
  facet normal 0 -0 1
    outer loop
      vertex -7.875 -13.6399 12
      vertex -18.5 -20 12
      vertex -4.86702 -14.9791 12
    endloop
  endfacet
  facet normal 0 0 1
    outer loop
      vertex -12.742 9.25762 12
      vertex -10.5388 11.7045 12
      vertex -18.5 20 12
    endloop
  endfacet
  facet normal 0 -0 1
    outer loop
      vertex -10.5388 -11.7045 12
      vertex -18.5 -20 12
      vertex -7.875 -13.6399 12
    endloop
  endfacet
  facet normal 0 -0 1
    outer loop
      vertex -12.742 -9.25762 12
      vertex -18.5 -20 12
      vertex -10.5388 -11.7045 12
    endloop
  endfacet
  facet normal 0 -0 1
    outer loop
      vertex -14.3883 -6.4061 12
      vertex -18.5 -20 12
      vertex -12.742 -9.25762 12
    endloop
  endfacet
  facet normal 0 -0 1
    outer loop
      vertex -15.4058 -3.27461 12
      vertex -18.5 -20 12
      vertex -14.3883 -6.4061 12
    endloop
  endfacet
  facet normal 0 -0 1
    outer loop
      vertex -18.5 20 12
      vertex -18.5 -20 12
      vertex -15.4058 -3.27461 12
    endloop
  endfacet
  facet normal 0 0 1
    outer loop
      vertex -18.5 20 12
      vertex -15.4058 -3.27461 12
      vertex -15.75 0 12
    endloop
  endfacet
  facet normal 0 0 1
    outer loop
      vertex -14.3883 6.4061 12
      vertex -12.742 9.25762 12
      vertex -18.5 20 12
    endloop
  endfacet
  facet normal 0 0 1
    outer loop
      vertex -15.4058 3.27461 12
      vertex -14.3883 6.4061 12
      vertex -18.5 20 12
    endloop
  endfacet
  facet normal -0 0 1
    outer loop
      vertex -4.86702 14.9791 12
      vertex -18.5 20 12
      vertex -7.875 13.6399 12
    endloop
  endfacet
  facet normal -0 0 1
    outer loop
      vertex -1.64632 15.6637 12
      vertex -18.5 20 12
      vertex -4.86702 14.9791 12
    endloop
  endfacet
  facet normal -0 0 1
    outer loop
      vertex 1.64632 15.6637 12
      vertex -18.5 20 12
      vertex -1.64632 15.6637 12
    endloop
  endfacet
  facet normal 0 0 1
    outer loop
      vertex 4.86702 14.9791 12
      vertex -18.5 20 12
      vertex 1.64632 15.6637 12
    endloop
  endfacet
  facet normal 0 0 1
    outer loop
      vertex 18.5 20 12
      vertex -18.5 20 12
      vertex 4.86702 14.9791 12
    endloop
  endfacet
  facet normal 0 0 1
    outer loop
      vertex 18.5 20 12
      vertex 4.86702 14.9791 12
      vertex 7.875 13.6399 12
    endloop
  endfacet
  facet normal 0 0 1
    outer loop
      vertex 15.4058 3.27461 12
      vertex 18.5 2.5 12
      vertex 14.3883 6.4061 12
    endloop
  endfacet
  facet normal 0 0 1
    outer loop
      vertex 18.5 20 12
      vertex 7.875 13.6399 12
      vertex 10.5388 11.7045 12
    endloop
  endfacet
  facet normal 0 0 1
    outer loop
      vertex 18.5 20 12
      vertex 10.5388 11.7045 12
      vertex 12.742 9.25762 12
    endloop
  endfacet
  facet normal 0 0 1
    outer loop
      vertex 18.5 2.5 12
      vertex 12.742 9.25762 12
      vertex 14.3883 6.4061 12
    endloop
  endfacet
  facet normal 0 0 1
    outer loop
      vertex 18.5 20 12
      vertex 12.742 9.25762 12
      vertex 18.5 2.5 12
    endloop
  endfacet
  facet normal 0 -0 1
    outer loop
      vertex 12.742 -9.25762 12
      vertex 10.5388 -11.7045 12
      vertex 18.5 -20 12
    endloop
  endfacet
  facet normal 0 0 1
    outer loop
      vertex -10.5388 11.7045 12
      vertex -7.875 13.6399 12
      vertex -18.5 20 12
    endloop
  endfacet
  facet normal 1 0 -0
    outer loop
      vertex 18.5 -20 12
      vertex 18.5 -20 0
      vertex 18.5 -2.5 0
    endloop
  endfacet
  facet normal 1 0 0
    outer loop
      vertex 18.5 -2.5 12
      vertex 18.5 -20 12
      vertex 18.5 -2.5 0
    endloop
  endfacet
  facet normal 0 -1 0
    outer loop
      vertex 40 -2.5 25
      vertex 13.1405 -2.5 25
      vertex 13.2372 -2.5 19
    endloop
  endfacet
  facet normal 0 -1 -0
    outer loop
      vertex 15.4872 -2.5 12
      vertex 40 -2.5 25
      vertex 15.4872 -2.5 19
    endloop
  endfacet
  facet normal 0 -1 -0
    outer loop
      vertex 15.4872 -2.5 19
      vertex 40 -2.5 25
      vertex 13.2372 -2.5 19
    endloop
  endfacet
  facet normal 0 -1 -0
    outer loop
      vertex 18.5 -2.5 12
      vertex 40 -2.5 25
      vertex 15.4872 -2.5 12
    endloop
  endfacet
  facet normal 0 -1 -0
    outer loop
      vertex 18.5 -2.5 0
      vertex 40 -2.5 25
      vertex 18.5 -2.5 12
    endloop
  endfacet
  facet normal 0 -1 0
    outer loop
      vertex 40 -2.5 0
      vertex 40 -2.5 25
      vertex 18.5 -2.5 0
    endloop
  endfacet
  facet normal 1 0 -0
    outer loop
      vertex 40 -2.5 25
      vertex 40 -2.5 0
      vertex 40 2.5 0
    endloop
  endfacet
  facet normal 1 0 0
    outer loop
      vertex 40 2.5 25
      vertex 40 -2.5 25
      vertex 40 2.5 0
    endloop
  endfacet
  facet normal 0 1 0
    outer loop
      vertex 13.1405 2.5 25
      vertex 40 2.5 25
      vertex 13.1826 2.5 22.3886
    endloop
  endfacet
  facet normal 0 1 0
    outer loop
      vertex 13.1826 2.5 22.3886
      vertex 40 2.5 25
      vertex 40 2.5 0
    endloop
  endfacet
  facet normal 0 1 -0
    outer loop
      vertex 18.5 2.5 12
      vertex 40 2.5 0
      vertex 18.5 2.5 0
    endloop
  endfacet
  facet normal 0 1 0
    outer loop
      vertex 15.4872 2.5 19
      vertex 40 2.5 0
      vertex 18.5 2.5 12
    endloop
  endfacet
  facet normal 0 1 -0
    outer loop
      vertex 15.4872 2.5 19
      vertex 18.5 2.5 12
      vertex 15.4872 2.5 12
    endloop
  endfacet
  facet normal 0 1 0
    outer loop
      vertex 13.1826 2.5 22.3886
      vertex 40 2.5 0
      vertex 15.4872 2.5 19
    endloop
  endfacet
  facet normal 0 1 0
    outer loop
      vertex 13.2372 2.5 19
      vertex 13.1826 2.5 22.3886
      vertex 15.4872 2.5 19
    endloop
  endfacet
  facet normal 1 0 -0
    outer loop
      vertex 18.5 2.5 12
      vertex 18.5 2.5 0
      vertex 18.5 20 0
    endloop
  endfacet
  facet normal 1 0 0
    outer loop
      vertex 18.5 20 12
      vertex 18.5 2.5 12
      vertex 18.5 20 0
    endloop
  endfacet
  facet normal 0.994522 0.104528 0
    outer loop
      vertex 15.4872 2.5 12
      vertex 15.4058 3.27461 12
      vertex 15.4058 3.27461 19
    endloop
  endfacet
  facet normal 0.994522 0.104528 -0
    outer loop
      vertex 15.4872 2.5 19
      vertex 15.4872 2.5 12
      vertex 15.4058 3.27461 19
    endloop
  endfacet
  facet normal 0.951056 0.309017 0
    outer loop
      vertex 15.4058 3.27461 12
      vertex 14.3883 6.4061 12
      vertex 14.3883 6.4061 19
    endloop
  endfacet
  facet normal 0.951056 0.309017 -0
    outer loop
      vertex 15.4058 3.27461 19
      vertex 15.4058 3.27461 12
      vertex 14.3883 6.4061 19
    endloop
  endfacet
  facet normal 0.866025 0.5 0
    outer loop
      vertex 14.3883 6.4061 12
      vertex 12.742 9.25762 12
      vertex 12.742 9.25762 19
    endloop
  endfacet
  facet normal 0.866025 0.5 -0
    outer loop
      vertex 14.3883 6.4061 19
      vertex 14.3883 6.4061 12
      vertex 12.742 9.25762 19
    endloop
  endfacet
  facet normal 0.743145 0.669131 0
    outer loop
      vertex 12.742 9.25762 12
      vertex 10.5388 11.7045 12
      vertex 10.5388 11.7045 19
    endloop
  endfacet
  facet normal 0.743145 0.669131 -0
    outer loop
      vertex 12.742 9.25762 19
      vertex 12.742 9.25762 12
      vertex 10.5388 11.7045 19
    endloop
  endfacet
  facet normal 0.587785 0.809017 0
    outer loop
      vertex 7.875 13.6399 12
      vertex 7.875 13.6399 19
      vertex 10.5388 11.7045 12
    endloop
  endfacet
  facet normal 0.587785 0.809017 0
    outer loop
      vertex 10.5388 11.7045 12
      vertex 7.875 13.6399 19
      vertex 10.5388 11.7045 19
    endloop
  endfacet
  facet normal 0.406737 0.913545 0
    outer loop
      vertex 4.86702 14.9791 12
      vertex 4.86702 14.9791 19
      vertex 7.875 13.6399 12
    endloop
  endfacet
  facet normal 0.406737 0.913545 0
    outer loop
      vertex 7.875 13.6399 12
      vertex 4.86702 14.9791 19
      vertex 7.875 13.6399 19
    endloop
  endfacet
  facet normal 0.207912 0.978148 0
    outer loop
      vertex 1.64632 15.6637 12
      vertex 1.64632 15.6637 16
      vertex 4.86702 14.9791 12
    endloop
  endfacet
  facet normal 0.207912 0.978148 8.02231e-16
    outer loop
      vertex 4.86702 14.9791 12
      vertex 1.64632 15.6637 16
      vertex 3 15.376 16
    endloop
  endfacet
  facet normal 0.207912 0.978148 0
    outer loop
      vertex 4.86702 14.9791 12
      vertex 3 15.376 16
      vertex 3 15.376 19
    endloop
  endfacet
  facet normal 0.207912 0.978148 0
    outer loop
      vertex 4.86702 14.9791 12
      vertex 3 15.376 19
      vertex 4.86702 14.9791 19
    endloop
  endfacet
  facet normal 0 1 0
    outer loop
      vertex -1.64632 15.6637 12
      vertex -1.64632 15.6637 16
      vertex 1.64632 15.6637 12
    endloop
  endfacet
  facet normal 0 1 0
    outer loop
      vertex 1.64632 15.6637 12
      vertex -1.64632 15.6637 16
      vertex 1.64632 15.6637 16
    endloop
  endfacet
  facet normal -0.207912 0.978148 0
    outer loop
      vertex -4.86702 14.9791 12
      vertex -4.86702 14.9791 19
      vertex -1.64632 15.6637 12
    endloop
  endfacet
  facet normal -0.207912 0.978148 0
    outer loop
      vertex -3 15.376 16
      vertex -4.86702 14.9791 19
      vertex -3 15.376 19
    endloop
  endfacet
  facet normal -0.207912 0.978148 1.31779e-15
    outer loop
      vertex -1.64632 15.6637 12
      vertex -4.86702 14.9791 19
      vertex -3 15.376 16
    endloop
  endfacet
  facet normal -0.207912 0.978148 0
    outer loop
      vertex -1.64632 15.6637 16
      vertex -1.64632 15.6637 12
      vertex -3 15.376 16
    endloop
  endfacet
  facet normal -0.406737 0.913545 0
    outer loop
      vertex -7.875 13.6399 12
      vertex -7.875 13.6399 19
      vertex -4.86702 14.9791 12
    endloop
  endfacet
  facet normal -0.406737 0.913545 0
    outer loop
      vertex -4.86702 14.9791 12
      vertex -7.875 13.6399 19
      vertex -4.86702 14.9791 19
    endloop
  endfacet
  facet normal -0.587785 0.809017 0
    outer loop
      vertex -10.5388 11.7045 12
      vertex -10.5388 11.7045 19
      vertex -7.875 13.6399 12
    endloop
  endfacet
  facet normal -0.587785 0.809017 0
    outer loop
      vertex -7.875 13.6399 12
      vertex -10.5388 11.7045 19
      vertex -7.875 13.6399 19
    endloop
  endfacet
  facet normal -0.743145 0.669131 0
    outer loop
      vertex -12.742 9.25762 12
      vertex -12.742 9.25762 19
      vertex -10.5388 11.7045 12
    endloop
  endfacet
  facet normal -0.743145 0.669131 0
    outer loop
      vertex -10.5388 11.7045 12
      vertex -12.742 9.25762 19
      vertex -10.5388 11.7045 19
    endloop
  endfacet
  facet normal -0.866025 0.5 0
    outer loop
      vertex -14.3883 6.4061 12
      vertex -14.3883 6.4061 19
      vertex -12.742 9.25762 12
    endloop
  endfacet
  facet normal -0.866025 0.5 0
    outer loop
      vertex -12.742 9.25762 12
      vertex -14.3883 6.4061 19
      vertex -12.742 9.25762 19
    endloop
  endfacet
  facet normal -0.951056 0.309017 0
    outer loop
      vertex -15.4058 3.27461 12
      vertex -15.4058 3.27461 19
      vertex -14.3883 6.4061 12
    endloop
  endfacet
  facet normal -0.951056 0.309017 0
    outer loop
      vertex -14.3883 6.4061 12
      vertex -15.4058 3.27461 19
      vertex -14.3883 6.4061 19
    endloop
  endfacet
  facet normal -0.994522 0.104528 0
    outer loop
      vertex -15.75 0 12
      vertex -15.75 0 19
      vertex -15.4058 3.27461 12
    endloop
  endfacet
  facet normal -0.994522 0.104528 0
    outer loop
      vertex -15.4058 3.27461 12
      vertex -15.75 0 19
      vertex -15.4058 3.27461 19
    endloop
  endfacet
  facet normal -0.994522 -0.104528 -0
    outer loop
      vertex -15.75 0 12
      vertex -15.4058 -3.27461 12
      vertex -15.75 0 19
    endloop
  endfacet
  facet normal -0.994522 -0.104528 0
    outer loop
      vertex -15.75 0 19
      vertex -15.4058 -3.27461 12
      vertex -15.4058 -3.27461 19
    endloop
  endfacet
  facet normal -0.951056 -0.309017 -0
    outer loop
      vertex -15.4058 -3.27461 12
      vertex -14.3883 -6.4061 12
      vertex -15.4058 -3.27461 19
    endloop
  endfacet
  facet normal -0.951056 -0.309017 0
    outer loop
      vertex -15.4058 -3.27461 19
      vertex -14.3883 -6.4061 12
      vertex -14.3883 -6.4061 19
    endloop
  endfacet
  facet normal -0.866025 -0.5 -0
    outer loop
      vertex -14.3883 -6.4061 12
      vertex -12.742 -9.25762 12
      vertex -14.3883 -6.4061 19
    endloop
  endfacet
  facet normal -0.866025 -0.5 0
    outer loop
      vertex -14.3883 -6.4061 19
      vertex -12.742 -9.25762 12
      vertex -12.742 -9.25762 19
    endloop
  endfacet
  facet normal -0.743145 -0.669131 -0
    outer loop
      vertex -12.742 -9.25762 12
      vertex -10.5388 -11.7045 12
      vertex -12.742 -9.25762 19
    endloop
  endfacet
  facet normal -0.743145 -0.669131 0
    outer loop
      vertex -12.742 -9.25762 19
      vertex -10.5388 -11.7045 12
      vertex -10.5388 -11.7045 19
    endloop
  endfacet
  facet normal -0.587785 -0.809017 0
    outer loop
      vertex -10.5388 -11.7045 19
      vertex -10.5388 -11.7045 12
      vertex -7.875 -13.6399 12
    endloop
  endfacet
  facet normal -0.587785 -0.809017 0
    outer loop
      vertex -7.875 -13.6399 19
      vertex -10.5388 -11.7045 19
      vertex -7.875 -13.6399 12
    endloop
  endfacet
  facet normal -0.406737 -0.913545 0
    outer loop
      vertex -7.875 -13.6399 19
      vertex -7.875 -13.6399 12
      vertex -4.86702 -14.9791 12
    endloop
  endfacet
  facet normal -0.406737 -0.913545 0
    outer loop
      vertex -4.86702 -14.9791 19
      vertex -7.875 -13.6399 19
      vertex -4.86702 -14.9791 12
    endloop
  endfacet
  facet normal -0.207912 -0.978148 0
    outer loop
      vertex -4.86702 -14.9791 19
      vertex -4.86702 -14.9791 12
      vertex -1.64632 -15.6637 12
    endloop
  endfacet
  facet normal -0.207912 -0.978148 1.30684e-15
    outer loop
      vertex -3 -15.376 16
      vertex -4.86702 -14.9791 19
      vertex -1.64632 -15.6637 12
    endloop
  endfacet
  facet normal -0.207912 -0.978148 0
    outer loop
      vertex -1.64632 -15.6637 16
      vertex -3 -15.376 16
      vertex -1.64632 -15.6637 12
    endloop
  endfacet
  facet normal -0.207912 -0.978148 -0
    outer loop
      vertex -3 -15.376 16
      vertex -3 -15.376 19
      vertex -4.86702 -14.9791 19
    endloop
  endfacet
  facet normal 0 -1 0
    outer loop
      vertex -1.64632 -15.6637 16
      vertex -1.64632 -15.6637 12
      vertex 1.64632 -15.6637 12
    endloop
  endfacet
  facet normal 0 -1 0
    outer loop
      vertex 1.64632 -15.6637 16
      vertex -1.64632 -15.6637 16
      vertex 1.64632 -15.6637 12
    endloop
  endfacet
  facet normal 0.207912 -0.978148 0
    outer loop
      vertex 1.64632 -15.6637 16
      vertex 1.64632 -15.6637 12
      vertex 4.86702 -14.9791 12
    endloop
  endfacet
  facet normal 0.207912 -0.978148 8.22287e-16
    outer loop
      vertex 3 -15.376 16
      vertex 1.64632 -15.6637 16
      vertex 4.86702 -14.9791 12
    endloop
  endfacet
  facet normal 0.207912 -0.978148 0
    outer loop
      vertex 4.86702 -14.9791 19
      vertex 3 -15.376 16
      vertex 4.86702 -14.9791 12
    endloop
  endfacet
  facet normal 0.207912 -0.978148 0
    outer loop
      vertex 3 -15.376 19
      vertex 3 -15.376 16
      vertex 4.86702 -14.9791 19
    endloop
  endfacet
  facet normal 0.406737 -0.913545 0
    outer loop
      vertex 4.86702 -14.9791 19
      vertex 4.86702 -14.9791 12
      vertex 7.875 -13.6399 12
    endloop
  endfacet
  facet normal 0.406737 -0.913545 0
    outer loop
      vertex 7.875 -13.6399 19
      vertex 4.86702 -14.9791 19
      vertex 7.875 -13.6399 12
    endloop
  endfacet
  facet normal 0.587785 -0.809017 0
    outer loop
      vertex 7.875 -13.6399 19
      vertex 7.875 -13.6399 12
      vertex 10.5388 -11.7045 12
    endloop
  endfacet
  facet normal 0.587785 -0.809017 0
    outer loop
      vertex 10.5388 -11.7045 19
      vertex 7.875 -13.6399 19
      vertex 10.5388 -11.7045 12
    endloop
  endfacet
  facet normal 0.743145 -0.669131 0
    outer loop
      vertex 10.5388 -11.7045 19
      vertex 10.5388 -11.7045 12
      vertex 12.742 -9.25762 12
    endloop
  endfacet
  facet normal 0.743145 -0.669131 0
    outer loop
      vertex 12.742 -9.25762 19
      vertex 10.5388 -11.7045 19
      vertex 12.742 -9.25762 12
    endloop
  endfacet
  facet normal 0.866025 -0.5 0
    outer loop
      vertex 12.742 -9.25762 19
      vertex 12.742 -9.25762 12
      vertex 14.3883 -6.4061 12
    endloop
  endfacet
  facet normal 0.866025 -0.5 0
    outer loop
      vertex 14.3883 -6.4061 19
      vertex 12.742 -9.25762 19
      vertex 14.3883 -6.4061 12
    endloop
  endfacet
  facet normal 0.951056 -0.309017 0
    outer loop
      vertex 14.3883 -6.4061 19
      vertex 14.3883 -6.4061 12
      vertex 15.4058 -3.27461 12
    endloop
  endfacet
  facet normal 0.951056 -0.309017 0
    outer loop
      vertex 15.4058 -3.27461 19
      vertex 14.3883 -6.4061 19
      vertex 15.4058 -3.27461 12
    endloop
  endfacet
  facet normal 0.994522 -0.104528 0
    outer loop
      vertex 15.4058 -3.27461 19
      vertex 15.4058 -3.27461 12
      vertex 15.4872 -2.5 12
    endloop
  endfacet
  facet normal 0.994522 -0.104528 0
    outer loop
      vertex 15.4872 -2.5 19
      vertex 15.4058 -3.27461 19
      vertex 15.4872 -2.5 12
    endloop
  endfacet
  facet normal 0 -0 1
    outer loop
      vertex 13.3482 -0.523133 25
      vertex 13.1405 -2.5 25
      vertex 40 -2.5 25
    endloop
  endfacet
  facet normal 0 -0 1
    outer loop
      vertex 13.4032 0 25
      vertex 13.3482 -0.523133 25
      vertex 40 2.5 25
    endloop
  endfacet
  facet normal 0 0 1
    outer loop
      vertex 40 2.5 25
      vertex 13.3482 -0.523133 25
      vertex 40 -2.5 25
    endloop
  endfacet
  facet normal 0 0 1
    outer loop
      vertex 13.1405 2.5 25
      vertex 13.1653 2.26355 25
      vertex 40 2.5 25
    endloop
  endfacet
  facet normal 0 0 1
    outer loop
      vertex 13.1653 2.26355 25
      vertex 13.4032 0 25
      vertex 40 2.5 25
    endloop
  endfacet
  facet normal 0 -0 1
    outer loop
      vertex 3 -13.0883 19
      vertex 3 -15.376 19
      vertex 4.86702 -14.9791 19
    endloop
  endfacet
  facet normal 0 0 1
    outer loop
      vertex 10.5388 -11.7045 19
      vertex 3 -13.0883 19
      vertex 7.875 -13.6399 19
    endloop
  endfacet
  facet normal -0 0 1
    outer loop
      vertex 7.875 -13.6399 19
      vertex 3 -13.0883 19
      vertex 4.86702 -14.9791 19
    endloop
  endfacet
  facet normal 0 -0 1
    outer loop
      vertex 4.17173 -12.8393 19
      vertex 3 -13.0883 19
      vertex 10.5388 -11.7045 19
    endloop
  endfacet
  facet normal 0 -0 1
    outer loop
      vertex 9.03326 -10.0325 19
      vertex 6.75 -11.6913 19
      vertex 12.742 -9.25762 19
    endloop
  endfacet
  facet normal 0 -0 1
    outer loop
      vertex 10.9217 -7.9351 19
      vertex 9.03326 -10.0325 19
      vertex 14.3883 -6.4061 19
    endloop
  endfacet
  facet normal 0 -0 1
    outer loop
      vertex 12.3329 -5.49094 19
      vertex 10.9217 -7.9351 19
      vertex 15.4058 -3.27461 19
    endloop
  endfacet
  facet normal 0 -0 1
    outer loop
      vertex 13.2372 -2.5 19
      vertex 13.205 -2.80681 19
      vertex 15.4872 -2.5 19
    endloop
  endfacet
  facet normal 0 0 1
    outer loop
      vertex 15.4872 -2.5 19
      vertex 12.3329 -5.49094 19
      vertex 15.4058 -3.27461 19
    endloop
  endfacet
  facet normal 0 0 1
    outer loop
      vertex 15.4058 -3.27461 19
      vertex 10.9217 -7.9351 19
      vertex 14.3883 -6.4061 19
    endloop
  endfacet
  facet normal 0 0 1
    outer loop
      vertex 14.3883 -6.4061 19
      vertex 9.03326 -10.0325 19
      vertex 12.742 -9.25762 19
    endloop
  endfacet
  facet normal 0 0 1
    outer loop
      vertex 12.742 -9.25762 19
      vertex 6.75 -11.6913 19
      vertex 10.5388 -11.7045 19
    endloop
  endfacet
  facet normal 0 -0 1
    outer loop
      vertex 6.75 -11.6913 19
      vertex 4.17173 -12.8393 19
      vertex 10.5388 -11.7045 19
    endloop
  endfacet
  facet normal 0 -0 1
    outer loop
      vertex 13.205 -2.80681 19
      vertex 12.3329 -5.49094 19
      vertex 15.4872 -2.5 19
    endloop
  endfacet
  facet normal 0.994394 -0.104515 0.0160386
    outer loop
      vertex 13.1405 -2.5 25
      vertex 12.7159 -2.70285 50
      vertex 13.205 -2.80681 19
    endloop
  endfacet
  facet normal 0.994394 -0.104515 0.0160386
    outer loop
      vertex 13.3482 -0.523133 25
      vertex 12.7159 -2.70285 50
      vertex 13.1405 -2.5 25
    endloop
  endfacet
  facet normal 0.994394 -0.104515 0.0160386
    outer loop
      vertex 13.2372 -2.5 19
      vertex 13.1405 -2.5 25
      vertex 13.205 -2.80681 19
    endloop
  endfacet
  facet normal 0.994394 0.104515 0.0160386
    outer loop
      vertex 13.1653 2.26355 25
      vertex 12.7159 2.70285 50
      vertex 13 0 50
    endloop
  endfacet
  facet normal 0.994394 0.104515 0.0160386
    outer loop
      vertex 13.1405 2.5 25
      vertex 12.7159 2.70285 50
      vertex 13.1653 2.26355 25
    endloop
  endfacet
  facet normal 0.994394 0.104515 0.0160386
    outer loop
      vertex 13.205 2.80681 19
      vertex 12.7159 2.70285 50
      vertex 13.1405 2.5 25
    endloop
  endfacet
  facet normal 0.994394 0.104515 0.0160386
    outer loop
      vertex 13.205 2.80681 19
      vertex 13.1405 2.5 25
      vertex 13.1826 2.5 22.3886
    endloop
  endfacet
  facet normal 0.994394 0.104515 0.0160386
    outer loop
      vertex 13.205 2.80681 19
      vertex 13.1826 2.5 22.3886
      vertex 13.2372 2.5 19
    endloop
  endfacet
  facet normal 0 0 1
    outer loop
      vertex 9.03326 10.0325 19
      vertex 14.3883 6.4061 19
      vertex 3 15.376 19
    endloop
  endfacet
  facet normal 0 -0 1
    outer loop
      vertex 3 15.376 19
      vertex 3 13.0883 19
      vertex 4.17173 12.8393 19
    endloop
  endfacet
  facet normal 0 0 1
    outer loop
      vertex 10.9217 7.9351 19
      vertex 15.4058 3.27461 19
      vertex 9.03326 10.0325 19
    endloop
  endfacet
  facet normal 0 0 1
    outer loop
      vertex 6.75 11.6913 19
      vertex 3 15.376 19
      vertex 4.17173 12.8393 19
    endloop
  endfacet
  facet normal 0 0 1
    outer loop
      vertex 6.75 11.6913 19
      vertex 9.03326 10.0325 19
      vertex 3 15.376 19
    endloop
  endfacet
  facet normal 0 0 1
    outer loop
      vertex 12.3329 5.49094 19
      vertex 15.4872 2.5 19
      vertex 10.9217 7.9351 19
    endloop
  endfacet
  facet normal 0 0 1
    outer loop
      vertex 13.205 2.80681 19
      vertex 15.4872 2.5 19
      vertex 12.3329 5.49094 19
    endloop
  endfacet
  facet normal 0 0 1
    outer loop
      vertex 13.2372 2.5 19
      vertex 15.4872 2.5 19
      vertex 13.205 2.80681 19
    endloop
  endfacet
  facet normal 0 0 1
    outer loop
      vertex 15.4872 2.5 19
      vertex 15.4058 3.27461 19
      vertex 10.9217 7.9351 19
    endloop
  endfacet
  facet normal 0 0 1
    outer loop
      vertex 15.4058 3.27461 19
      vertex 14.3883 6.4061 19
      vertex 9.03326 10.0325 19
    endloop
  endfacet
  facet normal 0 0 1
    outer loop
      vertex 14.3883 6.4061 19
      vertex 12.742 9.25762 19
      vertex 3 15.376 19
    endloop
  endfacet
  facet normal 0 0 1
    outer loop
      vertex 12.742 9.25762 19
      vertex 10.5388 11.7045 19
      vertex 3 15.376 19
    endloop
  endfacet
  facet normal 0 0 1
    outer loop
      vertex 10.5388 11.7045 19
      vertex 7.875 13.6399 19
      vertex 3 15.376 19
    endloop
  endfacet
  facet normal 0 0 1
    outer loop
      vertex 7.875 13.6399 19
      vertex 4.86702 14.9791 19
      vertex 3 15.376 19
    endloop
  endfacet
  facet normal -1 0 0
    outer loop
      vertex 3 12.8997 30.5
      vertex 3 13.0883 19
      vertex 3 11.5 30.5
    endloop
  endfacet
  facet normal -1 0 0
    outer loop
      vertex 3 15.376 16
      vertex 3 13.0883 19
      vertex 3 15.376 19
    endloop
  endfacet
  facet normal -1 -0 0
    outer loop
      vertex 3 11.5 16
      vertex 3 13.0883 19
      vertex 3 15.376 16
    endloop
  endfacet
  facet normal -1 0 0
    outer loop
      vertex 3 11.5 30.5
      vertex 3 13.0883 19
      vertex 3 11.5 16
    endloop
  endfacet
  facet normal 0 0 1
    outer loop
      vertex 3 11.5 16
      vertex 3 15.376 16
      vertex 1.64632 15.6637 16
    endloop
  endfacet
  facet normal 0 0 1
    outer loop
      vertex -3 15.376 16
      vertex 3 11.5 16
      vertex -1.64632 15.6637 16
    endloop
  endfacet
  facet normal 0 0 1
    outer loop
      vertex -1.64632 15.6637 16
      vertex 3 11.5 16
      vertex 1.64632 15.6637 16
    endloop
  endfacet
  facet normal 0 0 1
    outer loop
      vertex -3 11.5 16
      vertex 3 11.5 16
      vertex -3 15.376 16
    endloop
  endfacet
  facet normal 1 0 0
    outer loop
      vertex -3 15.376 16
      vertex -3 15.376 19
      vertex -3 13.0883 19
    endloop
  endfacet
  facet normal 1 0 0
    outer loop
      vertex -3 11.5 16
      vertex -3 15.376 16
      vertex -3 13.0883 19
    endloop
  endfacet
  facet normal 1 0 -0
    outer loop
      vertex -3 12.8997 30.5
      vertex -3 11.5 30.5
      vertex -3 13.0883 19
    endloop
  endfacet
  facet normal 1 0 -0
    outer loop
      vertex -3 11.5 30.5
      vertex -3 11.5 16
      vertex -3 13.0883 19
    endloop
  endfacet
  facet normal 0 0 1
    outer loop
      vertex -15.4058 3.27461 19
      vertex -15.75 0 19
      vertex -15.4058 -3.27461 19
    endloop
  endfacet
  facet normal 0 0 1
    outer loop
      vertex -12.742 -9.25762 19
      vertex -15.4058 3.27461 19
      vertex -14.3883 -6.4061 19
    endloop
  endfacet
  facet normal 0 0 1
    outer loop
      vertex -14.3883 -6.4061 19
      vertex -15.4058 3.27461 19
      vertex -15.4058 -3.27461 19
    endloop
  endfacet
  facet normal 0 0 1
    outer loop
      vertex -10.5388 -11.7045 19
      vertex -15.4058 3.27461 19
      vertex -12.742 -9.25762 19
    endloop
  endfacet
  facet normal -0 -0 1
    outer loop
      vertex -12.3329 -5.49094 19
      vertex -15.4058 3.27461 19
      vertex -10.5388 -11.7045 19
    endloop
  endfacet
  facet normal -0 -0 1
    outer loop
      vertex -9.03326 -10.0325 19
      vertex -10.9217 -7.9351 19
      vertex -7.875 -13.6399 19
    endloop
  endfacet
  facet normal -0 0 1
    outer loop
      vertex -3 -13.0883 19
      vertex -4.17173 -12.8393 19
      vertex -3 -15.376 19
    endloop
  endfacet
  facet normal 0 0 1
    outer loop
      vertex -3 -15.376 19
      vertex -6.75 -11.6913 19
      vertex -4.86702 -14.9791 19
    endloop
  endfacet
  facet normal 0 0 1
    outer loop
      vertex -4.86702 -14.9791 19
      vertex -9.03326 -10.0325 19
      vertex -7.875 -13.6399 19
    endloop
  endfacet
  facet normal 0 0 1
    outer loop
      vertex -13.5 0 19
      vertex -13.205 2.80681 19
      vertex -15.4058 3.27461 19
    endloop
  endfacet
  facet normal 0 0 1
    outer loop
      vertex -7.875 -13.6399 19
      vertex -10.9217 -7.9351 19
      vertex -10.5388 -11.7045 19
    endloop
  endfacet
  facet normal -0 -0 1
    outer loop
      vertex -10.9217 -7.9351 19
      vertex -12.3329 -5.49094 19
      vertex -10.5388 -11.7045 19
    endloop
  endfacet
  facet normal -0 -0 1
    outer loop
      vertex -13.205 -2.80681 19
      vertex -15.4058 3.27461 19
      vertex -12.3329 -5.49094 19
    endloop
  endfacet
  facet normal -0 -0 1
    outer loop
      vertex -6.75 -11.6913 19
      vertex -9.03326 -10.0325 19
      vertex -4.86702 -14.9791 19
    endloop
  endfacet
  facet normal 0 0 1
    outer loop
      vertex -12.3329 5.49094 19
      vertex -15.4058 3.27461 19
      vertex -13.205 2.80681 19
    endloop
  endfacet
  facet normal 0 0 1
    outer loop
      vertex -10.9217 7.9351 19
      vertex -15.4058 3.27461 19
      vertex -12.3329 5.49094 19
    endloop
  endfacet
  facet normal 0 0 1
    outer loop
      vertex -9.03326 10.0325 19
      vertex -15.4058 3.27461 19
      vertex -10.9217 7.9351 19
    endloop
  endfacet
  facet normal 0 0 1
    outer loop
      vertex -4.86702 14.9791 19
      vertex -15.4058 3.27461 19
      vertex -9.03326 10.0325 19
    endloop
  endfacet
  facet normal 0 0 1
    outer loop
      vertex -3 15.376 19
      vertex -9.03326 10.0325 19
      vertex -6.75 11.6913 19
    endloop
  endfacet
  facet normal 0 0 1
    outer loop
      vertex -3 15.376 19
      vertex -6.75 11.6913 19
      vertex -4.17173 12.8393 19
    endloop
  endfacet
  facet normal 0 0 1
    outer loop
      vertex -3 15.376 19
      vertex -4.17173 12.8393 19
      vertex -3 13.0883 19
    endloop
  endfacet
  facet normal 0 -0 1
    outer loop
      vertex -4.86702 14.9791 19
      vertex -9.03326 10.0325 19
      vertex -3 15.376 19
    endloop
  endfacet
  facet normal 0 -0 1
    outer loop
      vertex -7.875 13.6399 19
      vertex -15.4058 3.27461 19
      vertex -4.86702 14.9791 19
    endloop
  endfacet
  facet normal 0 -0 1
    outer loop
      vertex -10.5388 11.7045 19
      vertex -15.4058 3.27461 19
      vertex -7.875 13.6399 19
    endloop
  endfacet
  facet normal 0 -0 1
    outer loop
      vertex -12.742 9.25762 19
      vertex -15.4058 3.27461 19
      vertex -10.5388 11.7045 19
    endloop
  endfacet
  facet normal 0 -0 1
    outer loop
      vertex -14.3883 6.4061 19
      vertex -15.4058 3.27461 19
      vertex -12.742 9.25762 19
    endloop
  endfacet
  facet normal -0 -0 1
    outer loop
      vertex -4.17173 -12.8393 19
      vertex -6.75 -11.6913 19
      vertex -3 -15.376 19
    endloop
  endfacet
  facet normal 0 0 1
    outer loop
      vertex -13.205 -2.80681 19
      vertex -13.5 0 19
      vertex -15.4058 3.27461 19
    endloop
  endfacet
  facet normal 1 0 0
    outer loop
      vertex -3 -11.5 16
      vertex -3 -11.5 30.5
      vertex -3 -12.8997 30.5
    endloop
  endfacet
  facet normal 1 0 0
    outer loop
      vertex -3 -15.376 19
      vertex -3 -11.5 16
      vertex -3 -13.0883 19
    endloop
  endfacet
  facet normal 1 0 0
    outer loop
      vertex -3 -13.0883 19
      vertex -3 -11.5 16
      vertex -3 -12.8997 30.5
    endloop
  endfacet
  facet normal 1 0 0
    outer loop
      vertex -3 -15.376 16
      vertex -3 -11.5 16
      vertex -3 -15.376 19
    endloop
  endfacet
  facet normal 0 0 1
    outer loop
      vertex -1.64632 -15.6637 16
      vertex 1.64632 -15.6637 16
      vertex 3 -15.376 16
    endloop
  endfacet
  facet normal 0 0 1
    outer loop
      vertex -3 -11.5 16
      vertex -1.64632 -15.6637 16
      vertex 3 -11.5 16
    endloop
  endfacet
  facet normal 0 0 1
    outer loop
      vertex 3 -11.5 16
      vertex -1.64632 -15.6637 16
      vertex 3 -15.376 16
    endloop
  endfacet
  facet normal 0 0 1
    outer loop
      vertex -3 -15.376 16
      vertex -1.64632 -15.6637 16
      vertex -3 -11.5 16
    endloop
  endfacet
  facet normal -1 0 0
    outer loop
      vertex 3 -13.0883 19
      vertex 3 -12.8997 30.5
      vertex 3 -11.5 30.5
    endloop
  endfacet
  facet normal -1 -0 0
    outer loop
      vertex 3 -13.0883 19
      vertex 3 -11.5 30.5
      vertex 3 -11.5 16
    endloop
  endfacet
  facet normal -1 0 0
    outer loop
      vertex 3 -13.0883 19
      vertex 3 -11.5 16
      vertex 3 -15.376 19
    endloop
  endfacet
  facet normal -1 0 0
    outer loop
      vertex 3 -11.5 16
      vertex 3 -15.376 16
      vertex 3 -15.376 19
    endloop
  endfacet
  facet normal 0.994394 -0.104515 0.0160386
    outer loop
      vertex 13 0 50
      vertex 12.7159 -2.70285 50
      vertex 13.3482 -0.523133 25
    endloop
  endfacet
  facet normal 0.994394 -0.104515 0.0160386
    outer loop
      vertex 13.4032 0 25
      vertex 13 0 50
      vertex 13.3482 -0.523133 25
    endloop
  endfacet
  facet normal 0.994394 0.104515 0.0160386
    outer loop
      vertex 13.1653 2.26355 25
      vertex 13 0 50
      vertex 13.4032 0 25
    endloop
  endfacet
  facet normal 0.207885 -0.978022 0.0160386
    outer loop
      vertex 3 -12.8997 30.5
      vertex 3 -13.0883 19
      vertex 4.17173 -12.8393 19
    endloop
  endfacet
  facet normal 0.207885 -0.978022 0.0160386
    outer loop
      vertex 3.12825 -12.8725 30.5
      vertex 3 -12.8997 30.5
      vertex 4.17173 -12.8393 19
    endloop
  endfacet
  facet normal 0.207885 -0.978022 0.0160386
    outer loop
      vertex 4.11441 -12.6629 30.5
      vertex 3.12825 -12.8725 30.5
      vertex 4.17173 -12.8393 19
    endloop
  endfacet
  facet normal 0.406684 -0.913428 0.0160386
    outer loop
      vertex 5.73623 -11.9408 30.5
      vertex 4.11441 -12.6629 30.5
      vertex 4.17173 -12.8393 19
    endloop
  endfacet
  facet normal 0.406684 -0.913428 0.0160386
    outer loop
      vertex 6.75 -11.6913 19
      vertex 5.73623 -11.9408 30.5
      vertex 4.17173 -12.8393 19
    endloop
  endfacet
  facet normal 0.406685 -0.913428 0.0160386
    outer loop
      vertex 6.65726 -11.5307 30.5
      vertex 5.73623 -11.9408 30.5
      vertex 6.75 -11.6913 19
    endloop
  endfacet
  facet normal 0.58771 -0.808913 0.0160386
    outer loop
      vertex 7.38772 -11 30.5
      vertex 6.65726 -11.5307 30.5
      vertex 6.75 -11.6913 19
    endloop
  endfacet
  facet normal 0.58771 -0.808913 0.0160386
    outer loop
      vertex 7.03384 -11 43.4673
      vertex 7.38772 -11 30.5
      vertex 9.03326 -10.0325 19
    endloop
  endfacet
  facet normal 0.58771 -0.808913 0.0160386
    outer loop
      vertex 9.03326 -10.0325 19
      vertex 7.38772 -11 30.5
      vertex 6.75 -11.6913 19
    endloop
  endfacet
  facet normal 0.58771 -0.808913 0.0160386
    outer loop
      vertex 8.6987 -9.66088 50
      vertex 6.85556 -11 50
      vertex 7.03384 -11 43.4673
    endloop
  endfacet
  facet normal 0.58771 -0.808913 0.0160386
    outer loop
      vertex 9.03326 -10.0325 19
      vertex 8.6987 -9.66088 50
      vertex 7.03384 -11 43.4673
    endloop
  endfacet
  facet normal 0.743049 -0.669045 0.0160386
    outer loop
      vertex 10.9217 -7.9351 19
      vertex 8.6987 -9.66088 50
      vertex 9.03326 -10.0325 19
    endloop
  endfacet
  facet normal 0.743049 -0.669044 0.0160386
    outer loop
      vertex 10.5172 -7.64121 50
      vertex 8.6987 -9.66088 50
      vertex 10.9217 -7.9351 19
    endloop
  endfacet
  facet normal 0.865914 -0.499936 0.0160386
    outer loop
      vertex 12.3329 -5.49094 19
      vertex 10.5172 -7.64121 50
      vertex 10.9217 -7.9351 19
    endloop
  endfacet
  facet normal 0.865914 -0.499936 0.0160386
    outer loop
      vertex 11.8761 -5.28758 50
      vertex 10.5172 -7.64121 50
      vertex 12.3329 -5.49094 19
    endloop
  endfacet
  facet normal 0.950934 -0.308977 0.0160386
    outer loop
      vertex 13.205 -2.80681 19
      vertex 11.8761 -5.28758 50
      vertex 12.3329 -5.49094 19
    endloop
  endfacet
  facet normal 0.950934 -0.308977 0.0160386
    outer loop
      vertex 12.7159 -2.70285 50
      vertex 11.8761 -5.28758 50
      vertex 13.205 -2.80681 19
    endloop
  endfacet
  facet normal 0 0 1
    outer loop
      vertex -12.7159 2.70285 50
      vertex -13 0 50
      vertex -12.7159 -2.70285 50
    endloop
  endfacet
  facet normal 0 0 1
    outer loop
      vertex -10.5172 -7.64121 50
      vertex -12.7159 2.70285 50
      vertex -11.8761 -5.28758 50
    endloop
  endfacet
  facet normal 0 0 1
    outer loop
      vertex -11.8761 -5.28758 50
      vertex -12.7159 2.70285 50
      vertex -12.7159 -2.70285 50
    endloop
  endfacet
  facet normal 0 0 1
    outer loop
      vertex -8.6987 -9.66088 50
      vertex -12.7159 2.70285 50
      vertex -10.5172 -7.64121 50
    endloop
  endfacet
  facet normal 0 0 1
    outer loop
      vertex -6.85556 -11 50
      vertex -12.7159 2.70285 50
      vertex -8.6987 -9.66088 50
    endloop
  endfacet
  facet normal -0 0 1
    outer loop
      vertex 6.85556 -11 50
      vertex -12.7159 2.70285 50
      vertex -6.85556 -11 50
    endloop
  endfacet
  facet normal -0 0 1
    outer loop
      vertex 8.6987 -9.66088 50
      vertex -12.7159 2.70285 50
      vertex 6.85556 -11 50
    endloop
  endfacet
  facet normal -0 0 1
    outer loop
      vertex 10.5172 -7.64121 50
      vertex -12.7159 2.70285 50
      vertex 8.6987 -9.66088 50
    endloop
  endfacet
  facet normal -0 0 1
    outer loop
      vertex 11.8761 -5.28758 50
      vertex -12.7159 2.70285 50
      vertex 10.5172 -7.64121 50
    endloop
  endfacet
  facet normal -0 0 1
    outer loop
      vertex 12.7159 -2.70285 50
      vertex -12.7159 2.70285 50
      vertex 11.8761 -5.28758 50
    endloop
  endfacet
  facet normal -0 0 1
    outer loop
      vertex 13 0 50
      vertex -12.7159 2.70285 50
      vertex 12.7159 -2.70285 50
    endloop
  endfacet
  facet normal 0 -0 1
    outer loop
      vertex 12.7159 2.70285 50
      vertex -12.7159 2.70285 50
      vertex 13 0 50
    endloop
  endfacet
  facet normal 0 -0 1
    outer loop
      vertex 11.8761 5.28758 50
      vertex -12.7159 2.70285 50
      vertex 12.7159 2.70285 50
    endloop
  endfacet
  facet normal 0 -0 1
    outer loop
      vertex 10.5172 7.64121 50
      vertex -12.7159 2.70285 50
      vertex 11.8761 5.28758 50
    endloop
  endfacet
  facet normal 0 -0 1
    outer loop
      vertex 8.6987 9.66088 50
      vertex -12.7159 2.70285 50
      vertex 10.5172 7.64121 50
    endloop
  endfacet
  facet normal 0 -0 1
    outer loop
      vertex 6.85556 11 50
      vertex -12.7159 2.70285 50
      vertex 8.6987 9.66088 50
    endloop
  endfacet
  facet normal 0 -0 1
    outer loop
      vertex -6.85556 11 50
      vertex -12.7159 2.70285 50
      vertex 6.85556 11 50
    endloop
  endfacet
  facet normal 0 -0 1
    outer loop
      vertex -8.6987 9.66088 50
      vertex -12.7159 2.70285 50
      vertex -6.85556 11 50
    endloop
  endfacet
  facet normal 0 -0 1
    outer loop
      vertex -10.5172 7.64121 50
      vertex -12.7159 2.70285 50
      vertex -8.6987 9.66088 50
    endloop
  endfacet
  facet normal 0 -0 1
    outer loop
      vertex -11.8761 5.28758 50
      vertex -12.7159 2.70285 50
      vertex -10.5172 7.64121 50
    endloop
  endfacet
  facet normal 0.950934 0.308977 0.0160386
    outer loop
      vertex 13.205 2.80681 19
      vertex 12.3329 5.49094 19
      vertex 12.7159 2.70285 50
    endloop
  endfacet
  facet normal 0.950934 0.308977 0.0160386
    outer loop
      vertex 12.3329 5.49094 19
      vertex 11.8761 5.28758 50
      vertex 12.7159 2.70285 50
    endloop
  endfacet
  facet normal 0.865914 0.499936 0.0160386
    outer loop
      vertex 12.3329 5.49094 19
      vertex 10.9217 7.9351 19
      vertex 11.8761 5.28758 50
    endloop
  endfacet
  facet normal 0.743049 0.669045 0.0160386
    outer loop
      vertex 10.9217 7.9351 19
      vertex 9.03326 10.0325 19
      vertex 10.5172 7.64121 50
    endloop
  endfacet
  facet normal 0.865914 0.499936 0.0160386
    outer loop
      vertex 10.9217 7.9351 19
      vertex 10.5172 7.64121 50
      vertex 11.8761 5.28758 50
    endloop
  endfacet
  facet normal 0.58771 0.808913 0.0160386
    outer loop
      vertex 9.03326 10.0325 19
      vertex 6.75 11.6913 19
      vertex 8.6987 9.66088 50
    endloop
  endfacet
  facet normal 0.743049 0.669044 0.0160386
    outer loop
      vertex 9.03326 10.0325 19
      vertex 8.6987 9.66088 50
      vertex 10.5172 7.64121 50
    endloop
  endfacet
  facet normal 0.406684 0.913428 0.0160386
    outer loop
      vertex 4.17173 12.8393 19
      vertex 5.03544 12.2528 30.5
      vertex 6.75 11.6913 19
    endloop
  endfacet
  facet normal 0.406684 0.913428 0.0160386
    outer loop
      vertex 6.75 11.6913 19
      vertex 5.03544 12.2528 30.5
      vertex 6.65726 11.5307 30.5
    endloop
  endfacet
  facet normal 0.58771 0.808913 0.0160386
    outer loop
      vertex 6.65726 11.5307 30.5
      vertex 7.38772 11 30.5
      vertex 6.75 11.6913 19
    endloop
  endfacet
  facet normal 0.58771 0.808913 0.0160386
    outer loop
      vertex 8.6987 9.66088 50
      vertex 7.38772 11 30.5
      vertex 6.85556 11 50
    endloop
  endfacet
  facet normal 0.58771 0.808913 0.0160386
    outer loop
      vertex 6.75 11.6913 19
      vertex 7.38772 11 30.5
      vertex 8.6987 9.66088 50
    endloop
  endfacet
  facet normal 0.207885 0.978022 0.0160386
    outer loop
      vertex 3 12.8997 30.5
      vertex 4.11441 12.6629 30.5
      vertex 3 13.0883 19
    endloop
  endfacet
  facet normal 0.207885 0.978022 0.0160386
    outer loop
      vertex 3 13.0883 19
      vertex 4.11441 12.6629 30.5
      vertex 4.17173 12.8393 19
    endloop
  endfacet
  facet normal 0.406685 0.913428 0.0160386
    outer loop
      vertex 4.17173 12.8393 19
      vertex 4.11441 12.6629 30.5
      vertex 5.03544 12.2528 30.5
    endloop
  endfacet
  facet normal 0 -0 1
    outer loop
      vertex 3 11.5 30.5
      vertex -3 11.5 30.5
      vertex 7.38772 11 30.5
    endloop
  endfacet
  facet normal 0 0 1
    outer loop
      vertex 7.38772 11 30.5
      vertex 6.65726 11.5307 30.5
      vertex 5.03544 12.2528 30.5
    endloop
  endfacet
  facet normal 0 0 1
    outer loop
      vertex 4.11441 12.6629 30.5
      vertex 7.38772 11 30.5
      vertex 5.03544 12.2528 30.5
    endloop
  endfacet
  facet normal -0 -0 1
    outer loop
      vertex 4.11441 12.6629 30.5
      vertex 3 12.8997 30.5
      vertex 7.38772 11 30.5
    endloop
  endfacet
  facet normal 0 -0 1
    outer loop
      vertex 3 12.8997 30.5
      vertex 3 11.5 30.5
      vertex 7.38772 11 30.5
    endloop
  endfacet
  facet normal -0 -0 1
    outer loop
      vertex -3 11.5 30.5
      vertex -6.65726 11.5307 30.5
      vertex 7.38772 11 30.5
    endloop
  endfacet
  facet normal 0 -0 1
    outer loop
      vertex -3.12825 12.8725 30.5
      vertex -4.11441 12.6629 30.5
      vertex -3 11.5 30.5
    endloop
  endfacet
  facet normal 0 0 1
    outer loop
      vertex -3 12.8997 30.5
      vertex -3.12825 12.8725 30.5
      vertex -3 11.5 30.5
    endloop
  endfacet
  facet normal 0 -0 1
    outer loop
      vertex -4.11441 12.6629 30.5
      vertex -5.73623 11.9408 30.5
      vertex -3 11.5 30.5
    endloop
  endfacet
  facet normal 0 -0 1
    outer loop
      vertex -5.73623 11.9408 30.5
      vertex -6.65726 11.5307 30.5
      vertex -3 11.5 30.5
    endloop
  endfacet
  facet normal 0 -0 1
    outer loop
      vertex -6.65726 11.5307 30.5
      vertex -7.38772 11 30.5
      vertex 7.38772 11 30.5
    endloop
  endfacet
  facet normal 0 1 0
    outer loop
      vertex 3 11.5 30.5
      vertex 3 11.5 16
      vertex -3 11.5 30.5
    endloop
  endfacet
  facet normal 0 1 -0
    outer loop
      vertex -3 11.5 30.5
      vertex 3 11.5 16
      vertex -3 11.5 16
    endloop
  endfacet
  facet normal -0.207885 0.978022 0.0160386
    outer loop
      vertex -4.17173 12.8393 19
      vertex -3.12825 12.8725 30.5
      vertex -3 13.0883 19
    endloop
  endfacet
  facet normal -0.207885 0.978022 0.0160386
    outer loop
      vertex -3 13.0883 19
      vertex -3.12825 12.8725 30.5
      vertex -3 12.8997 30.5
    endloop
  endfacet
  facet normal -0.406684 0.913428 0.0160386
    outer loop
      vertex -6.75 11.6913 19
      vertex -5.73623 11.9408 30.5
      vertex -4.17173 12.8393 19
    endloop
  endfacet
  facet normal -0.406684 0.913428 0.0160386
    outer loop
      vertex -4.17173 12.8393 19
      vertex -5.73623 11.9408 30.5
      vertex -4.11441 12.6629 30.5
    endloop
  endfacet
  facet normal -0.207885 0.978022 0.0160386
    outer loop
      vertex -3.12825 12.8725 30.5
      vertex -4.17173 12.8393 19
      vertex -4.11441 12.6629 30.5
    endloop
  endfacet
  facet normal -0.58771 0.808913 0.0160386
    outer loop
      vertex -9.03326 10.0325 19
      vertex -7.38772 11 30.5
      vertex -6.75 11.6913 19
    endloop
  endfacet
  facet normal -0.58771 0.808913 0.0160386
    outer loop
      vertex -9.03326 10.0325 19
      vertex -7.03384 11 43.4673
      vertex -7.38772 11 30.5
    endloop
  endfacet
  facet normal -0.58771 0.808913 0.0160386
    outer loop
      vertex -6.65726 11.5307 30.5
      vertex -6.75 11.6913 19
      vertex -7.38772 11 30.5
    endloop
  endfacet
  facet normal -0.406685 0.913428 0.0160386
    outer loop
      vertex -5.73623 11.9408 30.5
      vertex -6.75 11.6913 19
      vertex -6.65726 11.5307 30.5
    endloop
  endfacet
  facet normal -0.743049 0.669045 0.0160386
    outer loop
      vertex -9.03326 10.0325 19
      vertex -10.9217 7.9351 19
      vertex -8.6987 9.66088 50
    endloop
  endfacet
  facet normal -0.58771 0.808913 0.0160386
    outer loop
      vertex -9.03326 10.0325 19
      vertex -8.6987 9.66088 50
      vertex -7.03384 11 43.4673
    endloop
  endfacet
  facet normal -0.58771 0.808913 0.0160386
    outer loop
      vertex -7.03384 11 43.4673
      vertex -8.6987 9.66088 50
      vertex -6.85556 11 50
    endloop
  endfacet
  facet normal -0.865914 0.499936 0.0160386
    outer loop
      vertex -10.9217 7.9351 19
      vertex -12.3329 5.49094 19
      vertex -10.5172 7.64121 50
    endloop
  endfacet
  facet normal -0.743049 0.669044 0.0160386
    outer loop
      vertex -8.6987 9.66088 50
      vertex -10.9217 7.9351 19
      vertex -10.5172 7.64121 50
    endloop
  endfacet
  facet normal -0.950934 0.308977 0.0160386
    outer loop
      vertex -12.3329 5.49094 19
      vertex -13.205 2.80681 19
      vertex -11.8761 5.28758 50
    endloop
  endfacet
  facet normal -0.865914 0.499936 0.0160386
    outer loop
      vertex -10.5172 7.64121 50
      vertex -12.3329 5.49094 19
      vertex -11.8761 5.28758 50
    endloop
  endfacet
  facet normal -0.994394 0.104515 0.0160386
    outer loop
      vertex -13.205 2.80681 19
      vertex -13.5 0 19
      vertex -12.7159 2.70285 50
    endloop
  endfacet
  facet normal -0.950934 0.308977 0.0160386
    outer loop
      vertex -11.8761 5.28758 50
      vertex -13.205 2.80681 19
      vertex -12.7159 2.70285 50
    endloop
  endfacet
  facet normal -0.994394 0.104515 0.0160386
    outer loop
      vertex -12.7159 2.70285 50
      vertex -13.5 0 19
      vertex -13 0 50
    endloop
  endfacet
  facet normal -0.994394 -0.104515 0.0160386
    outer loop
      vertex -13 0 50
      vertex -13.5 0 19
      vertex -13.205 -2.80681 19
    endloop
  endfacet
  facet normal -0.994394 -0.104515 0.0160386
    outer loop
      vertex -13 0 50
      vertex -13.205 -2.80681 19
      vertex -12.7159 -2.70285 50
    endloop
  endfacet
  facet normal -0.950934 -0.308977 0.0160386
    outer loop
      vertex -12.7159 -2.70285 50
      vertex -13.205 -2.80681 19
      vertex -12.3329 -5.49094 19
    endloop
  endfacet
  facet normal -0.950934 -0.308977 0.0160386
    outer loop
      vertex -11.8761 -5.28758 50
      vertex -12.7159 -2.70285 50
      vertex -12.3329 -5.49094 19
    endloop
  endfacet
  facet normal -0.865914 -0.499936 0.0160386
    outer loop
      vertex -11.8761 -5.28758 50
      vertex -12.3329 -5.49094 19
      vertex -10.9217 -7.9351 19
    endloop
  endfacet
  facet normal -0.865914 -0.499936 0.0160386
    outer loop
      vertex -10.5172 -7.64121 50
      vertex -11.8761 -5.28758 50
      vertex -10.9217 -7.9351 19
    endloop
  endfacet
  facet normal -0.743049 -0.669045 0.0160386
    outer loop
      vertex -10.5172 -7.64121 50
      vertex -10.9217 -7.9351 19
      vertex -9.03326 -10.0325 19
    endloop
  endfacet
  facet normal -0.743049 -0.669044 0.0160386
    outer loop
      vertex -8.6987 -9.66088 50
      vertex -10.5172 -7.64121 50
      vertex -9.03326 -10.0325 19
    endloop
  endfacet
  facet normal -0.58771 -0.808913 0.0160386
    outer loop
      vertex -8.6987 -9.66088 50
      vertex -9.03326 -10.0325 19
      vertex -6.75 -11.6913 19
    endloop
  endfacet
  facet normal -0.58771 -0.808913 0.0160386
    outer loop
      vertex -7.38772 -11 30.5
      vertex -8.6987 -9.66088 50
      vertex -6.75 -11.6913 19
    endloop
  endfacet
  facet normal -0.58771 -0.808913 0.0160386
    outer loop
      vertex -6.85556 -11 50
      vertex -8.6987 -9.66088 50
      vertex -7.38772 -11 30.5
    endloop
  endfacet
  facet normal -0.58771 -0.808913 0.0160386
    outer loop
      vertex -6.65726 -11.5307 30.5
      vertex -7.38772 -11 30.5
      vertex -6.75 -11.6913 19
    endloop
  endfacet
  facet normal -0.406684 -0.913428 0.0160386
    outer loop
      vertex -6.65726 -11.5307 30.5
      vertex -6.75 -11.6913 19
      vertex -4.17173 -12.8393 19
    endloop
  endfacet
  facet normal -0.406684 -0.913428 0.0160386
    outer loop
      vertex -5.03544 -12.2528 30.5
      vertex -6.65726 -11.5307 30.5
      vertex -4.17173 -12.8393 19
    endloop
  endfacet
  facet normal -0.406685 -0.913428 0.0160386
    outer loop
      vertex -4.11441 -12.6629 30.5
      vertex -5.03544 -12.2528 30.5
      vertex -4.17173 -12.8393 19
    endloop
  endfacet
  facet normal -0.207885 -0.978022 0.0160386
    outer loop
      vertex -4.11441 -12.6629 30.5
      vertex -4.17173 -12.8393 19
      vertex -3 -13.0883 19
    endloop
  endfacet
  facet normal -0.207885 -0.978022 0.0160386
    outer loop
      vertex -3 -12.8997 30.5
      vertex -4.11441 -12.6629 30.5
      vertex -3 -13.0883 19
    endloop
  endfacet
  facet normal 0 -1 0
    outer loop
      vertex 3 -11.5 16
      vertex 3 -11.5 30.5
      vertex -3 -11.5 30.5
    endloop
  endfacet
  facet normal -0 -1 -0
    outer loop
      vertex -3 -11.5 16
      vertex 3 -11.5 16
      vertex -3 -11.5 30.5
    endloop
  endfacet
  facet normal 0 0 1
    outer loop
      vertex -6.65726 -11.5307 30.5
      vertex -5.03544 -12.2528 30.5
      vertex -3 -12.8997 30.5
    endloop
  endfacet
  facet normal 0 0 1
    outer loop
      vertex -3 -12.8997 30.5
      vertex -5.03544 -12.2528 30.5
      vertex -4.11441 -12.6629 30.5
    endloop
  endfacet
  facet normal 0 0 1
    outer loop
      vertex -6.65726 -11.5307 30.5
      vertex -3 -11.5 30.5
      vertex 7.38772 -11 30.5
    endloop
  endfacet
  facet normal 0 0 1
    outer loop
      vertex -6.65726 -11.5307 30.5
      vertex -3 -12.8997 30.5
      vertex -3 -11.5 30.5
    endloop
  endfacet
  facet normal 0 0 1
    outer loop
      vertex -3 -11.5 30.5
      vertex 3 -11.5 30.5
      vertex 7.38772 -11 30.5
    endloop
  endfacet
  facet normal 0 0 1
    outer loop
      vertex 3 -11.5 30.5
      vertex 3.12825 -12.8725 30.5
      vertex 4.11441 -12.6629 30.5
    endloop
  endfacet
  facet normal 0 -0 1
    outer loop
      vertex 3 -11.5 30.5
      vertex 3 -12.8997 30.5
      vertex 3.12825 -12.8725 30.5
    endloop
  endfacet
  facet normal 0 0 1
    outer loop
      vertex 3 -11.5 30.5
      vertex 4.11441 -12.6629 30.5
      vertex 5.73623 -11.9408 30.5
    endloop
  endfacet
  facet normal 0 0 1
    outer loop
      vertex 3 -11.5 30.5
      vertex 5.73623 -11.9408 30.5
      vertex 6.65726 -11.5307 30.5
    endloop
  endfacet
  facet normal 0 0 1
    outer loop
      vertex 3 -11.5 30.5
      vertex 6.65726 -11.5307 30.5
      vertex 7.38772 -11 30.5
    endloop
  endfacet
  facet normal 0 0 1
    outer loop
      vertex -6.65726 -11.5307 30.5
      vertex 7.38772 -11 30.5
      vertex -7.38772 -11 30.5
    endloop
  endfacet
  facet normal 0 -1 0
    outer loop
      vertex 7.38772 -11 30.5
      vertex 7.03384 -11 43.4673
      vertex -6.85556 -11 50
    endloop
  endfacet
  facet normal 0 -1 0
    outer loop
      vertex -6.85556 -11 50
      vertex 7.03384 -11 43.4673
      vertex 6.85556 -11 50
    endloop
  endfacet
  facet normal 0 -1 0
    outer loop
      vertex 7.38772 -11 30.5
      vertex -6.85556 -11 50
      vertex -7.38772 -11 30.5
    endloop
  endfacet
  facet normal 0 1 -0
    outer loop
      vertex -6.85556 11 50
      vertex 6.85556 11 50
      vertex -7.03384 11 43.4673
    endloop
  endfacet
  facet normal 0 1 0
    outer loop
      vertex -7.03384 11 43.4673
      vertex 6.85556 11 50
      vertex 7.38772 11 30.5
    endloop
  endfacet
  facet normal 0 1 -0
    outer loop
      vertex -7.03384 11 43.4673
      vertex 7.38772 11 30.5
      vertex -7.38772 11 30.5
    endloop
  endfacet
endsolid OpenSCAD_Model
