solid OpenSCAD_Model
  facet normal -0 0 -1
    outer loop
      vertex -10 0 -1.4
      vertex -9.92115 1.25333 -1.4
      vertex -9.92115 -1.25333 -1.4
    endloop
  endfacet
  facet normal 0 -0 -1
    outer loop
      vertex -9.92115 -1.25333 -1.4
      vertex -9.92115 1.25333 -1.4
      vertex -9.68583 2.4869 -1.4
    endloop
  endfacet
  facet normal 0 0 -1
    outer loop
      vertex -9.92115 -1.25333 -1.4
      vertex -9.68583 2.4869 -1.4
      vertex -9.29777 3.68125 -1.4
    endloop
  endfacet
  facet normal 0 0 -1
    outer loop
      vertex -9.92115 -1.25333 -1.4
      vertex -9.29777 3.68125 -1.4
      vertex -8.76307 4.81754 -1.4
    endloop
  endfacet
  facet normal 0 0 -1
    outer loop
      vertex -9.92115 -1.25333 -1.4
      vertex -8.76307 4.81754 -1.4
      vertex -8.09017 5.87785 -1.4
    endloop
  endfacet
  facet normal 0 0 -1
    outer loop
      vertex -9.92115 -1.25333 -1.4
      vertex -8.09017 5.87785 -1.4
      vertex -7.28969 6.84547 -1.4
    endloop
  endfacet
  facet normal 0 0 -1
    outer loop
      vertex -9.92115 -1.25333 -1.4
      vertex -7.28969 6.84547 -1.4
      vertex -6.37424 7.70513 -1.4
    endloop
  endfacet
  facet normal 0 0 -1
    outer loop
      vertex -9.92115 -1.25333 -1.4
      vertex -6.37424 7.70513 -1.4
      vertex -5.35827 8.44328 -1.4
    endloop
  endfacet
  facet normal 0 0 -1
    outer loop
      vertex -9.92115 -1.25333 -1.4
      vertex -5.35827 8.44328 -1.4
      vertex -4.25779 9.04827 -1.4
    endloop
  endfacet
  facet normal 0 0 -1
    outer loop
      vertex -9.92115 -1.25333 -1.4
      vertex -4.25779 9.04827 -1.4
      vertex -3.09017 9.51056 -1.4
    endloop
  endfacet
  facet normal 0 0 -1
    outer loop
      vertex -9.92115 -1.25333 -1.4
      vertex -3.09017 9.51056 -1.4
      vertex -1.87381 9.82287 -1.4
    endloop
  endfacet
  facet normal 0 0 -1
    outer loop
      vertex -9.92115 -1.25333 -1.4
      vertex -1.87381 9.82287 -1.4
      vertex -0.627905 9.98027 -1.4
    endloop
  endfacet
  facet normal 0 0 -1
    outer loop
      vertex -9.92115 -1.25333 -1.4
      vertex -0.627905 9.98027 -1.4
      vertex 0.627905 9.98027 -1.4
    endloop
  endfacet
  facet normal 0 0 -1
    outer loop
      vertex -9.92115 -1.25333 -1.4
      vertex 0.627905 9.98027 -1.4
      vertex 1.87381 9.82287 -1.4
    endloop
  endfacet
  facet normal 0 0 -1
    outer loop
      vertex -9.92115 -1.25333 -1.4
      vertex 1.87381 9.82287 -1.4
      vertex 3.09017 9.51056 -1.4
    endloop
  endfacet
  facet normal 0 0 -1
    outer loop
      vertex -9.92115 -1.25333 -1.4
      vertex 3.09017 9.51056 -1.4
      vertex 4.25779 9.04827 -1.4
    endloop
  endfacet
  facet normal 0 0 -1
    outer loop
      vertex -9.92115 -1.25333 -1.4
      vertex 4.25779 9.04827 -1.4
      vertex 5.35827 8.44328 -1.4
    endloop
  endfacet
  facet normal 0 0 -1
    outer loop
      vertex -9.92115 -1.25333 -1.4
      vertex 5.35827 8.44328 -1.4
      vertex 6.37424 7.70513 -1.4
    endloop
  endfacet
  facet normal 0 0 -1
    outer loop
      vertex -9.92115 -1.25333 -1.4
      vertex 6.37424 7.70513 -1.4
      vertex 7.28969 6.84547 -1.4
    endloop
  endfacet
  facet normal 0 0 -1
    outer loop
      vertex -9.92115 -1.25333 -1.4
      vertex 7.28969 6.84547 -1.4
      vertex 8.09017 5.87785 -1.4
    endloop
  endfacet
  facet normal 0 0 -1
    outer loop
      vertex -9.92115 -1.25333 -1.4
      vertex 8.09017 5.87785 -1.4
      vertex 8.76307 4.81754 -1.4
    endloop
  endfacet
  facet normal 0 0 -1
    outer loop
      vertex 0.463525 1.42658 -1.4
      vertex 8.76307 4.81754 -1.4
      vertex 9.29777 3.68125 -1.4
    endloop
  endfacet
  facet normal 0 0 -1
    outer loop
      vertex 1.21352 0.881678 -1.4
      vertex 9.29777 3.68125 -1.4
      vertex 9.68583 2.4869 -1.4
    endloop
  endfacet
  facet normal 0 0 -1
    outer loop
      vertex 1.45287 0.373035 -1.4
      vertex 9.68583 2.4869 -1.4
      vertex 9.92115 1.25333 -1.4
    endloop
  endfacet
  facet normal -0 0 -1
    outer loop
      vertex 1.5 0 -1.4
      vertex 9.92115 1.25333 -1.4
      vertex 10 0 -1.4
    endloop
  endfacet
  facet normal -0 0 -1
    outer loop
      vertex 1.31446 -0.722631 -1.4
      vertex 10 0 -1.4
      vertex 9.92115 -1.25333 -1.4
    endloop
  endfacet
  facet normal -0 0 -1
    outer loop
      vertex 0.638669 -1.35724 -1.4
      vertex 9.92115 -1.25333 -1.4
      vertex 9.68583 -2.4869 -1.4
    endloop
  endfacet
  facet normal 0 0 -1
    outer loop
      vertex -9.92115 -1.25333 -1.4
      vertex 9.68583 -2.4869 -1.4
      vertex 9.29777 -3.68125 -1.4
    endloop
  endfacet
  facet normal 0 0 -1
    outer loop
      vertex -9.92115 -1.25333 -1.4
      vertex 9.29777 -3.68125 -1.4
      vertex 8.76307 -4.81754 -1.4
    endloop
  endfacet
  facet normal 0 0 -1
    outer loop
      vertex -9.92115 -1.25333 -1.4
      vertex 8.76307 -4.81754 -1.4
      vertex 8.09017 -5.87785 -1.4
    endloop
  endfacet
  facet normal 0 0 -1
    outer loop
      vertex -9.92115 -1.25333 -1.4
      vertex 8.09017 -5.87785 -1.4
      vertex 7.28969 -6.84547 -1.4
    endloop
  endfacet
  facet normal 0 0 -1
    outer loop
      vertex -9.92115 -1.25333 -1.4
      vertex 7.28969 -6.84547 -1.4
      vertex 6.37424 -7.70513 -1.4
    endloop
  endfacet
  facet normal 0 0 -1
    outer loop
      vertex -9.92115 -1.25333 -1.4
      vertex 6.37424 -7.70513 -1.4
      vertex 5.35827 -8.44328 -1.4
    endloop
  endfacet
  facet normal 0 0 -1
    outer loop
      vertex -9.92115 -1.25333 -1.4
      vertex 5.35827 -8.44328 -1.4
      vertex 4.25779 -9.04827 -1.4
    endloop
  endfacet
  facet normal 0 0 -1
    outer loop
      vertex -9.92115 -1.25333 -1.4
      vertex 4.25779 -9.04827 -1.4
      vertex 3.09017 -9.51056 -1.4
    endloop
  endfacet
  facet normal 0 0 -1
    outer loop
      vertex -9.92115 -1.25333 -1.4
      vertex 3.09017 -9.51056 -1.4
      vertex 1.87381 -9.82287 -1.4
    endloop
  endfacet
  facet normal 0 0 -1
    outer loop
      vertex -9.92115 -1.25333 -1.4
      vertex 1.87381 -9.82287 -1.4
      vertex 0.627905 -9.98027 -1.4
    endloop
  endfacet
  facet normal 0 0 -1
    outer loop
      vertex -9.92115 -1.25333 -1.4
      vertex 0.627905 -9.98027 -1.4
      vertex -0.627905 -9.98027 -1.4
    endloop
  endfacet
  facet normal 0 0 -1
    outer loop
      vertex -9.92115 -1.25333 -1.4
      vertex -0.627905 -9.98027 -1.4
      vertex -1.87381 -9.82287 -1.4
    endloop
  endfacet
  facet normal 0 0 -1
    outer loop
      vertex -9.92115 -1.25333 -1.4
      vertex -1.87381 -9.82287 -1.4
      vertex -3.09017 -9.51056 -1.4
    endloop
  endfacet
  facet normal 0 0 -1
    outer loop
      vertex -9.92115 -1.25333 -1.4
      vertex -3.09017 -9.51056 -1.4
      vertex -4.25779 -9.04827 -1.4
    endloop
  endfacet
  facet normal 0 0 -1
    outer loop
      vertex -9.92115 -1.25333 -1.4
      vertex -4.25779 -9.04827 -1.4
      vertex -5.35827 -8.44328 -1.4
    endloop
  endfacet
  facet normal 0 0 -1
    outer loop
      vertex -9.92115 -1.25333 -1.4
      vertex -5.35827 -8.44328 -1.4
      vertex -6.37424 -7.70513 -1.4
    endloop
  endfacet
  facet normal 0 0 -1
    outer loop
      vertex -9.92115 -1.25333 -1.4
      vertex -6.37424 -7.70513 -1.4
      vertex -7.28969 -6.84547 -1.4
    endloop
  endfacet
  facet normal 0 0 -1
    outer loop
      vertex -9.92115 -1.25333 -1.4
      vertex -7.28969 -6.84547 -1.4
      vertex -8.09017 -5.87785 -1.4
    endloop
  endfacet
  facet normal 0 0 -1
    outer loop
      vertex -9.92115 -1.25333 -1.4
      vertex -8.09017 -5.87785 -1.4
      vertex -8.76307 -4.81754 -1.4
    endloop
  endfacet
  facet normal 0 0 -1
    outer loop
      vertex -9.92115 -1.25333 -1.4
      vertex -8.76307 -4.81754 -1.4
      vertex -9.29777 -3.68125 -1.4
    endloop
  endfacet
  facet normal 0 0 -1
    outer loop
      vertex -9.92115 -1.25333 -1.4
      vertex -9.29777 -3.68125 -1.4
      vertex -9.68583 -2.4869 -1.4
    endloop
  endfacet
  facet normal -0 0 -1
    outer loop
      vertex 1.21352 0.881678 -1.4
      vertex 9.68583 2.4869 -1.4
      vertex 1.31446 0.722631 -1.4
    endloop
  endfacet
  facet normal 0 0 -1
    outer loop
      vertex -1.31446 -0.722631 -1.4
      vertex -9.92115 -1.25333 -1.4
      vertex -1.39467 -0.552187 -1.4
    endloop
  endfacet
  facet normal 0 0 -1
    outer loop
      vertex -9.92115 -1.25333 -1.4
      vertex -1.48817 -0.188 -1.4
      vertex -1.45287 -0.373035 -1.4
    endloop
  endfacet
  facet normal 0 0 -1
    outer loop
      vertex -9.92115 -1.25333 -1.4
      vertex -1.45287 -0.373035 -1.4
      vertex -1.39467 -0.552187 -1.4
    endloop
  endfacet
  facet normal 0 0 -1
    outer loop
      vertex -0.80374 -1.26649 -1.4
      vertex -9.92115 -1.25333 -1.4
      vertex -0.956136 -1.15577 -1.4
    endloop
  endfacet
  facet normal 0 0 -1
    outer loop
      vertex -9.92115 -1.25333 -1.4
      vertex -1.31446 -0.722631 -1.4
      vertex -1.21352 -0.881678 -1.4
    endloop
  endfacet
  facet normal 0 0 -1
    outer loop
      vertex -9.92115 -1.25333 -1.4
      vertex -1.21352 -0.881678 -1.4
      vertex -1.09345 -1.02682 -1.4
    endloop
  endfacet
  facet normal 0 0 -1
    outer loop
      vertex -9.92115 -1.25333 -1.4
      vertex -1.09345 -1.02682 -1.4
      vertex -0.956136 -1.15577 -1.4
    endloop
  endfacet
  facet normal 0 0 -1
    outer loop
      vertex 0.094186 -1.49704 -1.4
      vertex 9.68583 -2.4869 -1.4
      vertex -0.094186 -1.49704 -1.4
    endloop
  endfacet
  facet normal 0 0 -1
    outer loop
      vertex -9.92115 -1.25333 -1.4
      vertex -0.80374 -1.26649 -1.4
      vertex -0.638669 -1.35724 -1.4
    endloop
  endfacet
  facet normal 0 0 -1
    outer loop
      vertex -9.92115 -1.25333 -1.4
      vertex -0.638669 -1.35724 -1.4
      vertex -0.463525 -1.42658 -1.4
    endloop
  endfacet
  facet normal 0 0 -1
    outer loop
      vertex -9.92115 -1.25333 -1.4
      vertex -0.463525 -1.42658 -1.4
      vertex -0.281072 -1.47343 -1.4
    endloop
  endfacet
  facet normal 0 0 -1
    outer loop
      vertex -9.92115 -1.25333 -1.4
      vertex -0.281072 -1.47343 -1.4
      vertex -0.094186 -1.49704 -1.4
    endloop
  endfacet
  facet normal 0 0 -1
    outer loop
      vertex -9.92115 -1.25333 -1.4
      vertex -0.094186 -1.49704 -1.4
      vertex 9.68583 -2.4869 -1.4
    endloop
  endfacet
  facet normal 0 0 -1
    outer loop
      vertex 0.281072 -1.47343 -1.4
      vertex 9.68583 -2.4869 -1.4
      vertex 0.094186 -1.49704 -1.4
    endloop
  endfacet
  facet normal 0 0 -1
    outer loop
      vertex 0.463525 -1.42658 -1.4
      vertex 9.68583 -2.4869 -1.4
      vertex 0.281072 -1.47343 -1.4
    endloop
  endfacet
  facet normal 0 0 -1
    outer loop
      vertex 0.638669 -1.35724 -1.4
      vertex 9.68583 -2.4869 -1.4
      vertex 0.463525 -1.42658 -1.4
    endloop
  endfacet
  facet normal -0 0 -1
    outer loop
      vertex 0.80374 -1.26649 -1.4
      vertex 9.92115 -1.25333 -1.4
      vertex 0.638669 -1.35724 -1.4
    endloop
  endfacet
  facet normal 0 0 -1
    outer loop
      vertex 0.956136 -1.15577 -1.4
      vertex 9.92115 -1.25333 -1.4
      vertex 0.80374 -1.26649 -1.4
    endloop
  endfacet
  facet normal 0 0 -1
    outer loop
      vertex 1.09345 -1.02682 -1.4
      vertex 9.92115 -1.25333 -1.4
      vertex 0.956136 -1.15577 -1.4
    endloop
  endfacet
  facet normal 0 0 -1
    outer loop
      vertex 1.21352 -0.881678 -1.4
      vertex 9.92115 -1.25333 -1.4
      vertex 1.09345 -1.02682 -1.4
    endloop
  endfacet
  facet normal 0 0 -1
    outer loop
      vertex 1.31446 -0.722631 -1.4
      vertex 9.92115 -1.25333 -1.4
      vertex 1.21352 -0.881678 -1.4
    endloop
  endfacet
  facet normal -0 0 -1
    outer loop
      vertex 1.39467 -0.552187 -1.4
      vertex 10 0 -1.4
      vertex 1.31446 -0.722631 -1.4
    endloop
  endfacet
  facet normal -0 0 -1
    outer loop
      vertex 1.45287 -0.373035 -1.4
      vertex 10 0 -1.4
      vertex 1.39467 -0.552187 -1.4
    endloop
  endfacet
  facet normal -0 0 -1
    outer loop
      vertex 1.48817 -0.188 -1.4
      vertex 10 0 -1.4
      vertex 1.45287 -0.373035 -1.4
    endloop
  endfacet
  facet normal 0 0 -1
    outer loop
      vertex 1.5 0 -1.4
      vertex 10 0 -1.4
      vertex 1.48817 -0.188 -1.4
    endloop
  endfacet
  facet normal -0 0 -1
    outer loop
      vertex 1.48817 0.188 -1.4
      vertex 9.92115 1.25333 -1.4
      vertex 1.5 0 -1.4
    endloop
  endfacet
  facet normal -0 0 -1
    outer loop
      vertex 1.39467 0.552187 -1.4
      vertex 9.68583 2.4869 -1.4
      vertex 1.45287 0.373035 -1.4
    endloop
  endfacet
  facet normal -0 0 -1
    outer loop
      vertex 1.31446 0.722631 -1.4
      vertex 9.68583 2.4869 -1.4
      vertex 1.39467 0.552187 -1.4
    endloop
  endfacet
  facet normal -0 0 -1
    outer loop
      vertex 1.09345 1.02682 -1.4
      vertex 9.29777 3.68125 -1.4
      vertex 1.21352 0.881678 -1.4
    endloop
  endfacet
  facet normal -0 0 -1
    outer loop
      vertex 0.463525 1.42658 -1.4
      vertex 9.29777 3.68125 -1.4
      vertex 0.638669 1.35724 -1.4
    endloop
  endfacet
  facet normal -0 0 -1
    outer loop
      vertex 0.956136 1.15577 -1.4
      vertex 9.29777 3.68125 -1.4
      vertex 1.09345 1.02682 -1.4
    endloop
  endfacet
  facet normal -0 0 -1
    outer loop
      vertex 0.80374 1.26649 -1.4
      vertex 9.29777 3.68125 -1.4
      vertex 0.956136 1.15577 -1.4
    endloop
  endfacet
  facet normal -0 0 -1
    outer loop
      vertex 0.638669 1.35724 -1.4
      vertex 9.29777 3.68125 -1.4
      vertex 0.80374 1.26649 -1.4
    endloop
  endfacet
  facet normal -0 0 -1
    outer loop
      vertex 0.281072 1.47343 -1.4
      vertex 8.76307 4.81754 -1.4
      vertex 0.463525 1.42658 -1.4
    endloop
  endfacet
  facet normal 0 -0 -1
    outer loop
      vertex -0.638669 1.35724 -1.4
      vertex -9.92115 -1.25333 -1.4
      vertex -0.463525 1.42658 -1.4
    endloop
  endfacet
  facet normal -0 0 -1
    outer loop
      vertex 0.094186 1.49704 -1.4
      vertex 8.76307 4.81754 -1.4
      vertex 0.281072 1.47343 -1.4
    endloop
  endfacet
  facet normal -0 0 -1
    outer loop
      vertex -0.094186 1.49704 -1.4
      vertex 8.76307 4.81754 -1.4
      vertex 0.094186 1.49704 -1.4
    endloop
  endfacet
  facet normal 0 0 -1
    outer loop
      vertex -0.281072 1.47343 -1.4
      vertex 8.76307 4.81754 -1.4
      vertex -0.094186 1.49704 -1.4
    endloop
  endfacet
  facet normal 0 0 -1
    outer loop
      vertex -0.463525 1.42658 -1.4
      vertex 8.76307 4.81754 -1.4
      vertex -0.281072 1.47343 -1.4
    endloop
  endfacet
  facet normal 0 0 -1
    outer loop
      vertex -9.92115 -1.25333 -1.4
      vertex 8.76307 4.81754 -1.4
      vertex -0.463525 1.42658 -1.4
    endloop
  endfacet
  facet normal 0 -0 -1
    outer loop
      vertex -0.80374 1.26649 -1.4
      vertex -9.92115 -1.25333 -1.4
      vertex -0.638669 1.35724 -1.4
    endloop
  endfacet
  facet normal 0 -0 -1
    outer loop
      vertex -0.956136 1.15577 -1.4
      vertex -9.92115 -1.25333 -1.4
      vertex -0.80374 1.26649 -1.4
    endloop
  endfacet
  facet normal 0 -0 -1
    outer loop
      vertex -1.09345 1.02682 -1.4
      vertex -9.92115 -1.25333 -1.4
      vertex -0.956136 1.15577 -1.4
    endloop
  endfacet
  facet normal 0 -0 -1
    outer loop
      vertex -1.21352 0.881678 -1.4
      vertex -9.92115 -1.25333 -1.4
      vertex -1.09345 1.02682 -1.4
    endloop
  endfacet
  facet normal 0 -0 -1
    outer loop
      vertex -1.31446 0.722631 -1.4
      vertex -9.92115 -1.25333 -1.4
      vertex -1.21352 0.881678 -1.4
    endloop
  endfacet
  facet normal 0 -0 -1
    outer loop
      vertex -1.39467 0.552187 -1.4
      vertex -9.92115 -1.25333 -1.4
      vertex -1.31446 0.722631 -1.4
    endloop
  endfacet
  facet normal 0 -0 -1
    outer loop
      vertex -1.45287 0.373035 -1.4
      vertex -9.92115 -1.25333 -1.4
      vertex -1.39467 0.552187 -1.4
    endloop
  endfacet
  facet normal 0 -0 -1
    outer loop
      vertex -1.48817 0.188 -1.4
      vertex -9.92115 -1.25333 -1.4
      vertex -1.45287 0.373035 -1.4
    endloop
  endfacet
  facet normal 0 0 -1
    outer loop
      vertex -9.92115 -1.25333 -1.4
      vertex -1.48817 0.188 -1.4
      vertex -1.5 0 -1.4
    endloop
  endfacet
  facet normal 0 0 -1
    outer loop
      vertex -1.48817 -0.188 -1.4
      vertex -9.92115 -1.25333 -1.4
      vertex -1.5 0 -1.4
    endloop
  endfacet
  facet normal -0 0 -1
    outer loop
      vertex 1.45287 0.373035 -1.4
      vertex 9.92115 1.25333 -1.4
      vertex 1.48817 0.188 -1.4
    endloop
  endfacet
  facet normal -0.998027 0.0627905 0
    outer loop
      vertex -10 0 -1.4
      vertex -10 0 1.4
      vertex -9.92115 1.25333 -1.4
    endloop
  endfacet
  facet normal -0.998027 0.0627905 0
    outer loop
      vertex -9.92115 1.25333 -1.4
      vertex -10 0 1.4
      vertex -9.92115 1.25333 1.4
    endloop
  endfacet
  facet normal -0.998027 -0.0627905 -0
    outer loop
      vertex -10 0 -1.4
      vertex -9.92115 -1.25333 -1.4
      vertex -10 0 1.4
    endloop
  endfacet
  facet normal -0.998027 -0.0627905 0
    outer loop
      vertex -10 0 1.4
      vertex -9.92115 -1.25333 -1.4
      vertex -9.92115 -1.25333 1.4
    endloop
  endfacet
  facet normal -0.982287 -0.187381 -0
    outer loop
      vertex -9.92115 -1.25333 -1.4
      vertex -9.68583 -2.4869 -1.4
      vertex -9.92115 -1.25333 1.4
    endloop
  endfacet
  facet normal -0.982287 -0.187381 0
    outer loop
      vertex -9.92115 -1.25333 1.4
      vertex -9.68583 -2.4869 -1.4
      vertex -9.68583 -2.4869 1.4
    endloop
  endfacet
  facet normal -0.951056 -0.309017 -0
    outer loop
      vertex -9.68583 -2.4869 -1.4
      vertex -9.29777 -3.68125 -1.4
      vertex -9.68583 -2.4869 1.4
    endloop
  endfacet
  facet normal -0.951056 -0.309017 0
    outer loop
      vertex -9.68583 -2.4869 1.4
      vertex -9.29777 -3.68125 -1.4
      vertex -9.29777 -3.68125 1.4
    endloop
  endfacet
  facet normal -0.904827 -0.425779 -0
    outer loop
      vertex -9.29777 -3.68125 -1.4
      vertex -8.76307 -4.81754 -1.4
      vertex -9.29777 -3.68125 1.4
    endloop
  endfacet
  facet normal -0.904827 -0.425779 0
    outer loop
      vertex -9.29777 -3.68125 1.4
      vertex -8.76307 -4.81754 -1.4
      vertex -8.76307 -4.81754 1.4
    endloop
  endfacet
  facet normal -0.844328 -0.535827 -0
    outer loop
      vertex -8.76307 -4.81754 -1.4
      vertex -8.09017 -5.87785 -1.4
      vertex -8.76307 -4.81754 1.4
    endloop
  endfacet
  facet normal -0.844328 -0.535827 0
    outer loop
      vertex -8.76307 -4.81754 1.4
      vertex -8.09017 -5.87785 -1.4
      vertex -8.09017 -5.87785 1.4
    endloop
  endfacet
  facet normal -0.770513 -0.637424 -0
    outer loop
      vertex -8.09017 -5.87785 -1.4
      vertex -7.28969 -6.84547 -1.4
      vertex -8.09017 -5.87785 1.4
    endloop
  endfacet
  facet normal -0.770513 -0.637424 0
    outer loop
      vertex -8.09017 -5.87785 1.4
      vertex -7.28969 -6.84547 -1.4
      vertex -7.28969 -6.84547 1.4
    endloop
  endfacet
  facet normal -0.684547 -0.728969 0
    outer loop
      vertex -7.28969 -6.84547 1.4
      vertex -7.28969 -6.84547 -1.4
      vertex -6.37424 -7.70513 -1.4
    endloop
  endfacet
  facet normal -0.684547 -0.728969 0
    outer loop
      vertex -6.37424 -7.70513 1.4
      vertex -7.28969 -6.84547 1.4
      vertex -6.37424 -7.70513 -1.4
    endloop
  endfacet
  facet normal -0.587785 -0.809017 0
    outer loop
      vertex -6.37424 -7.70513 1.4
      vertex -6.37424 -7.70513 -1.4
      vertex -5.35827 -8.44328 -1.4
    endloop
  endfacet
  facet normal -0.587785 -0.809017 0
    outer loop
      vertex -5.35827 -8.44328 1.4
      vertex -6.37424 -7.70513 1.4
      vertex -5.35827 -8.44328 -1.4
    endloop
  endfacet
  facet normal -0.481754 -0.876306 0
    outer loop
      vertex -5.35827 -8.44328 1.4
      vertex -5.35827 -8.44328 -1.4
      vertex -4.25779 -9.04827 -1.4
    endloop
  endfacet
  facet normal -0.481754 -0.876306 0
    outer loop
      vertex -4.25779 -9.04827 1.4
      vertex -5.35827 -8.44328 1.4
      vertex -4.25779 -9.04827 -1.4
    endloop
  endfacet
  facet normal -0.368124 -0.929777 0
    outer loop
      vertex -4.25779 -9.04827 1.4
      vertex -4.25779 -9.04827 -1.4
      vertex -3.09017 -9.51056 -1.4
    endloop
  endfacet
  facet normal -0.368124 -0.929777 0
    outer loop
      vertex -3.09017 -9.51056 1.4
      vertex -4.25779 -9.04827 1.4
      vertex -3.09017 -9.51056 -1.4
    endloop
  endfacet
  facet normal -0.24869 -0.968583 0
    outer loop
      vertex -3.09017 -9.51056 1.4
      vertex -3.09017 -9.51056 -1.4
      vertex -1.87381 -9.82287 -1.4
    endloop
  endfacet
  facet normal -0.24869 -0.968583 0
    outer loop
      vertex -1.87381 -9.82287 1.4
      vertex -3.09017 -9.51056 1.4
      vertex -1.87381 -9.82287 -1.4
    endloop
  endfacet
  facet normal -0.125333 -0.992115 0
    outer loop
      vertex -1.87381 -9.82287 1.4
      vertex -1.87381 -9.82287 -1.4
      vertex -0.627905 -9.98027 -1.4
    endloop
  endfacet
  facet normal -0.125333 -0.992115 0
    outer loop
      vertex -0.627905 -9.98027 1.4
      vertex -1.87381 -9.82287 1.4
      vertex -0.627905 -9.98027 -1.4
    endloop
  endfacet
  facet normal 0 -1 0
    outer loop
      vertex -0.627905 -9.98027 1.4
      vertex -0.627905 -9.98027 -1.4
      vertex 0.627905 -9.98027 -1.4
    endloop
  endfacet
  facet normal 0 -1 0
    outer loop
      vertex 0.627905 -9.98027 1.4
      vertex -0.627905 -9.98027 1.4
      vertex 0.627905 -9.98027 -1.4
    endloop
  endfacet
  facet normal 0.125333 -0.992115 0
    outer loop
      vertex 0.627905 -9.98027 1.4
      vertex 0.627905 -9.98027 -1.4
      vertex 1.87381 -9.82287 -1.4
    endloop
  endfacet
  facet normal 0.125333 -0.992115 0
    outer loop
      vertex 1.87381 -9.82287 1.4
      vertex 0.627905 -9.98027 1.4
      vertex 1.87381 -9.82287 -1.4
    endloop
  endfacet
  facet normal 0.24869 -0.968583 0
    outer loop
      vertex 1.87381 -9.82287 1.4
      vertex 1.87381 -9.82287 -1.4
      vertex 3.09017 -9.51056 -1.4
    endloop
  endfacet
  facet normal 0.24869 -0.968583 0
    outer loop
      vertex 3.09017 -9.51056 1.4
      vertex 1.87381 -9.82287 1.4
      vertex 3.09017 -9.51056 -1.4
    endloop
  endfacet
  facet normal 0.368124 -0.929777 0
    outer loop
      vertex 3.09017 -9.51056 1.4
      vertex 3.09017 -9.51056 -1.4
      vertex 4.25779 -9.04827 -1.4
    endloop
  endfacet
  facet normal 0.368124 -0.929777 0
    outer loop
      vertex 4.25779 -9.04827 1.4
      vertex 3.09017 -9.51056 1.4
      vertex 4.25779 -9.04827 -1.4
    endloop
  endfacet
  facet normal 0.481754 -0.876306 0
    outer loop
      vertex 4.25779 -9.04827 1.4
      vertex 4.25779 -9.04827 -1.4
      vertex 5.35827 -8.44328 -1.4
    endloop
  endfacet
  facet normal 0.481754 -0.876306 0
    outer loop
      vertex 5.35827 -8.44328 1.4
      vertex 4.25779 -9.04827 1.4
      vertex 5.35827 -8.44328 -1.4
    endloop
  endfacet
  facet normal 0.587785 -0.809017 0
    outer loop
      vertex 5.35827 -8.44328 1.4
      vertex 5.35827 -8.44328 -1.4
      vertex 6.37424 -7.70513 -1.4
    endloop
  endfacet
  facet normal 0.587785 -0.809017 0
    outer loop
      vertex 6.37424 -7.70513 1.4
      vertex 5.35827 -8.44328 1.4
      vertex 6.37424 -7.70513 -1.4
    endloop
  endfacet
  facet normal 0.684547 -0.728969 0
    outer loop
      vertex 6.37424 -7.70513 1.4
      vertex 6.37424 -7.70513 -1.4
      vertex 7.28969 -6.84547 -1.4
    endloop
  endfacet
  facet normal 0.684547 -0.728969 0
    outer loop
      vertex 7.28969 -6.84547 1.4
      vertex 6.37424 -7.70513 1.4
      vertex 7.28969 -6.84547 -1.4
    endloop
  endfacet
  facet normal 0.770513 -0.637424 0
    outer loop
      vertex 7.28969 -6.84547 1.4
      vertex 7.28969 -6.84547 -1.4
      vertex 8.09017 -5.87785 -1.4
    endloop
  endfacet
  facet normal 0.770513 -0.637424 0
    outer loop
      vertex 8.09017 -5.87785 1.4
      vertex 7.28969 -6.84547 1.4
      vertex 8.09017 -5.87785 -1.4
    endloop
  endfacet
  facet normal 0.844328 -0.535827 0
    outer loop
      vertex 8.09017 -5.87785 1.4
      vertex 8.09017 -5.87785 -1.4
      vertex 8.76307 -4.81754 -1.4
    endloop
  endfacet
  facet normal 0.844328 -0.535827 0
    outer loop
      vertex 8.76307 -4.81754 1.4
      vertex 8.09017 -5.87785 1.4
      vertex 8.76307 -4.81754 -1.4
    endloop
  endfacet
  facet normal 0.904827 -0.425779 0
    outer loop
      vertex 8.76307 -4.81754 1.4
      vertex 8.76307 -4.81754 -1.4
      vertex 9.29777 -3.68125 -1.4
    endloop
  endfacet
  facet normal 0.904827 -0.425779 0
    outer loop
      vertex 9.29777 -3.68125 1.4
      vertex 8.76307 -4.81754 1.4
      vertex 9.29777 -3.68125 -1.4
    endloop
  endfacet
  facet normal 0.951056 -0.309017 0
    outer loop
      vertex 9.29777 -3.68125 1.4
      vertex 9.29777 -3.68125 -1.4
      vertex 9.68583 -2.4869 -1.4
    endloop
  endfacet
  facet normal 0.951056 -0.309017 0
    outer loop
      vertex 9.68583 -2.4869 1.4
      vertex 9.29777 -3.68125 1.4
      vertex 9.68583 -2.4869 -1.4
    endloop
  endfacet
  facet normal 0.982287 -0.187381 0
    outer loop
      vertex 9.68583 -2.4869 1.4
      vertex 9.68583 -2.4869 -1.4
      vertex 9.92115 -1.25333 -1.4
    endloop
  endfacet
  facet normal 0.982287 -0.187381 0
    outer loop
      vertex 9.92115 -1.25333 1.4
      vertex 9.68583 -2.4869 1.4
      vertex 9.92115 -1.25333 -1.4
    endloop
  endfacet
  facet normal 0.998027 -0.0627905 0
    outer loop
      vertex 9.92115 -1.25333 1.4
      vertex 9.92115 -1.25333 -1.4
      vertex 10 0 -1.4
    endloop
  endfacet
  facet normal 0.998027 -0.0627905 0
    outer loop
      vertex 10 0 1.4
      vertex 9.92115 -1.25333 1.4
      vertex 10 0 -1.4
    endloop
  endfacet
  facet normal 0.998027 0.0627905 0
    outer loop
      vertex 10 0 -1.4
      vertex 9.92115 1.25333 -1.4
      vertex 9.92115 1.25333 1.4
    endloop
  endfacet
  facet normal 0.998027 0.0627905 -0
    outer loop
      vertex 10 0 1.4
      vertex 10 0 -1.4
      vertex 9.92115 1.25333 1.4
    endloop
  endfacet
  facet normal 0.982287 0.187381 0
    outer loop
      vertex 9.92115 1.25333 -1.4
      vertex 9.68583 2.4869 -1.4
      vertex 9.68583 2.4869 1.4
    endloop
  endfacet
  facet normal 0.982287 0.187381 -0
    outer loop
      vertex 9.92115 1.25333 1.4
      vertex 9.92115 1.25333 -1.4
      vertex 9.68583 2.4869 1.4
    endloop
  endfacet
  facet normal 0.951056 0.309017 0
    outer loop
      vertex 9.68583 2.4869 -1.4
      vertex 9.29777 3.68125 -1.4
      vertex 9.29777 3.68125 1.4
    endloop
  endfacet
  facet normal 0.951056 0.309017 -0
    outer loop
      vertex 9.68583 2.4869 1.4
      vertex 9.68583 2.4869 -1.4
      vertex 9.29777 3.68125 1.4
    endloop
  endfacet
  facet normal 0.904827 0.425779 0
    outer loop
      vertex 9.29777 3.68125 -1.4
      vertex 8.76307 4.81754 -1.4
      vertex 8.76307 4.81754 1.4
    endloop
  endfacet
  facet normal 0.904827 0.425779 -0
    outer loop
      vertex 9.29777 3.68125 1.4
      vertex 9.29777 3.68125 -1.4
      vertex 8.76307 4.81754 1.4
    endloop
  endfacet
  facet normal 0.844328 0.535827 0
    outer loop
      vertex 8.76307 4.81754 -1.4
      vertex 8.09017 5.87785 -1.4
      vertex 8.09017 5.87785 1.4
    endloop
  endfacet
  facet normal 0.844328 0.535827 -0
    outer loop
      vertex 8.76307 4.81754 1.4
      vertex 8.76307 4.81754 -1.4
      vertex 8.09017 5.87785 1.4
    endloop
  endfacet
  facet normal 0.770513 0.637424 0
    outer loop
      vertex 8.09017 5.87785 -1.4
      vertex 7.28969 6.84547 -1.4
      vertex 7.28969 6.84547 1.4
    endloop
  endfacet
  facet normal 0.770513 0.637424 -0
    outer loop
      vertex 8.09017 5.87785 1.4
      vertex 8.09017 5.87785 -1.4
      vertex 7.28969 6.84547 1.4
    endloop
  endfacet
  facet normal 0.684547 0.728969 0
    outer loop
      vertex 6.37424 7.70513 -1.4
      vertex 6.37424 7.70513 1.4
      vertex 7.28969 6.84547 -1.4
    endloop
  endfacet
  facet normal 0.684547 0.728969 0
    outer loop
      vertex 7.28969 6.84547 -1.4
      vertex 6.37424 7.70513 1.4
      vertex 7.28969 6.84547 1.4
    endloop
  endfacet
  facet normal 0.587785 0.809017 0
    outer loop
      vertex 5.35827 8.44328 -1.4
      vertex 5.35827 8.44328 1.4
      vertex 6.37424 7.70513 -1.4
    endloop
  endfacet
  facet normal 0.587785 0.809017 0
    outer loop
      vertex 6.37424 7.70513 -1.4
      vertex 5.35827 8.44328 1.4
      vertex 6.37424 7.70513 1.4
    endloop
  endfacet
  facet normal 0.481754 0.876306 0
    outer loop
      vertex 4.25779 9.04827 -1.4
      vertex 4.25779 9.04827 1.4
      vertex 5.35827 8.44328 -1.4
    endloop
  endfacet
  facet normal 0.481754 0.876306 0
    outer loop
      vertex 5.35827 8.44328 -1.4
      vertex 4.25779 9.04827 1.4
      vertex 5.35827 8.44328 1.4
    endloop
  endfacet
  facet normal 0.368124 0.929777 0
    outer loop
      vertex 3.09017 9.51056 -1.4
      vertex 3.09017 9.51056 1.4
      vertex 4.25779 9.04827 -1.4
    endloop
  endfacet
  facet normal 0.368124 0.929777 0
    outer loop
      vertex 4.25779 9.04827 -1.4
      vertex 3.09017 9.51056 1.4
      vertex 4.25779 9.04827 1.4
    endloop
  endfacet
  facet normal 0.24869 0.968583 0
    outer loop
      vertex 1.87381 9.82287 -1.4
      vertex 1.87381 9.82287 1.4
      vertex 3.09017 9.51056 -1.4
    endloop
  endfacet
  facet normal 0.24869 0.968583 0
    outer loop
      vertex 3.09017 9.51056 -1.4
      vertex 1.87381 9.82287 1.4
      vertex 3.09017 9.51056 1.4
    endloop
  endfacet
  facet normal 0.125333 0.992115 0
    outer loop
      vertex 0.627905 9.98027 -1.4
      vertex 0.627905 9.98027 1.4
      vertex 1.87381 9.82287 -1.4
    endloop
  endfacet
  facet normal 0.125333 0.992115 0
    outer loop
      vertex 1.87381 9.82287 -1.4
      vertex 0.627905 9.98027 1.4
      vertex 1.87381 9.82287 1.4
    endloop
  endfacet
  facet normal 0 1 0
    outer loop
      vertex -0.627905 9.98027 -1.4
      vertex -0.627905 9.98027 1.4
      vertex 0.627905 9.98027 -1.4
    endloop
  endfacet
  facet normal 0 1 0
    outer loop
      vertex 0.627905 9.98027 -1.4
      vertex -0.627905 9.98027 1.4
      vertex 0.627905 9.98027 1.4
    endloop
  endfacet
  facet normal -0.125333 0.992115 0
    outer loop
      vertex -1.87381 9.82287 -1.4
      vertex -1.87381 9.82287 1.4
      vertex -0.627905 9.98027 -1.4
    endloop
  endfacet
  facet normal -0.125333 0.992115 0
    outer loop
      vertex -0.627905 9.98027 -1.4
      vertex -1.87381 9.82287 1.4
      vertex -0.627905 9.98027 1.4
    endloop
  endfacet
  facet normal -0.24869 0.968583 0
    outer loop
      vertex -3.09017 9.51056 -1.4
      vertex -3.09017 9.51056 1.4
      vertex -1.87381 9.82287 -1.4
    endloop
  endfacet
  facet normal -0.24869 0.968583 0
    outer loop
      vertex -1.87381 9.82287 -1.4
      vertex -3.09017 9.51056 1.4
      vertex -1.87381 9.82287 1.4
    endloop
  endfacet
  facet normal -0.368124 0.929777 0
    outer loop
      vertex -4.25779 9.04827 -1.4
      vertex -4.25779 9.04827 1.4
      vertex -3.09017 9.51056 -1.4
    endloop
  endfacet
  facet normal -0.368124 0.929777 0
    outer loop
      vertex -3.09017 9.51056 -1.4
      vertex -4.25779 9.04827 1.4
      vertex -3.09017 9.51056 1.4
    endloop
  endfacet
  facet normal -0.481754 0.876306 0
    outer loop
      vertex -5.35827 8.44328 -1.4
      vertex -5.35827 8.44328 1.4
      vertex -4.25779 9.04827 -1.4
    endloop
  endfacet
  facet normal -0.481754 0.876306 0
    outer loop
      vertex -4.25779 9.04827 -1.4
      vertex -5.35827 8.44328 1.4
      vertex -4.25779 9.04827 1.4
    endloop
  endfacet
  facet normal -0.587785 0.809017 0
    outer loop
      vertex -6.37424 7.70513 -1.4
      vertex -6.37424 7.70513 1.4
      vertex -5.35827 8.44328 -1.4
    endloop
  endfacet
  facet normal -0.587785 0.809017 0
    outer loop
      vertex -5.35827 8.44328 -1.4
      vertex -6.37424 7.70513 1.4
      vertex -5.35827 8.44328 1.4
    endloop
  endfacet
  facet normal -0.684547 0.728969 0
    outer loop
      vertex -7.28969 6.84547 -1.4
      vertex -7.28969 6.84547 1.4
      vertex -6.37424 7.70513 -1.4
    endloop
  endfacet
  facet normal -0.684547 0.728969 0
    outer loop
      vertex -6.37424 7.70513 -1.4
      vertex -7.28969 6.84547 1.4
      vertex -6.37424 7.70513 1.4
    endloop
  endfacet
  facet normal -0.770513 0.637424 0
    outer loop
      vertex -8.09017 5.87785 -1.4
      vertex -8.09017 5.87785 1.4
      vertex -7.28969 6.84547 -1.4
    endloop
  endfacet
  facet normal -0.770513 0.637424 0
    outer loop
      vertex -7.28969 6.84547 -1.4
      vertex -8.09017 5.87785 1.4
      vertex -7.28969 6.84547 1.4
    endloop
  endfacet
  facet normal -0.844328 0.535827 0
    outer loop
      vertex -8.76307 4.81754 -1.4
      vertex -8.76307 4.81754 1.4
      vertex -8.09017 5.87785 -1.4
    endloop
  endfacet
  facet normal -0.844328 0.535827 0
    outer loop
      vertex -8.09017 5.87785 -1.4
      vertex -8.76307 4.81754 1.4
      vertex -8.09017 5.87785 1.4
    endloop
  endfacet
  facet normal -0.904827 0.425779 0
    outer loop
      vertex -9.29777 3.68125 -1.4
      vertex -9.29777 3.68125 1.4
      vertex -8.76307 4.81754 -1.4
    endloop
  endfacet
  facet normal -0.904827 0.425779 0
    outer loop
      vertex -8.76307 4.81754 -1.4
      vertex -9.29777 3.68125 1.4
      vertex -8.76307 4.81754 1.4
    endloop
  endfacet
  facet normal -0.951056 0.309017 0
    outer loop
      vertex -9.68583 2.4869 -1.4
      vertex -9.68583 2.4869 1.4
      vertex -9.29777 3.68125 -1.4
    endloop
  endfacet
  facet normal -0.951056 0.309017 0
    outer loop
      vertex -9.29777 3.68125 -1.4
      vertex -9.68583 2.4869 1.4
      vertex -9.29777 3.68125 1.4
    endloop
  endfacet
  facet normal -0.982287 0.187381 0
    outer loop
      vertex -9.92115 1.25333 -1.4
      vertex -9.92115 1.25333 1.4
      vertex -9.68583 2.4869 -1.4
    endloop
  endfacet
  facet normal -0.982287 0.187381 0
    outer loop
      vertex -9.68583 2.4869 -1.4
      vertex -9.92115 1.25333 1.4
      vertex -9.68583 2.4869 1.4
    endloop
  endfacet
  facet normal 0.998027 -0.0627907 0
    outer loop
      vertex -1.48817 0.188 -1.4
      vertex -1.48817 0.188 1.4
      vertex -1.5 0 1.4
    endloop
  endfacet
  facet normal 0.998027 -0.0627907 0
    outer loop
      vertex -1.5 0 -1.4
      vertex -1.48817 0.188 -1.4
      vertex -1.5 0 1.4
    endloop
  endfacet
  facet normal 0.998027 0.0627907 0
    outer loop
      vertex -1.5 0 1.4
      vertex -1.48817 -0.188 1.4
      vertex -1.48817 -0.188 -1.4
    endloop
  endfacet
  facet normal 0.998027 0.0627907 0
    outer loop
      vertex -1.5 0 -1.4
      vertex -1.5 0 1.4
      vertex -1.48817 -0.188 -1.4
    endloop
  endfacet
  facet normal 0.982288 -0.18738 0
    outer loop
      vertex -1.45287 0.373035 -1.4
      vertex -1.45287 0.373035 1.4
      vertex -1.48817 0.188 1.4
    endloop
  endfacet
  facet normal 0.982288 -0.18738 0
    outer loop
      vertex -1.48817 0.188 -1.4
      vertex -1.45287 0.373035 -1.4
      vertex -1.48817 0.188 1.4
    endloop
  endfacet
  facet normal 0.951057 -0.309017 0
    outer loop
      vertex -1.39467 0.552187 -1.4
      vertex -1.39467 0.552187 1.4
      vertex -1.45287 0.373035 1.4
    endloop
  endfacet
  facet normal 0.951057 -0.309017 0
    outer loop
      vertex -1.45287 0.373035 -1.4
      vertex -1.39467 0.552187 -1.4
      vertex -1.45287 0.373035 1.4
    endloop
  endfacet
  facet normal 0.904827 -0.42578 0
    outer loop
      vertex -1.31446 0.722631 -1.4
      vertex -1.31446 0.722631 1.4
      vertex -1.39467 0.552187 1.4
    endloop
  endfacet
  facet normal 0.904827 -0.42578 0
    outer loop
      vertex -1.39467 0.552187 -1.4
      vertex -1.31446 0.722631 -1.4
      vertex -1.39467 0.552187 1.4
    endloop
  endfacet
  facet normal 0.844326 -0.535829 0
    outer loop
      vertex -1.21352 0.881678 -1.4
      vertex -1.21352 0.881678 1.4
      vertex -1.31446 0.722631 1.4
    endloop
  endfacet
  facet normal 0.844326 -0.535829 0
    outer loop
      vertex -1.31446 0.722631 -1.4
      vertex -1.21352 0.881678 -1.4
      vertex -1.31446 0.722631 1.4
    endloop
  endfacet
  facet normal 0.770515 -0.637422 0
    outer loop
      vertex -1.09345 1.02682 -1.4
      vertex -1.09345 1.02682 1.4
      vertex -1.21352 0.881678 1.4
    endloop
  endfacet
  facet normal 0.770515 -0.637422 0
    outer loop
      vertex -1.21352 0.881678 -1.4
      vertex -1.09345 1.02682 -1.4
      vertex -1.21352 0.881678 1.4
    endloop
  endfacet
  facet normal 0.684546 -0.728969 0
    outer loop
      vertex -0.956136 1.15577 -1.4
      vertex -0.956136 1.15577 1.4
      vertex -1.09345 1.02682 1.4
    endloop
  endfacet
  facet normal 0.684546 -0.728969 0
    outer loop
      vertex -1.09345 1.02682 -1.4
      vertex -0.956136 1.15577 -1.4
      vertex -1.09345 1.02682 1.4
    endloop
  endfacet
  facet normal 0.587785 -0.809017 0
    outer loop
      vertex -0.80374 1.26649 -1.4
      vertex -0.80374 1.26649 1.4
      vertex -0.956136 1.15577 1.4
    endloop
  endfacet
  facet normal 0.587785 -0.809017 0
    outer loop
      vertex -0.956136 1.15577 -1.4
      vertex -0.80374 1.26649 -1.4
      vertex -0.956136 1.15577 1.4
    endloop
  endfacet
  facet normal 0.481756 -0.876306 0
    outer loop
      vertex -0.638669 1.35724 -1.4
      vertex -0.638669 1.35724 1.4
      vertex -0.80374 1.26649 1.4
    endloop
  endfacet
  facet normal 0.481756 -0.876306 0
    outer loop
      vertex -0.80374 1.26649 -1.4
      vertex -0.638669 1.35724 -1.4
      vertex -0.80374 1.26649 1.4
    endloop
  endfacet
  facet normal 0.368123 -0.929777 0
    outer loop
      vertex -0.463525 1.42658 -1.4
      vertex -0.463525 1.42658 1.4
      vertex -0.638669 1.35724 1.4
    endloop
  endfacet
  facet normal 0.368123 -0.929777 0
    outer loop
      vertex -0.638669 1.35724 -1.4
      vertex -0.463525 1.42658 -1.4
      vertex -0.638669 1.35724 1.4
    endloop
  endfacet
  facet normal 0.24869 -0.968583 0
    outer loop
      vertex -0.281072 1.47343 -1.4
      vertex -0.281072 1.47343 1.4
      vertex -0.463525 1.42658 1.4
    endloop
  endfacet
  facet normal 0.24869 -0.968583 0
    outer loop
      vertex -0.463525 1.42658 -1.4
      vertex -0.281072 1.47343 -1.4
      vertex -0.463525 1.42658 1.4
    endloop
  endfacet
  facet normal 0.125332 -0.992115 0
    outer loop
      vertex -0.094186 1.49704 -1.4
      vertex -0.094186 1.49704 1.4
      vertex -0.281072 1.47343 1.4
    endloop
  endfacet
  facet normal 0.125332 -0.992115 0
    outer loop
      vertex -0.281072 1.47343 -1.4
      vertex -0.094186 1.49704 -1.4
      vertex -0.281072 1.47343 1.4
    endloop
  endfacet
  facet normal 0 -1 0
    outer loop
      vertex 0.094186 1.49704 -1.4
      vertex 0.094186 1.49704 1.4
      vertex -0.094186 1.49704 1.4
    endloop
  endfacet
  facet normal -0 -1 -0
    outer loop
      vertex -0.094186 1.49704 -1.4
      vertex 0.094186 1.49704 -1.4
      vertex -0.094186 1.49704 1.4
    endloop
  endfacet
  facet normal -0.125332 -0.992115 -0
    outer loop
      vertex 0.281072 1.47343 -1.4
      vertex 0.281072 1.47343 1.4
      vertex 0.094186 1.49704 1.4
    endloop
  endfacet
  facet normal -0.125332 -0.992115 -0
    outer loop
      vertex 0.094186 1.49704 -1.4
      vertex 0.281072 1.47343 -1.4
      vertex 0.094186 1.49704 1.4
    endloop
  endfacet
  facet normal -0.24869 -0.968583 -0
    outer loop
      vertex 0.463525 1.42658 -1.4
      vertex 0.463525 1.42658 1.4
      vertex 0.281072 1.47343 1.4
    endloop
  endfacet
  facet normal -0.24869 -0.968583 -0
    outer loop
      vertex 0.281072 1.47343 -1.4
      vertex 0.463525 1.42658 -1.4
      vertex 0.281072 1.47343 1.4
    endloop
  endfacet
  facet normal -0.368123 -0.929777 -0
    outer loop
      vertex 0.638669 1.35724 -1.4
      vertex 0.638669 1.35724 1.4
      vertex 0.463525 1.42658 1.4
    endloop
  endfacet
  facet normal -0.368123 -0.929777 -0
    outer loop
      vertex 0.463525 1.42658 -1.4
      vertex 0.638669 1.35724 -1.4
      vertex 0.463525 1.42658 1.4
    endloop
  endfacet
  facet normal -0.481756 -0.876306 -0
    outer loop
      vertex 0.80374 1.26649 -1.4
      vertex 0.80374 1.26649 1.4
      vertex 0.638669 1.35724 1.4
    endloop
  endfacet
  facet normal -0.481756 -0.876306 -0
    outer loop
      vertex 0.638669 1.35724 -1.4
      vertex 0.80374 1.26649 -1.4
      vertex 0.638669 1.35724 1.4
    endloop
  endfacet
  facet normal -0.587785 -0.809017 -0
    outer loop
      vertex 0.956136 1.15577 -1.4
      vertex 0.956136 1.15577 1.4
      vertex 0.80374 1.26649 1.4
    endloop
  endfacet
  facet normal -0.587785 -0.809017 -0
    outer loop
      vertex 0.80374 1.26649 -1.4
      vertex 0.956136 1.15577 -1.4
      vertex 0.80374 1.26649 1.4
    endloop
  endfacet
  facet normal -0.684546 -0.728969 -0
    outer loop
      vertex 1.09345 1.02682 -1.4
      vertex 1.09345 1.02682 1.4
      vertex 0.956136 1.15577 1.4
    endloop
  endfacet
  facet normal -0.684546 -0.728969 -0
    outer loop
      vertex 0.956136 1.15577 -1.4
      vertex 1.09345 1.02682 -1.4
      vertex 0.956136 1.15577 1.4
    endloop
  endfacet
  facet normal -0.770515 -0.637422 0
    outer loop
      vertex 1.21352 0.881678 1.4
      vertex 1.09345 1.02682 1.4
      vertex 1.21352 0.881678 -1.4
    endloop
  endfacet
  facet normal -0.770515 -0.637422 0
    outer loop
      vertex 1.21352 0.881678 -1.4
      vertex 1.09345 1.02682 1.4
      vertex 1.09345 1.02682 -1.4
    endloop
  endfacet
  facet normal -0.844326 -0.535829 0
    outer loop
      vertex 1.31446 0.722631 1.4
      vertex 1.21352 0.881678 1.4
      vertex 1.31446 0.722631 -1.4
    endloop
  endfacet
  facet normal -0.844326 -0.535829 0
    outer loop
      vertex 1.31446 0.722631 -1.4
      vertex 1.21352 0.881678 1.4
      vertex 1.21352 0.881678 -1.4
    endloop
  endfacet
  facet normal -0.904827 -0.42578 0
    outer loop
      vertex 1.39467 0.552187 1.4
      vertex 1.31446 0.722631 1.4
      vertex 1.39467 0.552187 -1.4
    endloop
  endfacet
  facet normal -0.904827 -0.42578 0
    outer loop
      vertex 1.39467 0.552187 -1.4
      vertex 1.31446 0.722631 1.4
      vertex 1.31446 0.722631 -1.4
    endloop
  endfacet
  facet normal -0.951057 -0.309017 0
    outer loop
      vertex 1.45287 0.373035 1.4
      vertex 1.39467 0.552187 1.4
      vertex 1.45287 0.373035 -1.4
    endloop
  endfacet
  facet normal -0.951057 -0.309017 0
    outer loop
      vertex 1.45287 0.373035 -1.4
      vertex 1.39467 0.552187 1.4
      vertex 1.39467 0.552187 -1.4
    endloop
  endfacet
  facet normal -0.982288 -0.18738 0
    outer loop
      vertex 1.48817 0.188 1.4
      vertex 1.45287 0.373035 1.4
      vertex 1.48817 0.188 -1.4
    endloop
  endfacet
  facet normal -0.982288 -0.18738 0
    outer loop
      vertex 1.48817 0.188 -1.4
      vertex 1.45287 0.373035 1.4
      vertex 1.45287 0.373035 -1.4
    endloop
  endfacet
  facet normal -0.998027 -0.0627907 0
    outer loop
      vertex 1.5 0 1.4
      vertex 1.48817 0.188 1.4
      vertex 1.5 0 -1.4
    endloop
  endfacet
  facet normal -0.998027 -0.0627907 0
    outer loop
      vertex 1.5 0 -1.4
      vertex 1.48817 0.188 1.4
      vertex 1.48817 0.188 -1.4
    endloop
  endfacet
  facet normal -0.998027 0.0627907 0
    outer loop
      vertex 1.5 0 1.4
      vertex 1.5 0 -1.4
      vertex 1.48817 -0.188 1.4
    endloop
  endfacet
  facet normal -0.998027 0.0627907 0
    outer loop
      vertex 1.48817 -0.188 1.4
      vertex 1.5 0 -1.4
      vertex 1.48817 -0.188 -1.4
    endloop
  endfacet
  facet normal -0.982288 0.18738 0
    outer loop
      vertex 1.48817 -0.188 1.4
      vertex 1.48817 -0.188 -1.4
      vertex 1.45287 -0.373035 1.4
    endloop
  endfacet
  facet normal -0.982288 0.18738 0
    outer loop
      vertex 1.45287 -0.373035 1.4
      vertex 1.48817 -0.188 -1.4
      vertex 1.45287 -0.373035 -1.4
    endloop
  endfacet
  facet normal -0.951057 0.309017 0
    outer loop
      vertex 1.45287 -0.373035 1.4
      vertex 1.45287 -0.373035 -1.4
      vertex 1.39467 -0.552187 1.4
    endloop
  endfacet
  facet normal -0.951057 0.309017 0
    outer loop
      vertex 1.39467 -0.552187 1.4
      vertex 1.45287 -0.373035 -1.4
      vertex 1.39467 -0.552187 -1.4
    endloop
  endfacet
  facet normal -0.904827 0.42578 0
    outer loop
      vertex 1.39467 -0.552187 1.4
      vertex 1.39467 -0.552187 -1.4
      vertex 1.31446 -0.722631 1.4
    endloop
  endfacet
  facet normal -0.904827 0.42578 0
    outer loop
      vertex 1.31446 -0.722631 1.4
      vertex 1.39467 -0.552187 -1.4
      vertex 1.31446 -0.722631 -1.4
    endloop
  endfacet
  facet normal -0.844326 0.535829 0
    outer loop
      vertex 1.31446 -0.722631 1.4
      vertex 1.31446 -0.722631 -1.4
      vertex 1.21352 -0.881678 1.4
    endloop
  endfacet
  facet normal -0.844326 0.535829 0
    outer loop
      vertex 1.21352 -0.881678 1.4
      vertex 1.31446 -0.722631 -1.4
      vertex 1.21352 -0.881678 -1.4
    endloop
  endfacet
  facet normal -0.770515 0.637422 0
    outer loop
      vertex 1.21352 -0.881678 1.4
      vertex 1.21352 -0.881678 -1.4
      vertex 1.09345 -1.02682 1.4
    endloop
  endfacet
  facet normal -0.770515 0.637422 0
    outer loop
      vertex 1.09345 -1.02682 1.4
      vertex 1.21352 -0.881678 -1.4
      vertex 1.09345 -1.02682 -1.4
    endloop
  endfacet
  facet normal -0.684546 0.728969 0
    outer loop
      vertex 1.09345 -1.02682 1.4
      vertex 1.09345 -1.02682 -1.4
      vertex 0.956136 -1.15577 1.4
    endloop
  endfacet
  facet normal -0.684546 0.728969 0
    outer loop
      vertex 0.956136 -1.15577 1.4
      vertex 1.09345 -1.02682 -1.4
      vertex 0.956136 -1.15577 -1.4
    endloop
  endfacet
  facet normal -0.587785 0.809017 0
    outer loop
      vertex 0.956136 -1.15577 1.4
      vertex 0.956136 -1.15577 -1.4
      vertex 0.80374 -1.26649 1.4
    endloop
  endfacet
  facet normal -0.587785 0.809017 0
    outer loop
      vertex 0.80374 -1.26649 1.4
      vertex 0.956136 -1.15577 -1.4
      vertex 0.80374 -1.26649 -1.4
    endloop
  endfacet
  facet normal -0.481756 0.876306 0
    outer loop
      vertex 0.80374 -1.26649 1.4
      vertex 0.80374 -1.26649 -1.4
      vertex 0.638669 -1.35724 1.4
    endloop
  endfacet
  facet normal -0.481756 0.876306 0
    outer loop
      vertex 0.638669 -1.35724 1.4
      vertex 0.80374 -1.26649 -1.4
      vertex 0.638669 -1.35724 -1.4
    endloop
  endfacet
  facet normal -0.368123 0.929777 0
    outer loop
      vertex 0.638669 -1.35724 1.4
      vertex 0.638669 -1.35724 -1.4
      vertex 0.463525 -1.42658 1.4
    endloop
  endfacet
  facet normal -0.368123 0.929777 0
    outer loop
      vertex 0.463525 -1.42658 1.4
      vertex 0.638669 -1.35724 -1.4
      vertex 0.463525 -1.42658 -1.4
    endloop
  endfacet
  facet normal -0.24869 0.968583 0
    outer loop
      vertex 0.463525 -1.42658 1.4
      vertex 0.463525 -1.42658 -1.4
      vertex 0.281072 -1.47343 1.4
    endloop
  endfacet
  facet normal -0.24869 0.968583 0
    outer loop
      vertex 0.281072 -1.47343 1.4
      vertex 0.463525 -1.42658 -1.4
      vertex 0.281072 -1.47343 -1.4
    endloop
  endfacet
  facet normal -0.125332 0.992115 0
    outer loop
      vertex 0.281072 -1.47343 1.4
      vertex 0.281072 -1.47343 -1.4
      vertex 0.094186 -1.49704 1.4
    endloop
  endfacet
  facet normal -0.125332 0.992115 0
    outer loop
      vertex 0.094186 -1.49704 1.4
      vertex 0.281072 -1.47343 -1.4
      vertex 0.094186 -1.49704 -1.4
    endloop
  endfacet
  facet normal 0 1 0
    outer loop
      vertex 0.094186 -1.49704 1.4
      vertex 0.094186 -1.49704 -1.4
      vertex -0.094186 -1.49704 1.4
    endloop
  endfacet
  facet normal 0 1 -0
    outer loop
      vertex -0.094186 -1.49704 1.4
      vertex 0.094186 -1.49704 -1.4
      vertex -0.094186 -1.49704 -1.4
    endloop
  endfacet
  facet normal 0.125332 0.992115 -0
    outer loop
      vertex -0.094186 -1.49704 1.4
      vertex -0.094186 -1.49704 -1.4
      vertex -0.281072 -1.47343 1.4
    endloop
  endfacet
  facet normal 0.125332 0.992115 -0
    outer loop
      vertex -0.281072 -1.47343 1.4
      vertex -0.094186 -1.49704 -1.4
      vertex -0.281072 -1.47343 -1.4
    endloop
  endfacet
  facet normal 0.24869 0.968583 -0
    outer loop
      vertex -0.281072 -1.47343 1.4
      vertex -0.281072 -1.47343 -1.4
      vertex -0.463525 -1.42658 1.4
    endloop
  endfacet
  facet normal 0.24869 0.968583 -0
    outer loop
      vertex -0.463525 -1.42658 1.4
      vertex -0.281072 -1.47343 -1.4
      vertex -0.463525 -1.42658 -1.4
    endloop
  endfacet
  facet normal 0.368123 0.929777 -0
    outer loop
      vertex -0.463525 -1.42658 1.4
      vertex -0.463525 -1.42658 -1.4
      vertex -0.638669 -1.35724 1.4
    endloop
  endfacet
  facet normal 0.368123 0.929777 -0
    outer loop
      vertex -0.638669 -1.35724 1.4
      vertex -0.463525 -1.42658 -1.4
      vertex -0.638669 -1.35724 -1.4
    endloop
  endfacet
  facet normal 0.481756 0.876306 -0
    outer loop
      vertex -0.638669 -1.35724 1.4
      vertex -0.638669 -1.35724 -1.4
      vertex -0.80374 -1.26649 1.4
    endloop
  endfacet
  facet normal 0.481756 0.876306 -0
    outer loop
      vertex -0.80374 -1.26649 1.4
      vertex -0.638669 -1.35724 -1.4
      vertex -0.80374 -1.26649 -1.4
    endloop
  endfacet
  facet normal 0.587785 0.809017 -0
    outer loop
      vertex -0.80374 -1.26649 1.4
      vertex -0.80374 -1.26649 -1.4
      vertex -0.956136 -1.15577 1.4
    endloop
  endfacet
  facet normal 0.587785 0.809017 -0
    outer loop
      vertex -0.956136 -1.15577 1.4
      vertex -0.80374 -1.26649 -1.4
      vertex -0.956136 -1.15577 -1.4
    endloop
  endfacet
  facet normal 0.684546 0.728969 -0
    outer loop
      vertex -0.956136 -1.15577 1.4
      vertex -0.956136 -1.15577 -1.4
      vertex -1.09345 -1.02682 1.4
    endloop
  endfacet
  facet normal 0.684546 0.728969 -0
    outer loop
      vertex -1.09345 -1.02682 1.4
      vertex -0.956136 -1.15577 -1.4
      vertex -1.09345 -1.02682 -1.4
    endloop
  endfacet
  facet normal 0.770515 0.637422 0
    outer loop
      vertex -1.21352 -0.881678 1.4
      vertex -1.09345 -1.02682 1.4
      vertex -1.09345 -1.02682 -1.4
    endloop
  endfacet
  facet normal 0.770515 0.637422 0
    outer loop
      vertex -1.21352 -0.881678 -1.4
      vertex -1.21352 -0.881678 1.4
      vertex -1.09345 -1.02682 -1.4
    endloop
  endfacet
  facet normal 0.844326 0.535829 0
    outer loop
      vertex -1.31446 -0.722631 1.4
      vertex -1.21352 -0.881678 1.4
      vertex -1.21352 -0.881678 -1.4
    endloop
  endfacet
  facet normal 0.844326 0.535829 0
    outer loop
      vertex -1.31446 -0.722631 -1.4
      vertex -1.31446 -0.722631 1.4
      vertex -1.21352 -0.881678 -1.4
    endloop
  endfacet
  facet normal 0.904827 0.42578 0
    outer loop
      vertex -1.39467 -0.552187 1.4
      vertex -1.31446 -0.722631 1.4
      vertex -1.31446 -0.722631 -1.4
    endloop
  endfacet
  facet normal 0.904827 0.42578 0
    outer loop
      vertex -1.39467 -0.552187 -1.4
      vertex -1.39467 -0.552187 1.4
      vertex -1.31446 -0.722631 -1.4
    endloop
  endfacet
  facet normal 0.951057 0.309017 0
    outer loop
      vertex -1.45287 -0.373035 1.4
      vertex -1.39467 -0.552187 1.4
      vertex -1.39467 -0.552187 -1.4
    endloop
  endfacet
  facet normal 0.951057 0.309017 0
    outer loop
      vertex -1.45287 -0.373035 -1.4
      vertex -1.45287 -0.373035 1.4
      vertex -1.39467 -0.552187 -1.4
    endloop
  endfacet
  facet normal 0.982288 0.18738 0
    outer loop
      vertex -1.48817 -0.188 1.4
      vertex -1.45287 -0.373035 1.4
      vertex -1.45287 -0.373035 -1.4
    endloop
  endfacet
  facet normal 0.982288 0.18738 0
    outer loop
      vertex -1.48817 -0.188 -1.4
      vertex -1.48817 -0.188 1.4
      vertex -1.45287 -0.373035 -1.4
    endloop
  endfacet
  facet normal 0 0 1
    outer loop
      vertex -9.92115 1.25333 1.4
      vertex -10 0 1.4
      vertex -9.92115 -1.25333 1.4
    endloop
  endfacet
  facet normal 0 0 1
    outer loop
      vertex -9.29777 -3.68125 1.4
      vertex -9.92115 1.25333 1.4
      vertex -9.68583 -2.4869 1.4
    endloop
  endfacet
  facet normal 0 0 1
    outer loop
      vertex -9.68583 -2.4869 1.4
      vertex -9.92115 1.25333 1.4
      vertex -9.92115 -1.25333 1.4
    endloop
  endfacet
  facet normal 0 0 1
    outer loop
      vertex -8.76307 -4.81754 1.4
      vertex -9.92115 1.25333 1.4
      vertex -9.29777 -3.68125 1.4
    endloop
  endfacet
  facet normal 0 0 1
    outer loop
      vertex -8.09017 -5.87785 1.4
      vertex -9.92115 1.25333 1.4
      vertex -8.76307 -4.81754 1.4
    endloop
  endfacet
  facet normal 0 0 1
    outer loop
      vertex -7.28969 -6.84547 1.4
      vertex -9.92115 1.25333 1.4
      vertex -8.09017 -5.87785 1.4
    endloop
  endfacet
  facet normal 0 0 1
    outer loop
      vertex -6.37424 -7.70513 1.4
      vertex -9.92115 1.25333 1.4
      vertex -7.28969 -6.84547 1.4
    endloop
  endfacet
  facet normal 0 0 1
    outer loop
      vertex -5.35827 -8.44328 1.4
      vertex -9.92115 1.25333 1.4
      vertex -6.37424 -7.70513 1.4
    endloop
  endfacet
  facet normal 0 0 1
    outer loop
      vertex -4.25779 -9.04827 1.4
      vertex -9.92115 1.25333 1.4
      vertex -5.35827 -8.44328 1.4
    endloop
  endfacet
  facet normal 0 0 1
    outer loop
      vertex -3.09017 -9.51056 1.4
      vertex -9.92115 1.25333 1.4
      vertex -4.25779 -9.04827 1.4
    endloop
  endfacet
  facet normal 0 0 1
    outer loop
      vertex -1.87381 -9.82287 1.4
      vertex -9.92115 1.25333 1.4
      vertex -3.09017 -9.51056 1.4
    endloop
  endfacet
  facet normal 0 0 1
    outer loop
      vertex -0.627905 -9.98027 1.4
      vertex -9.92115 1.25333 1.4
      vertex -1.87381 -9.82287 1.4
    endloop
  endfacet
  facet normal -0 0 1
    outer loop
      vertex 0.627905 -9.98027 1.4
      vertex -9.92115 1.25333 1.4
      vertex -0.627905 -9.98027 1.4
    endloop
  endfacet
  facet normal -0 0 1
    outer loop
      vertex 1.87381 -9.82287 1.4
      vertex -9.92115 1.25333 1.4
      vertex 0.627905 -9.98027 1.4
    endloop
  endfacet
  facet normal -0 0 1
    outer loop
      vertex 3.09017 -9.51056 1.4
      vertex -9.92115 1.25333 1.4
      vertex 1.87381 -9.82287 1.4
    endloop
  endfacet
  facet normal -0 0 1
    outer loop
      vertex 4.25779 -9.04827 1.4
      vertex -9.92115 1.25333 1.4
      vertex 3.09017 -9.51056 1.4
    endloop
  endfacet
  facet normal -0 0 1
    outer loop
      vertex 5.35827 -8.44328 1.4
      vertex -9.92115 1.25333 1.4
      vertex 4.25779 -9.04827 1.4
    endloop
  endfacet
  facet normal -0 0 1
    outer loop
      vertex 6.37424 -7.70513 1.4
      vertex -9.92115 1.25333 1.4
      vertex 5.35827 -8.44328 1.4
    endloop
  endfacet
  facet normal -0 0 1
    outer loop
      vertex 7.28969 -6.84547 1.4
      vertex -9.92115 1.25333 1.4
      vertex 6.37424 -7.70513 1.4
    endloop
  endfacet
  facet normal -0 0 1
    outer loop
      vertex 8.09017 -5.87785 1.4
      vertex -9.92115 1.25333 1.4
      vertex 7.28969 -6.84547 1.4
    endloop
  endfacet
  facet normal -0 0 1
    outer loop
      vertex 8.76307 -4.81754 1.4
      vertex -9.92115 1.25333 1.4
      vertex 8.09017 -5.87785 1.4
    endloop
  endfacet
  facet normal -0 -0 1
    outer loop
      vertex -0.463525 -1.42658 1.4
      vertex -9.92115 1.25333 1.4
      vertex 8.76307 -4.81754 1.4
    endloop
  endfacet
  facet normal 0 0 1
    outer loop
      vertex -0.463525 -1.42658 1.4
      vertex -0.638669 -1.35724 1.4
      vertex -9.92115 1.25333 1.4
    endloop
  endfacet
  facet normal 0 0 1
    outer loop
      vertex 1.45287 0.373035 1.4
      vertex 1.48817 0.188 1.4
      vertex 10 0 1.4
    endloop
  endfacet
  facet normal 0 0 1
    outer loop
      vertex 0.956136 1.15577 1.4
      vertex 1.09345 1.02682 1.4
      vertex 9.92115 1.25333 1.4
    endloop
  endfacet
  facet normal 0 -0 1
    outer loop
      vertex 9.29777 3.68125 1.4
      vertex -9.92115 1.25333 1.4
      vertex 9.68583 2.4869 1.4
    endloop
  endfacet
  facet normal 0 -0 1
    outer loop
      vertex 8.76307 4.81754 1.4
      vertex -9.92115 1.25333 1.4
      vertex 9.29777 3.68125 1.4
    endloop
  endfacet
  facet normal 0 -0 1
    outer loop
      vertex 8.09017 5.87785 1.4
      vertex -9.92115 1.25333 1.4
      vertex 8.76307 4.81754 1.4
    endloop
  endfacet
  facet normal 0 -0 1
    outer loop
      vertex 7.28969 6.84547 1.4
      vertex -9.92115 1.25333 1.4
      vertex 8.09017 5.87785 1.4
    endloop
  endfacet
  facet normal 0 -0 1
    outer loop
      vertex 6.37424 7.70513 1.4
      vertex -9.92115 1.25333 1.4
      vertex 7.28969 6.84547 1.4
    endloop
  endfacet
  facet normal 0 -0 1
    outer loop
      vertex 5.35827 8.44328 1.4
      vertex -9.92115 1.25333 1.4
      vertex 6.37424 7.70513 1.4
    endloop
  endfacet
  facet normal 0 -0 1
    outer loop
      vertex 4.25779 9.04827 1.4
      vertex -9.92115 1.25333 1.4
      vertex 5.35827 8.44328 1.4
    endloop
  endfacet
  facet normal 0 -0 1
    outer loop
      vertex 3.09017 9.51056 1.4
      vertex -9.92115 1.25333 1.4
      vertex 4.25779 9.04827 1.4
    endloop
  endfacet
  facet normal 0 -0 1
    outer loop
      vertex 1.87381 9.82287 1.4
      vertex -9.92115 1.25333 1.4
      vertex 3.09017 9.51056 1.4
    endloop
  endfacet
  facet normal 0 -0 1
    outer loop
      vertex 0.627905 9.98027 1.4
      vertex -9.92115 1.25333 1.4
      vertex 1.87381 9.82287 1.4
    endloop
  endfacet
  facet normal 0 -0 1
    outer loop
      vertex -0.627905 9.98027 1.4
      vertex -9.92115 1.25333 1.4
      vertex 0.627905 9.98027 1.4
    endloop
  endfacet
  facet normal 0 -0 1
    outer loop
      vertex -1.87381 9.82287 1.4
      vertex -9.92115 1.25333 1.4
      vertex -0.627905 9.98027 1.4
    endloop
  endfacet
  facet normal 0 -0 1
    outer loop
      vertex -3.09017 9.51056 1.4
      vertex -9.92115 1.25333 1.4
      vertex -1.87381 9.82287 1.4
    endloop
  endfacet
  facet normal 0 -0 1
    outer loop
      vertex -4.25779 9.04827 1.4
      vertex -9.92115 1.25333 1.4
      vertex -3.09017 9.51056 1.4
    endloop
  endfacet
  facet normal 0 -0 1
    outer loop
      vertex -5.35827 8.44328 1.4
      vertex -9.92115 1.25333 1.4
      vertex -4.25779 9.04827 1.4
    endloop
  endfacet
  facet normal 0 -0 1
    outer loop
      vertex -6.37424 7.70513 1.4
      vertex -9.92115 1.25333 1.4
      vertex -5.35827 8.44328 1.4
    endloop
  endfacet
  facet normal 0 -0 1
    outer loop
      vertex -7.28969 6.84547 1.4
      vertex -9.92115 1.25333 1.4
      vertex -6.37424 7.70513 1.4
    endloop
  endfacet
  facet normal 0 -0 1
    outer loop
      vertex -8.09017 5.87785 1.4
      vertex -9.92115 1.25333 1.4
      vertex -7.28969 6.84547 1.4
    endloop
  endfacet
  facet normal 0 -0 1
    outer loop
      vertex -8.76307 4.81754 1.4
      vertex -9.92115 1.25333 1.4
      vertex -8.09017 5.87785 1.4
    endloop
  endfacet
  facet normal 0 -0 1
    outer loop
      vertex -9.29777 3.68125 1.4
      vertex -9.92115 1.25333 1.4
      vertex -8.76307 4.81754 1.4
    endloop
  endfacet
  facet normal 0 -0 1
    outer loop
      vertex -9.68583 2.4869 1.4
      vertex -9.92115 1.25333 1.4
      vertex -9.29777 3.68125 1.4
    endloop
  endfacet
  facet normal 0 -0 1
    outer loop
      vertex 0.638669 -1.35724 1.4
      vertex 0.463525 -1.42658 1.4
      vertex 9.29777 -3.68125 1.4
    endloop
  endfacet
  facet normal -0 -0 1
    outer loop
      vertex -1.5 0 1.4
      vertex -9.92115 1.25333 1.4
      vertex -1.48817 -0.188 1.4
    endloop
  endfacet
  facet normal 0 0 1
    outer loop
      vertex 0.80374 1.26649 1.4
      vertex 0.956136 1.15577 1.4
      vertex 9.92115 1.25333 1.4
    endloop
  endfacet
  facet normal 0 -0 1
    outer loop
      vertex 1.48817 -0.188 1.4
      vertex 1.45287 -0.373035 1.4
      vertex 9.92115 -1.25333 1.4
    endloop
  endfacet
  facet normal -0 0 1
    outer loop
      vertex -1.45287 0.373035 1.4
      vertex -9.92115 1.25333 1.4
      vertex -1.48817 0.188 1.4
    endloop
  endfacet
  facet normal -0 0 1
    outer loop
      vertex -1.39467 0.552187 1.4
      vertex -9.92115 1.25333 1.4
      vertex -1.45287 0.373035 1.4
    endloop
  endfacet
  facet normal 0 0 1
    outer loop
      vertex -0.956136 1.15577 1.4
      vertex -0.80374 1.26649 1.4
      vertex -9.92115 1.25333 1.4
    endloop
  endfacet
  facet normal 0 0 1
    outer loop
      vertex -1.09345 -1.02682 1.4
      vertex -1.21352 -0.881678 1.4
      vertex -9.92115 1.25333 1.4
    endloop
  endfacet
  facet normal -0 0 1
    outer loop
      vertex -1.21352 0.881678 1.4
      vertex -9.92115 1.25333 1.4
      vertex -1.31446 0.722631 1.4
    endloop
  endfacet
  facet normal -0 0 1
    outer loop
      vertex -1.09345 1.02682 1.4
      vertex -9.92115 1.25333 1.4
      vertex -1.21352 0.881678 1.4
    endloop
  endfacet
  facet normal -0 0 1
    outer loop
      vertex -0.956136 1.15577 1.4
      vertex -9.92115 1.25333 1.4
      vertex -1.09345 1.02682 1.4
    endloop
  endfacet
  facet normal 0 0 1
    outer loop
      vertex -0.094186 1.49704 1.4
      vertex 0.094186 1.49704 1.4
      vertex 9.68583 2.4869 1.4
    endloop
  endfacet
  facet normal 0 0 1
    outer loop
      vertex 1.39467 0.552187 1.4
      vertex 1.45287 0.373035 1.4
      vertex 10 0 1.4
    endloop
  endfacet
  facet normal 0 0 1
    outer loop
      vertex -0.638669 1.35724 1.4
      vertex -9.92115 1.25333 1.4
      vertex -0.80374 1.26649 1.4
    endloop
  endfacet
  facet normal 0 0 1
    outer loop
      vertex -0.463525 1.42658 1.4
      vertex -9.92115 1.25333 1.4
      vertex -0.638669 1.35724 1.4
    endloop
  endfacet
  facet normal 0 0 1
    outer loop
      vertex -0.281072 1.47343 1.4
      vertex -9.92115 1.25333 1.4
      vertex -0.463525 1.42658 1.4
    endloop
  endfacet
  facet normal 0 0 1
    outer loop
      vertex -0.094186 1.49704 1.4
      vertex -9.92115 1.25333 1.4
      vertex -0.281072 1.47343 1.4
    endloop
  endfacet
  facet normal 0 0 1
    outer loop
      vertex 0.094186 1.49704 1.4
      vertex 0.281072 1.47343 1.4
      vertex 9.68583 2.4869 1.4
    endloop
  endfacet
  facet normal 0 0 1
    outer loop
      vertex 9.68583 2.4869 1.4
      vertex -9.92115 1.25333 1.4
      vertex -0.094186 1.49704 1.4
    endloop
  endfacet
  facet normal 0 0 1
    outer loop
      vertex 0.281072 1.47343 1.4
      vertex 0.463525 1.42658 1.4
      vertex 9.68583 2.4869 1.4
    endloop
  endfacet
  facet normal 0 0 1
    outer loop
      vertex 0.463525 1.42658 1.4
      vertex 0.638669 1.35724 1.4
      vertex 9.68583 2.4869 1.4
    endloop
  endfacet
  facet normal 0 -0 1
    outer loop
      vertex 9.68583 2.4869 1.4
      vertex 0.638669 1.35724 1.4
      vertex 9.92115 1.25333 1.4
    endloop
  endfacet
  facet normal 0 0 1
    outer loop
      vertex 0.638669 1.35724 1.4
      vertex 0.80374 1.26649 1.4
      vertex 9.92115 1.25333 1.4
    endloop
  endfacet
  facet normal 0 0 1
    outer loop
      vertex 1.09345 1.02682 1.4
      vertex 1.21352 0.881678 1.4
      vertex 9.92115 1.25333 1.4
    endloop
  endfacet
  facet normal 0 0 1
    outer loop
      vertex 1.21352 0.881678 1.4
      vertex 1.31446 0.722631 1.4
      vertex 9.92115 1.25333 1.4
    endloop
  endfacet
  facet normal 0 -0 1
    outer loop
      vertex 9.92115 1.25333 1.4
      vertex 1.31446 0.722631 1.4
      vertex 10 0 1.4
    endloop
  endfacet
  facet normal 0 0 1
    outer loop
      vertex 1.31446 0.722631 1.4
      vertex 1.39467 0.552187 1.4
      vertex 10 0 1.4
    endloop
  endfacet
  facet normal 0 0 1
    outer loop
      vertex 1.48817 0.188 1.4
      vertex 1.5 0 1.4
      vertex 10 0 1.4
    endloop
  endfacet
  facet normal 0 -0 1
    outer loop
      vertex 1.5 0 1.4
      vertex 1.48817 -0.188 1.4
      vertex 9.92115 -1.25333 1.4
    endloop
  endfacet
  facet normal 0 0 1
    outer loop
      vertex 10 0 1.4
      vertex 1.5 0 1.4
      vertex 9.92115 -1.25333 1.4
    endloop
  endfacet
  facet normal 0 -0 1
    outer loop
      vertex 1.45287 -0.373035 1.4
      vertex 1.39467 -0.552187 1.4
      vertex 9.92115 -1.25333 1.4
    endloop
  endfacet
  facet normal 0 0 1
    outer loop
      vertex -1.39467 0.552187 1.4
      vertex -1.31446 0.722631 1.4
      vertex -9.92115 1.25333 1.4
    endloop
  endfacet
  facet normal 0 -0 1
    outer loop
      vertex 1.31446 -0.722631 1.4
      vertex 1.21352 -0.881678 1.4
      vertex 9.68583 -2.4869 1.4
    endloop
  endfacet
  facet normal -0 0 1
    outer loop
      vertex 9.92115 -1.25333 1.4
      vertex 1.39467 -0.552187 1.4
      vertex 9.68583 -2.4869 1.4
    endloop
  endfacet
  facet normal 0 -0 1
    outer loop
      vertex 1.39467 -0.552187 1.4
      vertex 1.31446 -0.722631 1.4
      vertex 9.68583 -2.4869 1.4
    endloop
  endfacet
  facet normal -0 0 1
    outer loop
      vertex 9.68583 -2.4869 1.4
      vertex 1.21352 -0.881678 1.4
      vertex 9.29777 -3.68125 1.4
    endloop
  endfacet
  facet normal 0 -0 1
    outer loop
      vertex 1.21352 -0.881678 1.4
      vertex 1.09345 -1.02682 1.4
      vertex 9.29777 -3.68125 1.4
    endloop
  endfacet
  facet normal 0 -0 1
    outer loop
      vertex 1.09345 -1.02682 1.4
      vertex 0.956136 -1.15577 1.4
      vertex 9.29777 -3.68125 1.4
    endloop
  endfacet
  facet normal 0 -0 1
    outer loop
      vertex 0.956136 -1.15577 1.4
      vertex 0.80374 -1.26649 1.4
      vertex 9.29777 -3.68125 1.4
    endloop
  endfacet
  facet normal 0 -0 1
    outer loop
      vertex 0.80374 -1.26649 1.4
      vertex 0.638669 -1.35724 1.4
      vertex 9.29777 -3.68125 1.4
    endloop
  endfacet
  facet normal -0 0 1
    outer loop
      vertex 9.29777 -3.68125 1.4
      vertex 0.463525 -1.42658 1.4
      vertex 8.76307 -4.81754 1.4
    endloop
  endfacet
  facet normal 0 -0 1
    outer loop
      vertex 0.463525 -1.42658 1.4
      vertex 0.281072 -1.47343 1.4
      vertex 8.76307 -4.81754 1.4
    endloop
  endfacet
  facet normal 0 -0 1
    outer loop
      vertex 0.281072 -1.47343 1.4
      vertex 0.094186 -1.49704 1.4
      vertex 8.76307 -4.81754 1.4
    endloop
  endfacet
  facet normal 0 -0 1
    outer loop
      vertex 0.094186 -1.49704 1.4
      vertex -0.094186 -1.49704 1.4
      vertex 8.76307 -4.81754 1.4
    endloop
  endfacet
  facet normal -0 -0 1
    outer loop
      vertex -0.094186 -1.49704 1.4
      vertex -0.281072 -1.47343 1.4
      vertex 8.76307 -4.81754 1.4
    endloop
  endfacet
  facet normal -0 -0 1
    outer loop
      vertex -0.281072 -1.47343 1.4
      vertex -0.463525 -1.42658 1.4
      vertex 8.76307 -4.81754 1.4
    endloop
  endfacet
  facet normal 0 0 1
    outer loop
      vertex -0.638669 -1.35724 1.4
      vertex -0.80374 -1.26649 1.4
      vertex -9.92115 1.25333 1.4
    endloop
  endfacet
  facet normal 0 0 1
    outer loop
      vertex -0.80374 -1.26649 1.4
      vertex -0.956136 -1.15577 1.4
      vertex -9.92115 1.25333 1.4
    endloop
  endfacet
  facet normal 0 0 1
    outer loop
      vertex -0.956136 -1.15577 1.4
      vertex -1.09345 -1.02682 1.4
      vertex -9.92115 1.25333 1.4
    endloop
  endfacet
  facet normal 0 0 1
    outer loop
      vertex -1.31446 -0.722631 1.4
      vertex -1.39467 -0.552187 1.4
      vertex -9.92115 1.25333 1.4
    endloop
  endfacet
  facet normal 0 0 1
    outer loop
      vertex -1.39467 -0.552187 1.4
      vertex -1.45287 -0.373035 1.4
      vertex -9.92115 1.25333 1.4
    endloop
  endfacet
  facet normal 0 0 1
    outer loop
      vertex -1.5 0 1.4
      vertex -1.48817 0.188 1.4
      vertex -9.92115 1.25333 1.4
    endloop
  endfacet
  facet normal 0 0 1
    outer loop
      vertex -1.21352 -0.881678 1.4
      vertex -1.31446 -0.722631 1.4
      vertex -9.92115 1.25333 1.4
    endloop
  endfacet
  facet normal 0 0 1
    outer loop
      vertex -1.45287 -0.373035 1.4
      vertex -1.48817 -0.188 1.4
      vertex -9.92115 1.25333 1.4
    endloop
  endfacet
endsolid OpenSCAD_Model
