solid OpenSCAD_Model
  facet normal -0.894422 -0 -0.447224
    outer loop
      vertex -51.9615 0 0
      vertex -51.9615 30 0
      vertex -45.75 0 -12.4227
    endloop
  endfacet
  facet normal -0.894422 -0 -0.447224
    outer loop
      vertex -45.75 0 -12.4227
      vertex -51.9615 30 0
      vertex -45.75 26.4138 -12.4227
    endloop
  endfacet
  facet normal -0.894422 0 0.447224
    outer loop
      vertex -51.9615 0 0
      vertex -45.4663 0 12.99
      vertex -51.9615 30 0
    endloop
  endfacet
  facet normal -0.894422 0 0.447224
    outer loop
      vertex -51.9615 30 0
      vertex -45.4663 0 12.99
      vertex -45.4663 26.25 12.99
    endloop
  endfacet
  facet normal 0 -1 0
    outer loop
      vertex -45.75 0 -12.4227
      vertex -45.75 0 -15
      vertex 0 0 -15
    endloop
  endfacet
  facet normal 0 -1 0
    outer loop
      vertex -1.5 0 -12
      vertex -45.75 0 -12.4227
      vertex 0 0 -15
    endloop
  endfacet
  facet normal 0 -1 0
    outer loop
      vertex 0 0 0.5
      vertex -1.5 0 -12
      vertex 0 0 -15
    endloop
  endfacet
  facet normal 0 -1 0
    outer loop
      vertex -31.9809 0 -12
      vertex -45.75 0 -12.4227
      vertex -1.5 0 -12
    endloop
  endfacet
  facet normal 0 -1 -0
    outer loop
      vertex -31.9809 0 -12
      vertex -25.9808 0 0
      vertex -45.75 0 -12.4227
    endloop
  endfacet
  facet normal 0 -1 0
    outer loop
      vertex -32.476 0 12.99
      vertex -45.75 0 -12.4227
      vertex -25.9808 0 0
    endloop
  endfacet
  facet normal 0 -1 0
    outer loop
      vertex -45.4663 0 12.99
      vertex -45.75 0 -12.4227
      vertex -32.476 0 12.99
    endloop
  endfacet
  facet normal -0 -1 0
    outer loop
      vertex -51.9615 0 0
      vertex -45.75 0 -12.4227
      vertex -45.4663 0 12.99
    endloop
  endfacet
  facet normal 0 -1 0
    outer loop
      vertex -1.5 0 0.5
      vertex -1.5 0 -12
      vertex 0 0 0.5
    endloop
  endfacet
  facet normal -1 -0 -0
    outer loop
      vertex -45.75 0 -15
      vertex -45.75 0 -12.4227
      vertex -45.75 27.7505 -15
    endloop
  endfacet
  facet normal -1 0 0
    outer loop
      vertex -45.75 27.7505 -15
      vertex -45.75 0 -12.4227
      vertex -45.75 26.4138 -12.4227
    endloop
  endfacet
  facet normal -1 0 0
    outer loop
      vertex -45.75 27.7505 -15
      vertex -45.75 26.4138 -12.4227
      vertex -45.75 26.6578 -12
    endloop
  endfacet
  facet normal -1 0 0
    outer loop
      vertex -45.75 27.7505 -15
      vertex -45.75 26.6578 -12
      vertex -45.75 27.7505 -12
    endloop
  endfacet
  facet normal -0.447211 0.774592 -0.447224
    outer loop
      vertex -51.9615 30 0
      vertex -1.5 59.134 0
      vertex -45.75 26.6578 -12
    endloop
  endfacet
  facet normal -0.447211 0.774592 -0.447224
    outer loop
      vertex -51.9615 30 0
      vertex -45.75 26.6578 -12
      vertex -45.75 26.4138 -12.4227
    endloop
  endfacet
  facet normal -0.447211 0.774592 -0.447224
    outer loop
      vertex -45.75 26.6578 -12
      vertex -1.5 59.134 0
      vertex -1.5 58.8865 -0.428559
    endloop
  endfacet
  facet normal -0.447211 0.774592 -0.447224
    outer loop
      vertex -45.75 26.6578 -12
      vertex -1.5 58.8865 -0.428559
      vertex -42.0012 28.8222 -12
    endloop
  endfacet
  facet normal -0.447211 0.774592 0.447224
    outer loop
      vertex -1.5 59.134 0
      vertex -51.9615 30 0
      vertex -1.5 51.8505 12.615
    endloop
  endfacet
  facet normal -0.447211 0.774592 0.447224
    outer loop
      vertex -51.9615 30 0
      vertex -45.4663 26.25 12.99
      vertex -1.5 51.8505 12.615
    endloop
  endfacet
  facet normal -0.447211 0.774592 0.447224
    outer loop
      vertex -1.5 51.8505 12.615
      vertex -45.4663 26.25 12.99
      vertex -1.5 51.634 12.99
    endloop
  endfacet
  facet normal 0 -0 1
    outer loop
      vertex -45.4663 26.25 12.99
      vertex -45.4663 0 12.99
      vertex -32.476 0 12.99
    endloop
  endfacet
  facet normal 0 0 1
    outer loop
      vertex -1.5 36.634 12.99
      vertex -45.4663 26.25 12.99
      vertex -32.476 18.75 12.99
    endloop
  endfacet
  facet normal -0 0 1
    outer loop
      vertex -32.476 18.75 12.99
      vertex -45.4663 26.25 12.99
      vertex -32.476 0 12.99
    endloop
  endfacet
  facet normal 0 0 1
    outer loop
      vertex -1.5 51.634 12.99
      vertex -45.4663 26.25 12.99
      vertex -1.5 36.634 12.99
    endloop
  endfacet
  facet normal 0.894422 -0 0.447224
    outer loop
      vertex -32.476 18.75 12.99
      vertex -32.476 0 12.99
      vertex -25.9808 0 0
    endloop
  endfacet
  facet normal 0.894422 -0 0.447224
    outer loop
      vertex -25.9808 15 0
      vertex -32.476 18.75 12.99
      vertex -25.9808 0 0
    endloop
  endfacet
  facet normal 0.894422 0 -0.447224
    outer loop
      vertex -25.9808 0 0
      vertex -31.9809 0 -12
      vertex -31.9809 18.4642 -12
    endloop
  endfacet
  facet normal 0.894422 0 -0.447224
    outer loop
      vertex -25.9808 15 0
      vertex -25.9808 0 0
      vertex -31.9809 18.4642 -12
    endloop
  endfacet
  facet normal 0 -0 1
    outer loop
      vertex -31.9809 18.4642 -12
      vertex -31.9809 0 -12
      vertex -1.5 0 -12
    endloop
  endfacet
  facet normal 0 -0 1
    outer loop
      vertex -1.98006 35.7852 -12
      vertex -31.9809 18.4642 -12
      vertex -1.5 0 -12
    endloop
  endfacet
  facet normal 0 0 1
    outer loop
      vertex -1.5 36.0624 -12
      vertex -1.98006 35.7852 -12
      vertex -1.5 0 -12
    endloop
  endfacet
  facet normal -1 -0 -0
    outer loop
      vertex -1.5 0 -12
      vertex -1.5 0 0.5
      vertex -1.5 36.0624 -12
    endloop
  endfacet
  facet normal -1 0 -0
    outer loop
      vertex -1.5 29.134 0
      vertex -1.5 0 0.5
      vertex -1.5 29.4227 0.5
    endloop
  endfacet
  facet normal -1 0 0
    outer loop
      vertex -1.5 36.0624 -12
      vertex -1.5 0 0.5
      vertex -1.5 29.134 0
    endloop
  endfacet
  facet normal 0 -0 1
    outer loop
      vertex -1.5 29.4227 0.5
      vertex -1.5 0 0.5
      vertex 0 0 0.5
    endloop
  endfacet
  facet normal 0 -0 1
    outer loop
      vertex -0.500015 30 0.5
      vertex -1.5 29.4227 0.5
      vertex 0 30 0.5
    endloop
  endfacet
  facet normal 0 0 1
    outer loop
      vertex 0 30 0.5
      vertex -1.5 29.4227 0.5
      vertex 0 0 0.5
    endloop
  endfacet
  facet normal 0 -0 1.66647e-09
    outer loop
      vertex -1.25004 29.567 0.5
      vertex -1.5 29.4227 0.5
      vertex -0.500015 30 0.5
    endloop
  endfacet
  facet normal 1 0 0
    outer loop
      vertex 0 60 -15
      vertex 0 60 15
      vertex 0 30 15
    endloop
  endfacet
  facet normal 1 0 0
    outer loop
      vertex 0 0 0.5
      vertex 0 60 -15
      vertex 0 30 0.5
    endloop
  endfacet
  facet normal 1 0 0
    outer loop
      vertex 0 30 0.5
      vertex 0 60 -15
      vertex 0 30 15
    endloop
  endfacet
  facet normal 1 0 0
    outer loop
      vertex 0 0 -15
      vertex 0 60 -15
      vertex 0 0 0.5
    endloop
  endfacet
  facet normal -0 -0 -1
    outer loop
      vertex -45.75 0 -15
      vertex -45.75 27.7505 -15
      vertex 0 0 -15
    endloop
  endfacet
  facet normal 0 0 -1
    outer loop
      vertex 0 0 -15
      vertex -45.75 27.7505 -15
      vertex -2.22565 52.8793 -15
    endloop
  endfacet
  facet normal 0 -0 -1
    outer loop
      vertex -2.22565 52.8793 -15
      vertex -2.29532 53 -15
      vertex -1.5 53 -15
    endloop
  endfacet
  facet normal -0 0 -1
    outer loop
      vertex -2.22565 52.8793 -15
      vertex -1.5 53 -15
      vertex 0 0 -15
    endloop
  endfacet
  facet normal -0 -0 -1
    outer loop
      vertex -1.5 53 -15
      vertex -1.5 60 -15
      vertex 0 0 -15
    endloop
  endfacet
  facet normal 0 0 -1
    outer loop
      vertex 0 0 -15
      vertex -1.5 60 -15
      vertex 0 60 -15
    endloop
  endfacet
  facet normal -0.5 0.866025 0
    outer loop
      vertex -2.22565 52.8793 -12
      vertex -2.22565 52.8793 -15
      vertex -45.75 27.7505 -12
    endloop
  endfacet
  facet normal -0.5 0.866025 0
    outer loop
      vertex -45.75 27.7505 -12
      vertex -2.22565 52.8793 -15
      vertex -45.75 27.7505 -15
    endloop
  endfacet
  facet normal 0 -0 1
    outer loop
      vertex -45.75 27.7505 -12
      vertex -45.75 26.6578 -12
      vertex -42.0012 28.8222 -12
    endloop
  endfacet
  facet normal 0 0 1
    outer loop
      vertex -1.5 52.2056 -12
      vertex -45.75 27.7505 -12
      vertex -42.0012 28.8222 -12
    endloop
  endfacet
  facet normal -0 0 1
    outer loop
      vertex -1.5 52.2056 -12
      vertex -1.5 53 -12
      vertex -45.75 27.7505 -12
    endloop
  endfacet
  facet normal 0 0 1
    outer loop
      vertex -1.5 53 -12
      vertex -2.22565 52.8793 -12
      vertex -45.75 27.7505 -12
    endloop
  endfacet
  facet normal 0 0 1
    outer loop
      vertex -1.5 53 -12
      vertex -2.29532 53 -12
      vertex -2.22565 52.8793 -12
    endloop
  endfacet
  facet normal -0.447211 0.774592 -0.447224
    outer loop
      vertex -1.5 52.2056 -12
      vertex -42.0012 28.8222 -12
      vertex -1.5 58.8865 -0.428559
    endloop
  endfacet
  facet normal -1 0 -0
    outer loop
      vertex -1.5 30 1.49996
      vertex -1.5 30 15
      vertex -1.5 36.634 12.99
    endloop
  endfacet
  facet normal -1 0 -0
    outer loop
      vertex -1.5 36.634 12.99
      vertex -1.5 30 15
      vertex -1.5 60 15
    endloop
  endfacet
  facet normal -1 -0 0
    outer loop
      vertex -1.5 51.8505 12.615
      vertex -1.5 60 15
      vertex -1.5 59.134 0
    endloop
  endfacet
  facet normal -1 0 0
    outer loop
      vertex -1.5 60 -15
      vertex -1.5 53 -15
      vertex -1.5 53 -12
    endloop
  endfacet
  facet normal -1 0 0
    outer loop
      vertex -1.5 59.134 0
      vertex -1.5 60 -15
      vertex -1.5 58.8865 -0.428559
    endloop
  endfacet
  facet normal -1 0 0
    outer loop
      vertex -1.5 60 15
      vertex -1.5 60 -15
      vertex -1.5 59.134 0
    endloop
  endfacet
  facet normal -1 -0 0
    outer loop
      vertex -1.5 51.634 12.99
      vertex -1.5 60 15
      vertex -1.5 51.8505 12.615
    endloop
  endfacet
  facet normal -1 -0 0
    outer loop
      vertex -1.5 36.634 12.99
      vertex -1.5 60 15
      vertex -1.5 51.634 12.99
    endloop
  endfacet
  facet normal -1 0 0
    outer loop
      vertex -1.5 58.8865 -0.428559
      vertex -1.5 60 -15
      vertex -1.5 53 -12
    endloop
  endfacet
  facet normal -1 0 0
    outer loop
      vertex -1.5 58.8865 -0.428559
      vertex -1.5 53 -12
      vertex -1.5 52.2056 -12
    endloop
  endfacet
  facet normal 0.447211 -0.774592 0.447224
    outer loop
      vertex -1.5 30 1.49996
      vertex -32.476 18.75 12.99
      vertex -1.25004 29.567 0.5
    endloop
  endfacet
  facet normal 0.447211 -0.774592 0.447224
    outer loop
      vertex -1.5 36.634 12.99
      vertex -32.476 18.75 12.99
      vertex -1.5 30 1.49996
    endloop
  endfacet
  facet normal 0.447211 -0.774592 0.447224
    outer loop
      vertex -0.500015 30 0.5
      vertex -1.5 30 1.49996
      vertex -1.25004 29.567 0.5
    endloop
  endfacet
  facet normal 0.447211 -0.774592 0.447224
    outer loop
      vertex -1.5 29.4227 0.5
      vertex -32.476 18.75 12.99
      vertex -25.9808 15 0
    endloop
  endfacet
  facet normal 0.447211 -0.774592 0.447224
    outer loop
      vertex -1.25004 29.567 0.5
      vertex -32.476 18.75 12.99
      vertex -1.5 29.4227 0.5
    endloop
  endfacet
  facet normal 0.447211 -0.774592 0.447224
    outer loop
      vertex -1.5 29.134 0
      vertex -1.5 29.4227 0.5
      vertex -25.9808 15 0
    endloop
  endfacet
  facet normal 0.447211 -0.774592 -0.447224
    outer loop
      vertex -1.5 29.134 0
      vertex -25.9808 15 0
      vertex -1.98006 35.7852 -12
    endloop
  endfacet
  facet normal 0.447211 -0.774592 -0.447224
    outer loop
      vertex -1.5 36.0624 -12
      vertex -1.5 29.134 0
      vertex -1.98006 35.7852 -12
    endloop
  endfacet
  facet normal 0.447211 -0.774592 -0.447224
    outer loop
      vertex -25.9808 15 0
      vertex -31.9809 18.4642 -12
      vertex -1.98006 35.7852 -12
    endloop
  endfacet
  facet normal 0 -1 0
    outer loop
      vertex -1.5 30 15
      vertex -1.5 30 1.49996
      vertex -0.500015 30 0.5
    endloop
  endfacet
  facet normal 0 -1 0
    outer loop
      vertex 0 30 15
      vertex -1.5 30 15
      vertex 0 30 0.5
    endloop
  endfacet
  facet normal 0 -1 0
    outer loop
      vertex 0 30 0.5
      vertex -1.5 30 15
      vertex -0.500015 30 0.5
    endloop
  endfacet
  facet normal 0 1 0
    outer loop
      vertex -1.5 60 -15
      vertex -1.5 60 15
      vertex 0 60 -15
    endloop
  endfacet
  facet normal 0 1 0
    outer loop
      vertex 0 60 -15
      vertex -1.5 60 15
      vertex 0 60 15
    endloop
  endfacet
  facet normal 0 -0 1
    outer loop
      vertex -1.5 60 15
      vertex -1.5 30 15
      vertex 0 30 15
    endloop
  endfacet
  facet normal 0 0 1
    outer loop
      vertex 0 60 15
      vertex -1.5 60 15
      vertex 0 30 15
    endloop
  endfacet
  facet normal 0 1 0
    outer loop
      vertex -2.29532 53 -15
      vertex -2.29532 53 -12
      vertex -1.5 53 -15
    endloop
  endfacet
  facet normal 0 1 0
    outer loop
      vertex -1.5 53 -15
      vertex -2.29532 53 -12
      vertex -1.5 53 -12
    endloop
  endfacet
  facet normal -0.866025 -0.5 0
    outer loop
      vertex -2.22565 52.8793 -12
      vertex -2.29532 53 -12
      vertex -2.22565 52.8793 -15
    endloop
  endfacet
  facet normal -0.866025 -0.5 0
    outer loop
      vertex -2.22565 52.8793 -15
      vertex -2.29532 53 -12
      vertex -2.29532 53 -15
    endloop
  endfacet
endsolid OpenSCAD_Model
