solid OpenSCAD_Model
  facet normal 0.000000 0.894154 0.447759
    outer loop
      vertex 37.500000 37.500000 74.885770
      vertex 75.000000 75.000000 0.000000
      vertex 0.000000 75.000000 0.000000
    endloop
  endfacet
  facet normal -0.707107 -0.707107 0.000000
    outer loop
      vertex 37.500000 37.500000 74.885770
      vertex 0.000000 75.000000 0.000000
      vertex 37.500000 37.500000 0.000000
    endloop
  endfacet
  facet normal 0.000000 -0.000000 -1.000000
    outer loop
      vertex 37.500000 37.500000 0.000000
      vertex 0.000000 75.000000 0.000000
      vertex 75.000000 75.000000 0.000000
    endloop
  endfacet
  facet normal 0.707107 -0.707107 0.000000
    outer loop
      vertex 37.500000 37.500000 74.885770
      vertex 37.500000 37.500000 0.000000
      vertex 75.000000 75.000000 0.000000
    endloop
  endfacet
endsolid OpenSCAD_Model
