solid Default
  facet normal -1.000000e+00 -6.123234e-17 0.000000e+00
    outer loop
      vertex -3.300000e+01 2.200000e+01 0.000000e+00
      vertex -3.300000e+01 1.950000e+01 0.000000e+00
      vertex -3.300000e+01 2.200000e+01 2.000000e+00
    endloop
  endfacet
  facet normal -1.000000e+00 -6.123234e-17 0.000000e+00
    outer loop
      vertex -3.300000e+01 2.200000e+01 2.000000e+00
      vertex -3.300000e+01 1.950000e+01 0.000000e+00
      vertex -3.300000e+01 1.950000e+01 2.000000e+00
    endloop
  endfacet
  facet normal -6.123234e-17 1.000000e+00 0.000000e+00
    outer loop
      vertex -3.300000e+01 1.950000e+01 0.000000e+00
      vertex -4.500000e+01 1.950000e+01 0.000000e+00
      vertex -3.300000e+01 1.950000e+01 2.000000e+00
    endloop
  endfacet
  facet normal -6.123234e-17 1.000000e+00 0.000000e+00
    outer loop
      vertex -3.300000e+01 1.950000e+01 2.000000e+00
      vertex -4.500000e+01 1.950000e+01 0.000000e+00
      vertex -4.500000e+01 1.950000e+01 2.000000e+00
    endloop
  endfacet
  facet normal -1.000000e+00 -6.123234e-17 -0.000000e+00
    outer loop
      vertex -3.300000e+01 -2.200000e+01 2.000000e+00
      vertex -3.300000e+01 -1.950000e+01 2.000000e+00
      vertex -3.300000e+01 -2.200000e+01 0.000000e+00
    endloop
  endfacet
  facet normal -1.000000e+00 -6.123234e-17 0.000000e+00
    outer loop
      vertex -3.300000e+01 -2.200000e+01 0.000000e+00
      vertex -3.300000e+01 -1.950000e+01 2.000000e+00
      vertex -3.300000e+01 -1.950000e+01 0.000000e+00
    endloop
  endfacet
  facet normal 6.123234e-17 -1.000000e+00 0.000000e+00
    outer loop
      vertex -3.300000e+01 -1.950000e+01 2.000000e+00
      vertex -4.500000e+01 -1.950000e+01 2.000000e+00
      vertex -3.300000e+01 -1.950000e+01 0.000000e+00
    endloop
  endfacet
  facet normal 6.123234e-17 -1.000000e+00 0.000000e+00
    outer loop
      vertex -3.300000e+01 -1.950000e+01 0.000000e+00
      vertex -4.500000e+01 -1.950000e+01 2.000000e+00
      vertex -4.500000e+01 -1.950000e+01 0.000000e+00
    endloop
  endfacet
  facet normal -1.000000e+00 -6.123234e-17 0.000000e+00
    outer loop
      vertex 4.100000e+01 1.800000e+01 0.000000e+00
      vertex 4.100000e+01 -1.800000e+01 0.000000e+00
      vertex 4.100000e+01 1.800000e+01 2.000000e+00
    endloop
  endfacet
  facet normal -1.000000e+00 -6.123234e-17 0.000000e+00
    outer loop
      vertex 4.100000e+01 1.800000e+01 2.000000e+00
      vertex 4.100000e+01 -1.800000e+01 0.000000e+00
      vertex 4.100000e+01 -1.800000e+01 2.000000e+00
    endloop
  endfacet
  facet normal -6.123234e-17 1.000000e+00 0.000000e+00
    outer loop
      vertex 4.100000e+01 -1.800000e+01 0.000000e+00
      vertex 1.100000e+01 -1.800000e+01 0.000000e+00
      vertex 4.100000e+01 -1.800000e+01 2.000000e+00
    endloop
  endfacet
  facet normal -6.123234e-17 1.000000e+00 0.000000e+00
    outer loop
      vertex 4.100000e+01 -1.800000e+01 2.000000e+00
      vertex 1.100000e+01 -1.800000e+01 0.000000e+00
      vertex 1.100000e+01 -1.800000e+01 2.000000e+00
    endloop
  endfacet
  facet normal 1.000000e+00 6.123234e-17 0.000000e+00
    outer loop
      vertex 1.100000e+01 -1.800000e+01 0.000000e+00
      vertex 1.100000e+01 1.800000e+01 0.000000e+00
      vertex 1.100000e+01 -1.800000e+01 2.000000e+00
    endloop
  endfacet
  facet normal 1.000000e+00 6.123234e-17 0.000000e+00
    outer loop
      vertex 1.100000e+01 -1.800000e+01 2.000000e+00
      vertex 1.100000e+01 1.800000e+01 0.000000e+00
      vertex 1.100000e+01 1.800000e+01 2.000000e+00
    endloop
  endfacet
  facet normal 6.123234e-17 -1.000000e+00 0.000000e+00
    outer loop
      vertex 1.100000e+01 1.800000e+01 0.000000e+00
      vertex 4.100000e+01 1.800000e+01 0.000000e+00
      vertex 1.100000e+01 1.800000e+01 2.000000e+00
    endloop
  endfacet
  facet normal 6.123234e-17 -1.000000e+00 0.000000e+00
    outer loop
      vertex 1.100000e+01 1.800000e+01 2.000000e+00
      vertex 4.100000e+01 1.800000e+01 0.000000e+00
      vertex 4.100000e+01 1.800000e+01 2.000000e+00
    endloop
  endfacet
  facet normal 1.000000e+00 6.123234e-17 0.000000e+00
    outer loop
      vertex 4.500000e+01 -2.200000e+01 0.000000e+00
      vertex 4.500000e+01 2.200000e+01 0.000000e+00
      vertex 4.500000e+01 -2.200000e+01 2.000000e+00
    endloop
  endfacet
  facet normal 1.000000e+00 6.123234e-17 0.000000e+00
    outer loop
      vertex 4.500000e+01 -2.200000e+01 2.000000e+00
      vertex 4.500000e+01 2.200000e+01 0.000000e+00
      vertex 4.500000e+01 2.200000e+01 2.000000e+00
    endloop
  endfacet
  facet normal 6.123234e-17 -1.000000e+00 0.000000e+00
    outer loop
      vertex 4.500000e+01 -2.200000e+01 2.000000e+00
      vertex -3.300000e+01 -2.200000e+01 2.000000e+00
      vertex 4.500000e+01 -2.200000e+01 0.000000e+00
    endloop
  endfacet
  facet normal 6.123234e-17 -1.000000e+00 0.000000e+00
    outer loop
      vertex 4.500000e+01 -2.200000e+01 0.000000e+00
      vertex -3.300000e+01 -2.200000e+01 2.000000e+00
      vertex -3.300000e+01 -2.200000e+01 0.000000e+00
    endloop
  endfacet
  facet normal -1.000000e+00 -6.123234e-17 -0.000000e+00
    outer loop
      vertex -4.500000e+01 -1.950000e+01 2.000000e+00
      vertex -4.500000e+01 1.950000e+01 2.000000e+00
      vertex -4.500000e+01 -1.950000e+01 0.000000e+00
    endloop
  endfacet
  facet normal -1.000000e+00 -6.123234e-17 0.000000e+00
    outer loop
      vertex -4.500000e+01 -1.950000e+01 0.000000e+00
      vertex -4.500000e+01 1.950000e+01 2.000000e+00
      vertex -4.500000e+01 1.950000e+01 0.000000e+00
    endloop
  endfacet
  facet normal -6.123234e-17 1.000000e+00 0.000000e+00
    outer loop
      vertex 4.500000e+01 2.200000e+01 0.000000e+00
      vertex -3.300000e+01 2.200000e+01 0.000000e+00
      vertex 4.500000e+01 2.200000e+01 2.000000e+00
    endloop
  endfacet
  facet normal -6.123234e-17 1.000000e+00 0.000000e+00
    outer loop
      vertex 4.500000e+01 2.200000e+01 2.000000e+00
      vertex -3.300000e+01 2.200000e+01 0.000000e+00
      vertex -3.300000e+01 2.200000e+01 2.000000e+00
    endloop
  endfacet
  facet normal 0.000000e+00 0.000000e+00 -1.000000e+00
    outer loop
      vertex -4.500000e+01 1.950000e+01 0.000000e+00
      vertex -3.300000e+01 1.950000e+01 0.000000e+00
      vertex -3.300000e+01 -1.950000e+01 0.000000e+00
    endloop
  endfacet
  facet normal 0.000000e+00 0.000000e+00 -1.000000e+00
    outer loop
      vertex -3.300000e+01 -1.950000e+01 0.000000e+00
      vertex -3.300000e+01 1.950000e+01 0.000000e+00
      vertex 1.100000e+01 -1.800000e+01 0.000000e+00
    endloop
  endfacet
  facet normal 0.000000e+00 0.000000e+00 -1.000000e+00
    outer loop
      vertex -3.300000e+01 -1.950000e+01 0.000000e+00
      vertex 1.100000e+01 -1.800000e+01 0.000000e+00
      vertex -3.300000e+01 -2.200000e+01 0.000000e+00
    endloop
  endfacet
  facet normal 0.000000e+00 0.000000e+00 -1.000000e+00
    outer loop
      vertex -3.300000e+01 -2.200000e+01 0.000000e+00
      vertex 1.100000e+01 -1.800000e+01 0.000000e+00
      vertex 4.500000e+01 -2.200000e+01 0.000000e+00
    endloop
  endfacet
  facet normal 0.000000e+00 -0.000000e+00 -1.000000e+00
    outer loop
      vertex -3.300000e+01 -1.950000e+01 0.000000e+00
      vertex -4.500000e+01 -1.950000e+01 0.000000e+00
      vertex -4.500000e+01 1.950000e+01 0.000000e+00
    endloop
  endfacet
  facet normal 0.000000e+00 0.000000e+00 -1.000000e+00
    outer loop
      vertex 1.100000e+01 -1.800000e+01 0.000000e+00
      vertex -3.300000e+01 1.950000e+01 0.000000e+00
      vertex 1.100000e+01 1.800000e+01 0.000000e+00
    endloop
  endfacet
  facet normal 0.000000e+00 0.000000e+00 -1.000000e+00
    outer loop
      vertex 1.100000e+01 1.800000e+01 0.000000e+00
      vertex -3.300000e+01 1.950000e+01 0.000000e+00
      vertex -3.300000e+01 2.200000e+01 0.000000e+00
    endloop
  endfacet
  facet normal 0.000000e+00 0.000000e+00 -1.000000e+00
    outer loop
      vertex 1.100000e+01 1.800000e+01 0.000000e+00
      vertex -3.300000e+01 2.200000e+01 0.000000e+00
      vertex 4.100000e+01 1.800000e+01 0.000000e+00
    endloop
  endfacet
  facet normal 0.000000e+00 0.000000e+00 -1.000000e+00
    outer loop
      vertex 4.100000e+01 1.800000e+01 0.000000e+00
      vertex -3.300000e+01 2.200000e+01 0.000000e+00
      vertex 4.500000e+01 2.200000e+01 0.000000e+00
    endloop
  endfacet
  facet normal 0.000000e+00 0.000000e+00 -1.000000e+00
    outer loop
      vertex 4.100000e+01 1.800000e+01 0.000000e+00
      vertex 4.500000e+01 2.200000e+01 0.000000e+00
      vertex 4.100000e+01 -1.800000e+01 0.000000e+00
    endloop
  endfacet
  facet normal 0.000000e+00 0.000000e+00 -1.000000e+00
    outer loop
      vertex 4.100000e+01 -1.800000e+01 0.000000e+00
      vertex 4.500000e+01 2.200000e+01 0.000000e+00
      vertex 4.500000e+01 -2.200000e+01 0.000000e+00
    endloop
  endfacet
  facet normal 0.000000e+00 0.000000e+00 -1.000000e+00
    outer loop
      vertex 4.100000e+01 -1.800000e+01 0.000000e+00
      vertex 4.500000e+01 -2.200000e+01 0.000000e+00
      vertex 1.100000e+01 -1.800000e+01 0.000000e+00
    endloop
  endfacet
  facet normal 0.000000e+00 0.000000e+00 1.000000e+00
    outer loop
      vertex -4.500000e+01 1.950000e+01 2.000000e+00
      vertex -3.300000e+01 -1.950000e+01 2.000000e+00
      vertex -3.300000e+01 1.950000e+01 2.000000e+00
    endloop
  endfacet
  facet normal 0.000000e+00 0.000000e+00 1.000000e+00
    outer loop
      vertex -3.300000e+01 1.950000e+01 2.000000e+00
      vertex -3.300000e+01 -1.950000e+01 2.000000e+00
      vertex 1.100000e+01 -1.800000e+01 2.000000e+00
    endloop
  endfacet
  facet normal 0.000000e+00 0.000000e+00 1.000000e+00
    outer loop
      vertex -3.300000e+01 1.950000e+01 2.000000e+00
      vertex 1.100000e+01 -1.800000e+01 2.000000e+00
      vertex -3.300000e+01 2.200000e+01 2.000000e+00
    endloop
  endfacet
  facet normal 0.000000e+00 0.000000e+00 1.000000e+00
    outer loop
      vertex -3.300000e+01 2.200000e+01 2.000000e+00
      vertex 1.100000e+01 -1.800000e+01 2.000000e+00
      vertex 1.100000e+01 1.800000e+01 2.000000e+00
    endloop
  endfacet
  facet normal 0.000000e+00 0.000000e+00 1.000000e+00
    outer loop
      vertex -3.300000e+01 2.200000e+01 2.000000e+00
      vertex 1.100000e+01 1.800000e+01 2.000000e+00
      vertex 4.500000e+01 2.200000e+01 2.000000e+00
    endloop
  endfacet
  facet normal 0.000000e+00 0.000000e+00 1.000000e+00
    outer loop
      vertex 4.500000e+01 2.200000e+01 2.000000e+00
      vertex 1.100000e+01 1.800000e+01 2.000000e+00
      vertex 4.100000e+01 1.800000e+01 2.000000e+00
    endloop
  endfacet
  facet normal 0.000000e+00 0.000000e+00 1.000000e+00
    outer loop
      vertex 4.500000e+01 2.200000e+01 2.000000e+00
      vertex 4.100000e+01 1.800000e+01 2.000000e+00
      vertex 4.500000e+01 -2.200000e+01 2.000000e+00
    endloop
  endfacet
  facet normal 0.000000e+00 0.000000e+00 1.000000e+00
    outer loop
      vertex 4.500000e+01 -2.200000e+01 2.000000e+00
      vertex 4.100000e+01 1.800000e+01 2.000000e+00
      vertex 4.100000e+01 -1.800000e+01 2.000000e+00
    endloop
  endfacet
  facet normal 0.000000e+00 0.000000e+00 1.000000e+00
    outer loop
      vertex 4.500000e+01 -2.200000e+01 2.000000e+00
      vertex 4.100000e+01 -1.800000e+01 2.000000e+00
      vertex -3.300000e+01 -2.200000e+01 2.000000e+00
    endloop
  endfacet
  facet normal 0.000000e+00 0.000000e+00 1.000000e+00
    outer loop
      vertex -3.300000e+01 -2.200000e+01 2.000000e+00
      vertex 4.100000e+01 -1.800000e+01 2.000000e+00
      vertex 1.100000e+01 -1.800000e+01 2.000000e+00
    endloop
  endfacet
  facet normal 0.000000e+00 0.000000e+00 1.000000e+00
    outer loop
      vertex -3.300000e+01 -2.200000e+01 2.000000e+00
      vertex 1.100000e+01 -1.800000e+01 2.000000e+00
      vertex -3.300000e+01 -1.950000e+01 2.000000e+00
    endloop
  endfacet
  facet normal 0.000000e+00 0.000000e+00 1.000000e+00
    outer loop
      vertex -4.500000e+01 1.950000e+01 2.000000e+00
      vertex -4.500000e+01 -1.950000e+01 2.000000e+00
      vertex -3.300000e+01 -1.950000e+01 2.000000e+00
    endloop
  endfacet
endsolid Default
