solid OpenSCAD_Model
  facet normal -1.000000 -0.000000 -0.000000
    outer loop
      vertex -32.500000 -18.250000 0.000000
      vertex -32.500000 -18.250000 3.000000
      vertex -32.500000 18.250000 0.000000
    endloop
  endfacet
  facet normal -1.000000 0.000000 0.000000
    outer loop
      vertex -32.500000 18.250000 0.000000
      vertex -32.500000 -18.250000 3.000000
      vertex -32.500000 -8.250000 3.000000
    endloop
  endfacet
  facet normal -1.000000 0.000000 0.000000
    outer loop
      vertex -32.500000 8.250000 3.000000
      vertex -32.500000 -8.250000 3.000000
      vertex -32.500000 -8.250000 15.000000
    endloop
  endfacet
  facet normal -1.000000 0.000000 0.000000
    outer loop
      vertex -32.500000 18.250000 0.000000
      vertex -32.500000 -8.250000 3.000000
      vertex -32.500000 8.250000 3.000000
    endloop
  endfacet
  facet normal -1.000000 0.000000 0.000000
    outer loop
      vertex -32.500000 18.250000 3.000000
      vertex -32.500000 18.250000 0.000000
      vertex -32.500000 8.250000 3.000000
    endloop
  endfacet
  facet normal -1.000000 0.000000 0.000000
    outer loop
      vertex -32.500000 8.250000 3.000000
      vertex -32.500000 -8.250000 15.000000
      vertex -32.500000 8.250000 15.000000
    endloop
  endfacet
  facet normal 0.000000 -1.000000 0.000000
    outer loop
      vertex -32.500000 -18.250000 3.000000
      vertex -32.500000 -18.250000 0.000000
      vertex 32.500000 -18.250000 0.000000
    endloop
  endfacet
  facet normal 0.000000 -1.000000 0.000000
    outer loop
      vertex 32.500000 -18.250000 3.000000
      vertex -32.500000 -18.250000 3.000000
      vertex 32.500000 -18.250000 0.000000
    endloop
  endfacet
  facet normal -0.000000 -0.000000 -1.000000
    outer loop
      vertex -32.500000 -18.250000 0.000000
      vertex -32.500000 18.250000 0.000000
      vertex 32.500000 -18.250000 0.000000
    endloop
  endfacet
  facet normal 0.000000 0.000000 -1.000000
    outer loop
      vertex 32.500000 -18.250000 0.000000
      vertex -32.500000 18.250000 0.000000
      vertex 32.500000 18.250000 0.000000
    endloop
  endfacet
  facet normal 0.000000 1.000000 0.000000
    outer loop
      vertex -32.500000 18.250000 0.000000
      vertex -32.500000 18.250000 3.000000
      vertex 32.500000 18.250000 0.000000
    endloop
  endfacet
  facet normal 0.000000 1.000000 0.000000
    outer loop
      vertex 32.500000 18.250000 0.000000
      vertex -32.500000 18.250000 3.000000
      vertex 32.500000 18.250000 3.000000
    endloop
  endfacet
  facet normal 0.000000 -0.000000 1.000000
    outer loop
      vertex -32.500000 18.250000 3.000000
      vertex -32.500000 8.250000 3.000000
      vertex 32.500000 8.250000 3.000000
    endloop
  endfacet
  facet normal 0.000000 0.000000 1.000000
    outer loop
      vertex 32.500000 18.250000 3.000000
      vertex -32.500000 18.250000 3.000000
      vertex 32.500000 8.250000 3.000000
    endloop
  endfacet
  facet normal 0.000000 1.000000 0.000000
    outer loop
      vertex -32.500000 8.250000 3.000000
      vertex -32.500000 8.250000 15.000000
      vertex 32.500000 8.250000 3.000000
    endloop
  endfacet
  facet normal 0.000000 1.000000 0.000000
    outer loop
      vertex 32.500000 8.250000 3.000000
      vertex -32.500000 8.250000 15.000000
      vertex 32.500000 8.250000 15.000000
    endloop
  endfacet
  facet normal 0.000000 -0.000000 1.000000
    outer loop
      vertex -29.500000 -5.250000 15.000000
      vertex -32.500000 -8.250000 15.000000
      vertex 32.500000 -8.250000 15.000000
    endloop
  endfacet
  facet normal 0.000000 -0.000000 1.000000
    outer loop
      vertex -32.500000 8.250000 15.000000
      vertex -32.500000 -8.250000 15.000000
      vertex -29.500000 -5.250000 15.000000
    endloop
  endfacet
  facet normal 0.000000 0.000000 1.000000
    outer loop
      vertex -29.500000 5.250000 15.000000
      vertex 29.500000 5.250000 15.000000
      vertex -32.500000 8.250000 15.000000
    endloop
  endfacet
  facet normal 0.000000 0.000000 1.000000
    outer loop
      vertex -32.500000 8.250000 15.000000
      vertex -29.500000 -5.250000 15.000000
      vertex -29.500000 5.250000 15.000000
    endloop
  endfacet
  facet normal 0.000000 0.000000 1.000000
    outer loop
      vertex 32.500000 8.250000 15.000000
      vertex 29.500000 5.250000 15.000000
      vertex 32.500000 -8.250000 15.000000
    endloop
  endfacet
  facet normal 0.000000 0.000000 1.000000
    outer loop
      vertex 32.500000 8.250000 15.000000
      vertex -32.500000 8.250000 15.000000
      vertex 29.500000 5.250000 15.000000
    endloop
  endfacet
  facet normal 0.000000 -0.000000 1.000000
    outer loop
      vertex 29.500000 5.250000 15.000000
      vertex 29.500000 -5.250000 15.000000
      vertex 32.500000 -8.250000 15.000000
    endloop
  endfacet
  facet normal 0.000000 -0.000000 1.000000
    outer loop
      vertex 29.500000 -5.250000 15.000000
      vertex -29.500000 -5.250000 15.000000
      vertex 32.500000 -8.250000 15.000000
    endloop
  endfacet
  facet normal 0.000000 -1.000000 0.000000
    outer loop
      vertex -32.500000 -8.250000 15.000000
      vertex -32.500000 -8.250000 3.000000
      vertex 32.500000 -8.250000 3.000000
    endloop
  endfacet
  facet normal 0.000000 -1.000000 0.000000
    outer loop
      vertex 32.500000 -8.250000 15.000000
      vertex -32.500000 -8.250000 15.000000
      vertex 32.500000 -8.250000 3.000000
    endloop
  endfacet
  facet normal 0.000000 -0.000000 1.000000
    outer loop
      vertex -32.500000 -8.250000 3.000000
      vertex -32.500000 -18.250000 3.000000
      vertex 32.500000 -18.250000 3.000000
    endloop
  endfacet
  facet normal 0.000000 0.000000 1.000000
    outer loop
      vertex 32.500000 -8.250000 3.000000
      vertex -32.500000 -8.250000 3.000000
      vertex 32.500000 -18.250000 3.000000
    endloop
  endfacet
  facet normal 1.000000 0.000000 -0.000000
    outer loop
      vertex 32.500000 -18.250000 3.000000
      vertex 32.500000 -18.250000 0.000000
      vertex 32.500000 18.250000 0.000000
    endloop
  endfacet
  facet normal 1.000000 0.000000 -0.000000
    outer loop
      vertex 32.500000 -8.250000 3.000000
      vertex 32.500000 -18.250000 3.000000
      vertex 32.500000 18.250000 0.000000
    endloop
  endfacet
  facet normal 1.000000 0.000000 -0.000000
    outer loop
      vertex 32.500000 8.250000 3.000000
      vertex 32.500000 -8.250000 3.000000
      vertex 32.500000 18.250000 0.000000
    endloop
  endfacet
  facet normal 1.000000 0.000000 0.000000
    outer loop
      vertex 32.500000 18.250000 3.000000
      vertex 32.500000 8.250000 3.000000
      vertex 32.500000 18.250000 0.000000
    endloop
  endfacet
  facet normal 1.000000 0.000000 0.000000
    outer loop
      vertex 32.500000 8.250000 15.000000
      vertex 32.500000 -8.250000 3.000000
      vertex 32.500000 8.250000 3.000000
    endloop
  endfacet
  facet normal 1.000000 0.000000 -0.000000
    outer loop
      vertex 32.500000 -8.250000 15.000000
      vertex 32.500000 -8.250000 3.000000
      vertex 32.500000 8.250000 15.000000
    endloop
  endfacet
  facet normal 1.000000 0.000000 0.000000
    outer loop
      vertex -29.500000 5.250000 2.990000
      vertex -29.500000 5.250000 15.000000
      vertex -29.500000 -5.250000 15.000000
    endloop
  endfacet
  facet normal 1.000000 0.000000 0.000000
    outer loop
      vertex -29.500000 -5.250000 2.990000
      vertex -29.500000 5.250000 2.990000
      vertex -29.500000 -5.250000 15.000000
    endloop
  endfacet
  facet normal 0.000000 1.000000 0.000000
    outer loop
      vertex 29.500000 -5.250000 15.000000
      vertex 29.500000 -5.250000 2.990000
      vertex -29.500000 -5.250000 15.000000
    endloop
  endfacet
  facet normal 0.000000 1.000000 -0.000000
    outer loop
      vertex -29.500000 -5.250000 15.000000
      vertex 29.500000 -5.250000 2.990000
      vertex -29.500000 -5.250000 2.990000
    endloop
  endfacet
  facet normal -1.000000 0.000000 0.000000
    outer loop
      vertex 29.500000 5.250000 15.000000
      vertex 29.500000 5.250000 2.990000
      vertex 29.500000 -5.250000 15.000000
    endloop
  endfacet
  facet normal -1.000000 0.000000 0.000000
    outer loop
      vertex 29.500000 -5.250000 15.000000
      vertex 29.500000 5.250000 2.990000
      vertex 29.500000 -5.250000 2.990000
    endloop
  endfacet
  facet normal 0.000000 -1.000000 0.000000
    outer loop
      vertex 29.500000 5.250000 2.990000
      vertex 29.500000 5.250000 15.000000
      vertex -29.500000 5.250000 15.000000
    endloop
  endfacet
  facet normal -0.000000 -1.000000 -0.000000
    outer loop
      vertex -29.500000 5.250000 2.990000
      vertex 29.500000 5.250000 2.990000
      vertex -29.500000 5.250000 15.000000
    endloop
  endfacet
  facet normal 0.000000 0.000000 1.000000
    outer loop
      vertex 29.500000 -5.250000 2.990000
      vertex 29.500000 5.250000 2.990000
      vertex -29.500000 5.250000 2.990000
    endloop
  endfacet
  facet normal 0.000000 0.000000 1.000000
    outer loop
      vertex -29.500000 -5.250000 2.990000
      vertex 29.500000 -5.250000 2.990000
      vertex -29.500000 5.250000 2.990000
    endloop
  endfacet
endsolid OpenSCAD_Model
