solid OpenSCAD_Model
  facet normal -0 0 -1
    outer loop
      vertex -21.1854 0 0
      vertex -21.1436 1.33024 0
      vertex -21.1436 -1.33024 0
    endloop
  endfacet
  facet normal 0 -0 -1
    outer loop
      vertex -21.1436 -1.33024 0
      vertex -21.1436 1.33024 0
      vertex -21.0184 2.65524 0
    endloop
  endfacet
  facet normal 0 0 -1
    outer loop
      vertex -21.1436 -1.33024 0
      vertex -21.0184 2.65524 0
      vertex -20.8102 3.96975 0
    endloop
  endfacet
  facet normal 0 0 -1
    outer loop
      vertex -21.1436 -1.33024 0
      vertex -20.8102 3.96975 0
      vertex -20.5199 5.2686 0
    endloop
  endfacet
  facet normal 0 0 -1
    outer loop
      vertex -21.1436 -1.33024 0
      vertex -20.5199 5.2686 0
      vertex -20.1485 6.54666 0
    endloop
  endfacet
  facet normal 0 0 -1
    outer loop
      vertex -21.1436 -1.33024 0
      vertex -20.1485 6.54666 0
      vertex -19.6977 7.79888 0
    endloop
  endfacet
  facet normal 0 0 -1
    outer loop
      vertex -21.1436 -1.33024 0
      vertex -19.6977 7.79888 0
      vertex -19.1692 9.02032 0
    endloop
  endfacet
  facet normal 0 0 -1
    outer loop
      vertex -21.1436 -1.33024 0
      vertex -19.1692 9.02032 0
      vertex -18.5649 10.2062 0
    endloop
  endfacet
  facet normal 0 0 -1
    outer loop
      vertex -21.1436 -1.33024 0
      vertex -18.5649 10.2062 0
      vertex -17.8875 11.3517 0
    endloop
  endfacet
  facet normal 0 0 -1
    outer loop
      vertex -21.1436 -1.33024 0
      vertex -17.8875 11.3517 0
      vertex -17.1394 12.4525 0
    endloop
  endfacet
  facet normal 0 0 -1
    outer loop
      vertex -21.1436 -1.33024 0
      vertex -17.1394 12.4525 0
      vertex -16.3237 13.5041 0
    endloop
  endfacet
  facet normal 0 0 -1
    outer loop
      vertex -21.1436 -1.33024 0
      vertex -16.3237 13.5041 0
      vertex -15.4435 14.5024 0
    endloop
  endfacet
  facet normal 0 0 -1
    outer loop
      vertex -21.1436 -1.33024 0
      vertex -15.4435 14.5024 0
      vertex -14.5024 15.4435 0
    endloop
  endfacet
  facet normal 0 0 -1
    outer loop
      vertex -21.1436 -1.33024 0
      vertex -14.5024 15.4435 0
      vertex -13.5041 16.3237 0
    endloop
  endfacet
  facet normal 0 0 -1
    outer loop
      vertex -21.1436 -1.33024 0
      vertex -13.5041 16.3237 0
      vertex -12.4525 17.1394 0
    endloop
  endfacet
  facet normal 0 0 -1
    outer loop
      vertex -21.1436 -1.33024 0
      vertex -12.4525 17.1394 0
      vertex -11.3517 17.8875 0
    endloop
  endfacet
  facet normal 0 0 -1
    outer loop
      vertex -21.1436 -1.33024 0
      vertex -11.3517 17.8875 0
      vertex -10.2062 18.5649 0
    endloop
  endfacet
  facet normal 0 0 -1
    outer loop
      vertex -21.1436 -1.33024 0
      vertex -10.2062 18.5649 0
      vertex -9.02032 19.1692 0
    endloop
  endfacet
  facet normal 0 0 -1
    outer loop
      vertex -21.1436 -1.33024 0
      vertex -9.02032 19.1692 0
      vertex -7.79888 19.6977 0
    endloop
  endfacet
  facet normal 0 0 -1
    outer loop
      vertex -21.1436 -1.33024 0
      vertex -7.79888 19.6977 0
      vertex -6.54666 20.1485 0
    endloop
  endfacet
  facet normal 0 0 -1
    outer loop
      vertex -21.1436 -1.33024 0
      vertex -6.54666 20.1485 0
      vertex -5.2686 20.5199 0
    endloop
  endfacet
  facet normal 0 0 -1
    outer loop
      vertex -21.1436 -1.33024 0
      vertex -5.2686 20.5199 0
      vertex -3.96975 20.8102 0
    endloop
  endfacet
  facet normal 0 0 -1
    outer loop
      vertex -21.1436 -1.33024 0
      vertex -3.96975 20.8102 0
      vertex -2.65524 21.0184 0
    endloop
  endfacet
  facet normal 0 0 -1
    outer loop
      vertex -21.1436 -1.33024 0
      vertex -2.65524 21.0184 0
      vertex -1.33024 21.1436 0
    endloop
  endfacet
  facet normal 0 0 -1
    outer loop
      vertex -21.1436 -1.33024 0
      vertex -1.33024 21.1436 0
      vertex 0 21.1854 0
    endloop
  endfacet
  facet normal 0 0 -1
    outer loop
      vertex -21.1436 -1.33024 0
      vertex 0 21.1854 0
      vertex 1.33024 21.1436 0
    endloop
  endfacet
  facet normal 0 0 -1
    outer loop
      vertex -21.1436 -1.33024 0
      vertex 1.33024 21.1436 0
      vertex 2.65524 21.0184 0
    endloop
  endfacet
  facet normal 0 0 -1
    outer loop
      vertex -21.1436 -1.33024 0
      vertex 2.65524 21.0184 0
      vertex 3.96975 20.8102 0
    endloop
  endfacet
  facet normal 0 0 -1
    outer loop
      vertex -21.1436 -1.33024 0
      vertex 3.96975 20.8102 0
      vertex 5.2686 20.5199 0
    endloop
  endfacet
  facet normal 0 0 -1
    outer loop
      vertex -21.1436 -1.33024 0
      vertex 5.2686 20.5199 0
      vertex 6.54666 20.1485 0
    endloop
  endfacet
  facet normal 0 0 -1
    outer loop
      vertex -21.1436 -1.33024 0
      vertex 6.54666 20.1485 0
      vertex 7.79888 19.6977 0
    endloop
  endfacet
  facet normal 0 0 -1
    outer loop
      vertex -21.1436 -1.33024 0
      vertex 7.79888 19.6977 0
      vertex 9.02032 19.1692 0
    endloop
  endfacet
  facet normal 0 0 -1
    outer loop
      vertex -21.1436 -1.33024 0
      vertex 9.02032 19.1692 0
      vertex 10.2062 18.5649 0
    endloop
  endfacet
  facet normal 0 0 -1
    outer loop
      vertex -21.1436 -1.33024 0
      vertex 10.2062 18.5649 0
      vertex 11.3517 17.8875 0
    endloop
  endfacet
  facet normal 0 0 -1
    outer loop
      vertex -21.1436 -1.33024 0
      vertex 11.3517 17.8875 0
      vertex 12.4525 17.1394 0
    endloop
  endfacet
  facet normal 0 0 -1
    outer loop
      vertex -21.1436 -1.33024 0
      vertex 12.4525 17.1394 0
      vertex 13.5041 16.3237 0
    endloop
  endfacet
  facet normal 0 0 -1
    outer loop
      vertex -21.1436 -1.33024 0
      vertex 13.5041 16.3237 0
      vertex 14.5024 15.4435 0
    endloop
  endfacet
  facet normal 0 0 -1
    outer loop
      vertex -21.1436 -1.33024 0
      vertex 14.5024 15.4435 0
      vertex 15.4435 14.5024 0
    endloop
  endfacet
  facet normal 0 0 -1
    outer loop
      vertex -21.1436 -1.33024 0
      vertex 15.4435 14.5024 0
      vertex 16.3237 13.5041 0
    endloop
  endfacet
  facet normal 0 0 -1
    outer loop
      vertex -21.1436 -1.33024 0
      vertex 16.3237 13.5041 0
      vertex 17.1394 12.4525 0
    endloop
  endfacet
  facet normal 0 0 -1
    outer loop
      vertex -21.1436 -1.33024 0
      vertex 17.1394 12.4525 0
      vertex 17.8875 11.3517 0
    endloop
  endfacet
  facet normal 0 0 -1
    outer loop
      vertex -21.1436 -1.33024 0
      vertex 17.8875 11.3517 0
      vertex 18.5649 10.2062 0
    endloop
  endfacet
  facet normal 0 0 -1
    outer loop
      vertex -1.569 3.78791 0
      vertex 18.5649 10.2062 0
      vertex 19.1692 9.02032 0
    endloop
  endfacet
  facet normal 0 0 -1
    outer loop
      vertex 1.569 3.78791 0
      vertex 19.1692 9.02032 0
      vertex 19.6977 7.79888 0
    endloop
  endfacet
  facet normal 0 0 -1
    outer loop
      vertex 3.78791 1.569 0
      vertex 20.8102 3.96975 0
      vertex 21.0184 2.65524 0
    endloop
  endfacet
  facet normal 0 0 -1
    outer loop
      vertex 3.78791 1.569 0
      vertex 21.1436 -1.33024 0
      vertex 3.78791 -1.569 0
    endloop
  endfacet
  facet normal 0 0 -1
    outer loop
      vertex 3.78791 1.569 0
      vertex 21.1854 0 0
      vertex 21.1436 -1.33024 0
    endloop
  endfacet
  facet normal -0 0 -1
    outer loop
      vertex 3.78791 -1.569 0
      vertex 21.1436 -1.33024 0
      vertex 21.0184 -2.65524 0
    endloop
  endfacet
  facet normal 0 0 -1
    outer loop
      vertex 3.78791 -1.569 0
      vertex 20.5199 -5.2686 0
      vertex 1.569 -3.78791 0
    endloop
  endfacet
  facet normal 0 0 -1
    outer loop
      vertex -1.569 -3.78791 0
      vertex 20.5199 -5.2686 0
      vertex 20.1485 -6.54666 0
    endloop
  endfacet
  facet normal 0 0 -1
    outer loop
      vertex -21.1436 -1.33024 0
      vertex 20.1485 -6.54666 0
      vertex 19.6977 -7.79888 0
    endloop
  endfacet
  facet normal 0 0 -1
    outer loop
      vertex -21.1436 -1.33024 0
      vertex 19.6977 -7.79888 0
      vertex 19.1692 -9.02032 0
    endloop
  endfacet
  facet normal 0 0 -1
    outer loop
      vertex -21.1436 -1.33024 0
      vertex 19.1692 -9.02032 0
      vertex 18.5649 -10.2062 0
    endloop
  endfacet
  facet normal 0 0 -1
    outer loop
      vertex -21.1436 -1.33024 0
      vertex 18.5649 -10.2062 0
      vertex 17.8875 -11.3517 0
    endloop
  endfacet
  facet normal 0 0 -1
    outer loop
      vertex -21.1436 -1.33024 0
      vertex 17.8875 -11.3517 0
      vertex 17.1394 -12.4525 0
    endloop
  endfacet
  facet normal 0 0 -1
    outer loop
      vertex -21.1436 -1.33024 0
      vertex 17.1394 -12.4525 0
      vertex 16.3237 -13.5041 0
    endloop
  endfacet
  facet normal 0 0 -1
    outer loop
      vertex -21.1436 -1.33024 0
      vertex 16.3237 -13.5041 0
      vertex 15.4435 -14.5024 0
    endloop
  endfacet
  facet normal 0 0 -1
    outer loop
      vertex -21.1436 -1.33024 0
      vertex 15.4435 -14.5024 0
      vertex 14.5024 -15.4435 0
    endloop
  endfacet
  facet normal 0 0 -1
    outer loop
      vertex -21.1436 -1.33024 0
      vertex 14.5024 -15.4435 0
      vertex 13.5041 -16.3237 0
    endloop
  endfacet
  facet normal 0 0 -1
    outer loop
      vertex -21.1436 -1.33024 0
      vertex 13.5041 -16.3237 0
      vertex 12.4525 -17.1394 0
    endloop
  endfacet
  facet normal 0 0 -1
    outer loop
      vertex -21.1436 -1.33024 0
      vertex 12.4525 -17.1394 0
      vertex 11.3517 -17.8875 0
    endloop
  endfacet
  facet normal 0 0 -1
    outer loop
      vertex -21.1436 -1.33024 0
      vertex 11.3517 -17.8875 0
      vertex 10.2062 -18.5649 0
    endloop
  endfacet
  facet normal 0 0 -1
    outer loop
      vertex -21.1436 -1.33024 0
      vertex 10.2062 -18.5649 0
      vertex 9.02032 -19.1692 0
    endloop
  endfacet
  facet normal 0 0 -1
    outer loop
      vertex -21.1436 -1.33024 0
      vertex 9.02032 -19.1692 0
      vertex 7.79888 -19.6977 0
    endloop
  endfacet
  facet normal 0 0 -1
    outer loop
      vertex -21.1436 -1.33024 0
      vertex 7.79888 -19.6977 0
      vertex 6.54666 -20.1485 0
    endloop
  endfacet
  facet normal 0 0 -1
    outer loop
      vertex -21.1436 -1.33024 0
      vertex 6.54666 -20.1485 0
      vertex 5.2686 -20.5199 0
    endloop
  endfacet
  facet normal 0 0 -1
    outer loop
      vertex -21.1436 -1.33024 0
      vertex 5.2686 -20.5199 0
      vertex 3.96975 -20.8102 0
    endloop
  endfacet
  facet normal 0 0 -1
    outer loop
      vertex -21.1436 -1.33024 0
      vertex 3.96975 -20.8102 0
      vertex 2.65524 -21.0184 0
    endloop
  endfacet
  facet normal 0 0 -1
    outer loop
      vertex -21.1436 -1.33024 0
      vertex 2.65524 -21.0184 0
      vertex 1.33024 -21.1436 0
    endloop
  endfacet
  facet normal 0 0 -1
    outer loop
      vertex -21.1436 -1.33024 0
      vertex 1.33024 -21.1436 0
      vertex 0 -21.1854 0
    endloop
  endfacet
  facet normal 0 0 -1
    outer loop
      vertex -21.1436 -1.33024 0
      vertex 0 -21.1854 0
      vertex -1.33024 -21.1436 0
    endloop
  endfacet
  facet normal 0 0 -1
    outer loop
      vertex -21.1436 -1.33024 0
      vertex -1.33024 -21.1436 0
      vertex -2.65524 -21.0184 0
    endloop
  endfacet
  facet normal 0 0 -1
    outer loop
      vertex -21.1436 -1.33024 0
      vertex -2.65524 -21.0184 0
      vertex -3.96975 -20.8102 0
    endloop
  endfacet
  facet normal 0 0 -1
    outer loop
      vertex -21.1436 -1.33024 0
      vertex -3.96975 -20.8102 0
      vertex -5.2686 -20.5199 0
    endloop
  endfacet
  facet normal 0 0 -1
    outer loop
      vertex -21.1436 -1.33024 0
      vertex -5.2686 -20.5199 0
      vertex -6.54666 -20.1485 0
    endloop
  endfacet
  facet normal 0 0 -1
    outer loop
      vertex -21.1436 -1.33024 0
      vertex -6.54666 -20.1485 0
      vertex -7.79888 -19.6977 0
    endloop
  endfacet
  facet normal 0 0 -1
    outer loop
      vertex -21.1436 -1.33024 0
      vertex -7.79888 -19.6977 0
      vertex -9.02032 -19.1692 0
    endloop
  endfacet
  facet normal 0 0 -1
    outer loop
      vertex -21.1436 -1.33024 0
      vertex -9.02032 -19.1692 0
      vertex -10.2062 -18.5649 0
    endloop
  endfacet
  facet normal 0 0 -1
    outer loop
      vertex -21.1436 -1.33024 0
      vertex -10.2062 -18.5649 0
      vertex -11.3517 -17.8875 0
    endloop
  endfacet
  facet normal 0 0 -1
    outer loop
      vertex -21.1436 -1.33024 0
      vertex -11.3517 -17.8875 0
      vertex -12.4525 -17.1394 0
    endloop
  endfacet
  facet normal 0 0 -1
    outer loop
      vertex -21.1436 -1.33024 0
      vertex -12.4525 -17.1394 0
      vertex -13.5041 -16.3237 0
    endloop
  endfacet
  facet normal 0 0 -1
    outer loop
      vertex -21.1436 -1.33024 0
      vertex -13.5041 -16.3237 0
      vertex -14.5024 -15.4435 0
    endloop
  endfacet
  facet normal 0 0 -1
    outer loop
      vertex -21.1436 -1.33024 0
      vertex -14.5024 -15.4435 0
      vertex -15.4435 -14.5024 0
    endloop
  endfacet
  facet normal 0 0 -1
    outer loop
      vertex -21.1436 -1.33024 0
      vertex -15.4435 -14.5024 0
      vertex -16.3237 -13.5041 0
    endloop
  endfacet
  facet normal 0 0 -1
    outer loop
      vertex -21.1436 -1.33024 0
      vertex -16.3237 -13.5041 0
      vertex -17.1394 -12.4525 0
    endloop
  endfacet
  facet normal 0 0 -1
    outer loop
      vertex -21.1436 -1.33024 0
      vertex -17.1394 -12.4525 0
      vertex -17.8875 -11.3517 0
    endloop
  endfacet
  facet normal 0 0 -1
    outer loop
      vertex -21.1436 -1.33024 0
      vertex -17.8875 -11.3517 0
      vertex -18.5649 -10.2062 0
    endloop
  endfacet
  facet normal 0 0 -1
    outer loop
      vertex -21.1436 -1.33024 0
      vertex -18.5649 -10.2062 0
      vertex -19.1692 -9.02032 0
    endloop
  endfacet
  facet normal 0 0 -1
    outer loop
      vertex -21.1436 -1.33024 0
      vertex -19.1692 -9.02032 0
      vertex -19.6977 -7.79888 0
    endloop
  endfacet
  facet normal 0 0 -1
    outer loop
      vertex -21.1436 -1.33024 0
      vertex -19.6977 -7.79888 0
      vertex -20.1485 -6.54666 0
    endloop
  endfacet
  facet normal 0 0 -1
    outer loop
      vertex -21.1436 -1.33024 0
      vertex -20.1485 -6.54666 0
      vertex -20.5199 -5.2686 0
    endloop
  endfacet
  facet normal 0 0 -1
    outer loop
      vertex -21.1436 -1.33024 0
      vertex -20.5199 -5.2686 0
      vertex -20.8102 -3.96975 0
    endloop
  endfacet
  facet normal 0 0 -1
    outer loop
      vertex -21.1436 -1.33024 0
      vertex -20.8102 -3.96975 0
      vertex -21.0184 -2.65524 0
    endloop
  endfacet
  facet normal 0 0 -1
    outer loop
      vertex -3.78791 -1.569 0
      vertex -21.1436 -1.33024 0
      vertex -3.78791 1.569 0
    endloop
  endfacet
  facet normal 0 0 -1
    outer loop
      vertex -1.569 -3.78791 0
      vertex -21.1436 -1.33024 0
      vertex -3.78791 -1.569 0
    endloop
  endfacet
  facet normal 0 0 -1
    outer loop
      vertex 1.569 -3.78791 0
      vertex 20.5199 -5.2686 0
      vertex -1.569 -3.78791 0
    endloop
  endfacet
  facet normal 0 0 -1
    outer loop
      vertex -21.1436 -1.33024 0
      vertex -1.569 -3.78791 0
      vertex 20.1485 -6.54666 0
    endloop
  endfacet
  facet normal 0 0 -1
    outer loop
      vertex 3.78791 -1.569 0
      vertex 20.8102 -3.96975 0
      vertex 20.5199 -5.2686 0
    endloop
  endfacet
  facet normal 0 0 -1
    outer loop
      vertex 3.78791 -1.569 0
      vertex 21.0184 -2.65524 0
      vertex 20.8102 -3.96975 0
    endloop
  endfacet
  facet normal 0 0 -1
    outer loop
      vertex 3.78791 1.569 0
      vertex 21.1436 1.33024 0
      vertex 21.1854 0 0
    endloop
  endfacet
  facet normal -0 0 -1
    outer loop
      vertex 3.78791 1.569 0
      vertex 21.0184 2.65524 0
      vertex 21.1436 1.33024 0
    endloop
  endfacet
  facet normal 0 0 -1
    outer loop
      vertex -21.1436 -1.33024 0
      vertex 18.5649 10.2062 0
      vertex -1.569 3.78791 0
    endloop
  endfacet
  facet normal 0 0 -1
    outer loop
      vertex 1.569 3.78791 0
      vertex 20.1485 6.54666 0
      vertex 20.5199 5.2686 0
    endloop
  endfacet
  facet normal 0 -0 -1
    outer loop
      vertex -3.78791 1.569 0
      vertex -21.1436 -1.33024 0
      vertex -1.569 3.78791 0
    endloop
  endfacet
  facet normal 0 0 -1
    outer loop
      vertex -1.569 3.78791 0
      vertex 19.1692 9.02032 0
      vertex 1.569 3.78791 0
    endloop
  endfacet
  facet normal 0 0 -1
    outer loop
      vertex 1.569 3.78791 0
      vertex 19.6977 7.79888 0
      vertex 20.1485 6.54666 0
    endloop
  endfacet
  facet normal 0 0 -1
    outer loop
      vertex 1.569 3.78791 0
      vertex 20.5199 5.2686 0
      vertex 20.8102 3.96975 0
    endloop
  endfacet
  facet normal -0 0 -1
    outer loop
      vertex 1.569 3.78791 0
      vertex 20.8102 3.96975 0
      vertex 3.78791 1.569 0
    endloop
  endfacet
  facet normal -0.999507 0.031411 0
    outer loop
      vertex -21.1854 0 0
      vertex -21.1854 0 16
      vertex -21.1436 1.33024 0
    endloop
  endfacet
  facet normal -0.999507 0.031411 0
    outer loop
      vertex -21.1436 1.33024 0
      vertex -21.1854 0 16
      vertex -21.1436 1.33024 16
    endloop
  endfacet
  facet normal -0.999507 -0.031411 -0
    outer loop
      vertex -21.1854 0 0
      vertex -21.1436 -1.33024 0
      vertex -21.1854 0 16
    endloop
  endfacet
  facet normal -0.999507 -0.031411 0
    outer loop
      vertex -21.1854 0 16
      vertex -21.1436 -1.33024 0
      vertex -21.1436 -1.33024 16
    endloop
  endfacet
  facet normal -0.995562 -0.0941084 -0
    outer loop
      vertex -21.1436 -1.33024 0
      vertex -21.0184 -2.65524 0
      vertex -21.1436 -1.33024 16
    endloop
  endfacet
  facet normal -0.995562 -0.0941084 0
    outer loop
      vertex -21.1436 -1.33024 16
      vertex -21.0184 -2.65524 0
      vertex -21.0184 -2.65524 16
    endloop
  endfacet
  facet normal -0.987688 -0.156435 -0
    outer loop
      vertex -21.0184 -2.65524 0
      vertex -20.8102 -3.96975 0
      vertex -21.0184 -2.65524 16
    endloop
  endfacet
  facet normal -0.987688 -0.156435 0
    outer loop
      vertex -21.0184 -2.65524 16
      vertex -20.8102 -3.96975 0
      vertex -20.8102 -3.96975 16
    endloop
  endfacet
  facet normal -0.975917 -0.218143 -0
    outer loop
      vertex -20.8102 -3.96975 0
      vertex -20.5199 -5.2686 0
      vertex -20.8102 -3.96975 16
    endloop
  endfacet
  facet normal -0.975917 -0.218143 0
    outer loop
      vertex -20.8102 -3.96975 16
      vertex -20.5199 -5.2686 0
      vertex -20.5199 -5.2686 16
    endloop
  endfacet
  facet normal -0.960294 -0.278991 -0
    outer loop
      vertex -20.5199 -5.2686 0
      vertex -20.1485 -6.54666 0
      vertex -20.5199 -5.2686 16
    endloop
  endfacet
  facet normal -0.960294 -0.278991 0
    outer loop
      vertex -20.5199 -5.2686 16
      vertex -20.1485 -6.54666 0
      vertex -20.1485 -6.54666 16
    endloop
  endfacet
  facet normal -0.940881 -0.338738 -0
    outer loop
      vertex -20.1485 -6.54666 0
      vertex -19.6977 -7.79888 0
      vertex -20.1485 -6.54666 16
    endloop
  endfacet
  facet normal -0.940881 -0.338738 0
    outer loop
      vertex -20.1485 -6.54666 16
      vertex -19.6977 -7.79888 0
      vertex -19.6977 -7.79888 16
    endloop
  endfacet
  facet normal -0.917755 -0.397148 -0
    outer loop
      vertex -19.6977 -7.79888 0
      vertex -19.1692 -9.02032 0
      vertex -19.6977 -7.79888 16
    endloop
  endfacet
  facet normal -0.917755 -0.397148 0
    outer loop
      vertex -19.6977 -7.79888 16
      vertex -19.1692 -9.02032 0
      vertex -19.1692 -9.02032 16
    endloop
  endfacet
  facet normal -0.891006 -0.453991 -0
    outer loop
      vertex -19.1692 -9.02032 0
      vertex -18.5649 -10.2062 0
      vertex -19.1692 -9.02032 16
    endloop
  endfacet
  facet normal -0.891006 -0.453991 0
    outer loop
      vertex -19.1692 -9.02032 16
      vertex -18.5649 -10.2062 0
      vertex -18.5649 -10.2062 16
    endloop
  endfacet
  facet normal -0.860742 -0.509041 -0
    outer loop
      vertex -18.5649 -10.2062 0
      vertex -17.8875 -11.3517 0
      vertex -18.5649 -10.2062 16
    endloop
  endfacet
  facet normal -0.860742 -0.509041 0
    outer loop
      vertex -18.5649 -10.2062 16
      vertex -17.8875 -11.3517 0
      vertex -17.8875 -11.3517 16
    endloop
  endfacet
  facet normal -0.827081 -0.562083 -0
    outer loop
      vertex -17.8875 -11.3517 0
      vertex -17.1394 -12.4525 0
      vertex -17.8875 -11.3517 16
    endloop
  endfacet
  facet normal -0.827081 -0.562083 0
    outer loop
      vertex -17.8875 -11.3517 16
      vertex -17.1394 -12.4525 0
      vertex -17.1394 -12.4525 16
    endloop
  endfacet
  facet normal -0.790155 -0.612907 -0
    outer loop
      vertex -17.1394 -12.4525 0
      vertex -16.3237 -13.5041 0
      vertex -17.1394 -12.4525 16
    endloop
  endfacet
  facet normal -0.790155 -0.612907 0
    outer loop
      vertex -17.1394 -12.4525 16
      vertex -16.3237 -13.5041 0
      vertex -16.3237 -13.5041 16
    endloop
  endfacet
  facet normal -0.750111 -0.661312 -0
    outer loop
      vertex -16.3237 -13.5041 0
      vertex -15.4435 -14.5024 0
      vertex -16.3237 -13.5041 16
    endloop
  endfacet
  facet normal -0.750111 -0.661312 0
    outer loop
      vertex -16.3237 -13.5041 16
      vertex -15.4435 -14.5024 0
      vertex -15.4435 -14.5024 16
    endloop
  endfacet
  facet normal -0.707107 -0.707107 0
    outer loop
      vertex -15.4435 -14.5024 16
      vertex -15.4435 -14.5024 0
      vertex -14.5024 -15.4435 0
    endloop
  endfacet
  facet normal -0.707107 -0.707107 0
    outer loop
      vertex -14.5024 -15.4435 16
      vertex -15.4435 -14.5024 16
      vertex -14.5024 -15.4435 0
    endloop
  endfacet
  facet normal -0.661312 -0.750111 0
    outer loop
      vertex -14.5024 -15.4435 16
      vertex -14.5024 -15.4435 0
      vertex -13.5041 -16.3237 0
    endloop
  endfacet
  facet normal -0.661312 -0.750111 0
    outer loop
      vertex -13.5041 -16.3237 16
      vertex -14.5024 -15.4435 16
      vertex -13.5041 -16.3237 0
    endloop
  endfacet
  facet normal -0.612907 -0.790155 0
    outer loop
      vertex -13.5041 -16.3237 16
      vertex -13.5041 -16.3237 0
      vertex -12.4525 -17.1394 0
    endloop
  endfacet
  facet normal -0.612907 -0.790155 0
    outer loop
      vertex -12.4525 -17.1394 16
      vertex -13.5041 -16.3237 16
      vertex -12.4525 -17.1394 0
    endloop
  endfacet
  facet normal -0.562083 -0.827081 0
    outer loop
      vertex -12.4525 -17.1394 16
      vertex -12.4525 -17.1394 0
      vertex -11.3517 -17.8875 0
    endloop
  endfacet
  facet normal -0.562083 -0.827081 0
    outer loop
      vertex -11.3517 -17.8875 16
      vertex -12.4525 -17.1394 16
      vertex -11.3517 -17.8875 0
    endloop
  endfacet
  facet normal -0.509041 -0.860742 0
    outer loop
      vertex -11.3517 -17.8875 16
      vertex -11.3517 -17.8875 0
      vertex -10.2062 -18.5649 0
    endloop
  endfacet
  facet normal -0.509041 -0.860742 0
    outer loop
      vertex -10.2062 -18.5649 16
      vertex -11.3517 -17.8875 16
      vertex -10.2062 -18.5649 0
    endloop
  endfacet
  facet normal -0.453991 -0.891006 0
    outer loop
      vertex -10.2062 -18.5649 16
      vertex -10.2062 -18.5649 0
      vertex -9.02032 -19.1692 0
    endloop
  endfacet
  facet normal -0.453991 -0.891006 0
    outer loop
      vertex -9.02032 -19.1692 16
      vertex -10.2062 -18.5649 16
      vertex -9.02032 -19.1692 0
    endloop
  endfacet
  facet normal -0.397148 -0.917755 0
    outer loop
      vertex -9.02032 -19.1692 16
      vertex -9.02032 -19.1692 0
      vertex -7.79888 -19.6977 0
    endloop
  endfacet
  facet normal -0.397148 -0.917755 0
    outer loop
      vertex -7.79888 -19.6977 16
      vertex -9.02032 -19.1692 16
      vertex -7.79888 -19.6977 0
    endloop
  endfacet
  facet normal -0.338738 -0.940881 0
    outer loop
      vertex -7.79888 -19.6977 16
      vertex -7.79888 -19.6977 0
      vertex -6.54666 -20.1485 0
    endloop
  endfacet
  facet normal -0.338738 -0.940881 0
    outer loop
      vertex -6.54666 -20.1485 16
      vertex -7.79888 -19.6977 16
      vertex -6.54666 -20.1485 0
    endloop
  endfacet
  facet normal -0.278991 -0.960294 0
    outer loop
      vertex -6.54666 -20.1485 16
      vertex -6.54666 -20.1485 0
      vertex -5.2686 -20.5199 0
    endloop
  endfacet
  facet normal -0.278991 -0.960294 0
    outer loop
      vertex -5.2686 -20.5199 16
      vertex -6.54666 -20.1485 16
      vertex -5.2686 -20.5199 0
    endloop
  endfacet
  facet normal -0.218143 -0.975917 0
    outer loop
      vertex -5.2686 -20.5199 16
      vertex -5.2686 -20.5199 0
      vertex -3.96975 -20.8102 0
    endloop
  endfacet
  facet normal -0.218143 -0.975917 0
    outer loop
      vertex -3.96975 -20.8102 16
      vertex -5.2686 -20.5199 16
      vertex -3.96975 -20.8102 0
    endloop
  endfacet
  facet normal -0.156435 -0.987688 0
    outer loop
      vertex -3.96975 -20.8102 16
      vertex -3.96975 -20.8102 0
      vertex -2.65524 -21.0184 0
    endloop
  endfacet
  facet normal -0.156435 -0.987688 0
    outer loop
      vertex -2.65524 -21.0184 16
      vertex -3.96975 -20.8102 16
      vertex -2.65524 -21.0184 0
    endloop
  endfacet
  facet normal -0.0941084 -0.995562 0
    outer loop
      vertex -2.65524 -21.0184 16
      vertex -2.65524 -21.0184 0
      vertex -1.33024 -21.1436 0
    endloop
  endfacet
  facet normal -0.0941084 -0.995562 0
    outer loop
      vertex -1.33024 -21.1436 16
      vertex -2.65524 -21.0184 16
      vertex -1.33024 -21.1436 0
    endloop
  endfacet
  facet normal -0.031411 -0.999507 0
    outer loop
      vertex -1.33024 -21.1436 16
      vertex -1.33024 -21.1436 0
      vertex 0 -21.1854 0
    endloop
  endfacet
  facet normal -0.031411 -0.999507 0
    outer loop
      vertex 0 -21.1854 16
      vertex -1.33024 -21.1436 16
      vertex 0 -21.1854 0
    endloop
  endfacet
  facet normal 0.031411 -0.999507 0
    outer loop
      vertex 0 -21.1854 16
      vertex 0 -21.1854 0
      vertex 1.33024 -21.1436 0
    endloop
  endfacet
  facet normal 0.031411 -0.999507 0
    outer loop
      vertex 1.33024 -21.1436 16
      vertex 0 -21.1854 16
      vertex 1.33024 -21.1436 0
    endloop
  endfacet
  facet normal 0.0941084 -0.995562 0
    outer loop
      vertex 1.33024 -21.1436 16
      vertex 1.33024 -21.1436 0
      vertex 2.65524 -21.0184 0
    endloop
  endfacet
  facet normal 0.0941084 -0.995562 0
    outer loop
      vertex 2.65524 -21.0184 16
      vertex 1.33024 -21.1436 16
      vertex 2.65524 -21.0184 0
    endloop
  endfacet
  facet normal 0.156435 -0.987688 0
    outer loop
      vertex 2.65524 -21.0184 16
      vertex 2.65524 -21.0184 0
      vertex 3.96975 -20.8102 0
    endloop
  endfacet
  facet normal 0.156435 -0.987688 0
    outer loop
      vertex 3.96975 -20.8102 16
      vertex 2.65524 -21.0184 16
      vertex 3.96975 -20.8102 0
    endloop
  endfacet
  facet normal 0.218143 -0.975917 0
    outer loop
      vertex 3.96975 -20.8102 16
      vertex 3.96975 -20.8102 0
      vertex 5.2686 -20.5199 0
    endloop
  endfacet
  facet normal 0.218143 -0.975917 0
    outer loop
      vertex 5.2686 -20.5199 16
      vertex 3.96975 -20.8102 16
      vertex 5.2686 -20.5199 0
    endloop
  endfacet
  facet normal 0.278991 -0.960294 0
    outer loop
      vertex 5.2686 -20.5199 16
      vertex 5.2686 -20.5199 0
      vertex 6.54666 -20.1485 0
    endloop
  endfacet
  facet normal 0.278991 -0.960294 0
    outer loop
      vertex 6.54666 -20.1485 16
      vertex 5.2686 -20.5199 16
      vertex 6.54666 -20.1485 0
    endloop
  endfacet
  facet normal 0.338738 -0.940881 0
    outer loop
      vertex 6.54666 -20.1485 16
      vertex 6.54666 -20.1485 0
      vertex 7.79888 -19.6977 0
    endloop
  endfacet
  facet normal 0.338738 -0.940881 0
    outer loop
      vertex 7.79888 -19.6977 16
      vertex 6.54666 -20.1485 16
      vertex 7.79888 -19.6977 0
    endloop
  endfacet
  facet normal 0.397148 -0.917755 0
    outer loop
      vertex 7.79888 -19.6977 16
      vertex 7.79888 -19.6977 0
      vertex 9.02032 -19.1692 0
    endloop
  endfacet
  facet normal 0.397148 -0.917755 0
    outer loop
      vertex 9.02032 -19.1692 16
      vertex 7.79888 -19.6977 16
      vertex 9.02032 -19.1692 0
    endloop
  endfacet
  facet normal 0.453991 -0.891006 0
    outer loop
      vertex 9.02032 -19.1692 16
      vertex 9.02032 -19.1692 0
      vertex 10.2062 -18.5649 0
    endloop
  endfacet
  facet normal 0.453991 -0.891006 0
    outer loop
      vertex 10.2062 -18.5649 16
      vertex 9.02032 -19.1692 16
      vertex 10.2062 -18.5649 0
    endloop
  endfacet
  facet normal 0.509041 -0.860742 0
    outer loop
      vertex 10.2062 -18.5649 16
      vertex 10.2062 -18.5649 0
      vertex 11.3517 -17.8875 0
    endloop
  endfacet
  facet normal 0.509041 -0.860742 0
    outer loop
      vertex 11.3517 -17.8875 16
      vertex 10.2062 -18.5649 16
      vertex 11.3517 -17.8875 0
    endloop
  endfacet
  facet normal 0.562083 -0.827081 0
    outer loop
      vertex 11.3517 -17.8875 16
      vertex 11.3517 -17.8875 0
      vertex 12.4525 -17.1394 0
    endloop
  endfacet
  facet normal 0.562083 -0.827081 0
    outer loop
      vertex 12.4525 -17.1394 16
      vertex 11.3517 -17.8875 16
      vertex 12.4525 -17.1394 0
    endloop
  endfacet
  facet normal 0.612907 -0.790155 0
    outer loop
      vertex 12.4525 -17.1394 16
      vertex 12.4525 -17.1394 0
      vertex 13.5041 -16.3237 0
    endloop
  endfacet
  facet normal 0.612907 -0.790155 0
    outer loop
      vertex 13.5041 -16.3237 16
      vertex 12.4525 -17.1394 16
      vertex 13.5041 -16.3237 0
    endloop
  endfacet
  facet normal 0.661312 -0.750111 0
    outer loop
      vertex 13.5041 -16.3237 16
      vertex 13.5041 -16.3237 0
      vertex 14.5024 -15.4435 0
    endloop
  endfacet
  facet normal 0.661312 -0.750111 0
    outer loop
      vertex 14.5024 -15.4435 16
      vertex 13.5041 -16.3237 16
      vertex 14.5024 -15.4435 0
    endloop
  endfacet
  facet normal 0.707107 -0.707107 0
    outer loop
      vertex 14.5024 -15.4435 16
      vertex 14.5024 -15.4435 0
      vertex 15.4435 -14.5024 0
    endloop
  endfacet
  facet normal 0.707107 -0.707107 0
    outer loop
      vertex 15.4435 -14.5024 16
      vertex 14.5024 -15.4435 16
      vertex 15.4435 -14.5024 0
    endloop
  endfacet
  facet normal 0.750111 -0.661312 0
    outer loop
      vertex 15.4435 -14.5024 16
      vertex 15.4435 -14.5024 0
      vertex 16.3237 -13.5041 0
    endloop
  endfacet
  facet normal 0.750111 -0.661312 0
    outer loop
      vertex 16.3237 -13.5041 16
      vertex 15.4435 -14.5024 16
      vertex 16.3237 -13.5041 0
    endloop
  endfacet
  facet normal 0.790155 -0.612907 0
    outer loop
      vertex 16.3237 -13.5041 16
      vertex 16.3237 -13.5041 0
      vertex 17.1394 -12.4525 0
    endloop
  endfacet
  facet normal 0.790155 -0.612907 0
    outer loop
      vertex 17.1394 -12.4525 16
      vertex 16.3237 -13.5041 16
      vertex 17.1394 -12.4525 0
    endloop
  endfacet
  facet normal 0.827081 -0.562083 0
    outer loop
      vertex 17.1394 -12.4525 16
      vertex 17.1394 -12.4525 0
      vertex 17.8875 -11.3517 0
    endloop
  endfacet
  facet normal 0.827081 -0.562083 0
    outer loop
      vertex 17.8875 -11.3517 16
      vertex 17.1394 -12.4525 16
      vertex 17.8875 -11.3517 0
    endloop
  endfacet
  facet normal 0.860742 -0.509041 0
    outer loop
      vertex 17.8875 -11.3517 16
      vertex 17.8875 -11.3517 0
      vertex 18.5649 -10.2062 0
    endloop
  endfacet
  facet normal 0.860742 -0.509041 0
    outer loop
      vertex 18.5649 -10.2062 16
      vertex 17.8875 -11.3517 16
      vertex 18.5649 -10.2062 0
    endloop
  endfacet
  facet normal 0.891006 -0.453991 0
    outer loop
      vertex 18.5649 -10.2062 16
      vertex 18.5649 -10.2062 0
      vertex 19.1692 -9.02032 0
    endloop
  endfacet
  facet normal 0.891006 -0.453991 0
    outer loop
      vertex 19.1692 -9.02032 16
      vertex 18.5649 -10.2062 16
      vertex 19.1692 -9.02032 0
    endloop
  endfacet
  facet normal 0.917755 -0.397148 0
    outer loop
      vertex 19.1692 -9.02032 16
      vertex 19.1692 -9.02032 0
      vertex 19.6977 -7.79888 0
    endloop
  endfacet
  facet normal 0.917755 -0.397148 0
    outer loop
      vertex 19.6977 -7.79888 16
      vertex 19.1692 -9.02032 16
      vertex 19.6977 -7.79888 0
    endloop
  endfacet
  facet normal 0.940881 -0.338738 0
    outer loop
      vertex 19.6977 -7.79888 16
      vertex 19.6977 -7.79888 0
      vertex 20.1485 -6.54666 0
    endloop
  endfacet
  facet normal 0.940881 -0.338738 0
    outer loop
      vertex 20.1485 -6.54666 16
      vertex 19.6977 -7.79888 16
      vertex 20.1485 -6.54666 0
    endloop
  endfacet
  facet normal 0.960294 -0.278991 0
    outer loop
      vertex 20.1485 -6.54666 16
      vertex 20.1485 -6.54666 0
      vertex 20.5199 -5.2686 0
    endloop
  endfacet
  facet normal 0.960294 -0.278991 0
    outer loop
      vertex 20.5199 -5.2686 16
      vertex 20.1485 -6.54666 16
      vertex 20.5199 -5.2686 0
    endloop
  endfacet
  facet normal 0.975917 -0.218143 0
    outer loop
      vertex 20.5199 -5.2686 16
      vertex 20.5199 -5.2686 0
      vertex 20.8102 -3.96975 0
    endloop
  endfacet
  facet normal 0.975917 -0.218143 0
    outer loop
      vertex 20.8102 -3.96975 16
      vertex 20.5199 -5.2686 16
      vertex 20.8102 -3.96975 0
    endloop
  endfacet
  facet normal 0.987688 -0.156435 0
    outer loop
      vertex 20.8102 -3.96975 16
      vertex 20.8102 -3.96975 0
      vertex 21.0184 -2.65524 0
    endloop
  endfacet
  facet normal 0.987688 -0.156435 0
    outer loop
      vertex 21.0184 -2.65524 16
      vertex 20.8102 -3.96975 16
      vertex 21.0184 -2.65524 0
    endloop
  endfacet
  facet normal 0.995562 -0.0941084 0
    outer loop
      vertex 21.0184 -2.65524 16
      vertex 21.0184 -2.65524 0
      vertex 21.1436 -1.33024 0
    endloop
  endfacet
  facet normal 0.995562 -0.0941084 0
    outer loop
      vertex 21.1436 -1.33024 16
      vertex 21.0184 -2.65524 16
      vertex 21.1436 -1.33024 0
    endloop
  endfacet
  facet normal 0.999507 -0.031411 0
    outer loop
      vertex 21.1436 -1.33024 16
      vertex 21.1436 -1.33024 0
      vertex 21.1854 0 0
    endloop
  endfacet
  facet normal 0.999507 -0.031411 0
    outer loop
      vertex 21.1854 0 16
      vertex 21.1436 -1.33024 16
      vertex 21.1854 0 0
    endloop
  endfacet
  facet normal 0.999507 0.031411 0
    outer loop
      vertex 21.1854 0 0
      vertex 21.1436 1.33024 0
      vertex 21.1436 1.33024 16
    endloop
  endfacet
  facet normal 0.999507 0.031411 -0
    outer loop
      vertex 21.1854 0 16
      vertex 21.1854 0 0
      vertex 21.1436 1.33024 16
    endloop
  endfacet
  facet normal 0.995562 0.0941084 0
    outer loop
      vertex 21.1436 1.33024 0
      vertex 21.0184 2.65524 0
      vertex 21.0184 2.65524 16
    endloop
  endfacet
  facet normal 0.995562 0.0941084 -0
    outer loop
      vertex 21.1436 1.33024 16
      vertex 21.1436 1.33024 0
      vertex 21.0184 2.65524 16
    endloop
  endfacet
  facet normal 0.987688 0.156435 0
    outer loop
      vertex 21.0184 2.65524 0
      vertex 20.8102 3.96975 0
      vertex 20.8102 3.96975 16
    endloop
  endfacet
  facet normal 0.987688 0.156435 -0
    outer loop
      vertex 21.0184 2.65524 16
      vertex 21.0184 2.65524 0
      vertex 20.8102 3.96975 16
    endloop
  endfacet
  facet normal 0.975917 0.218143 0
    outer loop
      vertex 20.8102 3.96975 0
      vertex 20.5199 5.2686 0
      vertex 20.5199 5.2686 16
    endloop
  endfacet
  facet normal 0.975917 0.218143 -0
    outer loop
      vertex 20.8102 3.96975 16
      vertex 20.8102 3.96975 0
      vertex 20.5199 5.2686 16
    endloop
  endfacet
  facet normal 0.960294 0.278991 0
    outer loop
      vertex 20.5199 5.2686 0
      vertex 20.1485 6.54666 0
      vertex 20.1485 6.54666 16
    endloop
  endfacet
  facet normal 0.960294 0.278991 -0
    outer loop
      vertex 20.5199 5.2686 16
      vertex 20.5199 5.2686 0
      vertex 20.1485 6.54666 16
    endloop
  endfacet
  facet normal 0.940881 0.338738 0
    outer loop
      vertex 20.1485 6.54666 0
      vertex 19.6977 7.79888 0
      vertex 19.6977 7.79888 16
    endloop
  endfacet
  facet normal 0.940881 0.338738 -0
    outer loop
      vertex 20.1485 6.54666 16
      vertex 20.1485 6.54666 0
      vertex 19.6977 7.79888 16
    endloop
  endfacet
  facet normal 0.917755 0.397148 0
    outer loop
      vertex 19.6977 7.79888 0
      vertex 19.1692 9.02032 0
      vertex 19.1692 9.02032 16
    endloop
  endfacet
  facet normal 0.917755 0.397148 -0
    outer loop
      vertex 19.6977 7.79888 16
      vertex 19.6977 7.79888 0
      vertex 19.1692 9.02032 16
    endloop
  endfacet
  facet normal 0.891006 0.453991 0
    outer loop
      vertex 19.1692 9.02032 0
      vertex 18.5649 10.2062 0
      vertex 18.5649 10.2062 16
    endloop
  endfacet
  facet normal 0.891006 0.453991 -0
    outer loop
      vertex 19.1692 9.02032 16
      vertex 19.1692 9.02032 0
      vertex 18.5649 10.2062 16
    endloop
  endfacet
  facet normal 0.860742 0.509041 0
    outer loop
      vertex 18.5649 10.2062 0
      vertex 17.8875 11.3517 0
      vertex 17.8875 11.3517 16
    endloop
  endfacet
  facet normal 0.860742 0.509041 -0
    outer loop
      vertex 18.5649 10.2062 16
      vertex 18.5649 10.2062 0
      vertex 17.8875 11.3517 16
    endloop
  endfacet
  facet normal 0.827081 0.562083 0
    outer loop
      vertex 17.8875 11.3517 0
      vertex 17.1394 12.4525 0
      vertex 17.1394 12.4525 16
    endloop
  endfacet
  facet normal 0.827081 0.562083 -0
    outer loop
      vertex 17.8875 11.3517 16
      vertex 17.8875 11.3517 0
      vertex 17.1394 12.4525 16
    endloop
  endfacet
  facet normal 0.790155 0.612907 0
    outer loop
      vertex 17.1394 12.4525 0
      vertex 16.3237 13.5041 0
      vertex 16.3237 13.5041 16
    endloop
  endfacet
  facet normal 0.790155 0.612907 -0
    outer loop
      vertex 17.1394 12.4525 16
      vertex 17.1394 12.4525 0
      vertex 16.3237 13.5041 16
    endloop
  endfacet
  facet normal 0.750111 0.661312 0
    outer loop
      vertex 16.3237 13.5041 0
      vertex 15.4435 14.5024 0
      vertex 15.4435 14.5024 16
    endloop
  endfacet
  facet normal 0.750111 0.661312 -0
    outer loop
      vertex 16.3237 13.5041 16
      vertex 16.3237 13.5041 0
      vertex 15.4435 14.5024 16
    endloop
  endfacet
  facet normal 0.707107 0.707107 0
    outer loop
      vertex 14.5024 15.4435 0
      vertex 14.5024 15.4435 16
      vertex 15.4435 14.5024 0
    endloop
  endfacet
  facet normal 0.707107 0.707107 0
    outer loop
      vertex 15.4435 14.5024 0
      vertex 14.5024 15.4435 16
      vertex 15.4435 14.5024 16
    endloop
  endfacet
  facet normal 0.661312 0.750111 0
    outer loop
      vertex 13.5041 16.3237 0
      vertex 13.5041 16.3237 16
      vertex 14.5024 15.4435 0
    endloop
  endfacet
  facet normal 0.661312 0.750111 0
    outer loop
      vertex 14.5024 15.4435 0
      vertex 13.5041 16.3237 16
      vertex 14.5024 15.4435 16
    endloop
  endfacet
  facet normal 0.612907 0.790155 0
    outer loop
      vertex 12.4525 17.1394 0
      vertex 12.4525 17.1394 16
      vertex 13.5041 16.3237 0
    endloop
  endfacet
  facet normal 0.612907 0.790155 0
    outer loop
      vertex 13.5041 16.3237 0
      vertex 12.4525 17.1394 16
      vertex 13.5041 16.3237 16
    endloop
  endfacet
  facet normal 0.562083 0.827081 0
    outer loop
      vertex 11.3517 17.8875 0
      vertex 11.3517 17.8875 16
      vertex 12.4525 17.1394 0
    endloop
  endfacet
  facet normal 0.562083 0.827081 0
    outer loop
      vertex 12.4525 17.1394 0
      vertex 11.3517 17.8875 16
      vertex 12.4525 17.1394 16
    endloop
  endfacet
  facet normal 0.509041 0.860742 0
    outer loop
      vertex 10.2062 18.5649 0
      vertex 10.2062 18.5649 16
      vertex 11.3517 17.8875 0
    endloop
  endfacet
  facet normal 0.509041 0.860742 0
    outer loop
      vertex 11.3517 17.8875 0
      vertex 10.2062 18.5649 16
      vertex 11.3517 17.8875 16
    endloop
  endfacet
  facet normal 0.453991 0.891006 0
    outer loop
      vertex 9.02032 19.1692 0
      vertex 9.02032 19.1692 16
      vertex 10.2062 18.5649 0
    endloop
  endfacet
  facet normal 0.453991 0.891006 0
    outer loop
      vertex 10.2062 18.5649 0
      vertex 9.02032 19.1692 16
      vertex 10.2062 18.5649 16
    endloop
  endfacet
  facet normal 0.397148 0.917755 0
    outer loop
      vertex 7.79888 19.6977 0
      vertex 7.79888 19.6977 16
      vertex 9.02032 19.1692 0
    endloop
  endfacet
  facet normal 0.397148 0.917755 0
    outer loop
      vertex 9.02032 19.1692 0
      vertex 7.79888 19.6977 16
      vertex 9.02032 19.1692 16
    endloop
  endfacet
  facet normal 0.338738 0.940881 0
    outer loop
      vertex 6.54666 20.1485 0
      vertex 6.54666 20.1485 16
      vertex 7.79888 19.6977 0
    endloop
  endfacet
  facet normal 0.338738 0.940881 0
    outer loop
      vertex 7.79888 19.6977 0
      vertex 6.54666 20.1485 16
      vertex 7.79888 19.6977 16
    endloop
  endfacet
  facet normal 0.278991 0.960294 0
    outer loop
      vertex 5.2686 20.5199 0
      vertex 5.2686 20.5199 16
      vertex 6.54666 20.1485 0
    endloop
  endfacet
  facet normal 0.278991 0.960294 0
    outer loop
      vertex 6.54666 20.1485 0
      vertex 5.2686 20.5199 16
      vertex 6.54666 20.1485 16
    endloop
  endfacet
  facet normal 0.218143 0.975917 0
    outer loop
      vertex 3.96975 20.8102 0
      vertex 3.96975 20.8102 16
      vertex 5.2686 20.5199 0
    endloop
  endfacet
  facet normal 0.218143 0.975917 0
    outer loop
      vertex 5.2686 20.5199 0
      vertex 3.96975 20.8102 16
      vertex 5.2686 20.5199 16
    endloop
  endfacet
  facet normal 0.156435 0.987688 0
    outer loop
      vertex 2.65524 21.0184 0
      vertex 2.65524 21.0184 16
      vertex 3.96975 20.8102 0
    endloop
  endfacet
  facet normal 0.156435 0.987688 0
    outer loop
      vertex 3.96975 20.8102 0
      vertex 2.65524 21.0184 16
      vertex 3.96975 20.8102 16
    endloop
  endfacet
  facet normal 0.0941084 0.995562 0
    outer loop
      vertex 1.33024 21.1436 0
      vertex 1.33024 21.1436 16
      vertex 2.65524 21.0184 0
    endloop
  endfacet
  facet normal 0.0941084 0.995562 0
    outer loop
      vertex 2.65524 21.0184 0
      vertex 1.33024 21.1436 16
      vertex 2.65524 21.0184 16
    endloop
  endfacet
  facet normal 0.031411 0.999507 0
    outer loop
      vertex 0 21.1854 0
      vertex 0 21.1854 16
      vertex 1.33024 21.1436 0
    endloop
  endfacet
  facet normal 0.031411 0.999507 0
    outer loop
      vertex 1.33024 21.1436 0
      vertex 0 21.1854 16
      vertex 1.33024 21.1436 16
    endloop
  endfacet
  facet normal -0.031411 0.999507 0
    outer loop
      vertex -1.33024 21.1436 0
      vertex -1.33024 21.1436 16
      vertex 0 21.1854 0
    endloop
  endfacet
  facet normal -0.031411 0.999507 0
    outer loop
      vertex 0 21.1854 0
      vertex -1.33024 21.1436 16
      vertex 0 21.1854 16
    endloop
  endfacet
  facet normal -0.0941084 0.995562 0
    outer loop
      vertex -2.65524 21.0184 0
      vertex -2.65524 21.0184 16
      vertex -1.33024 21.1436 0
    endloop
  endfacet
  facet normal -0.0941084 0.995562 0
    outer loop
      vertex -1.33024 21.1436 0
      vertex -2.65524 21.0184 16
      vertex -1.33024 21.1436 16
    endloop
  endfacet
  facet normal -0.156435 0.987688 0
    outer loop
      vertex -3.96975 20.8102 0
      vertex -3.96975 20.8102 16
      vertex -2.65524 21.0184 0
    endloop
  endfacet
  facet normal -0.156435 0.987688 0
    outer loop
      vertex -2.65524 21.0184 0
      vertex -3.96975 20.8102 16
      vertex -2.65524 21.0184 16
    endloop
  endfacet
  facet normal -0.218143 0.975917 0
    outer loop
      vertex -5.2686 20.5199 0
      vertex -5.2686 20.5199 16
      vertex -3.96975 20.8102 0
    endloop
  endfacet
  facet normal -0.218143 0.975917 0
    outer loop
      vertex -3.96975 20.8102 0
      vertex -5.2686 20.5199 16
      vertex -3.96975 20.8102 16
    endloop
  endfacet
  facet normal -0.278991 0.960294 0
    outer loop
      vertex -6.54666 20.1485 0
      vertex -6.54666 20.1485 16
      vertex -5.2686 20.5199 0
    endloop
  endfacet
  facet normal -0.278991 0.960294 0
    outer loop
      vertex -5.2686 20.5199 0
      vertex -6.54666 20.1485 16
      vertex -5.2686 20.5199 16
    endloop
  endfacet
  facet normal -0.338738 0.940881 0
    outer loop
      vertex -7.79888 19.6977 0
      vertex -7.79888 19.6977 16
      vertex -6.54666 20.1485 0
    endloop
  endfacet
  facet normal -0.338738 0.940881 0
    outer loop
      vertex -6.54666 20.1485 0
      vertex -7.79888 19.6977 16
      vertex -6.54666 20.1485 16
    endloop
  endfacet
  facet normal -0.397148 0.917755 0
    outer loop
      vertex -9.02032 19.1692 0
      vertex -9.02032 19.1692 16
      vertex -7.79888 19.6977 0
    endloop
  endfacet
  facet normal -0.397148 0.917755 0
    outer loop
      vertex -7.79888 19.6977 0
      vertex -9.02032 19.1692 16
      vertex -7.79888 19.6977 16
    endloop
  endfacet
  facet normal -0.453991 0.891006 0
    outer loop
      vertex -10.2062 18.5649 0
      vertex -10.2062 18.5649 16
      vertex -9.02032 19.1692 0
    endloop
  endfacet
  facet normal -0.453991 0.891006 0
    outer loop
      vertex -9.02032 19.1692 0
      vertex -10.2062 18.5649 16
      vertex -9.02032 19.1692 16
    endloop
  endfacet
  facet normal -0.509041 0.860742 0
    outer loop
      vertex -11.3517 17.8875 0
      vertex -11.3517 17.8875 16
      vertex -10.2062 18.5649 0
    endloop
  endfacet
  facet normal -0.509041 0.860742 0
    outer loop
      vertex -10.2062 18.5649 0
      vertex -11.3517 17.8875 16
      vertex -10.2062 18.5649 16
    endloop
  endfacet
  facet normal -0.562083 0.827081 0
    outer loop
      vertex -12.4525 17.1394 0
      vertex -12.4525 17.1394 16
      vertex -11.3517 17.8875 0
    endloop
  endfacet
  facet normal -0.562083 0.827081 0
    outer loop
      vertex -11.3517 17.8875 0
      vertex -12.4525 17.1394 16
      vertex -11.3517 17.8875 16
    endloop
  endfacet
  facet normal -0.612907 0.790155 0
    outer loop
      vertex -13.5041 16.3237 0
      vertex -13.5041 16.3237 16
      vertex -12.4525 17.1394 0
    endloop
  endfacet
  facet normal -0.612907 0.790155 0
    outer loop
      vertex -12.4525 17.1394 0
      vertex -13.5041 16.3237 16
      vertex -12.4525 17.1394 16
    endloop
  endfacet
  facet normal -0.661312 0.750111 0
    outer loop
      vertex -14.5024 15.4435 0
      vertex -14.5024 15.4435 16
      vertex -13.5041 16.3237 0
    endloop
  endfacet
  facet normal -0.661312 0.750111 0
    outer loop
      vertex -13.5041 16.3237 0
      vertex -14.5024 15.4435 16
      vertex -13.5041 16.3237 16
    endloop
  endfacet
  facet normal -0.707107 0.707107 0
    outer loop
      vertex -15.4435 14.5024 0
      vertex -15.4435 14.5024 16
      vertex -14.5024 15.4435 0
    endloop
  endfacet
  facet normal -0.707107 0.707107 0
    outer loop
      vertex -14.5024 15.4435 0
      vertex -15.4435 14.5024 16
      vertex -14.5024 15.4435 16
    endloop
  endfacet
  facet normal -0.750111 0.661312 0
    outer loop
      vertex -16.3237 13.5041 0
      vertex -16.3237 13.5041 16
      vertex -15.4435 14.5024 0
    endloop
  endfacet
  facet normal -0.750111 0.661312 0
    outer loop
      vertex -15.4435 14.5024 0
      vertex -16.3237 13.5041 16
      vertex -15.4435 14.5024 16
    endloop
  endfacet
  facet normal -0.790155 0.612907 0
    outer loop
      vertex -17.1394 12.4525 0
      vertex -17.1394 12.4525 16
      vertex -16.3237 13.5041 0
    endloop
  endfacet
  facet normal -0.790155 0.612907 0
    outer loop
      vertex -16.3237 13.5041 0
      vertex -17.1394 12.4525 16
      vertex -16.3237 13.5041 16
    endloop
  endfacet
  facet normal -0.827081 0.562083 0
    outer loop
      vertex -17.8875 11.3517 0
      vertex -17.8875 11.3517 16
      vertex -17.1394 12.4525 0
    endloop
  endfacet
  facet normal -0.827081 0.562083 0
    outer loop
      vertex -17.1394 12.4525 0
      vertex -17.8875 11.3517 16
      vertex -17.1394 12.4525 16
    endloop
  endfacet
  facet normal -0.860742 0.509041 0
    outer loop
      vertex -18.5649 10.2062 0
      vertex -18.5649 10.2062 16
      vertex -17.8875 11.3517 0
    endloop
  endfacet
  facet normal -0.860742 0.509041 0
    outer loop
      vertex -17.8875 11.3517 0
      vertex -18.5649 10.2062 16
      vertex -17.8875 11.3517 16
    endloop
  endfacet
  facet normal -0.891006 0.453991 0
    outer loop
      vertex -19.1692 9.02032 0
      vertex -19.1692 9.02032 16
      vertex -18.5649 10.2062 0
    endloop
  endfacet
  facet normal -0.891006 0.453991 0
    outer loop
      vertex -18.5649 10.2062 0
      vertex -19.1692 9.02032 16
      vertex -18.5649 10.2062 16
    endloop
  endfacet
  facet normal -0.917755 0.397148 0
    outer loop
      vertex -19.6977 7.79888 0
      vertex -19.6977 7.79888 16
      vertex -19.1692 9.02032 0
    endloop
  endfacet
  facet normal -0.917755 0.397148 0
    outer loop
      vertex -19.1692 9.02032 0
      vertex -19.6977 7.79888 16
      vertex -19.1692 9.02032 16
    endloop
  endfacet
  facet normal -0.940881 0.338738 0
    outer loop
      vertex -20.1485 6.54666 0
      vertex -20.1485 6.54666 16
      vertex -19.6977 7.79888 0
    endloop
  endfacet
  facet normal -0.940881 0.338738 0
    outer loop
      vertex -19.6977 7.79888 0
      vertex -20.1485 6.54666 16
      vertex -19.6977 7.79888 16
    endloop
  endfacet
  facet normal -0.960294 0.278991 0
    outer loop
      vertex -20.5199 5.2686 0
      vertex -20.5199 5.2686 16
      vertex -20.1485 6.54666 0
    endloop
  endfacet
  facet normal -0.960294 0.278991 0
    outer loop
      vertex -20.1485 6.54666 0
      vertex -20.5199 5.2686 16
      vertex -20.1485 6.54666 16
    endloop
  endfacet
  facet normal -0.975917 0.218143 0
    outer loop
      vertex -20.8102 3.96975 0
      vertex -20.8102 3.96975 16
      vertex -20.5199 5.2686 0
    endloop
  endfacet
  facet normal -0.975917 0.218143 0
    outer loop
      vertex -20.5199 5.2686 0
      vertex -20.8102 3.96975 16
      vertex -20.5199 5.2686 16
    endloop
  endfacet
  facet normal -0.987688 0.156435 0
    outer loop
      vertex -21.0184 2.65524 0
      vertex -21.0184 2.65524 16
      vertex -20.8102 3.96975 0
    endloop
  endfacet
  facet normal -0.987688 0.156435 0
    outer loop
      vertex -20.8102 3.96975 0
      vertex -21.0184 2.65524 16
      vertex -20.8102 3.96975 16
    endloop
  endfacet
  facet normal -0.995562 0.0941084 0
    outer loop
      vertex -21.1436 1.33024 0
      vertex -21.1436 1.33024 16
      vertex -21.0184 2.65524 0
    endloop
  endfacet
  facet normal -0.995562 0.0941084 0
    outer loop
      vertex -21.0184 2.65524 0
      vertex -21.1436 1.33024 16
      vertex -21.0184 2.65524 16
    endloop
  endfacet
  facet normal 1 8.20807e-008 0
    outer loop
      vertex -3.78791 1.569 16
      vertex -3.78791 -1.569 16
      vertex -3.78791 -1.569 0
    endloop
  endfacet
  facet normal 1 8.20807e-008 0
    outer loop
      vertex -3.78791 1.569 0
      vertex -3.78791 1.569 16
      vertex -3.78791 -1.569 0
    endloop
  endfacet
  facet normal 0.707107 -0.707107 0
    outer loop
      vertex -1.569 3.78791 0
      vertex -1.569 3.78791 16
      vertex -3.78791 1.569 16
    endloop
  endfacet
  facet normal 0.707107 -0.707107 0
    outer loop
      vertex -3.78791 1.569 0
      vertex -1.569 3.78791 0
      vertex -3.78791 1.569 16
    endloop
  endfacet
  facet normal 8.20807e-008 -1 0
    outer loop
      vertex 1.569 3.78791 0
      vertex 1.569 3.78791 16
      vertex -1.569 3.78791 16
    endloop
  endfacet
  facet normal 8.20807e-008 -1 0
    outer loop
      vertex -1.569 3.78791 0
      vertex 1.569 3.78791 0
      vertex -1.569 3.78791 16
    endloop
  endfacet
  facet normal -0.707107 -0.707107 0
    outer loop
      vertex 3.78791 1.569 16
      vertex 1.569 3.78791 16
      vertex 3.78791 1.569 0
    endloop
  endfacet
  facet normal -0.707107 -0.707107 0
    outer loop
      vertex 3.78791 1.569 0
      vertex 1.569 3.78791 16
      vertex 1.569 3.78791 0
    endloop
  endfacet
  facet normal -1 -8.20807e-008 0
    outer loop
      vertex 3.78791 -1.569 16
      vertex 3.78791 1.569 16
      vertex 3.78791 -1.569 0
    endloop
  endfacet
  facet normal -1 -8.20807e-008 0
    outer loop
      vertex 3.78791 -1.569 0
      vertex 3.78791 1.569 16
      vertex 3.78791 1.569 0
    endloop
  endfacet
  facet normal -0.707107 0.707107 0
    outer loop
      vertex 3.78791 -1.569 16
      vertex 3.78791 -1.569 0
      vertex 1.569 -3.78791 16
    endloop
  endfacet
  facet normal -0.707107 0.707107 0
    outer loop
      vertex 1.569 -3.78791 16
      vertex 3.78791 -1.569 0
      vertex 1.569 -3.78791 0
    endloop
  endfacet
  facet normal -8.20807e-008 1 0
    outer loop
      vertex 1.569 -3.78791 16
      vertex 1.569 -3.78791 0
      vertex -1.569 -3.78791 16
    endloop
  endfacet
  facet normal -8.20807e-008 1 0
    outer loop
      vertex -1.569 -3.78791 16
      vertex 1.569 -3.78791 0
      vertex -1.569 -3.78791 0
    endloop
  endfacet
  facet normal 0.707107 0.707107 0
    outer loop
      vertex -3.78791 -1.569 16
      vertex -1.569 -3.78791 16
      vertex -1.569 -3.78791 0
    endloop
  endfacet
  facet normal 0.707107 0.707107 0
    outer loop
      vertex -3.78791 -1.569 0
      vertex -3.78791 -1.569 16
      vertex -1.569 -3.78791 0
    endloop
  endfacet
  facet normal 0 0 1
    outer loop
      vertex -21.1436 1.33024 16
      vertex -21.1854 0 16
      vertex -21.1436 -1.33024 16
    endloop
  endfacet
  facet normal 0 0 1
    outer loop
      vertex -20.8102 -3.96975 16
      vertex -21.1436 1.33024 16
      vertex -21.0184 -2.65524 16
    endloop
  endfacet
  facet normal 0 0 1
    outer loop
      vertex -21.0184 -2.65524 16
      vertex -21.1436 1.33024 16
      vertex -21.1436 -1.33024 16
    endloop
  endfacet
  facet normal 0 0 1
    outer loop
      vertex -20.5199 -5.2686 16
      vertex -21.1436 1.33024 16
      vertex -20.8102 -3.96975 16
    endloop
  endfacet
  facet normal 0 0 1
    outer loop
      vertex -20.1485 -6.54666 16
      vertex -21.1436 1.33024 16
      vertex -20.5199 -5.2686 16
    endloop
  endfacet
  facet normal 0 0 1
    outer loop
      vertex -19.6977 -7.79888 16
      vertex -21.1436 1.33024 16
      vertex -20.1485 -6.54666 16
    endloop
  endfacet
  facet normal 0 0 1
    outer loop
      vertex -19.1692 -9.02032 16
      vertex -21.1436 1.33024 16
      vertex -19.6977 -7.79888 16
    endloop
  endfacet
  facet normal 0 0 1
    outer loop
      vertex -18.5649 -10.2062 16
      vertex -21.1436 1.33024 16
      vertex -19.1692 -9.02032 16
    endloop
  endfacet
  facet normal 0 0 1
    outer loop
      vertex -17.8875 -11.3517 16
      vertex -21.1436 1.33024 16
      vertex -18.5649 -10.2062 16
    endloop
  endfacet
  facet normal 0 0 1
    outer loop
      vertex -17.1394 -12.4525 16
      vertex -21.1436 1.33024 16
      vertex -17.8875 -11.3517 16
    endloop
  endfacet
  facet normal 0 0 1
    outer loop
      vertex -16.3237 -13.5041 16
      vertex -21.1436 1.33024 16
      vertex -17.1394 -12.4525 16
    endloop
  endfacet
  facet normal 0 0 1
    outer loop
      vertex -15.4435 -14.5024 16
      vertex -21.1436 1.33024 16
      vertex -16.3237 -13.5041 16
    endloop
  endfacet
  facet normal 0 0 1
    outer loop
      vertex -14.5024 -15.4435 16
      vertex -21.1436 1.33024 16
      vertex -15.4435 -14.5024 16
    endloop
  endfacet
  facet normal 0 0 1
    outer loop
      vertex -13.5041 -16.3237 16
      vertex -21.1436 1.33024 16
      vertex -14.5024 -15.4435 16
    endloop
  endfacet
  facet normal 0 0 1
    outer loop
      vertex -12.4525 -17.1394 16
      vertex -21.1436 1.33024 16
      vertex -13.5041 -16.3237 16
    endloop
  endfacet
  facet normal 0 0 1
    outer loop
      vertex -11.3517 -17.8875 16
      vertex -21.1436 1.33024 16
      vertex -12.4525 -17.1394 16
    endloop
  endfacet
  facet normal 0 0 1
    outer loop
      vertex -10.2062 -18.5649 16
      vertex -21.1436 1.33024 16
      vertex -11.3517 -17.8875 16
    endloop
  endfacet
  facet normal 0 0 1
    outer loop
      vertex -9.02032 -19.1692 16
      vertex -21.1436 1.33024 16
      vertex -10.2062 -18.5649 16
    endloop
  endfacet
  facet normal 0 0 1
    outer loop
      vertex -7.79888 -19.6977 16
      vertex -21.1436 1.33024 16
      vertex -9.02032 -19.1692 16
    endloop
  endfacet
  facet normal 0 0 1
    outer loop
      vertex -6.54666 -20.1485 16
      vertex -21.1436 1.33024 16
      vertex -7.79888 -19.6977 16
    endloop
  endfacet
  facet normal 0 0 1
    outer loop
      vertex -5.2686 -20.5199 16
      vertex -21.1436 1.33024 16
      vertex -6.54666 -20.1485 16
    endloop
  endfacet
  facet normal 0 0 1
    outer loop
      vertex -3.96975 -20.8102 16
      vertex -21.1436 1.33024 16
      vertex -5.2686 -20.5199 16
    endloop
  endfacet
  facet normal 0 0 1
    outer loop
      vertex -2.65524 -21.0184 16
      vertex -21.1436 1.33024 16
      vertex -3.96975 -20.8102 16
    endloop
  endfacet
  facet normal 0 0 1
    outer loop
      vertex -1.33024 -21.1436 16
      vertex -21.1436 1.33024 16
      vertex -2.65524 -21.0184 16
    endloop
  endfacet
  facet normal 0 0 1
    outer loop
      vertex 0 -21.1854 16
      vertex -21.1436 1.33024 16
      vertex -1.33024 -21.1436 16
    endloop
  endfacet
  facet normal -0 0 1
    outer loop
      vertex 1.33024 -21.1436 16
      vertex -21.1436 1.33024 16
      vertex 0 -21.1854 16
    endloop
  endfacet
  facet normal -0 0 1
    outer loop
      vertex 2.65524 -21.0184 16
      vertex -21.1436 1.33024 16
      vertex 1.33024 -21.1436 16
    endloop
  endfacet
  facet normal -0 0 1
    outer loop
      vertex 3.96975 -20.8102 16
      vertex -21.1436 1.33024 16
      vertex 2.65524 -21.0184 16
    endloop
  endfacet
  facet normal -0 0 1
    outer loop
      vertex 5.2686 -20.5199 16
      vertex -21.1436 1.33024 16
      vertex 3.96975 -20.8102 16
    endloop
  endfacet
  facet normal -0 0 1
    outer loop
      vertex 6.54666 -20.1485 16
      vertex -21.1436 1.33024 16
      vertex 5.2686 -20.5199 16
    endloop
  endfacet
  facet normal -0 0 1
    outer loop
      vertex 7.79888 -19.6977 16
      vertex -21.1436 1.33024 16
      vertex 6.54666 -20.1485 16
    endloop
  endfacet
  facet normal -0 0 1
    outer loop
      vertex 9.02032 -19.1692 16
      vertex -21.1436 1.33024 16
      vertex 7.79888 -19.6977 16
    endloop
  endfacet
  facet normal -0 0 1
    outer loop
      vertex 10.2062 -18.5649 16
      vertex -21.1436 1.33024 16
      vertex 9.02032 -19.1692 16
    endloop
  endfacet
  facet normal -0 0 1
    outer loop
      vertex 11.3517 -17.8875 16
      vertex -21.1436 1.33024 16
      vertex 10.2062 -18.5649 16
    endloop
  endfacet
  facet normal -0 0 1
    outer loop
      vertex 12.4525 -17.1394 16
      vertex -21.1436 1.33024 16
      vertex 11.3517 -17.8875 16
    endloop
  endfacet
  facet normal -0 0 1
    outer loop
      vertex 13.5041 -16.3237 16
      vertex -21.1436 1.33024 16
      vertex 12.4525 -17.1394 16
    endloop
  endfacet
  facet normal -0 0 1
    outer loop
      vertex 14.5024 -15.4435 16
      vertex -21.1436 1.33024 16
      vertex 13.5041 -16.3237 16
    endloop
  endfacet
  facet normal -0 0 1
    outer loop
      vertex 15.4435 -14.5024 16
      vertex -21.1436 1.33024 16
      vertex 14.5024 -15.4435 16
    endloop
  endfacet
  facet normal -0 0 1
    outer loop
      vertex 16.3237 -13.5041 16
      vertex -21.1436 1.33024 16
      vertex 15.4435 -14.5024 16
    endloop
  endfacet
  facet normal -0 0 1
    outer loop
      vertex 17.1394 -12.4525 16
      vertex -21.1436 1.33024 16
      vertex 16.3237 -13.5041 16
    endloop
  endfacet
  facet normal -0 0 1
    outer loop
      vertex 17.8875 -11.3517 16
      vertex -21.1436 1.33024 16
      vertex 17.1394 -12.4525 16
    endloop
  endfacet
  facet normal -0 0 1
    outer loop
      vertex 18.5649 -10.2062 16
      vertex -21.1436 1.33024 16
      vertex 17.8875 -11.3517 16
    endloop
  endfacet
  facet normal -0 -0 1
    outer loop
      vertex -1.569 -3.78791 16
      vertex -21.1436 1.33024 16
      vertex 18.5649 -10.2062 16
    endloop
  endfacet
  facet normal 0 0 1
    outer loop
      vertex 3.78791 -1.569 16
      vertex 19.6977 -7.79888 16
      vertex 20.1485 -6.54666 16
    endloop
  endfacet
  facet normal 0 -0 1
    outer loop
      vertex 3.78791 -1.569 16
      vertex 1.569 -3.78791 16
      vertex 19.6977 -7.79888 16
    endloop
  endfacet
  facet normal 0 0 1
    outer loop
      vertex 3.78791 1.569 16
      vertex 21.1854 0 16
      vertex 21.1436 1.33024 16
    endloop
  endfacet
  facet normal 0 0 1
    outer loop
      vertex 3.78791 1.569 16
      vertex 21.1436 -1.33024 16
      vertex 21.1854 0 16
    endloop
  endfacet
  facet normal 0 0 1
    outer loop
      vertex 1.569 3.78791 16
      vertex 21.0184 2.65524 16
      vertex 20.8102 3.96975 16
    endloop
  endfacet
  facet normal 0 0 1
    outer loop
      vertex 1.569 3.78791 16
      vertex 20.8102 3.96975 16
      vertex 20.5199 5.2686 16
    endloop
  endfacet
  facet normal 0 0 1
    outer loop
      vertex 3.78791 1.569 16
      vertex 21.0184 -2.65524 16
      vertex 21.1436 -1.33024 16
    endloop
  endfacet
  facet normal 0 0 1
    outer loop
      vertex 1.569 3.78791 16
      vertex 3.78791 1.569 16
      vertex 21.0184 2.65524 16
    endloop
  endfacet
  facet normal 0 -0 1
    outer loop
      vertex 19.6977 7.79888 16
      vertex -21.1436 1.33024 16
      vertex 20.1485 6.54666 16
    endloop
  endfacet
  facet normal 0 -0 1
    outer loop
      vertex 19.1692 9.02032 16
      vertex -21.1436 1.33024 16
      vertex 19.6977 7.79888 16
    endloop
  endfacet
  facet normal 0 -0 1
    outer loop
      vertex 18.5649 10.2062 16
      vertex -21.1436 1.33024 16
      vertex 19.1692 9.02032 16
    endloop
  endfacet
  facet normal 0 -0 1
    outer loop
      vertex 17.8875 11.3517 16
      vertex -21.1436 1.33024 16
      vertex 18.5649 10.2062 16
    endloop
  endfacet
  facet normal 0 -0 1
    outer loop
      vertex 17.1394 12.4525 16
      vertex -21.1436 1.33024 16
      vertex 17.8875 11.3517 16
    endloop
  endfacet
  facet normal 0 -0 1
    outer loop
      vertex 16.3237 13.5041 16
      vertex -21.1436 1.33024 16
      vertex 17.1394 12.4525 16
    endloop
  endfacet
  facet normal 0 -0 1
    outer loop
      vertex 15.4435 14.5024 16
      vertex -21.1436 1.33024 16
      vertex 16.3237 13.5041 16
    endloop
  endfacet
  facet normal 0 -0 1
    outer loop
      vertex 14.5024 15.4435 16
      vertex -21.1436 1.33024 16
      vertex 15.4435 14.5024 16
    endloop
  endfacet
  facet normal 0 -0 1
    outer loop
      vertex 13.5041 16.3237 16
      vertex -21.1436 1.33024 16
      vertex 14.5024 15.4435 16
    endloop
  endfacet
  facet normal 0 -0 1
    outer loop
      vertex 12.4525 17.1394 16
      vertex -21.1436 1.33024 16
      vertex 13.5041 16.3237 16
    endloop
  endfacet
  facet normal 0 -0 1
    outer loop
      vertex 11.3517 17.8875 16
      vertex -21.1436 1.33024 16
      vertex 12.4525 17.1394 16
    endloop
  endfacet
  facet normal 0 -0 1
    outer loop
      vertex 10.2062 18.5649 16
      vertex -21.1436 1.33024 16
      vertex 11.3517 17.8875 16
    endloop
  endfacet
  facet normal 0 -0 1
    outer loop
      vertex 9.02032 19.1692 16
      vertex -21.1436 1.33024 16
      vertex 10.2062 18.5649 16
    endloop
  endfacet
  facet normal 0 -0 1
    outer loop
      vertex 7.79888 19.6977 16
      vertex -21.1436 1.33024 16
      vertex 9.02032 19.1692 16
    endloop
  endfacet
  facet normal 0 -0 1
    outer loop
      vertex 6.54666 20.1485 16
      vertex -21.1436 1.33024 16
      vertex 7.79888 19.6977 16
    endloop
  endfacet
  facet normal 0 -0 1
    outer loop
      vertex 5.2686 20.5199 16
      vertex -21.1436 1.33024 16
      vertex 6.54666 20.1485 16
    endloop
  endfacet
  facet normal 0 -0 1
    outer loop
      vertex 3.96975 20.8102 16
      vertex -21.1436 1.33024 16
      vertex 5.2686 20.5199 16
    endloop
  endfacet
  facet normal 0 -0 1
    outer loop
      vertex 2.65524 21.0184 16
      vertex -21.1436 1.33024 16
      vertex 3.96975 20.8102 16
    endloop
  endfacet
  facet normal 0 -0 1
    outer loop
      vertex 1.33024 21.1436 16
      vertex -21.1436 1.33024 16
      vertex 2.65524 21.0184 16
    endloop
  endfacet
  facet normal 0 -0 1
    outer loop
      vertex 0 21.1854 16
      vertex -21.1436 1.33024 16
      vertex 1.33024 21.1436 16
    endloop
  endfacet
  facet normal 0 -0 1
    outer loop
      vertex -1.33024 21.1436 16
      vertex -21.1436 1.33024 16
      vertex 0 21.1854 16
    endloop
  endfacet
  facet normal 0 -0 1
    outer loop
      vertex -2.65524 21.0184 16
      vertex -21.1436 1.33024 16
      vertex -1.33024 21.1436 16
    endloop
  endfacet
  facet normal 0 -0 1
    outer loop
      vertex -3.96975 20.8102 16
      vertex -21.1436 1.33024 16
      vertex -2.65524 21.0184 16
    endloop
  endfacet
  facet normal 0 -0 1
    outer loop
      vertex -5.2686 20.5199 16
      vertex -21.1436 1.33024 16
      vertex -3.96975 20.8102 16
    endloop
  endfacet
  facet normal 0 -0 1
    outer loop
      vertex -6.54666 20.1485 16
      vertex -21.1436 1.33024 16
      vertex -5.2686 20.5199 16
    endloop
  endfacet
  facet normal 0 -0 1
    outer loop
      vertex -7.79888 19.6977 16
      vertex -21.1436 1.33024 16
      vertex -6.54666 20.1485 16
    endloop
  endfacet
  facet normal 0 -0 1
    outer loop
      vertex -9.02032 19.1692 16
      vertex -21.1436 1.33024 16
      vertex -7.79888 19.6977 16
    endloop
  endfacet
  facet normal 0 -0 1
    outer loop
      vertex -10.2062 18.5649 16
      vertex -21.1436 1.33024 16
      vertex -9.02032 19.1692 16
    endloop
  endfacet
  facet normal 0 -0 1
    outer loop
      vertex -11.3517 17.8875 16
      vertex -21.1436 1.33024 16
      vertex -10.2062 18.5649 16
    endloop
  endfacet
  facet normal 0 -0 1
    outer loop
      vertex -12.4525 17.1394 16
      vertex -21.1436 1.33024 16
      vertex -11.3517 17.8875 16
    endloop
  endfacet
  facet normal 0 -0 1
    outer loop
      vertex -13.5041 16.3237 16
      vertex -21.1436 1.33024 16
      vertex -12.4525 17.1394 16
    endloop
  endfacet
  facet normal 0 -0 1
    outer loop
      vertex -14.5024 15.4435 16
      vertex -21.1436 1.33024 16
      vertex -13.5041 16.3237 16
    endloop
  endfacet
  facet normal 0 -0 1
    outer loop
      vertex -15.4435 14.5024 16
      vertex -21.1436 1.33024 16
      vertex -14.5024 15.4435 16
    endloop
  endfacet
  facet normal 0 -0 1
    outer loop
      vertex -16.3237 13.5041 16
      vertex -21.1436 1.33024 16
      vertex -15.4435 14.5024 16
    endloop
  endfacet
  facet normal 0 -0 1
    outer loop
      vertex -17.1394 12.4525 16
      vertex -21.1436 1.33024 16
      vertex -16.3237 13.5041 16
    endloop
  endfacet
  facet normal 0 -0 1
    outer loop
      vertex -17.8875 11.3517 16
      vertex -21.1436 1.33024 16
      vertex -17.1394 12.4525 16
    endloop
  endfacet
  facet normal 0 -0 1
    outer loop
      vertex -18.5649 10.2062 16
      vertex -21.1436 1.33024 16
      vertex -17.8875 11.3517 16
    endloop
  endfacet
  facet normal 0 -0 1
    outer loop
      vertex -19.1692 9.02032 16
      vertex -21.1436 1.33024 16
      vertex -18.5649 10.2062 16
    endloop
  endfacet
  facet normal 0 -0 1
    outer loop
      vertex -19.6977 7.79888 16
      vertex -21.1436 1.33024 16
      vertex -19.1692 9.02032 16
    endloop
  endfacet
  facet normal 0 -0 1
    outer loop
      vertex -20.1485 6.54666 16
      vertex -21.1436 1.33024 16
      vertex -19.6977 7.79888 16
    endloop
  endfacet
  facet normal 0 -0 1
    outer loop
      vertex -20.5199 5.2686 16
      vertex -21.1436 1.33024 16
      vertex -20.1485 6.54666 16
    endloop
  endfacet
  facet normal 0 -0 1
    outer loop
      vertex -20.8102 3.96975 16
      vertex -21.1436 1.33024 16
      vertex -20.5199 5.2686 16
    endloop
  endfacet
  facet normal 0 -0 1
    outer loop
      vertex -21.0184 2.65524 16
      vertex -21.1436 1.33024 16
      vertex -20.8102 3.96975 16
    endloop
  endfacet
  facet normal 0 0 1
    outer loop
      vertex 3.78791 1.569 16
      vertex 3.78791 -1.569 16
      vertex 21.0184 -2.65524 16
    endloop
  endfacet
  facet normal 0 -0 1
    outer loop
      vertex 20.1485 6.54666 16
      vertex -1.569 3.78791 16
      vertex 20.5199 5.2686 16
    endloop
  endfacet
  facet normal 0 0 1
    outer loop
      vertex 20.1485 6.54666 16
      vertex -21.1436 1.33024 16
      vertex -1.569 3.78791 16
    endloop
  endfacet
  facet normal 0 0 1
    outer loop
      vertex -1.569 3.78791 16
      vertex 1.569 3.78791 16
      vertex 20.5199 5.2686 16
    endloop
  endfacet
  facet normal 0 -0 1
    outer loop
      vertex 21.0184 2.65524 16
      vertex 3.78791 1.569 16
      vertex 21.1436 1.33024 16
    endloop
  endfacet
  facet normal -0 0 1
    outer loop
      vertex 21.0184 -2.65524 16
      vertex 3.78791 -1.569 16
      vertex 20.8102 -3.96975 16
    endloop
  endfacet
  facet normal -0 0 1
    outer loop
      vertex -3.78791 1.569 16
      vertex -1.569 3.78791 16
      vertex -21.1436 1.33024 16
    endloop
  endfacet
  facet normal -0 0 1
    outer loop
      vertex 19.6977 -7.79888 16
      vertex 1.569 -3.78791 16
      vertex 19.1692 -9.02032 16
    endloop
  endfacet
  facet normal 0 0 1
    outer loop
      vertex 3.78791 -1.569 16
      vertex 20.1485 -6.54666 16
      vertex 20.5199 -5.2686 16
    endloop
  endfacet
  facet normal -0 0 1
    outer loop
      vertex 19.1692 -9.02032 16
      vertex -1.569 -3.78791 16
      vertex 18.5649 -10.2062 16
    endloop
  endfacet
  facet normal 0 0 1
    outer loop
      vertex 3.78791 -1.569 16
      vertex 20.5199 -5.2686 16
      vertex 20.8102 -3.96975 16
    endloop
  endfacet
  facet normal 0 -0 1
    outer loop
      vertex 1.569 -3.78791 16
      vertex -1.569 -3.78791 16
      vertex 19.1692 -9.02032 16
    endloop
  endfacet
  facet normal 0 0 1
    outer loop
      vertex -1.569 -3.78791 16
      vertex -3.78791 -1.569 16
      vertex -21.1436 1.33024 16
    endloop
  endfacet
  facet normal 0 0 1
    outer loop
      vertex -3.78791 -1.569 16
      vertex -3.78791 1.569 16
      vertex -21.1436 1.33024 16
    endloop
  endfacet
endsolid OpenSCAD_Model
