solid OpenSCAD_Model
  facet normal -2.84217e-016 -2.84217e-016 1
    outer loop
      vertex 10.5 -23 35
      vertex -12.5 -25 35
      vertex 12.5 -25 35
    endloop
  endfacet
  facet normal 0 0 1
    outer loop
      vertex -10.5 -23 35
      vertex -10.5 23 35
      vertex -12.5 25 35
    endloop
  endfacet
  facet normal -3.38354e-016 3.38354e-016 1
    outer loop
      vertex -10.5 -23 35
      vertex -12.5 -25 35
      vertex 10.5 -23 35
    endloop
  endfacet
  facet normal 0 -0 1
    outer loop
      vertex -12.5 25 35
      vertex -12.5 -25 35
      vertex -10.5 -23 35
    endloop
  endfacet
  facet normal -2.84217e-016 -2.84217e-016 1
    outer loop
      vertex 12.5 25 35
      vertex -12.5 25 35
      vertex -10.5 23 35
    endloop
  endfacet
  facet normal 0 0 1
    outer loop
      vertex 12.5 25 35
      vertex 10.5 23 35
      vertex 12.5 -25 35
    endloop
  endfacet
  facet normal -3.38354e-016 3.38354e-016 1
    outer loop
      vertex 12.5 25 35
      vertex -10.5 23 35
      vertex 10.5 23 35
    endloop
  endfacet
  facet normal 0 -0 1
    outer loop
      vertex 10.5 23 35
      vertex 10.5 -23 35
      vertex 12.5 -25 35
    endloop
  endfacet
  facet normal 0 -1 0
    outer loop
      vertex 12.5 -25 35
      vertex -12.5 -25 35
      vertex -12.5 -25 -35
    endloop
  endfacet
  facet normal 0 -1 0
    outer loop
      vertex 12.5 -25 13.8055
      vertex 12.5 -25 35
      vertex -12.5 -25 -35
    endloop
  endfacet
  facet normal 0 -1 0
    outer loop
      vertex 12.5 -25 -0.40741
      vertex 12.5 -25 13.8055
      vertex -12.5 -25 -35
    endloop
  endfacet
  facet normal 0 -1 0
    outer loop
      vertex 12.5 -25 -35
      vertex 12.5 -25 -0.40741
      vertex -12.5 -25 -35
    endloop
  endfacet
  facet normal 0 -1 0
    outer loop
      vertex 14.25 -25 -0.40741
      vertex 12.5 -25 13.8055
      vertex 12.5 -25 -0.40741
    endloop
  endfacet
  facet normal 0 -1 0
    outer loop
      vertex 14.25 -25 13.8055
      vertex 12.5 -25 13.8055
      vertex 14.25 -25 -0.40741
    endloop
  endfacet
  facet normal -1 -0 -2.28389e-016
    outer loop
      vertex -12.5 -25 35
      vertex -12.5 25 35
      vertex -12.5 -25 -35
    endloop
  endfacet
  facet normal -1 -0 -2.28389e-016
    outer loop
      vertex -12.5 -25 -35
      vertex -12.5 25 35
      vertex -12.5 25 -35
    endloop
  endfacet
  facet normal 0 1 0
    outer loop
      vertex -12.5 25 35
      vertex 12.5 25 35
      vertex -12.5 25 -35
    endloop
  endfacet
  facet normal 0 1 0
    outer loop
      vertex -12.5 25 -35
      vertex 12.5 25 35
      vertex 12.5 25 -35
    endloop
  endfacet
  facet normal 1 -3.83018e-016 2.51437e-016
    outer loop
      vertex 12.5 -23.213 23.5926
      vertex 12.5 -25 35
      vertex 12.5 -25 13.8055
    endloop
  endfacet
  facet normal 1 -0 3.28504e-016
    outer loop
      vertex 12.5 25 35
      vertex 12.5 -25 35
      vertex 12.5 -9.21296 29.5926
    endloop
  endfacet
  facet normal 1 0 2.96059e-016
    outer loop
      vertex 12.5 -0.21296 29.5926
      vertex 12.5 -0.21296 23.5926
      vertex 12.5 7.78704 29.5926
    endloop
  endfacet
  facet normal 1 -2.22045e-016 2.22045e-016
    outer loop
      vertex 12.5 22.787 22.5926
      vertex 12.5 16.787 16.5926
      vertex 12.5 22.787 14.5926
    endloop
  endfacet
  facet normal 1 0 0
    outer loop
      vertex 12.5 -17.213 -3.40741
      vertex 12.5 -9.21296 -0.40741
      vertex 12.5 -25 -0.40741
    endloop
  endfacet
  facet normal 1 0 5.92119e-016
    outer loop
      vertex 12.5 -7.21296 -2.40741
      vertex 12.5 8.78704 0.59259
      vertex 12.5 0.78704 0.59259
    endloop
  endfacet
  facet normal 1 -0 1.81501e-016
    outer loop
      vertex 12.5 -17.213 23.5926
      vertex 12.5 -23.213 23.5926
      vertex 12.5 -25 13.8055
    endloop
  endfacet
  facet normal 1 -1.32966e-017 3.09356e-016
    outer loop
      vertex 12.5 -17.213 29.5926
      vertex 12.5 -25 35
      vertex 12.5 -23.213 23.5926
    endloop
  endfacet
  facet normal 1 -0 3.28504e-016
    outer loop
      vertex 12.5 -9.21296 29.5926
      vertex 12.5 -25 35
      vertex 12.5 -17.213 29.5926
    endloop
  endfacet
  facet normal 1 2.13059e-016 1.19811e-017
    outer loop
      vertex 12.5 -9.21296 29.5926
      vertex 12.5 -17.213 23.5926
      vertex 12.5 -25 13.8055
    endloop
  endfacet
  facet normal 1 -7.40149e-017 2.96059e-016
    outer loop
      vertex 12.5 -0.21296 13.5926
      vertex 12.5 -0.21296 7.59259
      vertex 12.5 7.78704 15.5926
    endloop
  endfacet
  facet normal 1 -0 2.96059e-016
    outer loop
      vertex 12.5 -0.21296 29.5926
      vertex 12.5 -9.21296 29.5926
      vertex 12.5 -6.21296 23.5926
    endloop
  endfacet
  facet normal 1 0 3.28504e-016
    outer loop
      vertex 12.5 25 35
      vertex 12.5 -9.21296 29.5926
      vertex 12.5 -0.21296 29.5926
    endloop
  endfacet
  facet normal 1 0 2.96059e-016
    outer loop
      vertex 12.5 -17.213 29.5926
      vertex 12.5 -17.213 23.5926
      vertex 12.5 -9.21296 29.5926
    endloop
  endfacet
  facet normal 1 -1.26883e-016 2.53765e-016
    outer loop
      vertex 12.5 7.78704 29.5926
      vertex 12.5 7.78704 15.5926
      vertex 12.5 9.78704 23.5926
    endloop
  endfacet
  facet normal 1 0 3.28504e-016
    outer loop
      vertex 12.5 7.78704 29.5926
      vertex 12.5 15.787 29.5926
      vertex 12.5 25 35
    endloop
  endfacet
  facet normal 1 0 3.28504e-016
    outer loop
      vertex 12.5 25 35
      vertex 12.5 -0.21296 29.5926
      vertex 12.5 7.78704 29.5926
    endloop
  endfacet
  facet normal 1 -7.40149e-017 2.96059e-016
    outer loop
      vertex 12.5 16.787 -10.4074
      vertex 12.5 8.78704 -18.4074
      vertex 12.5 16.787 -16.4074
    endloop
  endfacet
  facet normal 1 1.90429e-017 2.96059e-016
    outer loop
      vertex 12.5 15.787 29.5926
      vertex 12.5 15.787 23.5926
      vertex 12.5 25 35
    endloop
  endfacet
  facet normal 1 1.26883e-016 1.26883e-016
    outer loop
      vertex 12.5 -6.21296 15.5926
      vertex 12.5 7.78704 29.5926
      vertex 12.5 -0.21296 23.5926
    endloop
  endfacet
  facet normal 1 1.04492e-016 1.04492e-016
    outer loop
      vertex 12.5 -16.213 -10.4074
      vertex 12.5 -7.21296 -2.40741
      vertex 12.5 -9.21296 -0.40741
    endloop
  endfacet
  facet normal 1 -1.97373e-016 1.97373e-016
    outer loop
      vertex 12.5 22.787 6.59259
      vertex 12.5 16.787 0.59259
      vertex 12.5 22.787 -2.40741
    endloop
  endfacet
  facet normal 1 1.11022e-016 1.11022e-016
    outer loop
      vertex 12.5 8.78704 14.5926
      vertex 12.5 15.787 23.5926
      vertex 12.5 7.78704 15.5926
    endloop
  endfacet
  facet normal 1 0 0
    outer loop
      vertex 12.5 0.78704 0.59259
      vertex 12.5 8.78704 0.59259
      vertex 12.5 6.78704 6.59259
    endloop
  endfacet
  facet normal 1 -3.80648e-016 5.07531e-016
    outer loop
      vertex 12.5 22.787 14.5926
      vertex 12.5 8.78704 0.59259
      vertex 12.5 16.787 6.59259
    endloop
  endfacet
  facet normal 1 -0 2.86338e-016
    outer loop
      vertex 12.5 22.787 22.5926
      vertex 12.5 25 35
      vertex 12.5 16.787 22.5926
    endloop
  endfacet
  facet normal 1 -3.9443e-031 2.22045e-016
    outer loop
      vertex 12.5 22.787 -2.40741
      vertex 12.5 8.78704 -18.4074
      vertex 12.5 16.787 -10.4074
    endloop
  endfacet
  facet normal 1 3.24905e-016 2.28389e-016
    outer loop
      vertex 12.5 25 -35
      vertex 12.5 25 35
      vertex 12.5 22.787 22.5926
    endloop
  endfacet
  facet normal 1 3.8211e-015 -2.77459e-015
    outer loop
      vertex 12.5 8.78704 14.5926
      vertex 12.5 25 35
      vertex 12.5 15.787 23.5926
    endloop
  endfacet
  facet normal 1 0 2.22045e-016
    outer loop
      vertex 12.5 0.78704 6.59259
      vertex 12.5 6.78704 6.59259
      vertex 12.5 8.78704 14.5926
    endloop
  endfacet
  facet normal 1 2.22045e-016 0
    outer loop
      vertex 12.5 -7.21296 -2.40741
      vertex 12.5 0.78704 0.59259
      vertex 12.5 0.78704 6.59259
    endloop
  endfacet
  facet normal 1 1.59798e-016 2.22045e-016
    outer loop
      vertex 12.5 25 -35
      vertex 12.5 22.787 22.5926
      vertex 12.5 22.787 14.5926
    endloop
  endfacet
  facet normal 1 0 5.92119e-016
    outer loop
      vertex 12.5 -7.21296 -2.40741
      vertex 12.5 22.787 -2.40741
      vertex 12.5 16.787 0.59259
    endloop
  endfacet
  facet normal 1 0 2.22045e-016
    outer loop
      vertex 12.5 -9.21296 -0.40741
      vertex 12.5 -6.21296 7.59259
      vertex 12.5 -6.21296 15.5926
    endloop
  endfacet
  facet normal 1 0 2.96059e-016
    outer loop
      vertex 12.5 7.78704 29.5926
      vertex 12.5 9.78704 23.5926
      vertex 12.5 15.787 29.5926
    endloop
  endfacet
  facet normal 1 -0 2.22045e-016
    outer loop
      vertex 12.5 15.787 23.5926
      vertex 12.5 9.78704 23.5926
      vertex 12.5 7.78704 15.5926
    endloop
  endfacet
  facet normal 1 1.11022e-016 1.11022e-016
    outer loop
      vertex 12.5 0.78704 6.59259
      vertex 12.5 8.78704 14.5926
      vertex 12.5 7.78704 15.5926
    endloop
  endfacet
  facet normal 1 1.04492e-016 1.04492e-016
    outer loop
      vertex 12.5 -7.21296 -2.40741
      vertex 12.5 -0.21296 7.59259
      vertex 12.5 -9.21296 -0.40741
    endloop
  endfacet
  facet normal 1 1.11022e-016 1.11022e-016
    outer loop
      vertex 12.5 0.78704 6.59259
      vertex 12.5 7.78704 15.5926
      vertex 12.5 -0.21296 7.59259
    endloop
  endfacet
  facet normal 1 0 2.22045e-016
    outer loop
      vertex 12.5 22.787 -2.40741
      vertex 12.5 16.787 -10.4074
      vertex 12.5 22.787 -10.4074
    endloop
  endfacet
  facet normal 1 0 8.88178e-016
    outer loop
      vertex 12.5 8.78704 14.5926
      vertex 12.5 22.787 14.5926
      vertex 12.5 16.787 16.5926
    endloop
  endfacet
  facet normal 1 0 2.22045e-016
    outer loop
      vertex 12.5 22.787 14.5926
      vertex 12.5 16.787 6.59259
      vertex 12.5 22.787 6.59259
    endloop
  endfacet
  facet normal 1 -0 0
    outer loop
      vertex 12.5 16.787 0.59259
      vertex 12.5 16.787 6.59259
      vertex 12.5 8.78704 0.59259
    endloop
  endfacet
  facet normal 1 -3.58678e-017 2.46079e-016
    outer loop
      vertex 12.5 -7.21296 -32.4074
      vertex 12.5 -10.213 -18.4074
      vertex 12.5 -25 -35
    endloop
  endfacet
  facet normal 1 1.18424e-016 1.18424e-016
    outer loop
      vertex 12.5 22.787 -2.40741
      vertex 12.5 -7.21296 -32.4074
      vertex 12.5 8.78704 -18.4074
    endloop
  endfacet
  facet normal 1 1.59798e-016 2.22045e-016
    outer loop
      vertex 12.5 25 -35
      vertex 12.5 22.787 14.5926
      vertex 12.5 22.787 6.59259
    endloop
  endfacet
  facet normal 1 -7.40149e-017 2.96059e-016
    outer loop
      vertex 12.5 -24.213 -18.4074
      vertex 12.5 -16.213 -16.4074
      vertex 12.5 -16.213 -10.4074
    endloop
  endfacet
  facet normal 1 1.04492e-016 1.04492e-016
    outer loop
      vertex 12.5 -7.21296 -2.40741
      vertex 12.5 0.78704 6.59259
      vertex 12.5 -0.21296 7.59259
    endloop
  endfacet
  facet normal 1 7.40149e-017 2.22045e-016
    outer loop
      vertex 12.5 22.787 -10.4074
      vertex 12.5 16.787 -16.4074
      vertex 12.5 22.787 -18.4074
    endloop
  endfacet
  facet normal 1 -8.35929e-016 2.53765e-016
    outer loop
      vertex 12.5 -24.213 -32.4074
      vertex 12.5 -24.213 -18.4074
      vertex 12.5 -25 -35
    endloop
  endfacet
  facet normal 1 -1.4803e-016 2.22045e-016
    outer loop
      vertex 12.5 -7.21296 -32.4074
      vertex 12.5 -10.213 -10.4074
      vertex 12.5 -10.213 -18.4074
    endloop
  endfacet
  facet normal 1 -3.03905e-016 1.97373e-016
    outer loop
      vertex 12.5 25 -35
      vertex 12.5 22.787 6.59259
      vertex 12.5 22.787 -2.40741
    endloop
  endfacet
  facet normal 1 -0 0
    outer loop
      vertex 12.5 25 -35
      vertex 12.5 -7.21296 -32.4074
      vertex 12.5 -25 -35
    endloop
  endfacet
  facet normal 1 0 1.97373e-016
    outer loop
      vertex 12.5 -24.213 -18.4074
      vertex 12.5 -22.213 -9.40741
      vertex 12.5 -25 -0.40741
    endloop
  endfacet
  facet normal 1 1.11022e-016 1.11022e-016
    outer loop
      vertex 12.5 -24.213 -18.4074
      vertex 12.5 -16.213 -10.4074
      vertex 12.5 -17.213 -9.40741
    endloop
  endfacet
  facet normal 1 8.63396e-017 2.2411e-016
    outer loop
      vertex 12.5 -22.213 -9.40741
      vertex 12.5 -17.213 -3.40741
      vertex 12.5 -25 -0.40741
    endloop
  endfacet
  facet normal 1 1.04492e-016 1.04492e-016
    outer loop
      vertex 12.5 -16.213 -10.4074
      vertex 12.5 -9.21296 -0.40741
      vertex 12.5 -17.213 -9.40741
    endloop
  endfacet
  facet normal 1 0 0
    outer loop
      vertex 12.5 8.78704 -18.4074
      vertex 12.5 22.787 -18.4074
      vertex 12.5 16.787 -16.4074
    endloop
  endfacet
  facet normal 1 0 1.97373e-016
    outer loop
      vertex 12.5 -24.213 -18.4074
      vertex 12.5 -17.213 -9.40741
      vertex 12.5 -22.213 -9.40741
    endloop
  endfacet
  facet normal 1 3.49848e-017 2.1878e-016
    outer loop
      vertex 12.5 22.787 -18.4074
      vertex 12.5 8.78704 -32.4074
      vertex 12.5 25 -35
    endloop
  endfacet
  facet normal 1 7.40149e-017 2.22045e-016
    outer loop
      vertex 12.5 -16.213 -16.4074
      vertex 12.5 -10.213 -18.4074
      vertex 12.5 -10.213 -10.4074
    endloop
  endfacet
  facet normal 1 0 2.22045e-016
    outer loop
      vertex 12.5 -16.213 -10.4074
      vertex 12.5 -10.213 -10.4074
      vertex 12.5 -7.21296 -2.40741
    endloop
  endfacet
  facet normal 1 2.22045e-016 0
    outer loop
      vertex 12.5 8.78704 14.5926
      vertex 12.5 16.787 16.5926
      vertex 12.5 16.787 22.5926
    endloop
  endfacet
  facet normal 1 5.94595e-017 2.22045e-016
    outer loop
      vertex 12.5 25 -35
      vertex 12.5 22.787 -2.40741
      vertex 12.5 22.787 -10.4074
    endloop
  endfacet
  facet normal 1 0 0
    outer loop
      vertex 12.5 -24.213 -18.4074
      vertex 12.5 -10.213 -18.4074
      vertex 12.5 -16.213 -16.4074
    endloop
  endfacet
  facet normal 1 1.83654e-016 2.05403e-016
    outer loop
      vertex 12.5 -25 -35
      vertex 12.5 -24.213 -18.4074
      vertex 12.5 -25 -0.40741
    endloop
  endfacet
  facet normal 1 3.64382e-016 -1.10616e-016
    outer loop
      vertex 12.5 -10.213 -18.4074
      vertex 12.5 -24.213 -32.4074
      vertex 12.5 -25 -35
    endloop
  endfacet
  facet normal 1 0 5.92119e-016
    outer loop
      vertex 12.5 -7.21296 -2.40741
      vertex 12.5 16.787 0.59259
      vertex 12.5 8.78704 0.59259
    endloop
  endfacet
  facet normal 1 -3.94746e-017 2.36848e-016
    outer loop
      vertex 12.5 -7.21296 -32.4074
      vertex 12.5 -7.21296 -2.40741
      vertex 12.5 -10.213 -10.4074
    endloop
  endfacet
  facet normal 1 -0 2.53765e-016
    outer loop
      vertex 12.5 8.78704 -32.4074
      vertex 12.5 8.78704 -18.4074
      vertex 12.5 -7.21296 -32.4074
    endloop
  endfacet
  facet normal 1 -1.90184e-016 4.12228e-016
    outer loop
      vertex 12.5 8.78704 14.5926
      vertex 12.5 16.787 22.5926
      vertex 12.5 25 35
    endloop
  endfacet
  facet normal 1 5.94595e-017 2.22045e-016
    outer loop
      vertex 12.5 25 -35
      vertex 12.5 22.787 -10.4074
      vertex 12.5 22.787 -18.4074
    endloop
  endfacet
  facet normal 1 0 0
    outer loop
      vertex 12.5 25 -35
      vertex 12.5 8.78704 -32.4074
      vertex 12.5 -7.21296 -32.4074
    endloop
  endfacet
  facet normal 1 -0 2.22045e-016
    outer loop
      vertex 12.5 -0.21296 7.59259
      vertex 12.5 -6.21296 7.59259
      vertex 12.5 -9.21296 -0.40741
    endloop
  endfacet
  facet normal 1 0 2.22045e-016
    outer loop
      vertex 12.5 -6.21296 23.5926
      vertex 12.5 -6.21296 15.5926
      vertex 12.5 -0.21296 23.5926
    endloop
  endfacet
  facet normal 1 -1.4803e-016 2.22045e-016
    outer loop
      vertex 12.5 -9.21296 29.5926
      vertex 12.5 -6.21296 15.5926
      vertex 12.5 -6.21296 23.5926
    endloop
  endfacet
  facet normal 1 -7.89492e-017 2.36848e-016
    outer loop
      vertex 12.5 -9.21296 29.5926
      vertex 12.5 -9.21296 -0.40741
      vertex 12.5 -6.21296 15.5926
    endloop
  endfacet
  facet normal 1 7.40149e-017 2.22045e-016
    outer loop
      vertex 12.5 -0.21296 13.5926
      vertex 12.5 -6.21296 15.5926
      vertex 12.5 -6.21296 7.59259
    endloop
  endfacet
  facet normal 1 0 0
    outer loop
      vertex 12.5 7.78704 15.5926
      vertex 12.5 -6.21296 15.5926
      vertex 12.5 -0.21296 13.5926
    endloop
  endfacet
  facet normal 1 -1.11022e-016 2.96059e-016
    outer loop
      vertex 12.5 -17.213 -3.40741
      vertex 12.5 -17.213 -9.40741
      vertex 12.5 -9.21296 -0.40741
    endloop
  endfacet
  facet normal 1 3.80648e-016 1.26883e-016
    outer loop
      vertex 12.5 8.78704 0.59259
      vertex 12.5 8.78704 14.5926
      vertex 12.5 6.78704 6.59259
    endloop
  endfacet
  facet normal -0 1 0
    outer loop
      vertex 10.5 -23 -33
      vertex -10.5 -23 -33
      vertex 10.5 -23 35
    endloop
  endfacet
  facet normal 0 1 0
    outer loop
      vertex 10.5 -23 35
      vertex -10.5 -23 -33
      vertex -10.5 -23 35
    endloop
  endfacet
  facet normal -1 0 -2.35106e-016
    outer loop
      vertex 10.5 23 -33
      vertex 10.5 12.5 -33
      vertex 10.5 23 35
    endloop
  endfacet
  facet normal -1 -0 0
    outer loop
      vertex 10.5 -12.5 -35
      vertex 10.5 12.5 -33
      vertex 10.5 12.5 -35
    endloop
  endfacet
  facet normal -1 1.90437e-017 -2.38047e-016
    outer loop
      vertex 10.5 23 35
      vertex 10.5 12.5 -33
      vertex 10.5 -12.5 -35
    endloop
  endfacet
  facet normal -1 -4.50344e-016 0
    outer loop
      vertex 10.5 23 35
      vertex 10.5 -12.5 -35
      vertex 10.5 -12.5 -33
    endloop
  endfacet
  facet normal -1 0 -2.35106e-016
    outer loop
      vertex 10.5 23 35
      vertex 10.5 -12.5 -33
      vertex 10.5 -23 -33
    endloop
  endfacet
  facet normal -1 0 -2.35106e-016
    outer loop
      vertex 10.5 23 35
      vertex 10.5 -23 -33
      vertex 10.5 -23 35
    endloop
  endfacet
  facet normal 0 -1 0
    outer loop
      vertex -10.5 23 -33
      vertex 10.5 23 -33
      vertex 10.5 23 35
    endloop
  endfacet
  facet normal -0 -1 0
    outer loop
      vertex -10.5 23 35
      vertex -10.5 23 -33
      vertex 10.5 23 35
    endloop
  endfacet
  facet normal 1 -0 0
    outer loop
      vertex -10.5 12.5 -35
      vertex -10.5 -12.5 -33
      vertex -10.5 -12.5 -35
    endloop
  endfacet
  facet normal 1 0 0
    outer loop
      vertex -10.5 12.5 -33
      vertex -10.5 -12.5 -33
      vertex -10.5 12.5 -35
    endloop
  endfacet
  facet normal 1 0 2.35106e-016
    outer loop
      vertex -10.5 -23 -33
      vertex -10.5 -12.5 -33
      vertex -10.5 23 35
    endloop
  endfacet
  facet normal 1 0 2.35106e-016
    outer loop
      vertex -10.5 23 35
      vertex -10.5 -12.5 -33
      vertex -10.5 12.5 -33
    endloop
  endfacet
  facet normal 1 0 2.35106e-016
    outer loop
      vertex -10.5 23 35
      vertex -10.5 12.5 -33
      vertex -10.5 23 -33
    endloop
  endfacet
  facet normal 1 0 2.35106e-016
    outer loop
      vertex -10.5 -23 35
      vertex -10.5 -23 -33
      vertex -10.5 23 35
    endloop
  endfacet
  facet normal 0 -0.707107 0.707107
    outer loop
      vertex 14.25 -9.21296 29.5926
      vertex 12.5 -9.21296 29.5926
      vertex 12.5 -25 13.8055
    endloop
  endfacet
  facet normal 0 -0.707107 0.707107
    outer loop
      vertex 14.25 -25 13.8055
      vertex 14.25 -9.21296 29.5926
      vertex 12.5 -25 13.8055
    endloop
  endfacet
  facet normal 1 -1.18077e-017 2.36848e-016
    outer loop
      vertex 14.25 -9.21296 -0.40741
      vertex 14.25 -9.21296 29.5926
      vertex 14.25 -25 13.8055
    endloop
  endfacet
  facet normal 1 0 2.49963e-016
    outer loop
      vertex 14.25 -25 -0.40741
      vertex 14.25 -9.21296 -0.40741
      vertex 14.25 -25 13.8055
    endloop
  endfacet
  facet normal 2.22045e-016 0 -1
    outer loop
      vertex 12.5 -25 -0.40741
      vertex 12.5 -9.21296 -0.40741
      vertex 14.25 -25 -0.40741
    endloop
  endfacet
  facet normal 2.22045e-016 0 -1
    outer loop
      vertex 14.25 -25 -0.40741
      vertex 12.5 -9.21296 -0.40741
      vertex 14.25 -9.21296 -0.40741
    endloop
  endfacet
  facet normal 2.84217e-016 -4.54747e-017 -1
    outer loop
      vertex 10.5 12.5 -35
      vertex -12.5 25 -35
      vertex 12.5 25 -35
    endloop
  endfacet
  facet normal 0 -0 -1
    outer loop
      vertex -12.5 -25 -35
      vertex -12.5 25 -35
      vertex -10.5 -12.5 -35
    endloop
  endfacet
  facet normal 2.84217e-016 -4.54747e-017 -1
    outer loop
      vertex -12.5 -25 -35
      vertex -10.5 -12.5 -35
      vertex 12.5 -25 -35
    endloop
  endfacet
  facet normal 3.38354e-016 5.41366e-017 -1
    outer loop
      vertex -10.5 12.5 -35
      vertex -12.5 25 -35
      vertex 10.5 12.5 -35
    endloop
  endfacet
  facet normal 0 0 -1
    outer loop
      vertex 12.5 -25 -35
      vertex 10.5 -12.5 -35
      vertex 12.5 25 -35
    endloop
  endfacet
  facet normal 0 -0 -1
    outer loop
      vertex 10.5 -12.5 -35
      vertex 10.5 12.5 -35
      vertex 12.5 25 -35
    endloop
  endfacet
  facet normal 0 0 -1
    outer loop
      vertex -10.5 -12.5 -35
      vertex -12.5 25 -35
      vertex -10.5 12.5 -35
    endloop
  endfacet
  facet normal 3.38354e-016 5.41366e-017 -1
    outer loop
      vertex 10.5 -12.5 -35
      vertex 12.5 -25 -35
      vertex -10.5 -12.5 -35
    endloop
  endfacet
  facet normal 0 1 0
    outer loop
      vertex 12.5 -9.21296 29.5926
      vertex 14.25 -9.21296 29.5926
      vertex 12.5 -9.21296 -0.40741
    endloop
  endfacet
  facet normal 0 1 0
    outer loop
      vertex 12.5 -9.21296 -0.40741
      vertex 14.25 -9.21296 29.5926
      vertex 14.25 -9.21296 -0.40741
    endloop
  endfacet
  facet normal -0 -0 -1
    outer loop
      vertex 12.5 -23.213 23.5926
      vertex 12.5 -17.213 23.5926
      vertex 14.25 -23.213 23.5926
    endloop
  endfacet
  facet normal 0 0 -1
    outer loop
      vertex 14.25 -23.213 23.5926
      vertex 12.5 -17.213 23.5926
      vertex 14.25 -17.213 23.5926
    endloop
  endfacet
  facet normal 0 -0.707107 0.707107
    outer loop
      vertex 14.25 -17.213 29.5926
      vertex 12.5 -17.213 29.5926
      vertex 12.5 -23.213 23.5926
    endloop
  endfacet
  facet normal 0 -0.707107 0.707107
    outer loop
      vertex 14.25 -23.213 23.5926
      vertex 14.25 -17.213 29.5926
      vertex 12.5 -23.213 23.5926
    endloop
  endfacet
  facet normal 0 1 0
    outer loop
      vertex 12.5 -17.213 29.5926
      vertex 14.25 -17.213 29.5926
      vertex 12.5 -17.213 23.5926
    endloop
  endfacet
  facet normal 0 1 0
    outer loop
      vertex 12.5 -17.213 23.5926
      vertex 14.25 -17.213 29.5926
      vertex 14.25 -17.213 23.5926
    endloop
  endfacet
  facet normal -0 -0 -1
    outer loop
      vertex 12.5 -6.21296 23.5926
      vertex 12.5 -0.21296 23.5926
      vertex 14.25 -6.21296 23.5926
    endloop
  endfacet
  facet normal 0 0 -1
    outer loop
      vertex 14.25 -6.21296 23.5926
      vertex 12.5 -0.21296 23.5926
      vertex 14.25 -0.21296 23.5926
    endloop
  endfacet
  facet normal 0 -0.707107 0.707107
    outer loop
      vertex 14.25 -0.21296 29.5926
      vertex 12.5 -0.21296 29.5926
      vertex 12.5 -6.21296 23.5926
    endloop
  endfacet
  facet normal 0 -0.707107 0.707107
    outer loop
      vertex 14.25 -6.21296 23.5926
      vertex 14.25 -0.21296 29.5926
      vertex 12.5 -6.21296 23.5926
    endloop
  endfacet
  facet normal 0 1 0
    outer loop
      vertex 12.5 -0.21296 29.5926
      vertex 14.25 -0.21296 29.5926
      vertex 12.5 -0.21296 23.5926
    endloop
  endfacet
  facet normal 0 1 0
    outer loop
      vertex 12.5 -0.21296 23.5926
      vertex 14.25 -0.21296 29.5926
      vertex 14.25 -0.21296 23.5926
    endloop
  endfacet
  facet normal -0 -0 -1
    outer loop
      vertex 12.5 -6.21296 15.5926
      vertex 12.5 7.78704 15.5926
      vertex 14.25 -6.21296 15.5926
    endloop
  endfacet
  facet normal 0 0 -1
    outer loop
      vertex 14.25 -6.21296 15.5926
      vertex 12.5 7.78704 15.5926
      vertex 14.25 7.78704 15.5926
    endloop
  endfacet
  facet normal 0 -0.707107 0.707107
    outer loop
      vertex 14.25 7.78704 29.5926
      vertex 12.5 7.78704 29.5926
      vertex 12.5 -6.21296 15.5926
    endloop
  endfacet
  facet normal 0 -0.707107 0.707107
    outer loop
      vertex 14.25 -6.21296 15.5926
      vertex 14.25 7.78704 29.5926
      vertex 12.5 -6.21296 15.5926
    endloop
  endfacet
  facet normal 0 1 0
    outer loop
      vertex 12.5 7.78704 29.5926
      vertex 14.25 7.78704 29.5926
      vertex 12.5 7.78704 15.5926
    endloop
  endfacet
  facet normal 0 1 0
    outer loop
      vertex 12.5 7.78704 15.5926
      vertex 14.25 7.78704 29.5926
      vertex 14.25 7.78704 15.5926
    endloop
  endfacet
  facet normal -0 -0 -1
    outer loop
      vertex 12.5 9.78704 23.5926
      vertex 12.5 15.787 23.5926
      vertex 14.25 9.78704 23.5926
    endloop
  endfacet
  facet normal 0 0 -1
    outer loop
      vertex 14.25 9.78704 23.5926
      vertex 12.5 15.787 23.5926
      vertex 14.25 15.787 23.5926
    endloop
  endfacet
  facet normal 0 -0.707107 0.707107
    outer loop
      vertex 14.25 15.787 29.5926
      vertex 12.5 15.787 29.5926
      vertex 12.5 9.78704 23.5926
    endloop
  endfacet
  facet normal 0 -0.707107 0.707107
    outer loop
      vertex 14.25 9.78704 23.5926
      vertex 14.25 15.787 29.5926
      vertex 12.5 9.78704 23.5926
    endloop
  endfacet
  facet normal 0 1 0
    outer loop
      vertex 12.5 15.787 29.5926
      vertex 14.25 15.787 29.5926
      vertex 12.5 15.787 23.5926
    endloop
  endfacet
  facet normal 0 1 0
    outer loop
      vertex 12.5 15.787 23.5926
      vertex 14.25 15.787 29.5926
      vertex 14.25 15.787 23.5926
    endloop
  endfacet
  facet normal 0 -0 1
    outer loop
      vertex 12.5 22.787 22.5926
      vertex 12.5 16.787 22.5926
      vertex 14.25 16.787 22.5926
    endloop
  endfacet
  facet normal 0 0 1
    outer loop
      vertex 14.25 22.787 22.5926
      vertex 12.5 22.787 22.5926
      vertex 14.25 16.787 22.5926
    endloop
  endfacet
  facet normal 0 -1 0
    outer loop
      vertex 14.25 16.787 22.5926
      vertex 12.5 16.787 22.5926
      vertex 12.5 16.787 16.5926
    endloop
  endfacet
  facet normal 0 -1 0
    outer loop
      vertex 14.25 16.787 16.5926
      vertex 14.25 16.787 22.5926
      vertex 12.5 16.787 16.5926
    endloop
  endfacet
  facet normal 0 0.707107 -0.707107
    outer loop
      vertex 12.5 22.787 22.5926
      vertex 14.25 22.787 22.5926
      vertex 12.5 16.787 16.5926
    endloop
  endfacet
  facet normal 0 0.707107 -0.707107
    outer loop
      vertex 12.5 16.787 16.5926
      vertex 14.25 22.787 22.5926
      vertex 14.25 16.787 16.5926
    endloop
  endfacet
  facet normal 0 -0 1
    outer loop
      vertex 12.5 22.787 14.5926
      vertex 12.5 8.78704 14.5926
      vertex 14.25 8.78704 14.5926
    endloop
  endfacet
  facet normal 0 0 1
    outer loop
      vertex 14.25 22.787 14.5926
      vertex 12.5 22.787 14.5926
      vertex 14.25 8.78704 14.5926
    endloop
  endfacet
  facet normal 0 -1 0
    outer loop
      vertex 14.25 8.78704 14.5926
      vertex 12.5 8.78704 14.5926
      vertex 12.5 8.78704 0.59259
    endloop
  endfacet
  facet normal 0 -1 0
    outer loop
      vertex 14.25 8.78704 0.59259
      vertex 14.25 8.78704 14.5926
      vertex 12.5 8.78704 0.59259
    endloop
  endfacet
  facet normal 0 0.707107 -0.707107
    outer loop
      vertex 12.5 22.787 14.5926
      vertex 14.25 22.787 14.5926
      vertex 12.5 8.78704 0.59259
    endloop
  endfacet
  facet normal 1.34579e-016 0.707107 -0.707107
    outer loop
      vertex 12.5 8.78704 0.59259
      vertex 14.25 22.787 14.5926
      vertex 14.25 8.78704 0.59259
    endloop
  endfacet
  facet normal 5.07531e-016 0 -1
    outer loop
      vertex 12.5 -6.21296 7.59259
      vertex 12.5 -0.21296 7.59259
      vertex 14.25 -6.21296 7.59259
    endloop
  endfacet
  facet normal 5.07531e-016 0 -1
    outer loop
      vertex 14.25 -6.21296 7.59259
      vertex 12.5 -0.21296 7.59259
      vertex 14.25 -0.21296 7.59259
    endloop
  endfacet
  facet normal 0 -0.707107 0.707107
    outer loop
      vertex 14.25 -0.21296 13.5926
      vertex 12.5 -0.21296 13.5926
      vertex 12.5 -6.21296 7.59259
    endloop
  endfacet
  facet normal -3.58878e-016 -0.707107 0.707107
    outer loop
      vertex 14.25 -6.21296 7.59259
      vertex 14.25 -0.21296 13.5926
      vertex 12.5 -6.21296 7.59259
    endloop
  endfacet
  facet normal 0 1 0
    outer loop
      vertex 12.5 -0.21296 13.5926
      vertex 14.25 -0.21296 13.5926
      vertex 12.5 -0.21296 7.59259
    endloop
  endfacet
  facet normal 0 1 0
    outer loop
      vertex 12.5 -0.21296 7.59259
      vertex 14.25 -0.21296 13.5926
      vertex 14.25 -0.21296 7.59259
    endloop
  endfacet
  facet normal -5.07531e-016 0 1
    outer loop
      vertex 12.5 6.78704 6.59259
      vertex 12.5 0.78704 6.59259
      vertex 14.25 0.78704 6.59259
    endloop
  endfacet
  facet normal -5.07531e-016 0 1
    outer loop
      vertex 14.25 6.78704 6.59259
      vertex 12.5 6.78704 6.59259
      vertex 14.25 0.78704 6.59259
    endloop
  endfacet
  facet normal 0 -1 0
    outer loop
      vertex 14.25 0.78704 6.59259
      vertex 12.5 0.78704 6.59259
      vertex 12.5 0.78704 0.59259
    endloop
  endfacet
  facet normal 0 -1 0
    outer loop
      vertex 14.25 0.78704 0.59259
      vertex 14.25 0.78704 6.59259
      vertex 12.5 0.78704 0.59259
    endloop
  endfacet
  facet normal 3.58878e-016 0.707107 -0.707107
    outer loop
      vertex 12.5 6.78704 6.59259
      vertex 14.25 6.78704 6.59259
      vertex 12.5 0.78704 0.59259
    endloop
  endfacet
  facet normal 1.34579e-016 0.707107 -0.707107
    outer loop
      vertex 12.5 0.78704 0.59259
      vertex 14.25 6.78704 6.59259
      vertex 14.25 0.78704 0.59259
    endloop
  endfacet
  facet normal -5.07531e-016 0 1
    outer loop
      vertex 12.5 22.787 6.59259
      vertex 12.5 16.787 6.59259
      vertex 14.25 16.787 6.59259
    endloop
  endfacet
  facet normal -5.07531e-016 0 1
    outer loop
      vertex 14.25 22.787 6.59259
      vertex 12.5 22.787 6.59259
      vertex 14.25 16.787 6.59259
    endloop
  endfacet
  facet normal 0 -1 0
    outer loop
      vertex 14.25 16.787 6.59259
      vertex 12.5 16.787 6.59259
      vertex 12.5 16.787 0.59259
    endloop
  endfacet
  facet normal 0 -1 0
    outer loop
      vertex 14.25 16.787 0.59259
      vertex 14.25 16.787 6.59259
      vertex 12.5 16.787 0.59259
    endloop
  endfacet
  facet normal 3.58878e-016 0.707107 -0.707107
    outer loop
      vertex 12.5 22.787 6.59259
      vertex 14.25 22.787 6.59259
      vertex 12.5 16.787 0.59259
    endloop
  endfacet
  facet normal 1.34579e-016 0.707107 -0.707107
    outer loop
      vertex 12.5 16.787 0.59259
      vertex 14.25 22.787 6.59259
      vertex 14.25 16.787 0.59259
    endloop
  endfacet
  facet normal -2.53765e-016 0 1
    outer loop
      vertex 12.5 22.787 -2.40741
      vertex 12.5 -7.21296 -2.40741
      vertex 14.25 -7.21296 -2.40741
    endloop
  endfacet
  facet normal -2.53765e-016 0 1
    outer loop
      vertex 14.25 22.787 -2.40741
      vertex 12.5 22.787 -2.40741
      vertex 14.25 -7.21296 -2.40741
    endloop
  endfacet
  facet normal 0 -1 0
    outer loop
      vertex 14.25 -7.21296 -2.40741
      vertex 12.5 -7.21296 -2.40741
      vertex 12.5 -7.21296 -32.4074
    endloop
  endfacet
  facet normal 0 -1 0
    outer loop
      vertex 14.25 -7.21296 -32.4074
      vertex 14.25 -7.21296 -2.40741
      vertex 12.5 -7.21296 -32.4074
    endloop
  endfacet
  facet normal 1.79439e-016 0.707107 -0.707107
    outer loop
      vertex 12.5 22.787 -2.40741
      vertex 14.25 22.787 -2.40741
      vertex 12.5 -7.21296 -32.4074
    endloop
  endfacet
  facet normal 0 0.707107 -0.707107
    outer loop
      vertex 12.5 -7.21296 -32.4074
      vertex 14.25 22.787 -2.40741
      vertex 14.25 -7.21296 -32.4074
    endloop
  endfacet
  facet normal -0 -0 -1
    outer loop
      vertex 12.5 -22.213 -9.40741
      vertex 12.5 -17.213 -9.40741
      vertex 14.25 -22.213 -9.40741
    endloop
  endfacet
  facet normal 0 0 -1
    outer loop
      vertex 14.25 -22.213 -9.40741
      vertex 12.5 -17.213 -9.40741
      vertex 14.25 -17.213 -9.40741
    endloop
  endfacet
  facet normal -1.62457e-016 -0.768221 0.640184
    outer loop
      vertex 14.25 -17.213 -3.40741
      vertex 12.5 -17.213 -3.40741
      vertex 12.5 -22.213 -9.40741
    endloop
  endfacet
  facet normal 0 -0.768221 0.640184
    outer loop
      vertex 14.25 -22.213 -9.40741
      vertex 14.25 -17.213 -3.40741
      vertex 12.5 -22.213 -9.40741
    endloop
  endfacet
  facet normal 0 1 0
    outer loop
      vertex 12.5 -17.213 -3.40741
      vertex 14.25 -17.213 -3.40741
      vertex 12.5 -17.213 -9.40741
    endloop
  endfacet
  facet normal 0 1 0
    outer loop
      vertex 12.5 -17.213 -9.40741
      vertex 14.25 -17.213 -3.40741
      vertex 14.25 -17.213 -9.40741
    endloop
  endfacet
  facet normal 0 -0 1
    outer loop
      vertex 12.5 -10.213 -10.4074
      vertex 12.5 -16.213 -10.4074
      vertex 14.25 -16.213 -10.4074
    endloop
  endfacet
  facet normal 0 0 1
    outer loop
      vertex 14.25 -10.213 -10.4074
      vertex 12.5 -10.213 -10.4074
      vertex 14.25 -16.213 -10.4074
    endloop
  endfacet
  facet normal 0 -1 0
    outer loop
      vertex 14.25 -16.213 -10.4074
      vertex 12.5 -16.213 -10.4074
      vertex 12.5 -16.213 -16.4074
    endloop
  endfacet
  facet normal 0 -1 0
    outer loop
      vertex 14.25 -16.213 -16.4074
      vertex 14.25 -16.213 -10.4074
      vertex 12.5 -16.213 -16.4074
    endloop
  endfacet
  facet normal 0 0.707107 -0.707107
    outer loop
      vertex 12.5 -10.213 -10.4074
      vertex 14.25 -10.213 -10.4074
      vertex 12.5 -16.213 -16.4074
    endloop
  endfacet
  facet normal 0 0.707107 -0.707107
    outer loop
      vertex 12.5 -16.213 -16.4074
      vertex 14.25 -10.213 -10.4074
      vertex 14.25 -16.213 -16.4074
    endloop
  endfacet
  facet normal 0 -0 1
    outer loop
      vertex 12.5 22.787 -10.4074
      vertex 12.5 16.787 -10.4074
      vertex 14.25 16.787 -10.4074
    endloop
  endfacet
  facet normal 0 0 1
    outer loop
      vertex 14.25 22.787 -10.4074
      vertex 12.5 22.787 -10.4074
      vertex 14.25 16.787 -10.4074
    endloop
  endfacet
  facet normal 0 -1 0
    outer loop
      vertex 14.25 16.787 -10.4074
      vertex 12.5 16.787 -10.4074
      vertex 12.5 16.787 -16.4074
    endloop
  endfacet
  facet normal 0 -1 0
    outer loop
      vertex 14.25 16.787 -16.4074
      vertex 14.25 16.787 -10.4074
      vertex 12.5 16.787 -16.4074
    endloop
  endfacet
  facet normal 0 0.707107 -0.707107
    outer loop
      vertex 12.5 22.787 -10.4074
      vertex 14.25 22.787 -10.4074
      vertex 12.5 16.787 -16.4074
    endloop
  endfacet
  facet normal 0 0.707107 -0.707107
    outer loop
      vertex 12.5 16.787 -16.4074
      vertex 14.25 22.787 -10.4074
      vertex 14.25 16.787 -16.4074
    endloop
  endfacet
  facet normal 0 -0 1
    outer loop
      vertex 12.5 -10.213 -18.4074
      vertex 12.5 -24.213 -18.4074
      vertex 14.25 -24.213 -18.4074
    endloop
  endfacet
  facet normal 0 0 1
    outer loop
      vertex 14.25 -10.213 -18.4074
      vertex 12.5 -10.213 -18.4074
      vertex 14.25 -24.213 -18.4074
    endloop
  endfacet
  facet normal 0 -1 0
    outer loop
      vertex 14.25 -24.213 -18.4074
      vertex 12.5 -24.213 -18.4074
      vertex 12.5 -24.213 -32.4074
    endloop
  endfacet
  facet normal 0 -1 0
    outer loop
      vertex 14.25 -24.213 -32.4074
      vertex 14.25 -24.213 -18.4074
      vertex 12.5 -24.213 -32.4074
    endloop
  endfacet
  facet normal 0 0.707107 -0.707107
    outer loop
      vertex 12.5 -10.213 -18.4074
      vertex 14.25 -10.213 -18.4074
      vertex 12.5 -24.213 -32.4074
    endloop
  endfacet
  facet normal 0 0.707107 -0.707107
    outer loop
      vertex 12.5 -24.213 -32.4074
      vertex 14.25 -10.213 -18.4074
      vertex 14.25 -24.213 -32.4074
    endloop
  endfacet
  facet normal 0 -0 1
    outer loop
      vertex 12.5 22.787 -18.4074
      vertex 12.5 8.78704 -18.4074
      vertex 14.25 8.78704 -18.4074
    endloop
  endfacet
  facet normal 0 0 1
    outer loop
      vertex 14.25 22.787 -18.4074
      vertex 12.5 22.787 -18.4074
      vertex 14.25 8.78704 -18.4074
    endloop
  endfacet
  facet normal 0 -1 0
    outer loop
      vertex 14.25 8.78704 -18.4074
      vertex 12.5 8.78704 -18.4074
      vertex 12.5 8.78704 -32.4074
    endloop
  endfacet
  facet normal 0 -1 0
    outer loop
      vertex 14.25 8.78704 -32.4074
      vertex 14.25 8.78704 -18.4074
      vertex 12.5 8.78704 -32.4074
    endloop
  endfacet
  facet normal 0 0.707107 -0.707107
    outer loop
      vertex 12.5 22.787 -18.4074
      vertex 14.25 22.787 -18.4074
      vertex 12.5 8.78704 -32.4074
    endloop
  endfacet
  facet normal 0 0.707107 -0.707107
    outer loop
      vertex 12.5 8.78704 -32.4074
      vertex 14.25 22.787 -18.4074
      vertex 14.25 8.78704 -32.4074
    endloop
  endfacet
  facet normal -3.38354e-016 0 1
    outer loop
      vertex 10.5 -23 -33
      vertex 10.5 -12.5 -33
      vertex -10.5 -12.5 -33
    endloop
  endfacet
  facet normal -3.38354e-016 0 1
    outer loop
      vertex -10.5 -23 -33
      vertex 10.5 -23 -33
      vertex -10.5 -12.5 -33
    endloop
  endfacet
  facet normal -0 1 0
    outer loop
      vertex 10.5 -12.5 -35
      vertex -10.5 -12.5 -35
      vertex 10.5 -12.5 -33
    endloop
  endfacet
  facet normal 0 1 0
    outer loop
      vertex 10.5 -12.5 -33
      vertex -10.5 -12.5 -35
      vertex -10.5 -12.5 -33
    endloop
  endfacet
  facet normal 0 -1 0
    outer loop
      vertex -10.5 12.5 -35
      vertex 10.5 12.5 -35
      vertex 10.5 12.5 -33
    endloop
  endfacet
  facet normal -0 -1 0
    outer loop
      vertex -10.5 12.5 -33
      vertex -10.5 12.5 -35
      vertex 10.5 12.5 -33
    endloop
  endfacet
  facet normal -3.38354e-016 0 1
    outer loop
      vertex 10.5 12.5 -33
      vertex 10.5 23 -33
      vertex -10.5 23 -33
    endloop
  endfacet
  facet normal -3.38354e-016 0 1
    outer loop
      vertex -10.5 12.5 -33
      vertex 10.5 12.5 -33
      vertex -10.5 23 -33
    endloop
  endfacet
  facet normal 1 -0 2.96059e-016
    outer loop
      vertex 14.25 -17.213 23.5926
      vertex 14.25 -17.213 29.5926
      vertex 14.25 -23.213 23.5926
    endloop
  endfacet
  facet normal 1 -0 2.96059e-016
    outer loop
      vertex 14.25 -0.21296 23.5926
      vertex 14.25 -0.21296 29.5926
      vertex 14.25 -6.21296 23.5926
    endloop
  endfacet
  facet normal 1 -0 2.53765e-016
    outer loop
      vertex 14.25 7.78704 15.5926
      vertex 14.25 7.78704 29.5926
      vertex 14.25 -6.21296 15.5926
    endloop
  endfacet
  facet normal 1 -0 2.96059e-016
    outer loop
      vertex 14.25 15.787 23.5926
      vertex 14.25 15.787 29.5926
      vertex 14.25 9.78704 23.5926
    endloop
  endfacet
  facet normal 1 0 0
    outer loop
      vertex 14.25 22.787 22.5926
      vertex 14.25 16.787 22.5926
      vertex 14.25 16.787 16.5926
    endloop
  endfacet
  facet normal 1 -0 1.26883e-016
    outer loop
      vertex 14.25 22.787 14.5926
      vertex 14.25 8.78704 14.5926
      vertex 14.25 8.78704 0.59259
    endloop
  endfacet
  facet normal 1 -0 2.96059e-016
    outer loop
      vertex 14.25 -0.21296 7.59259
      vertex 14.25 -0.21296 13.5926
      vertex 14.25 -6.21296 7.59259
    endloop
  endfacet
  facet normal 1 0 0
    outer loop
      vertex 14.25 6.78704 6.59259
      vertex 14.25 0.78704 6.59259
      vertex 14.25 0.78704 0.59259
    endloop
  endfacet
  facet normal 1 0 0
    outer loop
      vertex 14.25 22.787 6.59259
      vertex 14.25 16.787 6.59259
      vertex 14.25 16.787 0.59259
    endloop
  endfacet
  facet normal 1 -0 2.36848e-016
    outer loop
      vertex 14.25 22.787 -2.40741
      vertex 14.25 -7.21296 -2.40741
      vertex 14.25 -7.21296 -32.4074
    endloop
  endfacet
  facet normal 1 -0 2.96059e-016
    outer loop
      vertex 14.25 -17.213 -9.40741
      vertex 14.25 -17.213 -3.40741
      vertex 14.25 -22.213 -9.40741
    endloop
  endfacet
  facet normal 1 -0 2.96059e-016
    outer loop
      vertex 14.25 -10.213 -10.4074
      vertex 14.25 -16.213 -10.4074
      vertex 14.25 -16.213 -16.4074
    endloop
  endfacet
  facet normal 1 -0 2.96059e-016
    outer loop
      vertex 14.25 22.787 -10.4074
      vertex 14.25 16.787 -10.4074
      vertex 14.25 16.787 -16.4074
    endloop
  endfacet
  facet normal 1 -0 2.53765e-016
    outer loop
      vertex 14.25 -10.213 -18.4074
      vertex 14.25 -24.213 -18.4074
      vertex 14.25 -24.213 -32.4074
    endloop
  endfacet
  facet normal 1 -0 2.53765e-016
    outer loop
      vertex 14.25 22.787 -18.4074
      vertex 14.25 8.78704 -18.4074
      vertex 14.25 8.78704 -32.4074
    endloop
  endfacet
endsolid OpenSCAD_Model
