solid OpenSCAD_Model
  facet normal -0 0 -1
    outer loop
      vertex -3.945 0 0
      vertex -3.75192 1.21907 0
      vertex -3.75192 -1.21907 0
    endloop
  endfacet
  facet normal 0 -0 -1
    outer loop
      vertex -3.75192 -1.21907 0
      vertex -3.75192 1.21907 0
      vertex -3.19157 2.31881 0
    endloop
  endfacet
  facet normal 0 0 -1
    outer loop
      vertex -3.75192 -1.21907 0
      vertex -3.19157 2.31881 0
      vertex -2.31881 3.19157 0
    endloop
  endfacet
  facet normal 0 0 -1
    outer loop
      vertex -3.75192 -1.21907 0
      vertex -2.31881 3.19157 0
      vertex -1.21907 3.75192 0
    endloop
  endfacet
  facet normal 0 0 -1
    outer loop
      vertex -3.75192 -1.21907 0
      vertex -1.21907 3.75192 0
      vertex 0 3.945 0
    endloop
  endfacet
  facet normal 0 0 -1
    outer loop
      vertex -3.75192 -1.21907 0
      vertex 0 3.945 0
      vertex 1.21907 3.75192 0
    endloop
  endfacet
  facet normal 0 0 -1
    outer loop
      vertex -3.75192 -1.21907 0
      vertex 1.21907 3.75192 0
      vertex 2.31881 3.19157 0
    endloop
  endfacet
  facet normal 0 0 -1
    outer loop
      vertex -3.75192 -1.21907 0
      vertex 2.31881 3.19157 0
      vertex 3.19157 2.31881 0
    endloop
  endfacet
  facet normal 0 0 -1
    outer loop
      vertex -3.75192 -1.21907 0
      vertex 3.19157 2.31881 0
      vertex 3.75192 1.21907 0
    endloop
  endfacet
  facet normal 0 0 -1
    outer loop
      vertex -3.75192 -1.21907 0
      vertex 3.75192 1.21907 0
      vertex 3.945 0 0
    endloop
  endfacet
  facet normal -0 0 -1
    outer loop
      vertex -3.75192 -1.21907 0
      vertex 3.945 0 0
      vertex 3.75192 -1.21907 0
    endloop
  endfacet
  facet normal 0 0 -1
    outer loop
      vertex -3.75192 -1.21907 0
      vertex 3.75192 -1.21907 0
      vertex 3.19157 -2.31881 0
    endloop
  endfacet
  facet normal 0 0 -1
    outer loop
      vertex -3.75192 -1.21907 0
      vertex 3.19157 -2.31881 0
      vertex 2.31881 -3.19157 0
    endloop
  endfacet
  facet normal 0 0 -1
    outer loop
      vertex -3.75192 -1.21907 0
      vertex 2.31881 -3.19157 0
      vertex 1.21907 -3.75192 0
    endloop
  endfacet
  facet normal 0 0 -1
    outer loop
      vertex -3.75192 -1.21907 0
      vertex 1.21907 -3.75192 0
      vertex 0 -3.945 0
    endloop
  endfacet
  facet normal 0 0 -1
    outer loop
      vertex -3.75192 -1.21907 0
      vertex 0 -3.945 0
      vertex -1.21907 -3.75192 0
    endloop
  endfacet
  facet normal 0 0 -1
    outer loop
      vertex -3.75192 -1.21907 0
      vertex -1.21907 -3.75192 0
      vertex -2.31881 -3.19157 0
    endloop
  endfacet
  facet normal 0 0 -1
    outer loop
      vertex -3.75192 -1.21907 0
      vertex -2.31881 -3.19157 0
      vertex -3.19157 -2.31881 0
    endloop
  endfacet
  facet normal -0.987688 0.156434 0
    outer loop
      vertex -3.945 0 0
      vertex -3.945 0 75.32
      vertex -3.75192 1.21907 0
    endloop
  endfacet
  facet normal -0.987688 0.156434 0
    outer loop
      vertex -3.75192 1.21907 0
      vertex -3.945 0 75.32
      vertex -3.75192 1.21907 75.32
    endloop
  endfacet
  facet normal -0.987688 -0.156434 -0
    outer loop
      vertex -3.945 0 0
      vertex -3.75192 -1.21907 0
      vertex -3.945 0 75.32
    endloop
  endfacet
  facet normal -0.987688 -0.156434 0
    outer loop
      vertex -3.945 0 75.32
      vertex -3.75192 -1.21907 0
      vertex -3.75192 -1.21907 75.32
    endloop
  endfacet
  facet normal -0.891007 -0.45399 -0
    outer loop
      vertex -3.75192 -1.21907 0
      vertex -3.19157 -2.31881 0
      vertex -3.75192 -1.21907 75.32
    endloop
  endfacet
  facet normal -0.891007 -0.45399 0
    outer loop
      vertex -3.75192 -1.21907 75.32
      vertex -3.19157 -2.31881 0
      vertex -3.19157 -2.31881 75.32
    endloop
  endfacet
  facet normal -0.707107 -0.707107 0
    outer loop
      vertex -3.19157 -2.31881 75.32
      vertex -3.19157 -2.31881 0
      vertex -2.31881 -3.19157 0
    endloop
  endfacet
  facet normal -0.707107 -0.707107 0
    outer loop
      vertex -2.31881 -3.19157 75.32
      vertex -3.19157 -2.31881 75.32
      vertex -2.31881 -3.19157 0
    endloop
  endfacet
  facet normal -0.45399 -0.891007 0
    outer loop
      vertex -2.31881 -3.19157 75.32
      vertex -2.31881 -3.19157 0
      vertex -1.21907 -3.75192 0
    endloop
  endfacet
  facet normal -0.45399 -0.891007 0
    outer loop
      vertex -1.21907 -3.75192 75.32
      vertex -2.31881 -3.19157 75.32
      vertex -1.21907 -3.75192 0
    endloop
  endfacet
  facet normal -0.156434 -0.987688 0
    outer loop
      vertex -1.21907 -3.75192 75.32
      vertex -1.21907 -3.75192 0
      vertex 0 -3.945 0
    endloop
  endfacet
  facet normal -0.156434 -0.987688 0
    outer loop
      vertex 0 -3.945 75.32
      vertex -1.21907 -3.75192 75.32
      vertex 0 -3.945 0
    endloop
  endfacet
  facet normal 0.156434 -0.987688 0
    outer loop
      vertex 0 -3.945 75.32
      vertex 0 -3.945 0
      vertex 1.21907 -3.75192 0
    endloop
  endfacet
  facet normal 0.156434 -0.987688 0
    outer loop
      vertex 1.21907 -3.75192 75.32
      vertex 0 -3.945 75.32
      vertex 1.21907 -3.75192 0
    endloop
  endfacet
  facet normal 0.45399 -0.891007 0
    outer loop
      vertex 1.21907 -3.75192 75.32
      vertex 1.21907 -3.75192 0
      vertex 2.31881 -3.19157 0
    endloop
  endfacet
  facet normal 0.45399 -0.891007 0
    outer loop
      vertex 2.31881 -3.19157 75.32
      vertex 1.21907 -3.75192 75.32
      vertex 2.31881 -3.19157 0
    endloop
  endfacet
  facet normal 0.707107 -0.707107 0
    outer loop
      vertex 2.31881 -3.19157 75.32
      vertex 2.31881 -3.19157 0
      vertex 3.19157 -2.31881 0
    endloop
  endfacet
  facet normal 0.707107 -0.707107 0
    outer loop
      vertex 3.19157 -2.31881 75.32
      vertex 2.31881 -3.19157 75.32
      vertex 3.19157 -2.31881 0
    endloop
  endfacet
  facet normal 0.891007 -0.45399 0
    outer loop
      vertex 3.19157 -2.31881 75.32
      vertex 3.19157 -2.31881 0
      vertex 3.75192 -1.21907 0
    endloop
  endfacet
  facet normal 0.891007 -0.45399 0
    outer loop
      vertex 3.75192 -1.21907 75.32
      vertex 3.19157 -2.31881 75.32
      vertex 3.75192 -1.21907 0
    endloop
  endfacet
  facet normal 0.987688 -0.156434 0
    outer loop
      vertex 3.75192 -1.21907 75.32
      vertex 3.75192 -1.21907 0
      vertex 3.945 0 0
    endloop
  endfacet
  facet normal 0.987688 -0.156434 0
    outer loop
      vertex 3.945 0 75.32
      vertex 3.75192 -1.21907 75.32
      vertex 3.945 0 0
    endloop
  endfacet
  facet normal 0.987688 0.156434 0
    outer loop
      vertex 3.945 0 0
      vertex 3.75192 1.21907 0
      vertex 3.75192 1.21907 75.32
    endloop
  endfacet
  facet normal 0.987688 0.156434 -0
    outer loop
      vertex 3.945 0 75.32
      vertex 3.945 0 0
      vertex 3.75192 1.21907 75.32
    endloop
  endfacet
  facet normal 0.891007 0.45399 0
    outer loop
      vertex 3.75192 1.21907 0
      vertex 3.19157 2.31881 0
      vertex 3.19157 2.31881 75.32
    endloop
  endfacet
  facet normal 0.891007 0.45399 -0
    outer loop
      vertex 3.75192 1.21907 75.32
      vertex 3.75192 1.21907 0
      vertex 3.19157 2.31881 75.32
    endloop
  endfacet
  facet normal 0.707107 0.707107 0
    outer loop
      vertex 2.31881 3.19157 0
      vertex 2.31881 3.19157 75.32
      vertex 3.19157 2.31881 0
    endloop
  endfacet
  facet normal 0.707107 0.707107 0
    outer loop
      vertex 3.19157 2.31881 0
      vertex 2.31881 3.19157 75.32
      vertex 3.19157 2.31881 75.32
    endloop
  endfacet
  facet normal 0.45399 0.891007 0
    outer loop
      vertex 1.21907 3.75192 0
      vertex 1.21907 3.75192 75.32
      vertex 2.31881 3.19157 0
    endloop
  endfacet
  facet normal 0.45399 0.891007 0
    outer loop
      vertex 2.31881 3.19157 0
      vertex 1.21907 3.75192 75.32
      vertex 2.31881 3.19157 75.32
    endloop
  endfacet
  facet normal 0.156434 0.987688 0
    outer loop
      vertex 0 3.945 0
      vertex 0 3.945 75.32
      vertex 1.21907 3.75192 0
    endloop
  endfacet
  facet normal 0.156434 0.987688 0
    outer loop
      vertex 1.21907 3.75192 0
      vertex 0 3.945 75.32
      vertex 1.21907 3.75192 75.32
    endloop
  endfacet
  facet normal -0.156434 0.987688 0
    outer loop
      vertex -1.21907 3.75192 0
      vertex -1.21907 3.75192 75.32
      vertex 0 3.945 0
    endloop
  endfacet
  facet normal -0.156434 0.987688 0
    outer loop
      vertex 0 3.945 0
      vertex -1.21907 3.75192 75.32
      vertex 0 3.945 75.32
    endloop
  endfacet
  facet normal -0.45399 0.891007 0
    outer loop
      vertex -2.31881 3.19157 0
      vertex -2.31881 3.19157 75.32
      vertex -1.21907 3.75192 0
    endloop
  endfacet
  facet normal -0.45399 0.891007 0
    outer loop
      vertex -1.21907 3.75192 0
      vertex -2.31881 3.19157 75.32
      vertex -1.21907 3.75192 75.32
    endloop
  endfacet
  facet normal -0.707107 0.707107 0
    outer loop
      vertex -3.19157 2.31881 0
      vertex -3.19157 2.31881 75.32
      vertex -2.31881 3.19157 0
    endloop
  endfacet
  facet normal -0.707107 0.707107 0
    outer loop
      vertex -2.31881 3.19157 0
      vertex -3.19157 2.31881 75.32
      vertex -2.31881 3.19157 75.32
    endloop
  endfacet
  facet normal -0.891007 0.45399 0
    outer loop
      vertex -3.75192 1.21907 0
      vertex -3.75192 1.21907 75.32
      vertex -3.19157 2.31881 0
    endloop
  endfacet
  facet normal -0.891007 0.45399 0
    outer loop
      vertex -3.19157 2.31881 0
      vertex -3.75192 1.21907 75.32
      vertex -3.19157 2.31881 75.32
    endloop
  endfacet
  facet normal 0 0 1
    outer loop
      vertex -3.75192 1.21907 75.32
      vertex -3.945 0 75.32
      vertex -3.75192 -1.21907 75.32
    endloop
  endfacet
  facet normal 0 0 1
    outer loop
      vertex -2.31881 -3.19157 75.32
      vertex -3.75192 1.21907 75.32
      vertex -3.19157 -2.31881 75.32
    endloop
  endfacet
  facet normal 0 0 1
    outer loop
      vertex -3.19157 -2.31881 75.32
      vertex -3.75192 1.21907 75.32
      vertex -3.75192 -1.21907 75.32
    endloop
  endfacet
  facet normal 0 0 1
    outer loop
      vertex -1.21907 -3.75192 75.32
      vertex -3.75192 1.21907 75.32
      vertex -2.31881 -3.19157 75.32
    endloop
  endfacet
  facet normal 0 0 1
    outer loop
      vertex 0 -3.945 75.32
      vertex -3.75192 1.21907 75.32
      vertex -1.21907 -3.75192 75.32
    endloop
  endfacet
  facet normal -0 0 1
    outer loop
      vertex 1.21907 -3.75192 75.32
      vertex -3.75192 1.21907 75.32
      vertex 0 -3.945 75.32
    endloop
  endfacet
  facet normal -0 0 1
    outer loop
      vertex 2.31881 -3.19157 75.32
      vertex -3.75192 1.21907 75.32
      vertex 1.21907 -3.75192 75.32
    endloop
  endfacet
  facet normal -0 0 1
    outer loop
      vertex 3.19157 -2.31881 75.32
      vertex -3.75192 1.21907 75.32
      vertex 2.31881 -3.19157 75.32
    endloop
  endfacet
  facet normal -0 0 1
    outer loop
      vertex 3.75192 -1.21907 75.32
      vertex -3.75192 1.21907 75.32
      vertex 3.19157 -2.31881 75.32
    endloop
  endfacet
  facet normal -0 0 1
    outer loop
      vertex 3.945 0 75.32
      vertex -3.75192 1.21907 75.32
      vertex 3.75192 -1.21907 75.32
    endloop
  endfacet
  facet normal 0 -0 1
    outer loop
      vertex 3.75192 1.21907 75.32
      vertex -3.75192 1.21907 75.32
      vertex 3.945 0 75.32
    endloop
  endfacet
  facet normal 0 -0 1
    outer loop
      vertex 3.19157 2.31881 75.32
      vertex -3.75192 1.21907 75.32
      vertex 3.75192 1.21907 75.32
    endloop
  endfacet
  facet normal 0 -0 1
    outer loop
      vertex 2.31881 3.19157 75.32
      vertex -3.75192 1.21907 75.32
      vertex 3.19157 2.31881 75.32
    endloop
  endfacet
  facet normal 0 -0 1
    outer loop
      vertex 1.21907 3.75192 75.32
      vertex -3.75192 1.21907 75.32
      vertex 2.31881 3.19157 75.32
    endloop
  endfacet
  facet normal 0 -0 1
    outer loop
      vertex 0 3.945 75.32
      vertex -3.75192 1.21907 75.32
      vertex 1.21907 3.75192 75.32
    endloop
  endfacet
  facet normal 0 -0 1
    outer loop
      vertex -1.21907 3.75192 75.32
      vertex -3.75192 1.21907 75.32
      vertex 0 3.945 75.32
    endloop
  endfacet
  facet normal 0 -0 1
    outer loop
      vertex -2.31881 3.19157 75.32
      vertex -3.75192 1.21907 75.32
      vertex -1.21907 3.75192 75.32
    endloop
  endfacet
  facet normal 0 -0 1
    outer loop
      vertex -3.19157 2.31881 75.32
      vertex -3.75192 1.21907 75.32
      vertex -2.31881 3.19157 75.32
    endloop
  endfacet
endsolid OpenSCAD_Model
