solid OpenSCAD_Model
  facet normal -0 0 -1
    outer loop
      vertex -12.5 0 0
      vertex -11.8882 3.86271 0
      vertex -11.8882 -3.86271 0
    endloop
  endfacet
  facet normal 0 -0 -1
    outer loop
      vertex -11.8882 -3.86271 0
      vertex -11.8882 3.86271 0
      vertex -10.1127 7.34732 0
    endloop
  endfacet
  facet normal 0 0 -1
    outer loop
      vertex -11.8882 -3.86271 0
      vertex -10.1127 7.34732 0
      vertex -7.34732 10.1127 0
    endloop
  endfacet
  facet normal 0 0 -1
    outer loop
      vertex -11.8882 -3.86271 0
      vertex -7.34732 10.1127 0
      vertex -3.86271 11.8882 0
    endloop
  endfacet
  facet normal 0 0 -1
    outer loop
      vertex -11.8882 -3.86271 0
      vertex -3.86271 11.8882 0
      vertex 0 12.5 0
    endloop
  endfacet
  facet normal 0 0 -1
    outer loop
      vertex -11.8882 -3.86271 0
      vertex 0 12.5 0
      vertex 3.86271 11.8882 0
    endloop
  endfacet
  facet normal 0 0 -1
    outer loop
      vertex 0 5.25 0
      vertex 3.86271 11.8882 0
      vertex 7.34732 10.1127 0
    endloop
  endfacet
  facet normal 0 0 -1
    outer loop
      vertex 3.08587 4.24734 0
      vertex 7.34732 10.1127 0
      vertex 10.1127 7.34732 0
    endloop
  endfacet
  facet normal 0 0 -1
    outer loop
      vertex 4.24734 3.08587 0
      vertex 10.1127 7.34732 0
      vertex 11.8882 3.86271 0
    endloop
  endfacet
  facet normal -0 0 -1
    outer loop
      vertex 5.25 0 0
      vertex 11.8882 3.86271 0
      vertex 12.5 0 0
    endloop
  endfacet
  facet normal -0 0 -1
    outer loop
      vertex 4.24734 -3.08587 0
      vertex 12.5 0 0
      vertex 11.8882 -3.86271 0
    endloop
  endfacet
  facet normal -0 0 -1
    outer loop
      vertex 1.62234 -4.99305 0
      vertex 11.8882 -3.86271 0
      vertex 10.1127 -7.34732 0
    endloop
  endfacet
  facet normal 0 0 -1
    outer loop
      vertex -11.8882 -3.86271 0
      vertex 10.1127 -7.34732 0
      vertex 7.34732 -10.1127 0
    endloop
  endfacet
  facet normal 0 0 -1
    outer loop
      vertex -11.8882 -3.86271 0
      vertex 7.34732 -10.1127 0
      vertex 3.86271 -11.8882 0
    endloop
  endfacet
  facet normal 0 0 -1
    outer loop
      vertex -11.8882 -3.86271 0
      vertex 3.86271 -11.8882 0
      vertex 0 -12.5 0
    endloop
  endfacet
  facet normal 0 0 -1
    outer loop
      vertex -11.8882 -3.86271 0
      vertex 0 -12.5 0
      vertex -3.86271 -11.8882 0
    endloop
  endfacet
  facet normal 0 0 -1
    outer loop
      vertex -11.8882 -3.86271 0
      vertex -3.86271 -11.8882 0
      vertex -7.34732 -10.1127 0
    endloop
  endfacet
  facet normal 0 0 -1
    outer loop
      vertex -11.8882 -3.86271 0
      vertex -7.34732 -10.1127 0
      vertex -10.1127 -7.34732 0
    endloop
  endfacet
  facet normal 0 0 -1
    outer loop
      vertex -4.99305 -1.62234 0
      vertex -11.8882 -3.86271 0
      vertex -5.25 0 0
    endloop
  endfacet
  facet normal 0 0 -1
    outer loop
      vertex -4.24734 -3.08587 0
      vertex -11.8882 -3.86271 0
      vertex -4.99305 -1.62234 0
    endloop
  endfacet
  facet normal 0 0 -1
    outer loop
      vertex -3.08587 -4.24734 0
      vertex -11.8882 -3.86271 0
      vertex -4.24734 -3.08587 0
    endloop
  endfacet
  facet normal 0 0 -1
    outer loop
      vertex 1.62234 -4.99305 0
      vertex 10.1127 -7.34732 0
      vertex 0 -5.25 0
    endloop
  endfacet
  facet normal 0 0 -1
    outer loop
      vertex -11.8882 -3.86271 0
      vertex -3.08587 -4.24734 0
      vertex -1.62234 -4.99305 0
    endloop
  endfacet
  facet normal 0 0 -1
    outer loop
      vertex -11.8882 -3.86271 0
      vertex -1.62234 -4.99305 0
      vertex 10.1127 -7.34732 0
    endloop
  endfacet
  facet normal 0 0 -1
    outer loop
      vertex -1.62234 -4.99305 0
      vertex 0 -5.25 0
      vertex 10.1127 -7.34732 0
    endloop
  endfacet
  facet normal -0 0 -1
    outer loop
      vertex 3.08587 -4.24734 0
      vertex 11.8882 -3.86271 0
      vertex 1.62234 -4.99305 0
    endloop
  endfacet
  facet normal 0 0 -1
    outer loop
      vertex 4.24734 -3.08587 0
      vertex 11.8882 -3.86271 0
      vertex 3.08587 -4.24734 0
    endloop
  endfacet
  facet normal -0 0 -1
    outer loop
      vertex 4.99305 -1.62234 0
      vertex 12.5 0 0
      vertex 4.24734 -3.08587 0
    endloop
  endfacet
  facet normal 0 0 -1
    outer loop
      vertex 5.25 0 0
      vertex 12.5 0 0
      vertex 4.99305 -1.62234 0
    endloop
  endfacet
  facet normal -0 0 -1
    outer loop
      vertex 4.99305 1.62234 0
      vertex 11.8882 3.86271 0
      vertex 5.25 0 0
    endloop
  endfacet
  facet normal -0 0 -1
    outer loop
      vertex 3.08587 4.24734 0
      vertex 10.1127 7.34732 0
      vertex 4.24734 3.08587 0
    endloop
  endfacet
  facet normal -0 0 -1
    outer loop
      vertex 1.62234 4.99305 0
      vertex 7.34732 10.1127 0
      vertex 3.08587 4.24734 0
    endloop
  endfacet
  facet normal -0 0 -1
    outer loop
      vertex 0 5.25 0
      vertex 7.34732 10.1127 0
      vertex 1.62234 4.99305 0
    endloop
  endfacet
  facet normal 0 0 -1
    outer loop
      vertex -1.62234 4.99305 0
      vertex 3.86271 11.8882 0
      vertex 0 5.25 0
    endloop
  endfacet
  facet normal 0 0 -1
    outer loop
      vertex -3.08587 4.24734 0
      vertex 3.86271 11.8882 0
      vertex -1.62234 4.99305 0
    endloop
  endfacet
  facet normal 0 0 -1
    outer loop
      vertex -11.8882 -3.86271 0
      vertex 3.86271 11.8882 0
      vertex -3.08587 4.24734 0
    endloop
  endfacet
  facet normal 0 0 -1
    outer loop
      vertex -11.8882 -3.86271 0
      vertex -3.08587 4.24734 0
      vertex -4.24734 3.08587 0
    endloop
  endfacet
  facet normal 0 -0 -1
    outer loop
      vertex -5.25 0 0
      vertex -11.8882 -3.86271 0
      vertex -4.99305 1.62234 0
    endloop
  endfacet
  facet normal 0 -0 -1
    outer loop
      vertex -4.99305 1.62234 0
      vertex -11.8882 -3.86271 0
      vertex -4.24734 3.08587 0
    endloop
  endfacet
  facet normal -0 0 -1
    outer loop
      vertex 4.24734 3.08587 0
      vertex 11.8882 3.86271 0
      vertex 4.99305 1.62234 0
    endloop
  endfacet
  facet normal -0.987688 0.156435 0
    outer loop
      vertex -12.5 0 0
      vertex -12.5 0 1
      vertex -11.8882 3.86271 0
    endloop
  endfacet
  facet normal -0.987688 0.156435 0
    outer loop
      vertex -11.8882 3.86271 0
      vertex -12.5 0 1
      vertex -11.8882 3.86271 1
    endloop
  endfacet
  facet normal -0.987688 -0.156435 -0
    outer loop
      vertex -12.5 0 0
      vertex -11.8882 -3.86271 0
      vertex -12.5 0 1
    endloop
  endfacet
  facet normal -0.987688 -0.156435 0
    outer loop
      vertex -12.5 0 1
      vertex -11.8882 -3.86271 0
      vertex -11.8882 -3.86271 1
    endloop
  endfacet
  facet normal -0.891007 -0.45399 -0
    outer loop
      vertex -11.8882 -3.86271 0
      vertex -10.1127 -7.34732 0
      vertex -11.8882 -3.86271 1
    endloop
  endfacet
  facet normal -0.891007 -0.45399 0
    outer loop
      vertex -11.8882 -3.86271 1
      vertex -10.1127 -7.34732 0
      vertex -10.1127 -7.34732 1
    endloop
  endfacet
  facet normal -0.707107 -0.707107 0
    outer loop
      vertex -10.1127 -7.34732 1
      vertex -10.1127 -7.34732 0
      vertex -7.34732 -10.1127 0
    endloop
  endfacet
  facet normal -0.707107 -0.707107 0
    outer loop
      vertex -7.34732 -10.1127 1
      vertex -10.1127 -7.34732 1
      vertex -7.34732 -10.1127 0
    endloop
  endfacet
  facet normal -0.45399 -0.891007 0
    outer loop
      vertex -7.34732 -10.1127 1
      vertex -7.34732 -10.1127 0
      vertex -3.86271 -11.8882 0
    endloop
  endfacet
  facet normal -0.45399 -0.891007 0
    outer loop
      vertex -3.86271 -11.8882 1
      vertex -7.34732 -10.1127 1
      vertex -3.86271 -11.8882 0
    endloop
  endfacet
  facet normal -0.156435 -0.987688 0
    outer loop
      vertex -3.86271 -11.8882 1
      vertex -3.86271 -11.8882 0
      vertex 0 -12.5 0
    endloop
  endfacet
  facet normal -0.156435 -0.987688 0
    outer loop
      vertex 0 -12.5 1
      vertex -3.86271 -11.8882 1
      vertex 0 -12.5 0
    endloop
  endfacet
  facet normal 0.156435 -0.987688 0
    outer loop
      vertex 0 -12.5 1
      vertex 0 -12.5 0
      vertex 3.86271 -11.8882 0
    endloop
  endfacet
  facet normal 0.156435 -0.987688 0
    outer loop
      vertex 3.86271 -11.8882 1
      vertex 0 -12.5 1
      vertex 3.86271 -11.8882 0
    endloop
  endfacet
  facet normal 0.45399 -0.891007 0
    outer loop
      vertex 3.86271 -11.8882 1
      vertex 3.86271 -11.8882 0
      vertex 7.34732 -10.1127 0
    endloop
  endfacet
  facet normal 0.45399 -0.891007 0
    outer loop
      vertex 7.34732 -10.1127 1
      vertex 3.86271 -11.8882 1
      vertex 7.34732 -10.1127 0
    endloop
  endfacet
  facet normal 0.707107 -0.707107 0
    outer loop
      vertex 7.34732 -10.1127 1
      vertex 7.34732 -10.1127 0
      vertex 10.1127 -7.34732 0
    endloop
  endfacet
  facet normal 0.707107 -0.707107 0
    outer loop
      vertex 10.1127 -7.34732 1
      vertex 7.34732 -10.1127 1
      vertex 10.1127 -7.34732 0
    endloop
  endfacet
  facet normal 0.891007 -0.45399 0
    outer loop
      vertex 10.1127 -7.34732 1
      vertex 10.1127 -7.34732 0
      vertex 11.8882 -3.86271 0
    endloop
  endfacet
  facet normal 0.891007 -0.45399 0
    outer loop
      vertex 11.8882 -3.86271 1
      vertex 10.1127 -7.34732 1
      vertex 11.8882 -3.86271 0
    endloop
  endfacet
  facet normal 0.987688 -0.156435 0
    outer loop
      vertex 11.8882 -3.86271 1
      vertex 11.8882 -3.86271 0
      vertex 12.5 0 0
    endloop
  endfacet
  facet normal 0.987688 -0.156435 0
    outer loop
      vertex 12.5 0 1
      vertex 11.8882 -3.86271 1
      vertex 12.5 0 0
    endloop
  endfacet
  facet normal 0.987688 0.156435 0
    outer loop
      vertex 12.5 0 0
      vertex 11.8882 3.86271 0
      vertex 11.8882 3.86271 1
    endloop
  endfacet
  facet normal 0.987688 0.156435 -0
    outer loop
      vertex 12.5 0 1
      vertex 12.5 0 0
      vertex 11.8882 3.86271 1
    endloop
  endfacet
  facet normal 0.891007 0.45399 0
    outer loop
      vertex 11.8882 3.86271 0
      vertex 10.1127 7.34732 0
      vertex 10.1127 7.34732 1
    endloop
  endfacet
  facet normal 0.891007 0.45399 -0
    outer loop
      vertex 11.8882 3.86271 1
      vertex 11.8882 3.86271 0
      vertex 10.1127 7.34732 1
    endloop
  endfacet
  facet normal 0.707107 0.707107 0
    outer loop
      vertex 7.34732 10.1127 0
      vertex 7.34732 10.1127 1
      vertex 10.1127 7.34732 0
    endloop
  endfacet
  facet normal 0.707107 0.707107 0
    outer loop
      vertex 10.1127 7.34732 0
      vertex 7.34732 10.1127 1
      vertex 10.1127 7.34732 1
    endloop
  endfacet
  facet normal 0.45399 0.891007 0
    outer loop
      vertex 3.86271 11.8882 0
      vertex 3.86271 11.8882 1
      vertex 7.34732 10.1127 0
    endloop
  endfacet
  facet normal 0.45399 0.891007 0
    outer loop
      vertex 7.34732 10.1127 0
      vertex 3.86271 11.8882 1
      vertex 7.34732 10.1127 1
    endloop
  endfacet
  facet normal 0.156435 0.987688 0
    outer loop
      vertex 0 12.5 0
      vertex 0 12.5 1
      vertex 3.86271 11.8882 0
    endloop
  endfacet
  facet normal 0.156435 0.987688 0
    outer loop
      vertex 3.86271 11.8882 0
      vertex 0 12.5 1
      vertex 3.86271 11.8882 1
    endloop
  endfacet
  facet normal -0.156435 0.987688 0
    outer loop
      vertex -3.86271 11.8882 0
      vertex -3.86271 11.8882 1
      vertex 0 12.5 0
    endloop
  endfacet
  facet normal -0.156435 0.987688 0
    outer loop
      vertex 0 12.5 0
      vertex -3.86271 11.8882 1
      vertex 0 12.5 1
    endloop
  endfacet
  facet normal -0.45399 0.891007 0
    outer loop
      vertex -7.34732 10.1127 0
      vertex -7.34732 10.1127 1
      vertex -3.86271 11.8882 0
    endloop
  endfacet
  facet normal -0.45399 0.891007 0
    outer loop
      vertex -3.86271 11.8882 0
      vertex -7.34732 10.1127 1
      vertex -3.86271 11.8882 1
    endloop
  endfacet
  facet normal -0.707107 0.707107 0
    outer loop
      vertex -10.1127 7.34732 0
      vertex -10.1127 7.34732 1
      vertex -7.34732 10.1127 0
    endloop
  endfacet
  facet normal -0.707107 0.707107 0
    outer loop
      vertex -7.34732 10.1127 0
      vertex -10.1127 7.34732 1
      vertex -7.34732 10.1127 1
    endloop
  endfacet
  facet normal -0.891007 0.45399 0
    outer loop
      vertex -11.8882 3.86271 0
      vertex -11.8882 3.86271 1
      vertex -10.1127 7.34732 0
    endloop
  endfacet
  facet normal -0.891007 0.45399 0
    outer loop
      vertex -10.1127 7.34732 0
      vertex -11.8882 3.86271 1
      vertex -10.1127 7.34732 1
    endloop
  endfacet
  facet normal 0.987688 -0.156434 0
    outer loop
      vertex -4.99305 1.62234 0
      vertex -4.99305 1.62234 27.5
      vertex -5.25 0 27.5
    endloop
  endfacet
  facet normal 0.987688 -0.156434 0
    outer loop
      vertex -5.25 0 0
      vertex -4.99305 1.62234 0
      vertex -5.25 0 27.5
    endloop
  endfacet
  facet normal 0.987688 0.156434 0
    outer loop
      vertex -5.25 0 27.5
      vertex -4.99305 -1.62234 27.5
      vertex -4.99305 -1.62234 0
    endloop
  endfacet
  facet normal 0.987688 0.156434 0
    outer loop
      vertex -5.25 0 0
      vertex -5.25 0 27.5
      vertex -4.99305 -1.62234 0
    endloop
  endfacet
  facet normal 0.891006 -0.453991 0
    outer loop
      vertex -4.24734 3.08587 0
      vertex -4.24734 3.08587 27.5
      vertex -4.99305 1.62234 27.5
    endloop
  endfacet
  facet normal 0.891006 -0.453991 0
    outer loop
      vertex -4.99305 1.62234 0
      vertex -4.24734 3.08587 0
      vertex -4.99305 1.62234 27.5
    endloop
  endfacet
  facet normal 0.707107 -0.707107 0
    outer loop
      vertex -3.08587 4.24734 0
      vertex -3.08587 4.24734 27.5
      vertex -4.24734 3.08587 27.5
    endloop
  endfacet
  facet normal 0.707107 -0.707107 0
    outer loop
      vertex -4.24734 3.08587 0
      vertex -3.08587 4.24734 0
      vertex -4.24734 3.08587 27.5
    endloop
  endfacet
  facet normal 0.453991 -0.891006 0
    outer loop
      vertex -1.62234 4.99305 0
      vertex -1.62234 4.99305 27.5
      vertex -3.08587 4.24734 27.5
    endloop
  endfacet
  facet normal 0.453991 -0.891006 0
    outer loop
      vertex -3.08587 4.24734 0
      vertex -1.62234 4.99305 0
      vertex -3.08587 4.24734 27.5
    endloop
  endfacet
  facet normal 0.156434 -0.987688 0
    outer loop
      vertex 0 5.25 0
      vertex 0 5.25 27.5
      vertex -1.62234 4.99305 27.5
    endloop
  endfacet
  facet normal 0.156434 -0.987688 0
    outer loop
      vertex -1.62234 4.99305 0
      vertex 0 5.25 0
      vertex -1.62234 4.99305 27.5
    endloop
  endfacet
  facet normal -0.156434 -0.987688 -0
    outer loop
      vertex 1.62234 4.99305 0
      vertex 1.62234 4.99305 27.5
      vertex 0 5.25 27.5
    endloop
  endfacet
  facet normal -0.156434 -0.987688 -0
    outer loop
      vertex 0 5.25 0
      vertex 1.62234 4.99305 0
      vertex 0 5.25 27.5
    endloop
  endfacet
  facet normal -0.453991 -0.891006 -0
    outer loop
      vertex 3.08587 4.24734 0
      vertex 3.08587 4.24734 27.5
      vertex 1.62234 4.99305 27.5
    endloop
  endfacet
  facet normal -0.453991 -0.891006 -0
    outer loop
      vertex 1.62234 4.99305 0
      vertex 3.08587 4.24734 0
      vertex 1.62234 4.99305 27.5
    endloop
  endfacet
  facet normal -0.707107 -0.707107 -0
    outer loop
      vertex 4.24734 3.08587 0
      vertex 4.24734 3.08587 27.5
      vertex 3.08587 4.24734 27.5
    endloop
  endfacet
  facet normal -0.707107 -0.707107 -0
    outer loop
      vertex 3.08587 4.24734 0
      vertex 4.24734 3.08587 0
      vertex 3.08587 4.24734 27.5
    endloop
  endfacet
  facet normal -0.891006 -0.453991 0
    outer loop
      vertex 4.99305 1.62234 27.5
      vertex 4.24734 3.08587 27.5
      vertex 4.99305 1.62234 0
    endloop
  endfacet
  facet normal -0.891006 -0.453991 0
    outer loop
      vertex 4.99305 1.62234 0
      vertex 4.24734 3.08587 27.5
      vertex 4.24734 3.08587 0
    endloop
  endfacet
  facet normal -0.987688 -0.156434 0
    outer loop
      vertex 5.25 0 27.5
      vertex 4.99305 1.62234 27.5
      vertex 5.25 0 0
    endloop
  endfacet
  facet normal -0.987688 -0.156434 0
    outer loop
      vertex 5.25 0 0
      vertex 4.99305 1.62234 27.5
      vertex 4.99305 1.62234 0
    endloop
  endfacet
  facet normal -0.987688 0.156434 0
    outer loop
      vertex 5.25 0 27.5
      vertex 5.25 0 0
      vertex 4.99305 -1.62234 27.5
    endloop
  endfacet
  facet normal -0.987688 0.156434 0
    outer loop
      vertex 4.99305 -1.62234 27.5
      vertex 5.25 0 0
      vertex 4.99305 -1.62234 0
    endloop
  endfacet
  facet normal -0.891006 0.453991 0
    outer loop
      vertex 4.99305 -1.62234 27.5
      vertex 4.99305 -1.62234 0
      vertex 4.24734 -3.08587 27.5
    endloop
  endfacet
  facet normal -0.891006 0.453991 0
    outer loop
      vertex 4.24734 -3.08587 27.5
      vertex 4.99305 -1.62234 0
      vertex 4.24734 -3.08587 0
    endloop
  endfacet
  facet normal -0.707107 0.707107 0
    outer loop
      vertex 4.24734 -3.08587 27.5
      vertex 4.24734 -3.08587 0
      vertex 3.08587 -4.24734 27.5
    endloop
  endfacet
  facet normal -0.707107 0.707107 0
    outer loop
      vertex 3.08587 -4.24734 27.5
      vertex 4.24734 -3.08587 0
      vertex 3.08587 -4.24734 0
    endloop
  endfacet
  facet normal -0.453991 0.891006 0
    outer loop
      vertex 3.08587 -4.24734 27.5
      vertex 3.08587 -4.24734 0
      vertex 1.62234 -4.99305 27.5
    endloop
  endfacet
  facet normal -0.453991 0.891006 0
    outer loop
      vertex 1.62234 -4.99305 27.5
      vertex 3.08587 -4.24734 0
      vertex 1.62234 -4.99305 0
    endloop
  endfacet
  facet normal -0.156434 0.987688 0
    outer loop
      vertex 1.62234 -4.99305 27.5
      vertex 1.62234 -4.99305 0
      vertex 0 -5.25 27.5
    endloop
  endfacet
  facet normal -0.156434 0.987688 0
    outer loop
      vertex 0 -5.25 27.5
      vertex 1.62234 -4.99305 0
      vertex 0 -5.25 0
    endloop
  endfacet
  facet normal 0.156434 0.987688 -0
    outer loop
      vertex 0 -5.25 27.5
      vertex 0 -5.25 0
      vertex -1.62234 -4.99305 27.5
    endloop
  endfacet
  facet normal 0.156434 0.987688 -0
    outer loop
      vertex -1.62234 -4.99305 27.5
      vertex 0 -5.25 0
      vertex -1.62234 -4.99305 0
    endloop
  endfacet
  facet normal 0.453991 0.891006 -0
    outer loop
      vertex -1.62234 -4.99305 27.5
      vertex -1.62234 -4.99305 0
      vertex -3.08587 -4.24734 27.5
    endloop
  endfacet
  facet normal 0.453991 0.891006 -0
    outer loop
      vertex -3.08587 -4.24734 27.5
      vertex -1.62234 -4.99305 0
      vertex -3.08587 -4.24734 0
    endloop
  endfacet
  facet normal 0.707107 0.707107 -0
    outer loop
      vertex -3.08587 -4.24734 27.5
      vertex -3.08587 -4.24734 0
      vertex -4.24734 -3.08587 27.5
    endloop
  endfacet
  facet normal 0.707107 0.707107 -0
    outer loop
      vertex -4.24734 -3.08587 27.5
      vertex -3.08587 -4.24734 0
      vertex -4.24734 -3.08587 0
    endloop
  endfacet
  facet normal 0.891006 0.453991 0
    outer loop
      vertex -4.99305 -1.62234 27.5
      vertex -4.24734 -3.08587 27.5
      vertex -4.24734 -3.08587 0
    endloop
  endfacet
  facet normal 0.891006 0.453991 0
    outer loop
      vertex -4.99305 -1.62234 0
      vertex -4.99305 -1.62234 27.5
      vertex -4.24734 -3.08587 0
    endloop
  endfacet
  facet normal 0 0 1
    outer loop
      vertex -11.8882 3.86271 1
      vertex -12.5 0 1
      vertex -11.8882 -3.86271 1
    endloop
  endfacet
  facet normal 0 0 1
    outer loop
      vertex -7.34732 -10.1127 1
      vertex -11.8882 3.86271 1
      vertex -10.1127 -7.34732 1
    endloop
  endfacet
  facet normal 0 0 1
    outer loop
      vertex -10.1127 -7.34732 1
      vertex -11.8882 3.86271 1
      vertex -11.8882 -3.86271 1
    endloop
  endfacet
  facet normal 0 0 1
    outer loop
      vertex -3.86271 -11.8882 1
      vertex -11.8882 3.86271 1
      vertex -7.34732 -10.1127 1
    endloop
  endfacet
  facet normal 0 0 1
    outer loop
      vertex 0 -12.5 1
      vertex -11.8882 3.86271 1
      vertex -3.86271 -11.8882 1
    endloop
  endfacet
  facet normal -0 0 1
    outer loop
      vertex 3.86271 -11.8882 1
      vertex -11.8882 3.86271 1
      vertex 0 -12.5 1
    endloop
  endfacet
  facet normal -0 -0 1
    outer loop
      vertex -3.35038 -4.6114 1
      vertex -11.8882 3.86271 1
      vertex 3.86271 -11.8882 1
    endloop
  endfacet
  facet normal 0 -0 1
    outer loop
      vertex 5.7 0 1
      vertex 5.42102 -1.7614 1
      vertex 11.8882 -3.86271 1
    endloop
  endfacet
  facet normal 0 -0 1
    outer loop
      vertex 7.34732 10.1127 1
      vertex -11.8882 3.86271 1
      vertex 10.1127 7.34732 1
    endloop
  endfacet
  facet normal 0 -0 1
    outer loop
      vertex 3.86271 11.8882 1
      vertex -11.8882 3.86271 1
      vertex 7.34732 10.1127 1
    endloop
  endfacet
  facet normal 0 -0 1
    outer loop
      vertex 0 12.5 1
      vertex -11.8882 3.86271 1
      vertex 3.86271 11.8882 1
    endloop
  endfacet
  facet normal 0 -0 1
    outer loop
      vertex -3.86271 11.8882 1
      vertex -11.8882 3.86271 1
      vertex 0 12.5 1
    endloop
  endfacet
  facet normal 0 -0 1
    outer loop
      vertex -7.34732 10.1127 1
      vertex -11.8882 3.86271 1
      vertex -3.86271 11.8882 1
    endloop
  endfacet
  facet normal 0 -0 1
    outer loop
      vertex -10.1127 7.34732 1
      vertex -11.8882 3.86271 1
      vertex -7.34732 10.1127 1
    endloop
  endfacet
  facet normal 0 0 1
    outer loop
      vertex -4.6114 3.35038 1
      vertex -3.35038 4.6114 1
      vertex -11.8882 3.86271 1
    endloop
  endfacet
  facet normal 0 -0 1
    outer loop
      vertex 4.6114 -3.35038 1
      vertex 3.35038 -4.6114 1
      vertex 10.1127 -7.34732 1
    endloop
  endfacet
  facet normal 0 0 1
    outer loop
      vertex 0 5.7 1
      vertex 1.7614 5.42102 1
      vertex 10.1127 7.34732 1
    endloop
  endfacet
  facet normal 0 0 1
    outer loop
      vertex 5.42102 1.7614 1
      vertex 5.7 0 1
      vertex 12.5 0 1
    endloop
  endfacet
  facet normal 0 0 1
    outer loop
      vertex -1.7614 5.42102 1
      vertex -11.8882 3.86271 1
      vertex -3.35038 4.6114 1
    endloop
  endfacet
  facet normal 0 0 1
    outer loop
      vertex 10.1127 7.34732 1
      vertex -11.8882 3.86271 1
      vertex -1.7614 5.42102 1
    endloop
  endfacet
  facet normal 0 0 1
    outer loop
      vertex 10.1127 7.34732 1
      vertex -1.7614 5.42102 1
      vertex 0 5.7 1
    endloop
  endfacet
  facet normal 0 -0 1
    outer loop
      vertex 10.1127 7.34732 1
      vertex 1.7614 5.42102 1
      vertex 11.8882 3.86271 1
    endloop
  endfacet
  facet normal 0 0 1
    outer loop
      vertex 1.7614 5.42102 1
      vertex 3.35038 4.6114 1
      vertex 11.8882 3.86271 1
    endloop
  endfacet
  facet normal 0 -0 1
    outer loop
      vertex 11.8882 3.86271 1
      vertex 4.6114 3.35038 1
      vertex 12.5 0 1
    endloop
  endfacet
  facet normal 0 0 1
    outer loop
      vertex 4.6114 3.35038 1
      vertex 5.42102 1.7614 1
      vertex 12.5 0 1
    endloop
  endfacet
  facet normal 0 0 1
    outer loop
      vertex 12.5 0 1
      vertex 5.7 0 1
      vertex 11.8882 -3.86271 1
    endloop
  endfacet
  facet normal -0 0 1
    outer loop
      vertex 11.8882 -3.86271 1
      vertex 5.42102 -1.7614 1
      vertex 10.1127 -7.34732 1
    endloop
  endfacet
  facet normal 0 0 1
    outer loop
      vertex -5.42102 1.7614 1
      vertex -4.6114 3.35038 1
      vertex -11.8882 3.86271 1
    endloop
  endfacet
  facet normal 0 -0 1
    outer loop
      vertex 5.42102 -1.7614 1
      vertex 4.6114 -3.35038 1
      vertex 10.1127 -7.34732 1
    endloop
  endfacet
  facet normal 0 0 1
    outer loop
      vertex 3.35038 4.6114 1
      vertex 4.6114 3.35038 1
      vertex 11.8882 3.86271 1
    endloop
  endfacet
  facet normal -0 0 1
    outer loop
      vertex 10.1127 -7.34732 1
      vertex 3.35038 -4.6114 1
      vertex 7.34732 -10.1127 1
    endloop
  endfacet
  facet normal 0 -0 1
    outer loop
      vertex 3.35038 -4.6114 1
      vertex 1.7614 -5.42102 1
      vertex 7.34732 -10.1127 1
    endloop
  endfacet
  facet normal -0 0 1
    outer loop
      vertex 7.34732 -10.1127 1
      vertex 0 -5.7 1
      vertex 3.86271 -11.8882 1
    endloop
  endfacet
  facet normal -0 -0 1
    outer loop
      vertex 0 -5.7 1
      vertex -1.7614 -5.42102 1
      vertex 3.86271 -11.8882 1
    endloop
  endfacet
  facet normal -0 -0 1
    outer loop
      vertex -4.6114 -3.35038 1
      vertex -11.8882 3.86271 1
      vertex -3.35038 -4.6114 1
    endloop
  endfacet
  facet normal -0 -0 1
    outer loop
      vertex -5.42102 -1.7614 1
      vertex -11.8882 3.86271 1
      vertex -4.6114 -3.35038 1
    endloop
  endfacet
  facet normal -0 -0 1
    outer loop
      vertex -1.7614 -5.42102 1
      vertex -3.35038 -4.6114 1
      vertex 3.86271 -11.8882 1
    endloop
  endfacet
  facet normal 0 0 1
    outer loop
      vertex -5.42102 -1.7614 1
      vertex -5.7 0 1
      vertex -11.8882 3.86271 1
    endloop
  endfacet
  facet normal 0 -0 1
    outer loop
      vertex 1.7614 -5.42102 1
      vertex 0 -5.7 1
      vertex 7.34732 -10.1127 1
    endloop
  endfacet
  facet normal 0 0 1
    outer loop
      vertex -5.7 0 1
      vertex -5.42102 1.7614 1
      vertex -11.8882 3.86271 1
    endloop
  endfacet
  facet normal 0 0 1
    outer loop
      vertex -5.42102 1.7614 27.5
      vertex -5.7 0 27.5
      vertex -5.42102 -1.7614 27.5
    endloop
  endfacet
  facet normal 0 -0 1
    outer loop
      vertex 1.62234 -4.99305 27.5
      vertex 0 -5.25 27.5
      vertex 1.7614 -5.42102 27.5
    endloop
  endfacet
  facet normal -0 0 1
    outer loop
      vertex -5.25 0 27.5
      vertex -5.42102 1.7614 27.5
      vertex -5.42102 -1.7614 27.5
    endloop
  endfacet
  facet normal 0 -0 1
    outer loop
      vertex -4.6114 3.35038 27.5
      vertex -5.42102 1.7614 27.5
      vertex -3.35038 4.6114 27.5
    endloop
  endfacet
  facet normal 0 0 1
    outer loop
      vertex -4.6114 -3.35038 27.5
      vertex -4.99305 -1.62234 27.5
      vertex -5.42102 -1.7614 27.5
    endloop
  endfacet
  facet normal -0 0 1
    outer loop
      vertex -4.99305 -1.62234 27.5
      vertex -5.25 0 27.5
      vertex -5.42102 -1.7614 27.5
    endloop
  endfacet
  facet normal 0 -0 1
    outer loop
      vertex 3.08587 -4.24734 27.5
      vertex 1.62234 -4.99305 27.5
      vertex 3.35038 -4.6114 27.5
    endloop
  endfacet
  facet normal 0 0 1
    outer loop
      vertex -1.62234 4.99305 27.5
      vertex 0 5.25 27.5
      vertex 0 5.7 27.5
    endloop
  endfacet
  facet normal 0 0 1
    outer loop
      vertex -3.35038 4.6114 27.5
      vertex -5.42102 1.7614 27.5
      vertex -4.24734 3.08587 27.5
    endloop
  endfacet
  facet normal 0 0 1
    outer loop
      vertex -3.35038 4.6114 27.5
      vertex -3.08587 4.24734 27.5
      vertex -1.7614 5.42102 27.5
    endloop
  endfacet
  facet normal 0 -0 1
    outer loop
      vertex -3.35038 4.6114 27.5
      vertex -4.24734 3.08587 27.5
      vertex -3.08587 4.24734 27.5
    endloop
  endfacet
  facet normal 0 0 1
    outer loop
      vertex -1.7614 5.42102 27.5
      vertex -1.62234 4.99305 27.5
      vertex 0 5.7 27.5
    endloop
  endfacet
  facet normal 0 0 1
    outer loop
      vertex -3.08587 4.24734 27.5
      vertex -1.62234 4.99305 27.5
      vertex -1.7614 5.42102 27.5
    endloop
  endfacet
  facet normal 0 -0 1
    outer loop
      vertex 0 5.7 27.5
      vertex 0 5.25 27.5
      vertex 1.7614 5.42102 27.5
    endloop
  endfacet
  facet normal 0 -0 1
    outer loop
      vertex 1.7614 5.42102 27.5
      vertex 1.62234 4.99305 27.5
      vertex 3.35038 4.6114 27.5
    endloop
  endfacet
  facet normal 0 -0 1
    outer loop
      vertex 3.35038 4.6114 27.5
      vertex 3.08587 4.24734 27.5
      vertex 4.6114 3.35038 27.5
    endloop
  endfacet
  facet normal 0 -0 1
    outer loop
      vertex 4.6114 3.35038 27.5
      vertex 4.24734 3.08587 27.5
      vertex 5.42102 1.7614 27.5
    endloop
  endfacet
  facet normal 0 -0 1
    outer loop
      vertex 5.42102 1.7614 27.5
      vertex 4.99305 1.62234 27.5
      vertex 5.7 0 27.5
    endloop
  endfacet
  facet normal 0 0 1
    outer loop
      vertex 5.7 0 27.5
      vertex 5.25 0 27.5
      vertex 5.42102 -1.7614 27.5
    endloop
  endfacet
  facet normal 0 -0 1
    outer loop
      vertex 5.25 0 27.5
      vertex 4.99305 -1.62234 27.5
      vertex 5.42102 -1.7614 27.5
    endloop
  endfacet
  facet normal 0 0 1
    outer loop
      vertex 5.42102 -1.7614 27.5
      vertex 4.24734 -3.08587 27.5
      vertex 4.6114 -3.35038 27.5
    endloop
  endfacet
  facet normal 0 0 1
    outer loop
      vertex 4.6114 -3.35038 27.5
      vertex 3.08587 -4.24734 27.5
      vertex 3.35038 -4.6114 27.5
    endloop
  endfacet
  facet normal 0 0 1
    outer loop
      vertex 0 5.25 27.5
      vertex 1.62234 4.99305 27.5
      vertex 1.7614 5.42102 27.5
    endloop
  endfacet
  facet normal 0 0 1
    outer loop
      vertex 3.35038 -4.6114 27.5
      vertex 1.62234 -4.99305 27.5
      vertex 1.7614 -5.42102 27.5
    endloop
  endfacet
  facet normal 0 0 1
    outer loop
      vertex 1.62234 4.99305 27.5
      vertex 3.08587 4.24734 27.5
      vertex 3.35038 4.6114 27.5
    endloop
  endfacet
  facet normal -0 0 1
    outer loop
      vertex 1.7614 -5.42102 27.5
      vertex 0 -5.25 27.5
      vertex 0 -5.7 27.5
    endloop
  endfacet
  facet normal 0 0 1
    outer loop
      vertex 3.08587 4.24734 27.5
      vertex 4.24734 3.08587 27.5
      vertex 4.6114 3.35038 27.5
    endloop
  endfacet
  facet normal 0 0 1
    outer loop
      vertex 0 -5.7 27.5
      vertex -1.62234 -4.99305 27.5
      vertex -1.7614 -5.42102 27.5
    endloop
  endfacet
  facet normal 0 0 1
    outer loop
      vertex 4.24734 3.08587 27.5
      vertex 4.99305 1.62234 27.5
      vertex 5.42102 1.7614 27.5
    endloop
  endfacet
  facet normal 0 0 1
    outer loop
      vertex -1.7614 -5.42102 27.5
      vertex -3.08587 -4.24734 27.5
      vertex -3.35038 -4.6114 27.5
    endloop
  endfacet
  facet normal 0 0 1
    outer loop
      vertex 4.99305 1.62234 27.5
      vertex 5.25 0 27.5
      vertex 5.7 0 27.5
    endloop
  endfacet
  facet normal 0 0 1
    outer loop
      vertex -3.35038 -4.6114 27.5
      vertex -4.24734 -3.08587 27.5
      vertex -4.6114 -3.35038 27.5
    endloop
  endfacet
  facet normal 0 -0 1
    outer loop
      vertex 4.99305 -1.62234 27.5
      vertex 4.24734 -3.08587 27.5
      vertex 5.42102 -1.7614 27.5
    endloop
  endfacet
  facet normal -0 0 1
    outer loop
      vertex -4.24734 -3.08587 27.5
      vertex -4.99305 -1.62234 27.5
      vertex -4.6114 -3.35038 27.5
    endloop
  endfacet
  facet normal -0 0 1
    outer loop
      vertex 0 -5.25 27.5
      vertex -1.62234 -4.99305 27.5
      vertex 0 -5.7 27.5
    endloop
  endfacet
  facet normal -0 0 1
    outer loop
      vertex -1.62234 -4.99305 27.5
      vertex -3.08587 -4.24734 27.5
      vertex -1.7614 -5.42102 27.5
    endloop
  endfacet
  facet normal -0 0 1
    outer loop
      vertex -3.08587 -4.24734 27.5
      vertex -4.24734 -3.08587 27.5
      vertex -3.35038 -4.6114 27.5
    endloop
  endfacet
  facet normal 0 0 1
    outer loop
      vertex -5.25 0 27.5
      vertex -4.99305 1.62234 27.5
      vertex -5.42102 1.7614 27.5
    endloop
  endfacet
  facet normal 0 -0 1
    outer loop
      vertex 4.24734 -3.08587 27.5
      vertex 3.08587 -4.24734 27.5
      vertex 4.6114 -3.35038 27.5
    endloop
  endfacet
  facet normal 0 0 1
    outer loop
      vertex -4.99305 1.62234 27.5
      vertex -4.24734 3.08587 27.5
      vertex -5.42102 1.7614 27.5
    endloop
  endfacet
  facet normal -0.987688 -0.156435 -0
    outer loop
      vertex -5.7 0 1
      vertex -5.42102 -1.7614 1
      vertex -5.7 0 27.5
    endloop
  endfacet
  facet normal -0.987688 -0.156435 0
    outer loop
      vertex -5.7 0 27.5
      vertex -5.42102 -1.7614 1
      vertex -5.42102 -1.7614 27.5
    endloop
  endfacet
  facet normal -0.891007 -0.45399 -0
    outer loop
      vertex -5.42102 -1.7614 1
      vertex -4.6114 -3.35038 1
      vertex -5.42102 -1.7614 27.5
    endloop
  endfacet
  facet normal -0.891007 -0.45399 0
    outer loop
      vertex -5.42102 -1.7614 27.5
      vertex -4.6114 -3.35038 1
      vertex -4.6114 -3.35038 27.5
    endloop
  endfacet
  facet normal -0.707107 -0.707107 0
    outer loop
      vertex -4.6114 -3.35038 27.5
      vertex -4.6114 -3.35038 1
      vertex -3.35038 -4.6114 1
    endloop
  endfacet
  facet normal -0.707107 -0.707107 0
    outer loop
      vertex -3.35038 -4.6114 27.5
      vertex -4.6114 -3.35038 27.5
      vertex -3.35038 -4.6114 1
    endloop
  endfacet
  facet normal -0.45399 -0.891007 0
    outer loop
      vertex -3.35038 -4.6114 27.5
      vertex -3.35038 -4.6114 1
      vertex -1.7614 -5.42102 1
    endloop
  endfacet
  facet normal -0.45399 -0.891007 0
    outer loop
      vertex -1.7614 -5.42102 27.5
      vertex -3.35038 -4.6114 27.5
      vertex -1.7614 -5.42102 1
    endloop
  endfacet
  facet normal -0.156435 -0.987688 0
    outer loop
      vertex -1.7614 -5.42102 27.5
      vertex -1.7614 -5.42102 1
      vertex 0 -5.7 1
    endloop
  endfacet
  facet normal -0.156435 -0.987688 0
    outer loop
      vertex 0 -5.7 27.5
      vertex -1.7614 -5.42102 27.5
      vertex 0 -5.7 1
    endloop
  endfacet
  facet normal 0.156435 -0.987688 0
    outer loop
      vertex 0 -5.7 27.5
      vertex 0 -5.7 1
      vertex 1.7614 -5.42102 1
    endloop
  endfacet
  facet normal 0.156435 -0.987688 0
    outer loop
      vertex 1.7614 -5.42102 27.5
      vertex 0 -5.7 27.5
      vertex 1.7614 -5.42102 1
    endloop
  endfacet
  facet normal 0.45399 -0.891007 0
    outer loop
      vertex 1.7614 -5.42102 27.5
      vertex 1.7614 -5.42102 1
      vertex 3.35038 -4.6114 1
    endloop
  endfacet
  facet normal 0.45399 -0.891007 0
    outer loop
      vertex 3.35038 -4.6114 27.5
      vertex 1.7614 -5.42102 27.5
      vertex 3.35038 -4.6114 1
    endloop
  endfacet
  facet normal 0.707107 -0.707107 0
    outer loop
      vertex 3.35038 -4.6114 27.5
      vertex 3.35038 -4.6114 1
      vertex 4.6114 -3.35038 1
    endloop
  endfacet
  facet normal 0.707107 -0.707107 0
    outer loop
      vertex 4.6114 -3.35038 27.5
      vertex 3.35038 -4.6114 27.5
      vertex 4.6114 -3.35038 1
    endloop
  endfacet
  facet normal 0.891007 -0.45399 0
    outer loop
      vertex 4.6114 -3.35038 27.5
      vertex 4.6114 -3.35038 1
      vertex 5.42102 -1.7614 1
    endloop
  endfacet
  facet normal 0.891007 -0.45399 0
    outer loop
      vertex 5.42102 -1.7614 27.5
      vertex 4.6114 -3.35038 27.5
      vertex 5.42102 -1.7614 1
    endloop
  endfacet
  facet normal 0.987688 -0.156435 0
    outer loop
      vertex 5.42102 -1.7614 27.5
      vertex 5.42102 -1.7614 1
      vertex 5.7 0 1
    endloop
  endfacet
  facet normal 0.987688 -0.156435 0
    outer loop
      vertex 5.7 0 27.5
      vertex 5.42102 -1.7614 27.5
      vertex 5.7 0 1
    endloop
  endfacet
  facet normal 0.987688 0.156435 0
    outer loop
      vertex 5.7 0 1
      vertex 5.42102 1.7614 1
      vertex 5.42102 1.7614 27.5
    endloop
  endfacet
  facet normal 0.987688 0.156435 -0
    outer loop
      vertex 5.7 0 27.5
      vertex 5.7 0 1
      vertex 5.42102 1.7614 27.5
    endloop
  endfacet
  facet normal 0.891007 0.45399 0
    outer loop
      vertex 5.42102 1.7614 1
      vertex 4.6114 3.35038 1
      vertex 4.6114 3.35038 27.5
    endloop
  endfacet
  facet normal 0.891007 0.45399 -0
    outer loop
      vertex 5.42102 1.7614 27.5
      vertex 5.42102 1.7614 1
      vertex 4.6114 3.35038 27.5
    endloop
  endfacet
  facet normal 0.707107 0.707107 0
    outer loop
      vertex 3.35038 4.6114 1
      vertex 3.35038 4.6114 27.5
      vertex 4.6114 3.35038 1
    endloop
  endfacet
  facet normal 0.707107 0.707107 0
    outer loop
      vertex 4.6114 3.35038 1
      vertex 3.35038 4.6114 27.5
      vertex 4.6114 3.35038 27.5
    endloop
  endfacet
  facet normal 0.45399 0.891007 0
    outer loop
      vertex 1.7614 5.42102 1
      vertex 1.7614 5.42102 27.5
      vertex 3.35038 4.6114 1
    endloop
  endfacet
  facet normal 0.45399 0.891007 0
    outer loop
      vertex 3.35038 4.6114 1
      vertex 1.7614 5.42102 27.5
      vertex 3.35038 4.6114 27.5
    endloop
  endfacet
  facet normal 0.156435 0.987688 0
    outer loop
      vertex 0 5.7 1
      vertex 0 5.7 27.5
      vertex 1.7614 5.42102 1
    endloop
  endfacet
  facet normal 0.156435 0.987688 0
    outer loop
      vertex 1.7614 5.42102 1
      vertex 0 5.7 27.5
      vertex 1.7614 5.42102 27.5
    endloop
  endfacet
  facet normal -0.156435 0.987688 0
    outer loop
      vertex -1.7614 5.42102 1
      vertex -1.7614 5.42102 27.5
      vertex 0 5.7 1
    endloop
  endfacet
  facet normal -0.156435 0.987688 0
    outer loop
      vertex 0 5.7 1
      vertex -1.7614 5.42102 27.5
      vertex 0 5.7 27.5
    endloop
  endfacet
  facet normal -0.45399 0.891007 0
    outer loop
      vertex -3.35038 4.6114 1
      vertex -3.35038 4.6114 27.5
      vertex -1.7614 5.42102 1
    endloop
  endfacet
  facet normal -0.45399 0.891007 0
    outer loop
      vertex -1.7614 5.42102 1
      vertex -3.35038 4.6114 27.5
      vertex -1.7614 5.42102 27.5
    endloop
  endfacet
  facet normal -0.707107 0.707107 0
    outer loop
      vertex -4.6114 3.35038 1
      vertex -4.6114 3.35038 27.5
      vertex -3.35038 4.6114 1
    endloop
  endfacet
  facet normal -0.707107 0.707107 0
    outer loop
      vertex -3.35038 4.6114 1
      vertex -4.6114 3.35038 27.5
      vertex -3.35038 4.6114 27.5
    endloop
  endfacet
  facet normal -0.891007 0.45399 0
    outer loop
      vertex -5.42102 1.7614 1
      vertex -5.42102 1.7614 27.5
      vertex -4.6114 3.35038 1
    endloop
  endfacet
  facet normal -0.891007 0.45399 0
    outer loop
      vertex -4.6114 3.35038 1
      vertex -5.42102 1.7614 27.5
      vertex -4.6114 3.35038 27.5
    endloop
  endfacet
  facet normal -0.987688 0.156435 0
    outer loop
      vertex -5.7 0 1
      vertex -5.7 0 27.5
      vertex -5.42102 1.7614 1
    endloop
  endfacet
  facet normal -0.987688 0.156435 0
    outer loop
      vertex -5.42102 1.7614 1
      vertex -5.7 0 27.5
      vertex -5.42102 1.7614 27.5
    endloop
  endfacet
endsolid OpenSCAD_Model
