solid OpenSCAD_Model
  facet normal -0 0 -1
    outer loop
      vertex -4.9 0 0
      vertex -4.52701 1.87515 0
      vertex -4.52701 -1.87515 0
    endloop
  endfacet
  facet normal 0 -0 -1
    outer loop
      vertex -4.52701 -1.87515 0
      vertex -4.52701 1.87515 0
      vertex -3.46482 3.46482 0
    endloop
  endfacet
  facet normal 0 0 -1
    outer loop
      vertex -4.52701 -1.87515 0
      vertex -3.46482 3.46482 0
      vertex -1.87515 4.52701 0
    endloop
  endfacet
  facet normal 0 0 -1
    outer loop
      vertex -4.52701 -1.87515 0
      vertex -1.87515 4.52701 0
      vertex 0 4.9 0
    endloop
  endfacet
  facet normal 0 0 -1
    outer loop
      vertex -4.52701 -1.87515 0
      vertex 0 4.9 0
      vertex 1.87515 4.52701 0
    endloop
  endfacet
  facet normal 0 0 -1
    outer loop
      vertex -4.52701 -1.87515 0
      vertex 1.87515 4.52701 0
      vertex 3.46482 3.46482 0
    endloop
  endfacet
  facet normal 0 0 -1
    outer loop
      vertex -4.52701 -1.87515 0
      vertex 3.46482 3.46482 0
      vertex 4.52701 1.87515 0
    endloop
  endfacet
  facet normal 0 0 -1
    outer loop
      vertex -4.52701 -1.87515 0
      vertex 4.52701 1.87515 0
      vertex 4.9 0 0
    endloop
  endfacet
  facet normal -0 0 -1
    outer loop
      vertex -4.52701 -1.87515 0
      vertex 4.9 0 0
      vertex 4.52701 -1.87515 0
    endloop
  endfacet
  facet normal 0 0 -1
    outer loop
      vertex -4.52701 -1.87515 0
      vertex 4.52701 -1.87515 0
      vertex 3.46482 -3.46482 0
    endloop
  endfacet
  facet normal 0 0 -1
    outer loop
      vertex -4.52701 -1.87515 0
      vertex 3.46482 -3.46482 0
      vertex 1.87515 -4.52701 0
    endloop
  endfacet
  facet normal 0 0 -1
    outer loop
      vertex -4.52701 -1.87515 0
      vertex 1.87515 -4.52701 0
      vertex 0 -4.9 0
    endloop
  endfacet
  facet normal 0 0 -1
    outer loop
      vertex -4.52701 -1.87515 0
      vertex 0 -4.9 0
      vertex -1.87515 -4.52701 0
    endloop
  endfacet
  facet normal 0 0 -1
    outer loop
      vertex -4.52701 -1.87515 0
      vertex -1.87515 -4.52701 0
      vertex -3.46482 -3.46482 0
    endloop
  endfacet
  facet normal -0.980785 0.19509 0
    outer loop
      vertex -4.9 0 0
      vertex -4.9 0 46.5
      vertex -4.52701 1.87515 0
    endloop
  endfacet
  facet normal -0.980785 0.19509 0
    outer loop
      vertex -4.52701 1.87515 0
      vertex -4.9 0 46.5
      vertex -4.52701 1.87515 46.5
    endloop
  endfacet
  facet normal -0.980785 -0.19509 -0
    outer loop
      vertex -4.9 0 0
      vertex -4.52701 -1.87515 0
      vertex -4.9 0 46.5
    endloop
  endfacet
  facet normal -0.980785 -0.19509 0
    outer loop
      vertex -4.9 0 46.5
      vertex -4.52701 -1.87515 0
      vertex -4.52701 -1.87515 46.5
    endloop
  endfacet
  facet normal -0.831469 -0.555571 -0
    outer loop
      vertex -4.52701 -1.87515 0
      vertex -3.46482 -3.46482 0
      vertex -4.52701 -1.87515 46.5
    endloop
  endfacet
  facet normal -0.831469 -0.555571 0
    outer loop
      vertex -4.52701 -1.87515 46.5
      vertex -3.46482 -3.46482 0
      vertex -3.46482 -3.46482 46.5
    endloop
  endfacet
  facet normal -0.555571 -0.831469 0
    outer loop
      vertex -3.46482 -3.46482 46.5
      vertex -3.46482 -3.46482 0
      vertex -1.87515 -4.52701 0
    endloop
  endfacet
  facet normal -0.555571 -0.831469 0
    outer loop
      vertex -1.87515 -4.52701 46.5
      vertex -3.46482 -3.46482 46.5
      vertex -1.87515 -4.52701 0
    endloop
  endfacet
  facet normal -0.19509 -0.980785 0
    outer loop
      vertex -1.87515 -4.52701 46.5
      vertex -1.87515 -4.52701 0
      vertex 0 -4.9 0
    endloop
  endfacet
  facet normal -0.19509 -0.980785 0
    outer loop
      vertex 0 -4.9 46.5
      vertex -1.87515 -4.52701 46.5
      vertex 0 -4.9 0
    endloop
  endfacet
  facet normal 0.19509 -0.980785 0
    outer loop
      vertex 0 -4.9 46.5
      vertex 0 -4.9 0
      vertex 1.87515 -4.52701 0
    endloop
  endfacet
  facet normal 0.19509 -0.980785 0
    outer loop
      vertex 1.87515 -4.52701 46.5
      vertex 0 -4.9 46.5
      vertex 1.87515 -4.52701 0
    endloop
  endfacet
  facet normal 0.555571 -0.831469 0
    outer loop
      vertex 1.87515 -4.52701 46.5
      vertex 1.87515 -4.52701 0
      vertex 3.46482 -3.46482 0
    endloop
  endfacet
  facet normal 0.555571 -0.831469 0
    outer loop
      vertex 3.46482 -3.46482 46.5
      vertex 1.87515 -4.52701 46.5
      vertex 3.46482 -3.46482 0
    endloop
  endfacet
  facet normal 0.831469 -0.555571 0
    outer loop
      vertex 3.46482 -3.46482 46.5
      vertex 3.46482 -3.46482 0
      vertex 4.52701 -1.87515 0
    endloop
  endfacet
  facet normal 0.831469 -0.555571 0
    outer loop
      vertex 4.52701 -1.87515 46.5
      vertex 3.46482 -3.46482 46.5
      vertex 4.52701 -1.87515 0
    endloop
  endfacet
  facet normal 0.980785 -0.19509 0
    outer loop
      vertex 4.52701 -1.87515 46.5
      vertex 4.52701 -1.87515 0
      vertex 4.9 0 0
    endloop
  endfacet
  facet normal 0.980785 -0.19509 0
    outer loop
      vertex 4.9 0 46.5
      vertex 4.52701 -1.87515 46.5
      vertex 4.9 0 0
    endloop
  endfacet
  facet normal 0.980785 0.19509 0
    outer loop
      vertex 4.9 0 0
      vertex 4.52701 1.87515 0
      vertex 4.52701 1.87515 46.5
    endloop
  endfacet
  facet normal 0.980785 0.19509 -0
    outer loop
      vertex 4.9 0 46.5
      vertex 4.9 0 0
      vertex 4.52701 1.87515 46.5
    endloop
  endfacet
  facet normal 0.831469 0.555571 0
    outer loop
      vertex 4.52701 1.87515 0
      vertex 3.46482 3.46482 0
      vertex 3.46482 3.46482 46.5
    endloop
  endfacet
  facet normal 0.831469 0.555571 -0
    outer loop
      vertex 4.52701 1.87515 46.5
      vertex 4.52701 1.87515 0
      vertex 3.46482 3.46482 46.5
    endloop
  endfacet
  facet normal 0.555571 0.831469 0
    outer loop
      vertex 1.87515 4.52701 0
      vertex 1.87515 4.52701 46.5
      vertex 3.46482 3.46482 0
    endloop
  endfacet
  facet normal 0.555571 0.831469 0
    outer loop
      vertex 3.46482 3.46482 0
      vertex 1.87515 4.52701 46.5
      vertex 3.46482 3.46482 46.5
    endloop
  endfacet
  facet normal 0.19509 0.980785 0
    outer loop
      vertex 0 4.9 0
      vertex 0 4.9 46.5
      vertex 1.87515 4.52701 0
    endloop
  endfacet
  facet normal 0.19509 0.980785 0
    outer loop
      vertex 1.87515 4.52701 0
      vertex 0 4.9 46.5
      vertex 1.87515 4.52701 46.5
    endloop
  endfacet
  facet normal -0.19509 0.980785 0
    outer loop
      vertex -1.87515 4.52701 0
      vertex -1.87515 4.52701 46.5
      vertex 0 4.9 0
    endloop
  endfacet
  facet normal -0.19509 0.980785 0
    outer loop
      vertex 0 4.9 0
      vertex -1.87515 4.52701 46.5
      vertex 0 4.9 46.5
    endloop
  endfacet
  facet normal -0.555571 0.831469 0
    outer loop
      vertex -3.46482 3.46482 0
      vertex -3.46482 3.46482 46.5
      vertex -1.87515 4.52701 0
    endloop
  endfacet
  facet normal -0.555571 0.831469 0
    outer loop
      vertex -1.87515 4.52701 0
      vertex -3.46482 3.46482 46.5
      vertex -1.87515 4.52701 46.5
    endloop
  endfacet
  facet normal -0.831469 0.555571 0
    outer loop
      vertex -4.52701 1.87515 0
      vertex -4.52701 1.87515 46.5
      vertex -3.46482 3.46482 0
    endloop
  endfacet
  facet normal -0.831469 0.555571 0
    outer loop
      vertex -3.46482 3.46482 0
      vertex -4.52701 1.87515 46.5
      vertex -3.46482 3.46482 46.5
    endloop
  endfacet
  facet normal 0 0 1
    outer loop
      vertex -4.52701 1.87515 46.5
      vertex -4.9 0 46.5
      vertex -4.52701 -1.87515 46.5
    endloop
  endfacet
  facet normal -0 -0 1
    outer loop
      vertex -3.89933 -1.26697 46.5
      vertex -4.52701 1.87515 46.5
      vertex -3.46482 -3.46482 46.5
    endloop
  endfacet
  facet normal 0 0 1
    outer loop
      vertex -3.46482 -3.46482 46.5
      vertex -4.52701 1.87515 46.5
      vertex -4.52701 -1.87515 46.5
    endloop
  endfacet
  facet normal 0 0 1
    outer loop
      vertex 3.89933 1.26697 46.5
      vertex 4.1 0 46.5
      vertex 4.9 0 46.5
    endloop
  endfacet
  facet normal 0 0 1
    outer loop
      vertex 3.31697 2.40992 46.5
      vertex 3.89933 1.26697 46.5
      vertex 4.52701 1.87515 46.5
    endloop
  endfacet
  facet normal 0 0 1
    outer loop
      vertex 0 4.1 46.5
      vertex 1.26697 3.89933 46.5
      vertex 1.87515 4.52701 46.5
    endloop
  endfacet
  facet normal 0 -0 1
    outer loop
      vertex -3.46482 3.46482 46.5
      vertex -4.52701 1.87515 46.5
      vertex -1.87515 4.52701 46.5
    endloop
  endfacet
  facet normal -0 0 1
    outer loop
      vertex -3.31697 -2.40992 46.5
      vertex -3.89933 -1.26697 46.5
      vertex -3.46482 -3.46482 46.5
    endloop
  endfacet
  facet normal -0 -0 1
    outer loop
      vertex -4.1 0 46.5
      vertex -4.52701 1.87515 46.5
      vertex -3.89933 -1.26697 46.5
    endloop
  endfacet
  facet normal 0 -0 1
    outer loop
      vertex 3.89933 -1.26697 46.5
      vertex 3.31697 -2.40992 46.5
      vertex 4.52701 -1.87515 46.5
    endloop
  endfacet
  facet normal -0 0 1
    outer loop
      vertex 0 -4.1 46.5
      vertex -1.26697 -3.89933 46.5
      vertex 0 -4.9 46.5
    endloop
  endfacet
  facet normal 0 0 1
    outer loop
      vertex 2.40992 3.31697 46.5
      vertex 3.31697 2.40992 46.5
      vertex 3.46482 3.46482 46.5
    endloop
  endfacet
  facet normal 0 0 1
    outer loop
      vertex -2.40992 3.31697 46.5
      vertex -1.26697 3.89933 46.5
      vertex 0 4.9 46.5
    endloop
  endfacet
  facet normal 0 -0 1
    outer loop
      vertex -1.87515 4.52701 46.5
      vertex -2.40992 3.31697 46.5
      vertex 0 4.9 46.5
    endloop
  endfacet
  facet normal 0 0 1
    outer loop
      vertex -1.87515 4.52701 46.5
      vertex -4.52701 1.87515 46.5
      vertex -2.40992 3.31697 46.5
    endloop
  endfacet
  facet normal 0 -0 1
    outer loop
      vertex 0 4.9 46.5
      vertex -1.26697 3.89933 46.5
      vertex 1.87515 4.52701 46.5
    endloop
  endfacet
  facet normal 0 0 1
    outer loop
      vertex -1.26697 3.89933 46.5
      vertex 0 4.1 46.5
      vertex 1.87515 4.52701 46.5
    endloop
  endfacet
  facet normal 0 -0 1
    outer loop
      vertex 1.87515 4.52701 46.5
      vertex 1.26697 3.89933 46.5
      vertex 3.46482 3.46482 46.5
    endloop
  endfacet
  facet normal -0 0 1
    outer loop
      vertex -3.31697 2.40992 46.5
      vertex -2.40992 3.31697 46.5
      vertex -4.52701 1.87515 46.5
    endloop
  endfacet
  facet normal 0 0 1
    outer loop
      vertex 1.26697 3.89933 46.5
      vertex 2.40992 3.31697 46.5
      vertex 3.46482 3.46482 46.5
    endloop
  endfacet
  facet normal 0 -0 1
    outer loop
      vertex 3.31697 -2.40992 46.5
      vertex 2.40992 -3.31697 46.5
      vertex 3.46482 -3.46482 46.5
    endloop
  endfacet
  facet normal 0 -0 1
    outer loop
      vertex 3.46482 3.46482 46.5
      vertex 3.31697 2.40992 46.5
      vertex 4.52701 1.87515 46.5
    endloop
  endfacet
  facet normal 0 -0 1
    outer loop
      vertex 4.52701 1.87515 46.5
      vertex 3.89933 1.26697 46.5
      vertex 4.9 0 46.5
    endloop
  endfacet
  facet normal 0 0 1
    outer loop
      vertex 4.9 0 46.5
      vertex 4.1 0 46.5
      vertex 4.52701 -1.87515 46.5
    endloop
  endfacet
  facet normal 0 -0 1
    outer loop
      vertex 4.1 0 46.5
      vertex 3.89933 -1.26697 46.5
      vertex 4.52701 -1.87515 46.5
    endloop
  endfacet
  facet normal 0 0 1
    outer loop
      vertex 4.52701 -1.87515 46.5
      vertex 3.31697 -2.40992 46.5
      vertex 3.46482 -3.46482 46.5
    endloop
  endfacet
  facet normal -0 0 1
    outer loop
      vertex 3.46482 -3.46482 46.5
      vertex 2.40992 -3.31697 46.5
      vertex 1.87515 -4.52701 46.5
    endloop
  endfacet
  facet normal 0 0 1
    outer loop
      vertex 2.40992 -3.31697 46.5
      vertex 1.26697 -3.89933 46.5
      vertex 1.87515 -4.52701 46.5
    endloop
  endfacet
  facet normal -0 0 1
    outer loop
      vertex 1.87515 -4.52701 46.5
      vertex 0 -4.1 46.5
      vertex 0 -4.9 46.5
    endloop
  endfacet
  facet normal 0 0 1
    outer loop
      vertex 0 -4.9 46.5
      vertex -1.26697 -3.89933 46.5
      vertex -1.87515 -4.52701 46.5
    endloop
  endfacet
  facet normal 0 0 1
    outer loop
      vertex -1.87515 -4.52701 46.5
      vertex -3.31697 -2.40992 46.5
      vertex -3.46482 -3.46482 46.5
    endloop
  endfacet
  facet normal -0 0 1
    outer loop
      vertex -1.26697 -3.89933 46.5
      vertex -2.40992 -3.31697 46.5
      vertex -1.87515 -4.52701 46.5
    endloop
  endfacet
  facet normal 0 0 1
    outer loop
      vertex -4.1 0 46.5
      vertex -3.89933 1.26697 46.5
      vertex -4.52701 1.87515 46.5
    endloop
  endfacet
  facet normal -0 -0 1
    outer loop
      vertex -2.40992 -3.31697 46.5
      vertex -3.31697 -2.40992 46.5
      vertex -1.87515 -4.52701 46.5
    endloop
  endfacet
  facet normal 0 -0 1
    outer loop
      vertex 1.26697 -3.89933 46.5
      vertex 0 -4.1 46.5
      vertex 1.87515 -4.52701 46.5
    endloop
  endfacet
  facet normal 0 0 1
    outer loop
      vertex -3.89933 1.26697 46.5
      vertex -3.31697 2.40992 46.5
      vertex -4.52701 1.87515 46.5
    endloop
  endfacet
  facet normal 0.987688 0.156434 0
    outer loop
      vertex -4.1 0 46.5
      vertex -3.89933 -1.26697 46.5
      vertex -3.89933 -1.26697 19
    endloop
  endfacet
  facet normal 0.987688 0.156434 0
    outer loop
      vertex -4.1 0 19
      vertex -4.1 0 46.5
      vertex -3.89933 -1.26697 19
    endloop
  endfacet
  facet normal 0.891007 0.45399 0
    outer loop
      vertex -3.89933 -1.26697 46.5
      vertex -3.31697 -2.40992 46.5
      vertex -3.31697 -2.40992 19
    endloop
  endfacet
  facet normal 0.891007 0.45399 0
    outer loop
      vertex -3.89933 -1.26697 19
      vertex -3.89933 -1.26697 46.5
      vertex -3.31697 -2.40992 19
    endloop
  endfacet
  facet normal 0.707107 0.707107 -0
    outer loop
      vertex -2.40992 -3.31697 46.5
      vertex -2.40992 -3.31697 19
      vertex -3.31697 -2.40992 46.5
    endloop
  endfacet
  facet normal 0.707107 0.707107 -0
    outer loop
      vertex -3.31697 -2.40992 46.5
      vertex -2.40992 -3.31697 19
      vertex -3.31697 -2.40992 19
    endloop
  endfacet
  facet normal 0.45399 0.891007 -0
    outer loop
      vertex -1.26697 -3.89933 46.5
      vertex -1.26697 -3.89933 19
      vertex -2.40992 -3.31697 46.5
    endloop
  endfacet
  facet normal 0.45399 0.891007 -0
    outer loop
      vertex -2.40992 -3.31697 46.5
      vertex -1.26697 -3.89933 19
      vertex -2.40992 -3.31697 19
    endloop
  endfacet
  facet normal 0.156434 0.987688 -0
    outer loop
      vertex 0 -4.1 46.5
      vertex 0 -4.1 19
      vertex -1.26697 -3.89933 46.5
    endloop
  endfacet
  facet normal 0.156434 0.987688 -0
    outer loop
      vertex -1.26697 -3.89933 46.5
      vertex 0 -4.1 19
      vertex -1.26697 -3.89933 19
    endloop
  endfacet
  facet normal -0.156434 0.987688 0
    outer loop
      vertex 1.26697 -3.89933 46.5
      vertex 1.26697 -3.89933 19
      vertex 0 -4.1 46.5
    endloop
  endfacet
  facet normal -0.156434 0.987688 0
    outer loop
      vertex 0 -4.1 46.5
      vertex 1.26697 -3.89933 19
      vertex 0 -4.1 19
    endloop
  endfacet
  facet normal -0.45399 0.891007 0
    outer loop
      vertex 2.40992 -3.31697 46.5
      vertex 2.40992 -3.31697 19
      vertex 1.26697 -3.89933 46.5
    endloop
  endfacet
  facet normal -0.45399 0.891007 0
    outer loop
      vertex 1.26697 -3.89933 46.5
      vertex 2.40992 -3.31697 19
      vertex 1.26697 -3.89933 19
    endloop
  endfacet
  facet normal -0.707107 0.707107 0
    outer loop
      vertex 3.31697 -2.40992 46.5
      vertex 3.31697 -2.40992 19
      vertex 2.40992 -3.31697 46.5
    endloop
  endfacet
  facet normal -0.707107 0.707107 0
    outer loop
      vertex 2.40992 -3.31697 46.5
      vertex 3.31697 -2.40992 19
      vertex 2.40992 -3.31697 19
    endloop
  endfacet
  facet normal -0.891007 0.45399 0
    outer loop
      vertex 3.89933 -1.26697 46.5
      vertex 3.89933 -1.26697 19
      vertex 3.31697 -2.40992 46.5
    endloop
  endfacet
  facet normal -0.891007 0.45399 0
    outer loop
      vertex 3.31697 -2.40992 46.5
      vertex 3.89933 -1.26697 19
      vertex 3.31697 -2.40992 19
    endloop
  endfacet
  facet normal -0.987688 0.156434 0
    outer loop
      vertex 4.1 0 46.5
      vertex 4.1 0 19
      vertex 3.89933 -1.26697 46.5
    endloop
  endfacet
  facet normal -0.987688 0.156434 0
    outer loop
      vertex 3.89933 -1.26697 46.5
      vertex 4.1 0 19
      vertex 3.89933 -1.26697 19
    endloop
  endfacet
  facet normal -0.987688 -0.156434 0
    outer loop
      vertex 4.1 0 46.5
      vertex 3.89933 1.26697 46.5
      vertex 4.1 0 19
    endloop
  endfacet
  facet normal -0.987688 -0.156434 0
    outer loop
      vertex 4.1 0 19
      vertex 3.89933 1.26697 46.5
      vertex 3.89933 1.26697 19
    endloop
  endfacet
  facet normal -0.891007 -0.45399 0
    outer loop
      vertex 3.89933 1.26697 46.5
      vertex 3.31697 2.40992 46.5
      vertex 3.89933 1.26697 19
    endloop
  endfacet
  facet normal -0.891007 -0.45399 0
    outer loop
      vertex 3.89933 1.26697 19
      vertex 3.31697 2.40992 46.5
      vertex 3.31697 2.40992 19
    endloop
  endfacet
  facet normal -0.707107 -0.707107 -0
    outer loop
      vertex 3.31697 2.40992 19
      vertex 3.31697 2.40992 46.5
      vertex 2.40992 3.31697 46.5
    endloop
  endfacet
  facet normal -0.707107 -0.707107 -0
    outer loop
      vertex 2.40992 3.31697 19
      vertex 3.31697 2.40992 19
      vertex 2.40992 3.31697 46.5
    endloop
  endfacet
  facet normal -0.45399 -0.891007 -0
    outer loop
      vertex 2.40992 3.31697 19
      vertex 2.40992 3.31697 46.5
      vertex 1.26697 3.89933 46.5
    endloop
  endfacet
  facet normal -0.45399 -0.891007 -0
    outer loop
      vertex 1.26697 3.89933 19
      vertex 2.40992 3.31697 19
      vertex 1.26697 3.89933 46.5
    endloop
  endfacet
  facet normal -0.156434 -0.987688 -0
    outer loop
      vertex 1.26697 3.89933 19
      vertex 1.26697 3.89933 46.5
      vertex 0 4.1 46.5
    endloop
  endfacet
  facet normal -0.156434 -0.987688 -0
    outer loop
      vertex 0 4.1 19
      vertex 1.26697 3.89933 19
      vertex 0 4.1 46.5
    endloop
  endfacet
  facet normal 0.156434 -0.987688 0
    outer loop
      vertex 0 4.1 19
      vertex 0 4.1 46.5
      vertex -1.26697 3.89933 46.5
    endloop
  endfacet
  facet normal 0.156434 -0.987688 0
    outer loop
      vertex -1.26697 3.89933 19
      vertex 0 4.1 19
      vertex -1.26697 3.89933 46.5
    endloop
  endfacet
  facet normal 0.45399 -0.891007 0
    outer loop
      vertex -1.26697 3.89933 19
      vertex -1.26697 3.89933 46.5
      vertex -2.40992 3.31697 46.5
    endloop
  endfacet
  facet normal 0.45399 -0.891007 0
    outer loop
      vertex -2.40992 3.31697 19
      vertex -1.26697 3.89933 19
      vertex -2.40992 3.31697 46.5
    endloop
  endfacet
  facet normal 0.707107 -0.707107 0
    outer loop
      vertex -2.40992 3.31697 19
      vertex -2.40992 3.31697 46.5
      vertex -3.31697 2.40992 46.5
    endloop
  endfacet
  facet normal 0.707107 -0.707107 0
    outer loop
      vertex -3.31697 2.40992 19
      vertex -2.40992 3.31697 19
      vertex -3.31697 2.40992 46.5
    endloop
  endfacet
  facet normal 0.891007 -0.45399 0
    outer loop
      vertex -3.31697 2.40992 19
      vertex -3.31697 2.40992 46.5
      vertex -3.89933 1.26697 46.5
    endloop
  endfacet
  facet normal 0.891007 -0.45399 0
    outer loop
      vertex -3.89933 1.26697 19
      vertex -3.31697 2.40992 19
      vertex -3.89933 1.26697 46.5
    endloop
  endfacet
  facet normal 0.987688 -0.156434 0
    outer loop
      vertex -3.89933 1.26697 19
      vertex -3.89933 1.26697 46.5
      vertex -4.1 0 46.5
    endloop
  endfacet
  facet normal 0.987688 -0.156434 0
    outer loop
      vertex -4.1 0 19
      vertex -3.89933 1.26697 19
      vertex -4.1 0 46.5
    endloop
  endfacet
  facet normal 0 0 1
    outer loop
      vertex -3.89933 -1.26697 19
      vertex -3.31697 -2.40992 19
      vertex -2.40992 -3.31697 19
    endloop
  endfacet
  facet normal 0 0 1
    outer loop
      vertex 0 -4.1 19
      vertex -3.89933 -1.26697 19
      vertex -1.26697 -3.89933 19
    endloop
  endfacet
  facet normal 0 0 1
    outer loop
      vertex -1.26697 -3.89933 19
      vertex -3.89933 -1.26697 19
      vertex -2.40992 -3.31697 19
    endloop
  endfacet
  facet normal -0 0 1
    outer loop
      vertex 1.26697 -3.89933 19
      vertex -3.89933 -1.26697 19
      vertex 0 -4.1 19
    endloop
  endfacet
  facet normal -0 0 1
    outer loop
      vertex 2.40992 -3.31697 19
      vertex -3.89933 -1.26697 19
      vertex 1.26697 -3.89933 19
    endloop
  endfacet
  facet normal -0 0 1
    outer loop
      vertex 3.31697 -2.40992 19
      vertex -3.89933 -1.26697 19
      vertex 2.40992 -3.31697 19
    endloop
  endfacet
  facet normal 0 0 1
    outer loop
      vertex 3.89933 -1.26697 19
      vertex -3.89933 -1.26697 19
      vertex 3.31697 -2.40992 19
    endloop
  endfacet
  facet normal 0 0 1
    outer loop
      vertex 4.1 0 19
      vertex -3.89933 -1.26697 19
      vertex 3.89933 -1.26697 19
    endloop
  endfacet
  facet normal 0 -0 1
    outer loop
      vertex 3.89933 1.26697 19
      vertex -3.89933 -1.26697 19
      vertex 4.1 0 19
    endloop
  endfacet
  facet normal 0 -0 1
    outer loop
      vertex 3.31697 2.40992 19
      vertex -3.89933 -1.26697 19
      vertex 3.89933 1.26697 19
    endloop
  endfacet
  facet normal 0 -0 1
    outer loop
      vertex 2.40992 3.31697 19
      vertex -3.89933 -1.26697 19
      vertex 3.31697 2.40992 19
    endloop
  endfacet
  facet normal 0 -0 1
    outer loop
      vertex 1.26697 3.89933 19
      vertex -3.89933 -1.26697 19
      vertex 2.40992 3.31697 19
    endloop
  endfacet
  facet normal 0 -0 1
    outer loop
      vertex 0 4.1 19
      vertex -3.89933 -1.26697 19
      vertex 1.26697 3.89933 19
    endloop
  endfacet
  facet normal 0 -0 1
    outer loop
      vertex -1.26697 3.89933 19
      vertex -3.89933 -1.26697 19
      vertex 0 4.1 19
    endloop
  endfacet
  facet normal 0 -0 1
    outer loop
      vertex -2.40992 3.31697 19
      vertex -3.89933 -1.26697 19
      vertex -1.26697 3.89933 19
    endloop
  endfacet
  facet normal 0 -0 1
    outer loop
      vertex -3.31697 2.40992 19
      vertex -3.89933 -1.26697 19
      vertex -2.40992 3.31697 19
    endloop
  endfacet
  facet normal 0 -0 1
    outer loop
      vertex -3.89933 1.26697 19
      vertex -3.89933 -1.26697 19
      vertex -3.31697 2.40992 19
    endloop
  endfacet
  facet normal 0 0 1
    outer loop
      vertex -4.1 0 19
      vertex -3.89933 -1.26697 19
      vertex -3.89933 1.26697 19
    endloop
  endfacet
endsolid OpenSCAD_Model
