solid Default
  facet normal 9.948503e-01 -1.013550e-01 -1.241241e-17
    outer loop
      vertex -1.386901e+01 -9.703217e+00 7.466667e-01
      vertex -1.507930e+01 -2.158280e+01 7.466667e-01
      vertex -1.386901e+01 -9.703217e+00 1.554312e-15
    endloop
  endfacet
  facet normal 9.948503e-01 -1.013550e-01 -2.226952e-08
    outer loop
      vertex -1.386901e+01 -9.703217e+00 1.554312e-15
      vertex -1.507930e+01 -2.158280e+01 7.466667e-01
      vertex -1.513044e+01 -2.208480e+01 0.000000e+00
    endloop
  endfacet
  facet normal 0.000000e+00 -1.224647e-16 1.000000e+00
    outer loop
      vertex -1.844084e+01 -9.729088e+00 7.466667e-01
      vertex -1.507930e+01 -2.158280e+01 7.466667e-01
      vertex -1.386901e+01 -9.703217e+00 7.466667e-01
    endloop
  endfacet
  facet normal 0.000000e+00 1.224647e-16 -1.000000e+00
    outer loop
      vertex 4.826253e-01 -6.103786e+00 1.998401e-15
      vertex 1.082758e+01 -5.341826e+00 1.998401e-15
      vertex 2.713715e+01 -9.471171e+00 1.554312e-15
    endloop
  endfacet
  facet normal 0.000000e+00 1.224647e-16 -1.000000e+00
    outer loop
      vertex 2.713715e+01 -9.471171e+00 1.554312e-15
      vertex 1.082758e+01 -5.341826e+00 1.998401e-15
      vertex 1.646539e+01 -3.743029e+00 2.220446e-15
    endloop
  endfacet
  facet normal 0.000000e+00 1.224647e-16 -1.000000e+00
    outer loop
      vertex 2.713715e+01 -9.471171e+00 1.554312e-15
      vertex 1.646539e+01 -3.743029e+00 2.220446e-15
      vertex 2.764872e+01 -7.723877e+00 1.776357e-15
    endloop
  endfacet
  facet normal 0.000000e+00 1.224647e-16 -1.000000e+00
    outer loop
      vertex 2.764872e+01 -7.723877e+00 1.776357e-15
      vertex 1.646539e+01 -3.743029e+00 2.220446e-15
      vertex 2.027899e+01 -8.661004e-01 2.664535e-15
    endloop
  endfacet
  facet normal 0.000000e+00 1.224647e-16 -1.000000e+00
    outer loop
      vertex 2.764872e+01 -7.723877e+00 1.776357e-15
      vertex 2.027899e+01 -8.661004e-01 2.664535e-15
      vertex 2.315591e+01 3.482742e+00 3.108624e-15
    endloop
  endfacet
  facet normal 0.000000e+00 1.224647e-16 -1.000000e+00
    outer loop
      vertex -1.386901e+01 -9.703217e+00 1.554312e-15
      vertex -1.625410e+01 -2.084824e+00 2.442491e-15
      vertex -1.063421e+01 -5.341826e+00 1.998401e-15
    endloop
  endfacet
  facet normal 0.000000e+00 1.224647e-16 -1.000000e+00
    outer loop
      vertex 2.764872e+01 -7.723877e+00 1.776357e-15
      vertex 2.315591e+01 3.482742e+00 3.108624e-15
      vertex 2.764872e+01 1.268569e+01 4.218847e-15
    endloop
  endfacet
  facet normal 0.000000e+00 1.224647e-16 -1.000000e+00
    outer loop
      vertex 2.764872e+01 1.268569e+01 4.218847e-15
      vertex 2.315591e+01 3.482742e+00 3.108624e-15
      vertex 2.469474e+01 8.166112e+00 3.774758e-15
    endloop
  endfacet
  facet normal 0.000000e+00 1.224647e-16 -1.000000e+00
    outer loop
      vertex 2.764872e+01 1.268569e+01 4.218847e-15
      vertex 2.469474e+01 8.166112e+00 3.774758e-15
      vertex 2.496236e+01 1.268569e+01 4.218847e-15
    endloop
  endfacet
  facet normal 0.000000e+00 1.224647e-16 -1.000000e+00
    outer loop
      vertex 2.713715e+01 -9.471171e+00 1.554312e-15
      vertex -1.386901e+01 -9.703217e+00 1.554312e-15
      vertex 4.826253e-01 -6.103786e+00 1.998401e-15
    endloop
  endfacet
  facet normal 0.000000e+00 1.224647e-16 -1.000000e+00
    outer loop
      vertex 4.826253e-01 -6.103786e+00 1.998401e-15
      vertex -1.386901e+01 -9.703217e+00 1.554312e-15
      vertex -1.063421e+01 -5.341826e+00 1.998401e-15
    endloop
  endfacet
  facet normal 0.000000e+00 1.224647e-16 -1.000000e+00
    outer loop
      vertex -1.625410e+01 -2.084824e+00 2.442491e-15
      vertex -1.386901e+01 -9.703217e+00 1.554312e-15
      vertex -2.028521e+01 3.958935e+00 3.108624e-15
    endloop
  endfacet
  facet normal 0.000000e+00 1.224647e-16 -1.000000e+00
    outer loop
      vertex -2.028521e+01 3.958935e+00 3.108624e-15
      vertex -1.386901e+01 -9.703217e+00 1.554312e-15
      vertex -1.513044e+01 -2.208480e+01 0.000000e+00
    endloop
  endfacet
  facet normal 0.000000e+00 1.224647e-16 -1.000000e+00
    outer loop
      vertex -2.028521e+01 3.958935e+00 3.108624e-15
      vertex -1.513044e+01 -2.208480e+01 0.000000e+00
      vertex -2.433241e+01 1.673289e+01 4.662937e-15
    endloop
  endfacet
  facet normal 0.000000e+00 1.224647e-16 -1.000000e+00
    outer loop
      vertex -2.433241e+01 1.673289e+01 4.662937e-15
      vertex -1.513044e+01 -2.208480e+01 0.000000e+00
      vertex -2.764872e+01 2.205812e+01 5.329071e-15
    endloop
  endfacet
  facet normal 0.000000e+00 1.224647e-16 -1.000000e+00
    outer loop
      vertex -2.433241e+01 1.673289e+01 4.662937e-15
      vertex -2.764872e+01 2.205812e+01 5.329071e-15
      vertex -2.605202e+01 2.208480e+01 5.329071e-15
    endloop
  endfacet
  facet normal 5.658733e-03 -9.999840e-01 -3.178080e-06
    outer loop
      vertex -1.835804e+01 -9.728620e+00 1.066667e+00
      vertex -1.844084e+01 -9.729088e+00 7.466667e-01
      vertex 2.713715e+01 -9.471171e+00 1.066667e+00
    endloop
  endfacet
  facet normal 5.658540e-03 -9.999840e-01 2.396751e-05
    outer loop
      vertex 2.713715e+01 -9.471171e+00 1.066667e+00
      vertex -1.844084e+01 -9.729088e+00 7.466667e-01
      vertex -1.386901e+01 -9.703217e+00 7.466667e-01
    endloop
  endfacet
  facet normal 5.658729e-03 -9.999840e-01 -1.224627e-16
    outer loop
      vertex 2.713715e+01 -9.471171e+00 1.066667e+00
      vertex -1.386901e+01 -9.703217e+00 7.466667e-01
      vertex 2.713715e+01 -9.471171e+00 1.554312e-15
    endloop
  endfacet
  facet normal 5.658729e-03 -9.999840e-01 -1.224627e-16
    outer loop
      vertex 2.713715e+01 -9.471171e+00 1.554312e-15
      vertex -1.386901e+01 -9.703217e+00 7.466667e-01
      vertex -1.386901e+01 -9.703217e+00 1.554312e-15
    endloop
  endfacet
  facet normal -1.671081e-02 9.998604e-01 -6.065450e-08
    outer loop
      vertex -2.764872e+01 2.205812e+01 5.329071e-15
      vertex -2.737359e+01 2.206272e+01 1.066667e+00
      vertex -2.605202e+01 2.208480e+01 5.329071e-15
    endloop
  endfacet
  facet normal -1.671076e-02 9.998604e-01 1.224476e-16
    outer loop
      vertex -2.605202e+01 2.208480e+01 5.329071e-15
      vertex -2.737359e+01 2.206272e+01 1.066667e+00
      vertex -2.605202e+01 2.208480e+01 1.066667e+00
    endloop
  endfacet
  facet normal 9.520618e-01 3.059058e-01 3.746265e-17
    outer loop
      vertex -2.605202e+01 2.208480e+01 1.066667e+00
      vertex -2.433241e+01 1.673289e+01 1.066667e+00
      vertex -2.605202e+01 2.208480e+01 5.329071e-15
    endloop
  endfacet
  facet normal 9.520618e-01 3.059058e-01 3.746265e-17
    outer loop
      vertex -2.605202e+01 2.208480e+01 5.329071e-15
      vertex -2.433241e+01 1.673289e+01 1.066667e+00
      vertex -2.433241e+01 1.673289e+01 4.662937e-15
    endloop
  endfacet
  facet normal -8.072152e-01 -5.384027e-01 2.419219e-01
    outer loop
      vertex -2.089941e+01 3.802316e+00 6.066667e+00
      vertex -2.204528e+01 3.273632e+00 1.066667e+00
      vertex -1.651766e+01 -2.767142e+00 6.066667e+00
    endloop
  endfacet
  facet normal -8.072151e-01 -5.384029e-01 2.419218e-01
    outer loop
      vertex -1.651766e+01 -2.767142e+00 6.066667e+00
      vertex -2.204528e+01 3.273632e+00 1.066667e+00
      vertex -1.739378e+01 -3.700255e+00 1.066667e+00
    endloop
  endfacet
  facet normal 0.000000e+00 -1.224647e-16 1.000000e+00
    outer loop
      vertex 2.764872e+01 1.268569e+01 1.066667e+00
      vertex 2.660168e+01 1.268569e+01 1.066667e+00
      vertex 2.764872e+01 -7.723877e+00 1.066667e+00
    endloop
  endfacet
  facet normal 0.000000e+00 -1.224647e-16 1.000000e+00
    outer loop
      vertex 2.764872e+01 -7.723877e+00 1.066667e+00
      vertex 2.660168e+01 1.268569e+01 1.066667e+00
      vertex 2.660168e+01 7.764137e+00 1.066667e+00
    endloop
  endfacet
  facet normal 0.000000e+00 -1.224647e-16 1.000000e+00
    outer loop
      vertex 2.764872e+01 -7.723877e+00 1.066667e+00
      vertex 2.660168e+01 7.764137e+00 1.066667e+00
      vertex 2.432664e+01 1.322452e+00 1.066667e+00
    endloop
  endfacet
  facet normal 0.000000e+00 -1.224647e-16 1.000000e+00
    outer loop
      vertex 2.051786e+01 -2.997566e+00 1.066667e+00
      vertex 2.713715e+01 -9.471171e+00 1.066667e+00
      vertex 2.432664e+01 1.322452e+00 1.066667e+00
    endloop
  endfacet
  facet normal 0.000000e+00 -1.224647e-16 1.000000e+00
    outer loop
      vertex 2.432664e+01 1.322452e+00 1.066667e+00
      vertex 2.713715e+01 -9.471171e+00 1.066667e+00
      vertex 2.764872e+01 -7.723877e+00 1.066667e+00
    endloop
  endfacet
  facet normal 0.000000e+00 -1.224647e-16 1.000000e+00
    outer loop
      vertex 2.051786e+01 -2.997566e+00 1.066667e+00
      vertex 1.564538e+01 -5.907882e+00 1.066667e+00
      vertex 2.713715e+01 -9.471171e+00 1.066667e+00
    endloop
  endfacet
  facet normal 0.000000e+00 -1.224647e-16 1.000000e+00
    outer loop
      vertex 2.713715e+01 -9.471171e+00 1.066667e+00
      vertex 1.564538e+01 -5.907882e+00 1.066667e+00
      vertex 1.082285e+01 -7.275483e+00 1.066667e+00
    endloop
  endfacet
  facet normal 0.000000e+00 -1.224647e-16 1.000000e+00
    outer loop
      vertex 2.713715e+01 -9.471171e+00 1.066667e+00
      vertex 1.082285e+01 -7.275483e+00 1.066667e+00
      vertex -1.835804e+01 -9.728620e+00 1.066667e+00
    endloop
  endfacet
  facet normal 0.000000e+00 -1.224647e-16 1.000000e+00
    outer loop
      vertex -1.835804e+01 -9.728620e+00 1.066667e+00
      vertex 1.082285e+01 -7.275483e+00 1.066667e+00
      vertex 4.813774e-01 -8.037186e+00 1.066667e+00
    endloop
  endfacet
  facet normal 0.000000e+00 -1.224647e-16 1.000000e+00
    outer loop
      vertex -1.835804e+01 -9.728620e+00 1.066667e+00
      vertex 4.813774e-01 -8.037186e+00 1.066667e+00
      vertex -1.130436e+01 -7.229379e+00 1.066667e+00
    endloop
  endfacet
  facet normal 0.000000e+00 -1.224647e-16 1.000000e+00
    outer loop
      vertex -2.204528e+01 3.273632e+00 1.066667e+00
      vertex -1.835804e+01 -9.728620e+00 1.066667e+00
      vertex -1.739378e+01 -3.700255e+00 1.066667e+00
    endloop
  endfacet
  facet normal 0.000000e+00 -1.224647e-16 1.000000e+00
    outer loop
      vertex -1.739378e+01 -3.700255e+00 1.066667e+00
      vertex -1.835804e+01 -9.728620e+00 1.066667e+00
      vertex -1.130436e+01 -7.229379e+00 1.066667e+00
    endloop
  endfacet
  facet normal -4.865322e-01 -8.395000e-01 2.419218e-01
    outer loop
      vertex -1.651766e+01 -2.767142e+00 6.066667e+00
      vertex -1.739378e+01 -3.700255e+00 1.066667e+00
      vertex -1.093000e+01 -6.005474e+00 6.066667e+00
    endloop
  endfacet
  facet normal -4.865322e-01 -8.395000e-01 2.419218e-01
    outer loop
      vertex -1.093000e+01 -6.005474e+00 6.066667e+00
      vertex -1.739378e+01 -3.700255e+00 1.066667e+00
      vertex -1.130436e+01 -7.229379e+00 1.066667e+00
    endloop
  endfacet
  facet normal 0.000000e+00 -1.224647e-16 1.000000e+00
    outer loop
      vertex -2.433241e+01 1.673289e+01 6.066667e+00
      vertex -2.456523e+01 1.672899e+01 6.066667e+00
      vertex -2.028521e+01 3.958935e+00 6.066667e+00
    endloop
  endfacet
  facet normal 0.000000e+00 -1.224647e-16 1.000000e+00
    outer loop
      vertex -2.028521e+01 3.958935e+00 6.066667e+00
      vertex -2.456523e+01 1.672899e+01 6.066667e+00
      vertex -2.089941e+01 3.802316e+00 6.066667e+00
    endloop
  endfacet
  facet normal 0.000000e+00 -1.224647e-16 1.000000e+00
    outer loop
      vertex -2.028521e+01 3.958935e+00 6.066667e+00
      vertex -2.089941e+01 3.802316e+00 6.066667e+00
      vertex -1.625410e+01 -2.084824e+00 6.066667e+00
    endloop
  endfacet
  facet normal 0.000000e+00 -1.224647e-16 1.000000e+00
    outer loop
      vertex -1.625410e+01 -2.084824e+00 6.066667e+00
      vertex -2.089941e+01 3.802316e+00 6.066667e+00
      vertex -1.651766e+01 -2.767142e+00 6.066667e+00
    endloop
  endfacet
  facet normal 0.000000e+00 -1.224647e-16 1.000000e+00
    outer loop
      vertex -1.625410e+01 -2.084824e+00 6.066667e+00
      vertex -1.651766e+01 -2.767142e+00 6.066667e+00
      vertex -1.063421e+01 -5.341826e+00 6.066667e+00
    endloop
  endfacet
  facet normal 0.000000e+00 -1.224647e-16 1.000000e+00
    outer loop
      vertex -1.063421e+01 -5.341826e+00 6.066667e+00
      vertex -1.651766e+01 -2.767142e+00 6.066667e+00
      vertex -1.093000e+01 -6.005474e+00 6.066667e+00
    endloop
  endfacet
  facet normal 0.000000e+00 -1.224647e-16 1.000000e+00
    outer loop
      vertex -1.063421e+01 -5.341826e+00 6.066667e+00
      vertex -1.093000e+01 -6.005474e+00 6.066667e+00
      vertex 4.826253e-01 -6.103786e+00 6.066667e+00
    endloop
  endfacet
  facet normal 0.000000e+00 -1.224647e-16 1.000000e+00
    outer loop
      vertex 4.826253e-01 -6.103786e+00 6.066667e+00
      vertex -1.093000e+01 -6.005474e+00 6.066667e+00
      vertex 4.781960e-01 -6.787403e+00 6.066667e+00
    endloop
  endfacet
  facet normal 0.000000e+00 -1.224647e-16 1.000000e+00
    outer loop
      vertex 4.826253e-01 -6.103786e+00 6.066667e+00
      vertex 4.781960e-01 -6.787403e+00 6.066667e+00
      vertex 1.082758e+01 -5.341826e+00 6.066667e+00
    endloop
  endfacet
  facet normal 0.000000e+00 -1.224647e-16 1.000000e+00
    outer loop
      vertex 1.082758e+01 -5.341826e+00 6.066667e+00
      vertex 4.781960e-01 -6.787403e+00 6.066667e+00
      vertex 1.060476e+01 -6.041529e+00 6.066667e+00
    endloop
  endfacet
  facet normal 0.000000e+00 -1.224647e-16 1.000000e+00
    outer loop
      vertex 1.082758e+01 -5.341826e+00 6.066667e+00
      vertex 1.060476e+01 -6.041529e+00 6.066667e+00
      vertex 1.646539e+01 -3.743029e+00 6.066667e+00
    endloop
  endfacet
  facet normal 0.000000e+00 -1.224647e-16 1.000000e+00
    outer loop
      vertex 1.646539e+01 -3.743029e+00 6.066667e+00
      vertex 1.060476e+01 -6.041529e+00 6.066667e+00
      vertex 1.514719e+01 -4.753366e+00 6.066667e+00
    endloop
  endfacet
  facet normal 0.000000e+00 -1.224647e-16 1.000000e+00
    outer loop
      vertex 1.646539e+01 -3.743029e+00 6.066667e+00
      vertex 1.514719e+01 -4.753366e+00 6.066667e+00
      vertex 2.027899e+01 -8.661004e-01 6.066667e+00
    endloop
  endfacet
  facet normal 0.000000e+00 -1.224647e-16 1.000000e+00
    outer loop
      vertex 2.027899e+01 -8.661004e-01 6.066667e+00
      vertex 1.514719e+01 -4.753366e+00 6.066667e+00
      vertex 1.971149e+01 -2.027121e+00 6.066667e+00
    endloop
  endfacet
  facet normal 0.000000e+00 -1.224647e-16 1.000000e+00
    outer loop
      vertex 2.027899e+01 -8.661004e-01 6.066667e+00
      vertex 1.971149e+01 -2.027121e+00 6.066667e+00
      vertex 2.315591e+01 3.482742e+00 6.066667e+00
    endloop
  endfacet
  facet normal 0.000000e+00 -1.224647e-16 1.000000e+00
    outer loop
      vertex 2.315591e+01 3.482742e+00 6.066667e+00
      vertex 1.971149e+01 -2.027121e+00 6.066667e+00
      vertex 2.323166e+01 1.965554e+00 6.066667e+00
    endloop
  endfacet
  facet normal 0.000000e+00 -1.224647e-16 1.000000e+00
    outer loop
      vertex 2.315591e+01 3.482742e+00 6.066667e+00
      vertex 2.323166e+01 1.965554e+00 6.066667e+00
      vertex 2.469474e+01 8.166112e+00 6.066667e+00
    endloop
  endfacet
  facet normal 0.000000e+00 -1.224647e-16 1.000000e+00
    outer loop
      vertex 2.469474e+01 8.166112e+00 6.066667e+00
      vertex 2.323166e+01 1.965554e+00 6.066667e+00
      vertex 2.535504e+01 7.977810e+00 6.066667e+00
    endloop
  endfacet
  facet normal 0.000000e+00 -1.224647e-16 1.000000e+00
    outer loop
      vertex 2.469474e+01 8.166112e+00 6.066667e+00
      vertex 2.535504e+01 7.977810e+00 6.066667e+00
      vertex 2.496236e+01 1.268569e+01 6.066667e+00
    endloop
  endfacet
  facet normal 0.000000e+00 -1.224647e-16 1.000000e+00
    outer loop
      vertex 2.496236e+01 1.268569e+01 6.066667e+00
      vertex 2.535504e+01 7.977810e+00 6.066667e+00
      vertex 2.535504e+01 1.268569e+01 6.066667e+00
    endloop
  endfacet
  facet normal 9.149124e-01 -3.231242e-01 2.419216e-01
    outer loop
      vertex 2.323166e+01 1.965554e+00 6.066667e+00
      vertex 2.432664e+01 1.322452e+00 1.066667e+00
      vertex 2.535504e+01 7.977810e+00 6.066667e+00
    endloop
  endfacet
  facet normal 9.149125e-01 -3.231241e-01 2.419216e-01
    outer loop
      vertex 2.535504e+01 7.977810e+00 6.066667e+00
      vertex 2.432664e+01 1.322452e+00 1.066667e+00
      vertex 2.660168e+01 7.764137e+00 1.066667e+00
    endloop
  endfacet
  facet normal 9.702958e-01 -2.962686e-17 2.419217e-01
    outer loop
      vertex 2.535504e+01 7.977810e+00 6.066667e+00
      vertex 2.660168e+01 7.764137e+00 1.066667e+00
      vertex 2.535504e+01 1.268569e+01 6.066667e+00
    endloop
  endfacet
  facet normal 9.702958e-01 -2.962686e-17 2.419217e-01
    outer loop
      vertex 2.535504e+01 1.268569e+01 6.066667e+00
      vertex 2.660168e+01 7.764137e+00 1.066667e+00
      vertex 2.660168e+01 1.268569e+01 1.066667e+00
    endloop
  endfacet
  facet normal 0.000000e+00 1.000000e+00 1.224647e-16
    outer loop
      vertex 2.764872e+01 1.268569e+01 1.066667e+00
      vertex 2.764872e+01 1.268569e+01 4.218847e-15
      vertex 2.660168e+01 1.268569e+01 1.066667e+00
    endloop
  endfacet
  facet normal 0.000000e+00 1.000000e+00 1.224647e-16
    outer loop
      vertex 2.660168e+01 1.268569e+01 1.066667e+00
      vertex 2.764872e+01 1.268569e+01 4.218847e-15
      vertex 2.496236e+01 1.268569e+01 4.218847e-15
    endloop
  endfacet
  facet normal 0.000000e+00 1.000000e+00 1.224647e-16
    outer loop
      vertex 2.660168e+01 1.268569e+01 1.066667e+00
      vertex 2.496236e+01 1.268569e+01 4.218847e-15
      vertex 2.535504e+01 1.268569e+01 6.066667e+00
    endloop
  endfacet
  facet normal 0.000000e+00 1.000000e+00 1.224647e-16
    outer loop
      vertex 2.535504e+01 1.268569e+01 6.066667e+00
      vertex 2.496236e+01 1.268569e+01 4.218847e-15
      vertex 2.496236e+01 1.268569e+01 6.066667e+00
    endloop
  endfacet
  facet normal -9.982515e-01 5.910935e-02 7.238806e-18
    outer loop
      vertex 2.469474e+01 8.166112e+00 3.774758e-15
      vertex 2.469474e+01 8.166112e+00 6.066667e+00
      vertex 2.496236e+01 1.268569e+01 4.218847e-15
    endloop
  endfacet
  facet normal -9.982515e-01 5.910935e-02 7.238806e-18
    outer loop
      vertex 2.496236e+01 1.268569e+01 4.218847e-15
      vertex 2.469474e+01 8.166112e+00 6.066667e+00
      vertex 2.496236e+01 1.268569e+01 6.066667e+00
    endloop
  endfacet
  facet normal -9.500313e-01 3.121545e-01 3.822790e-17
    outer loop
      vertex 2.315591e+01 3.482742e+00 3.108624e-15
      vertex 2.315591e+01 3.482742e+00 6.066667e+00
      vertex 2.469474e+01 8.166112e+00 3.774758e-15
    endloop
  endfacet
  facet normal -9.500313e-01 3.121545e-01 3.822790e-17
    outer loop
      vertex 2.469474e+01 8.166112e+00 3.774758e-15
      vertex 2.315591e+01 3.482742e+00 6.066667e+00
      vertex 2.469474e+01 8.166112e+00 6.066667e+00
    endloop
  endfacet
  facet normal -8.340193e-01 5.517352e-01 6.756806e-17
    outer loop
      vertex 2.027899e+01 -8.661004e-01 2.664535e-15
      vertex 2.027899e+01 -8.661004e-01 6.066667e+00
      vertex 2.315591e+01 3.482742e+00 3.108624e-15
    endloop
  endfacet
  facet normal -8.340193e-01 5.517352e-01 6.756806e-17
    outer loop
      vertex 2.315591e+01 3.482742e+00 3.108624e-15
      vertex 2.027899e+01 -8.661004e-01 6.066667e+00
      vertex 2.315591e+01 3.482742e+00 6.066667e+00
    endloop
  endfacet
  facet normal -6.022384e-01 7.983162e-01 9.776556e-17
    outer loop
      vertex 1.646539e+01 -3.743029e+00 2.220446e-15
      vertex 1.646539e+01 -3.743029e+00 6.066667e+00
      vertex 2.027899e+01 -8.661004e-01 2.664535e-15
    endloop
  endfacet
  facet normal -6.022384e-01 7.983162e-01 9.776556e-17
    outer loop
      vertex 2.027899e+01 -8.661004e-01 2.664535e-15
      vertex 1.646539e+01 -3.743029e+00 6.066667e+00
      vertex 2.027899e+01 -8.661004e-01 6.066667e+00
    endloop
  endfacet
  facet normal -2.728268e-01 9.620632e-01 1.178188e-16
    outer loop
      vertex 1.082758e+01 -5.341826e+00 1.998401e-15
      vertex 1.082758e+01 -5.341826e+00 6.066667e+00
      vertex 1.646539e+01 -3.743029e+00 2.220446e-15
    endloop
  endfacet
  facet normal -2.728268e-01 9.620632e-01 1.178188e-16
    outer loop
      vertex 1.646539e+01 -3.743029e+00 2.220446e-15
      vertex 1.082758e+01 -5.341826e+00 6.066667e+00
      vertex 1.646539e+01 -3.743029e+00 6.066667e+00
    endloop
  endfacet
  facet normal -7.345621e-02 9.972984e-01 1.221338e-16
    outer loop
      vertex 4.826253e-01 -6.103786e+00 1.998401e-15
      vertex 4.826253e-01 -6.103786e+00 6.066667e+00
      vertex 1.082758e+01 -5.341826e+00 1.998401e-15
    endloop
  endfacet
  facet normal -7.345621e-02 9.972984e-01 1.221338e-16
    outer loop
      vertex 1.082758e+01 -5.341826e+00 1.998401e-15
      vertex 4.826253e-01 -6.103786e+00 6.066667e+00
      vertex 1.082758e+01 -5.341826e+00 6.066667e+00
    endloop
  endfacet
  facet normal 6.838060e-02 9.976593e-01 1.221780e-16
    outer loop
      vertex -1.063421e+01 -5.341826e+00 1.998401e-15
      vertex -1.063421e+01 -5.341826e+00 6.066667e+00
      vertex 4.826253e-01 -6.103786e+00 1.998401e-15
    endloop
  endfacet
  facet normal 6.838060e-02 9.976593e-01 1.221780e-16
    outer loop
      vertex 4.826253e-01 -6.103786e+00 1.998401e-15
      vertex -1.063421e+01 -5.341826e+00 6.066667e+00
      vertex 4.826253e-01 -6.103786e+00 6.066667e+00
    endloop
  endfacet
  facet normal 5.014264e-01 8.652003e-01 1.059565e-16
    outer loop
      vertex -1.625410e+01 -2.084824e+00 2.442491e-15
      vertex -1.625410e+01 -2.084824e+00 6.066667e+00
      vertex -1.063421e+01 -5.341826e+00 1.998401e-15
    endloop
  endfacet
  facet normal 5.014264e-01 8.652003e-01 1.059565e-16
    outer loop
      vertex -1.063421e+01 -5.341826e+00 1.998401e-15
      vertex -1.625410e+01 -2.084824e+00 6.066667e+00
      vertex -1.063421e+01 -5.341826e+00 6.066667e+00
    endloop
  endfacet
  facet normal 8.319271e-01 5.548849e-01 6.795380e-17
    outer loop
      vertex -2.028521e+01 3.958935e+00 3.108624e-15
      vertex -2.028521e+01 3.958935e+00 6.066667e+00
      vertex -1.625410e+01 -2.084824e+00 2.442491e-15
    endloop
  endfacet
  facet normal 8.319271e-01 5.548849e-01 6.795380e-17
    outer loop
      vertex -1.625410e+01 -2.084824e+00 2.442491e-15
      vertex -2.028521e+01 3.958935e+00 6.066667e+00
      vertex -1.625410e+01 -2.084824e+00 6.066667e+00
    endloop
  endfacet
  facet normal 9.532970e-01 3.020347e-01 3.698858e-17
    outer loop
      vertex -2.433241e+01 1.673289e+01 4.662937e-15
      vertex -2.433241e+01 1.673289e+01 1.066667e+00
      vertex -2.028521e+01 3.958935e+00 3.108624e-15
    endloop
  endfacet
  facet normal 9.532970e-01 3.020347e-01 3.698858e-17
    outer loop
      vertex -2.028521e+01 3.958935e+00 3.108624e-15
      vertex -2.433241e+01 1.673289e+01 1.066667e+00
      vertex -2.028521e+01 3.958935e+00 6.066667e+00
    endloop
  endfacet
  facet normal 9.532970e-01 3.020347e-01 3.698858e-17
    outer loop
      vertex -2.433241e+01 1.673289e+01 1.066667e+00
      vertex -2.433241e+01 1.673289e+01 6.066667e+00
      vertex -2.028521e+01 3.958935e+00 6.066667e+00
    endloop
  endfacet
  facet normal -1.671077e-02 9.998604e-01 1.224476e-16
    outer loop
      vertex -2.433241e+01 1.673289e+01 1.066667e+00
      vertex -2.585491e+01 1.670744e+01 1.066667e+00
      vertex -2.433241e+01 1.673289e+01 6.066667e+00
    endloop
  endfacet
  facet normal -1.671034e-02 9.998604e-01 -1.329331e-07
    outer loop
      vertex -2.433241e+01 1.673289e+01 6.066667e+00
      vertex -2.585491e+01 1.670744e+01 1.066667e+00
      vertex -2.456523e+01 1.672899e+01 6.066667e+00
    endloop
  endfacet
  facet normal -6.634939e-02 -9.680246e-01 2.419218e-01
    outer loop
      vertex -1.093000e+01 -6.005474e+00 6.066667e+00
      vertex -1.130436e+01 -7.229379e+00 1.066667e+00
      vertex 4.781960e-01 -6.787403e+00 6.066667e+00
    endloop
  endfacet
  facet normal -6.634942e-02 -9.680246e-01 2.419219e-01
    outer loop
      vertex 4.781960e-01 -6.787403e+00 6.066667e+00
      vertex -1.130436e+01 -7.229379e+00 1.066667e+00
      vertex 4.813774e-01 -8.037186e+00 1.066667e+00
    endloop
  endfacet
  facet normal 7.127422e-02 -9.676745e-01 2.419219e-01
    outer loop
      vertex 4.781960e-01 -6.787403e+00 6.066667e+00
      vertex 4.813774e-01 -8.037186e+00 1.066667e+00
      vertex 1.060476e+01 -6.041529e+00 6.066667e+00
    endloop
  endfacet
  facet normal 7.127422e-02 -9.676744e-01 2.419219e-01
    outer loop
      vertex 1.060476e+01 -6.041529e+00 6.066667e+00
      vertex 4.813774e-01 -8.037186e+00 1.066667e+00
      vertex 1.082285e+01 -7.275483e+00 1.066667e+00
    endloop
  endfacet
  facet normal 2.647226e-01 -9.334858e-01 2.419220e-01
    outer loop
      vertex 1.060476e+01 -6.041529e+00 6.066667e+00
      vertex 1.082285e+01 -7.275483e+00 1.066667e+00
      vertex 1.514719e+01 -4.753366e+00 6.066667e+00
    endloop
  endfacet
  facet normal 2.647229e-01 -9.334858e-01 2.419217e-01
    outer loop
      vertex 1.514719e+01 -4.753366e+00 6.066667e+00
      vertex 1.082285e+01 -7.275483e+00 1.066667e+00
      vertex 1.564538e+01 -5.907882e+00 1.066667e+00
    endloop
  endfacet
  facet normal 4.975562e-01 -8.330136e-01 2.419218e-01
    outer loop
      vertex 1.514719e+01 -4.753366e+00 6.066667e+00
      vertex 1.564538e+01 -5.907882e+00 1.066667e+00
      vertex 1.971149e+01 -2.027121e+00 6.066667e+00
    endloop
  endfacet
  facet normal 4.975564e-01 -8.330136e-01 2.419217e-01
    outer loop
      vertex 1.971149e+01 -2.027121e+00 6.066667e+00
      vertex 1.564538e+01 -5.907882e+00 1.066667e+00
      vertex 2.051786e+01 -2.997566e+00 1.066667e+00
    endloop
  endfacet
  facet normal 7.278159e-01 -6.416838e-01 2.419214e-01
    outer loop
      vertex 1.971149e+01 -2.027121e+00 6.066667e+00
      vertex 2.051786e+01 -2.997566e+00 1.066667e+00
      vertex 2.323166e+01 1.965554e+00 6.066667e+00
    endloop
  endfacet
  facet normal 7.278157e-01 -6.416839e-01 2.419217e-01
    outer loop
      vertex 2.323166e+01 1.965554e+00 6.066667e+00
      vertex 2.051786e+01 -2.997566e+00 1.066667e+00
      vertex 2.432664e+01 1.322452e+00 1.066667e+00
    endloop
  endfacet
  facet normal 0.000000e+00 -1.224647e-16 1.000000e+00
    outer loop
      vertex -2.737359e+01 2.206272e+01 1.066667e+00
      vertex -2.585491e+01 1.670744e+01 1.066667e+00
      vertex -2.605202e+01 2.208480e+01 1.066667e+00
    endloop
  endfacet
  facet normal 0.000000e+00 -1.224647e-16 1.000000e+00
    outer loop
      vertex -2.605202e+01 2.208480e+01 1.066667e+00
      vertex -2.585491e+01 1.670744e+01 1.066667e+00
      vertex -2.433241e+01 1.673289e+01 1.066667e+00
    endloop
  endfacet
  facet normal 1.000000e+00 0.000000e+00 0.000000e+00
    outer loop
      vertex 2.764872e+01 1.268569e+01 1.066667e+00
      vertex 2.764872e+01 -7.723877e+00 1.066667e+00
      vertex 2.764872e+01 1.268569e+01 4.218847e-15
    endloop
  endfacet
  facet normal 1.000000e+00 0.000000e+00 0.000000e+00
    outer loop
      vertex 2.764872e+01 1.268569e+01 4.218847e-15
      vertex 2.764872e+01 -7.723877e+00 1.066667e+00
      vertex 2.764872e+01 -7.723877e+00 1.776357e-15
    endloop
  endfacet
  facet normal 9.597124e-01 -2.809842e-01 -3.441064e-17
    outer loop
      vertex 2.764872e+01 -7.723877e+00 1.066667e+00
      vertex 2.713715e+01 -9.471171e+00 1.066667e+00
      vertex 2.764872e+01 -7.723877e+00 1.776357e-15
    endloop
  endfacet
  facet normal 9.597124e-01 -2.809842e-01 -3.441064e-17
    outer loop
      vertex 2.764872e+01 -7.723877e+00 1.776357e-15
      vertex 2.713715e+01 -9.471171e+00 1.066667e+00
      vertex 2.713715e+01 -9.471171e+00 1.554312e-15
    endloop
  endfacet
  facet normal -9.334857e-01 -2.647228e-01 2.419220e-01
    outer loop
      vertex -2.456523e+01 1.672899e+01 6.066667e+00
      vertex -2.585491e+01 1.670744e+01 1.066667e+00
      vertex -2.204528e+01 3.273632e+00 1.066667e+00
    endloop
  endfacet
  facet normal -9.334856e-01 -2.647227e-01 2.419225e-01
    outer loop
      vertex -2.204528e+01 3.273632e+00 1.066667e+00
      vertex -2.585491e+01 1.670744e+01 1.066667e+00
      vertex -2.764872e+01 2.205812e+01 5.329071e-15
    endloop
  endfacet
  facet normal -9.334855e-01 -2.647226e-01 2.419231e-01
    outer loop
      vertex -2.204528e+01 3.273632e+00 1.066667e+00
      vertex -2.764872e+01 2.205812e+01 5.329071e-15
      vertex -1.835804e+01 -9.728620e+00 1.066667e+00
    endloop
  endfacet
  facet normal -9.334859e-01 -2.647228e-01 2.419213e-01
    outer loop
      vertex -1.835804e+01 -9.728620e+00 1.066667e+00
      vertex -2.764872e+01 2.205812e+01 5.329071e-15
      vertex -1.844084e+01 -9.729088e+00 7.466667e-01
    endloop
  endfacet
  facet normal -9.334857e-01 -2.647229e-01 2.419221e-01
    outer loop
      vertex -2.585491e+01 1.670744e+01 1.066667e+00
      vertex -2.737359e+01 2.206272e+01 1.066667e+00
      vertex -2.764872e+01 2.205812e+01 5.329071e-15
    endloop
  endfacet
  facet normal -9.334858e-01 -2.647227e-01 2.419219e-01
    outer loop
      vertex -2.456523e+01 1.672899e+01 6.066667e+00
      vertex -2.204528e+01 3.273632e+00 1.066667e+00
      vertex -2.089941e+01 3.802316e+00 6.066667e+00
    endloop
  endfacet
  facet normal -9.334855e-01 -2.647227e-01 2.419230e-01
    outer loop
      vertex -1.513044e+01 -2.208480e+01 0.000000e+00
      vertex -1.507930e+01 -2.158280e+01 7.466667e-01
      vertex -2.764872e+01 2.205812e+01 5.329071e-15
    endloop
  endfacet
  facet normal -9.334870e-01 -2.647233e-01 2.419164e-01
    outer loop
      vertex -2.764872e+01 2.205812e+01 5.329071e-15
      vertex -1.507930e+01 -2.158280e+01 7.466667e-01
      vertex -1.844084e+01 -9.729088e+00 7.466667e-01
    endloop
  endfacet
endsolid Default
