solid unicorn2
facet normal 0.966752978997124 0.255712099049276 7.47733457421172e-015
outer loop
vertex 25.747564457038 16.0453618744318 1.42716908271259e-013
vertex 28.7964511675673 4.51864756960328 3.00000000000039
vertex 28.7964511675674 4.51864756960324 3.94605182492568e-013
endloop
endfacet
facet normal 0.966752978997124 0.255712099049276 7.47733457421172e-015
outer loop
vertex 28.7964511675673 4.51864756960328 3.00000000000039
vertex 25.747564457038 16.0453618744318 1.42716908271259e-013
vertex 25.7475644570379 16.0453618744318 3.00000000000014
endloop
endfacet
facet normal 0.0214665287071894 -0.999769567523069 1.58663210427538e-014
outer loop
vertex 20.3800356256713 2.90066319680371 3.53577198382688e-013
vertex 18.6300356256697 2.90066319680376 3.00000000000035
vertex 18.6300356256697 2.90066319680371 3.53508346159561e-013
endloop
endfacet
facet normal 1.51470685003712e-031 -1.0 1.50398212402555e-014
outer loop
vertex 18.6300356256697 2.90066319680376 3.00000000000035
vertex 20.3800356256713 2.90066319680371 3.53577198382688e-013
vertex 20.3800356256713 2.90066319680376 3.00000000000035
endloop
endfacet
facet normal -1.0 -8.88178419700468e-016 -1.19595253416067e-014
outer loop
vertex 21.8800356256712 16.6506631968041 3.00000000000011
vertex 21.8800356256712 30.2979048873587 -9.89136182532418e-014
vertex 21.8800356256712 16.650663196804 1.09835958443592e-013
endloop
endfacet
facet normal -1.0 -8.88178419700468e-016 -1.19595253416067e-014
outer loop
vertex 21.8800356256712 30.2979048873587 -9.89136182532418e-014
vertex 21.8800356256712 16.6506631968041 3.00000000000011
vertex 21.8800356256712 30.2979048873588 2.9999999999999
endloop
endfacet
facet normal -0.0473010245511361 0.998880680099687 -1.27858101886217e-014
outer loop
vertex 15.6300356256683 30.2979048873587 -9.00816786932899e-014
vertex 16.3800356256683 30.2979048873588 2.9999999999999
vertex 16.3800356256683 30.2979048873587 -9.90513226994949e-014
endloop
endfacet
facet normal -1.35441615327096e-028 1.0 -1.12798659301916e-014
outer loop
vertex 16.3800356256683 30.2979048873588 2.9999999999999
vertex 15.6300356256683 30.2979048873587 -9.00816786932899e-014
vertex 15.6300356256683 30.2979048873588 2.99999999999991
endloop
endfacet
facet normal -8.88178419700333e-016 1.0 -1.12798659301916e-014
outer loop
vertex 21.8800356256712 30.2979048873588 2.9999999999999
vertex 22.6300356256712 30.2979048873587 -8.99439742470368e-014
vertex 21.8800356256712 30.2979048873587 -9.89136182532418e-014
endloop
endfacet
facet normal 0.0473010245511334 0.998880680099687 -1.3236797181777e-014
outer loop
vertex 22.6300356256712 30.2979048873587 -8.99439742470368e-014
vertex 21.8800356256712 30.2979048873588 2.9999999999999
vertex 22.6300356256712 30.2979048873588 2.99999999999991
endloop
endfacet
facet normal 0.0889506782068398 -0.99603603190173 1.7243878557512e-014
outer loop
vertex 22.8079724843617 3.00497406473146 3.796340865898e-013
vertex 20.3800356256713 2.90066319680376 3.00000000000035
vertex 20.3800356256713 2.90066319680371 3.53577198382688e-013
endloop
endfacet
facet normal 0.0214665287071892 -0.999769567523069 1.58663210427538e-014
outer loop
vertex 20.3800356256713 2.90066319680376 3.00000000000035
vertex 22.8079724843617 3.00497406473146 3.796340865898e-013
vertex 22.8079724843617 3.0049740647315 3.00000000000038
endloop
endfacet
facet normal 0.382377083057076 -0.924006367052069 1.96009744280826e-014
outer loop
vertex 28.2676306624628 4.26530534414387 4.99159063873768e-013
vertex 26.7228445912065 3.72238177682217 3.00000000000045
vertex 26.7228445912065 3.7223817768221 4.47840016849513e-013
endloop
endfacet
facet normal 0.281999358199487 -0.959414593371957 1.89728840441831e-014
outer loop
vertex 26.7228445912065 3.72238177682217 3.00000000000045
vertex 28.2676306624628 4.26530534414387 4.99159063873768e-013
vertex 28.2676306624627 4.2653053441439 3.00000000000049
endloop
endfacet
facet normal 0.281999358199486 -0.959414593371957 1.89728840441831e-014
outer loop
vertex 26.7228445912065 3.7223817768221 4.47840016849513e-013
vertex 24.9123447244304 3.29123243288168 3.00000000000043
vertex 24.9123447244304 3.29123243288161 4.30667428875164e-013
endloop
endfacet
facet normal 0.183447356617601 -0.983029535339613 1.8204550625708e-014
outer loop
vertex 24.9123447244304 3.29123243288168 3.00000000000043
vertex 26.7228445912065 3.7223817768221 4.47840016849513e-013
vertex 26.7228445912065 3.72238177682217 3.00000000000045
endloop
endfacet
facet normal 0.1834473566176 -0.983029535339613 1.8204550625708e-014
outer loop
vertex 24.9123447244304 3.29123243288161 4.30667428875164e-013
vertex 22.8079724843617 3.0049740647315 3.00000000000038
vertex 22.8079724843617 3.00497406473146 3.796340865898e-013
endloop
endfacet
facet normal 0.0889506782068405 -0.99603603190173 1.7243878557512e-014
outer loop
vertex 22.8079724843617 3.0049740647315 3.00000000000038
vertex 24.9123447244304 3.29123243288161 4.30667428875164e-013
vertex 24.9123447244304 3.29123243288168 3.00000000000043
endloop
endfacet
facet normal 2.06389126483859e-031 1.0 -1.12798659301916e-014
outer loop
vertex 16.3800356256683 16.6506631968041 3.00000000000011
vertex 21.8800356256712 16.650663196804 1.09835958443592e-013
vertex 16.3800356256682 16.650663196804 1.09698253997339e-013
endloop
endfacet
facet normal 2.06389126483859e-031 1.0 -1.12798659301916e-014
outer loop
vertex 21.8800356256712 16.650663196804 1.09835958443592e-013
vertex 16.3800356256683 16.6506631968041 3.00000000000011
vertex 21.8800356256712 16.6506631968041 3.00000000000011
endloop
endfacet
facet normal 0.131306539154689 0.991341814297782 -1.45878330883704e-014
outer loop
vertex 23.6135499486035 30.2045488140612 2.99999999999994
vertex 25.0113785619025 29.9664201334752 -4.48348361314165e-014
vertex 23.6135499486035 30.2045488140612 -5.42102227533166e-014
endloop
endfacet
facet normal 0.208982428075513 0.977919395837747 -1.33621365723812e-014
outer loop
vertex 25.0113785619025 29.9664201334752 -4.48348361314165e-014
vertex 23.6135499486035 30.2045488140612 2.99999999999994
vertex 25.0113785619024 29.9664201334752 2.99999999999996
endloop
endfacet
facet normal 0.99547518066101 0.0950219168819978 1.03545318654195e-014
outer loop
vertex 33.8800356256712 16.4006631968043 2.35698350893519e-013
vertex 34.0085764316895 15.3583764121821 3.00000000000026
vertex 34.0085764316895 15.358376412182 2.66399157632423e-013
endloop
endfacet
facet normal 0.993072026263081 0.117507236601574 9.96459686992044e-015
outer loop
vertex 34.0085764316895 15.3583764121821 3.00000000000026
vertex 33.8800356256712 16.4006631968043 2.35698350893519e-013
vertex 33.8800356256712 16.4006631968043 3.00000000000024
endloop
endfacet
facet normal 0.993072026263081 0.117507236601574 9.96459686992044e-015
outer loop
vertex 34.0085764316895 15.358376412182 2.66399157632423e-013
vertex 34.1133618988772 14.4338048075348 3.00000000000029
vertex 34.1133618988773 14.4338048075347 2.95301594939915e-013
endloop
endfacet
facet normal 0.994746351431391 0.10237038787626 1.0232884818407e-014
outer loop
vertex 34.1133618988772 14.4338048075348 3.00000000000029
vertex 34.0085764316895 15.358376412182 2.66399157632423e-013
vertex 34.0085764316895 15.3583764121821 3.00000000000026
endloop
endfacet
facet normal -0.819671411941926 -0.572833986810428 2.14377168871334e-014
outer loop
vertex 5.37602367229954 7.77323423876988 3.00000000000049
vertex 4.92007562409596 8.51197857908129 4.49880365985042e-013
vertex 5.3760236722995 7.77323423876984 4.88738556446153e-013
endloop
endfacet
facet normal -0.878943593266776 -0.476925738302399 2.12847593951873e-014
outer loop
vertex 4.92007562409596 8.51197857908129 4.49880365985042e-013
vertex 5.37602367229954 7.77323423876988 3.00000000000049
vertex 4.920075624096 8.51197857908134 3.00000000000045
endloop
endfacet
facet normal 0.997185167362039 0.0749782768082971 1.0706357563648e-014
outer loop
vertex 34.1907721303647 13.5970287829024 3.11662898537455e-013
vertex 34.2356535617253 12.8220685103478 3.00000000000034
vertex 34.2356535617253 12.8220685103478 3.38525831972617e-013
endloop
endfacet
facet normal 0.99946285254279 0.032772036662813 1.14196713284815e-014
outer loop
vertex 34.2356535617253 12.8220685103478 3.00000000000034
vertex 34.1907721303647 13.5970287829024 3.11662898537455e-013
vertex 34.1907721303646 13.5970287829025 3.00000000000031
endloop
endfacet
facet normal 0.994746351431391 0.10237038787626 1.0232884818407e-014
outer loop
vertex 34.1133618988773 14.4338048075347 2.95301594939915e-013
vertex 34.1907721303646 13.5970287829025 3.00000000000031
vertex 34.1907721303647 13.5970287829024 3.11662898537455e-013
endloop
endfacet
facet normal 0.997185167362039 0.074978276808297 1.0706357563648e-014
outer loop
vertex 34.1907721303646 13.5970287829025 3.00000000000031
vertex 34.1133618988773 14.4338048075347 2.95301594939915e-013
vertex 34.1133618988772 14.4338048075348 3.00000000000029
endloop
endfacet
facet normal -0.878943593266775 -0.4769257383024 2.12847593951873e-014
outer loop
vertex 4.920075624096 8.51197857908134 3.00000000000045
vertex 4.57567401858338 9.24099349255677 4.43130833544712e-013
vertex 4.92007562409596 8.51197857908129 4.49880365985042e-013
endloop
endfacet
facet normal -0.925860993894164 -0.377864287787706 1.7917270059706e-014
outer loop
vertex 4.57567401858338 9.24099349255677 4.43130833544712e-013
vertex 4.920075624096 8.51197857908134 3.00000000000045
vertex 4.57567401858342 9.24099349255681 3.00000000000044
endloop
endfacet
facet normal -0.925860993894164 -0.377864287787707 1.79172700597061e-014
outer loop
vertex 4.57567401858342 9.24099349255681 3.00000000000044
vertex 4.32692961844047 9.95868040297189 4.14806054020814e-013
vertex 4.57567401858338 9.24099349255677 4.43130833544712e-013
endloop
endfacet
facet normal -0.960271167665635 -0.27906860187072 1.45004180500113e-014
outer loop
vertex 4.32692961844047 9.95868040297189 4.14806054020814e-013
vertex 4.57567401858342 9.24099349255681 3.00000000000044
vertex 4.32692961844049 9.95868040297192 3.00000000000041
endloop
endfacet
facet normal -0.960271167665635 -0.279068601870721 1.45004180500113e-014
outer loop
vertex 4.32692961844049 9.95868040297192 3.00000000000041
vertex 4.1594868539023 10.6673805061253 4.12686845716259e-013
vertex 4.32692961844047 9.95868040297189 4.14806054020814e-013
endloop
endfacet
facet normal -0.98281825835524 -0.184575922166391 1.55091105146522e-014
outer loop
vertex 4.1594868539023 10.6673805061253 4.12686845716259e-013
vertex 4.32692961844049 9.95868040297192 3.00000000000041
vertex 4.15948685390235 10.6673805061253 3.00000000000041
endloop
endfacet
facet normal 0.0473010245511343 0.998880680099687 -1.3236797181777e-014
outer loop
vertex 22.6300356256712 30.2979048873588 2.99999999999991
vertex 23.6135499486035 30.2045488140612 -5.42102227533166e-014
vertex 22.6300356256712 30.2979048873587 -8.99439742470368e-014
endloop
endfacet
facet normal 0.131306539154688 0.991341814297782 -1.45878330883704e-014
outer loop
vertex 23.6135499486035 30.2045488140612 -5.42102227533166e-014
vertex 22.6300356256712 30.2979048873588 2.99999999999991
vertex 23.6135499486035 30.2045488140612 2.99999999999994
endloop
endfacet
facet normal -0.982818258355239 -0.184575922166392 1.55091105146522e-014
outer loop
vertex 4.15948685390235 10.6673805061253 3.00000000000041
vertex 4.0605238227605 11.3733747698387 3.8016119711522e-013
vertex 4.1594868539023 10.6673805061253 4.12686845716259e-013
endloop
endfacet
facet normal -0.995116094224361 -0.0987114938376126 1.45723816620559e-014
outer loop
vertex 4.0605238227605 11.3733747698387 3.8016119711522e-013
vertex 4.15948685390235 10.6673805061253 3.00000000000041
vertex 4.06052382276055 11.3733747698387 3.00000000000038
endloop
endfacet
facet normal -0.995116094224361 -0.0987114938376142 1.4572381662056e-014
outer loop
vertex 4.06052382276055 11.3733747698387 3.00000000000038
vertex 4.018752290363 12.0868839339569 3.50801954178941e-013
vertex 4.0605238227605 11.3733747698387 3.8016119711522e-013
endloop
endfacet
facet normal -0.999677804136077 -0.0253828272198148 1.16576487783221e-014
outer loop
vertex 4.018752290363 12.0868839339569 3.50801954178941e-013
vertex 4.06052382276055 11.3733747698387 3.00000000000038
vertex 4.01875229036302 12.0868839339569 3.00000000000035
endloop
endfacet
facet normal -0.999677804136077 -0.0253828272198154 1.16576487783221e-014
outer loop
vertex 4.01875229036302 12.0868839339569 3.00000000000035
vertex 4.02441768961414 12.8220685103478 3.38388127526364e-013
vertex 4.018752290363 12.0868839339569 3.50801954178941e-013
endloop
endfacet
facet normal -0.99946285254279 0.0327720366628119 1.26040228264544e-014
outer loop
vertex 4.02441768961414 12.8220685103478 3.38388127526364e-013
vertex 4.01875229036302 12.0868839339569 3.00000000000035
vertex 4.02441768961418 12.8220685103478 3.00000000000034
endloop
endfacet
facet normal -0.99946285254279 0.0327720366628116 1.26040228264544e-014
outer loop
vertex 4.02441768961418 12.8220685103478 3.00000000000034
vertex 4.06929912097481 13.5970287829024 3.11525194091202e-013
vertex 4.02441768961414 12.8220685103478 3.38388127526364e-013
endloop
endfacet
facet normal -0.997185167362039 0.0749782768083032 1.16828179028976e-014
outer loop
vertex 4.06929912097481 13.5970287829024 3.11525194091202e-013
vertex 4.02441768961418 12.8220685103478 3.00000000000034
vertex 4.06929912097486 13.5970287829025 3.00000000000031
endloop
endfacet
facet normal -0.997185167362039 0.0749782768083031 1.16828179028976e-014
outer loop
vertex 4.06929912097486 13.5970287829025 3.00000000000031
vertex 4.14670935246221 14.4338048075347 2.95163890493662e-013
vertex 4.06929912097481 13.5970287829024 3.11525194091202e-013
endloop
endfacet
facet normal -0.994746351431391 0.102370387876261 7.23427848593838e-015
outer loop
vertex 4.14670935246221 14.4338048075347 2.95163890493662e-013
vertex 4.06929912097486 13.5970287829025 3.00000000000031
vertex 4.14670935246223 14.4338048075348 3.00000000000029
endloop
endfacet
facet normal -0.994746351431391 0.102370387876261 7.23427848593839e-015
outer loop
vertex 4.14670935246223 14.4338048075348 3.00000000000029
vertex 4.25149481964999 15.358376412182 2.6626145318617e-013
vertex 4.14670935246221 14.4338048075347 2.95163890493662e-013
endloop
endfacet
facet normal -0.993072026263081 0.117507236601577 5.15156866067826e-015
outer loop
vertex 4.25149481964999 15.358376412182 2.6626145318617e-013
vertex 4.14670935246223 14.4338048075348 3.00000000000029
vertex 4.25149481965001 15.3583764121821 3.00000000000026
endloop
endfacet
facet normal -0.993072026263081 0.117507236601577 5.15156866067827e-015
outer loop
vertex 4.25149481965001 15.3583764121821 3.00000000000026
vertex 4.38003562566823 16.4006631968043 2.35560646447266e-013
vertex 4.25149481964999 15.358376412182 2.6626145318617e-013
endloop
endfacet
facet normal -0.99547518066101 0.0950219168819987 5.69833851977152e-015
outer loop
vertex 4.38003562566823 16.4006631968043 2.35560646447266e-013
vertex 4.25149481965001 15.3583764121821 3.00000000000026
vertex 4.38003562566825 16.4006631968043 3.00000000000024
endloop
endfacet
facet normal -0.208982428075512 0.977919395837747 -1.72514537635637e-014
outer loop
vertex 13.248692689437 29.9664201334752 -4.49725405776696e-014
vertex 14.646521302736 30.2045488140612 2.99999999999994
vertex 14.6465213027359 30.2045488140612 -5.43479271995697e-014
endloop
endfacet
facet normal -0.131306539154689 0.991341814297782 -1.57766735313916e-014
outer loop
vertex 14.646521302736 30.2045488140612 2.99999999999994
vertex 13.248692689437 29.9664201334752 -4.49725405776696e-014
vertex 13.248692689437 29.9664201334752 2.99999999999996
endloop
endfacet
facet normal -0.131306539154689 0.991341814297782 -1.57766735313916e-014
outer loop
vertex 14.6465213027359 30.2045488140612 -5.43479271995697e-014
vertex 15.6300356256683 30.2979048873588 2.99999999999991
vertex 15.6300356256683 30.2979048873587 -9.00816786932899e-014
endloop
endfacet
facet normal -0.047301024551137 0.998880680099687 -1.27858101886217e-014
outer loop
vertex 15.6300356256683 30.2979048873588 2.99999999999991
vertex 14.6465213027359 30.2045488140612 -5.43479271995697e-014
vertex 14.646521302736 30.2045488140612 2.99999999999994
endloop
endfacet
facet normal -0.0214665287071907 -0.999769567523068 1.52787746313474e-014
outer loop
vertex 17.8800356256682 2.90066319680376 3.00000000000035
vertex 15.4520987669778 3.00497406473146 3.79496382143547e-013
vertex 17.8800356256681 2.90066319680371 3.53439493936435e-013
endloop
endfacet
facet normal -0.0889506782068424 -0.996036031901729 1.75958746913835e-014
outer loop
vertex 15.4520987669778 3.00497406473146 3.79496382143547e-013
vertex 17.8800356256682 2.90066319680376 3.00000000000035
vertex 15.4520987669778 3.0049740647315 3.00000000000038
endloop
endfacet
facet normal -0.0889506782068431 -0.996036031901729 1.75958746913836e-014
outer loop
vertex 15.4520987669778 3.0049740647315 3.00000000000038
vertex 13.3477265269091 3.29123243288161 4.30529724428911e-013
vertex 15.4520987669778 3.00497406473146 3.79496382143547e-013
endloop
endfacet
facet normal -0.183447356617599 -0.983029535339613 2.212567902943e-014
outer loop
vertex 13.3477265269091 3.29123243288161 4.30529724428911e-013
vertex 15.4520987669778 3.0049740647315 3.00000000000038
vertex 13.3477265269091 3.29123243288168 3.00000000000043
endloop
endfacet
facet normal -0.1834473566176 -0.983029535339613 2.212567902943e-014
outer loop
vertex 13.3477265269091 3.29123243288168 3.00000000000043
vertex 11.5372266601329 3.7223817768221 4.4770231240326e-013
vertex 13.3477265269091 3.29123243288161 4.30529724428911e-013
endloop
endfacet
facet normal -0.281999358199487 -0.959414593371957 2.27873756006182e-014
outer loop
vertex 11.5372266601329 3.7223817768221 4.4770231240326e-013
vertex 13.3477265269091 3.29123243288168 3.00000000000043
vertex 11.537226660133 3.72238177682217 3.00000000000045
endloop
endfacet
facet normal -0.281999358199487 -0.959414593371957 2.27873756006181e-014
outer loop
vertex 11.537226660133 3.72238177682217 3.00000000000045
vertex 9.99244058887669 4.26530534414387 4.99021359427515e-013
vertex 11.5372266601329 3.7223817768221 4.4770231240326e-013
endloop
endfacet
facet normal -0.382377083057078 -0.924006367052068 1.96937744271819e-014
outer loop
vertex 9.99244058887669 4.26530534414387 4.99021359427515e-013
vertex 11.537226660133 3.72238177682217 3.00000000000045
vertex 9.99244058887674 4.2653053441439 3.00000000000049
endloop
endfacet
facet normal -0.382377083057078 -0.924006367052068 1.96937744271819e-014
outer loop
vertex 9.99244058887669 4.26530534414387 4.99021359427515e-013
vertex 9.46362008377216 4.51864756960328 3.00000000000039
vertex 9.46362008377211 4.51864756960324 3.94467478046315e-013
endloop
endfacet
facet normal -0.432049537080198 -0.90184987526128 1.83703513126738e-014
outer loop
vertex 9.46362008377216 4.51864756960328 3.00000000000039
vertex 9.99244058887669 4.26530534414387 4.99021359427515e-013
vertex 9.99244058887674 4.2653053441439 3.00000000000049
endloop
endfacet
facet normal -0.966752978997124 0.255712099049276 1.11856381279637e-014
outer loop
vertex 9.46362008377216 4.51864756960328 3.00000000000039
vertex 12.5125067943015 16.0453618744318 1.42579203825006e-013
vertex 9.46362008377211 4.51864756960324 3.94467478046315e-013
endloop
endfacet
facet normal -0.966752978997124 0.255712099049276 1.11856381279637e-014
outer loop
vertex 12.5125067943015 16.0453618744318 1.42579203825006e-013
vertex 9.46362008377216 4.51864756960328 3.00000000000039
vertex 12.5125067943016 16.0453618744318 3.00000000000014
endloop
endfacet
facet normal -0.255497002688682 -0.966809847703828 1.83783044817492e-014
outer loop
vertex 12.5125067943015 16.0453618744318 1.42579203825006e-013
vertex 8.15855073297908 17.1959735755312 3.00000000000014
vertex 8.15855073297904 17.1959735755312 1.37765778529862e-013
endloop
endfacet
facet normal -0.255497002688682 -0.966809847703828 1.83783044817492e-014
outer loop
vertex 8.15855073297908 17.1959735755312 3.00000000000014
vertex 12.5125067943015 16.0453618744318 1.42579203825006e-013
vertex 12.5125067943016 16.0453618744318 3.00000000000014
endloop
endfacet
facet normal 0.966752978997124 -0.255712099049275 -1.01924292857275e-014
outer loop
vertex 8.15855073297904 17.1959735755312 1.37765778529862e-013
vertex 5.59321120528022 7.49737253255101 3.00000000000037
vertex 5.59321120528017 7.49737253255096 3.71134974428792e-013
endloop
endfacet
facet normal 0.966752978997124 -0.255712099049275 -1.01924292857275e-014
outer loop
vertex 5.59321120528022 7.49737253255101 3.00000000000037
vertex 8.15855073297904 17.1959735755312 1.37765778529862e-013
vertex 8.15855073297908 17.1959735755312 3.00000000000014
endloop
endfacet
facet normal -0.785710458966897 -0.618594434722807 2.11245388460815e-014
outer loop
vertex 5.59321120528022 7.49737253255101 3.00000000000037
vertex 5.3760236722995 7.77323423876984 4.88738556446153e-013
vertex 5.59321120528017 7.49737253255096 3.71134974428792e-013
endloop
endfacet
facet normal -0.81967141194192 -0.572833986810437 2.14377168871333e-014
outer loop
vertex 5.3760236722995 7.77323423876984 4.88738556446153e-013
vertex 5.59321120528022 7.49737253255101 3.00000000000037
vertex 5.37602367229954 7.77323423876988 3.00000000000049
endloop
endfacet
facet normal -0.99547518066101 0.0950219168819986 5.69833851977152e-015
outer loop
vertex 4.38003562566825 16.4006631968043 3.00000000000024
vertex 4.45342908985453 17.4843119166616 2.26261646072436e-013
vertex 4.38003562566823 16.4006631968043 2.35560646447266e-013
endloop
endfacet
facet normal -0.997029433836807 0.0770214779334779 6.04892839219496e-015
outer loop
vertex 4.45342908985453 17.4843119166616 2.26261646072436e-013
vertex 4.38003562566825 16.4006631968043 3.00000000000024
vertex 4.45342908985455 17.4843119166617 3.00000000000023
endloop
endfacet
facet normal -0.997029433836807 0.0770214779334781 6.04892839219496e-015
outer loop
vertex 4.45342908985455 17.4843119166617 3.00000000000023
vertex 4.54640671927688 18.5556337521161 2.31433656045835e-013
vertex 4.45342908985453 17.4843119166616 2.26261646072436e-013
endloop
endfacet
facet normal -0.995016018865938 0.0997152054612458 5.60816823031973e-015
outer loop
vertex 4.54640671927688 18.5556337521161 2.31433656045835e-013
vertex 4.45342908985455 17.4843119166617 3.00000000000023
vertex 4.5464067192769 18.5556337521161 3.00000000000023
endloop
endfacet
facet normal -0.995016018865938 0.0997152054612461 5.60816823031972e-015
outer loop
vertex 4.5464067192769 18.5556337521161 3.00000000000023
vertex 4.66625898702426 19.6099525046057 2.17376735100361e-013
vertex 4.54640671927688 18.5556337521161 2.31433656045835e-013
endloop
endfacet
facet normal -0.991480721907925 0.130253514674034 7.00725873495055e-015
outer loop
vertex 4.66625898702426 19.6099525046057 2.17376735100361e-013
vertex 4.5464067192769 18.5556337521161 3.00000000000023
vertex 4.66625898702429 19.6099525046058 3.00000000000022
endloop
endfacet
facet normal -0.991480721907926 0.130253514674035 7.00725873495057e-015
outer loop
vertex 4.66625898702429 19.6099525046058 3.00000000000022
vertex 4.82027636618561 20.6425919755686 2.15250171067517e-013
vertex 4.66625898702426 19.6099525046057 2.17376735100361e-013
endloop
endfacet
facet normal -0.985591479014956 0.169143242528668 8.07820370538184e-015
outer loop
vertex 4.82027636618561 20.6425919755686 2.15250171067517e-013
vertex 4.66625898702429 19.6099525046058 3.00000000000022
vertex 4.82027636618565 20.6425919755687 3.00000000000021
endloop
endfacet
facet normal -0.985591479014956 0.169143242528668 8.07820370538184e-015
outer loop
vertex 4.82027636618565 20.6425919755687 3.00000000000021
vertex 5.01574932984994 21.6488759664428 1.99813922127847e-013
vertex 4.82027636618561 20.6425919755686 2.15250171067517e-013
endloop
endfacet
facet normal -0.976198410474095 0.216879375201634 8.75817744522653e-015
outer loop
vertex 5.01574932984994 21.6488759664428 1.99813922127847e-013
vertex 4.82027636618565 20.6425919755687 3.00000000000021
vertex 5.01574932984996 21.6488759664429 3.0000000000002
endloop
endfacet
facet normal -0.976198410474095 0.216879375201635 8.75817744522654e-015
outer loop
vertex 5.01574932984996 21.6488759664429 3.0000000000002
vertex 5.25996835110615 22.6241282786665 1.79667544252467e-013
vertex 5.01574932984994 21.6488759664428 1.99813922127847e-013
endloop
endfacet
facet normal -0.961785996804411 0.273802294276265 9.31743760188079e-015
outer loop
vertex 5.25996835110615 22.6241282786665 1.79667544252467e-013
vertex 5.01574932984996 21.6488759664429 3.0000000000002
vertex 5.25996835110622 22.6241282786665 3.00000000000018
endloop
endfacet
facet normal -0.96178599680441 0.273802294276266 9.31743760188078e-015
outer loop
vertex 5.25996835110622 22.6241282786665 3.00000000000018
vertex 5.56022390304332 23.5636727136775 1.80330392307785e-013
vertex 5.25996835110615 22.6241282786665 1.79667544252467e-013
endloop
endfacet
facet normal -0.940469340099774 0.339878537616448 4.26558639886365e-015
outer loop
vertex 5.56022390304332 23.5636727136775 1.80330392307785e-013
vertex 5.25996835110622 22.6241282786665 3.00000000000018
vertex 5.56022390304334 23.5636727136776 3.00000000000018
endloop
endfacet
facet normal -0.940469340099774 0.339878537616448 4.26558639886362e-015
outer loop
vertex 5.56022390304334 23.5636727136776 3.00000000000018
vertex 5.92380645875032 24.4628330729142 1.42722826683768e-013
vertex 5.56022390304332 23.5636727136775 1.80330392307785e-013
endloop
endfacet
facet normal -0.910092181582907 0.414405865090813 7.31837358653662e-016
outer loop
vertex 5.92380645875032 24.4628330729142 1.42722826683768e-013
vertex 5.56022390304334 23.5636727136776 3.00000000000018
vertex 5.92380645875035 24.4628330729142 3.00000000000014
endloop
endfacet
facet normal -0.910092181582907 0.414405865090814 7.31837358653665e-016
outer loop
vertex 5.92380645875035 24.4628330729142 3.00000000000014
vertex 6.35800649131613 25.3169331578144 1.54403464862878e-013
vertex 5.92380645875032 24.4628330729142 1.42722826683768e-013
endloop
endfacet
facet normal -0.868498094480907 0.495692505373073 2.06743705848283e-015
outer loop
vertex 6.35800649131613 25.3169331578144 1.54403464862878e-013
vertex 5.92380645875035 24.4628330729142 3.00000000000014
vertex 6.35800649131618 25.3169331578145 3.00000000000015
endloop
endfacet
facet normal -0.868498094480906 0.495692505373074 2.06743705848284e-015
outer loop
vertex 6.35800649131618 25.3169331578145 3.00000000000015
vertex 6.87011447382978 26.1212967698164 1.19633102961958e-013
vertex 6.35800649131613 25.3169331578144 1.54403464862878e-013
endloop
endfacet
facet normal -0.814017640869063 0.580840150432084 2.49245638392358e-015
outer loop
vertex 6.87011447382978 26.1212967698164 1.19633102961958e-013
vertex 6.35800649131618 25.3169331578145 3.00000000000015
vertex 6.87011447382982 26.1212967698164 3.00000000000012
endloop
endfacet
facet normal -0.814017640869063 0.580840150432084 2.49245638392358e-015
outer loop
vertex 6.87011447382982 26.1212967698164 3.00000000000012
vertex 7.46742087938017 26.871247710358 1.17510459015827e-013
vertex 6.87011447382978 26.1212967698164 1.19633102961958e-013
endloop
endfacet
facet normal -0.746105765509972 0.665827445118312 -1.27322952590823e-016
outer loop
vertex 7.46742087938017 26.871247710358 1.17510459015827e-013
vertex 6.87011447382982 26.1212967698164 3.00000000000012
vertex 7.46742087938021 26.8712477103581 3.00000000000012
endloop
endfacet
facet normal -0.746105765509972 0.665827445118312 -1.27322952590831e-016
outer loop
vertex 7.46742087938021 26.8712477103581 3.00000000000012
vertex 8.15721618105631 27.5621097808776 8.33159604493554e-014
vertex 7.46742087938017 26.871247710358 1.17510459015827e-013
endloop
endfacet
facet normal -0.665892212995198 0.746047961375378 -5.48253200916524e-015
outer loop
vertex 8.15721618105631 27.5621097808776 8.33159604493554e-014
vertex 7.46742087938021 26.8712477103581 3.00000000000012
vertex 8.15721618105635 27.5621097808776 3.00000000000008
endloop
endfacet
facet normal -0.665892212995198 0.746047961375378 -5.48253200916524e-015
outer loop
vertex 8.15721618105631 27.5621097808776 8.33159604493554e-014
vertex 8.94679085194721 28.189206782813 3.00000000000004
vertex 8.94679085194716 28.189206782813 4.25689621289502e-014
endloop
endfacet
facet normal -0.576306685769196 0.817233506372399 -9.15858211367845e-015
outer loop
vertex 8.94679085194721 28.189206782813 3.00000000000004
vertex 8.15721618105631 27.5621097808776 8.33159604493554e-014
vertex 8.15721618105635 27.5621097808776 3.00000000000008
endloop
endfacet
facet normal -0.576306685769196 0.817233506372399 -9.15858211367845e-015
outer loop
vertex 8.94679085194716 28.189206782813 4.25689621289502e-014
vertex 9.84343536514174 28.7478625176024 3.00000000000003
vertex 9.84343536514171 28.7478625176024 3.48886513337561e-014
endloop
endfacet
facet normal -0.481584101768576 0.876399881859733 -9.34059557289644e-015
outer loop
vertex 9.84343536514174 28.7478625176024 3.00000000000003
vertex 8.94679085194716 28.189206782813 4.25689621289502e-014
vertex 8.94679085194721 28.189206782813 3.00000000000004
endloop
endfacet
facet normal -0.481584101768576 0.876399881859733 -9.34059557289644e-015
outer loop
vertex 9.84343536514171 28.7478625176024 3.48886513337561e-014
vertex 10.8544401937289 29.2334007866839 3.00000000000001
vertex 10.8544401937289 29.2334007866838 1.24752543839343e-014
endloop
endfacet
facet normal -0.386317866319156 0.922365711723183 -8.87195128340401e-015
outer loop
vertex 10.8544401937289 29.2334007866839 3.00000000000001
vertex 9.84343536514171 28.7478625176024 3.48886513337561e-014
vertex 9.84343536514174 28.7478625176024 3.00000000000003
endloop
endfacet
facet normal -0.386317866319156 0.922365711723183 -8.87195128340401e-015
outer loop
vertex 10.8544401937289 29.2334007866838 1.24752543839343e-014
vertex 11.6797028798068 29.5304870349041 2.99999999999999
vertex 11.6797028798067 29.5304870349041 -1.11028102953019e-014
endloop
endfacet
facet normal -0.33871107209046 0.940890434452031 -9.0521491241502e-015
outer loop
vertex 11.6797028798068 29.5304870349041 2.99999999999999
vertex 10.8544401937289 29.2334007866838 1.24752543839343e-014
vertex 10.8544401937289 29.2334007866839 3.00000000000001
endloop
endfacet
facet normal -0.338711072090431 0.940890434452041 -1.25936874896561e-014
outer loop
vertex 11.6797028798068 29.5304870349041 2.99999999999999
vertex 11.9870958107976 29.6411453914954 1.21279920760813e-014
vertex 11.6797028798067 29.5304870349041 -1.11028102953019e-014
endloop
endfacet
facet normal -0.294506896730087 0.955649353988383 -1.49151455883405e-014
outer loop
vertex 11.9870958107976 29.6411453914954 1.21279920760813e-014
vertex 11.6797028798068 29.5304870349041 2.99999999999999
vertex 11.9870958107977 29.6411453914955 3.00000000000001
endloop
endfacet
facet normal -0.294506896730087 0.955649353988383 -1.49151455883405e-014
outer loop
vertex 11.9870958107976 29.6411453914954 1.21279920760813e-014
vertex 13.248692689437 29.9664201334752 2.99999999999996
vertex 13.248692689437 29.9664201334752 -4.49725405776696e-014
endloop
endfacet
facet normal -0.208982428075513 0.977919395837747 -1.72514537635637e-014
outer loop
vertex 13.248692689437 29.9664201334752 2.99999999999996
vertex 11.9870958107976 29.6411453914954 1.21279920760813e-014
vertex 11.9870958107977 29.6411453914955 3.00000000000001
endloop
endfacet
facet normal 0.432049537080198 -0.90184987526128 1.98489934627998e-014
outer loop
vertex 28.7964511675673 4.51864756960328 3.00000000000039
vertex 28.2676306624628 4.26530534414387 4.99159063873768e-013
vertex 28.7964511675674 4.51864756960324 3.94605182492568e-013
endloop
endfacet
facet normal 0.382377083057076 -0.924006367052069 1.96009744280826e-014
outer loop
vertex 28.2676306624628 4.26530534414387 4.99159063873768e-013
vertex 28.7964511675673 4.51864756960328 3.00000000000039
vertex 28.2676306624627 4.2653053441439 3.00000000000049
endloop
endfacet
facet normal 0.255497002688685 -0.966809847703827 1.87484668195192e-014
outer loop
vertex 30.1015205183604 17.1959735755312 3.00000000000014
vertex 25.747564457038 16.0453618744318 1.42716908271259e-013
vertex 30.1015205183604 17.1959735755312 1.37903482976115e-013
endloop
endfacet
facet normal 0.255497002688685 -0.966809847703827 1.87484668195192e-014
outer loop
vertex 25.747564457038 16.0453618744318 1.42716908271259e-013
vertex 30.1015205183604 17.1959735755312 3.00000000000014
vertex 25.7475644570379 16.0453618744318 3.00000000000014
endloop
endfacet
facet normal -0.966752978997124 -0.255712099049275 -7.11651209120856e-015
outer loop
vertex 32.6668600460592 7.49737253255101 3.00000000000037
vertex 30.1015205183604 17.1959735755312 1.37903482976115e-013
vertex 32.6668600460593 7.49737253255096 3.71272678875045e-013
endloop
endfacet
facet normal -0.966752978997124 -0.255712099049275 -7.11651209120856e-015
outer loop
vertex 30.1015205183604 17.1959735755312 1.37903482976115e-013
vertex 32.6668600460592 7.49737253255101 3.00000000000037
vertex 30.1015205183604 17.1959735755312 3.00000000000014
endloop
endfacet
facet normal 0.819671411941922 -0.572833986810433 1.91189238690653e-014
outer loop
vertex 32.88404757904 7.77323423876984 4.88876260892406e-013
vertex 32.6668600460592 7.49737253255101 3.00000000000037
vertex 32.6668600460593 7.49737253255096 3.71272678875045e-013
endloop
endfacet
facet normal 0.785710458966902 -0.6185944347228 1.94608662079316e-014
outer loop
vertex 32.6668600460592 7.49737253255101 3.00000000000037
vertex 32.88404757904 7.77323423876984 4.88876260892406e-013
vertex 32.8840475790399 7.77323423876988 3.00000000000049
endloop
endfacet
facet normal 1.60306238451145e-017 -1.71792139894705e-014 -1.0
outer loop
vertex 4.02441768961414 12.8220685103478 3.38388127526364e-013
vertex 4.0605238227605 11.3733747698387 3.8016119711522e-013
vertex 4.018752290363 12.0868839339569 3.50801954178941e-013
endloop
endfacet
facet normal 1.60306238451145e-017 -1.71792139894705e-014 -1.0
outer loop
vertex 4.0605238227605 11.3733747698387 3.8016119711522e-013
vertex 4.02441768961414 12.8220685103478 3.38388127526364e-013
vertex 4.06929912097481 13.5970287829024 3.11525194091202e-013
endloop
endfacet
facet normal 1.60306238451145e-017 -1.71792139894705e-014 -1.0
outer loop
vertex 4.0605238227605 11.3733747698387 3.8016119711522e-013
vertex 4.06929912097481 13.5970287829024 3.11525194091202e-013
vertex 4.1594868539023 10.6673805061253 4.12686845716259e-013
endloop
endfacet
facet normal 1.60306238451145e-017 -1.71792139894705e-014 -1.0
outer loop
vertex 4.1594868539023 10.6673805061253 4.12686845716259e-013
vertex 4.06929912097481 13.5970287829024 3.11525194091202e-013
vertex 4.14670935246221 14.4338048075347 2.95163890493662e-013
endloop
endfacet
facet normal 1.60306238451145e-017 -1.71792139894705e-014 -1.0
outer loop
vertex 4.1594868539023 10.6673805061253 4.12686845716259e-013
vertex 4.14670935246221 14.4338048075347 2.95163890493662e-013
vertex 4.25149481964999 15.358376412182 2.6626145318617e-013
endloop
endfacet
facet normal 1.60306238451145e-017 -1.71792139894705e-014 -1.0
outer loop
vertex 4.1594868539023 10.6673805061253 4.12686845716259e-013
vertex 4.25149481964999 15.358376412182 2.6626145318617e-013
vertex 4.32692961844047 9.95868040297189 4.14806054020814e-013
endloop
endfacet
facet normal 1.60306238451145e-017 -1.71792139894705e-014 -1.0
outer loop
vertex 4.32692961844047 9.95868040297189 4.14806054020814e-013
vertex 4.25149481964999 15.358376412182 2.6626145318617e-013
vertex 4.38003562566823 16.4006631968043 2.35560646447266e-013
endloop
endfacet
facet normal 1.60306238451145e-017 -1.71792139894705e-014 -1.0
outer loop
vertex 4.32692961844047 9.95868040297189 4.14806054020814e-013
vertex 4.38003562566823 16.4006631968043 2.35560646447266e-013
vertex 4.57567401858338 9.24099349255677 4.43130833544712e-013
endloop
endfacet
facet normal 1.60306238451145e-017 -1.71792139894705e-014 -1.0
outer loop
vertex 4.57567401858338 9.24099349255677 4.43130833544712e-013
vertex 4.38003562566823 16.4006631968043 2.35560646447266e-013
vertex 4.45342908985453 17.4843119166616 2.26261646072436e-013
endloop
endfacet
facet normal 1.60306238451145e-017 -1.71792139894705e-014 -1.0
outer loop
vertex 4.57567401858338 9.24099349255677 4.43130833544712e-013
vertex 4.45342908985453 17.4843119166616 2.26261646072436e-013
vertex 4.54640671927688 18.5556337521161 2.31433656045835e-013
endloop
endfacet
facet normal 1.60306238451145e-017 -1.71792139894705e-014 -1.0
outer loop
vertex 4.57567401858338 9.24099349255677 4.43130833544712e-013
vertex 4.54640671927688 18.5556337521161 2.31433656045835e-013
vertex 4.66625898702426 19.6099525046057 2.17376735100361e-013
endloop
endfacet
facet normal 1.60306238451145e-017 -1.71792139894705e-014 -1.0
outer loop
vertex 4.57567401858338 9.24099349255677 4.43130833544712e-013
vertex 4.66625898702426 19.6099525046057 2.17376735100361e-013
vertex 4.92007562409596 8.51197857908129 4.49880365985042e-013
endloop
endfacet
facet normal 1.60306238451145e-017 -1.71792139894705e-014 -1.0
outer loop
vertex 4.92007562409596 8.51197857908129 4.49880365985042e-013
vertex 4.66625898702426 19.6099525046057 2.17376735100361e-013
vertex 4.82027636618561 20.6425919755686 2.15250171067517e-013
endloop
endfacet
facet normal 1.60306238451145e-017 -1.71792139894705e-014 -1.0
outer loop
vertex 4.92007562409596 8.51197857908129 4.49880365985042e-013
vertex 4.82027636618561 20.6425919755686 2.15250171067517e-013
vertex 5.01574932984994 21.6488759664428 1.99813922127847e-013
endloop
endfacet
facet normal 1.60306238451145e-017 -1.71792139894705e-014 -1.0
outer loop
vertex 4.92007562409596 8.51197857908129 4.49880365985042e-013
vertex 5.01574932984994 21.6488759664428 1.99813922127847e-013
vertex 5.3760236722995 7.77323423876984 4.88738556446153e-013
endloop
endfacet
facet normal 1.60306238451145e-017 -1.71792139894705e-014 -1.0
outer loop
vertex 5.3760236722995 7.77323423876984 4.88738556446153e-013
vertex 5.01574932984994 21.6488759664428 1.99813922127847e-013
vertex 5.25996835110615 22.6241282786665 1.79667544252467e-013
endloop
endfacet
facet normal 1.60306238451145e-017 -1.71792139894705e-014 -1.0
outer loop
vertex 5.3760236722995 7.77323423876984 4.88738556446153e-013
vertex 5.25996835110615 22.6241282786665 1.79667544252467e-013
vertex 5.56022390304332 23.5636727136775 1.80330392307785e-013
endloop
endfacet
facet normal 1.60306238451145e-017 -1.71792139894705e-014 -1.0
outer loop
vertex 5.3760236722995 7.77323423876984 4.88738556446153e-013
vertex 5.56022390304332 23.5636727136775 1.80330392307785e-013
vertex 5.59321120528017 7.49737253255096 3.71134974428792e-013
endloop
endfacet
facet normal 1.60306238451145e-017 -1.71792139894705e-014 -1.0
outer loop
vertex 5.59321120528017 7.49737253255096 3.71134974428792e-013
vertex 5.56022390304332 23.5636727136775 1.80330392307785e-013
vertex 5.92380645875032 24.4628330729142 1.42722826683768e-013
endloop
endfacet
facet normal 1.60306238451145e-017 -1.71792139894705e-014 -1.0
outer loop
vertex 5.59321120528017 7.49737253255096 3.71134974428792e-013
vertex 5.92380645875032 24.4628330729142 1.42722826683768e-013
vertex 8.15855073297904 17.1959735755312 1.37765778529862e-013
endloop
endfacet
facet normal 1.60306238451145e-017 -1.71792139894705e-014 -1.0
outer loop
vertex 8.15855073297904 17.1959735755312 1.37765778529862e-013
vertex 5.92380645875032 24.4628330729142 1.42722826683768e-013
vertex 6.35800649131613 25.3169331578144 1.54403464862878e-013
endloop
endfacet
facet normal 1.60306238451145e-017 -1.71792139894705e-014 -1.0
outer loop
vertex 8.15855073297904 17.1959735755312 1.37765778529862e-013
vertex 6.35800649131613 25.3169331578144 1.54403464862878e-013
vertex 6.87011447382978 26.1212967698164 1.19633102961958e-013
endloop
endfacet
facet normal 1.60306238451145e-017 -1.71792139894705e-014 -1.0
outer loop
vertex 8.15855073297904 17.1959735755312 1.37765778529862e-013
vertex 6.87011447382978 26.1212967698164 1.19633102961958e-013
vertex 7.46742087938017 26.871247710358 1.17510459015827e-013
endloop
endfacet
facet normal 1.60306238451145e-017 -1.71792139894705e-014 -1.0
outer loop
vertex 8.15855073297904 17.1959735755312 1.37765778529862e-013
vertex 7.46742087938017 26.871247710358 1.17510459015827e-013
vertex 8.15721618105631 27.5621097808776 8.33159604493554e-014
endloop
endfacet
facet normal 1.60306238451145e-017 -1.71792139894705e-014 -1.0
outer loop
vertex 8.15855073297904 17.1959735755312 1.37765778529862e-013
vertex 8.15721618105631 27.5621097808776 8.33159604493554e-014
vertex 8.94679085194716 28.189206782813 4.25689621289502e-014
endloop
endfacet
facet normal 1.60306238451145e-017 -1.71792139894705e-014 -1.0
outer loop
vertex 8.15855073297904 17.1959735755312 1.37765778529862e-013
vertex 8.94679085194716 28.189206782813 4.25689621289502e-014
vertex 12.5125067943015 16.0453618744318 1.42579203825006e-013
endloop
endfacet
facet normal 1.60306238451145e-017 -1.71792139894705e-014 -1.0
outer loop
vertex 12.5125067943015 16.0453618744318 1.42579203825006e-013
vertex 8.94679085194716 28.189206782813 4.25689621289502e-014
vertex 9.84343536514171 28.7478625176024 3.48886513337561e-014
endloop
endfacet
facet normal 1.60306238451145e-017 -1.71792139894705e-014 -1.0
outer loop
vertex 12.5125067943015 16.0453618744318 1.42579203825006e-013
vertex 9.84343536514171 28.7478625176024 3.48886513337561e-014
vertex 10.8544401937289 29.2334007866838 1.24752543839343e-014
endloop
endfacet
facet normal 1.60306238451145e-017 -1.71792139894705e-014 -1.0
outer loop
vertex 12.5125067943015 16.0453618744318 1.42579203825006e-013
vertex 10.8544401937289 29.2334007866838 1.24752543839343e-014
vertex 11.6797028798067 29.5304870349041 -1.11028102953019e-014
endloop
endfacet
facet normal 1.60306238451145e-017 -1.71792139894705e-014 -1.0
outer loop
vertex 12.5125067943015 16.0453618744318 1.42579203825006e-013
vertex 11.6797028798067 29.5304870349041 -1.11028102953019e-014
vertex 11.9870958107976 29.6411453914954 1.21279920760813e-014
endloop
endfacet
facet normal 1.60306238451145e-017 -1.71792139894705e-014 -1.0
outer loop
vertex 12.5125067943015 16.0453618744318 1.42579203825006e-013
vertex 11.9870958107976 29.6411453914954 1.21279920760813e-014
vertex 13.248692689437 29.9664201334752 -4.49725405776696e-014
endloop
endfacet
facet normal 1.60306238451145e-017 -1.71792139894705e-014 -1.0
outer loop
vertex 16.3800356256683 30.2979048873587 -9.90513226994949e-014
vertex 16.3800356256682 16.650663196804 1.09698253997339e-013
vertex 15.6300356256683 30.2979048873587 -9.00816786932899e-014
endloop
endfacet
facet normal 1.60306238451145e-017 -1.71792139894705e-014 -1.0
outer loop
vertex 22.6300356256712 30.2979048873587 -8.99439742470368e-014
vertex 21.8800356256712 16.650663196804 1.09835958443592e-013
vertex 21.8800356256712 30.2979048873587 -9.89136182532418e-014
endloop
endfacet
facet normal 1.60306238451145e-017 -1.71792139894705e-014 -1.0
outer loop
vertex 26.2729754405418 29.6411453914954 1.22656965223344e-014
vertex 25.747564457038 16.0453618744318 1.42716908271259e-013
vertex 25.0113785619025 29.9664201334752 -4.48348361314165e-014
endloop
endfacet
facet normal 1.60306238451145e-017 -1.71792139894705e-014 -1.0
outer loop
vertex 25.747564457038 16.0453618744318 1.42716908271259e-013
vertex 26.2729754405418 29.6411453914954 1.22656965223344e-014
vertex 30.1015205183604 17.1959735755312 1.37903482976115e-013
endloop
endfacet
facet normal 1.60306238451145e-017 -1.71792139894705e-014 -1.0
outer loop
vertex 30.1015205183604 17.1959735755312 1.37903482976115e-013
vertex 26.2729754405418 29.6411453914954 1.22656965223344e-014
vertex 26.5803683715327 29.5304870349041 -1.09651058490488e-014
endloop
endfacet
facet normal 1.60306238451145e-017 -1.71792139894705e-014 -1.0
outer loop
vertex 30.1015205183604 17.1959735755312 1.37903482976115e-013
vertex 26.5803683715327 29.5304870349041 -1.09651058490488e-014
vertex 27.4056310576106 29.2334007866838 1.26129588301874e-014
endloop
endfacet
facet normal 1.60306238451145e-017 -1.71792139894705e-014 -1.0
outer loop
vertex 30.1015205183604 17.1959735755312 1.37903482976115e-013
vertex 27.4056310576106 29.2334007866838 1.26129588301874e-014
vertex 28.4166358861978 28.7478625176024 3.50263557800092e-014
endloop
endfacet
facet normal 1.60306238451145e-017 -1.71792139894705e-014 -1.0
outer loop
vertex 30.1015205183604 17.1959735755312 1.37903482976115e-013
vertex 28.4166358861978 28.7478625176024 3.50263557800092e-014
vertex 29.3132803993923 28.189206782813 4.27066665752033e-014
endloop
endfacet
facet normal 1.60306238451145e-017 -1.71792139894705e-014 -1.0
outer loop
vertex 30.1015205183604 17.1959735755312 1.37903482976115e-013
vertex 29.3132803993923 28.189206782813 4.27066665752033e-014
vertex 30.1028550702832 27.5621097808776 8.34536648956085e-014
endloop
endfacet
facet normal 1.60306238451145e-017 -1.71792139894705e-014 -1.0
outer loop
vertex 30.1015205183604 17.1959735755312 1.37903482976115e-013
vertex 30.1028550702832 27.5621097808776 8.34536648956085e-014
vertex 32.6668600460593 7.49737253255096 3.71272678875045e-013
endloop
endfacet
facet normal 1.60306238451145e-017 -1.71792139894705e-014 -1.0
outer loop
vertex 32.6668600460593 7.49737253255096 3.71272678875045e-013
vertex 30.1028550702832 27.5621097808776 8.34536648956085e-014
vertex 30.7926503719593 26.871247710358 1.1764816346208e-013
endloop
endfacet
facet normal 1.60306238451145e-017 -1.71792139894705e-014 -1.0
outer loop
vertex 32.6668600460593 7.49737253255096 3.71272678875045e-013
vertex 30.7926503719593 26.871247710358 1.1764816346208e-013
vertex 31.3899567775097 26.1212967698164 1.19770807408211e-013
endloop
endfacet
facet normal 1.60306238451145e-017 -1.71792139894705e-014 -1.0
outer loop
vertex 32.6668600460593 7.49737253255096 3.71272678875045e-013
vertex 31.3899567775097 26.1212967698164 1.19770807408211e-013
vertex 31.9020647600233 25.3169331578144 1.54541169309131e-013
endloop
endfacet
facet normal 1.60306238451145e-017 -1.71792139894705e-014 -1.0
outer loop
vertex 32.6668600460593 7.49737253255096 3.71272678875045e-013
vertex 31.9020647600233 25.3169331578144 1.54541169309131e-013
vertex 32.3362647925891 24.4628330729142 1.42860531130022e-013
endloop
endfacet
facet normal 1.60306238451145e-017 -1.71792139894705e-014 -1.0
outer loop
vertex 32.6668600460593 7.49737253255096 3.71272678875045e-013
vertex 32.3362647925891 24.4628330729142 1.42860531130022e-013
vertex 32.6998473482962 23.5636727136775 1.80468096754038e-013
endloop
endfacet
facet normal 1.60306238451145e-017 -1.71792139894705e-014 -1.0
outer loop
vertex 32.6668600460593 7.49737253255096 3.71272678875045e-013
vertex 32.6998473482962 23.5636727136775 1.80468096754038e-013
vertex 32.88404757904 7.77323423876984 4.88876260892406e-013
endloop
endfacet
facet normal 1.60306238451145e-017 -1.71792139894705e-014 -1.0
outer loop
vertex 32.88404757904 7.77323423876984 4.88876260892406e-013
vertex 32.6998473482962 23.5636727136775 1.80468096754038e-013
vertex 33.0001029002333 22.6241282786665 1.7980524869872e-013
endloop
endfacet
facet normal 1.60306238451145e-017 -1.71792139894705e-014 -1.0
outer loop
vertex 32.88404757904 7.77323423876984 4.88876260892406e-013
vertex 33.0001029002333 22.6241282786665 1.7980524869872e-013
vertex 33.3399956272435 8.51197857908129 4.50018070431295e-013
endloop
endfacet
facet normal 1.60306238451145e-017 -1.71792139894705e-014 -1.0
outer loop
vertex 33.3399956272435 8.51197857908129 4.50018070431295e-013
vertex 33.0001029002333 22.6241282786665 1.7980524869872e-013
vertex 33.2443219214895 21.6488759664428 1.999516265741e-013
endloop
endfacet
facet normal 1.60306238451145e-017 -1.71792139894705e-014 -1.0
outer loop
vertex 33.3399956272435 8.51197857908129 4.50018070431295e-013
vertex 33.2443219214895 21.6488759664428 1.999516265741e-013
vertex 33.4397948851539 20.6425919755686 2.1538787551377e-013
endloop
endfacet
facet normal 1.60306238451145e-017 -1.71792139894705e-014 -1.0
outer loop
vertex 33.3399956272435 8.51197857908129 4.50018070431295e-013
vertex 33.4397948851539 20.6425919755686 2.1538787551377e-013
vertex 33.6843972327561 9.24099349255677 4.43268537990965e-013
endloop
endfacet
facet normal 1.60306238451145e-017 -1.71792139894705e-014 -1.0
outer loop
vertex 33.6843972327561 9.24099349255677 4.43268537990965e-013
vertex 33.4397948851539 20.6425919755686 2.1538787551377e-013
vertex 33.5938122643152 19.6099525046057 2.17514439546614e-013
endloop
endfacet
facet normal 1.60306238451145e-017 -1.71792139894705e-014 -1.0
outer loop
vertex 33.6843972327561 9.24099349255677 4.43268537990965e-013
vertex 33.5938122643152 19.6099525046057 2.17514439546614e-013
vertex 33.7136645320626 18.5556337521161 2.31571360492088e-013
endloop
endfacet
facet normal 1.60306238451145e-017 -1.71792139894705e-014 -1.0
outer loop
vertex 33.6843972327561 9.24099349255677 4.43268537990965e-013
vertex 33.7136645320626 18.5556337521161 2.31571360492088e-013
vertex 33.933141632899 9.95868040297189 4.14943758467067e-013
endloop
endfacet
facet normal 1.60306238451145e-017 -1.71792139894705e-014 -1.0
outer loop
vertex 33.933141632899 9.95868040297189 4.14943758467067e-013
vertex 33.7136645320626 18.5556337521161 2.31571360492088e-013
vertex 33.8066421614849 17.4843119166616 2.26399350518689e-013
endloop
endfacet
facet normal 1.60306238451145e-017 -1.71792139894705e-014 -1.0
outer loop
vertex 33.933141632899 9.95868040297189 4.14943758467067e-013
vertex 33.8066421614849 17.4843119166616 2.26399350518689e-013
vertex 33.8800356256712 16.4006631968043 2.35698350893519e-013
endloop
endfacet
facet normal 1.60306238451145e-017 -1.71792139894705e-014 -1.0
outer loop
vertex 33.933141632899 9.95868040297189 4.14943758467067e-013
vertex 33.8800356256712 16.4006631968043 2.35698350893519e-013
vertex 34.0085764316895 15.358376412182 2.66399157632423e-013
endloop
endfacet
facet normal 1.60306238451145e-017 -1.71792139894705e-014 -1.0
outer loop
vertex 33.933141632899 9.95868040297189 4.14943758467067e-013
vertex 34.0085764316895 15.358376412182 2.66399157632423e-013
vertex 34.1005843974372 10.6673805061253 4.12824550162512e-013
endloop
endfacet
facet normal 1.60306238451145e-017 -1.71792139894705e-014 -1.0
outer loop
vertex 34.1005843974372 10.6673805061253 4.12824550162512e-013
vertex 34.0085764316895 15.358376412182 2.66399157632423e-013
vertex 34.1133618988773 14.4338048075347 2.95301594939915e-013
endloop
endfacet
facet normal 1.60306238451145e-017 -1.71792139894705e-014 -1.0
outer loop
vertex 34.1005843974372 10.6673805061253 4.12824550162512e-013
vertex 34.1133618988773 14.4338048075347 2.95301594939915e-013
vertex 34.199547428579 11.3733747698387 3.80298901561473e-013
endloop
endfacet
facet normal 1.60306238451145e-017 -1.71792139894705e-014 -1.0
outer loop
vertex 34.199547428579 11.3733747698387 3.80298901561473e-013
vertex 34.1133618988773 14.4338048075347 2.95301594939915e-013
vertex 34.1907721303647 13.5970287829024 3.11662898537455e-013
endloop
endfacet
facet normal 1.60306238451145e-017 -1.71792139894705e-014 -1.0
outer loop
vertex 34.199547428579 11.3733747698387 3.80298901561473e-013
vertex 34.1907721303647 13.5970287829024 3.11662898537455e-013
vertex 34.2356535617253 12.8220685103478 3.38525831972617e-013
endloop
endfacet
facet normal 1.60306238451145e-017 -1.71792139894705e-014 -1.0
outer loop
vertex 34.199547428579 11.3733747698387 3.80298901561473e-013
vertex 34.2356535617253 12.8220685103478 3.38525831972617e-013
vertex 34.2413189609765 12.0868839339569 3.50939658625194e-013
endloop
endfacet
facet normal 1.60306238451145e-017 -1.71792139894705e-014 -1.0
outer loop
vertex 12.5125067943015 16.0453618744318 1.42579203825006e-013
vertex 9.99244058887669 4.26530534414387 4.99021359427515e-013
vertex 9.46362008377211 4.51864756960324 3.94467478046315e-013
endloop
endfacet
facet normal 1.60306238451145e-017 -1.71792139894705e-014 -1.0
outer loop
vertex 9.99244058887669 4.26530534414387 4.99021359427515e-013
vertex 12.5125067943015 16.0453618744318 1.42579203825006e-013
vertex 11.5372266601329 3.7223817768221 4.4770231240326e-013
endloop
endfacet
facet normal 1.60306238451145e-017 -1.71792139894705e-014 -1.0
outer loop
vertex 11.5372266601329 3.7223817768221 4.4770231240326e-013
vertex 12.5125067943015 16.0453618744318 1.42579203825006e-013
vertex 13.3477265269091 3.29123243288161 4.30529724428911e-013
endloop
endfacet
facet normal 1.60306238451145e-017 -1.71792139894705e-014 -1.0
outer loop
vertex 13.3477265269091 3.29123243288161 4.30529724428911e-013
vertex 12.5125067943015 16.0453618744318 1.42579203825006e-013
vertex 13.248692689437 29.9664201334752 -4.49725405776696e-014
endloop
endfacet
facet normal 1.60306238451145e-017 -1.71792139894705e-014 -1.0
outer loop
vertex 13.3477265269091 3.29123243288161 4.30529724428911e-013
vertex 13.248692689437 29.9664201334752 -4.49725405776696e-014
vertex 14.6465213027359 30.2045488140612 -5.43479271995697e-014
endloop
endfacet
facet normal 1.60306238451145e-017 -1.71792139894705e-014 -1.0
outer loop
vertex 13.3477265269091 3.29123243288161 4.30529724428911e-013
vertex 14.6465213027359 30.2045488140612 -5.43479271995697e-014
vertex 15.4520987669778 3.00497406473146 3.79496382143547e-013
endloop
endfacet
facet normal 1.60306238451145e-017 -1.71792139894705e-014 -1.0
outer loop
vertex 15.4520987669778 3.00497406473146 3.79496382143547e-013
vertex 14.6465213027359 30.2045488140612 -5.43479271995697e-014
vertex 15.6300356256683 30.2979048873587 -9.00816786932899e-014
endloop
endfacet
facet normal 1.60306238451145e-017 -1.71792139894705e-014 -1.0
outer loop
vertex 15.4520987669778 3.00497406473146 3.79496382143547e-013
vertex 15.6300356256683 30.2979048873587 -9.00816786932899e-014
vertex 16.3800356256682 16.650663196804 1.09698253997339e-013
endloop
endfacet
facet normal 1.60306238451145e-017 -1.71792139894705e-014 -1.0
outer loop
vertex 15.4520987669778 3.00497406473146 3.79496382143547e-013
vertex 16.3800356256682 16.650663196804 1.09698253997339e-013
vertex 17.8800356256681 2.90066319680371 3.53439493936435e-013
endloop
endfacet
facet normal 1.60306238451145e-017 -1.71792139894705e-014 -1.0
outer loop
vertex 17.8800356256681 2.90066319680371 3.53439493936435e-013
vertex 16.3800356256682 16.650663196804 1.09698253997339e-013
vertex 21.8800356256712 16.650663196804 1.09835958443592e-013
endloop
endfacet
facet normal 1.60306238451145e-017 -1.71792139894705e-014 -1.0
outer loop
vertex 17.8800356256681 2.90066319680371 3.53439493936435e-013
vertex 21.8800356256712 16.650663196804 1.09835958443592e-013
vertex 18.6300356256697 2.90066319680371 3.53508346159561e-013
endloop
endfacet
facet normal 1.60306238451145e-017 -1.71792139894705e-014 -1.0
outer loop
vertex 18.6300356256697 2.90066319680371 3.53508346159561e-013
vertex 21.8800356256712 16.650663196804 1.09835958443592e-013
vertex 20.3800356256713 2.90066319680371 3.53577198382688e-013
endloop
endfacet
facet normal 1.60306238451145e-017 -1.71792139894705e-014 -1.0
outer loop
vertex 20.3800356256713 2.90066319680371 3.53577198382688e-013
vertex 21.8800356256712 16.650663196804 1.09835958443592e-013
vertex 22.8079724843617 3.00497406473146 3.796340865898e-013
endloop
endfacet
facet normal 1.60306238451145e-017 -1.71792139894705e-014 -1.0
outer loop
vertex 22.8079724843617 3.00497406473146 3.796340865898e-013
vertex 21.8800356256712 16.650663196804 1.09835958443592e-013
vertex 22.6300356256712 30.2979048873587 -8.99439742470368e-014
endloop
endfacet
facet normal 1.60306238451145e-017 -1.71792139894705e-014 -1.0
outer loop
vertex 22.8079724843617 3.00497406473146 3.796340865898e-013
vertex 22.6300356256712 30.2979048873587 -8.99439742470368e-014
vertex 23.6135499486035 30.2045488140612 -5.42102227533166e-014
endloop
endfacet
facet normal 1.60306238451145e-017 -1.71792139894705e-014 -1.0
outer loop
vertex 22.8079724843617 3.00497406473146 3.796340865898e-013
vertex 23.6135499486035 30.2045488140612 -5.42102227533166e-014
vertex 24.9123447244304 3.29123243288161 4.30667428875164e-013
endloop
endfacet
facet normal 1.60306238451145e-017 -1.71792139894705e-014 -1.0
outer loop
vertex 24.9123447244304 3.29123243288161 4.30667428875164e-013
vertex 23.6135499486035 30.2045488140612 -5.42102227533166e-014
vertex 25.0113785619025 29.9664201334752 -4.48348361314165e-014
endloop
endfacet
facet normal 1.60306238451145e-017 -1.71792139894705e-014 -1.0
outer loop
vertex 24.9123447244304 3.29123243288161 4.30667428875164e-013
vertex 25.0113785619025 29.9664201334752 -4.48348361314165e-014
vertex 25.747564457038 16.0453618744318 1.42716908271259e-013
endloop
endfacet
facet normal 1.60306238451145e-017 -1.71792139894705e-014 -1.0
outer loop
vertex 24.9123447244304 3.29123243288161 4.30667428875164e-013
vertex 25.747564457038 16.0453618744318 1.42716908271259e-013
vertex 26.7228445912065 3.7223817768221 4.47840016849513e-013
endloop
endfacet
facet normal 1.60306238451145e-017 -1.71792139894705e-014 -1.0
outer loop
vertex 26.7228445912065 3.7223817768221 4.47840016849513e-013
vertex 25.747564457038 16.0453618744318 1.42716908271259e-013
vertex 28.7964511675674 4.51864756960324 3.94605182492568e-013
endloop
endfacet
facet normal 1.60306238451145e-017 -1.71792139894705e-014 -1.0
outer loop
vertex 26.7228445912065 3.7223817768221 4.47840016849513e-013
vertex 28.7964511675674 4.51864756960324 3.94605182492568e-013
vertex 28.2676306624628 4.26530534414387 4.99159063873768e-013
endloop
endfacet
facet normal 0.997029433836806 0.0770214779334822 1.06713004194815e-014
outer loop
vertex 33.8066421614849 17.4843119166616 2.26399350518689e-013
vertex 33.8800356256712 16.4006631968043 3.00000000000024
vertex 33.8800356256712 16.4006631968043 2.35698350893519e-013
endloop
endfacet
facet normal 0.99547518066101 0.0950219168819977 1.03545318654195e-014
outer loop
vertex 33.8800356256712 16.4006631968043 3.00000000000024
vertex 33.8066421614849 17.4843119166616 2.26399350518689e-013
vertex 33.8066421614849 17.4843119166617 3.00000000000023
endloop
endfacet
facet normal 0.995016018865939 0.0997152054612451 1.02893534931951e-014
outer loop
vertex 33.7136645320626 18.5556337521161 2.31571360492088e-013
vertex 33.8066421614849 17.4843119166617 3.00000000000023
vertex 33.8066421614849 17.4843119166616 2.26399350518689e-013
endloop
endfacet
facet normal 0.997029433836806 0.0770214779334824 1.06713004194815e-014
outer loop
vertex 33.8066421614849 17.4843119166617 3.00000000000023
vertex 33.7136645320626 18.5556337521161 2.31571360492088e-013
vertex 33.7136645320626 18.5556337521161 3.00000000000023
endloop
endfacet
facet normal 0.991480721907926 0.130253514674031 9.75118129273128e-015
outer loop
vertex 33.5938122643152 19.6099525046057 2.17514439546614e-013
vertex 33.7136645320626 18.5556337521161 3.00000000000023
vertex 33.7136645320626 18.5556337521161 2.31571360492088e-013
endloop
endfacet
facet normal 0.995016018865939 0.0997152054612454 1.02893534931951e-014
outer loop
vertex 33.7136645320626 18.5556337521161 3.00000000000023
vertex 33.5938122643152 19.6099525046057 2.17514439546614e-013
vertex 33.5938122643152 19.6099525046058 3.00000000000022
endloop
endfacet
facet normal 0.985591479014956 0.169143242528666 9.03707931017928e-015
outer loop
vertex 33.4397948851539 20.6425919755686 2.1538787551377e-013
vertex 33.5938122643152 19.6099525046058 3.00000000000022
vertex 33.5938122643152 19.6099525046057 2.17514439546614e-013
endloop
endfacet
facet normal 0.991480721907926 0.130253514674031 9.75118129273127e-015
outer loop
vertex 33.5938122643152 19.6099525046058 3.00000000000022
vertex 33.4397948851539 20.6425919755686 2.1538787551377e-013
vertex 33.4397948851538 20.6425919755687 3.00000000000021
endloop
endfacet
facet normal 0.976198410474094 0.216879375201637 8.14627599945519e-015
outer loop
vertex 33.2443219214895 21.6488759664428 1.999516265741e-013
vertex 33.4397948851538 20.6425919755687 3.00000000000021
vertex 33.4397948851539 20.6425919755686 2.1538787551377e-013
endloop
endfacet
facet normal 0.985591479014956 0.169143242528666 9.03707931017927e-015
outer loop
vertex 33.4397948851538 20.6425919755687 3.00000000000021
vertex 33.2443219214895 21.6488759664428 1.999516265741e-013
vertex 33.2443219214895 21.6488759664429 3.0000000000002
endloop
endfacet
facet normal 0.96178599680441 0.273802294276269 7.06035829585695e-015
outer loop
vertex 33.0001029002333 22.6241282786665 1.7980524869872e-013
vertex 33.2443219214895 21.6488759664429 3.0000000000002
vertex 33.2443219214895 21.6488759664428 1.999516265741e-013
endloop
endfacet
facet normal 0.976198410474094 0.216879375201637 8.14627599945518e-015
outer loop
vertex 33.2443219214895 21.6488759664429 3.0000000000002
vertex 33.0001029002333 22.6241282786665 1.7980524869872e-013
vertex 33.0001029002332 22.6241282786665 3.00000000000018
endloop
endfacet
facet normal 0.940469340099777 0.339878537616441 5.73998814754127e-015
outer loop
vertex 32.6998473482962 23.5636727136775 1.80468096754038e-013
vertex 33.0001029002332 22.6241282786665 3.00000000000018
vertex 33.0001029002333 22.6241282786665 1.7980524869872e-013
endloop
endfacet
facet normal 0.961785996804409 0.273802294276269 7.06035829585694e-015
outer loop
vertex 33.0001029002332 22.6241282786665 3.00000000000018
vertex 32.6998473482962 23.5636727136775 1.80468096754038e-013
vertex 32.6998473482961 23.5636727136776 3.00000000000018
endloop
endfacet
facet normal 0.910092181582906 0.414405865090815 4.16634260623825e-015
outer loop
vertex 32.3362647925891 24.4628330729142 1.42860531130022e-013
vertex 32.6998473482961 23.5636727136776 3.00000000000018
vertex 32.6998473482962 23.5636727136775 1.80468096754038e-013
endloop
endfacet
facet normal 0.940469340099777 0.339878537616441 5.73998814754127e-015
outer loop
vertex 32.6998473482961 23.5636727136776 3.00000000000018
vertex 32.3362647925891 24.4628330729142 1.42860531130022e-013
vertex 32.3362647925891 24.4628330729142 3.00000000000014
endloop
endfacet
facet normal 0.868498094480905 0.495692505373076 2.29574858878016e-015
outer loop
vertex 31.9020647600233 25.3169331578144 1.54541169309131e-013
vertex 32.3362647925891 24.4628330729142 3.00000000000014
vertex 32.3362647925891 24.4628330729142 1.42860531130022e-013
endloop
endfacet
facet normal 0.910092181582906 0.414405865090815 4.16634260623824e-015
outer loop
vertex 32.3362647925891 24.4628330729142 3.00000000000014
vertex 31.9020647600233 25.3169331578144 1.54541169309131e-013
vertex 31.9020647600233 25.3169331578145 3.00000000000015
endloop
endfacet
facet normal 0.814017640869064 0.580840150432082 2.31647861271072e-016
outer loop
vertex 31.3899567775097 26.1212967698164 1.19770807408211e-013
vertex 31.9020647600233 25.3169331578145 3.00000000000015
vertex 31.9020647600233 25.3169331578144 1.54541169309131e-013
endloop
endfacet
facet normal 0.868498094480905 0.495692505373077 2.29574858878014e-015
outer loop
vertex 31.9020647600233 25.3169331578145 3.00000000000015
vertex 31.3899567775097 26.1212967698164 1.19770807408211e-013
vertex 31.3899567775096 26.1212967698164 3.00000000000012
endloop
endfacet
facet normal 0.74610576550997 0.665827445118314 -1.92543532545906e-015
outer loop
vertex 30.7926503719593 26.871247710358 1.1764816346208e-013
vertex 31.3899567775096 26.1212967698164 3.00000000000012
vertex 31.3899567775097 26.1212967698164 1.19770807408211e-013
endloop
endfacet
facet normal 0.814017640869064 0.580840150432082 2.3164786127107e-016
outer loop
vertex 31.3899567775096 26.1212967698164 3.00000000000012
vertex 30.7926503719593 26.871247710358 1.1764816346208e-013
vertex 30.7926503719593 26.8712477103581 3.00000000000012
endloop
endfacet
facet normal 0.665892212995197 0.74604796137538 -4.10534202202121e-015
outer loop
vertex 30.1028550702832 27.5621097808776 8.34536648956085e-014
vertex 30.7926503719593 26.8712477103581 3.00000000000012
vertex 30.7926503719593 26.871247710358 1.1764816346208e-013
endloop
endfacet
facet normal 0.74610576550997 0.665827445118314 -1.92543532545906e-015
outer loop
vertex 30.7926503719593 26.8712477103581 3.00000000000012
vertex 30.1028550702832 27.5621097808776 8.34536648956085e-014
vertex 30.1028550702831 27.5621097808776 3.00000000000008
endloop
endfacet
facet normal 0.5763066857692 0.817233506372396 -6.32355116248986e-015
outer loop
vertex 29.3132803993923 28.189206782813 3.00000000000004
vertex 30.1028550702832 27.5621097808776 8.34536648956085e-014
vertex 29.3132803993923 28.189206782813 4.27066665752033e-014
endloop
endfacet
facet normal 0.665892212995197 0.74604796137538 -4.10534202202121e-015
outer loop
vertex 30.1028550702832 27.5621097808776 8.34536648956085e-014
vertex 29.3132803993923 28.189206782813 3.00000000000004
vertex 30.1028550702831 27.5621097808776 3.00000000000008
endloop
endfacet
facet normal 0.481584101768581 0.87639988185973 -8.45557364604893e-015
outer loop
vertex 28.4166358861977 28.7478625176024 3.00000000000003
vertex 29.3132803993923 28.189206782813 4.27066665752033e-014
vertex 28.4166358861978 28.7478625176024 3.50263557800092e-014
endloop
endfacet
facet normal 0.5763066857692 0.817233506372396 -6.32355116248986e-015
outer loop
vertex 29.3132803993923 28.189206782813 4.27066665752033e-014
vertex 28.4166358861977 28.7478625176024 3.00000000000003
vertex 29.3132803993923 28.189206782813 3.00000000000004
endloop
endfacet
facet normal 0.386317866319153 0.922365711723185 -1.03734068167777e-014
outer loop
vertex 27.4056310576105 29.2334007866839 3.00000000000001
vertex 28.4166358861978 28.7478625176024 3.50263557800092e-014
vertex 27.4056310576106 29.2334007866838 1.26129588301874e-014
endloop
endfacet
facet normal 0.481584101768581 0.87639988185973 -8.45557364604893e-015
outer loop
vertex 28.4166358861978 28.7478625176024 3.50263557800092e-014
vertex 27.4056310576105 29.2334007866839 3.00000000000001
vertex 28.4166358861977 28.7478625176024 3.00000000000003
endloop
endfacet
facet normal 0.338711072090452 0.940890434452034 -1.12965157024418e-014
outer loop
vertex 26.5803683715327 29.5304870349041 2.99999999999999
vertex 27.4056310576106 29.2334007866838 1.26129588301874e-014
vertex 26.5803683715327 29.5304870349041 -1.09651058490488e-014
endloop
endfacet
facet normal 0.386317866319152 0.922365711723185 -1.03734068167777e-014
outer loop
vertex 27.4056310576106 29.2334007866838 1.26129588301874e-014
vertex 26.5803683715327 29.5304870349041 2.99999999999999
vertex 27.4056310576105 29.2334007866839 3.00000000000001
endloop
endfacet
facet normal 0.294506896730089 0.955649353988382 -1.19326407854621e-014
outer loop
vertex 26.2729754405418 29.6411453914954 1.22656965223344e-014
vertex 26.5803683715327 29.5304870349041 2.99999999999999
vertex 26.5803683715327 29.5304870349041 -1.09651058490488e-014
endloop
endfacet
facet normal 0.338711072090436 0.940890434452039 -1.11299822487484e-014
outer loop
vertex 26.5803683715327 29.5304870349041 2.99999999999999
vertex 26.2729754405418 29.6411453914954 1.22656965223344e-014
vertex 26.2729754405418 29.6411453914955 3.00000000000001
endloop
endfacet
facet normal 0.208982428075514 0.977919395837746 -1.33621365723812e-014
outer loop
vertex 25.0113785619024 29.9664201334752 2.99999999999996
vertex 26.2729754405418 29.6411453914954 1.22656965223344e-014
vertex 25.0113785619025 29.9664201334752 -4.48348361314165e-014
endloop
endfacet
facet normal 0.294506896730089 0.955649353988382 -1.19326407854621e-014
outer loop
vertex 26.2729754405418 29.6411453914954 1.22656965223344e-014
vertex 25.0113785619024 29.9664201334752 2.99999999999996
vertex 26.2729754405418 29.6411453914955 3.00000000000001
endloop
endfacet
facet normal 0.878943593266776 -0.476925738302398 1.8252980848258e-014
outer loop
vertex 33.3399956272435 8.51197857908129 4.50018070431295e-013
vertex 32.8840475790399 7.77323423876988 3.00000000000049
vertex 32.88404757904 7.77323423876984 4.88876260892406e-013
endloop
endfacet
facet normal 0.819671411941928 -0.572833986810425 1.91189238690652e-014
outer loop
vertex 32.8840475790399 7.77323423876988 3.00000000000049
vertex 33.3399956272435 8.51197857908129 4.50018070431295e-013
vertex 33.3399956272435 8.51197857908134 3.00000000000045
endloop
endfacet
facet normal 0.925860993894162 -0.377864287787712 1.72010301335035e-014
outer loop
vertex 33.6843972327561 9.24099349255677 4.43268537990965e-013
vertex 33.3399956272435 8.51197857908134 3.00000000000045
vertex 33.3399956272435 8.51197857908129 4.50018070431295e-013
endloop
endfacet
facet normal 0.878943593266776 -0.476925738302399 1.8252980848258e-014
outer loop
vertex 33.3399956272435 8.51197857908134 3.00000000000045
vertex 33.6843972327561 9.24099349255677 4.43268537990965e-013
vertex 33.684397232756 9.24099349255681 3.00000000000044
endloop
endfacet
facet normal 0.960271167665636 -0.279068601870715 1.60184099411757e-014
outer loop
vertex 33.933141632899 9.95868040297189 4.14943758467067e-013
vertex 33.684397232756 9.24099349255681 3.00000000000044
vertex 33.6843972327561 9.24099349255677 4.43268537990965e-013
endloop
endfacet
facet normal 0.925860993894162 -0.377864287787713 1.72010301335035e-014
outer loop
vertex 33.684397232756 9.24099349255681 3.00000000000044
vertex 33.933141632899 9.95868040297189 4.14943758467067e-013
vertex 33.933141632899 9.95868040297192 3.00000000000041
endloop
endfacet
facet normal 0.982818258355241 -0.184575922166386 1.47570388722607e-014
outer loop
vertex 34.1005843974372 10.6673805061253 4.12824550162512e-013
vertex 33.933141632899 9.95868040297192 3.00000000000041
vertex 33.933141632899 9.95868040297189 4.14943758467067e-013
endloop
endfacet
facet normal 0.960271167665636 -0.279068601870715 1.60184099411757e-014
outer loop
vertex 33.933141632899 9.95868040297192 3.00000000000041
vertex 34.1005843974372 10.6673805061253 4.12824550162512e-013
vertex 34.1005843974371 10.6673805061253 3.00000000000041
endloop
endfacet
facet normal 0.99511609422436 -0.0987114938376199 1.35079530362013e-014
outer loop
vertex 34.199547428579 11.3733747698387 3.80298901561473e-013
vertex 34.1005843974371 10.6673805061253 3.00000000000041
vertex 34.1005843974372 10.6673805061253 4.12824550162512e-013
endloop
endfacet
facet normal 0.98281825835524 -0.184575922166386 1.47570388722607e-014
outer loop
vertex 34.1005843974371 10.6673805061253 3.00000000000041
vertex 34.199547428579 11.3733747698387 3.80298901561473e-013
vertex 34.1995474285789 11.3733747698387 3.00000000000038
endloop
endfacet
facet normal 0.999677804136077 -0.0253828272198082 1.2367901835497e-014
outer loop
vertex 34.2413189609765 12.0868839339569 3.50939658625194e-013
vertex 34.1995474285789 11.3733747698387 3.00000000000038
vertex 34.199547428579 11.3733747698387 3.80298901561473e-013
endloop
endfacet
facet normal 0.99511609422436 -0.0987114938376214 1.35079530362014e-014
outer loop
vertex 34.1995474285789 11.3733747698387 3.00000000000038
vertex 34.2413189609765 12.0868839339569 3.50939658625194e-013
vertex 34.2413189609765 12.0868839339569 3.00000000000035
endloop
endfacet
facet normal 0.99946285254279 0.0327720366628134 1.14196713284815e-014
outer loop
vertex 34.2356535617253 12.8220685103478 3.38525831972617e-013
vertex 34.2413189609765 12.0868839339569 3.00000000000035
vertex 34.2413189609765 12.0868839339569 3.50939658625194e-013
endloop
endfacet
facet normal 0.999677804136077 -0.0253828272198088 1.23679018354971e-014
outer loop
vertex 34.2413189609765 12.0868839339569 3.00000000000035
vertex 34.2356535617253 12.8220685103478 3.38525831972617e-013
vertex 34.2356535617253 12.8220685103478 3.00000000000034
endloop
endfacet
facet normal 1.0 -8.26530824760051e-016 -1.12798659301916e-014
outer loop
vertex 16.3800356256683 30.2979048873587 -9.90513226994949e-014
vertex 16.3800356256683 16.6506631968041 3.00000000000011
vertex 16.3800356256682 16.650663196804 1.09698253997339e-013
endloop
endfacet
facet normal 1.0 -8.26530824760051e-016 -1.12798659301916e-014
outer loop
vertex 16.3800356256683 16.6506631968041 3.00000000000011
vertex 16.3800356256683 30.2979048873587 -9.90513226994949e-014
vertex 16.3800356256683 30.2979048873588 2.9999999999999
endloop
endfacet
facet normal -1.05801283244085e-017 1.71391676855755e-014 1.0
outer loop
vertex 4.06052382276055 11.3733747698387 3.00000000000038
vertex 4.02441768961418 12.8220685103478 3.00000000000034
vertex 4.01875229036302 12.0868839339569 3.00000000000035
endloop
endfacet
facet normal -1.05801283244085e-017 1.71391676855755e-014 1.0
outer loop
vertex 4.02441768961418 12.8220685103478 3.00000000000034
vertex 4.06052382276055 11.3733747698387 3.00000000000038
vertex 4.06929912097486 13.5970287829025 3.00000000000031
endloop
endfacet
facet normal -1.05801283244085e-017 1.71391676855755e-014 1.0
outer loop
vertex 4.06929912097486 13.5970287829025 3.00000000000031
vertex 4.06052382276055 11.3733747698387 3.00000000000038
vertex 4.15948685390235 10.6673805061253 3.00000000000041
endloop
endfacet
facet normal -1.05801283244085e-017 1.71391676855755e-014 1.0
outer loop
vertex 4.06929912097486 13.5970287829025 3.00000000000031
vertex 4.15948685390235 10.6673805061253 3.00000000000041
vertex 4.14670935246223 14.4338048075348 3.00000000000029
endloop
endfacet
facet normal -1.05801283244085e-017 1.71391676855755e-014 1.0
outer loop
vertex 4.14670935246223 14.4338048075348 3.00000000000029
vertex 4.15948685390235 10.6673805061253 3.00000000000041
vertex 4.25149481965001 15.3583764121821 3.00000000000026
endloop
endfacet
facet normal -1.05801283244085e-017 1.71391676855755e-014 1.0
outer loop
vertex 4.25149481965001 15.3583764121821 3.00000000000026
vertex 4.15948685390235 10.6673805061253 3.00000000000041
vertex 4.32692961844049 9.95868040297192 3.00000000000041
endloop
endfacet
facet normal -1.05801283244085e-017 1.71391676855755e-014 1.0
outer loop
vertex 4.25149481965001 15.3583764121821 3.00000000000026
vertex 4.32692961844049 9.95868040297192 3.00000000000041
vertex 4.38003562566825 16.4006631968043 3.00000000000024
endloop
endfacet
facet normal -1.05801283244085e-017 1.71391676855755e-014 1.0
outer loop
vertex 4.38003562566825 16.4006631968043 3.00000000000024
vertex 4.32692961844049 9.95868040297192 3.00000000000041
vertex 4.57567401858342 9.24099349255681 3.00000000000044
endloop
endfacet
facet normal -1.05801283244085e-017 1.71391676855755e-014 1.0
outer loop
vertex 4.38003562566825 16.4006631968043 3.00000000000024
vertex 4.57567401858342 9.24099349255681 3.00000000000044
vertex 4.45342908985455 17.4843119166617 3.00000000000023
endloop
endfacet
facet normal -1.05801283244085e-017 1.71391676855755e-014 1.0
outer loop
vertex 4.45342908985455 17.4843119166617 3.00000000000023
vertex 4.57567401858342 9.24099349255681 3.00000000000044
vertex 4.5464067192769 18.5556337521161 3.00000000000023
endloop
endfacet
facet normal -1.05801283244085e-017 1.71391676855755e-014 1.0
outer loop
vertex 4.5464067192769 18.5556337521161 3.00000000000023
vertex 4.57567401858342 9.24099349255681 3.00000000000044
vertex 4.66625898702429 19.6099525046058 3.00000000000022
endloop
endfacet
facet normal -1.05801283244085e-017 1.71391676855755e-014 1.0
outer loop
vertex 4.66625898702429 19.6099525046058 3.00000000000022
vertex 4.57567401858342 9.24099349255681 3.00000000000044
vertex 4.920075624096 8.51197857908134 3.00000000000045
endloop
endfacet
facet normal -1.05801283244085e-017 1.71391676855755e-014 1.0
outer loop
vertex 4.66625898702429 19.6099525046058 3.00000000000022
vertex 4.920075624096 8.51197857908134 3.00000000000045
vertex 4.82027636618565 20.6425919755687 3.00000000000021
endloop
endfacet
facet normal -1.05801283244085e-017 1.71391676855755e-014 1.0
outer loop
vertex 4.82027636618565 20.6425919755687 3.00000000000021
vertex 4.920075624096 8.51197857908134 3.00000000000045
vertex 5.01574932984996 21.6488759664429 3.0000000000002
endloop
endfacet
facet normal -1.05801283244085e-017 1.71391676855755e-014 1.0
outer loop
vertex 5.01574932984996 21.6488759664429 3.0000000000002
vertex 4.920075624096 8.51197857908134 3.00000000000045
vertex 5.37602367229954 7.77323423876988 3.00000000000049
endloop
endfacet
facet normal -1.05801283244085e-017 1.71391676855755e-014 1.0
outer loop
vertex 5.01574932984996 21.6488759664429 3.0000000000002
vertex 5.37602367229954 7.77323423876988 3.00000000000049
vertex 5.25996835110622 22.6241282786665 3.00000000000018
endloop
endfacet
facet normal -1.05801283244085e-017 1.71391676855755e-014 1.0
outer loop
vertex 5.25996835110622 22.6241282786665 3.00000000000018
vertex 5.37602367229954 7.77323423876988 3.00000000000049
vertex 5.56022390304334 23.5636727136776 3.00000000000018
endloop
endfacet
facet normal -1.05801283244085e-017 1.71391676855755e-014 1.0
outer loop
vertex 5.56022390304334 23.5636727136776 3.00000000000018
vertex 5.37602367229954 7.77323423876988 3.00000000000049
vertex 5.59321120528022 7.49737253255101 3.00000000000037
endloop
endfacet
facet normal -1.05801283244085e-017 1.71391676855755e-014 1.0
outer loop
vertex 5.56022390304334 23.5636727136776 3.00000000000018
vertex 5.59321120528022 7.49737253255101 3.00000000000037
vertex 5.92380645875035 24.4628330729142 3.00000000000014
endloop
endfacet
facet normal -1.05801283244085e-017 1.71391676855755e-014 1.0
outer loop
vertex 5.92380645875035 24.4628330729142 3.00000000000014
vertex 5.59321120528022 7.49737253255101 3.00000000000037
vertex 8.15855073297908 17.1959735755312 3.00000000000014
endloop
endfacet
facet normal -1.05801283244085e-017 1.71391676855755e-014 1.0
outer loop
vertex 5.92380645875035 24.4628330729142 3.00000000000014
vertex 8.15855073297908 17.1959735755312 3.00000000000014
vertex 6.35800649131618 25.3169331578145 3.00000000000015
endloop
endfacet
facet normal -1.05801283244085e-017 1.71391676855755e-014 1.0
outer loop
vertex 6.35800649131618 25.3169331578145 3.00000000000015
vertex 8.15855073297908 17.1959735755312 3.00000000000014
vertex 6.87011447382982 26.1212967698164 3.00000000000012
endloop
endfacet
facet normal -1.05801283244085e-017 1.71391676855755e-014 1.0
outer loop
vertex 6.87011447382982 26.1212967698164 3.00000000000012
vertex 8.15855073297908 17.1959735755312 3.00000000000014
vertex 7.46742087938021 26.8712477103581 3.00000000000012
endloop
endfacet
facet normal -1.05801283244085e-017 1.71391676855755e-014 1.0
outer loop
vertex 7.46742087938021 26.8712477103581 3.00000000000012
vertex 8.15855073297908 17.1959735755312 3.00000000000014
vertex 8.15721618105635 27.5621097808776 3.00000000000008
endloop
endfacet
facet normal -1.05801283244085e-017 1.71391676855755e-014 1.0
outer loop
vertex 8.15721618105635 27.5621097808776 3.00000000000008
vertex 8.15855073297908 17.1959735755312 3.00000000000014
vertex 8.94679085194721 28.189206782813 3.00000000000004
endloop
endfacet
facet normal -1.05801283244085e-017 1.71391676855755e-014 1.0
outer loop
vertex 8.94679085194721 28.189206782813 3.00000000000004
vertex 8.15855073297908 17.1959735755312 3.00000000000014
vertex 12.5125067943016 16.0453618744318 3.00000000000014
endloop
endfacet
facet normal -1.05801283244085e-017 1.71391676855755e-014 1.0
outer loop
vertex 8.94679085194721 28.189206782813 3.00000000000004
vertex 12.5125067943016 16.0453618744318 3.00000000000014
vertex 9.84343536514174 28.7478625176024 3.00000000000003
endloop
endfacet
facet normal -1.05801283244085e-017 1.71391676855755e-014 1.0
outer loop
vertex 9.84343536514174 28.7478625176024 3.00000000000003
vertex 12.5125067943016 16.0453618744318 3.00000000000014
vertex 10.8544401937289 29.2334007866839 3.00000000000001
endloop
endfacet
facet normal -1.05801283244085e-017 1.71391676855755e-014 1.0
outer loop
vertex 10.8544401937289 29.2334007866839 3.00000000000001
vertex 12.5125067943016 16.0453618744318 3.00000000000014
vertex 11.6797028798068 29.5304870349041 2.99999999999999
endloop
endfacet
facet normal -1.05801283244085e-017 1.71391676855755e-014 1.0
outer loop
vertex 11.6797028798068 29.5304870349041 2.99999999999999
vertex 12.5125067943016 16.0453618744318 3.00000000000014
vertex 11.9870958107977 29.6411453914955 3.00000000000001
endloop
endfacet
facet normal -1.05801283244085e-017 1.71391676855755e-014 1.0
outer loop
vertex 11.9870958107977 29.6411453914955 3.00000000000001
vertex 12.5125067943016 16.0453618744318 3.00000000000014
vertex 13.248692689437 29.9664201334752 2.99999999999996
endloop
endfacet
facet normal -1.05801283244085e-017 1.71391676855755e-014 1.0
outer loop
vertex 9.99244058887674 4.2653053441439 3.00000000000049
vertex 12.5125067943016 16.0453618744318 3.00000000000014
vertex 9.46362008377216 4.51864756960328 3.00000000000039
endloop
endfacet
facet normal -1.05801283244085e-017 1.71391676855755e-014 1.0
outer loop
vertex 12.5125067943016 16.0453618744318 3.00000000000014
vertex 9.99244058887674 4.2653053441439 3.00000000000049
vertex 11.537226660133 3.72238177682217 3.00000000000045
endloop
endfacet
facet normal -1.05801283244085e-017 1.71391676855755e-014 1.0
outer loop
vertex 12.5125067943016 16.0453618744318 3.00000000000014
vertex 11.537226660133 3.72238177682217 3.00000000000045
vertex 13.3477265269091 3.29123243288168 3.00000000000043
endloop
endfacet
facet normal -1.05801283244085e-017 1.71391676855755e-014 1.0
outer loop
vertex 12.5125067943016 16.0453618744318 3.00000000000014
vertex 13.3477265269091 3.29123243288168 3.00000000000043
vertex 13.248692689437 29.9664201334752 2.99999999999996
endloop
endfacet
facet normal -1.05801283244085e-017 1.71391676855755e-014 1.0
outer loop
vertex 13.248692689437 29.9664201334752 2.99999999999996
vertex 13.3477265269091 3.29123243288168 3.00000000000043
vertex 14.646521302736 30.2045488140612 2.99999999999994
endloop
endfacet
facet normal -1.05801283244085e-017 1.71391676855755e-014 1.0
outer loop
vertex 14.646521302736 30.2045488140612 2.99999999999994
vertex 13.3477265269091 3.29123243288168 3.00000000000043
vertex 15.4520987669778 3.0049740647315 3.00000000000038
endloop
endfacet
facet normal -1.05801283244085e-017 1.71391676855755e-014 1.0
outer loop
vertex 14.646521302736 30.2045488140612 2.99999999999994
vertex 15.4520987669778 3.0049740647315 3.00000000000038
vertex 15.6300356256683 30.2979048873588 2.99999999999991
endloop
endfacet
facet normal -1.05801283244085e-017 1.71391676855755e-014 1.0
outer loop
vertex 15.6300356256683 30.2979048873588 2.99999999999991
vertex 15.4520987669778 3.0049740647315 3.00000000000038
vertex 16.3800356256683 16.6506631968041 3.00000000000011
endloop
endfacet
facet normal -1.05801283244085e-017 1.71391676855755e-014 1.0
outer loop
vertex 16.3800356256683 16.6506631968041 3.00000000000011
vertex 15.4520987669778 3.0049740647315 3.00000000000038
vertex 17.8800356256682 2.90066319680376 3.00000000000035
endloop
endfacet
facet normal -1.05801283244085e-017 1.71391676855755e-014 1.0
outer loop
vertex 16.3800356256683 16.6506631968041 3.00000000000011
vertex 17.8800356256682 2.90066319680376 3.00000000000035
vertex 21.8800356256712 16.6506631968041 3.00000000000011
endloop
endfacet
facet normal -1.05801283244085e-017 1.71391676855755e-014 1.0
outer loop
vertex 21.8800356256712 16.6506631968041 3.00000000000011
vertex 17.8800356256682 2.90066319680376 3.00000000000035
vertex 18.6300356256697 2.90066319680376 3.00000000000035
endloop
endfacet
facet normal -1.05801283244085e-017 1.71391676855755e-014 1.0
outer loop
vertex 21.8800356256712 16.6506631968041 3.00000000000011
vertex 18.6300356256697 2.90066319680376 3.00000000000035
vertex 20.3800356256713 2.90066319680376 3.00000000000035
endloop
endfacet
facet normal -1.05801283244085e-017 1.71391676855755e-014 1.0
outer loop
vertex 21.8800356256712 16.6506631968041 3.00000000000011
vertex 20.3800356256713 2.90066319680376 3.00000000000035
vertex 22.8079724843617 3.0049740647315 3.00000000000038
endloop
endfacet
facet normal -1.05801283244085e-017 1.71391676855755e-014 1.0
outer loop
vertex 21.8800356256712 16.6506631968041 3.00000000000011
vertex 22.8079724843617 3.0049740647315 3.00000000000038
vertex 21.8800356256712 30.2979048873588 2.9999999999999
endloop
endfacet
facet normal -1.05801283244085e-017 1.71391676855755e-014 1.0
outer loop
vertex 21.8800356256712 30.2979048873588 2.9999999999999
vertex 22.8079724843617 3.0049740647315 3.00000000000038
vertex 22.6300356256712 30.2979048873588 2.99999999999991
endloop
endfacet
facet normal -1.05801283244085e-017 1.71391676855755e-014 1.0
outer loop
vertex 22.6300356256712 30.2979048873588 2.99999999999991
vertex 22.8079724843617 3.0049740647315 3.00000000000038
vertex 23.6135499486035 30.2045488140612 2.99999999999994
endloop
endfacet
facet normal -1.05801283244085e-017 1.71391676855755e-014 1.0
outer loop
vertex 23.6135499486035 30.2045488140612 2.99999999999994
vertex 22.8079724843617 3.0049740647315 3.00000000000038
vertex 24.9123447244304 3.29123243288168 3.00000000000043
endloop
endfacet
facet normal -1.05801283244085e-017 1.71391676855755e-014 1.0
outer loop
vertex 23.6135499486035 30.2045488140612 2.99999999999994
vertex 24.9123447244304 3.29123243288168 3.00000000000043
vertex 25.0113785619024 29.9664201334752 2.99999999999996
endloop
endfacet
facet normal -1.05801283244085e-017 1.71391676855755e-014 1.0
outer loop
vertex 25.0113785619024 29.9664201334752 2.99999999999996
vertex 24.9123447244304 3.29123243288168 3.00000000000043
vertex 25.7475644570379 16.0453618744318 3.00000000000014
endloop
endfacet
facet normal -1.05801283244085e-017 1.71391676855755e-014 1.0
outer loop
vertex 25.7475644570379 16.0453618744318 3.00000000000014
vertex 24.9123447244304 3.29123243288168 3.00000000000043
vertex 26.7228445912065 3.72238177682217 3.00000000000045
endloop
endfacet
facet normal -1.05801283244085e-017 1.71391676855755e-014 1.0
outer loop
vertex 25.7475644570379 16.0453618744318 3.00000000000014
vertex 26.7228445912065 3.72238177682217 3.00000000000045
vertex 28.7964511675673 4.51864756960328 3.00000000000039
endloop
endfacet
facet normal -1.05801283244085e-017 1.71391676855755e-014 1.0
outer loop
vertex 28.7964511675673 4.51864756960328 3.00000000000039
vertex 26.7228445912065 3.72238177682217 3.00000000000045
vertex 28.2676306624627 4.2653053441439 3.00000000000049
endloop
endfacet
facet normal -1.05801283244085e-017 1.71391676855755e-014 1.0
outer loop
vertex 25.7475644570379 16.0453618744318 3.00000000000014
vertex 26.2729754405418 29.6411453914955 3.00000000000001
vertex 25.0113785619024 29.9664201334752 2.99999999999996
endloop
endfacet
facet normal -1.05801283244085e-017 1.71391676855755e-014 1.0
outer loop
vertex 26.2729754405418 29.6411453914955 3.00000000000001
vertex 25.7475644570379 16.0453618744318 3.00000000000014
vertex 30.1015205183604 17.1959735755312 3.00000000000014
endloop
endfacet
facet normal -1.05801283244085e-017 1.71391676855755e-014 1.0
outer loop
vertex 26.2729754405418 29.6411453914955 3.00000000000001
vertex 30.1015205183604 17.1959735755312 3.00000000000014
vertex 26.5803683715327 29.5304870349041 2.99999999999999
endloop
endfacet
facet normal -1.05801283244085e-017 1.71391676855755e-014 1.0
outer loop
vertex 26.5803683715327 29.5304870349041 2.99999999999999
vertex 30.1015205183604 17.1959735755312 3.00000000000014
vertex 27.4056310576105 29.2334007866839 3.00000000000001
endloop
endfacet
facet normal -1.05801283244085e-017 1.71391676855755e-014 1.0
outer loop
vertex 27.4056310576105 29.2334007866839 3.00000000000001
vertex 30.1015205183604 17.1959735755312 3.00000000000014
vertex 28.4166358861977 28.7478625176024 3.00000000000003
endloop
endfacet
facet normal -1.05801283244085e-017 1.71391676855755e-014 1.0
outer loop
vertex 28.4166358861977 28.7478625176024 3.00000000000003
vertex 30.1015205183604 17.1959735755312 3.00000000000014
vertex 29.3132803993923 28.189206782813 3.00000000000004
endloop
endfacet
facet normal -1.05801283244085e-017 1.71391676855755e-014 1.0
outer loop
vertex 29.3132803993923 28.189206782813 3.00000000000004
vertex 30.1015205183604 17.1959735755312 3.00000000000014
vertex 30.1028550702831 27.5621097808776 3.00000000000008
endloop
endfacet
facet normal -1.05801283244085e-017 1.71391676855755e-014 1.0
outer loop
vertex 30.1028550702831 27.5621097808776 3.00000000000008
vertex 30.1015205183604 17.1959735755312 3.00000000000014
vertex 32.6668600460592 7.49737253255101 3.00000000000037
endloop
endfacet
facet normal -1.05801283244085e-017 1.71391676855755e-014 1.0
outer loop
vertex 30.1028550702831 27.5621097808776 3.00000000000008
vertex 32.6668600460592 7.49737253255101 3.00000000000037
vertex 30.7926503719593 26.8712477103581 3.00000000000012
endloop
endfacet
facet normal -1.05801283244085e-017 1.71391676855755e-014 1.0
outer loop
vertex 30.7926503719593 26.8712477103581 3.00000000000012
vertex 32.6668600460592 7.49737253255101 3.00000000000037
vertex 31.3899567775096 26.1212967698164 3.00000000000012
endloop
endfacet
facet normal -1.05801283244085e-017 1.71391676855755e-014 1.0
outer loop
vertex 31.3899567775096 26.1212967698164 3.00000000000012
vertex 32.6668600460592 7.49737253255101 3.00000000000037
vertex 31.9020647600233 25.3169331578145 3.00000000000015
endloop
endfacet
facet normal -1.05801283244085e-017 1.71391676855755e-014 1.0
outer loop
vertex 31.9020647600233 25.3169331578145 3.00000000000015
vertex 32.6668600460592 7.49737253255101 3.00000000000037
vertex 32.3362647925891 24.4628330729142 3.00000000000014
endloop
endfacet
facet normal -1.05801283244085e-017 1.71391676855755e-014 1.0
outer loop
vertex 32.3362647925891 24.4628330729142 3.00000000000014
vertex 32.6668600460592 7.49737253255101 3.00000000000037
vertex 32.6998473482961 23.5636727136776 3.00000000000018
endloop
endfacet
facet normal -1.05801283244085e-017 1.71391676855755e-014 1.0
outer loop
vertex 32.6998473482961 23.5636727136776 3.00000000000018
vertex 32.6668600460592 7.49737253255101 3.00000000000037
vertex 32.8840475790399 7.77323423876988 3.00000000000049
endloop
endfacet
facet normal -1.05801283244085e-017 1.71391676855755e-014 1.0
outer loop
vertex 32.6998473482961 23.5636727136776 3.00000000000018
vertex 32.8840475790399 7.77323423876988 3.00000000000049
vertex 33.0001029002332 22.6241282786665 3.00000000000018
endloop
endfacet
facet normal -1.05801283244085e-017 1.71391676855755e-014 1.0
outer loop
vertex 33.0001029002332 22.6241282786665 3.00000000000018
vertex 32.8840475790399 7.77323423876988 3.00000000000049
vertex 33.3399956272435 8.51197857908134 3.00000000000045
endloop
endfacet
facet normal -1.05801283244085e-017 1.71391676855755e-014 1.0
outer loop
vertex 33.0001029002332 22.6241282786665 3.00000000000018
vertex 33.3399956272435 8.51197857908134 3.00000000000045
vertex 33.2443219214895 21.6488759664429 3.0000000000002
endloop
endfacet
facet normal -1.05801283244085e-017 1.71391676855755e-014 1.0
outer loop
vertex 33.2443219214895 21.6488759664429 3.0000000000002
vertex 33.3399956272435 8.51197857908134 3.00000000000045
vertex 33.4397948851538 20.6425919755687 3.00000000000021
endloop
endfacet
facet normal -1.05801283244085e-017 1.71391676855755e-014 1.0
outer loop
vertex 33.4397948851538 20.6425919755687 3.00000000000021
vertex 33.3399956272435 8.51197857908134 3.00000000000045
vertex 33.684397232756 9.24099349255681 3.00000000000044
endloop
endfacet
facet normal -1.05801283244085e-017 1.71391676855755e-014 1.0
outer loop
vertex 33.4397948851538 20.6425919755687 3.00000000000021
vertex 33.684397232756 9.24099349255681 3.00000000000044
vertex 33.5938122643152 19.6099525046058 3.00000000000022
endloop
endfacet
facet normal -1.05801283244085e-017 1.71391676855755e-014 1.0
outer loop
vertex 33.5938122643152 19.6099525046058 3.00000000000022
vertex 33.684397232756 9.24099349255681 3.00000000000044
vertex 33.7136645320626 18.5556337521161 3.00000000000023
endloop
endfacet
facet normal -1.05801283244085e-017 1.71391676855755e-014 1.0
outer loop
vertex 33.7136645320626 18.5556337521161 3.00000000000023
vertex 33.684397232756 9.24099349255681 3.00000000000044
vertex 33.933141632899 9.95868040297192 3.00000000000041
endloop
endfacet
facet normal -1.05801283244085e-017 1.71391676855755e-014 1.0
outer loop
vertex 33.7136645320626 18.5556337521161 3.00000000000023
vertex 33.933141632899 9.95868040297192 3.00000000000041
vertex 33.8066421614849 17.4843119166617 3.00000000000023
endloop
endfacet
facet normal -1.05801283244085e-017 1.71391676855755e-014 1.0
outer loop
vertex 33.8066421614849 17.4843119166617 3.00000000000023
vertex 33.933141632899 9.95868040297192 3.00000000000041
vertex 33.8800356256712 16.4006631968043 3.00000000000024
endloop
endfacet
facet normal -1.05801283244085e-017 1.71391676855755e-014 1.0
outer loop
vertex 33.8800356256712 16.4006631968043 3.00000000000024
vertex 33.933141632899 9.95868040297192 3.00000000000041
vertex 34.0085764316895 15.3583764121821 3.00000000000026
endloop
endfacet
facet normal -1.05801283244085e-017 1.71391676855755e-014 1.0
outer loop
vertex 34.0085764316895 15.3583764121821 3.00000000000026
vertex 33.933141632899 9.95868040297192 3.00000000000041
vertex 34.1005843974371 10.6673805061253 3.00000000000041
endloop
endfacet
facet normal -1.05801283244085e-017 1.71391676855755e-014 1.0
outer loop
vertex 34.0085764316895 15.3583764121821 3.00000000000026
vertex 34.1005843974371 10.6673805061253 3.00000000000041
vertex 34.1133618988772 14.4338048075348 3.00000000000029
endloop
endfacet
facet normal -1.05801283244085e-017 1.71391676855755e-014 1.0
outer loop
vertex 34.1133618988772 14.4338048075348 3.00000000000029
vertex 34.1005843974371 10.6673805061253 3.00000000000041
vertex 34.1995474285789 11.3733747698387 3.00000000000038
endloop
endfacet
facet normal -1.05801283244085e-017 1.71391676855755e-014 1.0
outer loop
vertex 34.1133618988772 14.4338048075348 3.00000000000029
vertex 34.1995474285789 11.3733747698387 3.00000000000038
vertex 34.1907721303646 13.5970287829025 3.00000000000031
endloop
endfacet
facet normal -1.05801283244085e-017 1.71391676855755e-014 1.0
outer loop
vertex 34.1907721303646 13.5970287829025 3.00000000000031
vertex 34.1995474285789 11.3733747698387 3.00000000000038
vertex 34.2356535617253 12.8220685103478 3.00000000000034
endloop
endfacet
facet normal -1.05801283244085e-017 1.71391676855755e-014 1.0
outer loop
vertex 34.2356535617253 12.8220685103478 3.00000000000034
vertex 34.1995474285789 11.3733747698387 3.00000000000038
vertex 34.2413189609765 12.0868839339569 3.00000000000035
endloop
endfacet
facet normal -1.05801283244085e-017 1.71391676855755e-014 1.0
outer loop
vertex 16.3800356256683 30.2979048873588 2.9999999999999
vertex 15.6300356256683 30.2979048873588 2.99999999999991
vertex 16.3800356256683 16.6506631968041 3.00000000000011
endloop
endfacet
facet normal -8.24673729462445e-031 -1.0 1.50398212402555e-014
outer loop
vertex 18.6300356256697 2.90066319680371 3.53508346159561e-013
vertex 17.8800356256682 2.90066319680376 3.00000000000035
vertex 17.8800356256681 2.90066319680371 3.53439493936435e-013
endloop
endfacet
facet normal -0.0214665287071907 -0.999769567523068 1.52787746313474e-014
outer loop
vertex 17.8800356256682 2.90066319680376 3.00000000000035
vertex 18.6300356256697 2.90066319680371 3.53508346159561e-013
vertex 18.6300356256697 2.90066319680376 3.00000000000035
endloop
endfacet
endsolid unicorn2
