solid handle2
facet normal 0.0 0.0 -1.0
outer loop
vertex -3.175 5.49926131403119 0.0
vertex -3.3734375 -4.13126943649865e-16 -1.76247905159244e-15
vertex -4.49012806053458 4.49012806053458 0.0
endloop
endfacet
facet normal 0.0 0.0 -1.0
outer loop
vertex -3.3734375 -4.13126943649865e-16 -1.76247905159244e-15
vertex -3.175 5.49926131403119 0.0
vertex -3.25849040462203 0.873109872463034 -1.76247905159244e-15
endloop
endfacet
facet normal 0.0 0.0 -1.0
outer loop
vertex -3.25849040462203 0.873109872463034 -1.76247905159244e-15
vertex -3.175 5.49926131403119 0.0
vertex -2.92148257307907 1.68671875 -1.76247905159244e-15
endloop
endfacet
facet normal 0.0 0.0 -1.0
outer loop
vertex -2.92148257307907 1.68671875 -1.76247905159244e-15
vertex -3.175 5.49926131403119 0.0
vertex -1.64350093640101 6.13362899693558 0.0
endloop
endfacet
facet normal 0.0 0.0 -1.0
outer loop
vertex -2.92148257307907 1.68671875 -1.76247905159244e-15
vertex -1.64350093640101 6.13362899693558 0.0
vertex -2.385380532159 2.38538053215899 -1.76247905159244e-15
endloop
endfacet
facet normal 0.0 0.0 -1.0
outer loop
vertex -2.385380532159 2.38538053215899 -1.76247905159244e-15
vertex -1.64350093640101 6.13362899693558 0.0
vertex -1.68671875 2.92148257307907 -1.76247905159244e-15
endloop
endfacet
facet normal 0.0 0.0 -1.0
outer loop
vertex -1.68671875 2.92148257307907 -1.76247905159244e-15
vertex -1.64350093640101 6.13362899693558 0.0
vertex -0.873109872463037 3.25849040462203 -1.76247905159244e-15
endloop
endfacet
facet normal 0.0 0.0 -1.0
outer loop
vertex -0.873109872463037 3.25849040462203 -1.76247905159244e-15
vertex -1.64350093640101 6.13362899693558 0.0
vertex 3.88825358729285e-16 6.35 0.0
endloop
endfacet
facet normal 0.0 0.0 -1.0
outer loop
vertex -0.873109872463037 3.25849040462203 -1.76247905159244e-15
vertex 3.88825358729285e-16 6.35 0.0
vertex -6.19690415474797e-16 3.3734375 -1.76247905159244e-15
endloop
endfacet
facet normal 0.0 0.0 -1.0
outer loop
vertex -6.19690415474797e-16 3.3734375 -1.76247905159244e-15
vertex 3.88825358729285e-16 6.35 0.0
vertex 0.873109872463033 3.25849040462203 -1.76247905159244e-15
endloop
endfacet
facet normal 0.0 0.0 -1.0
outer loop
vertex 0.873109872463033 3.25849040462203 -1.76247905159244e-15
vertex 3.88825358729285e-16 6.35 0.0
vertex 1.64350093640101 6.13362899693558 0.0
endloop
endfacet
facet normal 0.0 0.0 -1.0
outer loop
vertex 0.873109872463033 3.25849040462203 -1.76247905159244e-15
vertex 1.64350093640101 6.13362899693558 0.0
vertex 1.68671875 2.92148257307907 -1.76247905159244e-15
endloop
endfacet
facet normal 0.0 0.0 -1.0
outer loop
vertex 1.68671875 2.92148257307907 -1.76247905159244e-15
vertex 1.64350093640101 6.13362899693558 0.0
vertex 3.175 5.49926131403118 0.0
endloop
endfacet
facet normal 0.0 0.0 -1.0
outer loop
vertex 1.68671875 2.92148257307907 -1.76247905159244e-15
vertex 3.175 5.49926131403118 0.0
vertex 2.38538053215899 2.38538053215899 -1.76247905159244e-15
endloop
endfacet
facet normal 0.0 0.0 -1.0
outer loop
vertex 2.38538053215899 2.38538053215899 -1.76247905159244e-15
vertex 3.175 5.49926131403118 0.0
vertex 2.92148257307907 1.68671875 -1.76247905159244e-15
endloop
endfacet
facet normal 0.0 0.0 -1.0
outer loop
vertex 2.92148257307907 1.68671875 -1.76247905159244e-15
vertex 3.175 5.49926131403118 0.0
vertex 3.25849040462203 0.873109872463037 -1.76247905159244e-15
endloop
endfacet
facet normal 0.0 0.0 -1.0
outer loop
vertex 3.25849040462203 0.873109872463037 -1.76247905159244e-15
vertex 3.175 5.49926131403118 0.0
vertex 4.49012806053458 4.49012806053458 0.0
endloop
endfacet
facet normal 0.0 0.0 -1.0
outer loop
vertex 3.25849040462203 0.873109872463037 -1.76247905159244e-15
vertex 4.49012806053458 4.49012806053458 0.0
vertex 3.3734375 -1.86964554792255e-31 -1.76247905159244e-15
endloop
endfacet
facet normal 0.0 0.0 -1.0
outer loop
vertex 3.3734375 -1.86964554792255e-31 -1.76247905159244e-15
vertex 4.49012806053458 4.49012806053458 0.0
vertex 4.49012806053458 -4.49012806053458 0.0
endloop
endfacet
facet normal 0.0 0.0 -1.0
outer loop
vertex 4.49012806053458 -4.49012806053458 0.0
vertex 4.49012806053458 4.49012806053458 0.0
vertex 5.49926131403118 -3.175 0.0
endloop
endfacet
facet normal 0.0 0.0 -1.0
outer loop
vertex 5.49926131403118 -3.175 0.0
vertex 4.49012806053458 4.49012806053458 0.0
vertex 5.49926131403119 3.175 0.0
endloop
endfacet
facet normal 0.0 0.0 -1.0
outer loop
vertex 5.49926131403118 -3.175 0.0
vertex 5.49926131403119 3.175 0.0
vertex 6.13362899693558 -1.64350093640101 0.0
endloop
endfacet
facet normal 0.0 0.0 -1.0
outer loop
vertex 6.13362899693558 -1.64350093640101 0.0
vertex 5.49926131403119 3.175 0.0
vertex 6.13362899693558 1.64350093640101 0.0
endloop
endfacet
facet normal 0.0 0.0 -1.0
outer loop
vertex 6.13362899693558 -1.64350093640101 0.0
vertex 6.13362899693558 1.64350093640101 0.0
vertex 6.35 0.0 0.0
endloop
endfacet
facet normal 0.0 0.0 -1.0
outer loop
vertex -6.13362899693558 1.64350093640101 0.0
vertex -6.13362899693558 -1.643500936401 0.0
vertex -6.35 7.77650717458569e-16 0.0
endloop
endfacet
facet normal 0.0 0.0 -1.0
outer loop
vertex -6.13362899693558 -1.643500936401 0.0
vertex -6.13362899693558 1.64350093640101 0.0
vertex -5.49926131403119 -3.175 0.0
endloop
endfacet
facet normal 0.0 0.0 -1.0
outer loop
vertex -5.49926131403119 -3.175 0.0
vertex -6.13362899693558 1.64350093640101 0.0
vertex -5.49926131403118 3.175 0.0
endloop
endfacet
facet normal 0.0 0.0 -1.0
outer loop
vertex -5.49926131403119 -3.175 0.0
vertex -5.49926131403118 3.175 0.0
vertex -4.49012806053458 -4.49012806053457 0.0
endloop
endfacet
facet normal 0.0 0.0 -1.0
outer loop
vertex -4.49012806053458 -4.49012806053457 0.0
vertex -5.49926131403118 3.175 0.0
vertex -4.49012806053458 4.49012806053458 0.0
endloop
endfacet
facet normal 0.0 0.0 -1.0
outer loop
vertex -4.49012806053458 -4.49012806053457 0.0
vertex -4.49012806053458 4.49012806053458 0.0
vertex -3.175 -5.49926131403118 0.0
endloop
endfacet
facet normal 0.0 0.0 -1.0
outer loop
vertex -3.175 -5.49926131403118 0.0
vertex -4.49012806053458 4.49012806053458 0.0
vertex -3.3734375 -4.13126943649865e-16 -1.76247905159244e-15
endloop
endfacet
facet normal 0.0 0.0 -1.0
outer loop
vertex -3.175 -5.49926131403118 0.0
vertex -3.3734375 -4.13126943649865e-16 -1.76247905159244e-15
vertex -3.25849040462203 -0.873109872463036 -1.76247905159244e-15
endloop
endfacet
facet normal 0.0 0.0 -1.0
outer loop
vertex -3.175 -5.49926131403118 0.0
vertex -3.25849040462203 -0.873109872463036 -1.76247905159244e-15
vertex -2.92148257307907 -1.68671875 -1.76247905159244e-15
endloop
endfacet
facet normal 0.0 0.0 -1.0
outer loop
vertex -3.175 -5.49926131403118 0.0
vertex -2.92148257307907 -1.68671875 -1.76247905159244e-15
vertex -1.64350093640101 -6.13362899693558 0.0
endloop
endfacet
facet normal 0.0 0.0 -1.0
outer loop
vertex -1.64350093640101 -6.13362899693558 0.0
vertex -2.92148257307907 -1.68671875 -1.76247905159244e-15
vertex -2.38538053215899 -2.38538053215899 -1.76247905159244e-15
endloop
endfacet
facet normal 0.0 0.0 -1.0
outer loop
vertex -1.64350093640101 -6.13362899693558 0.0
vertex -2.38538053215899 -2.38538053215899 -1.76247905159244e-15
vertex -1.68671875 -2.92148257307907 -1.76247905159244e-15
endloop
endfacet
facet normal 0.0 0.0 -1.0
outer loop
vertex -1.64350093640101 -6.13362899693558 0.0
vertex -1.68671875 -2.92148257307907 -1.76247905159244e-15
vertex -0.873109872463034 -3.25849040462203 -1.76247905159244e-15
endloop
endfacet
facet normal 0.0 0.0 -1.0
outer loop
vertex -1.64350093640101 -6.13362899693558 0.0
vertex -0.873109872463034 -3.25849040462203 -1.76247905159244e-15
vertex -1.16647607618785e-15 -6.35 0.0
endloop
endfacet
facet normal 0.0 0.0 -1.0
outer loop
vertex -1.16647607618785e-15 -6.35 0.0
vertex -0.873109872463034 -3.25849040462203 -1.76247905159244e-15
vertex 2.06563471824932e-16 -3.3734375 -1.76247905159244e-15
endloop
endfacet
facet normal 0.0 0.0 -1.0
outer loop
vertex -1.16647607618785e-15 -6.35 0.0
vertex 2.06563471824932e-16 -3.3734375 -1.76247905159244e-15
vertex 1.643500936401 -6.13362899693558 0.0
endloop
endfacet
facet normal 0.0 0.0 -1.0
outer loop
vertex 1.643500936401 -6.13362899693558 0.0
vertex 2.06563471824932e-16 -3.3734375 -1.76247905159244e-15
vertex 0.873109872463036 -3.25849040462203 -1.76247905159244e-15
endloop
endfacet
facet normal 0.0 0.0 -1.0
outer loop
vertex 1.643500936401 -6.13362899693558 0.0
vertex 0.873109872463036 -3.25849040462203 -1.76247905159244e-15
vertex 1.68671875 -2.92148257307907 -1.76247905159244e-15
endloop
endfacet
facet normal 0.0 0.0 -1.0
outer loop
vertex 1.643500936401 -6.13362899693558 0.0
vertex 1.68671875 -2.92148257307907 -1.76247905159244e-15
vertex 3.175 -5.49926131403119 0.0
endloop
endfacet
facet normal 0.0 0.0 -1.0
outer loop
vertex 3.175 -5.49926131403119 0.0
vertex 1.68671875 -2.92148257307907 -1.76247905159244e-15
vertex 2.38538053215899 -2.38538053215899 -1.76247905159244e-15
endloop
endfacet
facet normal 0.0 0.0 -1.0
outer loop
vertex 3.175 -5.49926131403119 0.0
vertex 2.38538053215899 -2.38538053215899 -1.76247905159244e-15
vertex 2.92148257307907 -1.68671875 -1.76247905159244e-15
endloop
endfacet
facet normal 0.0 0.0 -1.0
outer loop
vertex 3.175 -5.49926131403119 0.0
vertex 2.92148257307907 -1.68671875 -1.76247905159244e-15
vertex 3.25849040462203 -0.873109872463035 -1.76247905159244e-15
endloop
endfacet
facet normal 0.0 0.0 -1.0
outer loop
vertex 3.175 -5.49926131403119 0.0
vertex 3.25849040462203 -0.873109872463035 -1.76247905159244e-15
vertex 4.49012806053458 -4.49012806053458 0.0
endloop
endfacet
facet normal 0.0 0.0 -1.0
outer loop
vertex 4.49012806053458 -4.49012806053458 0.0
vertex 3.25849040462203 -0.873109872463035 -1.76247905159244e-15
vertex 3.3734375 -1.86964554792255e-31 -1.76247905159244e-15
endloop
endfacet
facet normal 0.0 0.0 1.0
outer loop
vertex -6.13362899693558 -1.643500936401 20.6375
vertex -6.13362899693558 1.64350093640101 20.6375
vertex -6.35 7.77650717458569e-16 20.6375
endloop
endfacet
facet normal 0.0 0.0 1.0
outer loop
vertex -6.13362899693558 1.64350093640101 20.6375
vertex -6.13362899693558 -1.643500936401 20.6375
vertex -5.49926131403119 -3.175 20.6375
endloop
endfacet
facet normal 0.0 0.0 1.0
outer loop
vertex -6.13362899693558 1.64350093640101 20.6375
vertex -5.49926131403119 -3.175 20.6375
vertex -5.49926131403118 3.175 20.6375
endloop
endfacet
facet normal 0.0 0.0 1.0
outer loop
vertex -5.49926131403118 3.175 20.6375
vertex -5.49926131403119 -3.175 20.6375
vertex -4.49012806053458 -4.49012806053457 20.6375
endloop
endfacet
facet normal 0.0 0.0 1.0
outer loop
vertex -5.49926131403118 3.175 20.6375
vertex -4.49012806053458 -4.49012806053457 20.6375
vertex -4.49012806053458 4.49012806053458 20.6375
endloop
endfacet
facet normal 0.0 0.0 1.0
outer loop
vertex -4.49012806053458 4.49012806053458 20.6375
vertex -4.49012806053458 -4.49012806053457 20.6375
vertex -3.175 -5.49926131403118 20.6375
endloop
endfacet
facet normal 0.0 0.0 1.0
outer loop
vertex -4.49012806053458 4.49012806053458 20.6375
vertex -3.175 -5.49926131403118 20.6375
vertex -3.3734375 -4.13126943649865e-16 20.6375
endloop
endfacet
facet normal 0.0 0.0 1.0
outer loop
vertex -3.3734375 -4.13126943649865e-16 20.6375
vertex -3.175 -5.49926131403118 20.6375
vertex -3.25849040462203 -0.873109872463036 20.6375
endloop
endfacet
facet normal 0.0 0.0 1.0
outer loop
vertex -3.25849040462203 -0.873109872463036 20.6375
vertex -3.175 -5.49926131403118 20.6375
vertex -2.92148257307907 -1.68671875 20.6375
endloop
endfacet
facet normal 0.0 0.0 1.0
outer loop
vertex -2.92148257307907 -1.68671875 20.6375
vertex -3.175 -5.49926131403118 20.6375
vertex -1.64350093640101 -6.13362899693558 20.6375
endloop
endfacet
facet normal 0.0 0.0 1.0
outer loop
vertex -2.92148257307907 -1.68671875 20.6375
vertex -1.64350093640101 -6.13362899693558 20.6375
vertex -2.38538053215899 -2.38538053215899 20.6375
endloop
endfacet
facet normal 0.0 0.0 1.0
outer loop
vertex -2.38538053215899 -2.38538053215899 20.6375
vertex -1.64350093640101 -6.13362899693558 20.6375
vertex -1.68671875 -2.92148257307907 20.6375
endloop
endfacet
facet normal 0.0 0.0 1.0
outer loop
vertex -1.68671875 -2.92148257307907 20.6375
vertex -1.64350093640101 -6.13362899693558 20.6375
vertex -0.873109872463034 -3.25849040462203 20.6375
endloop
endfacet
facet normal 0.0 0.0 1.0
outer loop
vertex -0.873109872463034 -3.25849040462203 20.6375
vertex -1.64350093640101 -6.13362899693558 20.6375
vertex -1.16647607618785e-15 -6.35 20.6375
endloop
endfacet
facet normal 0.0 0.0 1.0
outer loop
vertex -0.873109872463034 -3.25849040462203 20.6375
vertex -1.16647607618785e-15 -6.35 20.6375
vertex 2.06563471824932e-16 -3.3734375 20.6375
endloop
endfacet
facet normal 0.0 0.0 1.0
outer loop
vertex 2.06563471824932e-16 -3.3734375 20.6375
vertex -1.16647607618785e-15 -6.35 20.6375
vertex 1.643500936401 -6.13362899693558 20.6375
endloop
endfacet
facet normal 0.0 0.0 1.0
outer loop
vertex 2.06563471824932e-16 -3.3734375 20.6375
vertex 1.643500936401 -6.13362899693558 20.6375
vertex 0.873109872463036 -3.25849040462203 20.6375
endloop
endfacet
facet normal 0.0 0.0 1.0
outer loop
vertex 0.873109872463036 -3.25849040462203 20.6375
vertex 1.643500936401 -6.13362899693558 20.6375
vertex 1.68671875 -2.92148257307907 20.6375
endloop
endfacet
facet normal 0.0 0.0 1.0
outer loop
vertex 1.68671875 -2.92148257307907 20.6375
vertex 1.643500936401 -6.13362899693558 20.6375
vertex 3.175 -5.49926131403119 20.6375
endloop
endfacet
facet normal 0.0 0.0 1.0
outer loop
vertex 1.68671875 -2.92148257307907 20.6375
vertex 3.175 -5.49926131403119 20.6375
vertex 2.38538053215899 -2.38538053215899 20.6375
endloop
endfacet
facet normal 0.0 0.0 1.0
outer loop
vertex 2.38538053215899 -2.38538053215899 20.6375
vertex 3.175 -5.49926131403119 20.6375
vertex 2.92148257307907 -1.68671875 20.6375
endloop
endfacet
facet normal 0.0 0.0 1.0
outer loop
vertex 2.92148257307907 -1.68671875 20.6375
vertex 3.175 -5.49926131403119 20.6375
vertex 3.25849040462203 -0.873109872463035 20.6375
endloop
endfacet
facet normal 0.0 0.0 1.0
outer loop
vertex 3.25849040462203 -0.873109872463035 20.6375
vertex 3.175 -5.49926131403119 20.6375
vertex 4.49012806053458 -4.49012806053458 20.6375
endloop
endfacet
facet normal 0.0 0.0 1.0
outer loop
vertex 3.25849040462203 -0.873109872463035 20.6375
vertex 4.49012806053458 -4.49012806053458 20.6375
vertex 3.3734375 0.0 20.6375
endloop
endfacet
facet normal 0.0 0.0 1.0
outer loop
vertex -3.3734375 -4.13126943649865e-16 20.6375
vertex -3.175 5.49926131403119 20.6375
vertex -4.49012806053458 4.49012806053458 20.6375
endloop
endfacet
facet normal 0.0 0.0 1.0
outer loop
vertex -3.175 5.49926131403119 20.6375
vertex -3.3734375 -4.13126943649865e-16 20.6375
vertex -3.25849040462203 0.873109872463034 20.6375
endloop
endfacet
facet normal 0.0 0.0 1.0
outer loop
vertex -3.175 5.49926131403119 20.6375
vertex -3.25849040462203 0.873109872463034 20.6375
vertex -2.92148257307907 1.68671875 20.6375
endloop
endfacet
facet normal 0.0 0.0 1.0
outer loop
vertex -3.175 5.49926131403119 20.6375
vertex -2.92148257307907 1.68671875 20.6375
vertex -1.64350093640101 6.13362899693558 20.6375
endloop
endfacet
facet normal 0.0 0.0 1.0
outer loop
vertex -1.64350093640101 6.13362899693558 20.6375
vertex -2.92148257307907 1.68671875 20.6375
vertex -2.385380532159 2.38538053215899 20.6375
endloop
endfacet
facet normal 0.0 0.0 1.0
outer loop
vertex -1.64350093640101 6.13362899693558 20.6375
vertex -2.385380532159 2.38538053215899 20.6375
vertex -1.68671875 2.92148257307907 20.6375
endloop
endfacet
facet normal 0.0 0.0 1.0
outer loop
vertex -1.64350093640101 6.13362899693558 20.6375
vertex -1.68671875 2.92148257307907 20.6375
vertex -0.873109872463037 3.25849040462203 20.6375
endloop
endfacet
facet normal 0.0 0.0 1.0
outer loop
vertex -1.64350093640101 6.13362899693558 20.6375
vertex -0.873109872463037 3.25849040462203 20.6375
vertex 3.88825358729285e-16 6.35 20.6375
endloop
endfacet
facet normal 0.0 0.0 1.0
outer loop
vertex 3.88825358729285e-16 6.35 20.6375
vertex -0.873109872463037 3.25849040462203 20.6375
vertex -6.19690415474797e-16 3.3734375 20.6375
endloop
endfacet
facet normal 0.0 0.0 1.0
outer loop
vertex 3.88825358729285e-16 6.35 20.6375
vertex -6.19690415474797e-16 3.3734375 20.6375
vertex 0.873109872463033 3.25849040462203 20.6375
endloop
endfacet
facet normal 0.0 0.0 1.0
outer loop
vertex 3.88825358729285e-16 6.35 20.6375
vertex 0.873109872463033 3.25849040462203 20.6375
vertex 1.64350093640101 6.13362899693558 20.6375
endloop
endfacet
facet normal 0.0 0.0 1.0
outer loop
vertex 1.64350093640101 6.13362899693558 20.6375
vertex 0.873109872463033 3.25849040462203 20.6375
vertex 1.68671875 2.92148257307907 20.6375
endloop
endfacet
facet normal 0.0 0.0 1.0
outer loop
vertex 1.64350093640101 6.13362899693558 20.6375
vertex 1.68671875 2.92148257307907 20.6375
vertex 3.175 5.49926131403118 20.6375
endloop
endfacet
facet normal 0.0 0.0 1.0
outer loop
vertex 3.175 5.49926131403118 20.6375
vertex 1.68671875 2.92148257307907 20.6375
vertex 2.38538053215899 2.38538053215899 20.6375
endloop
endfacet
facet normal 0.0 0.0 1.0
outer loop
vertex 3.175 5.49926131403118 20.6375
vertex 2.38538053215899 2.38538053215899 20.6375
vertex 2.92148257307907 1.68671875 20.6375
endloop
endfacet
facet normal 0.0 0.0 1.0
outer loop
vertex 3.175 5.49926131403118 20.6375
vertex 2.92148257307907 1.68671875 20.6375
vertex 3.25849040462203 0.873109872463037 20.6375
endloop
endfacet
facet normal 0.0 0.0 1.0
outer loop
vertex 3.175 5.49926131403118 20.6375
vertex 3.25849040462203 0.873109872463037 20.6375
vertex 4.49012806053458 4.49012806053458 20.6375
endloop
endfacet
facet normal 0.0 0.0 1.0
outer loop
vertex 4.49012806053458 4.49012806053458 20.6375
vertex 3.25849040462203 0.873109872463037 20.6375
vertex 3.3734375 0.0 20.6375
endloop
endfacet
facet normal 0.0 0.0 1.0
outer loop
vertex 4.49012806053458 4.49012806053458 20.6375
vertex 3.3734375 0.0 20.6375
vertex 4.49012806053458 -4.49012806053458 20.6375
endloop
endfacet
facet normal 0.0 0.0 1.0
outer loop
vertex 4.49012806053458 4.49012806053458 20.6375
vertex 4.49012806053458 -4.49012806053458 20.6375
vertex 5.49926131403118 -3.175 20.6375
endloop
endfacet
facet normal 0.0 0.0 1.0
outer loop
vertex 4.49012806053458 4.49012806053458 20.6375
vertex 5.49926131403118 -3.175 20.6375
vertex 5.49926131403119 3.175 20.6375
endloop
endfacet
facet normal 0.0 0.0 1.0
outer loop
vertex 5.49926131403119 3.175 20.6375
vertex 5.49926131403118 -3.175 20.6375
vertex 6.13362899693558 -1.64350093640101 20.6375
endloop
endfacet
facet normal 0.0 0.0 1.0
outer loop
vertex 5.49926131403119 3.175 20.6375
vertex 6.13362899693558 -1.64350093640101 20.6375
vertex 6.13362899693558 1.64350093640101 20.6375
endloop
endfacet
facet normal 0.0 0.0 1.0
outer loop
vertex 6.13362899693558 1.64350093640101 20.6375
vertex 6.13362899693558 -1.64350093640101 20.6375
vertex 6.35 0.0 20.6375
endloop
endfacet
facet normal -0.923879532511287 -0.382683432365089 -0.0
outer loop
vertex -6.13362899693558 -1.643500936401 20.6375
vertex -5.49926131403119 -3.175 0.0
vertex -5.49926131403119 -3.175 20.6375
endloop
endfacet
facet normal -0.923879532511287 -0.382683432365089 -0.0
outer loop
vertex -5.49926131403119 -3.175 0.0
vertex -6.13362899693558 -1.643500936401 20.6375
vertex -6.13362899693558 -1.643500936401 0.0
endloop
endfacet
facet normal -0.99144486137381 -0.130526192220051 -0.0
outer loop
vertex -6.35 7.77650717458569e-16 20.6375
vertex -6.13362899693558 -1.643500936401 0.0
vertex -6.13362899693558 -1.643500936401 20.6375
endloop
endfacet
facet normal -0.99144486137381 -0.130526192220051 -0.0
outer loop
vertex -6.13362899693558 -1.643500936401 0.0
vertex -6.35 7.77650717458569e-16 20.6375
vertex -6.35 7.77650717458569e-16 0.0
endloop
endfacet
facet normal -0.99144486137381 0.130526192220052 0.0
outer loop
vertex -6.13362899693558 1.64350093640101 20.6375
vertex -6.35 7.77650717458569e-16 0.0
vertex -6.35 7.77650717458569e-16 20.6375
endloop
endfacet
facet normal -0.99144486137381 0.130526192220052 0.0
outer loop
vertex -6.35 7.77650717458569e-16 0.0
vertex -6.13362899693558 1.64350093640101 20.6375
vertex -6.13362899693558 1.64350093640101 0.0
endloop
endfacet
facet normal -0.923879532511287 0.38268343236509 0.0
outer loop
vertex -5.49926131403118 3.175 20.6375
vertex -6.13362899693558 1.64350093640101 0.0
vertex -6.13362899693558 1.64350093640101 20.6375
endloop
endfacet
facet normal -0.923879532511287 0.38268343236509 0.0
outer loop
vertex -6.13362899693558 1.64350093640101 0.0
vertex -5.49926131403118 3.175 20.6375
vertex -5.49926131403118 3.175 0.0
endloop
endfacet
facet normal -0.793353340291235 0.608761429008721 0.0
outer loop
vertex -4.49012806053458 4.49012806053458 20.6375
vertex -5.49926131403118 3.175 0.0
vertex -5.49926131403118 3.175 20.6375
endloop
endfacet
facet normal -0.793353340291235 0.608761429008721 0.0
outer loop
vertex -5.49926131403118 3.175 0.0
vertex -4.49012806053458 4.49012806053458 20.6375
vertex -4.49012806053458 4.49012806053458 0.0
endloop
endfacet
facet normal -0.608761429008721 0.793353340291235 0.0
outer loop
vertex -4.49012806053458 4.49012806053458 20.6375
vertex -3.175 5.49926131403119 0.0
vertex -4.49012806053458 4.49012806053458 0.0
endloop
endfacet
facet normal -0.608761429008721 0.793353340291235 0.0
outer loop
vertex -3.175 5.49926131403119 0.0
vertex -4.49012806053458 4.49012806053458 20.6375
vertex -3.175 5.49926131403119 20.6375
endloop
endfacet
facet normal -0.382683432365089 0.923879532511287 0.0
outer loop
vertex -3.175 5.49926131403119 20.6375
vertex -1.64350093640101 6.13362899693558 0.0
vertex -3.175 5.49926131403119 0.0
endloop
endfacet
facet normal -0.382683432365089 0.923879532511287 0.0
outer loop
vertex -1.64350093640101 6.13362899693558 0.0
vertex -3.175 5.49926131403119 20.6375
vertex -1.64350093640101 6.13362899693558 20.6375
endloop
endfacet
facet normal -0.130526192220052 0.99144486137381 0.0
outer loop
vertex -1.64350093640101 6.13362899693558 20.6375
vertex 3.88825358729285e-16 6.35 0.0
vertex -1.64350093640101 6.13362899693558 0.0
endloop
endfacet
facet normal -0.130526192220052 0.99144486137381 0.0
outer loop
vertex 3.88825358729285e-16 6.35 0.0
vertex -1.64350093640101 6.13362899693558 20.6375
vertex 3.88825358729285e-16 6.35 20.6375
endloop
endfacet
facet normal 0.130526192220052 0.99144486137381 0.0
outer loop
vertex 3.88825358729285e-16 6.35 20.6375
vertex 1.64350093640101 6.13362899693558 0.0
vertex 3.88825358729285e-16 6.35 0.0
endloop
endfacet
facet normal 0.130526192220052 0.99144486137381 0.0
outer loop
vertex 1.64350093640101 6.13362899693558 0.0
vertex 3.88825358729285e-16 6.35 20.6375
vertex 1.64350093640101 6.13362899693558 20.6375
endloop
endfacet
facet normal 0.38268343236509 0.923879532511287 0.0
outer loop
vertex 1.64350093640101 6.13362899693558 20.6375
vertex 3.175 5.49926131403118 0.0
vertex 1.64350093640101 6.13362899693558 0.0
endloop
endfacet
facet normal 0.38268343236509 0.923879532511287 0.0
outer loop
vertex 3.175 5.49926131403118 0.0
vertex 1.64350093640101 6.13362899693558 20.6375
vertex 3.175 5.49926131403118 20.6375
endloop
endfacet
facet normal 0.608761429008721 0.793353340291235 0.0
outer loop
vertex 3.175 5.49926131403118 20.6375
vertex 4.49012806053458 4.49012806053458 0.0
vertex 3.175 5.49926131403118 0.0
endloop
endfacet
facet normal 0.608761429008721 0.793353340291235 0.0
outer loop
vertex 4.49012806053458 4.49012806053458 0.0
vertex 3.175 5.49926131403118 20.6375
vertex 4.49012806053458 4.49012806053458 20.6375
endloop
endfacet
facet normal 0.793353340291235 0.608761429008721 0.0
outer loop
vertex 4.49012806053458 4.49012806053458 0.0
vertex 5.49926131403119 3.175 20.6375
vertex 5.49926131403119 3.175 0.0
endloop
endfacet
facet normal 0.793353340291235 0.608761429008721 0.0
outer loop
vertex 5.49926131403119 3.175 20.6375
vertex 4.49012806053458 4.49012806053458 0.0
vertex 4.49012806053458 4.49012806053458 20.6375
endloop
endfacet
facet normal 0.923879532511287 0.38268343236509 0.0
outer loop
vertex 5.49926131403119 3.175 0.0
vertex 6.13362899693558 1.64350093640101 20.6375
vertex 6.13362899693558 1.64350093640101 0.0
endloop
endfacet
facet normal 0.923879532511287 0.38268343236509 0.0
outer loop
vertex 6.13362899693558 1.64350093640101 20.6375
vertex 5.49926131403119 3.175 0.0
vertex 5.49926131403119 3.175 20.6375
endloop
endfacet
facet normal 0.99144486137381 0.130526192220052 0.0
outer loop
vertex 6.13362899693558 1.64350093640101 0.0
vertex 6.35 0.0 20.6375
vertex 6.35 0.0 0.0
endloop
endfacet
facet normal 0.99144486137381 0.130526192220052 0.0
outer loop
vertex 6.35 0.0 20.6375
vertex 6.13362899693558 1.64350093640101 0.0
vertex 6.13362899693558 1.64350093640101 20.6375
endloop
endfacet
facet normal 0.99144486137381 -0.130526192220052 0.0
outer loop
vertex 6.35 0.0 0.0
vertex 6.13362899693558 -1.64350093640101 20.6375
vertex 6.13362899693558 -1.64350093640101 0.0
endloop
endfacet
facet normal 0.99144486137381 -0.130526192220052 0.0
outer loop
vertex 6.13362899693558 -1.64350093640101 20.6375
vertex 6.35 0.0 0.0
vertex 6.35 0.0 20.6375
endloop
endfacet
facet normal 0.923879532511286 -0.38268343236509 0.0
outer loop
vertex 6.13362899693558 -1.64350093640101 0.0
vertex 5.49926131403118 -3.175 20.6375
vertex 5.49926131403118 -3.175 0.0
endloop
endfacet
facet normal 0.923879532511286 -0.38268343236509 0.0
outer loop
vertex 5.49926131403118 -3.175 20.6375
vertex 6.13362899693558 -1.64350093640101 0.0
vertex 6.13362899693558 -1.64350093640101 20.6375
endloop
endfacet
facet normal 0.793353340291235 -0.608761429008721 0.0
outer loop
vertex 5.49926131403118 -3.175 0.0
vertex 4.49012806053458 -4.49012806053458 20.6375
vertex 4.49012806053458 -4.49012806053458 0.0
endloop
endfacet
facet normal 0.793353340291235 -0.608761429008721 0.0
outer loop
vertex 4.49012806053458 -4.49012806053458 20.6375
vertex 5.49926131403118 -3.175 0.0
vertex 5.49926131403118 -3.175 20.6375
endloop
endfacet
facet normal 0.60876142900872 -0.793353340291236 0.0
outer loop
vertex 4.49012806053458 -4.49012806053458 20.6375
vertex 3.175 -5.49926131403119 0.0
vertex 4.49012806053458 -4.49012806053458 0.0
endloop
endfacet
facet normal 0.60876142900872 -0.793353340291236 0.0
outer loop
vertex 3.175 -5.49926131403119 0.0
vertex 4.49012806053458 -4.49012806053458 20.6375
vertex 3.175 -5.49926131403119 20.6375
endloop
endfacet
facet normal 0.382683432365089 -0.923879532511287 0.0
outer loop
vertex 3.175 -5.49926131403119 20.6375
vertex 1.643500936401 -6.13362899693558 0.0
vertex 3.175 -5.49926131403119 0.0
endloop
endfacet
facet normal 0.382683432365089 -0.923879532511287 0.0
outer loop
vertex 1.643500936401 -6.13362899693558 0.0
vertex 3.175 -5.49926131403119 20.6375
vertex 1.643500936401 -6.13362899693558 20.6375
endloop
endfacet
facet normal 0.130526192220051 -0.99144486137381 0.0
outer loop
vertex 1.643500936401 -6.13362899693558 20.6375
vertex -1.16647607618785e-15 -6.35 0.0
vertex 1.643500936401 -6.13362899693558 0.0
endloop
endfacet
facet normal 0.130526192220051 -0.99144486137381 0.0
outer loop
vertex -1.16647607618785e-15 -6.35 0.0
vertex 1.643500936401 -6.13362899693558 20.6375
vertex -1.16647607618785e-15 -6.35 20.6375
endloop
endfacet
facet normal -0.130526192220052 -0.99144486137381 -0.0
outer loop
vertex -1.16647607618785e-15 -6.35 20.6375
vertex -1.64350093640101 -6.13362899693558 0.0
vertex -1.16647607618785e-15 -6.35 0.0
endloop
endfacet
facet normal -0.130526192220052 -0.99144486137381 -0.0
outer loop
vertex -1.64350093640101 -6.13362899693558 0.0
vertex -1.16647607618785e-15 -6.35 20.6375
vertex -1.64350093640101 -6.13362899693558 20.6375
endloop
endfacet
facet normal -0.38268343236509 -0.923879532511286 -0.0
outer loop
vertex -1.64350093640101 -6.13362899693558 20.6375
vertex -3.175 -5.49926131403118 0.0
vertex -1.64350093640101 -6.13362899693558 0.0
endloop
endfacet
facet normal -0.38268343236509 -0.923879532511286 -0.0
outer loop
vertex -3.175 -5.49926131403118 0.0
vertex -1.64350093640101 -6.13362899693558 20.6375
vertex -3.175 -5.49926131403118 20.6375
endloop
endfacet
facet normal -0.608761429008721 -0.793353340291235 -0.0
outer loop
vertex -3.175 -5.49926131403118 20.6375
vertex -4.49012806053458 -4.49012806053457 0.0
vertex -3.175 -5.49926131403118 0.0
endloop
endfacet
facet normal -0.608761429008721 -0.793353340291235 -0.0
outer loop
vertex -4.49012806053458 -4.49012806053457 0.0
vertex -3.175 -5.49926131403118 20.6375
vertex -4.49012806053458 -4.49012806053457 20.6375
endloop
endfacet
facet normal -0.793353340291235 -0.60876142900872 -0.0
outer loop
vertex -5.49926131403119 -3.175 20.6375
vertex -4.49012806053458 -4.49012806053457 0.0
vertex -4.49012806053458 -4.49012806053457 20.6375
endloop
endfacet
facet normal -0.793353340291235 -0.60876142900872 -0.0
outer loop
vertex -4.49012806053458 -4.49012806053457 0.0
vertex -5.49926131403119 -3.175 20.6375
vertex -5.49926131403119 -3.175 0.0
endloop
endfacet
facet normal 0.382683432365091 -0.923879532511287 1.77271326836018e-32
outer loop
vertex -0.873109872463037 3.25849040462203 20.6375
vertex -1.68671875 2.92148257307907 -1.76247905159244e-15
vertex -0.873109872463037 3.25849040462203 -1.76247905159244e-15
endloop
endfacet
facet normal 0.382683432365091 -0.923879532511287 1.77271326836018e-32
outer loop
vertex -1.68671875 2.92148257307907 -1.76247905159244e-15
vertex -0.873109872463037 3.25849040462203 20.6375
vertex -1.68671875 2.92148257307907 20.6375
endloop
endfacet
facet normal 0.608761429008721 -0.793353340291235 6.04639483311284e-33
outer loop
vertex -1.68671875 2.92148257307907 20.6375
vertex -2.385380532159 2.38538053215899 -1.76247905159244e-15
vertex -1.68671875 2.92148257307907 -1.76247905159244e-15
endloop
endfacet
facet normal 0.608761429008721 -0.793353340291235 6.04639483311284e-33
outer loop
vertex -2.385380532159 2.38538053215899 -1.76247905159244e-15
vertex -1.68671875 2.92148257307907 20.6375
vertex -2.385380532159 2.38538053215899 20.6375
endloop
endfacet
facet normal 0.793353340291235 -0.60876142900872 -6.04639483311286e-33
outer loop
vertex -2.385380532159 2.38538053215899 -1.76247905159244e-15
vertex -2.92148257307907 1.68671875 20.6375
vertex -2.92148257307907 1.68671875 -1.76247905159244e-15
endloop
endfacet
facet normal 0.793353340291235 -0.60876142900872 -6.04639483311286e-33
outer loop
vertex -2.92148257307907 1.68671875 20.6375
vertex -2.385380532159 2.38538053215899 -1.76247905159244e-15
vertex -2.385380532159 2.38538053215899 20.6375
endloop
endfacet
facet normal 0.923879532511287 -0.38268343236509 -1.77271326836018e-32
outer loop
vertex -2.92148257307907 1.68671875 -1.76247905159244e-15
vertex -3.25849040462203 0.873109872463034 20.6375
vertex -3.25849040462203 0.873109872463034 -1.76247905159244e-15
endloop
endfacet
facet normal 0.923879532511287 -0.38268343236509 -1.77271326836018e-32
outer loop
vertex -3.25849040462203 0.873109872463034 20.6375
vertex -2.92148257307907 1.68671875 -1.76247905159244e-15
vertex -2.92148257307907 1.68671875 20.6375
endloop
endfacet
facet normal 0.991444861373811 -0.130526192220051 -2.81997957371752e-32
outer loop
vertex -3.25849040462203 0.873109872463034 -1.76247905159244e-15
vertex -3.3734375 -4.13126943649865e-16 20.6375
vertex -3.3734375 -4.13126943649865e-16 -1.76247905159244e-15
endloop
endfacet
facet normal 0.991444861373811 -0.130526192220051 -2.81997957371752e-32
outer loop
vertex -3.3734375 -4.13126943649865e-16 20.6375
vertex -3.25849040462203 0.873109872463034 -1.76247905159244e-15
vertex -3.25849040462203 0.873109872463034 20.6375
endloop
endfacet
facet normal 0.99144486137381 0.130526192220052 -3.6750689313626e-32
outer loop
vertex -3.3734375 -4.13126943649865e-16 -1.76247905159244e-15
vertex -3.25849040462203 -0.873109872463036 20.6375
vertex -3.25849040462203 -0.873109872463036 -1.76247905159244e-15
endloop
endfacet
facet normal 0.99144486137381 0.130526192220052 -3.6750689313626e-32
outer loop
vertex -3.25849040462203 -0.873109872463036 20.6375
vertex -3.3734375 -4.13126943649865e-16 -1.76247905159244e-15
vertex -3.3734375 -4.13126943649865e-16 20.6375
endloop
endfacet
facet normal 0.923879532511287 0.38268343236509 -4.27970841467389e-32
outer loop
vertex -3.25849040462203 -0.873109872463036 -1.76247905159244e-15
vertex -2.92148257307907 -1.68671875 20.6375
vertex -2.92148257307907 -1.68671875 -1.76247905159244e-15
endloop
endfacet
facet normal 0.923879532511287 0.38268343236509 -4.27970841467389e-32
outer loop
vertex -2.92148257307907 -1.68671875 20.6375
vertex -3.25849040462203 -0.873109872463036 -1.76247905159244e-15
vertex -3.25849040462203 -0.873109872463036 20.6375
endloop
endfacet
facet normal 0.793353340291235 0.608761429008721 -4.5926928420777e-32
outer loop
vertex -2.92148257307907 -1.68671875 -1.76247905159244e-15
vertex -2.38538053215899 -2.38538053215899 20.6375
vertex -2.38538053215899 -2.38538053215899 -1.76247905159244e-15
endloop
endfacet
facet normal 0.793353340291235 0.608761429008721 -4.5926928420777e-32
outer loop
vertex -2.38538053215899 -2.38538053215899 20.6375
vertex -2.92148257307907 -1.68671875 -1.76247905159244e-15
vertex -2.92148257307907 -1.68671875 20.6375
endloop
endfacet
facet normal 0.608761429008721 0.793353340291235 -4.5926928420777e-32
outer loop
vertex -2.38538053215899 -2.38538053215899 20.6375
vertex -1.68671875 -2.92148257307907 -1.76247905159244e-15
vertex -2.38538053215899 -2.38538053215899 -1.76247905159244e-15
endloop
endfacet
facet normal 0.608761429008721 0.793353340291235 -4.5926928420777e-32
outer loop
vertex -1.68671875 -2.92148257307907 -1.76247905159244e-15
vertex -2.38538053215899 -2.38538053215899 20.6375
vertex -1.68671875 -2.92148257307907 20.6375
endloop
endfacet
facet normal 0.382683432365089 0.923879532511287 -4.27970841467388e-32
outer loop
vertex -1.68671875 -2.92148257307907 20.6375
vertex -0.873109872463034 -3.25849040462203 -1.76247905159244e-15
vertex -1.68671875 -2.92148257307907 -1.76247905159244e-15
endloop
endfacet
facet normal 0.382683432365089 0.923879532511287 -4.27970841467388e-32
outer loop
vertex -0.873109872463034 -3.25849040462203 -1.76247905159244e-15
vertex -1.68671875 -2.92148257307907 20.6375
vertex -0.873109872463034 -3.25849040462203 20.6375
endloop
endfacet
facet normal 0.130526192220052 0.99144486137381 -3.6750689313626e-32
outer loop
vertex -0.873109872463034 -3.25849040462203 20.6375
vertex 2.06563471824932e-16 -3.3734375 -1.76247905159244e-15
vertex -0.873109872463034 -3.25849040462203 -1.76247905159244e-15
endloop
endfacet
facet normal 0.130526192220052 0.99144486137381 -3.6750689313626e-32
outer loop
vertex 2.06563471824932e-16 -3.3734375 -1.76247905159244e-15
vertex -0.873109872463034 -3.25849040462203 20.6375
vertex 2.06563471824932e-16 -3.3734375 20.6375
endloop
endfacet
facet normal -0.130526192220052 0.99144486137381 -2.81997957371752e-32
outer loop
vertex 2.06563471824932e-16 -3.3734375 20.6375
vertex 0.873109872463036 -3.25849040462203 -1.76247905159244e-15
vertex 2.06563471824932e-16 -3.3734375 -1.76247905159244e-15
endloop
endfacet
facet normal -0.130526192220052 0.99144486137381 -2.81997957371752e-32
outer loop
vertex 0.873109872463036 -3.25849040462203 -1.76247905159244e-15
vertex 2.06563471824932e-16 -3.3734375 20.6375
vertex 0.873109872463036 -3.25849040462203 20.6375
endloop
endfacet
facet normal -0.38268343236509 0.923879532511287 -1.77271326836018e-32
outer loop
vertex 0.873109872463036 -3.25849040462203 20.6375
vertex 1.68671875 -2.92148257307907 -1.76247905159244e-15
vertex 0.873109872463036 -3.25849040462203 -1.76247905159244e-15
endloop
endfacet
facet normal -0.38268343236509 0.923879532511287 -1.77271326836018e-32
outer loop
vertex 1.68671875 -2.92148257307907 -1.76247905159244e-15
vertex 0.873109872463036 -3.25849040462203 20.6375
vertex 1.68671875 -2.92148257307907 20.6375
endloop
endfacet
facet normal -0.608761429008721 0.793353340291235 -6.04639483311284e-33
outer loop
vertex 1.68671875 -2.92148257307907 20.6375
vertex 2.38538053215899 -2.38538053215899 -1.76247905159244e-15
vertex 1.68671875 -2.92148257307907 -1.76247905159244e-15
endloop
endfacet
facet normal -0.608761429008721 0.793353340291235 -6.04639483311284e-33
outer loop
vertex 2.38538053215899 -2.38538053215899 -1.76247905159244e-15
vertex 1.68671875 -2.92148257307907 20.6375
vertex 2.38538053215899 -2.38538053215899 20.6375
endloop
endfacet
facet normal -0.793353340291235 0.608761429008721 6.04639483311286e-33
outer loop
vertex 2.92148257307907 -1.68671875 20.6375
vertex 2.38538053215899 -2.38538053215899 -1.76247905159244e-15
vertex 2.38538053215899 -2.38538053215899 20.6375
endloop
endfacet
facet normal -0.793353340291235 0.608761429008721 6.04639483311286e-33
outer loop
vertex 2.38538053215899 -2.38538053215899 -1.76247905159244e-15
vertex 2.92148257307907 -1.68671875 20.6375
vertex 2.92148257307907 -1.68671875 -1.76247905159244e-15
endloop
endfacet
facet normal -0.923879532511287 0.38268343236509 1.77271326836018e-32
outer loop
vertex 3.25849040462203 -0.873109872463035 20.6375
vertex 2.92148257307907 -1.68671875 -1.76247905159244e-15
vertex 2.92148257307907 -1.68671875 20.6375
endloop
endfacet
facet normal -0.923879532511287 0.38268343236509 1.77271326836018e-32
outer loop
vertex 2.92148257307907 -1.68671875 -1.76247905159244e-15
vertex 3.25849040462203 -0.873109872463035 20.6375
vertex 3.25849040462203 -0.873109872463035 -1.76247905159244e-15
endloop
endfacet
facet normal -0.99144486137381 0.130526192220052 2.81997957371752e-32
outer loop
vertex 3.3734375 0.0 20.6375
vertex 3.25849040462203 -0.873109872463035 -1.76247905159244e-15
vertex 3.25849040462203 -0.873109872463035 20.6375
endloop
endfacet
facet normal -0.99144486137381 0.130526192220052 2.81997957371752e-32
outer loop
vertex 3.25849040462203 -0.873109872463035 -1.76247905159244e-15
vertex 3.3734375 0.0 20.6375
vertex 3.3734375 -1.86964554792255e-31 -1.76247905159244e-15
endloop
endfacet
facet normal -0.99144486137381 -0.130526192220052 3.6750689313626e-32
outer loop
vertex 3.3734375 0.0 20.6375
vertex 3.25849040462203 0.873109872463037 -1.76247905159244e-15
vertex 3.3734375 -1.86964554792255e-31 -1.76247905159244e-15
endloop
endfacet
facet normal -0.99144486137381 -0.130526192220052 3.6750689313626e-32
outer loop
vertex 3.25849040462203 0.873109872463037 -1.76247905159244e-15
vertex 3.3734375 0.0 20.6375
vertex 3.25849040462203 0.873109872463037 20.6375
endloop
endfacet
facet normal -0.923879532511287 -0.382683432365091 4.27970841467389e-32
outer loop
vertex 2.92148257307907 1.68671875 20.6375
vertex 3.25849040462203 0.873109872463037 -1.76247905159244e-15
vertex 3.25849040462203 0.873109872463037 20.6375
endloop
endfacet
facet normal -0.923879532511287 -0.382683432365091 4.27970841467389e-32
outer loop
vertex 3.25849040462203 0.873109872463037 -1.76247905159244e-15
vertex 2.92148257307907 1.68671875 20.6375
vertex 2.92148257307907 1.68671875 -1.76247905159244e-15
endloop
endfacet
facet normal -0.793353340291235 -0.60876142900872 4.5926928420777e-32
outer loop
vertex 2.38538053215899 2.38538053215899 20.6375
vertex 2.92148257307907 1.68671875 -1.76247905159244e-15
vertex 2.92148257307907 1.68671875 20.6375
endloop
endfacet
facet normal -0.793353340291235 -0.60876142900872 4.5926928420777e-32
outer loop
vertex 2.92148257307907 1.68671875 -1.76247905159244e-15
vertex 2.38538053215899 2.38538053215899 20.6375
vertex 2.38538053215899 2.38538053215899 -1.76247905159244e-15
endloop
endfacet
facet normal -0.60876142900872 -0.793353340291236 4.5926928420777e-32
outer loop
vertex 2.38538053215899 2.38538053215899 20.6375
vertex 1.68671875 2.92148257307907 -1.76247905159244e-15
vertex 2.38538053215899 2.38538053215899 -1.76247905159244e-15
endloop
endfacet
facet normal -0.60876142900872 -0.793353340291236 4.5926928420777e-32
outer loop
vertex 1.68671875 2.92148257307907 -1.76247905159244e-15
vertex 2.38538053215899 2.38538053215899 20.6375
vertex 1.68671875 2.92148257307907 20.6375
endloop
endfacet
facet normal -0.382683432365089 -0.923879532511287 4.27970841467388e-32
outer loop
vertex 1.68671875 2.92148257307907 20.6375
vertex 0.873109872463033 3.25849040462203 -1.76247905159244e-15
vertex 1.68671875 2.92148257307907 -1.76247905159244e-15
endloop
endfacet
facet normal -0.382683432365089 -0.923879532511287 4.27970841467388e-32
outer loop
vertex 0.873109872463033 3.25849040462203 -1.76247905159244e-15
vertex 1.68671875 2.92148257307907 20.6375
vertex 0.873109872463033 3.25849040462203 20.6375
endloop
endfacet
facet normal -0.130526192220051 -0.991444861373811 3.6750689313626e-32
outer loop
vertex 0.873109872463033 3.25849040462203 20.6375
vertex -6.19690415474797e-16 3.3734375 -1.76247905159244e-15
vertex 0.873109872463033 3.25849040462203 -1.76247905159244e-15
endloop
endfacet
facet normal -0.130526192220051 -0.991444861373811 3.6750689313626e-32
outer loop
vertex -6.19690415474797e-16 3.3734375 -1.76247905159244e-15
vertex 0.873109872463033 3.25849040462203 20.6375
vertex -6.19690415474797e-16 3.3734375 20.6375
endloop
endfacet
facet normal 0.130526192220052 -0.99144486137381 2.81997957371752e-32
outer loop
vertex -6.19690415474797e-16 3.3734375 20.6375
vertex -0.873109872463037 3.25849040462203 -1.76247905159244e-15
vertex -6.19690415474797e-16 3.3734375 -1.76247905159244e-15
endloop
endfacet
facet normal 0.130526192220052 -0.99144486137381 2.81997957371752e-32
outer loop
vertex -0.873109872463037 3.25849040462203 -1.76247905159244e-15
vertex -6.19690415474797e-16 3.3734375 20.6375
vertex -0.873109872463037 3.25849040462203 20.6375
endloop
endfacet
endsolid handle2
