solid Default
  facet normal -1.000000e+00 -0.000000e+00 -0.000000e+00
    outer loop
      vertex -4.220000e+01 -1.760000e+01 0.000000e+00
      vertex -4.220000e+01 -1.760000e+01 2.700000e+01
      vertex -4.220000e+01 1.760000e+01 0.000000e+00
    endloop
  endfacet
  facet normal -1.000000e+00 0.000000e+00 0.000000e+00
    outer loop
      vertex -4.220000e+01 1.760000e+01 0.000000e+00
      vertex -4.220000e+01 -1.760000e+01 2.700000e+01
      vertex -4.220000e+01 1.760000e+01 2.700000e+01
    endloop
  endfacet
  facet normal 0.000000e+00 -1.000000e+00 0.000000e+00
    outer loop
      vertex -4.220000e+01 -1.760000e+01 2.700000e+01
      vertex -4.220000e+01 -1.760000e+01 0.000000e+00
      vertex 4.220000e+01 -1.760000e+01 0.000000e+00
    endloop
  endfacet
  facet normal 0.000000e+00 -1.000000e+00 0.000000e+00
    outer loop
      vertex 4.220000e+01 -1.760000e+01 2.700000e+01
      vertex -4.220000e+01 -1.760000e+01 2.700000e+01
      vertex 4.220000e+01 -1.760000e+01 0.000000e+00
    endloop
  endfacet
  facet normal -0.000000e+00 -0.000000e+00 -1.000000e+00
    outer loop
      vertex -4.220000e+01 -1.760000e+01 0.000000e+00
      vertex -4.220000e+01 1.760000e+01 0.000000e+00
      vertex 4.220000e+01 -1.760000e+01 0.000000e+00
    endloop
  endfacet
  facet normal 0.000000e+00 0.000000e+00 -1.000000e+00
    outer loop
      vertex 4.220000e+01 -1.760000e+01 0.000000e+00
      vertex -4.220000e+01 1.760000e+01 0.000000e+00
      vertex 4.220000e+01 1.760000e+01 0.000000e+00
    endloop
  endfacet
  facet normal 0.000000e+00 1.000000e+00 0.000000e+00
    outer loop
      vertex -4.220000e+01 1.760000e+01 0.000000e+00
      vertex -4.220000e+01 1.760000e+01 2.700000e+01
      vertex 4.220000e+01 1.760000e+01 0.000000e+00
    endloop
  endfacet
  facet normal 0.000000e+00 1.000000e+00 0.000000e+00
    outer loop
      vertex 4.220000e+01 1.760000e+01 0.000000e+00
      vertex -4.220000e+01 1.760000e+01 2.700000e+01
      vertex 4.220000e+01 1.760000e+01 2.700000e+01
    endloop
  endfacet
  facet normal 0.000000e+00 0.000000e+00 1.000000e+00
    outer loop
      vertex -3.980000e+01 -1.520000e+01 2.700000e+01
      vertex -4.220000e+01 -1.760000e+01 2.700000e+01
      vertex 4.220000e+01 -1.760000e+01 2.700000e+01
    endloop
  endfacet
  facet normal 0.000000e+00 0.000000e+00 1.000000e+00
    outer loop
      vertex -2.580000e+01 -1.520000e+01 2.700000e+01
      vertex -3.980000e+01 -1.520000e+01 2.700000e+01
      vertex 4.220000e+01 -1.760000e+01 2.700000e+01
    endloop
  endfacet
  facet normal 0.000000e+00 0.000000e+00 1.000000e+00
    outer loop
      vertex -4.220000e+01 1.760000e+01 2.700000e+01
      vertex -4.220000e+01 -1.760000e+01 2.700000e+01
      vertex -3.980000e+01 -1.520000e+01 2.700000e+01
    endloop
  endfacet
  facet normal 0.000000e+00 0.000000e+00 1.000000e+00
    outer loop
      vertex -4.220000e+01 1.760000e+01 2.700000e+01
      vertex -3.980000e+01 -1.520000e+01 2.700000e+01
      vertex -3.980000e+01 -1.200001e+00 2.700000e+01
    endloop
  endfacet
  facet normal 0.000000e+00 0.000000e+00 1.000000e+00
    outer loop
      vertex -3.980000e+01 1.199999e+00 2.700000e+01
      vertex -3.980000e+01 -1.200001e+00 2.700000e+01
      vertex -2.580000e+01 -1.200001e+00 2.700000e+01
    endloop
  endfacet
  facet normal 0.000000e+00 0.000000e+00 1.000000e+00
    outer loop
      vertex -2.340000e+01 -1.520000e+01 2.700000e+01
      vertex -2.580000e+01 -1.520000e+01 2.700000e+01
      vertex 4.220000e+01 -1.760000e+01 2.700000e+01
    endloop
  endfacet
  facet normal 0.000000e+00 0.000000e+00 1.000000e+00
    outer loop
      vertex 2.580000e+01 -1.520000e+01 2.700000e+01
      vertex 2.580000e+01 -1.200001e+00 2.700000e+01
      vertex 2.340000e+01 1.199999e+00 2.700000e+01
    endloop
  endfacet
  facet normal 0.000000e+00 0.000000e+00 1.000000e+00
    outer loop
      vertex -4.220000e+01 1.760000e+01 2.700000e+01
      vertex -3.980000e+01 -1.200001e+00 2.700000e+01
      vertex -3.980000e+01 1.199999e+00 2.700000e+01
    endloop
  endfacet
  facet normal 0.000000e+00 0.000000e+00 1.000000e+00
    outer loop
      vertex 2.340000e+01 1.199999e+00 2.700000e+01
      vertex 9.399998e+00 1.199999e+00 2.700000e+01
      vertex 2.340000e+01 -1.200001e+00 2.700000e+01
    endloop
  endfacet
  facet normal 0.000000e+00 0.000000e+00 1.000000e+00
    outer loop
      vertex 4.220000e+01 1.760000e+01 2.700000e+01
      vertex -4.220000e+01 1.760000e+01 2.700000e+01
      vertex -2.580000e+01 1.520000e+01 2.700000e+01
    endloop
  endfacet
  facet normal 0.000000e+00 0.000000e+00 1.000000e+00
    outer loop
      vertex -3.980000e+01 1.520000e+01 2.700000e+01
      vertex -2.580000e+01 1.520000e+01 2.700000e+01
      vertex -4.220000e+01 1.760000e+01 2.700000e+01
    endloop
  endfacet
  facet normal 0.000000e+00 0.000000e+00 1.000000e+00
    outer loop
      vertex -9.400002e+00 -1.520000e+01 2.700000e+01
      vertex -2.340000e+01 -1.520000e+01 2.700000e+01
      vertex 4.220000e+01 -1.760000e+01 2.700000e+01
    endloop
  endfacet
  facet normal 0.000000e+00 0.000000e+00 1.000000e+00
    outer loop
      vertex -3.980000e+01 1.199999e+00 2.700000e+01
      vertex -3.980000e+01 1.520000e+01 2.700000e+01
      vertex -4.220000e+01 1.760000e+01 2.700000e+01
    endloop
  endfacet
  facet normal 0.000000e+00 0.000000e+00 1.000000e+00
    outer loop
      vertex -7.000000e+00 -1.200001e+00 2.700000e+01
      vertex -7.000000e+00 1.199999e+00 2.700000e+01
      vertex -9.400002e+00 1.199999e+00 2.700000e+01
    endloop
  endfacet
  facet normal 0.000000e+00 0.000000e+00 1.000000e+00
    outer loop
      vertex -2.580000e+01 1.199999e+00 2.700000e+01
      vertex -2.580000e+01 -1.200001e+00 2.700000e+01
      vertex -2.340000e+01 -1.200001e+00 2.700000e+01
    endloop
  endfacet
  facet normal 0.000000e+00 0.000000e+00 1.000000e+00
    outer loop
      vertex -2.340000e+01 1.199999e+00 2.700000e+01
      vertex -2.580000e+01 1.199999e+00 2.700000e+01
      vertex -9.400002e+00 -1.200001e+00 2.700000e+01
    endloop
  endfacet
  facet normal 0.000000e+00 0.000000e+00 1.000000e+00
    outer loop
      vertex -7.000000e+00 -1.520000e+01 2.700000e+01
      vertex -9.400002e+00 -1.520000e+01 2.700000e+01
      vertex 4.220000e+01 -1.760000e+01 2.700000e+01
    endloop
  endfacet
  facet normal 0.000000e+00 0.000000e+00 1.000000e+00
    outer loop
      vertex -2.340000e+01 1.199999e+00 2.700000e+01
      vertex -2.340000e+01 1.520000e+01 2.700000e+01
      vertex -2.580000e+01 1.520000e+01 2.700000e+01
    endloop
  endfacet
  facet normal 0.000000e+00 0.000000e+00 1.000000e+00
    outer loop
      vertex -9.400002e+00 1.520000e+01 2.700000e+01
      vertex -9.400002e+00 1.199999e+00 2.700000e+01
      vertex -7.000000e+00 1.199999e+00 2.700000e+01
    endloop
  endfacet
  facet normal 0.000000e+00 0.000000e+00 1.000000e+00
    outer loop
      vertex 7.000000e+00 1.520000e+01 2.700000e+01
      vertex 7.000000e+00 1.199999e+00 2.700000e+01
      vertex 9.399998e+00 1.199999e+00 2.700000e+01
    endloop
  endfacet
  facet normal 0.000000e+00 0.000000e+00 1.000000e+00
    outer loop
      vertex 4.220000e+01 1.760000e+01 2.700000e+01
      vertex -2.580000e+01 1.520000e+01 2.700000e+01
      vertex -2.340000e+01 1.520000e+01 2.700000e+01
    endloop
  endfacet
  facet normal 0.000000e+00 0.000000e+00 1.000000e+00
    outer loop
      vertex 4.220000e+01 1.760000e+01 2.700000e+01
      vertex -2.340000e+01 1.520000e+01 2.700000e+01
      vertex -9.400002e+00 1.520000e+01 2.700000e+01
    endloop
  endfacet
  facet normal 0.000000e+00 0.000000e+00 1.000000e+00
    outer loop
      vertex 9.399998e+00 -1.200001e+00 2.700000e+01
      vertex 9.399998e+00 1.199999e+00 2.700000e+01
      vertex 7.000000e+00 1.199999e+00 2.700000e+01
    endloop
  endfacet
  facet normal 0.000000e+00 0.000000e+00 1.000000e+00
    outer loop
      vertex 7.000000e+00 -1.520000e+01 2.700000e+01
      vertex -7.000000e+00 -1.520000e+01 2.700000e+01
      vertex 4.220000e+01 -1.760000e+01 2.700000e+01
    endloop
  endfacet
  facet normal 0.000000e+00 0.000000e+00 1.000000e+00
    outer loop
      vertex -2.580000e+01 1.199999e+00 2.700000e+01
      vertex -3.980000e+01 1.199999e+00 2.700000e+01
      vertex -2.580000e+01 -1.200001e+00 2.700000e+01
    endloop
  endfacet
  facet normal 0.000000e+00 0.000000e+00 1.000000e+00
    outer loop
      vertex 9.399998e+00 -1.200001e+00 2.700000e+01
      vertex 2.340000e+01 -1.200001e+00 2.700000e+01
      vertex 9.399998e+00 1.199999e+00 2.700000e+01
    endloop
  endfacet
  facet normal 0.000000e+00 0.000000e+00 1.000000e+00
    outer loop
      vertex -9.400002e+00 1.199999e+00 2.700000e+01
      vertex -9.400002e+00 -1.200001e+00 2.700000e+01
      vertex -7.000000e+00 -1.200001e+00 2.700000e+01
    endloop
  endfacet
  facet normal 0.000000e+00 0.000000e+00 1.000000e+00
    outer loop
      vertex 9.399998e+00 -1.520000e+01 2.700000e+01
      vertex 7.000000e+00 -1.520000e+01 2.700000e+01
      vertex 4.220000e+01 -1.760000e+01 2.700000e+01
    endloop
  endfacet
  facet normal 0.000000e+00 0.000000e+00 1.000000e+00
    outer loop
      vertex -9.400002e+00 1.199999e+00 2.700000e+01
      vertex -2.340000e+01 1.199999e+00 2.700000e+01
      vertex -9.400002e+00 -1.200001e+00 2.700000e+01
    endloop
  endfacet
  facet normal 0.000000e+00 0.000000e+00 1.000000e+00
    outer loop
      vertex -7.000000e+00 1.199999e+00 2.700000e+01
      vertex -7.000000e+00 1.520000e+01 2.700000e+01
      vertex -9.400002e+00 1.520000e+01 2.700000e+01
    endloop
  endfacet
  facet normal 0.000000e+00 0.000000e+00 1.000000e+00
    outer loop
      vertex 4.220000e+01 1.760000e+01 2.700000e+01
      vertex -9.400002e+00 1.520000e+01 2.700000e+01
      vertex -7.000000e+00 1.520000e+01 2.700000e+01
    endloop
  endfacet
  facet normal 0.000000e+00 0.000000e+00 1.000000e+00
    outer loop
      vertex 4.220000e+01 1.760000e+01 2.700000e+01
      vertex -7.000000e+00 1.520000e+01 2.700000e+01
      vertex 7.000000e+00 1.520000e+01 2.700000e+01
    endloop
  endfacet
  facet normal 0.000000e+00 0.000000e+00 1.000000e+00
    outer loop
      vertex 3.980000e+01 -1.200001e+00 2.700000e+01
      vertex 3.980000e+01 -1.520000e+01 2.700000e+01
      vertex 4.220000e+01 -1.760000e+01 2.700000e+01
    endloop
  endfacet
  facet normal 0.000000e+00 0.000000e+00 1.000000e+00
    outer loop
      vertex -7.000000e+00 -1.520000e+01 2.700000e+01
      vertex -7.000000e+00 -1.200001e+00 2.700000e+01
      vertex -9.400002e+00 -1.200001e+00 2.700000e+01
    endloop
  endfacet
  facet normal 0.000000e+00 0.000000e+00 1.000000e+00
    outer loop
      vertex 2.340000e+01 -1.520000e+01 2.700000e+01
      vertex 9.399998e+00 -1.520000e+01 2.700000e+01
      vertex 4.220000e+01 -1.760000e+01 2.700000e+01
    endloop
  endfacet
  facet normal 0.000000e+00 0.000000e+00 1.000000e+00
    outer loop
      vertex 7.000000e+00 1.199999e+00 2.700000e+01
      vertex -7.000000e+00 1.199999e+00 2.700000e+01
      vertex 7.000000e+00 -1.200001e+00 2.700000e+01
    endloop
  endfacet
  facet normal 0.000000e+00 0.000000e+00 1.000000e+00
    outer loop
      vertex 2.340000e+01 -1.200001e+00 2.700000e+01
      vertex 2.340000e+01 -1.520000e+01 2.700000e+01
      vertex 2.580000e+01 -1.520000e+01 2.700000e+01
    endloop
  endfacet
  facet normal 0.000000e+00 0.000000e+00 1.000000e+00
    outer loop
      vertex 9.399998e+00 1.199999e+00 2.700000e+01
      vertex 9.399998e+00 1.520000e+01 2.700000e+01
      vertex 7.000000e+00 1.520000e+01 2.700000e+01
    endloop
  endfacet
  facet normal 0.000000e+00 0.000000e+00 1.000000e+00
    outer loop
      vertex 9.399998e+00 -1.520000e+01 2.700000e+01
      vertex 9.399998e+00 -1.200001e+00 2.700000e+01
      vertex 7.000000e+00 -1.200001e+00 2.700000e+01
    endloop
  endfacet
  facet normal 0.000000e+00 0.000000e+00 1.000000e+00
    outer loop
      vertex 2.580000e+01 -1.520000e+01 2.700000e+01
      vertex 2.340000e+01 -1.520000e+01 2.700000e+01
      vertex 4.220000e+01 -1.760000e+01 2.700000e+01
    endloop
  endfacet
  facet normal 0.000000e+00 0.000000e+00 1.000000e+00
    outer loop
      vertex 7.000000e+00 1.199999e+00 2.700000e+01
      vertex 7.000000e+00 -1.200001e+00 2.700000e+01
      vertex 9.399998e+00 -1.200001e+00 2.700000e+01
    endloop
  endfacet
  facet normal 0.000000e+00 0.000000e+00 1.000000e+00
    outer loop
      vertex 2.580000e+01 -1.520000e+01 2.700000e+01
      vertex 2.340000e+01 1.199999e+00 2.700000e+01
      vertex 2.340000e+01 -1.200001e+00 2.700000e+01
    endloop
  endfacet
  facet normal 0.000000e+00 0.000000e+00 1.000000e+00
    outer loop
      vertex 4.220000e+01 1.760000e+01 2.700000e+01
      vertex 7.000000e+00 1.520000e+01 2.700000e+01
      vertex 9.399998e+00 1.520000e+01 2.700000e+01
    endloop
  endfacet
  facet normal 0.000000e+00 0.000000e+00 1.000000e+00
    outer loop
      vertex 2.580000e+01 1.199999e+00 2.700000e+01
      vertex 2.580000e+01 1.520000e+01 2.700000e+01
      vertex 2.340000e+01 1.520000e+01 2.700000e+01
    endloop
  endfacet
  facet normal 0.000000e+00 0.000000e+00 1.000000e+00
    outer loop
      vertex 4.220000e+01 1.760000e+01 2.700000e+01
      vertex 9.399998e+00 1.520000e+01 2.700000e+01
      vertex 2.340000e+01 1.520000e+01 2.700000e+01
    endloop
  endfacet
  facet normal 0.000000e+00 0.000000e+00 1.000000e+00
    outer loop
      vertex -2.340000e+01 -1.520000e+01 2.700000e+01
      vertex -2.340000e+01 -1.200001e+00 2.700000e+01
      vertex -2.580000e+01 -1.200001e+00 2.700000e+01
    endloop
  endfacet
  facet normal 0.000000e+00 0.000000e+00 1.000000e+00
    outer loop
      vertex -2.580000e+01 1.520000e+01 2.700000e+01
      vertex -2.580000e+01 1.199999e+00 2.700000e+01
      vertex -2.340000e+01 1.199999e+00 2.700000e+01
    endloop
  endfacet
  facet normal 0.000000e+00 0.000000e+00 1.000000e+00
    outer loop
      vertex 2.580000e+01 -1.200001e+00 2.700000e+01
      vertex 3.980000e+01 -1.200001e+00 2.700000e+01
      vertex 2.580000e+01 1.199999e+00 2.700000e+01
    endloop
  endfacet
  facet normal 0.000000e+00 0.000000e+00 1.000000e+00
    outer loop
      vertex 2.340000e+01 1.520000e+01 2.700000e+01
      vertex 2.340000e+01 1.199999e+00 2.700000e+01
      vertex 2.580000e+01 -1.200001e+00 2.700000e+01
    endloop
  endfacet
  facet normal 0.000000e+00 0.000000e+00 1.000000e+00
    outer loop
      vertex 4.220000e+01 1.760000e+01 2.700000e+01
      vertex 3.980000e+01 -1.200001e+00 2.700000e+01
      vertex 4.220000e+01 -1.760000e+01 2.700000e+01
    endloop
  endfacet
  facet normal 0.000000e+00 0.000000e+00 1.000000e+00
    outer loop
      vertex 3.980000e+01 1.199999e+00 2.700000e+01
      vertex 2.580000e+01 1.199999e+00 2.700000e+01
      vertex 3.980000e+01 -1.200001e+00 2.700000e+01
    endloop
  endfacet
  facet normal 0.000000e+00 0.000000e+00 1.000000e+00
    outer loop
      vertex 2.340000e+01 1.520000e+01 2.700000e+01
      vertex 2.580000e+01 -1.200001e+00 2.700000e+01
      vertex 2.580000e+01 1.199999e+00 2.700000e+01
    endloop
  endfacet
  facet normal 0.000000e+00 0.000000e+00 1.000000e+00
    outer loop
      vertex 4.220000e+01 1.760000e+01 2.700000e+01
      vertex 2.340000e+01 1.520000e+01 2.700000e+01
      vertex 2.580000e+01 1.520000e+01 2.700000e+01
    endloop
  endfacet
  facet normal 0.000000e+00 0.000000e+00 1.000000e+00
    outer loop
      vertex 4.220000e+01 1.760000e+01 2.700000e+01
      vertex 2.580000e+01 1.520000e+01 2.700000e+01
      vertex 3.980000e+01 1.520000e+01 2.700000e+01
    endloop
  endfacet
  facet normal 0.000000e+00 0.000000e+00 1.000000e+00
    outer loop
      vertex 4.220000e+01 1.760000e+01 2.700000e+01
      vertex 3.980000e+01 1.199999e+00 2.700000e+01
      vertex 3.980000e+01 -1.200001e+00 2.700000e+01
    endloop
  endfacet
  facet normal 0.000000e+00 0.000000e+00 1.000000e+00
    outer loop
      vertex 4.220000e+01 1.760000e+01 2.700000e+01
      vertex 3.980000e+01 1.520000e+01 2.700000e+01
      vertex 3.980000e+01 1.199999e+00 2.700000e+01
    endloop
  endfacet
  facet normal 0.000000e+00 0.000000e+00 1.000000e+00
    outer loop
      vertex -2.340000e+01 -1.200001e+00 2.700000e+01
      vertex -9.400002e+00 -1.200001e+00 2.700000e+01
      vertex -2.580000e+01 1.199999e+00 2.700000e+01
    endloop
  endfacet
  facet normal 0.000000e+00 0.000000e+00 1.000000e+00
    outer loop
      vertex -7.000000e+00 -1.200001e+00 2.700000e+01
      vertex 7.000000e+00 -1.200001e+00 2.700000e+01
      vertex -7.000000e+00 1.199999e+00 2.700000e+01
    endloop
  endfacet
  facet normal 0.000000e+00 0.000000e+00 1.000000e+00
    outer loop
      vertex 3.980000e+01 -1.520000e+01 2.700000e+01
      vertex 2.580000e+01 -1.520000e+01 2.700000e+01
      vertex 4.220000e+01 -1.760000e+01 2.700000e+01
    endloop
  endfacet
  facet normal 0.000000e+00 0.000000e+00 1.000000e+00
    outer loop
      vertex 7.000000e+00 -1.200001e+00 2.700000e+01
      vertex 7.000000e+00 -1.520000e+01 2.700000e+01
      vertex 9.399998e+00 -1.520000e+01 2.700000e+01
    endloop
  endfacet
  facet normal 0.000000e+00 0.000000e+00 1.000000e+00
    outer loop
      vertex -9.400002e+00 -1.200001e+00 2.700000e+01
      vertex -9.400002e+00 -1.520000e+01 2.700000e+01
      vertex -7.000000e+00 -1.520000e+01 2.700000e+01
    endloop
  endfacet
  facet normal 0.000000e+00 0.000000e+00 1.000000e+00
    outer loop
      vertex -2.580000e+01 -1.200001e+00 2.700000e+01
      vertex -2.580000e+01 -1.520000e+01 2.700000e+01
      vertex -2.340000e+01 -1.520000e+01 2.700000e+01
    endloop
  endfacet
  facet normal 1.000000e+00 0.000000e+00 0.000000e+00
    outer loop
      vertex 4.220000e+01 -1.760000e+01 2.700000e+01
      vertex 4.220000e+01 -1.760000e+01 0.000000e+00
      vertex 4.220000e+01 1.760000e+01 0.000000e+00
    endloop
  endfacet
  facet normal 1.000000e+00 0.000000e+00 0.000000e+00
    outer loop
      vertex 4.220000e+01 1.760000e+01 2.700000e+01
      vertex 4.220000e+01 -1.760000e+01 2.700000e+01
      vertex 4.220000e+01 1.760000e+01 0.000000e+00
    endloop
  endfacet
  facet normal 1.000000e+00 0.000000e+00 0.000000e+00
    outer loop
      vertex -3.980000e+01 -1.200001e+00 2.000000e+00
      vertex -3.980000e+01 -1.200001e+00 2.700000e+01
      vertex -3.980000e+01 -1.520000e+01 2.700000e+01
    endloop
  endfacet
  facet normal 1.000000e+00 0.000000e+00 0.000000e+00
    outer loop
      vertex -3.980000e+01 -1.520000e+01 2.000000e+00
      vertex -3.980000e+01 -1.200001e+00 2.000000e+00
      vertex -3.980000e+01 -1.520000e+01 2.700000e+01
    endloop
  endfacet
  facet normal 0.000000e+00 1.000000e+00 0.000000e+00
    outer loop
      vertex -2.580000e+01 -1.520000e+01 2.700000e+01
      vertex -2.580000e+01 -1.520000e+01 2.000000e+00
      vertex -3.980000e+01 -1.520000e+01 2.700000e+01
    endloop
  endfacet
  facet normal 0.000000e+00 1.000000e+00 0.000000e+00
    outer loop
      vertex -3.980000e+01 -1.520000e+01 2.700000e+01
      vertex -2.580000e+01 -1.520000e+01 2.000000e+00
      vertex -3.980000e+01 -1.520000e+01 2.000000e+00
    endloop
  endfacet
  facet normal -1.000000e+00 0.000000e+00 0.000000e+00
    outer loop
      vertex -2.580000e+01 -1.200001e+00 2.700000e+01
      vertex -2.580000e+01 -1.200001e+00 2.000000e+00
      vertex -2.580000e+01 -1.520000e+01 2.700000e+01
    endloop
  endfacet
  facet normal -1.000000e+00 0.000000e+00 0.000000e+00
    outer loop
      vertex -2.580000e+01 -1.520000e+01 2.700000e+01
      vertex -2.580000e+01 -1.200001e+00 2.000000e+00
      vertex -2.580000e+01 -1.520000e+01 2.000000e+00
    endloop
  endfacet
  facet normal 0.000000e+00 -1.000000e+00 0.000000e+00
    outer loop
      vertex -2.580000e+01 -1.200001e+00 2.000000e+00
      vertex -2.580000e+01 -1.200001e+00 2.700000e+01
      vertex -3.980000e+01 -1.200001e+00 2.700000e+01
    endloop
  endfacet
  facet normal -0.000000e+00 -1.000000e+00 -0.000000e+00
    outer loop
      vertex -3.980000e+01 -1.200001e+00 2.000000e+00
      vertex -2.580000e+01 -1.200001e+00 2.000000e+00
      vertex -3.980000e+01 -1.200001e+00 2.700000e+01
    endloop
  endfacet
  facet normal 1.000000e+00 0.000000e+00 0.000000e+00
    outer loop
      vertex -3.980000e+01 1.520000e+01 2.000000e+00
      vertex -3.980000e+01 1.520000e+01 2.700000e+01
      vertex -3.980000e+01 1.199999e+00 2.700000e+01
    endloop
  endfacet
  facet normal 1.000000e+00 0.000000e+00 0.000000e+00
    outer loop
      vertex -3.980000e+01 1.199999e+00 2.000000e+00
      vertex -3.980000e+01 1.520000e+01 2.000000e+00
      vertex -3.980000e+01 1.199999e+00 2.700000e+01
    endloop
  endfacet
  facet normal 0.000000e+00 1.000000e+00 0.000000e+00
    outer loop
      vertex -2.580000e+01 1.199999e+00 2.700000e+01
      vertex -2.580000e+01 1.199999e+00 2.000000e+00
      vertex -3.980000e+01 1.199999e+00 2.700000e+01
    endloop
  endfacet
  facet normal 0.000000e+00 1.000000e+00 0.000000e+00
    outer loop
      vertex -3.980000e+01 1.199999e+00 2.700000e+01
      vertex -2.580000e+01 1.199999e+00 2.000000e+00
      vertex -3.980000e+01 1.199999e+00 2.000000e+00
    endloop
  endfacet
  facet normal -1.000000e+00 0.000000e+00 0.000000e+00
    outer loop
      vertex -2.580000e+01 1.520000e+01 2.700000e+01
      vertex -2.580000e+01 1.520000e+01 2.000000e+00
      vertex -2.580000e+01 1.199999e+00 2.700000e+01
    endloop
  endfacet
  facet normal -1.000000e+00 0.000000e+00 0.000000e+00
    outer loop
      vertex -2.580000e+01 1.199999e+00 2.700000e+01
      vertex -2.580000e+01 1.520000e+01 2.000000e+00
      vertex -2.580000e+01 1.199999e+00 2.000000e+00
    endloop
  endfacet
  facet normal 0.000000e+00 -1.000000e+00 0.000000e+00
    outer loop
      vertex -2.580000e+01 1.520000e+01 2.000000e+00
      vertex -2.580000e+01 1.520000e+01 2.700000e+01
      vertex -3.980000e+01 1.520000e+01 2.700000e+01
    endloop
  endfacet
  facet normal -0.000000e+00 -1.000000e+00 -0.000000e+00
    outer loop
      vertex -3.980000e+01 1.520000e+01 2.000000e+00
      vertex -2.580000e+01 1.520000e+01 2.000000e+00
      vertex -3.980000e+01 1.520000e+01 2.700000e+01
    endloop
  endfacet
  facet normal 1.000000e+00 0.000000e+00 0.000000e+00
    outer loop
      vertex -2.340000e+01 -1.200001e+00 2.000000e+00
      vertex -2.340000e+01 -1.200001e+00 2.700000e+01
      vertex -2.340000e+01 -1.520000e+01 2.700000e+01
    endloop
  endfacet
  facet normal 1.000000e+00 0.000000e+00 0.000000e+00
    outer loop
      vertex -2.340000e+01 -1.520000e+01 2.000000e+00
      vertex -2.340000e+01 -1.200001e+00 2.000000e+00
      vertex -2.340000e+01 -1.520000e+01 2.700000e+01
    endloop
  endfacet
  facet normal 0.000000e+00 1.000000e+00 0.000000e+00
    outer loop
      vertex -9.400002e+00 -1.520000e+01 2.700000e+01
      vertex -9.400002e+00 -1.520000e+01 2.000000e+00
      vertex -2.340000e+01 -1.520000e+01 2.700000e+01
    endloop
  endfacet
  facet normal 0.000000e+00 1.000000e+00 0.000000e+00
    outer loop
      vertex -2.340000e+01 -1.520000e+01 2.700000e+01
      vertex -9.400002e+00 -1.520000e+01 2.000000e+00
      vertex -2.340000e+01 -1.520000e+01 2.000000e+00
    endloop
  endfacet
  facet normal -1.000000e+00 0.000000e+00 0.000000e+00
    outer loop
      vertex -9.400002e+00 -1.200001e+00 2.700000e+01
      vertex -9.400002e+00 -1.200001e+00 2.000000e+00
      vertex -9.400002e+00 -1.520000e+01 2.700000e+01
    endloop
  endfacet
  facet normal -1.000000e+00 0.000000e+00 0.000000e+00
    outer loop
      vertex -9.400002e+00 -1.520000e+01 2.700000e+01
      vertex -9.400002e+00 -1.200001e+00 2.000000e+00
      vertex -9.400002e+00 -1.520000e+01 2.000000e+00
    endloop
  endfacet
  facet normal 0.000000e+00 -1.000000e+00 0.000000e+00
    outer loop
      vertex -9.400002e+00 -1.200001e+00 2.000000e+00
      vertex -9.400002e+00 -1.200001e+00 2.700000e+01
      vertex -2.340000e+01 -1.200001e+00 2.700000e+01
    endloop
  endfacet
  facet normal -0.000000e+00 -1.000000e+00 -0.000000e+00
    outer loop
      vertex -2.340000e+01 -1.200001e+00 2.000000e+00
      vertex -9.400002e+00 -1.200001e+00 2.000000e+00
      vertex -2.340000e+01 -1.200001e+00 2.700000e+01
    endloop
  endfacet
  facet normal 1.000000e+00 0.000000e+00 0.000000e+00
    outer loop
      vertex -2.340000e+01 1.520000e+01 2.000000e+00
      vertex -2.340000e+01 1.520000e+01 2.700000e+01
      vertex -2.340000e+01 1.199999e+00 2.700000e+01
    endloop
  endfacet
  facet normal 1.000000e+00 0.000000e+00 0.000000e+00
    outer loop
      vertex -2.340000e+01 1.199999e+00 2.000000e+00
      vertex -2.340000e+01 1.520000e+01 2.000000e+00
      vertex -2.340000e+01 1.199999e+00 2.700000e+01
    endloop
  endfacet
  facet normal 0.000000e+00 1.000000e+00 0.000000e+00
    outer loop
      vertex -9.400002e+00 1.199999e+00 2.700000e+01
      vertex -9.400002e+00 1.199999e+00 2.000000e+00
      vertex -2.340000e+01 1.199999e+00 2.700000e+01
    endloop
  endfacet
  facet normal 0.000000e+00 1.000000e+00 0.000000e+00
    outer loop
      vertex -2.340000e+01 1.199999e+00 2.700000e+01
      vertex -9.400002e+00 1.199999e+00 2.000000e+00
      vertex -2.340000e+01 1.199999e+00 2.000000e+00
    endloop
  endfacet
  facet normal -1.000000e+00 0.000000e+00 0.000000e+00
    outer loop
      vertex -9.400002e+00 1.520000e+01 2.700000e+01
      vertex -9.400002e+00 1.520000e+01 2.000000e+00
      vertex -9.400002e+00 1.199999e+00 2.700000e+01
    endloop
  endfacet
  facet normal -1.000000e+00 0.000000e+00 0.000000e+00
    outer loop
      vertex -9.400002e+00 1.199999e+00 2.700000e+01
      vertex -9.400002e+00 1.520000e+01 2.000000e+00
      vertex -9.400002e+00 1.199999e+00 2.000000e+00
    endloop
  endfacet
  facet normal 0.000000e+00 -1.000000e+00 0.000000e+00
    outer loop
      vertex -9.400002e+00 1.520000e+01 2.000000e+00
      vertex -9.400002e+00 1.520000e+01 2.700000e+01
      vertex -2.340000e+01 1.520000e+01 2.700000e+01
    endloop
  endfacet
  facet normal -0.000000e+00 -1.000000e+00 -0.000000e+00
    outer loop
      vertex -2.340000e+01 1.520000e+01 2.000000e+00
      vertex -9.400002e+00 1.520000e+01 2.000000e+00
      vertex -2.340000e+01 1.520000e+01 2.700000e+01
    endloop
  endfacet
  facet normal 1.000000e+00 0.000000e+00 0.000000e+00
    outer loop
      vertex -7.000000e+00 -1.200001e+00 2.000000e+00
      vertex -7.000000e+00 -1.200001e+00 2.700000e+01
      vertex -7.000000e+00 -1.520000e+01 2.700000e+01
    endloop
  endfacet
  facet normal 1.000000e+00 0.000000e+00 0.000000e+00
    outer loop
      vertex -7.000000e+00 -1.520000e+01 2.000000e+00
      vertex -7.000000e+00 -1.200001e+00 2.000000e+00
      vertex -7.000000e+00 -1.520000e+01 2.700000e+01
    endloop
  endfacet
  facet normal 0.000000e+00 1.000000e+00 0.000000e+00
    outer loop
      vertex 7.000000e+00 -1.520000e+01 2.700000e+01
      vertex 7.000000e+00 -1.520000e+01 2.000000e+00
      vertex -7.000000e+00 -1.520000e+01 2.700000e+01
    endloop
  endfacet
  facet normal 0.000000e+00 1.000000e+00 0.000000e+00
    outer loop
      vertex -7.000000e+00 -1.520000e+01 2.700000e+01
      vertex 7.000000e+00 -1.520000e+01 2.000000e+00
      vertex -7.000000e+00 -1.520000e+01 2.000000e+00
    endloop
  endfacet
  facet normal -1.000000e+00 0.000000e+00 0.000000e+00
    outer loop
      vertex 7.000000e+00 -1.200001e+00 2.700000e+01
      vertex 7.000000e+00 -1.200001e+00 2.000000e+00
      vertex 7.000000e+00 -1.520000e+01 2.700000e+01
    endloop
  endfacet
  facet normal -1.000000e+00 0.000000e+00 0.000000e+00
    outer loop
      vertex 7.000000e+00 -1.520000e+01 2.700000e+01
      vertex 7.000000e+00 -1.200001e+00 2.000000e+00
      vertex 7.000000e+00 -1.520000e+01 2.000000e+00
    endloop
  endfacet
  facet normal 0.000000e+00 -1.000000e+00 0.000000e+00
    outer loop
      vertex 7.000000e+00 -1.200001e+00 2.000000e+00
      vertex 7.000000e+00 -1.200001e+00 2.700000e+01
      vertex -7.000000e+00 -1.200001e+00 2.700000e+01
    endloop
  endfacet
  facet normal -0.000000e+00 -1.000000e+00 -0.000000e+00
    outer loop
      vertex -7.000000e+00 -1.200001e+00 2.000000e+00
      vertex 7.000000e+00 -1.200001e+00 2.000000e+00
      vertex -7.000000e+00 -1.200001e+00 2.700000e+01
    endloop
  endfacet
  facet normal 1.000000e+00 0.000000e+00 0.000000e+00
    outer loop
      vertex -7.000000e+00 1.520000e+01 2.000000e+00
      vertex -7.000000e+00 1.520000e+01 2.700000e+01
      vertex -7.000000e+00 1.199999e+00 2.700000e+01
    endloop
  endfacet
  facet normal 1.000000e+00 0.000000e+00 0.000000e+00
    outer loop
      vertex -7.000000e+00 1.199999e+00 2.000000e+00
      vertex -7.000000e+00 1.520000e+01 2.000000e+00
      vertex -7.000000e+00 1.199999e+00 2.700000e+01
    endloop
  endfacet
  facet normal 0.000000e+00 1.000000e+00 0.000000e+00
    outer loop
      vertex 7.000000e+00 1.199999e+00 2.700000e+01
      vertex 7.000000e+00 1.199999e+00 2.000000e+00
      vertex -7.000000e+00 1.199999e+00 2.700000e+01
    endloop
  endfacet
  facet normal 0.000000e+00 1.000000e+00 0.000000e+00
    outer loop
      vertex -7.000000e+00 1.199999e+00 2.700000e+01
      vertex 7.000000e+00 1.199999e+00 2.000000e+00
      vertex -7.000000e+00 1.199999e+00 2.000000e+00
    endloop
  endfacet
  facet normal -1.000000e+00 0.000000e+00 0.000000e+00
    outer loop
      vertex 7.000000e+00 1.520000e+01 2.700000e+01
      vertex 7.000000e+00 1.520000e+01 2.000000e+00
      vertex 7.000000e+00 1.199999e+00 2.700000e+01
    endloop
  endfacet
  facet normal -1.000000e+00 0.000000e+00 0.000000e+00
    outer loop
      vertex 7.000000e+00 1.199999e+00 2.700000e+01
      vertex 7.000000e+00 1.520000e+01 2.000000e+00
      vertex 7.000000e+00 1.199999e+00 2.000000e+00
    endloop
  endfacet
  facet normal 0.000000e+00 -1.000000e+00 0.000000e+00
    outer loop
      vertex 7.000000e+00 1.520000e+01 2.000000e+00
      vertex 7.000000e+00 1.520000e+01 2.700000e+01
      vertex -7.000000e+00 1.520000e+01 2.700000e+01
    endloop
  endfacet
  facet normal -0.000000e+00 -1.000000e+00 -0.000000e+00
    outer loop
      vertex -7.000000e+00 1.520000e+01 2.000000e+00
      vertex 7.000000e+00 1.520000e+01 2.000000e+00
      vertex -7.000000e+00 1.520000e+01 2.700000e+01
    endloop
  endfacet
  facet normal 1.000000e+00 0.000000e+00 0.000000e+00
    outer loop
      vertex 9.399998e+00 -1.200001e+00 2.000000e+00
      vertex 9.399998e+00 -1.200001e+00 2.700000e+01
      vertex 9.399998e+00 -1.520000e+01 2.700000e+01
    endloop
  endfacet
  facet normal 1.000000e+00 0.000000e+00 0.000000e+00
    outer loop
      vertex 9.399998e+00 -1.520000e+01 2.000000e+00
      vertex 9.399998e+00 -1.200001e+00 2.000000e+00
      vertex 9.399998e+00 -1.520000e+01 2.700000e+01
    endloop
  endfacet
  facet normal 0.000000e+00 1.000000e+00 0.000000e+00
    outer loop
      vertex 2.340000e+01 -1.520000e+01 2.700000e+01
      vertex 2.340000e+01 -1.520000e+01 2.000000e+00
      vertex 9.399998e+00 -1.520000e+01 2.700000e+01
    endloop
  endfacet
  facet normal 0.000000e+00 1.000000e+00 0.000000e+00
    outer loop
      vertex 9.399998e+00 -1.520000e+01 2.700000e+01
      vertex 2.340000e+01 -1.520000e+01 2.000000e+00
      vertex 9.399998e+00 -1.520000e+01 2.000000e+00
    endloop
  endfacet
  facet normal -1.000000e+00 0.000000e+00 0.000000e+00
    outer loop
      vertex 2.340000e+01 -1.200001e+00 2.700000e+01
      vertex 2.340000e+01 -1.200001e+00 2.000000e+00
      vertex 2.340000e+01 -1.520000e+01 2.700000e+01
    endloop
  endfacet
  facet normal -1.000000e+00 0.000000e+00 0.000000e+00
    outer loop
      vertex 2.340000e+01 -1.520000e+01 2.700000e+01
      vertex 2.340000e+01 -1.200001e+00 2.000000e+00
      vertex 2.340000e+01 -1.520000e+01 2.000000e+00
    endloop
  endfacet
  facet normal 0.000000e+00 -1.000000e+00 0.000000e+00
    outer loop
      vertex 2.340000e+01 -1.200001e+00 2.000000e+00
      vertex 2.340000e+01 -1.200001e+00 2.700000e+01
      vertex 9.399998e+00 -1.200001e+00 2.700000e+01
    endloop
  endfacet
  facet normal -0.000000e+00 -1.000000e+00 -0.000000e+00
    outer loop
      vertex 9.399998e+00 -1.200001e+00 2.000000e+00
      vertex 2.340000e+01 -1.200001e+00 2.000000e+00
      vertex 9.399998e+00 -1.200001e+00 2.700000e+01
    endloop
  endfacet
  facet normal 1.000000e+00 0.000000e+00 0.000000e+00
    outer loop
      vertex 9.399998e+00 1.520000e+01 2.000000e+00
      vertex 9.399998e+00 1.520000e+01 2.700000e+01
      vertex 9.399998e+00 1.199999e+00 2.700000e+01
    endloop
  endfacet
  facet normal 1.000000e+00 0.000000e+00 0.000000e+00
    outer loop
      vertex 9.399998e+00 1.199999e+00 2.000000e+00
      vertex 9.399998e+00 1.520000e+01 2.000000e+00
      vertex 9.399998e+00 1.199999e+00 2.700000e+01
    endloop
  endfacet
  facet normal 0.000000e+00 1.000000e+00 0.000000e+00
    outer loop
      vertex 2.340000e+01 1.199999e+00 2.700000e+01
      vertex 2.340000e+01 1.199999e+00 2.000000e+00
      vertex 9.399998e+00 1.199999e+00 2.700000e+01
    endloop
  endfacet
  facet normal 0.000000e+00 1.000000e+00 0.000000e+00
    outer loop
      vertex 9.399998e+00 1.199999e+00 2.700000e+01
      vertex 2.340000e+01 1.199999e+00 2.000000e+00
      vertex 9.399998e+00 1.199999e+00 2.000000e+00
    endloop
  endfacet
  facet normal -1.000000e+00 0.000000e+00 0.000000e+00
    outer loop
      vertex 2.340000e+01 1.520000e+01 2.700000e+01
      vertex 2.340000e+01 1.520000e+01 2.000000e+00
      vertex 2.340000e+01 1.199999e+00 2.700000e+01
    endloop
  endfacet
  facet normal -1.000000e+00 0.000000e+00 0.000000e+00
    outer loop
      vertex 2.340000e+01 1.199999e+00 2.700000e+01
      vertex 2.340000e+01 1.520000e+01 2.000000e+00
      vertex 2.340000e+01 1.199999e+00 2.000000e+00
    endloop
  endfacet
  facet normal 0.000000e+00 -1.000000e+00 0.000000e+00
    outer loop
      vertex 2.340000e+01 1.520000e+01 2.000000e+00
      vertex 2.340000e+01 1.520000e+01 2.700000e+01
      vertex 9.399998e+00 1.520000e+01 2.700000e+01
    endloop
  endfacet
  facet normal -0.000000e+00 -1.000000e+00 -0.000000e+00
    outer loop
      vertex 9.399998e+00 1.520000e+01 2.000000e+00
      vertex 2.340000e+01 1.520000e+01 2.000000e+00
      vertex 9.399998e+00 1.520000e+01 2.700000e+01
    endloop
  endfacet
  facet normal 1.000000e+00 0.000000e+00 0.000000e+00
    outer loop
      vertex 2.580000e+01 -1.200001e+00 2.000000e+00
      vertex 2.580000e+01 -1.200001e+00 2.700000e+01
      vertex 2.580000e+01 -1.520000e+01 2.700000e+01
    endloop
  endfacet
  facet normal 1.000000e+00 0.000000e+00 0.000000e+00
    outer loop
      vertex 2.580000e+01 -1.520000e+01 2.000000e+00
      vertex 2.580000e+01 -1.200001e+00 2.000000e+00
      vertex 2.580000e+01 -1.520000e+01 2.700000e+01
    endloop
  endfacet
  facet normal 0.000000e+00 1.000000e+00 0.000000e+00
    outer loop
      vertex 3.980000e+01 -1.520000e+01 2.700000e+01
      vertex 3.980000e+01 -1.520000e+01 2.000000e+00
      vertex 2.580000e+01 -1.520000e+01 2.700000e+01
    endloop
  endfacet
  facet normal 0.000000e+00 1.000000e+00 0.000000e+00
    outer loop
      vertex 2.580000e+01 -1.520000e+01 2.700000e+01
      vertex 3.980000e+01 -1.520000e+01 2.000000e+00
      vertex 2.580000e+01 -1.520000e+01 2.000000e+00
    endloop
  endfacet
  facet normal -1.000000e+00 0.000000e+00 0.000000e+00
    outer loop
      vertex 3.980000e+01 -1.200001e+00 2.700000e+01
      vertex 3.980000e+01 -1.200001e+00 2.000000e+00
      vertex 3.980000e+01 -1.520000e+01 2.700000e+01
    endloop
  endfacet
  facet normal -1.000000e+00 0.000000e+00 0.000000e+00
    outer loop
      vertex 3.980000e+01 -1.520000e+01 2.700000e+01
      vertex 3.980000e+01 -1.200001e+00 2.000000e+00
      vertex 3.980000e+01 -1.520000e+01 2.000000e+00
    endloop
  endfacet
  facet normal 0.000000e+00 -1.000000e+00 0.000000e+00
    outer loop
      vertex 3.980000e+01 -1.200001e+00 2.000000e+00
      vertex 3.980000e+01 -1.200001e+00 2.700000e+01
      vertex 2.580000e+01 -1.200001e+00 2.700000e+01
    endloop
  endfacet
  facet normal -0.000000e+00 -1.000000e+00 -0.000000e+00
    outer loop
      vertex 2.580000e+01 -1.200001e+00 2.000000e+00
      vertex 3.980000e+01 -1.200001e+00 2.000000e+00
      vertex 2.580000e+01 -1.200001e+00 2.700000e+01
    endloop
  endfacet
  facet normal 1.000000e+00 0.000000e+00 0.000000e+00
    outer loop
      vertex 2.580000e+01 1.520000e+01 2.000000e+00
      vertex 2.580000e+01 1.520000e+01 2.700000e+01
      vertex 2.580000e+01 1.199999e+00 2.700000e+01
    endloop
  endfacet
  facet normal 1.000000e+00 0.000000e+00 0.000000e+00
    outer loop
      vertex 2.580000e+01 1.199999e+00 2.000000e+00
      vertex 2.580000e+01 1.520000e+01 2.000000e+00
      vertex 2.580000e+01 1.199999e+00 2.700000e+01
    endloop
  endfacet
  facet normal 0.000000e+00 1.000000e+00 0.000000e+00
    outer loop
      vertex 3.980000e+01 1.199999e+00 2.700000e+01
      vertex 3.980000e+01 1.199999e+00 2.000000e+00
      vertex 2.580000e+01 1.199999e+00 2.700000e+01
    endloop
  endfacet
  facet normal 0.000000e+00 1.000000e+00 0.000000e+00
    outer loop
      vertex 2.580000e+01 1.199999e+00 2.700000e+01
      vertex 3.980000e+01 1.199999e+00 2.000000e+00
      vertex 2.580000e+01 1.199999e+00 2.000000e+00
    endloop
  endfacet
  facet normal -1.000000e+00 0.000000e+00 0.000000e+00
    outer loop
      vertex 3.980000e+01 1.520000e+01 2.700000e+01
      vertex 3.980000e+01 1.520000e+01 2.000000e+00
      vertex 3.980000e+01 1.199999e+00 2.700000e+01
    endloop
  endfacet
  facet normal -1.000000e+00 0.000000e+00 0.000000e+00
    outer loop
      vertex 3.980000e+01 1.199999e+00 2.700000e+01
      vertex 3.980000e+01 1.520000e+01 2.000000e+00
      vertex 3.980000e+01 1.199999e+00 2.000000e+00
    endloop
  endfacet
  facet normal 0.000000e+00 -1.000000e+00 0.000000e+00
    outer loop
      vertex 3.980000e+01 1.520000e+01 2.000000e+00
      vertex 3.980000e+01 1.520000e+01 2.700000e+01
      vertex 2.580000e+01 1.520000e+01 2.700000e+01
    endloop
  endfacet
  facet normal -0.000000e+00 -1.000000e+00 -0.000000e+00
    outer loop
      vertex 2.580000e+01 1.520000e+01 2.000000e+00
      vertex 3.980000e+01 1.520000e+01 2.000000e+00
      vertex 2.580000e+01 1.520000e+01 2.700000e+01
    endloop
  endfacet
  facet normal 0.000000e+00 0.000000e+00 1.000000e+00
    outer loop
      vertex -2.580000e+01 -1.520000e+01 2.000000e+00
      vertex -2.580000e+01 -1.200001e+00 2.000000e+00
      vertex -3.980000e+01 -1.200001e+00 2.000000e+00
    endloop
  endfacet
  facet normal 0.000000e+00 0.000000e+00 1.000000e+00
    outer loop
      vertex -3.980000e+01 -1.520000e+01 2.000000e+00
      vertex -2.580000e+01 -1.520000e+01 2.000000e+00
      vertex -3.980000e+01 -1.200001e+00 2.000000e+00
    endloop
  endfacet
  facet normal 0.000000e+00 0.000000e+00 1.000000e+00
    outer loop
      vertex -2.580000e+01 1.199999e+00 2.000000e+00
      vertex -2.580000e+01 1.520000e+01 2.000000e+00
      vertex -3.980000e+01 1.520000e+01 2.000000e+00
    endloop
  endfacet
  facet normal 0.000000e+00 0.000000e+00 1.000000e+00
    outer loop
      vertex -3.980000e+01 1.199999e+00 2.000000e+00
      vertex -2.580000e+01 1.199999e+00 2.000000e+00
      vertex -3.980000e+01 1.520000e+01 2.000000e+00
    endloop
  endfacet
  facet normal 0.000000e+00 0.000000e+00 1.000000e+00
    outer loop
      vertex -9.400002e+00 -1.520000e+01 2.000000e+00
      vertex -9.400002e+00 -1.200001e+00 2.000000e+00
      vertex -2.340000e+01 -1.200001e+00 2.000000e+00
    endloop
  endfacet
  facet normal 0.000000e+00 0.000000e+00 1.000000e+00
    outer loop
      vertex -2.340000e+01 -1.520000e+01 2.000000e+00
      vertex -9.400002e+00 -1.520000e+01 2.000000e+00
      vertex -2.340000e+01 -1.200001e+00 2.000000e+00
    endloop
  endfacet
  facet normal 0.000000e+00 0.000000e+00 1.000000e+00
    outer loop
      vertex -9.400002e+00 1.199999e+00 2.000000e+00
      vertex -9.400002e+00 1.520000e+01 2.000000e+00
      vertex -2.340000e+01 1.520000e+01 2.000000e+00
    endloop
  endfacet
  facet normal 0.000000e+00 0.000000e+00 1.000000e+00
    outer loop
      vertex -2.340000e+01 1.199999e+00 2.000000e+00
      vertex -9.400002e+00 1.199999e+00 2.000000e+00
      vertex -2.340000e+01 1.520000e+01 2.000000e+00
    endloop
  endfacet
  facet normal 0.000000e+00 0.000000e+00 1.000000e+00
    outer loop
      vertex 7.000000e+00 -1.520000e+01 2.000000e+00
      vertex 7.000000e+00 -1.200001e+00 2.000000e+00
      vertex -7.000000e+00 -1.200001e+00 2.000000e+00
    endloop
  endfacet
  facet normal 0.000000e+00 0.000000e+00 1.000000e+00
    outer loop
      vertex -7.000000e+00 -1.520000e+01 2.000000e+00
      vertex 7.000000e+00 -1.520000e+01 2.000000e+00
      vertex -7.000000e+00 -1.200001e+00 2.000000e+00
    endloop
  endfacet
  facet normal 0.000000e+00 0.000000e+00 1.000000e+00
    outer loop
      vertex 7.000000e+00 1.199999e+00 2.000000e+00
      vertex 7.000000e+00 1.520000e+01 2.000000e+00
      vertex -7.000000e+00 1.520000e+01 2.000000e+00
    endloop
  endfacet
  facet normal 0.000000e+00 0.000000e+00 1.000000e+00
    outer loop
      vertex -7.000000e+00 1.199999e+00 2.000000e+00
      vertex 7.000000e+00 1.199999e+00 2.000000e+00
      vertex -7.000000e+00 1.520000e+01 2.000000e+00
    endloop
  endfacet
  facet normal 0.000000e+00 0.000000e+00 1.000000e+00
    outer loop
      vertex 2.340000e+01 -1.520000e+01 2.000000e+00
      vertex 2.340000e+01 -1.200001e+00 2.000000e+00
      vertex 9.399998e+00 -1.200001e+00 2.000000e+00
    endloop
  endfacet
  facet normal 0.000000e+00 0.000000e+00 1.000000e+00
    outer loop
      vertex 9.399998e+00 -1.520000e+01 2.000000e+00
      vertex 2.340000e+01 -1.520000e+01 2.000000e+00
      vertex 9.399998e+00 -1.200001e+00 2.000000e+00
    endloop
  endfacet
  facet normal 0.000000e+00 0.000000e+00 1.000000e+00
    outer loop
      vertex 2.340000e+01 1.199999e+00 2.000000e+00
      vertex 2.340000e+01 1.520000e+01 2.000000e+00
      vertex 9.399998e+00 1.520000e+01 2.000000e+00
    endloop
  endfacet
  facet normal 0.000000e+00 0.000000e+00 1.000000e+00
    outer loop
      vertex 9.399998e+00 1.199999e+00 2.000000e+00
      vertex 2.340000e+01 1.199999e+00 2.000000e+00
      vertex 9.399998e+00 1.520000e+01 2.000000e+00
    endloop
  endfacet
  facet normal 0.000000e+00 0.000000e+00 1.000000e+00
    outer loop
      vertex 3.980000e+01 -1.520000e+01 2.000000e+00
      vertex 3.980000e+01 -1.200001e+00 2.000000e+00
      vertex 2.580000e+01 -1.200001e+00 2.000000e+00
    endloop
  endfacet
  facet normal 0.000000e+00 0.000000e+00 1.000000e+00
    outer loop
      vertex 2.580000e+01 -1.520000e+01 2.000000e+00
      vertex 3.980000e+01 -1.520000e+01 2.000000e+00
      vertex 2.580000e+01 -1.200001e+00 2.000000e+00
    endloop
  endfacet
  facet normal 0.000000e+00 0.000000e+00 1.000000e+00
    outer loop
      vertex 3.980000e+01 1.199999e+00 2.000000e+00
      vertex 3.980000e+01 1.520000e+01 2.000000e+00
      vertex 2.580000e+01 1.520000e+01 2.000000e+00
    endloop
  endfacet
  facet normal 0.000000e+00 0.000000e+00 1.000000e+00
    outer loop
      vertex 2.580000e+01 1.199999e+00 2.000000e+00
      vertex 3.980000e+01 1.199999e+00 2.000000e+00
      vertex 2.580000e+01 1.520000e+01 2.000000e+00
    endloop
  endfacet
endsolid Default
