solid OpenSCAD_Model
  facet normal -1.18424e-15 0 1
    outer loop
      vertex -2 7 34.3
      vertex -2 -7 34.3
      vertex 4 -7 34.3
    endloop
  endfacet
  facet normal -1.18424e-15 0 1
    outer loop
      vertex 4 7 34.3
      vertex -2 7 34.3
      vertex 4 -7 34.3
    endloop
  endfacet
  facet normal 0 -1 0
    outer loop
      vertex 4 -7 34.3
      vertex -2 -7 34.3
      vertex -2 -7 28.802
    endloop
  endfacet
  facet normal 0 -1 0
    outer loop
      vertex 4 -7 28.802
      vertex 4 -7 34.3
      vertex -2 -7 28.802
    endloop
  endfacet
  facet normal -1 -0 -8.07729e-17
    outer loop
      vertex -2 -7 34.3
      vertex -2 7 34.3
      vertex -2 -7 28.802
    endloop
  endfacet
  facet normal -1 -0 -8.07729e-17
    outer loop
      vertex -2 -7 28.802
      vertex -2 7 34.3
      vertex -2 7 28.802
    endloop
  endfacet
  facet normal 0 1 0
    outer loop
      vertex -2 7 34.3
      vertex 4 7 34.3
      vertex -2 7 28.802
    endloop
  endfacet
  facet normal 0 1 0
    outer loop
      vertex -2 7 28.802
      vertex 4 7 34.3
      vertex 4 7 28.802
    endloop
  endfacet
  facet normal 1 -0 8.07729e-17
    outer loop
      vertex 4 7 34.3
      vertex 4 -7 34.3
      vertex 4 -7 28.802
    endloop
  endfacet
  facet normal 1 -0 8.07729e-17
    outer loop
      vertex 4 7 28.802
      vertex 4 7 34.3
      vertex 4 -7 28.802
    endloop
  endfacet
  facet normal 0 -0 1
    outer loop
      vertex -25 -15 28.802
      vertex -35.998 -21.498 28.802
      vertex 11.5 -21.498 28.802
    endloop
  endfacet
  facet normal 0 -0 1
    outer loop
      vertex -21.5 -15 28.802
      vertex -25 -15 28.802
      vertex 11.5 -21.498 28.802
    endloop
  endfacet
  facet normal 0 -0 1
    outer loop
      vertex -35.998 21.498 28.802
      vertex -35.998 -21.498 28.802
      vertex -25 -15 28.802
    endloop
  endfacet
  facet normal 0 -0 1
    outer loop
      vertex 4 -7 28.802
      vertex -2 -7 28.802
      vertex 11.5 -21.498 28.802
    endloop
  endfacet
  facet normal 0 0 1
    outer loop
      vertex 11.5 21.498 28.802
      vertex -35.998 21.498 28.802
      vertex -25 15 28.802
    endloop
  endfacet
  facet normal 0 0 1
    outer loop
      vertex -2 -7 28.802
      vertex -2 7 28.802
      vertex -21.5 15 28.802
    endloop
  endfacet
  facet normal 0 0 1
    outer loop
      vertex 11.5 21.498 28.802
      vertex -25 15 28.802
      vertex -21.5 15 28.802
    endloop
  endfacet
  facet normal 0 -0 1
    outer loop
      vertex -2 -7 28.802
      vertex -21.5 -15 28.802
      vertex 11.5 -21.498 28.802
    endloop
  endfacet
  facet normal 0 -0 1
    outer loop
      vertex -21.5 15 28.802
      vertex -21.5 -15 28.802
      vertex -2 -7 28.802
    endloop
  endfacet
  facet normal 0 0 1
    outer loop
      vertex 11.5 21.498 28.802
      vertex -21.5 15 28.802
      vertex -2 7 28.802
    endloop
  endfacet
  facet normal 0 0 1
    outer loop
      vertex 11.5 21.498 28.802
      vertex 4 7 28.802
      vertex 11.5 -21.498 28.802
    endloop
  endfacet
  facet normal 0 0 1
    outer loop
      vertex 11.5 21.498 28.802
      vertex -2 7 28.802
      vertex 4 7 28.802
    endloop
  endfacet
  facet normal 0 -0 1
    outer loop
      vertex 4 7 28.802
      vertex 4 -7 28.802
      vertex 11.5 -21.498 28.802
    endloop
  endfacet
  facet normal 0 0 1
    outer loop
      vertex -25 -15 28.802
      vertex -25 15 28.802
      vertex -35.998 21.498 28.802
    endloop
  endfacet
  facet normal -0.707107 0 0.707107
    outer loop
      vertex -35.998 21.498 28.802
      vertex -39 24.5 25.8
      vertex -39 -24.5 25.8
    endloop
  endfacet
  facet normal -0.707107 0 0.707107
    outer loop
      vertex -35.998 -21.498 28.802
      vertex -35.998 21.498 28.802
      vertex -39 -24.5 25.8
    endloop
  endfacet
  facet normal 0 0.707107 0.707107
    outer loop
      vertex 11.5 21.498 28.802
      vertex 11.5 24.5 25.8
      vertex -39 24.5 25.8
    endloop
  endfacet
  facet normal 0 0.707107 0.707107
    outer loop
      vertex -35.998 21.498 28.802
      vertex 11.5 21.498 28.802
      vertex -39 24.5 25.8
    endloop
  endfacet
  facet normal 1 0 0
    outer loop
      vertex 11.5 -24.5 25.8
      vertex 11.5 24.5 25.8
      vertex 11.5 21.498 28.802
    endloop
  endfacet
  facet normal 1 0 -0
    outer loop
      vertex 11.5 -21.498 28.802
      vertex 11.5 -24.5 25.8
      vertex 11.5 21.498 28.802
    endloop
  endfacet
  facet normal 0 -0.707107 0.707107
    outer loop
      vertex -39 -24.5 25.8
      vertex 11.5 -24.5 25.8
      vertex 11.5 -21.498 28.802
    endloop
  endfacet
  facet normal 0 -0.707107 0.707107
    outer loop
      vertex -35.998 -21.498 28.802
      vertex -39 -24.5 25.8
      vertex 11.5 -21.498 28.802
    endloop
  endfacet
  facet normal -0 1 0
    outer loop
      vertex -21.5 -15 25.8
      vertex -25 -15 25.8
      vertex -21.5 -15 28.802
    endloop
  endfacet
  facet normal 0 1 0
    outer loop
      vertex -21.5 -15 28.802
      vertex -25 -15 25.8
      vertex -25 -15 28.802
    endloop
  endfacet
  facet normal 1 0 0
    outer loop
      vertex -25 -15 25.8
      vertex -25 15 25.8
      vertex -25 15 28.802
    endloop
  endfacet
  facet normal 1 0 -0
    outer loop
      vertex -25 -15 28.802
      vertex -25 -15 25.8
      vertex -25 15 28.802
    endloop
  endfacet
  facet normal -1 0 0
    outer loop
      vertex -21.5 15 25.8
      vertex -21.5 -15 25.8
      vertex -21.5 15 28.802
    endloop
  endfacet
  facet normal -1 0 0
    outer loop
      vertex -21.5 15 28.802
      vertex -21.5 -15 25.8
      vertex -21.5 -15 28.802
    endloop
  endfacet
  facet normal -0 -1 0
    outer loop
      vertex -25 15 25.8
      vertex -21.5 15 25.8
      vertex -21.5 15 28.802
    endloop
  endfacet
  facet normal 0 -1 0
    outer loop
      vertex -25 15 28.802
      vertex -25 15 25.8
      vertex -21.5 15 28.802
    endloop
  endfacet
  facet normal 0 -0 -1
    outer loop
      vertex -25 15 25.8
      vertex -39 24.5 25.8
      vertex 11.5 24.5 25.8
    endloop
  endfacet
  facet normal 0 -0 -1
    outer loop
      vertex -21.5 15 25.8
      vertex -25 15 25.8
      vertex 11.5 24.5 25.8
    endloop
  endfacet
  facet normal 0 -0 -1
    outer loop
      vertex -39 -24.5 25.8
      vertex -39 24.5 25.8
      vertex -25 -15 25.8
    endloop
  endfacet
  facet normal -0 0 -1
    outer loop
      vertex -39 -24.5 25.8
      vertex -25 -15 25.8
      vertex 11.5 -24.5 25.8
    endloop
  endfacet
  facet normal 0 0 -1
    outer loop
      vertex -21.5 15 25.8
      vertex 11.5 -24.5 25.8
      vertex -21.5 -15 25.8
    endloop
  endfacet
  facet normal 0 0 -1
    outer loop
      vertex -25 -15 25.8
      vertex -21.5 -15 25.8
      vertex 11.5 -24.5 25.8
    endloop
  endfacet
  facet normal 0 0 -1
    outer loop
      vertex 2.5 5.5 25.8
      vertex 11.5 -24.5 25.8
      vertex 2.5 -5.5 25.8
    endloop
  endfacet
  facet normal 0 -0 -1
    outer loop
      vertex -0.5 5.5 25.8
      vertex -21.5 15 25.8
      vertex 11.5 24.5 25.8
    endloop
  endfacet
  facet normal 0 0 -1
    outer loop
      vertex -0.5 -5.5 25.8
      vertex -21.5 15 25.8
      vertex -0.5 5.5 25.8
    endloop
  endfacet
  facet normal 0 -0 -1
    outer loop
      vertex 2.5 5.5 25.8
      vertex -0.5 5.5 25.8
      vertex 11.5 24.5 25.8
    endloop
  endfacet
  facet normal 0 0 -1
    outer loop
      vertex 11.5 -24.5 25.8
      vertex -21.5 15 25.8
      vertex -0.5 -5.5 25.8
    endloop
  endfacet
  facet normal 0 0 -1
    outer loop
      vertex 11.5 -24.5 25.8
      vertex -0.5 -5.5 25.8
      vertex 2.5 -5.5 25.8
    endloop
  endfacet
  facet normal 0 0 -1
    outer loop
      vertex 11.5 -24.5 25.8
      vertex 2.5 5.5 25.8
      vertex 11.5 24.5 25.8
    endloop
  endfacet
  facet normal 0 0 -1
    outer loop
      vertex -25 -15 25.8
      vertex -39 24.5 25.8
      vertex -25 15 25.8
    endloop
  endfacet
  facet normal 1 0 6.34413e-17
    outer loop
      vertex -0.5 -5.5 25.8
      vertex -0.5 5.5 25.8
      vertex -0.5 5.5 32.8
    endloop
  endfacet
  facet normal 1 0 6.34413e-17
    outer loop
      vertex -0.5 -5.5 32.8
      vertex -0.5 -5.5 25.8
      vertex -0.5 5.5 32.8
    endloop
  endfacet
  facet normal -0 -1 0
    outer loop
      vertex -0.5 5.5 25.8
      vertex 2.5 5.5 25.8
      vertex 2.5 5.5 32.8
    endloop
  endfacet
  facet normal -0 -1 0
    outer loop
      vertex -0.5 5.5 32.8
      vertex -0.5 5.5 25.8
      vertex 2.5 5.5 32.8
    endloop
  endfacet
  facet normal -1 0 -6.34413e-17
    outer loop
      vertex 2.5 5.5 25.8
      vertex 2.5 -5.5 25.8
      vertex 2.5 5.5 32.8
    endloop
  endfacet
  facet normal -1 0 -6.34413e-17
    outer loop
      vertex 2.5 5.5 32.8
      vertex 2.5 -5.5 25.8
      vertex 2.5 -5.5 32.8
    endloop
  endfacet
  facet normal -0 1 0
    outer loop
      vertex 2.5 -5.5 25.8
      vertex -0.5 -5.5 25.8
      vertex 2.5 -5.5 32.8
    endloop
  endfacet
  facet normal 0 1 0
    outer loop
      vertex 2.5 -5.5 32.8
      vertex -0.5 -5.5 25.8
      vertex -0.5 -5.5 32.8
    endloop
  endfacet
  facet normal 2.36848e-15 0 -1
    outer loop
      vertex 2.5 5.5 32.8
      vertex 2.5 -5.5 32.8
      vertex -0.5 5.5 32.8
    endloop
  endfacet
  facet normal 2.36848e-15 0 -1
    outer loop
      vertex -0.5 5.5 32.8
      vertex 2.5 -5.5 32.8
      vertex -0.5 -5.5 32.8
    endloop
  endfacet
endsolid OpenSCAD_Model
