solid OpenSCAD_Model
  facet normal -1 -0 -0
    outer loop
      vertex -40 69.282 0
      vertex -40 69.282 3
      vertex -40 70 0
    endloop
  endfacet
  facet normal -1 0 0
    outer loop
      vertex -40 70 0
      vertex -40 69.282 3
      vertex -40 70 3
    endloop
  endfacet
  facet normal 0 -0 -1
    outer loop
      vertex 27.0713 46.8889 0
      vertex -40 69.282 0
      vertex 40 69.282 0
    endloop
  endfacet
  facet normal 0 -0 -1
    outer loop
      vertex -40 69.282 0
      vertex -40 70 0
      vertex 40 70 0
    endloop
  endfacet
  facet normal 0 0 -1
    outer loop
      vertex 22.4525 38.8889 0
      vertex 0 0 0
      vertex 15.3333 38.8889 0
    endloop
  endfacet
  facet normal 0 0 -1
    outer loop
      vertex 0 0 0
      vertex -22.4525 38.8889 0
      vertex -15.3333 38.8889 0
    endloop
  endfacet
  facet normal 0 -0 -1
    outer loop
      vertex 0 0 0
      vertex -15.3333 38.8889 0
      vertex 15.3333 38.8889 0
    endloop
  endfacet
  facet normal -0 -0 -1
    outer loop
      vertex -15.3333 38.8889 0
      vertex -15.3333 46.8889 0
      vertex 15.3333 38.8889 0
    endloop
  endfacet
  facet normal -0 0 -1
    outer loop
      vertex -40 69.282 0
      vertex 40 70 0
      vertex 40 69.282 0
    endloop
  endfacet
  facet normal -0 -0 -1
    outer loop
      vertex -27.0713 46.8889 0
      vertex -40 69.282 0
      vertex -15.3333 46.8889 0
    endloop
  endfacet
  facet normal 0 0 -1
    outer loop
      vertex -40 69.282 0
      vertex 27.0713 46.8889 0
      vertex 15.3333 46.8889 0
    endloop
  endfacet
  facet normal 0 0 -1
    outer loop
      vertex -40 69.282 0
      vertex 15.3333 46.8889 0
      vertex 15.3333 38.8889 0
    endloop
  endfacet
  facet normal 0 0 -1
    outer loop
      vertex -40 69.282 0
      vertex 15.3333 38.8889 0
      vertex -15.3333 46.8889 0
    endloop
  endfacet
  facet normal 0 1 0
    outer loop
      vertex -40 70 0
      vertex -40 70 3
      vertex 40 70 0
    endloop
  endfacet
  facet normal 0 1 0
    outer loop
      vertex 40 70 0
      vertex -40 70 3
      vertex 40 70 3
    endloop
  endfacet
  facet normal 0 0 1
    outer loop
      vertex -8.66025 50 3
      vertex 8.66025 50 3
      vertex -40 70 3
    endloop
  endfacet
  facet normal 0 0 1
    outer loop
      vertex -27.0713 46.8889 3
      vertex -40 70 3
      vertex -40 69.282 3
    endloop
  endfacet
  facet normal 0 0 1
    outer loop
      vertex -27.0713 46.8889 3
      vertex -15.3333 46.8889 3
      vertex -40 70 3
    endloop
  endfacet
  facet normal 0 0 1
    outer loop
      vertex -15.3333 38.8889 3
      vertex 0 0 3
      vertex -15.3333 46.8889 3
    endloop
  endfacet
  facet normal 0 0 1
    outer loop
      vertex 8.66025 50 3
      vertex 27.0713 46.8889 3
      vertex -40 70 3
    endloop
  endfacet
  facet normal 0 0 1
    outer loop
      vertex -22.4525 38.8889 3
      vertex 0 0 3
      vertex -15.3333 38.8889 3
    endloop
  endfacet
  facet normal 0 0 1
    outer loop
      vertex 8.66025 50 3
      vertex 15.3333 38.8889 3
      vertex 15.3333 46.8889 3
    endloop
  endfacet
  facet normal 0 0 1
    outer loop
      vertex 0 0 3
      vertex 22.4525 38.8889 3
      vertex 15.3333 38.8889 3
    endloop
  endfacet
  facet normal 0 0 1
    outer loop
      vertex 0 35 3
      vertex -8.66025 50 3
      vertex -15.3333 46.8889 3
    endloop
  endfacet
  facet normal 0 0 1
    outer loop
      vertex 40 69.282 3
      vertex 40 70 3
      vertex -40 70 3
    endloop
  endfacet
  facet normal 0 0 1
    outer loop
      vertex 27.0713 46.8889 3
      vertex 40 69.282 3
      vertex -40 70 3
    endloop
  endfacet
  facet normal 0 0 1
    outer loop
      vertex 0 0 3
      vertex 0 35 3
      vertex -15.3333 46.8889 3
    endloop
  endfacet
  facet normal 0 0 1
    outer loop
      vertex 0 0 3
      vertex 15.3333 38.8889 3
      vertex 0 35 3
    endloop
  endfacet
  facet normal 0 0 1
    outer loop
      vertex -15.3333 46.8889 3
      vertex -8.66025 50 3
      vertex -40 70 3
    endloop
  endfacet
  facet normal 0 0 1
    outer loop
      vertex 15.3333 46.8889 3
      vertex 27.0713 46.8889 3
      vertex 8.66025 50 3
    endloop
  endfacet
  facet normal 0 -0 1
    outer loop
      vertex 8.66025 50 3
      vertex 0 35 3
      vertex 15.3333 38.8889 3
    endloop
  endfacet
  facet normal -0.866025 -0.5 -0
    outer loop
      vertex -40 69.282 0
      vertex -27.0713 46.8889 0
      vertex -40 69.282 3
    endloop
  endfacet
  facet normal -0.866025 -0.5 0
    outer loop
      vertex -40 69.282 3
      vertex -27.0713 46.8889 0
      vertex -27.0713 46.8889 3
    endloop
  endfacet
  facet normal 0 -1 0
    outer loop
      vertex -15.3333 46.8889 0
      vertex -15.3333 46.8889 3
      vertex -27.0713 46.8889 3
    endloop
  endfacet
  facet normal -0 -1 -0
    outer loop
      vertex -27.0713 46.8889 0
      vertex -15.3333 46.8889 0
      vertex -27.0713 46.8889 3
    endloop
  endfacet
  facet normal -1 0 0
    outer loop
      vertex -15.3333 46.8889 3
      vertex -15.3333 46.8889 0
      vertex -15.3333 38.8889 3
    endloop
  endfacet
  facet normal -1 0 0
    outer loop
      vertex -15.3333 38.8889 3
      vertex -15.3333 46.8889 0
      vertex -15.3333 38.8889 0
    endloop
  endfacet
  facet normal 0 1 0
    outer loop
      vertex -15.3333 38.8889 3
      vertex -15.3333 38.8889 0
      vertex -22.4525 38.8889 3
    endloop
  endfacet
  facet normal 0 1 -0
    outer loop
      vertex -22.4525 38.8889 3
      vertex -15.3333 38.8889 0
      vertex -22.4525 38.8889 0
    endloop
  endfacet
  facet normal -0.866025 -0.5 -0
    outer loop
      vertex -22.4525 38.8889 0
      vertex 0 0 0
      vertex -22.4525 38.8889 3
    endloop
  endfacet
  facet normal -0.866025 -0.5 0
    outer loop
      vertex -22.4525 38.8889 3
      vertex 0 0 0
      vertex 0 0 3
    endloop
  endfacet
  facet normal 0.866025 -0.5 0
    outer loop
      vertex 22.4525 38.8889 0
      vertex 22.4525 38.8889 3
      vertex 0 0 3
    endloop
  endfacet
  facet normal 0.866025 -0.5 0
    outer loop
      vertex 0 0 0
      vertex 22.4525 38.8889 0
      vertex 0 0 3
    endloop
  endfacet
  facet normal 0 1 0
    outer loop
      vertex 15.3333 38.8889 0
      vertex 15.3333 38.8889 3
      vertex 22.4525 38.8889 0
    endloop
  endfacet
  facet normal 0 1 0
    outer loop
      vertex 22.4525 38.8889 0
      vertex 15.3333 38.8889 3
      vertex 22.4525 38.8889 3
    endloop
  endfacet
  facet normal 1 0 -0
    outer loop
      vertex 15.3333 38.8889 3
      vertex 15.3333 38.8889 0
      vertex 15.3333 46.8889 0
    endloop
  endfacet
  facet normal 1 0 0
    outer loop
      vertex 15.3333 46.8889 3
      vertex 15.3333 38.8889 3
      vertex 15.3333 46.8889 0
    endloop
  endfacet
  facet normal 0 -1 0
    outer loop
      vertex 15.3333 46.8889 3
      vertex 15.3333 46.8889 0
      vertex 27.0713 46.8889 0
    endloop
  endfacet
  facet normal 0 -1 0
    outer loop
      vertex 27.0713 46.8889 3
      vertex 15.3333 46.8889 3
      vertex 27.0713 46.8889 0
    endloop
  endfacet
  facet normal 0.866025 -0.5 0
    outer loop
      vertex 40 69.282 0
      vertex 40 69.282 3
      vertex 27.0713 46.8889 3
    endloop
  endfacet
  facet normal 0.866025 -0.5 0
    outer loop
      vertex 27.0713 46.8889 0
      vertex 40 69.282 0
      vertex 27.0713 46.8889 3
    endloop
  endfacet
  facet normal 1 0 -0
    outer loop
      vertex 40 69.282 3
      vertex 40 69.282 0
      vertex 40 70 0
    endloop
  endfacet
  facet normal 1 0 0
    outer loop
      vertex 40 70 3
      vertex 40 69.282 3
      vertex 40 70 0
    endloop
  endfacet
  facet normal -0.866025 -0.5 0
    outer loop
      vertex 0 35 8
      vertex -8.66025 50 8
      vertex 0 35 3
    endloop
  endfacet
  facet normal -0.866025 -0.5 0
    outer loop
      vertex 0 35 3
      vertex -8.66025 50 8
      vertex -8.66025 50 3
    endloop
  endfacet
  facet normal 0.866025 -0.5 0
    outer loop
      vertex 0 35 8
      vertex 0 35 3
      vertex 8.66025 50 3
    endloop
  endfacet
  facet normal 0.866025 -0.5 0
    outer loop
      vertex 8.66025 50 8
      vertex 0 35 8
      vertex 8.66025 50 3
    endloop
  endfacet
  facet normal 0 1 0
    outer loop
      vertex -8.66025 50 3
      vertex -8.66025 50 8
      vertex 8.66025 50 3
    endloop
  endfacet
  facet normal 0 1 0
    outer loop
      vertex 8.66025 50 3
      vertex -8.66025 50 8
      vertex 8.66025 50 8
    endloop
  endfacet
  facet normal 0 0 1
    outer loop
      vertex 8.66025 50 8
      vertex -8.66025 50 8
      vertex 0 35 8
    endloop
  endfacet
endsolid OpenSCAD_Model
