solid OpenSCAD_Model
  facet normal -0 0 -1
    outer loop
      vertex -37.5 0 0
      vertex -36.6805 7.79669 0
      vertex -36.6805 -7.79669 0
    endloop
  endfacet
  facet normal 0 -0 -1
    outer loop
      vertex -36.6805 -7.79669 0
      vertex -36.6805 7.79669 0
      vertex -34.258 15.2526 0
    endloop
  endfacet
  facet normal 0 0 -1
    outer loop
      vertex -36.6805 -7.79669 0
      vertex -34.258 15.2526 0
      vertex -30.3381 22.0419 0
    endloop
  endfacet
  facet normal 0 0 -1
    outer loop
      vertex -36.6805 -7.79669 0
      vertex -30.3381 22.0419 0
      vertex -25.0924 27.8679 0
    endloop
  endfacet
  facet normal 0 0 -1
    outer loop
      vertex -36.6805 -7.79669 0
      vertex -25.0924 27.8679 0
      vertex -18.75 32.476 0
    endloop
  endfacet
  facet normal 0 0 -1
    outer loop
      vertex -36.6805 -7.79669 0
      vertex -18.75 32.476 0
      vertex -11.5881 35.6646 0
    endloop
  endfacet
  facet normal 0 0 -1
    outer loop
      vertex -36.6805 -7.79669 0
      vertex -11.5881 35.6646 0
      vertex -3.91982 37.2946 0
    endloop
  endfacet
  facet normal 0 0 -1
    outer loop
      vertex -36.6805 -7.79669 0
      vertex -3.91982 37.2946 0
      vertex 3.91982 37.2946 0
    endloop
  endfacet
  facet normal 0 0 -1
    outer loop
      vertex -36.6805 -7.79669 0
      vertex 3.91982 37.2946 0
      vertex 11.5881 35.6646 0
    endloop
  endfacet
  facet normal 0 0 -1
    outer loop
      vertex -36.6805 -7.79669 0
      vertex 11.5881 35.6646 0
      vertex 18.75 32.476 0
    endloop
  endfacet
  facet normal 0 0 -1
    outer loop
      vertex -1.43204 13.625 0
      vertex 18.75 32.476 0
      vertex 25.0924 27.8679 0
    endloop
  endfacet
  facet normal 0 0 -1
    outer loop
      vertex 6.85 11.8645 0
      vertex 25.0924 27.8679 0
      vertex 30.3381 22.0419 0
    endloop
  endfacet
  facet normal 0 0 -1
    outer loop
      vertex 11.0835 8.05266 0
      vertex 30.3381 22.0419 0
      vertex 34.258 15.2526 0
    endloop
  endfacet
  facet normal 0 0 -1
    outer loop
      vertex 13.4006 2.84839 0
      vertex 34.258 15.2526 0
      vertex 36.6805 7.79669 0
    endloop
  endfacet
  facet normal -0 0 -1
    outer loop
      vertex 13.7 0 0
      vertex 36.6805 7.79669 0
      vertex 37.5 0 0
    endloop
  endfacet
  facet normal -0 0 -1
    outer loop
      vertex 12.5156 -5.57229 0
      vertex 37.5 0 0
      vertex 36.6805 -7.79669 0
    endloop
  endfacet
  facet normal -0 0 -1
    outer loop
      vertex 9.16709 -10.1811 0
      vertex 36.6805 -7.79669 0
      vertex 34.258 -15.2526 0
    endloop
  endfacet
  facet normal 0 0 -1
    outer loop
      vertex 1.43204 -13.625 0
      vertex 34.258 -15.2526 0
      vertex 30.3381 -22.0419 0
    endloop
  endfacet
  facet normal 0 0 -1
    outer loop
      vertex -36.6805 -7.79669 0
      vertex 30.3381 -22.0419 0
      vertex 25.0924 -27.8679 0
    endloop
  endfacet
  facet normal 0 0 -1
    outer loop
      vertex -36.6805 -7.79669 0
      vertex 25.0924 -27.8679 0
      vertex 18.75 -32.476 0
    endloop
  endfacet
  facet normal 0 0 -1
    outer loop
      vertex -36.6805 -7.79669 0
      vertex 18.75 -32.476 0
      vertex 11.5881 -35.6646 0
    endloop
  endfacet
  facet normal 0 0 -1
    outer loop
      vertex -36.6805 -7.79669 0
      vertex 11.5881 -35.6646 0
      vertex 3.91982 -37.2946 0
    endloop
  endfacet
  facet normal 0 0 -1
    outer loop
      vertex -36.6805 -7.79669 0
      vertex 3.91982 -37.2946 0
      vertex -3.91982 -37.2946 0
    endloop
  endfacet
  facet normal 0 0 -1
    outer loop
      vertex -36.6805 -7.79669 0
      vertex -3.91982 -37.2946 0
      vertex -11.5881 -35.6646 0
    endloop
  endfacet
  facet normal 0 0 -1
    outer loop
      vertex -36.6805 -7.79669 0
      vertex -11.5881 -35.6646 0
      vertex -18.75 -32.476 0
    endloop
  endfacet
  facet normal 0 0 -1
    outer loop
      vertex -36.6805 -7.79669 0
      vertex -18.75 -32.476 0
      vertex -25.0924 -27.8679 0
    endloop
  endfacet
  facet normal 0 0 -1
    outer loop
      vertex -36.6805 -7.79669 0
      vertex -25.0924 -27.8679 0
      vertex -30.3381 -22.0419 0
    endloop
  endfacet
  facet normal 0 0 -1
    outer loop
      vertex -36.6805 -7.79669 0
      vertex -30.3381 -22.0419 0
      vertex -34.258 -15.2526 0
    endloop
  endfacet
  facet normal 0 0 -1
    outer loop
      vertex -13.4006 -2.84839 0
      vertex -36.6805 -7.79669 0
      vertex -13.7 0 0
    endloop
  endfacet
  facet normal 0 0 -1
    outer loop
      vertex -12.5156 -5.57229 0
      vertex -36.6805 -7.79669 0
      vertex -13.4006 -2.84839 0
    endloop
  endfacet
  facet normal 0 0 -1
    outer loop
      vertex -11.0835 -8.05266 0
      vertex -36.6805 -7.79669 0
      vertex -12.5156 -5.57229 0
    endloop
  endfacet
  facet normal 0 0 -1
    outer loop
      vertex -6.85 -11.8645 0
      vertex -36.6805 -7.79669 0
      vertex -9.16709 -10.1811 0
    endloop
  endfacet
  facet normal 0 0 -1
    outer loop
      vertex -36.6805 -7.79669 0
      vertex -11.0835 -8.05266 0
      vertex -9.16709 -10.1811 0
    endloop
  endfacet
  facet normal 0 0 -1
    outer loop
      vertex 1.43204 -13.625 0
      vertex 30.3381 -22.0419 0
      vertex -1.43204 -13.625 0
    endloop
  endfacet
  facet normal 0 0 -1
    outer loop
      vertex -36.6805 -7.79669 0
      vertex -6.85 -11.8645 0
      vertex -4.23353 -13.0295 0
    endloop
  endfacet
  facet normal 0 0 -1
    outer loop
      vertex -36.6805 -7.79669 0
      vertex -4.23353 -13.0295 0
      vertex 30.3381 -22.0419 0
    endloop
  endfacet
  facet normal 0 0 -1
    outer loop
      vertex -4.23353 -13.0295 0
      vertex -1.43204 -13.625 0
      vertex 30.3381 -22.0419 0
    endloop
  endfacet
  facet normal 0 0 -1
    outer loop
      vertex 4.23353 -13.0295 0
      vertex 34.258 -15.2526 0
      vertex 1.43204 -13.625 0
    endloop
  endfacet
  facet normal 0 0 -1
    outer loop
      vertex 6.85 -11.8645 0
      vertex 34.258 -15.2526 0
      vertex 4.23353 -13.0295 0
    endloop
  endfacet
  facet normal 0 0 -1
    outer loop
      vertex 9.16709 -10.1811 0
      vertex 34.258 -15.2526 0
      vertex 6.85 -11.8645 0
    endloop
  endfacet
  facet normal -0 0 -1
    outer loop
      vertex 11.0835 -8.05266 0
      vertex 36.6805 -7.79669 0
      vertex 9.16709 -10.1811 0
    endloop
  endfacet
  facet normal 0 0 -1
    outer loop
      vertex 12.5156 -5.57229 0
      vertex 36.6805 -7.79669 0
      vertex 11.0835 -8.05266 0
    endloop
  endfacet
  facet normal -0 0 -1
    outer loop
      vertex 13.4006 -2.84839 0
      vertex 37.5 0 0
      vertex 12.5156 -5.57229 0
    endloop
  endfacet
  facet normal 0 0 -1
    outer loop
      vertex 13.7 0 0
      vertex 37.5 0 0
      vertex 13.4006 -2.84839 0
    endloop
  endfacet
  facet normal -0 0 -1
    outer loop
      vertex 13.4006 2.84839 0
      vertex 36.6805 7.79669 0
      vertex 13.7 0 0
    endloop
  endfacet
  facet normal -0 0 -1
    outer loop
      vertex 12.5156 5.57229 0
      vertex 34.258 15.2526 0
      vertex 13.4006 2.84839 0
    endloop
  endfacet
  facet normal -0 0 -1
    outer loop
      vertex 9.16709 10.1811 0
      vertex 30.3381 22.0419 0
      vertex 11.0835 8.05266 0
    endloop
  endfacet
  facet normal -0 0 -1
    outer loop
      vertex 6.85 11.8645 0
      vertex 30.3381 22.0419 0
      vertex 9.16709 10.1811 0
    endloop
  endfacet
  facet normal -0 0 -1
    outer loop
      vertex 4.23353 13.0295 0
      vertex 25.0924 27.8679 0
      vertex 6.85 11.8645 0
    endloop
  endfacet
  facet normal -0 0 -1
    outer loop
      vertex 1.43204 13.625 0
      vertex 25.0924 27.8679 0
      vertex 4.23353 13.0295 0
    endloop
  endfacet
  facet normal 0 0 -1
    outer loop
      vertex -4.23353 13.0295 0
      vertex 18.75 32.476 0
      vertex -1.43204 13.625 0
    endloop
  endfacet
  facet normal 0 -0 -1
    outer loop
      vertex -11.0835 8.05266 0
      vertex -36.6805 -7.79669 0
      vertex -9.16709 10.1811 0
    endloop
  endfacet
  facet normal 0 0 -1
    outer loop
      vertex -6.85 11.8645 0
      vertex 18.75 32.476 0
      vertex -4.23353 13.0295 0
    endloop
  endfacet
  facet normal 0 0 -1
    outer loop
      vertex -36.6805 -7.79669 0
      vertex 18.75 32.476 0
      vertex -6.85 11.8645 0
    endloop
  endfacet
  facet normal 0 0 -1
    outer loop
      vertex -36.6805 -7.79669 0
      vertex -6.85 11.8645 0
      vertex -9.16709 10.1811 0
    endloop
  endfacet
  facet normal 0 -0 -1
    outer loop
      vertex -12.5156 5.57229 0
      vertex -36.6805 -7.79669 0
      vertex -11.0835 8.05266 0
    endloop
  endfacet
  facet normal 0 -0 -1
    outer loop
      vertex -13.4006 2.84839 0
      vertex -36.6805 -7.79669 0
      vertex -12.5156 5.57229 0
    endloop
  endfacet
  facet normal 0 -0 -1
    outer loop
      vertex -13.7 0 0
      vertex -36.6805 -7.79669 0
      vertex -13.4006 2.84839 0
    endloop
  endfacet
  facet normal -0 0 -1
    outer loop
      vertex -1.43204 13.625 0
      vertex 25.0924 27.8679 0
      vertex 1.43204 13.625 0
    endloop
  endfacet
  facet normal -0 0 -1
    outer loop
      vertex 11.0835 8.05266 0
      vertex 34.258 15.2526 0
      vertex 12.5156 5.57229 0
    endloop
  endfacet
  facet normal -0.994522 0.104528 0
    outer loop
      vertex -37.5 0 0
      vertex -37.5 0 10
      vertex -36.6805 7.79669 0
    endloop
  endfacet
  facet normal -0.994522 0.104528 0
    outer loop
      vertex -36.6805 7.79669 0
      vertex -37.5 0 10
      vertex -36.6805 7.79669 10
    endloop
  endfacet
  facet normal -0.994522 -0.104528 -0
    outer loop
      vertex -37.5 0 0
      vertex -36.6805 -7.79669 0
      vertex -37.5 0 10
    endloop
  endfacet
  facet normal -0.994522 -0.104528 0
    outer loop
      vertex -37.5 0 10
      vertex -36.6805 -7.79669 0
      vertex -36.6805 -7.79669 10
    endloop
  endfacet
  facet normal -0.951057 -0.309017 -0
    outer loop
      vertex -36.6805 -7.79669 0
      vertex -34.258 -15.2526 0
      vertex -36.6805 -7.79669 10
    endloop
  endfacet
  facet normal -0.951057 -0.309017 0
    outer loop
      vertex -36.6805 -7.79669 10
      vertex -34.258 -15.2526 0
      vertex -34.258 -15.2526 10
    endloop
  endfacet
  facet normal -0.866025 -0.5 -0
    outer loop
      vertex -34.258 -15.2526 0
      vertex -30.3381 -22.0419 0
      vertex -34.258 -15.2526 10
    endloop
  endfacet
  facet normal -0.866025 -0.5 0
    outer loop
      vertex -34.258 -15.2526 10
      vertex -30.3381 -22.0419 0
      vertex -30.3381 -22.0419 10
    endloop
  endfacet
  facet normal -0.743145 -0.669131 -0
    outer loop
      vertex -30.3381 -22.0419 0
      vertex -25.0924 -27.8679 0
      vertex -30.3381 -22.0419 10
    endloop
  endfacet
  facet normal -0.743145 -0.669131 0
    outer loop
      vertex -30.3381 -22.0419 10
      vertex -25.0924 -27.8679 0
      vertex -25.0924 -27.8679 10
    endloop
  endfacet
  facet normal -0.587785 -0.809017 0
    outer loop
      vertex -25.0924 -27.8679 10
      vertex -25.0924 -27.8679 0
      vertex -18.75 -32.476 0
    endloop
  endfacet
  facet normal -0.587785 -0.809017 0
    outer loop
      vertex -18.75 -32.476 10
      vertex -25.0924 -27.8679 10
      vertex -18.75 -32.476 0
    endloop
  endfacet
  facet normal -0.406737 -0.913545 0
    outer loop
      vertex -18.75 -32.476 10
      vertex -18.75 -32.476 0
      vertex -11.5881 -35.6646 0
    endloop
  endfacet
  facet normal -0.406737 -0.913545 0
    outer loop
      vertex -11.5881 -35.6646 10
      vertex -18.75 -32.476 10
      vertex -11.5881 -35.6646 0
    endloop
  endfacet
  facet normal -0.207912 -0.978148 0
    outer loop
      vertex -11.5881 -35.6646 10
      vertex -11.5881 -35.6646 0
      vertex -3.91982 -37.2946 0
    endloop
  endfacet
  facet normal -0.207912 -0.978148 0
    outer loop
      vertex -3.91982 -37.2946 10
      vertex -11.5881 -35.6646 10
      vertex -3.91982 -37.2946 0
    endloop
  endfacet
  facet normal 0 -1 0
    outer loop
      vertex -3.91982 -37.2946 10
      vertex -3.91982 -37.2946 0
      vertex 3.91982 -37.2946 0
    endloop
  endfacet
  facet normal 0 -1 0
    outer loop
      vertex 3.91982 -37.2946 10
      vertex -3.91982 -37.2946 10
      vertex 3.91982 -37.2946 0
    endloop
  endfacet
  facet normal 0.207912 -0.978148 0
    outer loop
      vertex 3.91982 -37.2946 10
      vertex 3.91982 -37.2946 0
      vertex 11.5881 -35.6646 0
    endloop
  endfacet
  facet normal 0.207912 -0.978148 0
    outer loop
      vertex 11.5881 -35.6646 10
      vertex 3.91982 -37.2946 10
      vertex 11.5881 -35.6646 0
    endloop
  endfacet
  facet normal 0.406737 -0.913545 0
    outer loop
      vertex 11.5881 -35.6646 10
      vertex 11.5881 -35.6646 0
      vertex 18.75 -32.476 0
    endloop
  endfacet
  facet normal 0.406737 -0.913545 0
    outer loop
      vertex 18.75 -32.476 10
      vertex 11.5881 -35.6646 10
      vertex 18.75 -32.476 0
    endloop
  endfacet
  facet normal 0.587785 -0.809017 0
    outer loop
      vertex 18.75 -32.476 10
      vertex 18.75 -32.476 0
      vertex 25.0924 -27.8679 0
    endloop
  endfacet
  facet normal 0.587785 -0.809017 0
    outer loop
      vertex 25.0924 -27.8679 10
      vertex 18.75 -32.476 10
      vertex 25.0924 -27.8679 0
    endloop
  endfacet
  facet normal 0.743145 -0.669131 0
    outer loop
      vertex 25.0924 -27.8679 10
      vertex 25.0924 -27.8679 0
      vertex 30.3381 -22.0419 0
    endloop
  endfacet
  facet normal 0.743145 -0.669131 0
    outer loop
      vertex 30.3381 -22.0419 10
      vertex 25.0924 -27.8679 10
      vertex 30.3381 -22.0419 0
    endloop
  endfacet
  facet normal 0.866025 -0.5 0
    outer loop
      vertex 30.3381 -22.0419 10
      vertex 30.3381 -22.0419 0
      vertex 34.258 -15.2526 0
    endloop
  endfacet
  facet normal 0.866025 -0.5 0
    outer loop
      vertex 34.258 -15.2526 10
      vertex 30.3381 -22.0419 10
      vertex 34.258 -15.2526 0
    endloop
  endfacet
  facet normal 0.951057 -0.309017 0
    outer loop
      vertex 34.258 -15.2526 10
      vertex 34.258 -15.2526 0
      vertex 36.6805 -7.79669 0
    endloop
  endfacet
  facet normal 0.951057 -0.309017 0
    outer loop
      vertex 36.6805 -7.79669 10
      vertex 34.258 -15.2526 10
      vertex 36.6805 -7.79669 0
    endloop
  endfacet
  facet normal 0.994522 -0.104528 0
    outer loop
      vertex 36.6805 -7.79669 10
      vertex 36.6805 -7.79669 0
      vertex 37.5 0 0
    endloop
  endfacet
  facet normal 0.994522 -0.104528 0
    outer loop
      vertex 37.5 0 10
      vertex 36.6805 -7.79669 10
      vertex 37.5 0 0
    endloop
  endfacet
  facet normal 0.994522 0.104528 0
    outer loop
      vertex 37.5 0 0
      vertex 36.6805 7.79669 0
      vertex 36.6805 7.79669 10
    endloop
  endfacet
  facet normal 0.994522 0.104528 -0
    outer loop
      vertex 37.5 0 10
      vertex 37.5 0 0
      vertex 36.6805 7.79669 10
    endloop
  endfacet
  facet normal 0.951057 0.309017 0
    outer loop
      vertex 36.6805 7.79669 0
      vertex 34.258 15.2526 0
      vertex 34.258 15.2526 10
    endloop
  endfacet
  facet normal 0.951057 0.309017 -0
    outer loop
      vertex 36.6805 7.79669 10
      vertex 36.6805 7.79669 0
      vertex 34.258 15.2526 10
    endloop
  endfacet
  facet normal 0.866025 0.5 0
    outer loop
      vertex 34.258 15.2526 0
      vertex 30.3381 22.0419 0
      vertex 30.3381 22.0419 10
    endloop
  endfacet
  facet normal 0.866025 0.5 -0
    outer loop
      vertex 34.258 15.2526 10
      vertex 34.258 15.2526 0
      vertex 30.3381 22.0419 10
    endloop
  endfacet
  facet normal 0.743145 0.669131 0
    outer loop
      vertex 30.3381 22.0419 0
      vertex 25.0924 27.8679 0
      vertex 25.0924 27.8679 10
    endloop
  endfacet
  facet normal 0.743145 0.669131 -0
    outer loop
      vertex 30.3381 22.0419 10
      vertex 30.3381 22.0419 0
      vertex 25.0924 27.8679 10
    endloop
  endfacet
  facet normal 0.587785 0.809017 0
    outer loop
      vertex 18.75 32.476 0
      vertex 18.75 32.476 10
      vertex 25.0924 27.8679 0
    endloop
  endfacet
  facet normal 0.587785 0.809017 0
    outer loop
      vertex 25.0924 27.8679 0
      vertex 18.75 32.476 10
      vertex 25.0924 27.8679 10
    endloop
  endfacet
  facet normal 0.406737 0.913545 0
    outer loop
      vertex 11.5881 35.6646 0
      vertex 11.5881 35.6646 10
      vertex 18.75 32.476 0
    endloop
  endfacet
  facet normal 0.406737 0.913545 0
    outer loop
      vertex 18.75 32.476 0
      vertex 11.5881 35.6646 10
      vertex 18.75 32.476 10
    endloop
  endfacet
  facet normal 0.207912 0.978148 0
    outer loop
      vertex 3.91982 37.2946 0
      vertex 3.91982 37.2946 10
      vertex 11.5881 35.6646 0
    endloop
  endfacet
  facet normal 0.207912 0.978148 0
    outer loop
      vertex 11.5881 35.6646 0
      vertex 3.91982 37.2946 10
      vertex 11.5881 35.6646 10
    endloop
  endfacet
  facet normal 0 1 0
    outer loop
      vertex -3.91982 37.2946 0
      vertex -3.91982 37.2946 10
      vertex 3.91982 37.2946 0
    endloop
  endfacet
  facet normal 0 1 0
    outer loop
      vertex 3.91982 37.2946 0
      vertex -3.91982 37.2946 10
      vertex 3.91982 37.2946 10
    endloop
  endfacet
  facet normal -0.207912 0.978148 0
    outer loop
      vertex -11.5881 35.6646 0
      vertex -11.5881 35.6646 10
      vertex -3.91982 37.2946 0
    endloop
  endfacet
  facet normal -0.207912 0.978148 0
    outer loop
      vertex -3.91982 37.2946 0
      vertex -11.5881 35.6646 10
      vertex -3.91982 37.2946 10
    endloop
  endfacet
  facet normal -0.406737 0.913545 0
    outer loop
      vertex -18.75 32.476 0
      vertex -18.75 32.476 10
      vertex -11.5881 35.6646 0
    endloop
  endfacet
  facet normal -0.406737 0.913545 0
    outer loop
      vertex -11.5881 35.6646 0
      vertex -18.75 32.476 10
      vertex -11.5881 35.6646 10
    endloop
  endfacet
  facet normal -0.587785 0.809017 0
    outer loop
      vertex -25.0924 27.8679 0
      vertex -25.0924 27.8679 10
      vertex -18.75 32.476 0
    endloop
  endfacet
  facet normal -0.587785 0.809017 0
    outer loop
      vertex -18.75 32.476 0
      vertex -25.0924 27.8679 10
      vertex -18.75 32.476 10
    endloop
  endfacet
  facet normal -0.743145 0.669131 0
    outer loop
      vertex -30.3381 22.0419 0
      vertex -30.3381 22.0419 10
      vertex -25.0924 27.8679 0
    endloop
  endfacet
  facet normal -0.743145 0.669131 0
    outer loop
      vertex -25.0924 27.8679 0
      vertex -30.3381 22.0419 10
      vertex -25.0924 27.8679 10
    endloop
  endfacet
  facet normal -0.866025 0.5 0
    outer loop
      vertex -34.258 15.2526 0
      vertex -34.258 15.2526 10
      vertex -30.3381 22.0419 0
    endloop
  endfacet
  facet normal -0.866025 0.5 0
    outer loop
      vertex -30.3381 22.0419 0
      vertex -34.258 15.2526 10
      vertex -30.3381 22.0419 10
    endloop
  endfacet
  facet normal -0.951057 0.309017 0
    outer loop
      vertex -36.6805 7.79669 0
      vertex -36.6805 7.79669 10
      vertex -34.258 15.2526 0
    endloop
  endfacet
  facet normal -0.951057 0.309017 0
    outer loop
      vertex -34.258 15.2526 0
      vertex -36.6805 7.79669 10
      vertex -34.258 15.2526 10
    endloop
  endfacet
  facet normal 0.994522 0.104529 0
    outer loop
      vertex -13.7 0 70
      vertex -13.4006 -2.84839 70
      vertex -13.4006 -2.84839 0
    endloop
  endfacet
  facet normal 0.994522 0.104529 0
    outer loop
      vertex -13.7 0 0
      vertex -13.7 0 70
      vertex -13.4006 -2.84839 0
    endloop
  endfacet
  facet normal 0.994522 -0.104529 0
    outer loop
      vertex -13.4006 2.84839 0
      vertex -13.4006 2.84839 70
      vertex -13.7 0 70
    endloop
  endfacet
  facet normal 0.994522 -0.104529 0
    outer loop
      vertex -13.7 0 0
      vertex -13.4006 2.84839 0
      vertex -13.7 0 70
    endloop
  endfacet
  facet normal 0.951057 -0.309017 0
    outer loop
      vertex -12.5156 5.57229 0
      vertex -12.5156 5.57229 70
      vertex -13.4006 2.84839 70
    endloop
  endfacet
  facet normal 0.951057 -0.309017 0
    outer loop
      vertex -13.4006 2.84839 0
      vertex -12.5156 5.57229 0
      vertex -13.4006 2.84839 70
    endloop
  endfacet
  facet normal 0.866025 -0.5 0
    outer loop
      vertex -11.0835 8.05266 0
      vertex -11.0835 8.05266 70
      vertex -12.5156 5.57229 70
    endloop
  endfacet
  facet normal 0.866025 -0.5 0
    outer loop
      vertex -12.5156 5.57229 0
      vertex -11.0835 8.05266 0
      vertex -12.5156 5.57229 70
    endloop
  endfacet
  facet normal 0.743145 -0.669131 0
    outer loop
      vertex -9.16709 10.1811 0
      vertex -9.16709 10.1811 70
      vertex -11.0835 8.05266 70
    endloop
  endfacet
  facet normal 0.743145 -0.669131 0
    outer loop
      vertex -11.0835 8.05266 0
      vertex -9.16709 10.1811 0
      vertex -11.0835 8.05266 70
    endloop
  endfacet
  facet normal 0.587785 -0.809017 0
    outer loop
      vertex -6.85 11.8645 0
      vertex -6.85 11.8645 70
      vertex -9.16709 10.1811 70
    endloop
  endfacet
  facet normal 0.587785 -0.809017 0
    outer loop
      vertex -9.16709 10.1811 0
      vertex -6.85 11.8645 0
      vertex -9.16709 10.1811 70
    endloop
  endfacet
  facet normal 0.406737 -0.913545 0
    outer loop
      vertex -4.23353 13.0295 0
      vertex -4.23353 13.0295 70
      vertex -6.85 11.8645 70
    endloop
  endfacet
  facet normal 0.406737 -0.913545 0
    outer loop
      vertex -6.85 11.8645 0
      vertex -4.23353 13.0295 0
      vertex -6.85 11.8645 70
    endloop
  endfacet
  facet normal 0.207912 -0.978148 0
    outer loop
      vertex -1.43204 13.625 0
      vertex -1.43204 13.625 70
      vertex -4.23353 13.0295 70
    endloop
  endfacet
  facet normal 0.207912 -0.978148 0
    outer loop
      vertex -4.23353 13.0295 0
      vertex -1.43204 13.625 0
      vertex -4.23353 13.0295 70
    endloop
  endfacet
  facet normal 0 -1 0
    outer loop
      vertex 1.43204 13.625 0
      vertex 1.43204 13.625 70
      vertex -1.43204 13.625 70
    endloop
  endfacet
  facet normal -0 -1 -0
    outer loop
      vertex -1.43204 13.625 0
      vertex 1.43204 13.625 0
      vertex -1.43204 13.625 70
    endloop
  endfacet
  facet normal -0.207912 -0.978148 -0
    outer loop
      vertex 4.23353 13.0295 0
      vertex 4.23353 13.0295 70
      vertex 1.43204 13.625 70
    endloop
  endfacet
  facet normal -0.207912 -0.978148 -0
    outer loop
      vertex 1.43204 13.625 0
      vertex 4.23353 13.0295 0
      vertex 1.43204 13.625 70
    endloop
  endfacet
  facet normal -0.406737 -0.913545 -0
    outer loop
      vertex 6.85 11.8645 0
      vertex 6.85 11.8645 70
      vertex 4.23353 13.0295 70
    endloop
  endfacet
  facet normal -0.406737 -0.913545 -0
    outer loop
      vertex 4.23353 13.0295 0
      vertex 6.85 11.8645 0
      vertex 4.23353 13.0295 70
    endloop
  endfacet
  facet normal -0.587785 -0.809017 -0
    outer loop
      vertex 9.16709 10.1811 0
      vertex 9.16709 10.1811 70
      vertex 6.85 11.8645 70
    endloop
  endfacet
  facet normal -0.587785 -0.809017 -0
    outer loop
      vertex 6.85 11.8645 0
      vertex 9.16709 10.1811 0
      vertex 6.85 11.8645 70
    endloop
  endfacet
  facet normal -0.743145 -0.669131 0
    outer loop
      vertex 11.0835 8.05266 70
      vertex 9.16709 10.1811 70
      vertex 11.0835 8.05266 0
    endloop
  endfacet
  facet normal -0.743145 -0.669131 0
    outer loop
      vertex 11.0835 8.05266 0
      vertex 9.16709 10.1811 70
      vertex 9.16709 10.1811 0
    endloop
  endfacet
  facet normal -0.866025 -0.5 0
    outer loop
      vertex 12.5156 5.57229 70
      vertex 11.0835 8.05266 70
      vertex 12.5156 5.57229 0
    endloop
  endfacet
  facet normal -0.866025 -0.5 0
    outer loop
      vertex 12.5156 5.57229 0
      vertex 11.0835 8.05266 70
      vertex 11.0835 8.05266 0
    endloop
  endfacet
  facet normal -0.951057 -0.309017 0
    outer loop
      vertex 13.4006 2.84839 70
      vertex 12.5156 5.57229 70
      vertex 13.4006 2.84839 0
    endloop
  endfacet
  facet normal -0.951057 -0.309017 0
    outer loop
      vertex 13.4006 2.84839 0
      vertex 12.5156 5.57229 70
      vertex 12.5156 5.57229 0
    endloop
  endfacet
  facet normal -0.994522 -0.104529 0
    outer loop
      vertex 13.7 0 70
      vertex 13.4006 2.84839 70
      vertex 13.7 0 0
    endloop
  endfacet
  facet normal -0.994522 -0.104529 0
    outer loop
      vertex 13.7 0 0
      vertex 13.4006 2.84839 70
      vertex 13.4006 2.84839 0
    endloop
  endfacet
  facet normal -0.994522 0.104529 0
    outer loop
      vertex 13.7 0 70
      vertex 13.7 0 0
      vertex 13.4006 -2.84839 70
    endloop
  endfacet
  facet normal -0.994522 0.104529 0
    outer loop
      vertex 13.4006 -2.84839 70
      vertex 13.7 0 0
      vertex 13.4006 -2.84839 0
    endloop
  endfacet
  facet normal -0.951057 0.309017 0
    outer loop
      vertex 13.4006 -2.84839 70
      vertex 13.4006 -2.84839 0
      vertex 12.5156 -5.57229 70
    endloop
  endfacet
  facet normal -0.951057 0.309017 0
    outer loop
      vertex 12.5156 -5.57229 70
      vertex 13.4006 -2.84839 0
      vertex 12.5156 -5.57229 0
    endloop
  endfacet
  facet normal -0.866025 0.5 0
    outer loop
      vertex 12.5156 -5.57229 70
      vertex 12.5156 -5.57229 0
      vertex 11.0835 -8.05266 70
    endloop
  endfacet
  facet normal -0.866025 0.5 0
    outer loop
      vertex 11.0835 -8.05266 70
      vertex 12.5156 -5.57229 0
      vertex 11.0835 -8.05266 0
    endloop
  endfacet
  facet normal -0.743145 0.669131 0
    outer loop
      vertex 11.0835 -8.05266 70
      vertex 11.0835 -8.05266 0
      vertex 9.16709 -10.1811 70
    endloop
  endfacet
  facet normal -0.743145 0.669131 0
    outer loop
      vertex 9.16709 -10.1811 70
      vertex 11.0835 -8.05266 0
      vertex 9.16709 -10.1811 0
    endloop
  endfacet
  facet normal -0.587785 0.809017 0
    outer loop
      vertex 9.16709 -10.1811 70
      vertex 9.16709 -10.1811 0
      vertex 6.85 -11.8645 70
    endloop
  endfacet
  facet normal -0.587785 0.809017 0
    outer loop
      vertex 6.85 -11.8645 70
      vertex 9.16709 -10.1811 0
      vertex 6.85 -11.8645 0
    endloop
  endfacet
  facet normal -0.406737 0.913545 0
    outer loop
      vertex 6.85 -11.8645 70
      vertex 6.85 -11.8645 0
      vertex 4.23353 -13.0295 70
    endloop
  endfacet
  facet normal -0.406737 0.913545 0
    outer loop
      vertex 4.23353 -13.0295 70
      vertex 6.85 -11.8645 0
      vertex 4.23353 -13.0295 0
    endloop
  endfacet
  facet normal -0.207912 0.978148 0
    outer loop
      vertex 4.23353 -13.0295 70
      vertex 4.23353 -13.0295 0
      vertex 1.43204 -13.625 70
    endloop
  endfacet
  facet normal -0.207912 0.978148 0
    outer loop
      vertex 1.43204 -13.625 70
      vertex 4.23353 -13.0295 0
      vertex 1.43204 -13.625 0
    endloop
  endfacet
  facet normal 0 1 0
    outer loop
      vertex 1.43204 -13.625 70
      vertex 1.43204 -13.625 0
      vertex -1.43204 -13.625 70
    endloop
  endfacet
  facet normal 0 1 -0
    outer loop
      vertex -1.43204 -13.625 70
      vertex 1.43204 -13.625 0
      vertex -1.43204 -13.625 0
    endloop
  endfacet
  facet normal 0.207912 0.978148 -0
    outer loop
      vertex -1.43204 -13.625 70
      vertex -1.43204 -13.625 0
      vertex -4.23353 -13.0295 70
    endloop
  endfacet
  facet normal 0.207912 0.978148 -0
    outer loop
      vertex -4.23353 -13.0295 70
      vertex -1.43204 -13.625 0
      vertex -4.23353 -13.0295 0
    endloop
  endfacet
  facet normal 0.406737 0.913545 -0
    outer loop
      vertex -4.23353 -13.0295 70
      vertex -4.23353 -13.0295 0
      vertex -6.85 -11.8645 70
    endloop
  endfacet
  facet normal 0.406737 0.913545 -0
    outer loop
      vertex -6.85 -11.8645 70
      vertex -4.23353 -13.0295 0
      vertex -6.85 -11.8645 0
    endloop
  endfacet
  facet normal 0.587785 0.809017 -0
    outer loop
      vertex -6.85 -11.8645 70
      vertex -6.85 -11.8645 0
      vertex -9.16709 -10.1811 70
    endloop
  endfacet
  facet normal 0.587785 0.809017 -0
    outer loop
      vertex -9.16709 -10.1811 70
      vertex -6.85 -11.8645 0
      vertex -9.16709 -10.1811 0
    endloop
  endfacet
  facet normal 0.743145 0.669131 0
    outer loop
      vertex -11.0835 -8.05266 70
      vertex -9.16709 -10.1811 70
      vertex -9.16709 -10.1811 0
    endloop
  endfacet
  facet normal 0.743145 0.669131 0
    outer loop
      vertex -11.0835 -8.05266 0
      vertex -11.0835 -8.05266 70
      vertex -9.16709 -10.1811 0
    endloop
  endfacet
  facet normal 0.866025 0.5 0
    outer loop
      vertex -12.5156 -5.57229 70
      vertex -11.0835 -8.05266 70
      vertex -11.0835 -8.05266 0
    endloop
  endfacet
  facet normal 0.866025 0.5 0
    outer loop
      vertex -12.5156 -5.57229 0
      vertex -12.5156 -5.57229 70
      vertex -11.0835 -8.05266 0
    endloop
  endfacet
  facet normal 0.951057 0.309017 0
    outer loop
      vertex -13.4006 -2.84839 70
      vertex -12.5156 -5.57229 70
      vertex -12.5156 -5.57229 0
    endloop
  endfacet
  facet normal 0.951057 0.309017 0
    outer loop
      vertex -13.4006 -2.84839 0
      vertex -13.4006 -2.84839 70
      vertex -12.5156 -5.57229 0
    endloop
  endfacet
  facet normal 0 0 1
    outer loop
      vertex -36.6805 7.79669 10
      vertex -37.5 0 10
      vertex -36.6805 -7.79669 10
    endloop
  endfacet
  facet normal 0 0 1
    outer loop
      vertex -30.3381 -22.0419 10
      vertex -36.6805 7.79669 10
      vertex -34.258 -15.2526 10
    endloop
  endfacet
  facet normal 0 0 1
    outer loop
      vertex -34.258 -15.2526 10
      vertex -36.6805 7.79669 10
      vertex -36.6805 -7.79669 10
    endloop
  endfacet
  facet normal 0 0 1
    outer loop
      vertex -25.0924 -27.8679 10
      vertex -36.6805 7.79669 10
      vertex -30.3381 -22.0419 10
    endloop
  endfacet
  facet normal 0 0 1
    outer loop
      vertex -18.75 -32.476 10
      vertex -36.6805 7.79669 10
      vertex -25.0924 -27.8679 10
    endloop
  endfacet
  facet normal 0 0 1
    outer loop
      vertex -11.5881 -35.6646 10
      vertex -36.6805 7.79669 10
      vertex -18.75 -32.476 10
    endloop
  endfacet
  facet normal 0 0 1
    outer loop
      vertex -3.91982 -37.2946 10
      vertex -36.6805 7.79669 10
      vertex -11.5881 -35.6646 10
    endloop
  endfacet
  facet normal -0 0 1
    outer loop
      vertex 3.91982 -37.2946 10
      vertex -36.6805 7.79669 10
      vertex -3.91982 -37.2946 10
    endloop
  endfacet
  facet normal -0 -0 1
    outer loop
      vertex -14.0517 -15.606 10
      vertex -36.6805 7.79669 10
      vertex 3.91982 -37.2946 10
    endloop
  endfacet
  facet normal 0 0 1
    outer loop
      vertex -20.5411 4.36615 10
      vertex -19.1845 8.54147 10
      vertex -36.6805 7.79669 10
    endloop
  endfacet
  facet normal 0 0 1
    outer loop
      vertex 19.1845 8.54147 10
      vertex 20.5411 4.36615 10
      vertex 36.6805 7.79669 10
    endloop
  endfacet
  facet normal 0 0 1
    outer loop
      vertex 2.1951 20.885 10
      vertex 6.48936 19.9722 10
      vertex 25.0924 27.8679 10
    endloop
  endfacet
  facet normal 0 0 1
    outer loop
      vertex 10.5 18.1865 10
      vertex 14.0517 15.606 10
      vertex 30.3381 22.0419 10
    endloop
  endfacet
  facet normal 0 -0 1
    outer loop
      vertex 11.5881 35.6646 10
      vertex -36.6805 7.79669 10
      vertex 18.75 32.476 10
    endloop
  endfacet
  facet normal 0 -0 1
    outer loop
      vertex 3.91982 37.2946 10
      vertex -36.6805 7.79669 10
      vertex 11.5881 35.6646 10
    endloop
  endfacet
  facet normal 0 -0 1
    outer loop
      vertex -3.91982 37.2946 10
      vertex -36.6805 7.79669 10
      vertex 3.91982 37.2946 10
    endloop
  endfacet
  facet normal 0 -0 1
    outer loop
      vertex -11.5881 35.6646 10
      vertex -36.6805 7.79669 10
      vertex -3.91982 37.2946 10
    endloop
  endfacet
  facet normal 0 -0 1
    outer loop
      vertex -18.75 32.476 10
      vertex -36.6805 7.79669 10
      vertex -11.5881 35.6646 10
    endloop
  endfacet
  facet normal 0 -0 1
    outer loop
      vertex -25.0924 27.8679 10
      vertex -36.6805 7.79669 10
      vertex -18.75 32.476 10
    endloop
  endfacet
  facet normal 0 -0 1
    outer loop
      vertex -30.3381 22.0419 10
      vertex -36.6805 7.79669 10
      vertex -25.0924 27.8679 10
    endloop
  endfacet
  facet normal 0 -0 1
    outer loop
      vertex -34.258 15.2526 10
      vertex -36.6805 7.79669 10
      vertex -30.3381 22.0419 10
    endloop
  endfacet
  facet normal 0 0 1
    outer loop
      vertex -16.9894 -12.3435 10
      vertex -19.1845 -8.54147 10
      vertex -36.6805 7.79669 10
    endloop
  endfacet
  facet normal 0 -0 1
    outer loop
      vertex 19.1845 -8.54147 10
      vertex 16.9894 -12.3435 10
      vertex 34.258 -15.2526 10
    endloop
  endfacet
  facet normal -0 0 1
    outer loop
      vertex -19.1845 8.54147 10
      vertex -16.9894 12.3435 10
      vertex -36.6805 7.79669 10
    endloop
  endfacet
  facet normal 0 0 1
    outer loop
      vertex -6.48936 19.9722 10
      vertex -2.1951 20.885 10
      vertex 18.75 32.476 10
    endloop
  endfacet
  facet normal 0 0 1
    outer loop
      vertex 14.0517 15.606 10
      vertex 16.9894 12.3435 10
      vertex 34.258 15.2526 10
    endloop
  endfacet
  facet normal 0 0 1
    outer loop
      vertex -10.5 18.1865 10
      vertex -36.6805 7.79669 10
      vertex -14.0517 15.606 10
    endloop
  endfacet
  facet normal 0 0 1
    outer loop
      vertex 18.75 32.476 10
      vertex -36.6805 7.79669 10
      vertex -10.5 18.1865 10
    endloop
  endfacet
  facet normal 0 0 1
    outer loop
      vertex 18.75 32.476 10
      vertex -10.5 18.1865 10
      vertex -6.48936 19.9722 10
    endloop
  endfacet
  facet normal 0 -0 1
    outer loop
      vertex 18.75 32.476 10
      vertex -2.1951 20.885 10
      vertex 25.0924 27.8679 10
    endloop
  endfacet
  facet normal 0 0 1
    outer loop
      vertex -2.1951 20.885 10
      vertex 2.1951 20.885 10
      vertex 25.0924 27.8679 10
    endloop
  endfacet
  facet normal 0 -0 1
    outer loop
      vertex 25.0924 27.8679 10
      vertex 6.48936 19.9722 10
      vertex 30.3381 22.0419 10
    endloop
  endfacet
  facet normal 0 0 1
    outer loop
      vertex 6.48936 19.9722 10
      vertex 10.5 18.1865 10
      vertex 30.3381 22.0419 10
    endloop
  endfacet
  facet normal 0 -0 1
    outer loop
      vertex 30.3381 22.0419 10
      vertex 14.0517 15.606 10
      vertex 34.258 15.2526 10
    endloop
  endfacet
  facet normal -0 0 1
    outer loop
      vertex -16.9894 12.3435 10
      vertex -14.0517 15.606 10
      vertex -36.6805 7.79669 10
    endloop
  endfacet
  facet normal 0 -0 1
    outer loop
      vertex 34.258 15.2526 10
      vertex 16.9894 12.3435 10
      vertex 36.6805 7.79669 10
    endloop
  endfacet
  facet normal 0 0 1
    outer loop
      vertex 16.9894 12.3435 10
      vertex 19.1845 8.54147 10
      vertex 36.6805 7.79669 10
    endloop
  endfacet
  facet normal 0 -0 1
    outer loop
      vertex 36.6805 7.79669 10
      vertex 20.5411 4.36615 10
      vertex 37.5 0 10
    endloop
  endfacet
  facet normal 0 0 1
    outer loop
      vertex 20.5411 4.36615 10
      vertex 21 0 10
      vertex 37.5 0 10
    endloop
  endfacet
  facet normal 0 0 1
    outer loop
      vertex 37.5 0 10
      vertex 21 0 10
      vertex 36.6805 -7.79669 10
    endloop
  endfacet
  facet normal -0 0 1
    outer loop
      vertex 36.6805 -7.79669 10
      vertex 20.5411 -4.36615 10
      vertex 34.258 -15.2526 10
    endloop
  endfacet
  facet normal 0 -0 1
    outer loop
      vertex 16.9894 -12.3435 10
      vertex 14.0517 -15.606 10
      vertex 30.3381 -22.0419 10
    endloop
  endfacet
  facet normal 0 -0 1
    outer loop
      vertex 20.5411 -4.36615 10
      vertex 19.1845 -8.54147 10
      vertex 34.258 -15.2526 10
    endloop
  endfacet
  facet normal 0 -0 1
    outer loop
      vertex 21 0 10
      vertex 20.5411 -4.36615 10
      vertex 36.6805 -7.79669 10
    endloop
  endfacet
  facet normal -0 0 1
    outer loop
      vertex 34.258 -15.2526 10
      vertex 16.9894 -12.3435 10
      vertex 30.3381 -22.0419 10
    endloop
  endfacet
  facet normal -0 0 1
    outer loop
      vertex 30.3381 -22.0419 10
      vertex 14.0517 -15.606 10
      vertex 25.0924 -27.8679 10
    endloop
  endfacet
  facet normal 0 -0 1
    outer loop
      vertex 14.0517 -15.606 10
      vertex 10.5 -18.1865 10
      vertex 25.0924 -27.8679 10
    endloop
  endfacet
  facet normal -0 0 1
    outer loop
      vertex 25.0924 -27.8679 10
      vertex 6.48936 -19.9722 10
      vertex 18.75 -32.476 10
    endloop
  endfacet
  facet normal -0 0 1
    outer loop
      vertex 18.75 -32.476 10
      vertex 2.1951 -20.885 10
      vertex 11.5881 -35.6646 10
    endloop
  endfacet
  facet normal 0 -0 1
    outer loop
      vertex 2.1951 -20.885 10
      vertex -2.1951 -20.885 10
      vertex 11.5881 -35.6646 10
    endloop
  endfacet
  facet normal -0 0 1
    outer loop
      vertex 11.5881 -35.6646 10
      vertex -6.48936 -19.9722 10
      vertex 3.91982 -37.2946 10
    endloop
  endfacet
  facet normal -0 -0 1
    outer loop
      vertex -6.48936 -19.9722 10
      vertex -10.5 -18.1865 10
      vertex 3.91982 -37.2946 10
    endloop
  endfacet
  facet normal -0 -0 1
    outer loop
      vertex -10.5 -18.1865 10
      vertex -14.0517 -15.606 10
      vertex 3.91982 -37.2946 10
    endloop
  endfacet
  facet normal -0 -0 1
    outer loop
      vertex -16.9894 -12.3435 10
      vertex -36.6805 7.79669 10
      vertex -14.0517 -15.606 10
    endloop
  endfacet
  facet normal -0 -0 1
    outer loop
      vertex -2.1951 -20.885 10
      vertex -6.48936 -19.9722 10
      vertex 11.5881 -35.6646 10
    endloop
  endfacet
  facet normal 0 0 1
    outer loop
      vertex -19.1845 -8.54147 10
      vertex -20.5411 -4.36615 10
      vertex -36.6805 7.79669 10
    endloop
  endfacet
  facet normal 0 0 1
    outer loop
      vertex -20.5411 -4.36615 10
      vertex -21 0 10
      vertex -36.6805 7.79669 10
    endloop
  endfacet
  facet normal 0 -0 1
    outer loop
      vertex 6.48936 -19.9722 10
      vertex 2.1951 -20.885 10
      vertex 18.75 -32.476 10
    endloop
  endfacet
  facet normal 0 -0 1
    outer loop
      vertex 10.5 -18.1865 10
      vertex 6.48936 -19.9722 10
      vertex 25.0924 -27.8679 10
    endloop
  endfacet
  facet normal 0 0 1
    outer loop
      vertex -21 0 10
      vertex -20.5411 4.36615 10
      vertex -36.6805 7.79669 10
    endloop
  endfacet
  facet normal -0 0 -1
    outer loop
      vertex -12.5156 5.57229 70
      vertex -11.0835 8.05266 70
      vertex -13.4006 2.84839 70
    endloop
  endfacet
  facet normal 0 0 -1
    outer loop
      vertex -13.4006 2.84839 70
      vertex -11.0835 8.05266 70
      vertex -9.16709 10.1811 70
    endloop
  endfacet
  facet normal 0 0 -1
    outer loop
      vertex -13.4006 2.84839 70
      vertex -9.16709 10.1811 70
      vertex -6.85 11.8645 70
    endloop
  endfacet
  facet normal 0 0 -1
    outer loop
      vertex -13.4006 2.84839 70
      vertex -6.85 11.8645 70
      vertex -4.23353 13.0295 70
    endloop
  endfacet
  facet normal 0 0 -1
    outer loop
      vertex -13.4006 2.84839 70
      vertex -4.23353 13.0295 70
      vertex -1.43204 13.625 70
    endloop
  endfacet
  facet normal 0 0 -1
    outer loop
      vertex -13.4006 2.84839 70
      vertex -1.43204 13.625 70
      vertex 1.43204 13.625 70
    endloop
  endfacet
  facet normal 0 0 -1
    outer loop
      vertex -13.4006 2.84839 70
      vertex 1.43204 13.625 70
      vertex 4.23353 13.0295 70
    endloop
  endfacet
  facet normal 0 0 -1
    outer loop
      vertex -13.4006 2.84839 70
      vertex 4.23353 13.0295 70
      vertex 6.85 11.8645 70
    endloop
  endfacet
  facet normal 0 0 -1
    outer loop
      vertex -13.4006 2.84839 70
      vertex 6.85 11.8645 70
      vertex 9.16709 10.1811 70
    endloop
  endfacet
  facet normal 0 0 -1
    outer loop
      vertex -13.4006 2.84839 70
      vertex 9.16709 10.1811 70
      vertex 11.0835 8.05266 70
    endloop
  endfacet
  facet normal 0 0 -1
    outer loop
      vertex -13.4006 2.84839 70
      vertex 11.0835 8.05266 70
      vertex 12.5156 5.57229 70
    endloop
  endfacet
  facet normal -0 0 -1
    outer loop
      vertex -13.4006 2.84839 70
      vertex 12.5156 5.57229 70
      vertex 13.4006 2.84839 70
    endloop
  endfacet
  facet normal 0 0 -1
    outer loop
      vertex -13.4006 2.84839 70
      vertex 13.4006 2.84839 70
      vertex 13.7 0 70
    endloop
  endfacet
  facet normal 0 0 -1
    outer loop
      vertex -13.4006 2.84839 70
      vertex 13.7 0 70
      vertex 13.4006 -2.84839 70
    endloop
  endfacet
  facet normal 0 0 -1
    outer loop
      vertex -13.4006 2.84839 70
      vertex 13.4006 -2.84839 70
      vertex 12.5156 -5.57229 70
    endloop
  endfacet
  facet normal 0 0 -1
    outer loop
      vertex -13.4006 2.84839 70
      vertex 12.5156 -5.57229 70
      vertex 11.0835 -8.05266 70
    endloop
  endfacet
  facet normal 0 0 -1
    outer loop
      vertex -13.4006 2.84839 70
      vertex 11.0835 -8.05266 70
      vertex 9.16709 -10.1811 70
    endloop
  endfacet
  facet normal 0 0 -1
    outer loop
      vertex -13.4006 2.84839 70
      vertex 9.16709 -10.1811 70
      vertex 6.85 -11.8645 70
    endloop
  endfacet
  facet normal 0 0 -1
    outer loop
      vertex -13.4006 2.84839 70
      vertex 6.85 -11.8645 70
      vertex 4.23353 -13.0295 70
    endloop
  endfacet
  facet normal 0 0 -1
    outer loop
      vertex -13.4006 2.84839 70
      vertex 4.23353 -13.0295 70
      vertex 1.43204 -13.625 70
    endloop
  endfacet
  facet normal 0 0 -1
    outer loop
      vertex -13.4006 2.84839 70
      vertex 1.43204 -13.625 70
      vertex -1.43204 -13.625 70
    endloop
  endfacet
  facet normal 0 0 -1
    outer loop
      vertex -13.4006 2.84839 70
      vertex -1.43204 -13.625 70
      vertex -4.23353 -13.0295 70
    endloop
  endfacet
  facet normal 0 0 -1
    outer loop
      vertex -13.4006 2.84839 70
      vertex -4.23353 -13.0295 70
      vertex -6.85 -11.8645 70
    endloop
  endfacet
  facet normal 0 0 -1
    outer loop
      vertex -13.4006 2.84839 70
      vertex -6.85 -11.8645 70
      vertex -9.16709 -10.1811 70
    endloop
  endfacet
  facet normal 0 0 -1
    outer loop
      vertex -13.4006 2.84839 70
      vertex -9.16709 -10.1811 70
      vertex -11.0835 -8.05266 70
    endloop
  endfacet
  facet normal 0 0 -1
    outer loop
      vertex -13.4006 2.84839 70
      vertex -11.0835 -8.05266 70
      vertex -12.5156 -5.57229 70
    endloop
  endfacet
  facet normal 0 0 -1
    outer loop
      vertex -13.4006 2.84839 70
      vertex -12.5156 -5.57229 70
      vertex -13.4006 -2.84839 70
    endloop
  endfacet
  facet normal 0 0 -1
    outer loop
      vertex -13.4006 2.84839 70
      vertex -13.4006 -2.84839 70
      vertex -13.7 0 70
    endloop
  endfacet
  facet normal -0.994522 -0.104528 -0
    outer loop
      vertex -21 0 10
      vertex -20.5411 -4.36615 10
      vertex -21 0 80
    endloop
  endfacet
  facet normal -0.994522 -0.104528 0
    outer loop
      vertex -21 0 80
      vertex -20.5411 -4.36615 10
      vertex -20.5411 -4.36615 80
    endloop
  endfacet
  facet normal -0.951057 -0.309017 -0
    outer loop
      vertex -20.5411 -4.36615 10
      vertex -19.1845 -8.54147 10
      vertex -20.5411 -4.36615 80
    endloop
  endfacet
  facet normal -0.951057 -0.309017 0
    outer loop
      vertex -20.5411 -4.36615 80
      vertex -19.1845 -8.54147 10
      vertex -19.1845 -8.54147 80
    endloop
  endfacet
  facet normal -0.866025 -0.5 -0
    outer loop
      vertex -19.1845 -8.54147 10
      vertex -16.9894 -12.3435 10
      vertex -19.1845 -8.54147 80
    endloop
  endfacet
  facet normal -0.866025 -0.5 0
    outer loop
      vertex -19.1845 -8.54147 80
      vertex -16.9894 -12.3435 10
      vertex -16.9894 -12.3435 80
    endloop
  endfacet
  facet normal -0.743145 -0.669131 -0
    outer loop
      vertex -16.9894 -12.3435 10
      vertex -14.0517 -15.606 10
      vertex -16.9894 -12.3435 80
    endloop
  endfacet
  facet normal -0.743145 -0.669131 0
    outer loop
      vertex -16.9894 -12.3435 80
      vertex -14.0517 -15.606 10
      vertex -14.0517 -15.606 80
    endloop
  endfacet
  facet normal -0.587785 -0.809017 0
    outer loop
      vertex -14.0517 -15.606 80
      vertex -14.0517 -15.606 10
      vertex -10.5 -18.1865 10
    endloop
  endfacet
  facet normal -0.587785 -0.809017 0
    outer loop
      vertex -10.5 -18.1865 80
      vertex -14.0517 -15.606 80
      vertex -10.5 -18.1865 10
    endloop
  endfacet
  facet normal -0.406737 -0.913545 0
    outer loop
      vertex -10.5 -18.1865 80
      vertex -10.5 -18.1865 10
      vertex -6.48936 -19.9722 10
    endloop
  endfacet
  facet normal -0.406737 -0.913545 0
    outer loop
      vertex -6.48936 -19.9722 80
      vertex -10.5 -18.1865 80
      vertex -6.48936 -19.9722 10
    endloop
  endfacet
  facet normal -0.207912 -0.978148 0
    outer loop
      vertex -6.48936 -19.9722 80
      vertex -6.48936 -19.9722 10
      vertex -2.1951 -20.885 10
    endloop
  endfacet
  facet normal -0.207912 -0.978148 0
    outer loop
      vertex -2.1951 -20.885 80
      vertex -6.48936 -19.9722 80
      vertex -2.1951 -20.885 10
    endloop
  endfacet
  facet normal 0 -1 0
    outer loop
      vertex -2.1951 -20.885 80
      vertex -2.1951 -20.885 10
      vertex 2.1951 -20.885 10
    endloop
  endfacet
  facet normal 0 -1 0
    outer loop
      vertex 2.1951 -20.885 80
      vertex -2.1951 -20.885 80
      vertex 2.1951 -20.885 10
    endloop
  endfacet
  facet normal 0.207912 -0.978148 0
    outer loop
      vertex 2.1951 -20.885 80
      vertex 2.1951 -20.885 10
      vertex 6.48936 -19.9722 10
    endloop
  endfacet
  facet normal 0.207912 -0.978148 0
    outer loop
      vertex 6.48936 -19.9722 80
      vertex 2.1951 -20.885 80
      vertex 6.48936 -19.9722 10
    endloop
  endfacet
  facet normal 0.406737 -0.913545 0
    outer loop
      vertex 6.48936 -19.9722 80
      vertex 6.48936 -19.9722 10
      vertex 10.5 -18.1865 10
    endloop
  endfacet
  facet normal 0.406737 -0.913545 0
    outer loop
      vertex 10.5 -18.1865 80
      vertex 6.48936 -19.9722 80
      vertex 10.5 -18.1865 10
    endloop
  endfacet
  facet normal 0.587785 -0.809017 0
    outer loop
      vertex 10.5 -18.1865 80
      vertex 10.5 -18.1865 10
      vertex 14.0517 -15.606 10
    endloop
  endfacet
  facet normal 0.587785 -0.809017 0
    outer loop
      vertex 14.0517 -15.606 80
      vertex 10.5 -18.1865 80
      vertex 14.0517 -15.606 10
    endloop
  endfacet
  facet normal 0.743145 -0.669131 0
    outer loop
      vertex 14.0517 -15.606 80
      vertex 14.0517 -15.606 10
      vertex 16.9894 -12.3435 10
    endloop
  endfacet
  facet normal 0.743145 -0.669131 0
    outer loop
      vertex 16.9894 -12.3435 80
      vertex 14.0517 -15.606 80
      vertex 16.9894 -12.3435 10
    endloop
  endfacet
  facet normal 0.866025 -0.5 0
    outer loop
      vertex 16.9894 -12.3435 80
      vertex 16.9894 -12.3435 10
      vertex 19.1845 -8.54147 10
    endloop
  endfacet
  facet normal 0.866025 -0.5 0
    outer loop
      vertex 19.1845 -8.54147 80
      vertex 16.9894 -12.3435 80
      vertex 19.1845 -8.54147 10
    endloop
  endfacet
  facet normal 0.951057 -0.309017 0
    outer loop
      vertex 19.1845 -8.54147 80
      vertex 19.1845 -8.54147 10
      vertex 20.5411 -4.36615 10
    endloop
  endfacet
  facet normal 0.951057 -0.309017 0
    outer loop
      vertex 20.5411 -4.36615 80
      vertex 19.1845 -8.54147 80
      vertex 20.5411 -4.36615 10
    endloop
  endfacet
  facet normal 0.994522 -0.104528 0
    outer loop
      vertex 20.5411 -4.36615 80
      vertex 20.5411 -4.36615 10
      vertex 21 0 10
    endloop
  endfacet
  facet normal 0.994522 -0.104528 0
    outer loop
      vertex 21 0 80
      vertex 20.5411 -4.36615 80
      vertex 21 0 10
    endloop
  endfacet
  facet normal 0.994522 0.104528 0
    outer loop
      vertex 21 0 10
      vertex 20.5411 4.36615 10
      vertex 20.5411 4.36615 80
    endloop
  endfacet
  facet normal 0.994522 0.104528 -0
    outer loop
      vertex 21 0 80
      vertex 21 0 10
      vertex 20.5411 4.36615 80
    endloop
  endfacet
  facet normal 0.951057 0.309017 0
    outer loop
      vertex 20.5411 4.36615 10
      vertex 19.1845 8.54147 10
      vertex 19.1845 8.54147 80
    endloop
  endfacet
  facet normal 0.951057 0.309017 -0
    outer loop
      vertex 20.5411 4.36615 80
      vertex 20.5411 4.36615 10
      vertex 19.1845 8.54147 80
    endloop
  endfacet
  facet normal 0.866025 0.5 0
    outer loop
      vertex 19.1845 8.54147 10
      vertex 16.9894 12.3435 10
      vertex 16.9894 12.3435 80
    endloop
  endfacet
  facet normal 0.866025 0.5 -0
    outer loop
      vertex 19.1845 8.54147 80
      vertex 19.1845 8.54147 10
      vertex 16.9894 12.3435 80
    endloop
  endfacet
  facet normal 0.743145 0.669131 0
    outer loop
      vertex 16.9894 12.3435 10
      vertex 14.0517 15.606 10
      vertex 14.0517 15.606 80
    endloop
  endfacet
  facet normal 0.743145 0.669131 -0
    outer loop
      vertex 16.9894 12.3435 80
      vertex 16.9894 12.3435 10
      vertex 14.0517 15.606 80
    endloop
  endfacet
  facet normal 0.587785 0.809017 0
    outer loop
      vertex 10.5 18.1865 10
      vertex 10.5 18.1865 80
      vertex 14.0517 15.606 10
    endloop
  endfacet
  facet normal 0.587785 0.809017 0
    outer loop
      vertex 14.0517 15.606 10
      vertex 10.5 18.1865 80
      vertex 14.0517 15.606 80
    endloop
  endfacet
  facet normal 0.406737 0.913545 0
    outer loop
      vertex 6.48936 19.9722 10
      vertex 6.48936 19.9722 80
      vertex 10.5 18.1865 10
    endloop
  endfacet
  facet normal 0.406737 0.913545 0
    outer loop
      vertex 10.5 18.1865 10
      vertex 6.48936 19.9722 80
      vertex 10.5 18.1865 80
    endloop
  endfacet
  facet normal 0.207912 0.978148 0
    outer loop
      vertex 2.1951 20.885 10
      vertex 2.1951 20.885 80
      vertex 6.48936 19.9722 10
    endloop
  endfacet
  facet normal 0.207912 0.978148 0
    outer loop
      vertex 6.48936 19.9722 10
      vertex 2.1951 20.885 80
      vertex 6.48936 19.9722 80
    endloop
  endfacet
  facet normal 0 1 0
    outer loop
      vertex -2.1951 20.885 10
      vertex -2.1951 20.885 80
      vertex 2.1951 20.885 10
    endloop
  endfacet
  facet normal 0 1 0
    outer loop
      vertex 2.1951 20.885 10
      vertex -2.1951 20.885 80
      vertex 2.1951 20.885 80
    endloop
  endfacet
  facet normal -0.207912 0.978148 0
    outer loop
      vertex -6.48936 19.9722 10
      vertex -6.48936 19.9722 80
      vertex -2.1951 20.885 10
    endloop
  endfacet
  facet normal -0.207912 0.978148 0
    outer loop
      vertex -2.1951 20.885 10
      vertex -6.48936 19.9722 80
      vertex -2.1951 20.885 80
    endloop
  endfacet
  facet normal -0.406737 0.913545 0
    outer loop
      vertex -10.5 18.1865 10
      vertex -10.5 18.1865 80
      vertex -6.48936 19.9722 10
    endloop
  endfacet
  facet normal -0.406737 0.913545 0
    outer loop
      vertex -6.48936 19.9722 10
      vertex -10.5 18.1865 80
      vertex -6.48936 19.9722 80
    endloop
  endfacet
  facet normal -0.587785 0.809017 0
    outer loop
      vertex -14.0517 15.606 10
      vertex -14.0517 15.606 80
      vertex -10.5 18.1865 10
    endloop
  endfacet
  facet normal -0.587785 0.809017 0
    outer loop
      vertex -10.5 18.1865 10
      vertex -14.0517 15.606 80
      vertex -10.5 18.1865 80
    endloop
  endfacet
  facet normal -0.743145 0.669131 0
    outer loop
      vertex -16.9894 12.3435 10
      vertex -16.9894 12.3435 80
      vertex -14.0517 15.606 10
    endloop
  endfacet
  facet normal -0.743145 0.669131 0
    outer loop
      vertex -14.0517 15.606 10
      vertex -16.9894 12.3435 80
      vertex -14.0517 15.606 80
    endloop
  endfacet
  facet normal -0.866025 0.5 0
    outer loop
      vertex -19.1845 8.54147 10
      vertex -19.1845 8.54147 80
      vertex -16.9894 12.3435 10
    endloop
  endfacet
  facet normal -0.866025 0.5 0
    outer loop
      vertex -16.9894 12.3435 10
      vertex -19.1845 8.54147 80
      vertex -16.9894 12.3435 80
    endloop
  endfacet
  facet normal -0.951057 0.309017 0
    outer loop
      vertex -20.5411 4.36615 10
      vertex -20.5411 4.36615 80
      vertex -19.1845 8.54147 10
    endloop
  endfacet
  facet normal -0.951057 0.309017 0
    outer loop
      vertex -19.1845 8.54147 10
      vertex -20.5411 4.36615 80
      vertex -19.1845 8.54147 80
    endloop
  endfacet
  facet normal -0.994522 0.104528 0
    outer loop
      vertex -21 0 10
      vertex -21 0 80
      vertex -20.5411 4.36615 10
    endloop
  endfacet
  facet normal -0.994522 0.104528 0
    outer loop
      vertex -20.5411 4.36615 10
      vertex -21 0 80
      vertex -20.5411 4.36615 80
    endloop
  endfacet
  facet normal 0 0 1
    outer loop
      vertex -20.5411 4.36615 80
      vertex -21 0 80
      vertex -20.5411 -4.36615 80
    endloop
  endfacet
  facet normal 0 0 1
    outer loop
      vertex -16.9894 -12.3435 80
      vertex -20.5411 4.36615 80
      vertex -19.1845 -8.54147 80
    endloop
  endfacet
  facet normal 0 0 1
    outer loop
      vertex -19.1845 -8.54147 80
      vertex -20.5411 4.36615 80
      vertex -20.5411 -4.36615 80
    endloop
  endfacet
  facet normal 0 0 1
    outer loop
      vertex -14.0517 -15.606 80
      vertex -20.5411 4.36615 80
      vertex -16.9894 -12.3435 80
    endloop
  endfacet
  facet normal 0 0 1
    outer loop
      vertex -10.5 -18.1865 80
      vertex -20.5411 4.36615 80
      vertex -14.0517 -15.606 80
    endloop
  endfacet
  facet normal 0 0 1
    outer loop
      vertex -6.48936 -19.9722 80
      vertex -20.5411 4.36615 80
      vertex -10.5 -18.1865 80
    endloop
  endfacet
  facet normal 0 0 1
    outer loop
      vertex -2.1951 -20.885 80
      vertex -20.5411 4.36615 80
      vertex -6.48936 -19.9722 80
    endloop
  endfacet
  facet normal -0 0 1
    outer loop
      vertex 2.1951 -20.885 80
      vertex -20.5411 4.36615 80
      vertex -2.1951 -20.885 80
    endloop
  endfacet
  facet normal -0 0 1
    outer loop
      vertex 6.48936 -19.9722 80
      vertex -20.5411 4.36615 80
      vertex 2.1951 -20.885 80
    endloop
  endfacet
  facet normal -0 0 1
    outer loop
      vertex 10.5 -18.1865 80
      vertex -20.5411 4.36615 80
      vertex 6.48936 -19.9722 80
    endloop
  endfacet
  facet normal -0 0 1
    outer loop
      vertex 14.0517 -15.606 80
      vertex -20.5411 4.36615 80
      vertex 10.5 -18.1865 80
    endloop
  endfacet
  facet normal -0 0 1
    outer loop
      vertex 16.9894 -12.3435 80
      vertex -20.5411 4.36615 80
      vertex 14.0517 -15.606 80
    endloop
  endfacet
  facet normal -0 0 1
    outer loop
      vertex 19.1845 -8.54147 80
      vertex -20.5411 4.36615 80
      vertex 16.9894 -12.3435 80
    endloop
  endfacet
  facet normal -0 0 1
    outer loop
      vertex 20.5411 -4.36615 80
      vertex -20.5411 4.36615 80
      vertex 19.1845 -8.54147 80
    endloop
  endfacet
  facet normal -0 0 1
    outer loop
      vertex 21 0 80
      vertex -20.5411 4.36615 80
      vertex 20.5411 -4.36615 80
    endloop
  endfacet
  facet normal 0 -0 1
    outer loop
      vertex 20.5411 4.36615 80
      vertex -20.5411 4.36615 80
      vertex 21 0 80
    endloop
  endfacet
  facet normal 0 -0 1
    outer loop
      vertex 19.1845 8.54147 80
      vertex -20.5411 4.36615 80
      vertex 20.5411 4.36615 80
    endloop
  endfacet
  facet normal 0 -0 1
    outer loop
      vertex 16.9894 12.3435 80
      vertex -20.5411 4.36615 80
      vertex 19.1845 8.54147 80
    endloop
  endfacet
  facet normal 0 -0 1
    outer loop
      vertex 14.0517 15.606 80
      vertex -20.5411 4.36615 80
      vertex 16.9894 12.3435 80
    endloop
  endfacet
  facet normal 0 -0 1
    outer loop
      vertex 10.5 18.1865 80
      vertex -20.5411 4.36615 80
      vertex 14.0517 15.606 80
    endloop
  endfacet
  facet normal 0 -0 1
    outer loop
      vertex 6.48936 19.9722 80
      vertex -20.5411 4.36615 80
      vertex 10.5 18.1865 80
    endloop
  endfacet
  facet normal 0 -0 1
    outer loop
      vertex 2.1951 20.885 80
      vertex -20.5411 4.36615 80
      vertex 6.48936 19.9722 80
    endloop
  endfacet
  facet normal 0 -0 1
    outer loop
      vertex -2.1951 20.885 80
      vertex -20.5411 4.36615 80
      vertex 2.1951 20.885 80
    endloop
  endfacet
  facet normal 0 -0 1
    outer loop
      vertex -6.48936 19.9722 80
      vertex -20.5411 4.36615 80
      vertex -2.1951 20.885 80
    endloop
  endfacet
  facet normal 0 -0 1
    outer loop
      vertex -10.5 18.1865 80
      vertex -20.5411 4.36615 80
      vertex -6.48936 19.9722 80
    endloop
  endfacet
  facet normal 0 -0 1
    outer loop
      vertex -14.0517 15.606 80
      vertex -20.5411 4.36615 80
      vertex -10.5 18.1865 80
    endloop
  endfacet
  facet normal 0 -0 1
    outer loop
      vertex -16.9894 12.3435 80
      vertex -20.5411 4.36615 80
      vertex -14.0517 15.606 80
    endloop
  endfacet
  facet normal 0 -0 1
    outer loop
      vertex -19.1845 8.54147 80
      vertex -20.5411 4.36615 80
      vertex -16.9894 12.3435 80
    endloop
  endfacet
endsolid OpenSCAD_Model
