solid Default
  facet normal 0.000000e+00 0.000000e+00 1.000000e+00
    outer loop
      vertex -7.500000e+00 -2.625000e+00 7.500000e+00
      vertex -7.500000e+00 -4.125000e+00 7.500000e+00
      vertex 7.500000e+00 -4.125000e+00 7.500000e+00
    endloop
  endfacet
  facet normal 0.000000e+00 0.000000e+00 1.000000e+00
    outer loop
      vertex -3.000000e+00 -2.625000e+00 7.500000e+00
      vertex -7.500000e+00 -2.625000e+00 7.500000e+00
      vertex 7.500000e+00 -4.125000e+00 7.500000e+00
    endloop
  endfacet
  facet normal 0.000000e+00 0.000000e+00 1.000000e+00
    outer loop
      vertex -1.500000e+00 -2.625000e+00 7.500000e+00
      vertex -3.000000e+00 -2.625000e+00 7.500000e+00
      vertex 7.500000e+00 -4.125000e+00 7.500000e+00
    endloop
  endfacet
  facet normal 0.000000e+00 0.000000e+00 1.000000e+00
    outer loop
      vertex 7.500000e+00 -2.625000e+00 7.500000e+00
      vertex -1.500000e+00 -2.625000e+00 7.500000e+00
      vertex 7.500000e+00 -4.125000e+00 7.500000e+00
    endloop
  endfacet
  facet normal 0.000000e+00 0.000000e+00 1.000000e+00
    outer loop
      vertex -1.500000e+00 4.125000e+00 7.500000e+00
      vertex -7.500000e+00 4.125000e+00 7.500000e+00
      vertex -7.500000e+00 2.625000e+00 7.500000e+00
    endloop
  endfacet
  facet normal 0.000000e+00 0.000000e+00 1.000000e+00
    outer loop
      vertex -1.500000e+00 4.125000e+00 7.500000e+00
      vertex -7.500000e+00 2.625000e+00 7.500000e+00
      vertex -3.000000e+00 2.625000e+00 7.500000e+00
    endloop
  endfacet
  facet normal 0.000000e+00 0.000000e+00 1.000000e+00
    outer loop
      vertex -1.500000e+00 4.125000e+00 7.500000e+00
      vertex -3.000000e+00 -2.625000e+00 7.500000e+00
      vertex -1.500000e+00 -2.625000e+00 7.500000e+00
    endloop
  endfacet
  facet normal 0.000000e+00 0.000000e+00 1.000000e+00
    outer loop
      vertex -3.000000e+00 2.625000e+00 7.500000e+00
      vertex -3.000000e+00 -2.625000e+00 7.500000e+00
      vertex -1.500000e+00 4.125000e+00 7.500000e+00
    endloop
  endfacet
  facet normal 0.000000e+00 -1.000000e+00 0.000000e+00
    outer loop
      vertex 7.500000e+00 -4.125000e+00 7.500000e+00
      vertex -7.500000e+00 -4.125000e+00 7.500000e+00
      vertex -7.500000e+00 -4.125000e+00 6.750000e+00
    endloop
  endfacet
  facet normal 0.000000e+00 -1.000000e+00 0.000000e+00
    outer loop
      vertex -1.500000e+00 -4.125000e+00 6.750000e+00
      vertex 7.500000e+00 -4.125000e+00 7.500000e+00
      vertex -3.000000e+00 -4.125000e+00 6.750000e+00
    endloop
  endfacet
  facet normal 0.000000e+00 -1.000000e+00 0.000000e+00
    outer loop
      vertex -3.000000e+00 -4.125000e+00 6.750000e+00
      vertex 7.500000e+00 -4.125000e+00 7.500000e+00
      vertex -7.500000e+00 -4.125000e+00 6.750000e+00
    endloop
  endfacet
  facet normal 0.000000e+00 -1.000000e+00 0.000000e+00
    outer loop
      vertex -7.500000e+00 -4.125000e+00 0.000000e+00
      vertex -3.000000e+00 -4.125000e+00 7.500000e-01
      vertex -7.500000e+00 -4.125000e+00 7.500000e-01
    endloop
  endfacet
  facet normal 0.000000e+00 -1.000000e+00 0.000000e+00
    outer loop
      vertex 7.500000e+00 -4.125000e+00 0.000000e+00
      vertex -3.000000e+00 -4.125000e+00 7.500000e-01
      vertex -7.500000e+00 -4.125000e+00 0.000000e+00
    endloop
  endfacet
  facet normal 0.000000e+00 -1.000000e+00 0.000000e+00
    outer loop
      vertex -3.000000e+00 -4.125000e+00 7.500000e-01
      vertex -1.500000e+00 -4.125000e+00 6.750000e+00
      vertex -3.000000e+00 -4.125000e+00 6.750000e+00
    endloop
  endfacet
  facet normal 0.000000e+00 -1.000000e+00 0.000000e+00
    outer loop
      vertex 7.500000e+00 -4.125000e+00 0.000000e+00
      vertex 7.500000e+00 -4.125000e+00 7.500000e+00
      vertex 6.500000e+00 -4.125000e+00 6.750000e+00
    endloop
  endfacet
  facet normal 0.000000e+00 -1.000000e+00 0.000000e+00
    outer loop
      vertex 7.500000e+00 -4.125000e+00 0.000000e+00
      vertex 6.500000e+00 -4.125000e+00 6.750000e+00
      vertex 6.500000e+00 -4.125000e+00 7.500000e-01
    endloop
  endfacet
  facet normal 0.000000e+00 -1.000000e+00 0.000000e+00
    outer loop
      vertex 7.500000e+00 -4.125000e+00 0.000000e+00
      vertex -1.500000e+00 -4.125000e+00 7.500000e-01
      vertex -3.000000e+00 -4.125000e+00 7.500000e-01
    endloop
  endfacet
  facet normal 0.000000e+00 -1.000000e+00 0.000000e+00
    outer loop
      vertex 7.500000e+00 -4.125000e+00 0.000000e+00
      vertex 6.500000e+00 -4.125000e+00 7.500000e-01
      vertex -1.500000e+00 -4.125000e+00 7.500000e-01
    endloop
  endfacet
  facet normal 0.000000e+00 -1.000000e+00 0.000000e+00
    outer loop
      vertex -1.500000e+00 -4.125000e+00 6.750000e+00
      vertex 6.500000e+00 -4.125000e+00 6.750000e+00
      vertex 7.500000e+00 -4.125000e+00 7.500000e+00
    endloop
  endfacet
  facet normal 0.000000e+00 -1.000000e+00 0.000000e+00
    outer loop
      vertex -1.500000e+00 -4.125000e+00 7.500000e-01
      vertex -1.500000e+00 -4.125000e+00 6.750000e+00
      vertex -3.000000e+00 -4.125000e+00 7.500000e-01
    endloop
  endfacet
  facet normal -1.000000e+00 -0.000000e+00 -0.000000e+00
    outer loop
      vertex -7.500000e+00 -4.125000e+00 7.500000e+00
      vertex -7.500000e+00 -2.625000e+00 7.500000e+00
      vertex -7.500000e+00 -4.125000e+00 6.750000e+00
    endloop
  endfacet
  facet normal -1.000000e+00 -0.000000e+00 -0.000000e+00
    outer loop
      vertex -7.500000e+00 -3.125000e+00 6.750000e+00
      vertex -7.500000e+00 -2.625000e+00 7.500000e+00
      vertex -7.500000e+00 -2.625000e+00 6.750000e+00
    endloop
  endfacet
  facet normal -1.000000e+00 -0.000000e+00 -0.000000e+00
    outer loop
      vertex -7.500000e+00 -4.125000e+00 6.750000e+00
      vertex -7.500000e+00 -2.625000e+00 7.500000e+00
      vertex -7.500000e+00 -3.625000e+00 6.750000e+00
    endloop
  endfacet
  facet normal -1.000000e+00 -0.000000e+00 -0.000000e+00
    outer loop
      vertex -7.500000e+00 -3.125000e+00 7.500000e-01
      vertex -7.500000e+00 -2.625000e+00 7.500000e-01
      vertex -7.500000e+00 -2.625000e+00 0.000000e+00
    endloop
  endfacet
  facet normal -1.000000e+00 0.000000e+00 0.000000e+00
    outer loop
      vertex -7.500000e+00 -3.125000e+00 7.500000e-01
      vertex -7.500000e+00 -2.625000e+00 0.000000e+00
      vertex -7.500000e+00 -4.125000e+00 0.000000e+00
    endloop
  endfacet
  facet normal -1.000000e+00 0.000000e+00 0.000000e+00
    outer loop
      vertex -7.500000e+00 -3.625000e+00 7.500000e-01
      vertex -7.500000e+00 -4.125000e+00 0.000000e+00
      vertex -7.500000e+00 -4.125000e+00 7.500000e-01
    endloop
  endfacet
  facet normal -1.000000e+00 0.000000e+00 0.000000e+00
    outer loop
      vertex -7.500000e+00 -3.125000e+00 7.500000e-01
      vertex -7.500000e+00 -4.125000e+00 0.000000e+00
      vertex -7.500000e+00 -3.625000e+00 7.500000e-01
    endloop
  endfacet
  facet normal -1.000000e+00 0.000000e+00 0.000000e+00
    outer loop
      vertex -7.500000e+00 -3.125000e+00 6.750000e+00
      vertex -7.500000e+00 -3.125000e+00 7.500000e-01
      vertex -7.500000e+00 -3.625000e+00 6.750000e+00
    endloop
  endfacet
  facet normal -1.000000e+00 0.000000e+00 0.000000e+00
    outer loop
      vertex -7.500000e+00 -3.125000e+00 6.750000e+00
      vertex -7.500000e+00 -3.625000e+00 6.750000e+00
      vertex -7.500000e+00 -2.625000e+00 7.500000e+00
    endloop
  endfacet
  facet normal -1.000000e+00 0.000000e+00 0.000000e+00
    outer loop
      vertex -7.500000e+00 -3.625000e+00 6.750000e+00
      vertex -7.500000e+00 -3.125000e+00 7.500000e-01
      vertex -7.500000e+00 -3.625000e+00 7.500000e-01
    endloop
  endfacet
  facet normal 0.000000e+00 1.000000e+00 0.000000e+00
    outer loop
      vertex -7.500000e+00 -2.625000e+00 7.500000e+00
      vertex -3.000000e+00 -2.625000e+00 7.500000e+00
      vertex -7.500000e+00 -2.625000e+00 6.750000e+00
    endloop
  endfacet
  facet normal 0.000000e+00 1.000000e+00 0.000000e+00
    outer loop
      vertex -7.500000e+00 -2.625000e+00 6.750000e+00
      vertex -3.000000e+00 -2.625000e+00 7.500000e+00
      vertex -3.000000e+00 -2.625000e+00 6.750000e+00
    endloop
  endfacet
  facet normal -1.000000e+00 0.000000e+00 0.000000e+00
    outer loop
      vertex -3.000000e+00 -2.625000e+00 7.500000e+00
      vertex -3.000000e+00 2.625000e+00 7.500000e+00
      vertex -3.000000e+00 -2.625000e+00 6.750000e+00
    endloop
  endfacet
  facet normal -1.000000e+00 0.000000e+00 0.000000e+00
    outer loop
      vertex -3.000000e+00 -2.625000e+00 6.750000e+00
      vertex -3.000000e+00 2.625000e+00 7.500000e+00
      vertex -3.000000e+00 2.625000e+00 6.750000e+00
    endloop
  endfacet
  facet normal -1.000000e+00 -0.000000e+00 -0.000000e+00
    outer loop
      vertex -3.000000e+00 -2.625000e+00 6.750000e+00
      vertex -3.000000e+00 2.625000e+00 6.750000e+00
      vertex -3.000000e+00 2.625000e+00 7.500000e-01
    endloop
  endfacet
  facet normal -1.000000e+00 0.000000e+00 0.000000e+00
    outer loop
      vertex -3.000000e+00 -2.625000e+00 6.750000e+00
      vertex -3.000000e+00 2.625000e+00 7.500000e-01
      vertex -3.000000e+00 2.625000e+00 0.000000e+00
    endloop
  endfacet
  facet normal -1.000000e+00 0.000000e+00 0.000000e+00
    outer loop
      vertex -3.000000e+00 -2.625000e+00 7.500000e-01
      vertex -3.000000e+00 2.625000e+00 0.000000e+00
      vertex -3.000000e+00 -2.625000e+00 0.000000e+00
    endloop
  endfacet
  facet normal -1.000000e+00 -0.000000e+00 -0.000000e+00
    outer loop
      vertex -3.000000e+00 -2.625000e+00 6.750000e+00
      vertex -3.000000e+00 2.625000e+00 0.000000e+00
      vertex -3.000000e+00 -2.625000e+00 7.500000e-01
    endloop
  endfacet
  facet normal 0.000000e+00 -1.000000e+00 0.000000e+00
    outer loop
      vertex -3.000000e+00 2.625000e+00 7.500000e+00
      vertex -7.500000e+00 2.625000e+00 7.500000e+00
      vertex -7.500000e+00 2.625000e+00 6.750000e+00
    endloop
  endfacet
  facet normal 0.000000e+00 -1.000000e+00 0.000000e+00
    outer loop
      vertex -3.000000e+00 2.625000e+00 6.750000e+00
      vertex -3.000000e+00 2.625000e+00 7.500000e+00
      vertex -7.500000e+00 2.625000e+00 6.750000e+00
    endloop
  endfacet
  facet normal -1.000000e+00 -0.000000e+00 -0.000000e+00
    outer loop
      vertex -7.500000e+00 2.625000e+00 7.500000e+00
      vertex -7.500000e+00 4.125000e+00 7.500000e+00
      vertex -7.500000e+00 2.625000e+00 6.750000e+00
    endloop
  endfacet
  facet normal -1.000000e+00 -0.000000e+00 -0.000000e+00
    outer loop
      vertex -7.500000e+00 3.625000e+00 6.750000e+00
      vertex -7.500000e+00 4.125000e+00 7.500000e+00
      vertex -7.500000e+00 4.125000e+00 6.750000e+00
    endloop
  endfacet
  facet normal -1.000000e+00 -0.000000e+00 -0.000000e+00
    outer loop
      vertex -7.500000e+00 2.625000e+00 6.750000e+00
      vertex -7.500000e+00 4.125000e+00 7.500000e+00
      vertex -7.500000e+00 3.125000e+00 6.750000e+00
    endloop
  endfacet
  facet normal -1.000000e+00 -0.000000e+00 -0.000000e+00
    outer loop
      vertex -7.500000e+00 3.625000e+00 7.500000e-01
      vertex -7.500000e+00 4.125000e+00 7.500000e-01
      vertex -7.500000e+00 4.125000e+00 0.000000e+00
    endloop
  endfacet
  facet normal -1.000000e+00 0.000000e+00 0.000000e+00
    outer loop
      vertex -7.500000e+00 3.625000e+00 7.500000e-01
      vertex -7.500000e+00 4.125000e+00 0.000000e+00
      vertex -7.500000e+00 2.625000e+00 0.000000e+00
    endloop
  endfacet
  facet normal -1.000000e+00 0.000000e+00 0.000000e+00
    outer loop
      vertex -7.500000e+00 3.125000e+00 7.500000e-01
      vertex -7.500000e+00 2.625000e+00 0.000000e+00
      vertex -7.500000e+00 2.625000e+00 7.500000e-01
    endloop
  endfacet
  facet normal -1.000000e+00 0.000000e+00 0.000000e+00
    outer loop
      vertex -7.500000e+00 3.625000e+00 7.500000e-01
      vertex -7.500000e+00 2.625000e+00 0.000000e+00
      vertex -7.500000e+00 3.125000e+00 7.500000e-01
    endloop
  endfacet
  facet normal -1.000000e+00 0.000000e+00 0.000000e+00
    outer loop
      vertex -7.500000e+00 3.625000e+00 6.750000e+00
      vertex -7.500000e+00 3.625000e+00 7.500000e-01
      vertex -7.500000e+00 3.125000e+00 6.750000e+00
    endloop
  endfacet
  facet normal -1.000000e+00 0.000000e+00 0.000000e+00
    outer loop
      vertex -7.500000e+00 3.625000e+00 6.750000e+00
      vertex -7.500000e+00 3.125000e+00 6.750000e+00
      vertex -7.500000e+00 4.125000e+00 7.500000e+00
    endloop
  endfacet
  facet normal -1.000000e+00 0.000000e+00 0.000000e+00
    outer loop
      vertex -7.500000e+00 3.125000e+00 6.750000e+00
      vertex -7.500000e+00 3.625000e+00 7.500000e-01
      vertex -7.500000e+00 3.125000e+00 7.500000e-01
    endloop
  endfacet
  facet normal 0.000000e+00 1.000000e+00 0.000000e+00
    outer loop
      vertex -7.500000e+00 4.125000e+00 7.500000e+00
      vertex -1.500000e+00 4.125000e+00 7.500000e+00
      vertex -7.500000e+00 4.125000e+00 6.750000e+00
    endloop
  endfacet
  facet normal 0.000000e+00 1.000000e+00 0.000000e+00
    outer loop
      vertex -3.000000e+00 4.125000e+00 6.750000e+00
      vertex -1.500000e+00 4.125000e+00 7.500000e+00
      vertex -1.500000e+00 4.125000e+00 0.000000e+00
    endloop
  endfacet
  facet normal 0.000000e+00 1.000000e+00 0.000000e+00
    outer loop
      vertex -7.500000e+00 4.125000e+00 7.500000e-01
      vertex -1.500000e+00 4.125000e+00 0.000000e+00
      vertex -7.500000e+00 4.125000e+00 0.000000e+00
    endloop
  endfacet
  facet normal 0.000000e+00 1.000000e+00 0.000000e+00
    outer loop
      vertex -3.000000e+00 4.125000e+00 7.500000e-01
      vertex -1.500000e+00 4.125000e+00 0.000000e+00
      vertex -7.500000e+00 4.125000e+00 7.500000e-01
    endloop
  endfacet
  facet normal 0.000000e+00 1.000000e+00 0.000000e+00
    outer loop
      vertex -7.500000e+00 4.125000e+00 6.750000e+00
      vertex -1.500000e+00 4.125000e+00 7.500000e+00
      vertex -3.000000e+00 4.125000e+00 6.750000e+00
    endloop
  endfacet
  facet normal 0.000000e+00 1.000000e+00 0.000000e+00
    outer loop
      vertex -3.000000e+00 4.125000e+00 6.750000e+00
      vertex -1.500000e+00 4.125000e+00 0.000000e+00
      vertex -3.000000e+00 4.125000e+00 7.500000e-01
    endloop
  endfacet
  facet normal 1.000000e+00 0.000000e+00 0.000000e+00
    outer loop
      vertex -1.500000e+00 4.125000e+00 7.500000e+00
      vertex -1.500000e+00 -2.625000e+00 7.500000e+00
      vertex -1.500000e+00 -2.625000e+00 6.750000e+00
    endloop
  endfacet
  facet normal 1.000000e+00 0.000000e+00 0.000000e+00
    outer loop
      vertex -1.500000e+00 -2.625000e+00 0.000000e+00
      vertex -1.500000e+00 4.125000e+00 7.500000e+00
      vertex -1.500000e+00 -2.625000e+00 7.500000e-01
    endloop
  endfacet
  facet normal 1.000000e+00 0.000000e+00 0.000000e+00
    outer loop
      vertex -1.500000e+00 -2.625000e+00 7.500000e-01
      vertex -1.500000e+00 4.125000e+00 7.500000e+00
      vertex -1.500000e+00 -2.625000e+00 6.750000e+00
    endloop
  endfacet
  facet normal 1.000000e+00 0.000000e+00 0.000000e+00
    outer loop
      vertex -1.500000e+00 4.125000e+00 0.000000e+00
      vertex -1.500000e+00 4.125000e+00 7.500000e+00
      vertex -1.500000e+00 -2.625000e+00 0.000000e+00
    endloop
  endfacet
  facet normal 0.000000e+00 1.000000e+00 0.000000e+00
    outer loop
      vertex -1.500000e+00 -2.625000e+00 7.500000e+00
      vertex 7.500000e+00 -2.625000e+00 7.500000e+00
      vertex -1.500000e+00 -2.625000e+00 6.750000e+00
    endloop
  endfacet
  facet normal 0.000000e+00 1.000000e+00 0.000000e+00
    outer loop
      vertex 6.500000e+00 -2.625000e+00 6.750000e+00
      vertex 7.500000e+00 -2.625000e+00 7.500000e+00
      vertex 6.500000e+00 -2.625000e+00 7.500000e-01
    endloop
  endfacet
  facet normal 0.000000e+00 1.000000e+00 0.000000e+00
    outer loop
      vertex -1.500000e+00 -2.625000e+00 7.500000e-01
      vertex 7.500000e+00 -2.625000e+00 0.000000e+00
      vertex -1.500000e+00 -2.625000e+00 0.000000e+00
    endloop
  endfacet
  facet normal 0.000000e+00 1.000000e+00 0.000000e+00
    outer loop
      vertex 6.500000e+00 -2.625000e+00 7.500000e-01
      vertex 7.500000e+00 -2.625000e+00 0.000000e+00
      vertex -1.500000e+00 -2.625000e+00 7.500000e-01
    endloop
  endfacet
  facet normal 0.000000e+00 1.000000e+00 0.000000e+00
    outer loop
      vertex 7.500000e+00 -2.625000e+00 7.500000e+00
      vertex 7.500000e+00 -2.625000e+00 0.000000e+00
      vertex 6.500000e+00 -2.625000e+00 7.500000e-01
    endloop
  endfacet
  facet normal 0.000000e+00 1.000000e+00 0.000000e+00
    outer loop
      vertex -1.500000e+00 -2.625000e+00 6.750000e+00
      vertex 7.500000e+00 -2.625000e+00 7.500000e+00
      vertex 6.500000e+00 -2.625000e+00 6.750000e+00
    endloop
  endfacet
  facet normal 1.000000e+00 0.000000e+00 0.000000e+00
    outer loop
      vertex 7.500000e+00 -2.625000e+00 7.500000e+00
      vertex 7.500000e+00 -4.125000e+00 7.500000e+00
      vertex 7.500000e+00 -4.125000e+00 0.000000e+00
    endloop
  endfacet
  facet normal 1.000000e+00 0.000000e+00 0.000000e+00
    outer loop
      vertex 7.500000e+00 -2.625000e+00 0.000000e+00
      vertex 7.500000e+00 -2.625000e+00 7.500000e+00
      vertex 7.500000e+00 -4.125000e+00 0.000000e+00
    endloop
  endfacet
  facet normal 0.000000e+00 0.000000e+00 -1.000000e+00
    outer loop
      vertex -7.500000e+00 -4.125000e+00 0.000000e+00
      vertex -7.500000e+00 -2.625000e+00 0.000000e+00
      vertex 7.500000e+00 -4.125000e+00 0.000000e+00
    endloop
  endfacet
  facet normal 0.000000e+00 0.000000e+00 -1.000000e+00
    outer loop
      vertex 7.500000e+00 -4.125000e+00 0.000000e+00
      vertex -7.500000e+00 -2.625000e+00 0.000000e+00
      vertex -3.000000e+00 -2.625000e+00 0.000000e+00
    endloop
  endfacet
  facet normal 0.000000e+00 0.000000e+00 -1.000000e+00
    outer loop
      vertex -1.500000e+00 -2.625000e+00 0.000000e+00
      vertex -3.000000e+00 -2.625000e+00 0.000000e+00
      vertex -3.000000e+00 2.625000e+00 0.000000e+00
    endloop
  endfacet
  facet normal 0.000000e+00 0.000000e+00 -1.000000e+00
    outer loop
      vertex -3.000000e+00 2.625000e+00 0.000000e+00
      vertex -7.500000e+00 2.625000e+00 0.000000e+00
      vertex -7.500000e+00 4.125000e+00 0.000000e+00
    endloop
  endfacet
  facet normal 0.000000e+00 0.000000e+00 -1.000000e+00
    outer loop
      vertex -3.000000e+00 2.625000e+00 0.000000e+00
      vertex -7.500000e+00 4.125000e+00 0.000000e+00
      vertex -1.500000e+00 4.125000e+00 0.000000e+00
    endloop
  endfacet
  facet normal 0.000000e+00 0.000000e+00 -1.000000e+00
    outer loop
      vertex 7.500000e+00 -4.125000e+00 0.000000e+00
      vertex -3.000000e+00 -2.625000e+00 0.000000e+00
      vertex -1.500000e+00 -2.625000e+00 0.000000e+00
    endloop
  endfacet
  facet normal 0.000000e+00 0.000000e+00 -1.000000e+00
    outer loop
      vertex 7.500000e+00 -2.625000e+00 0.000000e+00
      vertex 7.500000e+00 -4.125000e+00 0.000000e+00
      vertex -1.500000e+00 -2.625000e+00 0.000000e+00
    endloop
  endfacet
  facet normal 0.000000e+00 0.000000e+00 -1.000000e+00
    outer loop
      vertex -1.500000e+00 -2.625000e+00 0.000000e+00
      vertex -3.000000e+00 2.625000e+00 0.000000e+00
      vertex -1.500000e+00 4.125000e+00 0.000000e+00
    endloop
  endfacet
  facet normal 0.000000e+00 0.000000e+00 1.000000e+00
    outer loop
      vertex -3.000000e+00 -4.125000e+00 7.500000e-01
      vertex -3.000000e+00 -3.625000e+00 7.500000e-01
      vertex -7.500000e+00 -3.625000e+00 7.500000e-01
    endloop
  endfacet
  facet normal 0.000000e+00 0.000000e+00 1.000000e+00
    outer loop
      vertex -7.500000e+00 -4.125000e+00 7.500000e-01
      vertex -3.000000e+00 -4.125000e+00 7.500000e-01
      vertex -7.500000e+00 -3.625000e+00 7.500000e-01
    endloop
  endfacet
  facet normal -1.000000e+00 0.000000e+00 0.000000e+00
    outer loop
      vertex -3.000000e+00 -3.625000e+00 7.500000e-01
      vertex -3.000000e+00 -4.125000e+00 7.500000e-01
      vertex -3.000000e+00 -3.625000e+00 6.750000e+00
    endloop
  endfacet
  facet normal -1.000000e+00 0.000000e+00 0.000000e+00
    outer loop
      vertex -3.000000e+00 -3.625000e+00 6.750000e+00
      vertex -3.000000e+00 -4.125000e+00 7.500000e-01
      vertex -3.000000e+00 -4.125000e+00 6.750000e+00
    endloop
  endfacet
  facet normal 0.000000e+00 0.000000e+00 -1.000000e+00
    outer loop
      vertex -3.000000e+00 -3.625000e+00 6.750000e+00
      vertex -3.000000e+00 -4.125000e+00 6.750000e+00
      vertex -7.500000e+00 -3.625000e+00 6.750000e+00
    endloop
  endfacet
  facet normal 0.000000e+00 0.000000e+00 -1.000000e+00
    outer loop
      vertex -7.500000e+00 -3.625000e+00 6.750000e+00
      vertex -3.000000e+00 -4.125000e+00 6.750000e+00
      vertex -7.500000e+00 -4.125000e+00 6.750000e+00
    endloop
  endfacet
  facet normal 0.000000e+00 0.000000e+00 -1.000000e+00
    outer loop
      vertex 6.500000e+00 -3.625000e+00 6.750000e+00
      vertex 6.500000e+00 -4.125000e+00 6.750000e+00
      vertex -1.500000e+00 -3.625000e+00 6.750000e+00
    endloop
  endfacet
  facet normal 0.000000e+00 0.000000e+00 -1.000000e+00
    outer loop
      vertex -1.500000e+00 -3.625000e+00 6.750000e+00
      vertex 6.500000e+00 -4.125000e+00 6.750000e+00
      vertex -1.500000e+00 -4.125000e+00 6.750000e+00
    endloop
  endfacet
  facet normal 1.000000e+00 0.000000e+00 0.000000e+00
    outer loop
      vertex -1.500000e+00 -4.125000e+00 7.500000e-01
      vertex -1.500000e+00 -3.625000e+00 7.500000e-01
      vertex -1.500000e+00 -3.625000e+00 6.750000e+00
    endloop
  endfacet
  facet normal 1.000000e+00 0.000000e+00 0.000000e+00
    outer loop
      vertex -1.500000e+00 -4.125000e+00 6.750000e+00
      vertex -1.500000e+00 -4.125000e+00 7.500000e-01
      vertex -1.500000e+00 -3.625000e+00 6.750000e+00
    endloop
  endfacet
  facet normal 0.000000e+00 0.000000e+00 1.000000e+00
    outer loop
      vertex 6.500000e+00 -4.125000e+00 7.500000e-01
      vertex 6.500000e+00 -3.625000e+00 7.500000e-01
      vertex -1.500000e+00 -3.625000e+00 7.500000e-01
    endloop
  endfacet
  facet normal 0.000000e+00 0.000000e+00 1.000000e+00
    outer loop
      vertex -1.500000e+00 -4.125000e+00 7.500000e-01
      vertex 6.500000e+00 -4.125000e+00 7.500000e-01
      vertex -1.500000e+00 -3.625000e+00 7.500000e-01
    endloop
  endfacet
  facet normal -1.000000e+00 0.000000e+00 0.000000e+00
    outer loop
      vertex 6.500000e+00 -3.625000e+00 7.500000e-01
      vertex 6.500000e+00 -4.125000e+00 7.500000e-01
      vertex 6.500000e+00 -3.625000e+00 6.750000e+00
    endloop
  endfacet
  facet normal -1.000000e+00 0.000000e+00 0.000000e+00
    outer loop
      vertex 6.500000e+00 -3.625000e+00 6.750000e+00
      vertex 6.500000e+00 -4.125000e+00 7.500000e-01
      vertex 6.500000e+00 -4.125000e+00 6.750000e+00
    endloop
  endfacet
  facet normal 0.000000e+00 -1.000000e+00 0.000000e+00
    outer loop
      vertex -7.500000e+00 -3.625000e+00 7.500000e-01
      vertex -3.000000e+00 -3.625000e+00 7.500000e-01
      vertex -3.000000e+00 -3.625000e+00 6.750000e+00
    endloop
  endfacet
  facet normal 0.000000e+00 -1.000000e+00 0.000000e+00
    outer loop
      vertex -7.500000e+00 -3.625000e+00 6.750000e+00
      vertex -7.500000e+00 -3.625000e+00 7.500000e-01
      vertex -3.000000e+00 -3.625000e+00 6.750000e+00
    endloop
  endfacet
  facet normal 0.000000e+00 1.000000e+00 0.000000e+00
    outer loop
      vertex -7.500000e+00 -2.625000e+00 7.500000e-01
      vertex -3.000000e+00 -2.625000e+00 7.500000e-01
      vertex -7.500000e+00 -2.625000e+00 0.000000e+00
    endloop
  endfacet
  facet normal 0.000000e+00 1.000000e+00 0.000000e+00
    outer loop
      vertex -7.500000e+00 -2.625000e+00 0.000000e+00
      vertex -3.000000e+00 -2.625000e+00 7.500000e-01
      vertex -3.000000e+00 -2.625000e+00 0.000000e+00
    endloop
  endfacet
  facet normal 0.000000e+00 0.000000e+00 1.000000e+00
    outer loop
      vertex -3.000000e+00 -3.125000e+00 7.500000e-01
      vertex -3.000000e+00 -2.625000e+00 7.500000e-01
      vertex -7.500000e+00 -2.625000e+00 7.500000e-01
    endloop
  endfacet
  facet normal 0.000000e+00 0.000000e+00 1.000000e+00
    outer loop
      vertex -7.500000e+00 -3.125000e+00 7.500000e-01
      vertex -3.000000e+00 -3.125000e+00 7.500000e-01
      vertex -7.500000e+00 -2.625000e+00 7.500000e-01
    endloop
  endfacet
  facet normal 0.000000e+00 1.000000e+00 0.000000e+00
    outer loop
      vertex -3.000000e+00 -3.125000e+00 7.500000e-01
      vertex -7.500000e+00 -3.125000e+00 7.500000e-01
      vertex -3.000000e+00 -3.125000e+00 6.750000e+00
    endloop
  endfacet
  facet normal 0.000000e+00 1.000000e+00 0.000000e+00
    outer loop
      vertex -3.000000e+00 -3.125000e+00 6.750000e+00
      vertex -7.500000e+00 -3.125000e+00 7.500000e-01
      vertex -7.500000e+00 -3.125000e+00 6.750000e+00
    endloop
  endfacet
  facet normal 0.000000e+00 0.000000e+00 -1.000000e+00
    outer loop
      vertex -3.000000e+00 -2.625000e+00 6.750000e+00
      vertex -3.000000e+00 -3.125000e+00 6.750000e+00
      vertex -7.500000e+00 -2.625000e+00 6.750000e+00
    endloop
  endfacet
  facet normal 0.000000e+00 0.000000e+00 -1.000000e+00
    outer loop
      vertex -7.500000e+00 -2.625000e+00 6.750000e+00
      vertex -3.000000e+00 -3.125000e+00 6.750000e+00
      vertex -7.500000e+00 -3.125000e+00 6.750000e+00
    endloop
  endfacet
  facet normal -1.000000e+00 0.000000e+00 0.000000e+00
    outer loop
      vertex -3.000000e+00 -2.625000e+00 7.500000e-01
      vertex -3.000000e+00 -3.125000e+00 7.500000e-01
      vertex -3.000000e+00 -2.625000e+00 6.750000e+00
    endloop
  endfacet
  facet normal -1.000000e+00 0.000000e+00 0.000000e+00
    outer loop
      vertex -3.000000e+00 -2.625000e+00 6.750000e+00
      vertex -3.000000e+00 -3.125000e+00 7.500000e-01
      vertex -3.000000e+00 -3.125000e+00 6.750000e+00
    endloop
  endfacet
  facet normal 0.000000e+00 -1.000000e+00 0.000000e+00
    outer loop
      vertex -3.000000e+00 2.625000e+00 7.500000e-01
      vertex -7.500000e+00 2.625000e+00 7.500000e-01
      vertex -7.500000e+00 2.625000e+00 0.000000e+00
    endloop
  endfacet
  facet normal 0.000000e+00 -1.000000e+00 0.000000e+00
    outer loop
      vertex -3.000000e+00 2.625000e+00 0.000000e+00
      vertex -3.000000e+00 2.625000e+00 7.500000e-01
      vertex -7.500000e+00 2.625000e+00 0.000000e+00
    endloop
  endfacet
  facet normal 0.000000e+00 0.000000e+00 1.000000e+00
    outer loop
      vertex -3.000000e+00 2.625000e+00 7.500000e-01
      vertex -3.000000e+00 3.125000e+00 7.500000e-01
      vertex -7.500000e+00 3.125000e+00 7.500000e-01
    endloop
  endfacet
  facet normal 0.000000e+00 0.000000e+00 1.000000e+00
    outer loop
      vertex -7.500000e+00 2.625000e+00 7.500000e-01
      vertex -3.000000e+00 2.625000e+00 7.500000e-01
      vertex -7.500000e+00 3.125000e+00 7.500000e-01
    endloop
  endfacet
  facet normal -1.000000e+00 0.000000e+00 0.000000e+00
    outer loop
      vertex -3.000000e+00 3.125000e+00 7.500000e-01
      vertex -3.000000e+00 2.625000e+00 7.500000e-01
      vertex -3.000000e+00 3.125000e+00 6.750000e+00
    endloop
  endfacet
  facet normal -1.000000e+00 0.000000e+00 0.000000e+00
    outer loop
      vertex -3.000000e+00 3.125000e+00 6.750000e+00
      vertex -3.000000e+00 2.625000e+00 7.500000e-01
      vertex -3.000000e+00 2.625000e+00 6.750000e+00
    endloop
  endfacet
  facet normal 0.000000e+00 0.000000e+00 -1.000000e+00
    outer loop
      vertex -3.000000e+00 3.125000e+00 6.750000e+00
      vertex -3.000000e+00 2.625000e+00 6.750000e+00
      vertex -7.500000e+00 3.125000e+00 6.750000e+00
    endloop
  endfacet
  facet normal 0.000000e+00 0.000000e+00 -1.000000e+00
    outer loop
      vertex -7.500000e+00 3.125000e+00 6.750000e+00
      vertex -3.000000e+00 2.625000e+00 6.750000e+00
      vertex -7.500000e+00 2.625000e+00 6.750000e+00
    endloop
  endfacet
  facet normal 0.000000e+00 -1.000000e+00 0.000000e+00
    outer loop
      vertex -7.500000e+00 3.125000e+00 7.500000e-01
      vertex -3.000000e+00 3.125000e+00 7.500000e-01
      vertex -3.000000e+00 3.125000e+00 6.750000e+00
    endloop
  endfacet
  facet normal 0.000000e+00 -1.000000e+00 0.000000e+00
    outer loop
      vertex -7.500000e+00 3.125000e+00 6.750000e+00
      vertex -7.500000e+00 3.125000e+00 7.500000e-01
      vertex -3.000000e+00 3.125000e+00 6.750000e+00
    endloop
  endfacet
  facet normal 0.000000e+00 0.000000e+00 1.000000e+00
    outer loop
      vertex -3.000000e+00 3.625000e+00 7.500000e-01
      vertex -3.000000e+00 4.125000e+00 7.500000e-01
      vertex -7.500000e+00 4.125000e+00 7.500000e-01
    endloop
  endfacet
  facet normal 0.000000e+00 0.000000e+00 1.000000e+00
    outer loop
      vertex -7.500000e+00 3.625000e+00 7.500000e-01
      vertex -3.000000e+00 3.625000e+00 7.500000e-01
      vertex -7.500000e+00 4.125000e+00 7.500000e-01
    endloop
  endfacet
  facet normal 0.000000e+00 1.000000e+00 0.000000e+00
    outer loop
      vertex -3.000000e+00 3.625000e+00 7.500000e-01
      vertex -7.500000e+00 3.625000e+00 7.500000e-01
      vertex -3.000000e+00 3.625000e+00 6.750000e+00
    endloop
  endfacet
  facet normal 0.000000e+00 1.000000e+00 0.000000e+00
    outer loop
      vertex -3.000000e+00 3.625000e+00 6.750000e+00
      vertex -7.500000e+00 3.625000e+00 7.500000e-01
      vertex -7.500000e+00 3.625000e+00 6.750000e+00
    endloop
  endfacet
  facet normal 0.000000e+00 0.000000e+00 -1.000000e+00
    outer loop
      vertex -3.000000e+00 4.125000e+00 6.750000e+00
      vertex -3.000000e+00 3.625000e+00 6.750000e+00
      vertex -7.500000e+00 4.125000e+00 6.750000e+00
    endloop
  endfacet
  facet normal 0.000000e+00 0.000000e+00 -1.000000e+00
    outer loop
      vertex -7.500000e+00 4.125000e+00 6.750000e+00
      vertex -3.000000e+00 3.625000e+00 6.750000e+00
      vertex -7.500000e+00 3.625000e+00 6.750000e+00
    endloop
  endfacet
  facet normal -1.000000e+00 0.000000e+00 0.000000e+00
    outer loop
      vertex -3.000000e+00 4.125000e+00 7.500000e-01
      vertex -3.000000e+00 3.625000e+00 7.500000e-01
      vertex -3.000000e+00 4.125000e+00 6.750000e+00
    endloop
  endfacet
  facet normal -1.000000e+00 0.000000e+00 0.000000e+00
    outer loop
      vertex -3.000000e+00 4.125000e+00 6.750000e+00
      vertex -3.000000e+00 3.625000e+00 7.500000e-01
      vertex -3.000000e+00 3.625000e+00 6.750000e+00
    endloop
  endfacet
  facet normal 1.000000e+00 0.000000e+00 0.000000e+00
    outer loop
      vertex -1.500000e+00 -3.125000e+00 7.500000e-01
      vertex -1.500000e+00 -2.625000e+00 7.500000e-01
      vertex -1.500000e+00 -2.625000e+00 6.750000e+00
    endloop
  endfacet
  facet normal 1.000000e+00 0.000000e+00 0.000000e+00
    outer loop
      vertex -1.500000e+00 -3.125000e+00 6.750000e+00
      vertex -1.500000e+00 -3.125000e+00 7.500000e-01
      vertex -1.500000e+00 -2.625000e+00 6.750000e+00
    endloop
  endfacet
  facet normal 0.000000e+00 0.000000e+00 1.000000e+00
    outer loop
      vertex 6.500000e+00 -3.125000e+00 7.500000e-01
      vertex 6.500000e+00 -2.625000e+00 7.500000e-01
      vertex -1.500000e+00 -2.625000e+00 7.500000e-01
    endloop
  endfacet
  facet normal 0.000000e+00 0.000000e+00 1.000000e+00
    outer loop
      vertex -1.500000e+00 -3.125000e+00 7.500000e-01
      vertex 6.500000e+00 -3.125000e+00 7.500000e-01
      vertex -1.500000e+00 -2.625000e+00 7.500000e-01
    endloop
  endfacet
  facet normal 0.000000e+00 0.000000e+00 -1.000000e+00
    outer loop
      vertex 6.500000e+00 -2.625000e+00 6.750000e+00
      vertex 6.500000e+00 -3.125000e+00 6.750000e+00
      vertex -1.500000e+00 -2.625000e+00 6.750000e+00
    endloop
  endfacet
  facet normal 0.000000e+00 0.000000e+00 -1.000000e+00
    outer loop
      vertex -1.500000e+00 -2.625000e+00 6.750000e+00
      vertex 6.500000e+00 -3.125000e+00 6.750000e+00
      vertex -1.500000e+00 -3.125000e+00 6.750000e+00
    endloop
  endfacet
  facet normal -1.000000e+00 0.000000e+00 0.000000e+00
    outer loop
      vertex 6.500000e+00 -2.625000e+00 7.500000e-01
      vertex 6.500000e+00 -3.125000e+00 7.500000e-01
      vertex 6.500000e+00 -2.625000e+00 6.750000e+00
    endloop
  endfacet
  facet normal -1.000000e+00 0.000000e+00 0.000000e+00
    outer loop
      vertex 6.500000e+00 -2.625000e+00 6.750000e+00
      vertex 6.500000e+00 -3.125000e+00 7.500000e-01
      vertex 6.500000e+00 -3.125000e+00 6.750000e+00
    endloop
  endfacet
  facet normal 0.000000e+00 -1.000000e+00 0.000000e+00
    outer loop
      vertex -1.500000e+00 -3.625000e+00 7.500000e-01
      vertex 6.500000e+00 -3.625000e+00 7.500000e-01
      vertex 6.500000e+00 -3.625000e+00 6.750000e+00
    endloop
  endfacet
  facet normal 0.000000e+00 -1.000000e+00 0.000000e+00
    outer loop
      vertex -1.500000e+00 -3.625000e+00 6.750000e+00
      vertex -1.500000e+00 -3.625000e+00 7.500000e-01
      vertex 6.500000e+00 -3.625000e+00 6.750000e+00
    endloop
  endfacet
  facet normal 0.000000e+00 1.000000e+00 0.000000e+00
    outer loop
      vertex 6.500000e+00 -3.125000e+00 7.500000e-01
      vertex -1.500000e+00 -3.125000e+00 7.500000e-01
      vertex 6.500000e+00 -3.125000e+00 6.750000e+00
    endloop
  endfacet
  facet normal 0.000000e+00 1.000000e+00 0.000000e+00
    outer loop
      vertex 6.500000e+00 -3.125000e+00 6.750000e+00
      vertex -1.500000e+00 -3.125000e+00 7.500000e-01
      vertex -1.500000e+00 -3.125000e+00 6.750000e+00
    endloop
  endfacet
endsolid Default
