solid Untitled-546fbff0
facet normal 0.0 0.0 -1.0
  outer loop
    vertex -3.4641016151377455 2.00000000000001 0.0
    vertex 3.4641016151377566 1.9999999999999878 0.0
    vertex 0.0 0.0 0.0
  endloop
endfacet
facet normal 0.0 0.0 -1.0
  outer loop
    vertex 3.4641016151377566 1.9999999999999878 0.0
    vertex -3.4641016151377455 2.00000000000001 0.0
    vertex 3.4641016151377793 5.999999999999989 0.0
  endloop
endfacet
facet normal 0.0 0.0 -1.0
  outer loop
    vertex 3.4641016151377793 5.999999999999989 0.0
    vertex -3.4641016151377455 2.00000000000001 0.0
    vertex -3.464101615137734 6.0000000000000115 0.0
  endloop
endfacet
facet normal 0.0 0.0 -1.0
  outer loop
    vertex 3.4641016151377793 5.999999999999989 0.0
    vertex -3.464101615137734 6.0000000000000115 0.0
    vertex 2.255973186038318e-14 8.000000000000002 0.0
  endloop
endfacet
facet normal -1.0 2.8199664825478967e-15 0.0
  outer loop
    vertex -3.464101615137734 6.0000000000000115 0.0
    vertex -3.4641016151377455 2.00000000000001 3.0000000000000058
    vertex -3.464101615137734 6.0000000000000115 3.0000000000000058
  endloop
endfacet
facet normal -1.0 2.8199664825478967e-15 0.0
  outer loop
    vertex -3.4641016151377455 2.00000000000001 3.0000000000000058
    vertex -3.464101615137734 6.0000000000000115 0.0
    vertex -3.4641016151377455 2.00000000000001 0.0
  endloop
endfacet
facet normal -0.500000000000003 -0.866025403784437 0.0
  outer loop
    vertex 0.0 0.0 0.0
    vertex -3.4641016151377455 2.00000000000001 3.0000000000000058
    vertex -3.4641016151377455 2.00000000000001 0.0
  endloop
endfacet
facet normal -0.500000000000003 -0.866025403784437 0.0
  outer loop
    vertex -3.4641016151377455 2.00000000000001 3.0000000000000058
    vertex 0.0 0.0 0.0
    vertex 0.0 0.0 3.0000000000000058
  endloop
endfacet
facet normal 0.49999999999999745 -0.86602540378444 0.0
  outer loop
    vertex 3.4641016151377566 1.9999999999999878 0.0
    vertex 0.0 0.0 3.0000000000000058
    vertex 0.0 0.0 0.0
  endloop
endfacet
facet normal 0.49999999999999745 -0.86602540378444 0.0
  outer loop
    vertex 0.0 0.0 3.0000000000000058
    vertex 3.4641016151377566 1.9999999999999878 0.0
    vertex 3.4641016151377566 1.9999999999999878 3.0000000000000058
  endloop
endfacet
facet normal 1.0 -5.639932965095793e-15 0.0
  outer loop
    vertex 3.4641016151377566 1.9999999999999878 0.0
    vertex 3.4641016151377793 5.999999999999989 3.0000000000000058
    vertex 3.4641016151377566 1.9999999999999878 3.0000000000000058
  endloop
endfacet
facet normal 1.0 -5.639932965095793e-15 0.0
  outer loop
    vertex 3.4641016151377793 5.999999999999989 3.0000000000000058
    vertex 3.4641016151377566 1.9999999999999878 0.0
    vertex 3.4641016151377793 5.999999999999989 0.0
  endloop
endfacet
facet normal 0.5000000000000022 0.8660254037844374 0.0
  outer loop
    vertex 3.4641016151377793 5.999999999999989 3.0000000000000058
    vertex 2.255973186038318e-14 8.000000000000002 0.0
    vertex 2.255973186038318e-14 8.000000000000002 3.0000000000000058
  endloop
endfacet
facet normal 0.5000000000000022 0.8660254037844374 0.0
  outer loop
    vertex 2.255973186038318e-14 8.000000000000002 0.0
    vertex 3.4641016151377793 5.999999999999989 3.0000000000000058
    vertex 3.4641016151377793 5.999999999999989 0.0
  endloop
endfacet
facet normal -0.49999999999999806 0.8660254037844399 0.0
  outer loop
    vertex 2.255973186038318e-14 8.000000000000002 3.0000000000000058
    vertex -3.464101615137734 6.0000000000000115 0.0
    vertex -3.464101615137734 6.0000000000000115 3.0000000000000058
  endloop
endfacet
facet normal -0.49999999999999806 0.8660254037844399 0.0
  outer loop
    vertex -3.464101615137734 6.0000000000000115 0.0
    vertex 2.255973186038318e-14 8.000000000000002 3.0000000000000058
    vertex 2.255973186038318e-14 8.000000000000002 0.0
  endloop
endfacet
facet normal 0.0 0.0 1.0
  outer loop
    vertex 0.0 0.0 3.0000000000000058
    vertex 0.7372992776415425 1.2483616354579155 2.9999999999999947
    vertex 0.0 1.1512943440870238 2.9999999999999947
  endloop
endfacet
facet normal 0.0 0.0 1.0
  outer loop
    vertex 0.7372992776415425 1.2483616354579155 2.9999999999999947
    vertex 0.0 0.0 3.0000000000000058
    vertex 3.4641016151377566 1.9999999999999878 3.0000000000000058
  endloop
endfacet
facet normal 0.0 0.0 1.0
  outer loop
    vertex 0.7372992776415425 1.2483616354579155 2.9999999999999947
    vertex 3.4641016151377566 1.9999999999999878 3.0000000000000058
    vertex 1.424352827956485 1.532948534074943 2.9999999999999947
  endloop
endfacet
facet normal 0.0 0.0 1.0
  outer loop
    vertex 1.424352827956485 1.532948534074943 2.9999999999999947
    vertex 3.4641016151377566 1.9999999999999878 3.0000000000000058
    vertex 2.014339086900529 1.9856609130994496 2.9999999999999947
  endloop
endfacet
facet normal 0.0 0.0 1.0
  outer loop
    vertex 2.014339086900529 1.9856609130994496 2.9999999999999947
    vertex 3.4641016151377566 1.9999999999999878 3.0000000000000058
    vertex 2.467051465925064 2.575647172043519 2.9999999999999947
  endloop
endfacet
facet normal 0.0 0.0 1.0
  outer loop
    vertex 2.467051465925064 2.575647172043519 2.9999999999999947
    vertex 3.4641016151377566 1.9999999999999878 3.0000000000000058
    vertex 2.751638364542094 3.262700722358425 2.9999999999999947
  endloop
endfacet
facet normal 0.0 0.0 1.0
  outer loop
    vertex 2.751638364542094 3.262700722358425 2.9999999999999947
    vertex 3.4641016151377566 1.9999999999999878 3.0000000000000058
    vertex 3.4641016151377793 5.999999999999989 3.0000000000000058
  endloop
endfacet
facet normal 0.0 0.0 1.0
  outer loop
    vertex 2.751638364542094 3.262700722358425 2.9999999999999947
    vertex 3.4641016151377793 5.999999999999989 3.0000000000000058
    vertex 2.8487056559129815 3.9999999999999925 2.9999999999999947
  endloop
endfacet
facet normal 0.0 0.0 1.0
  outer loop
    vertex 2.8487056559129815 3.9999999999999925 2.9999999999999947
    vertex 3.4641016151377793 5.999999999999989 3.0000000000000058
    vertex 2.751638364542094 4.737299277641546 2.9999999999999947
  endloop
endfacet
facet normal 0.0 0.0 1.0
  outer loop
    vertex 2.751638364542094 4.737299277641546 2.9999999999999947
    vertex 3.4641016151377793 5.999999999999989 3.0000000000000058
    vertex 2.467051465925075 5.424352827956467 2.9999999999999947
  endloop
endfacet
facet normal 0.0 0.0 1.0
  outer loop
    vertex 2.467051465925075 5.424352827956467 2.9999999999999947
    vertex 3.4641016151377793 5.999999999999989 3.0000000000000058
    vertex 2.0143390869005517 6.01433908690053 2.9999999999999947
  endloop
endfacet
facet normal 0.0 0.0 1.0
  outer loop
    vertex 2.0143390869005517 6.01433908690053 2.9999999999999947
    vertex 3.4641016151377793 5.999999999999989 3.0000000000000058
    vertex 2.255973186038318e-14 8.000000000000002 3.0000000000000058
  endloop
endfacet
facet normal 0.0 0.0 1.0
  outer loop
    vertex 2.0143390869005517 6.01433908690053 2.9999999999999947
    vertex 2.255973186038318e-14 8.000000000000002 3.0000000000000058
    vertex 1.4243528279565076 6.467051465925045 2.9999999999999947
  endloop
endfacet
facet normal 0.0 0.0 1.0
  outer loop
    vertex 1.4243528279565076 6.467051465925045 2.9999999999999947
    vertex 2.255973186038318e-14 8.000000000000002 3.0000000000000058
    vertex 0.737299277641565 6.751638364542083 2.9999999999999947
  endloop
endfacet
facet normal 0.0 0.0 1.0
  outer loop
    vertex 0.737299277641565 6.751638364542083 2.9999999999999947
    vertex 2.255973186038318e-14 8.000000000000002 3.0000000000000058
    vertex 2.255973186038318e-14 6.84870565591298 2.9999999999999947
  endloop
endfacet
facet normal 0.0 0.0 1.0
  outer loop
    vertex 0.0 0.0 3.0000000000000058
    vertex -0.7372992776415538 1.2483616354579212 2.9999999999999947
    vertex -3.4641016151377455 2.00000000000001 3.0000000000000058
  endloop
endfacet
facet normal 0.0 0.0 1.0
  outer loop
    vertex -0.7372992776415538 1.2483616354579212 2.9999999999999947
    vertex 0.0 0.0 3.0000000000000058
    vertex 0.0 1.1512943440870238 2.9999999999999947
  endloop
endfacet
facet normal 0.0 0.0 1.0
  outer loop
    vertex -3.4641016151377455 2.00000000000001 3.0000000000000058
    vertex -0.7372992776415538 1.2483616354579212 2.9999999999999947
    vertex -1.4243528279564739 1.5329485340749527 2.9999999999999947
  endloop
endfacet
facet normal 0.0 0.0 1.0
  outer loop
    vertex -3.4641016151377455 2.00000000000001 3.0000000000000058
    vertex -1.4243528279564739 1.5329485340749527 2.9999999999999947
    vertex -2.014339086900529 1.9856609130994722 2.9999999999999947
  endloop
endfacet
facet normal 0.0 0.0 1.0
  outer loop
    vertex -3.4641016151377455 2.00000000000001 3.0000000000000058
    vertex -2.014339086900529 1.9856609130994722 2.9999999999999947
    vertex -2.4670514659250524 2.5756471720435385 2.9999999999999947
  endloop
endfacet
facet normal 0.0 0.0 1.0
  outer loop
    vertex -3.4641016151377455 2.00000000000001 3.0000000000000058
    vertex -2.4670514659250524 2.5756471720435385 2.9999999999999947
    vertex -2.7516383645420714 3.26270072235845 2.9999999999999947
  endloop
endfacet
facet normal 0.0 0.0 1.0
  outer loop
    vertex -3.4641016151377455 2.00000000000001 3.0000000000000058
    vertex -2.7516383645420714 3.26270072235845 2.9999999999999947
    vertex -3.464101615137734 6.0000000000000115 3.0000000000000058
  endloop
endfacet
facet normal 0.0 0.0 1.0
  outer loop
    vertex -3.464101615137734 6.0000000000000115 3.0000000000000058
    vertex -2.7516383645420714 3.26270072235845 2.9999999999999947
    vertex -2.848705655912959 4.00000000000001 2.9999999999999947
  endloop
endfacet
facet normal 0.0 0.0 1.0
  outer loop
    vertex -3.464101615137734 6.0000000000000115 3.0000000000000058
    vertex -2.848705655912959 4.00000000000001 2.9999999999999947
    vertex -2.7516383645420714 4.737299277641575 2.9999999999999947
  endloop
endfacet
facet normal 0.0 0.0 1.0
  outer loop
    vertex -3.464101615137734 6.0000000000000115 3.0000000000000058
    vertex -2.7516383645420714 4.737299277641575 2.9999999999999947
    vertex -2.4670514659250413 5.424352827956481 2.9999999999999947
  endloop
endfacet
facet normal 0.0 0.0 1.0
  outer loop
    vertex -3.464101615137734 6.0000000000000115 3.0000000000000058
    vertex -2.4670514659250413 5.424352827956481 2.9999999999999947
    vertex -2.0143390869005176 6.0143390869005495 2.9999999999999947
  endloop
endfacet
facet normal 0.0 0.0 1.0
  outer loop
    vertex -3.464101615137734 6.0000000000000115 3.0000000000000058
    vertex -2.0143390869005176 6.0143390869005495 2.9999999999999947
    vertex 2.255973186038318e-14 8.000000000000002 3.0000000000000058
  endloop
endfacet
facet normal 0.0 0.0 1.0
  outer loop
    vertex 2.255973186038318e-14 8.000000000000002 3.0000000000000058
    vertex -2.0143390869005176 6.0143390869005495 2.9999999999999947
    vertex -1.4243528279564626 6.467051465925056 2.9999999999999947
  endloop
endfacet
facet normal 0.0 0.0 1.0
  outer loop
    vertex 2.255973186038318e-14 8.000000000000002 3.0000000000000058
    vertex -1.4243528279564626 6.467051465925056 2.9999999999999947
    vertex -0.7372992776415199 6.75163836454209 2.9999999999999947
  endloop
endfacet
facet normal 0.0 0.0 1.0
  outer loop
    vertex 2.255973186038318e-14 8.000000000000002 3.0000000000000058
    vertex -0.7372992776415199 6.75163836454209 2.9999999999999947
    vertex 2.255973186038318e-14 6.84870565591298 2.9999999999999947
  endloop
endfacet
facet normal 0.0 0.0 1.0
  outer loop
    vertex 0.7372992776415425 1.2483616354579155 37.97569999999999
    vertex -0.7372992776415538 1.2483616354579212 37.97569999999999
    vertex 0.0 1.1512943440870238 37.97569999999999
  endloop
endfacet
facet normal 0.0 0.0 1.0
  outer loop
    vertex -0.7372992776415538 1.2483616354579212 37.97569999999999
    vertex 0.7372992776415425 1.2483616354579155 37.97569999999999
    vertex 1.424352827956485 1.532948534074943 37.97569999999999
  endloop
endfacet
facet normal 0.0 0.0 1.0
  outer loop
    vertex -0.7372992776415538 1.2483616354579212 37.97569999999999
    vertex 1.424352827956485 1.532948534074943 37.97569999999999
    vertex -1.4243528279564739 1.5329485340749527 37.97569999999999
  endloop
endfacet
facet normal 0.0 0.0 1.0
  outer loop
    vertex -1.4243528279564739 1.5329485340749527 37.97569999999999
    vertex 1.424352827956485 1.532948534074943 37.97569999999999
    vertex 2.014339086900529 1.9856609130994496 37.97569999999999
  endloop
endfacet
facet normal 0.0 0.0 1.0
  outer loop
    vertex -1.4243528279564739 1.5329485340749527 37.97569999999999
    vertex 2.014339086900529 1.9856609130994496 37.97569999999999
    vertex -2.014339086900529 1.9856609130994722 37.97569999999999
  endloop
endfacet
facet normal 0.0 0.0 1.0
  outer loop
    vertex -2.014339086900529 1.9856609130994722 37.97569999999999
    vertex 2.014339086900529 1.9856609130994496 37.97569999999999
    vertex 2.467051465925064 2.575647172043519 37.97569999999999
  endloop
endfacet
facet normal 0.0 0.0 1.0
  outer loop
    vertex -2.014339086900529 1.9856609130994722 37.97569999999999
    vertex 2.467051465925064 2.575647172043519 37.97569999999999
    vertex -2.4670514659250524 2.5756471720435385 37.97569999999999
  endloop
endfacet
facet normal 0.0 0.0 1.0
  outer loop
    vertex -2.4670514659250524 2.5756471720435385 37.97569999999999
    vertex 2.467051465925064 2.575647172043519 37.97569999999999
    vertex 2.751638364542094 3.262700722358425 37.97569999999999
  endloop
endfacet
facet normal 0.0 0.0 1.0
  outer loop
    vertex -2.4670514659250524 2.5756471720435385 37.97569999999999
    vertex 2.751638364542094 3.262700722358425 37.97569999999999
    vertex -2.7516383645420714 3.26270072235845 37.97569999999999
  endloop
endfacet
facet normal 0.0 0.0 1.0
  outer loop
    vertex -2.7516383645420714 3.26270072235845 37.97569999999999
    vertex 2.751638364542094 3.262700722358425 37.97569999999999
    vertex 2.8487056559129815 3.9999999999999925 37.97569999999999
  endloop
endfacet
facet normal 0.0 0.0 1.0
  outer loop
    vertex -2.7516383645420714 3.26270072235845 37.97569999999999
    vertex 2.8487056559129815 3.9999999999999925 37.97569999999999
    vertex -2.848705655912959 4.00000000000001 37.97569999999999
  endloop
endfacet
facet normal 0.0 0.0 1.0
  outer loop
    vertex -2.848705655912959 4.00000000000001 37.97569999999999
    vertex 2.8487056559129815 3.9999999999999925 37.97569999999999
    vertex 2.751638364542094 4.737299277641546 37.97569999999999
  endloop
endfacet
facet normal 0.0 0.0 1.0
  outer loop
    vertex -2.848705655912959 4.00000000000001 37.97569999999999
    vertex 2.751638364542094 4.737299277641546 37.97569999999999
    vertex -2.7516383645420714 4.737299277641575 37.97569999999999
  endloop
endfacet
facet normal 0.0 0.0 1.0
  outer loop
    vertex -2.7516383645420714 4.737299277641575 37.97569999999999
    vertex 2.751638364542094 4.737299277641546 37.97569999999999
    vertex 2.467051465925075 5.424352827956467 37.97569999999999
  endloop
endfacet
facet normal 0.0 0.0 1.0
  outer loop
    vertex -2.7516383645420714 4.737299277641575 37.97569999999999
    vertex 2.467051465925075 5.424352827956467 37.97569999999999
    vertex -2.4670514659250413 5.424352827956481 37.97569999999999
  endloop
endfacet
facet normal 0.0 0.0 1.0
  outer loop
    vertex -2.4670514659250413 5.424352827956481 37.97569999999999
    vertex 2.467051465925075 5.424352827956467 37.97569999999999
    vertex 2.0143390869005517 6.01433908690053 37.97569999999999
  endloop
endfacet
facet normal 0.0 0.0 1.0
  outer loop
    vertex -2.4670514659250413 5.424352827956481 37.97569999999999
    vertex 2.0143390869005517 6.01433908690053 37.97569999999999
    vertex -2.0143390869005176 6.0143390869005495 37.97569999999999
  endloop
endfacet
facet normal 0.0 0.0 1.0
  outer loop
    vertex -2.0143390869005176 6.0143390869005495 37.97569999999999
    vertex 2.0143390869005517 6.01433908690053 37.97569999999999
    vertex 1.4243528279565076 6.467051465925045 37.97569999999999
  endloop
endfacet
facet normal 0.0 0.0 1.0
  outer loop
    vertex -2.0143390869005176 6.0143390869005495 37.97569999999999
    vertex 1.4243528279565076 6.467051465925045 37.97569999999999
    vertex -1.4243528279564626 6.467051465925056 37.97569999999999
  endloop
endfacet
facet normal 0.0 0.0 1.0
  outer loop
    vertex -1.4243528279564626 6.467051465925056 37.97569999999999
    vertex 1.4243528279565076 6.467051465925045 37.97569999999999
    vertex 0.737299277641565 6.751638364542083 37.97569999999999
  endloop
endfacet
facet normal 0.0 0.0 1.0
  outer loop
    vertex -1.4243528279564626 6.467051465925056 37.97569999999999
    vertex 0.737299277641565 6.751638364542083 37.97569999999999
    vertex -0.7372992776415199 6.75163836454209 37.97569999999999
  endloop
endfacet
facet normal 0.0 0.0 1.0
  outer loop
    vertex -0.7372992776415199 6.75163836454209 37.97569999999999
    vertex 0.737299277641565 6.751638364542083 37.97569999999999
    vertex 2.255973186038318e-14 6.84870565591298 37.97569999999999
  endloop
endfacet
facet normal 0.7071067811865442 -0.7071067811865509 0.0
  outer loop
    vertex 2.014339086900529 1.9856609130994496 2.9999999999999947
    vertex 2.467051465925064 2.575647172043519 37.97569999999999
    vertex 2.014339086900529 1.9856609130994496 37.97569999999999
  endloop
endfacet
facet normal 0.8660254037844334 -0.5000000000000091 0.0
  outer loop
    vertex 2.467051465925064 2.575647172043519 37.97569999999999
    vertex 2.014339086900529 1.9856609130994496 2.9999999999999947
    vertex 2.467051465925064 2.575647172043519 2.9999999999999947
  endloop
endfacet
facet normal 0.7071067811865442 -0.7071067811865509 0.0
  outer loop
    vertex 2.014339086900529 1.9856609130994496 2.9999999999999947
    vertex 1.424352827956485 1.532948534074943 37.97569999999999
    vertex 1.424352827956485 1.532948534074943 2.9999999999999947
  endloop
endfacet
facet normal 0.4999999999999953 -0.8660254037844414 0.0
  outer loop
    vertex 1.424352827956485 1.532948534074943 37.97569999999999
    vertex 2.014339086900529 1.9856609130994496 2.9999999999999947
    vertex 2.014339086900529 1.9856609130994496 37.97569999999999
  endloop
endfacet
facet normal 0.4999999999999953 -0.8660254037844414 0.0
  outer loop
    vertex 1.424352827956485 1.532948534074943 2.9999999999999947
    vertex 0.7372992776415425 1.2483616354579155 37.97569999999999
    vertex 0.7372992776415425 1.2483616354579155 2.9999999999999947
  endloop
endfacet
facet normal 0.2588190451025161 -0.9659258262890695 0.0
  outer loop
    vertex 0.7372992776415425 1.2483616354579155 37.97569999999999
    vertex 1.424352827956485 1.532948534074943 2.9999999999999947
    vertex 1.424352827956485 1.532948534074943 37.97569999999999
  endloop
endfacet
facet normal 0.2588190451025161 -0.9659258262890695 0.0
  outer loop
    vertex 0.7372992776415425 1.2483616354579155 2.9999999999999947
    vertex 0.0 1.1512943440870238 37.97569999999999
    vertex 0.0 1.1512943440870238 2.9999999999999947
  endloop
endfacet
facet normal -2.762444067650541e-15 -1.0 -0.0
  outer loop
    vertex 0.0 1.1512943440870238 37.97569999999999
    vertex 0.7372992776415425 1.2483616354579155 2.9999999999999947
    vertex 0.7372992776415425 1.2483616354579155 37.97569999999999
  endloop
endfacet
facet normal -2.762444067650541e-15 -1.0 -0.0
  outer loop
    vertex 0.0 1.1512943440870238 2.9999999999999947
    vertex -0.7372992776415538 1.2483616354579212 37.97569999999999
    vertex -0.7372992776415538 1.2483616354579212 2.9999999999999947
  endloop
endfacet
facet normal -0.25881904510252685 -0.9659258262890666 -0.0
  outer loop
    vertex -0.7372992776415538 1.2483616354579212 37.97569999999999
    vertex 0.0 1.1512943440870238 2.9999999999999947
    vertex 0.0 1.1512943440870238 37.97569999999999
  endloop
endfacet
facet normal -0.25881904510252685 -0.9659258262890666 -0.0
  outer loop
    vertex -0.7372992776415538 1.2483616354579212 2.9999999999999947
    vertex -1.4243528279564739 1.5329485340749527 37.97569999999999
    vertex -1.4243528279564739 1.5329485340749527 2.9999999999999947
  endloop
endfacet
facet normal -0.5000000000000043 -0.866025403784436 -0.0
  outer loop
    vertex -1.4243528279564739 1.5329485340749527 37.97569999999999
    vertex -0.7372992776415538 1.2483616354579212 2.9999999999999947
    vertex -0.7372992776415538 1.2483616354579212 37.97569999999999
  endloop
endfacet
facet normal -0.5000000000000043 -0.866025403784436 -0.0
  outer loop
    vertex -1.4243528279564739 1.5329485340749527 2.9999999999999947
    vertex -2.014339086900529 1.9856609130994722 37.97569999999999
    vertex -2.014339086900529 1.9856609130994722 2.9999999999999947
  endloop
endfacet
facet normal -0.7071067811865492 -0.7071067811865459 -0.0
  outer loop
    vertex -2.014339086900529 1.9856609130994722 37.97569999999999
    vertex -1.4243528279564739 1.5329485340749527 2.9999999999999947
    vertex -1.4243528279564739 1.5329485340749527 37.97569999999999
  endloop
endfacet
facet normal -0.86602540378444 -0.4999999999999975 -0.0
  outer loop
    vertex -2.4670514659250524 2.5756471720435385 2.9999999999999947
    vertex -2.014339086900529 1.9856609130994722 37.97569999999999
    vertex -2.4670514659250524 2.5756471720435385 37.97569999999999
  endloop
endfacet
facet normal -0.7071067811865492 -0.7071067811865459 -0.0
  outer loop
    vertex -2.014339086900529 1.9856609130994722 37.97569999999999
    vertex -2.4670514659250524 2.5756471720435385 2.9999999999999947
    vertex -2.014339086900529 1.9856609130994722 2.9999999999999947
  endloop
endfacet
facet normal -0.96592582628907 -0.2588190451025145 -0.0
  outer loop
    vertex -2.7516383645420714 3.26270072235845 2.9999999999999947
    vertex -2.4670514659250524 2.5756471720435385 37.97569999999999
    vertex -2.7516383645420714 3.26270072235845 37.97569999999999
  endloop
endfacet
facet normal -0.86602540378444 -0.4999999999999975 -0.0
  outer loop
    vertex -2.4670514659250524 2.5756471720435385 37.97569999999999
    vertex -2.7516383645420714 3.26270072235845 2.9999999999999947
    vertex -2.4670514659250524 2.5756471720435385 2.9999999999999947
  endloop
endfacet
facet normal -1.0 -4.901110442605791e-16 -0.0
  outer loop
    vertex -2.848705655912959 4.00000000000001 2.9999999999999947
    vertex -2.7516383645420714 3.26270072235845 37.97569999999999
    vertex -2.848705655912959 4.00000000000001 37.97569999999999
  endloop
endfacet
facet normal -0.96592582628907 -0.2588190451025145 -0.0
  outer loop
    vertex -2.7516383645420714 3.26270072235845 37.97569999999999
    vertex -2.848705655912959 4.00000000000001 2.9999999999999947
    vertex -2.7516383645420714 3.26270072235845 2.9999999999999947
  endloop
endfacet
facet normal -0.9659258262890679 0.25881904510252224 0.0
  outer loop
    vertex -2.7516383645420714 4.737299277641575 2.9999999999999947
    vertex -2.848705655912959 4.00000000000001 37.97569999999999
    vertex -2.7516383645420714 4.737299277641575 37.97569999999999
  endloop
endfacet
facet normal -1.0 -4.901110442605791e-16 -0.0
  outer loop
    vertex -2.848705655912959 4.00000000000001 37.97569999999999
    vertex -2.7516383645420714 4.737299277641575 2.9999999999999947
    vertex -2.848705655912959 4.00000000000001 2.9999999999999947
  endloop
endfacet
facet normal -0.8660254037844364 0.5000000000000038 0.0
  outer loop
    vertex -2.4670514659250413 5.424352827956481 2.9999999999999947
    vertex -2.7516383645420714 4.737299277641575 37.97569999999999
    vertex -2.4670514659250413 5.424352827956481 37.97569999999999
  endloop
endfacet
facet normal -0.9659258262890679 0.25881904510252224 0.0
  outer loop
    vertex -2.7516383645420714 4.737299277641575 37.97569999999999
    vertex -2.4670514659250413 5.424352827956481 2.9999999999999947
    vertex -2.7516383645420714 4.737299277641575 2.9999999999999947
  endloop
endfacet
facet normal -0.7071067811865452 0.7071067811865499 0.0
  outer loop
    vertex -2.0143390869005176 6.0143390869005495 2.9999999999999947
    vertex -2.4670514659250413 5.424352827956481 37.97569999999999
    vertex -2.0143390869005176 6.0143390869005495 37.97569999999999
  endloop
endfacet
facet normal -0.8660254037844364 0.5000000000000038 0.0
  outer loop
    vertex -2.4670514659250413 5.424352827956481 37.97569999999999
    vertex -2.0143390869005176 6.0143390869005495 2.9999999999999947
    vertex -2.4670514659250413 5.424352827956481 2.9999999999999947
  endloop
endfacet
facet normal -0.49999999999999434 0.8660254037844421 0.0
  outer loop
    vertex -1.4243528279564626 6.467051465925056 37.97569999999999
    vertex -2.0143390869005176 6.0143390869005495 2.9999999999999947
    vertex -2.0143390869005176 6.0143390869005495 37.97569999999999
  endloop
endfacet
facet normal -0.7071067811865452 0.7071067811865499 0.0
  outer loop
    vertex -2.0143390869005176 6.0143390869005495 2.9999999999999947
    vertex -1.4243528279564626 6.467051465925056 37.97569999999999
    vertex -1.4243528279564626 6.467051465925056 2.9999999999999947
  endloop
endfacet
facet normal -0.2588190451025186 0.9659258262890691 0.0
  outer loop
    vertex -0.7372992776415199 6.75163836454209 37.97569999999999
    vertex -1.4243528279564626 6.467051465925056 2.9999999999999947
    vertex -1.4243528279564626 6.467051465925056 37.97569999999999
  endloop
endfacet
facet normal -0.49999999999999434 0.8660254037844421 0.0
  outer loop
    vertex -1.4243528279564626 6.467051465925056 2.9999999999999947
    vertex -0.7372992776415199 6.75163836454209 37.97569999999999
    vertex -0.7372992776415199 6.75163836454209 2.9999999999999947
  endloop
endfacet
facet normal 3.7515772660673476e-15 1.0 0.0
  outer loop
    vertex 2.255973186038318e-14 6.84870565591298 37.97569999999999
    vertex -0.7372992776415199 6.75163836454209 2.9999999999999947
    vertex -0.7372992776415199 6.75163836454209 37.97569999999999
  endloop
endfacet
facet normal -0.2588190451025186 0.9659258262890691 0.0
  outer loop
    vertex -0.7372992776415199 6.75163836454209 2.9999999999999947
    vertex 2.255973186038318e-14 6.84870565591298 37.97569999999999
    vertex 2.255973186038318e-14 6.84870565591298 2.9999999999999947
  endloop
endfacet
facet normal 0.2588190451025256 0.9659258262890672 0.0
  outer loop
    vertex 0.737299277641565 6.751638364542083 37.97569999999999
    vertex 2.255973186038318e-14 6.84870565591298 2.9999999999999947
    vertex 2.255973186038318e-14 6.84870565591298 37.97569999999999
  endloop
endfacet
facet normal 3.7515772660673476e-15 1.0 0.0
  outer loop
    vertex 2.255973186038318e-14 6.84870565591298 2.9999999999999947
    vertex 0.737299277641565 6.751638364542083 37.97569999999999
    vertex 0.737299277641565 6.751638364542083 2.9999999999999947
  endloop
endfacet
facet normal 0.5000000000000053 0.8660254037844358 0.0
  outer loop
    vertex 1.4243528279565076 6.467051465925045 37.97569999999999
    vertex 0.737299277641565 6.751638364542083 2.9999999999999947
    vertex 0.737299277641565 6.751638364542083 37.97569999999999
  endloop
endfacet
facet normal 0.2588190451025256 0.9659258262890672 0.0
  outer loop
    vertex 0.737299277641565 6.751638364542083 2.9999999999999947
    vertex 1.4243528279565076 6.467051465925045 37.97569999999999
    vertex 1.4243528279565076 6.467051465925045 2.9999999999999947
  endloop
endfacet
facet normal 0.70710678118655 0.7071067811865451 0.0
  outer loop
    vertex 2.0143390869005517 6.01433908690053 37.97569999999999
    vertex 1.4243528279565076 6.467051465925045 2.9999999999999947
    vertex 1.4243528279565076 6.467051465925045 37.97569999999999
  endloop
endfacet
facet normal 0.5000000000000053 0.8660254037844358 0.0
  outer loop
    vertex 1.4243528279565076 6.467051465925045 2.9999999999999947
    vertex 2.0143390869005517 6.01433908690053 37.97569999999999
    vertex 2.0143390869005517 6.01433908690053 2.9999999999999947
  endloop
endfacet
facet normal 0.8660254037844408 0.4999999999999966 0.0
  outer loop
    vertex 2.467051465925075 5.424352827956467 2.9999999999999947
    vertex 2.0143390869005517 6.01433908690053 37.97569999999999
    vertex 2.467051465925075 5.424352827956467 37.97569999999999
  endloop
endfacet
facet normal 0.70710678118655 0.7071067811865451 0.0
  outer loop
    vertex 2.0143390869005517 6.01433908690053 37.97569999999999
    vertex 2.467051465925075 5.424352827956467 2.9999999999999947
    vertex 2.0143390869005517 6.01433908690053 2.9999999999999947
  endloop
endfacet
facet normal 0.9659258262890704 0.25881904510251297 0.0
  outer loop
    vertex 2.751638364542094 4.737299277641546 2.9999999999999947
    vertex 2.467051465925075 5.424352827956467 37.97569999999999
    vertex 2.751638364542094 4.737299277641546 37.97569999999999
  endloop
endfacet
facet normal 0.8660254037844408 0.4999999999999966 0.0
  outer loop
    vertex 2.467051465925075 5.424352827956467 37.97569999999999
    vertex 2.751638364542094 4.737299277641546 2.9999999999999947
    vertex 2.467051465925075 5.424352827956467 2.9999999999999947
  endloop
endfacet
facet normal 1.0 1.2386442754949183e-15 0.0
  outer loop
    vertex 2.8487056559129815 3.9999999999999925 2.9999999999999947
    vertex 2.751638364542094 4.737299277641546 37.97569999999999
    vertex 2.8487056559129815 3.9999999999999925 37.97569999999999
  endloop
endfacet
facet normal 0.9659258262890704 0.25881904510251297 0.0
  outer loop
    vertex 2.751638364542094 4.737299277641546 37.97569999999999
    vertex 2.8487056559129815 3.9999999999999925 2.9999999999999947
    vertex 2.751638364542094 4.737299277641546 2.9999999999999947
  endloop
endfacet
facet normal 0.9659258262890681 -0.25881904510252207 0.0
  outer loop
    vertex 2.751638364542094 3.262700722358425 2.9999999999999947
    vertex 2.8487056559129815 3.9999999999999925 37.97569999999999
    vertex 2.751638364542094 3.262700722358425 37.97569999999999
  endloop
endfacet
facet normal 1.0 1.2386442754949183e-15 0.0
  outer loop
    vertex 2.8487056559129815 3.9999999999999925 37.97569999999999
    vertex 2.751638364542094 3.262700722358425 2.9999999999999947
    vertex 2.8487056559129815 3.9999999999999925 2.9999999999999947
  endloop
endfacet
facet normal 0.8660254037844334 -0.5000000000000091 0.0
  outer loop
    vertex 2.467051465925064 2.575647172043519 2.9999999999999947
    vertex 2.751638364542094 3.262700722358425 37.97569999999999
    vertex 2.467051465925064 2.575647172043519 37.97569999999999
  endloop
endfacet
facet normal 0.9659258262890681 -0.25881904510252207 0.0
  outer loop
    vertex 2.751638364542094 3.262700722358425 37.97569999999999
    vertex 2.467051465925064 2.575647172043519 2.9999999999999947
    vertex 2.751638364542094 3.262700722358425 2.9999999999999947
  endloop
endfacet
endsolid Untitled-546fbff0
