solid OBJECT
  facet normal 0.000000e+000 0.000000e+000 -1.000000e+000
    outer loop
      vertex 9.426415e-001 0.000000e+000 -6.676137e-001
      vertex -4.713207e-001 -8.163515e-001 -6.676137e-001
      vertex -4.713207e-001 8.163515e-001 -6.676137e-001
    endloop
  endfacet
  facet normal -9.847478e-001 0.000000e+000 1.739877e-001
    outer loop
      vertex -4.713207e-001 8.163515e-001 -6.676137e-001
      vertex -4.713207e-001 -8.163515e-001 -6.676137e-001
      vertex 0.000000e+000 0.000000e+000 2.000000e+000
    endloop
  endfacet
  facet normal 4.923739e-001 8.528166e-001 1.739877e-001
    outer loop
      vertex 0.000000e+000 0.000000e+000 2.000000e+000
      vertex 9.426415e-001 0.000000e+000 -6.676137e-001
      vertex -4.713207e-001 8.163515e-001 -6.676137e-001
    endloop
  endfacet
  facet normal 4.923739e-001 -8.528166e-001 1.739877e-001
    outer loop
      vertex 9.426415e-001 0.000000e+000 -6.676137e-001
      vertex 0.000000e+000 0.000000e+000 2.000000e+000
      vertex -4.713207e-001 -8.163515e-001 -6.676137e-001
    endloop
  endfacet
endsolid OBJECT
