solid CATIA STL
  facet normal  0.000000e+000  1.000000e+000  0.000000e+000
    outer loop
      vertex -3.756900e+000  3.750000e+000 -6.138247e+000
      vertex -4.929386e+000  3.750000e+000 -6.243875e+000
      vertex -4.924372e+000  3.750000e+000 -6.015317e+000
    endloop
  endfacet
  facet normal  0.000000e+000  1.000000e+000  0.000000e+000
    outer loop
      vertex -8.774294e+000  3.750000e+000 -7.840162e+000
      vertex -6.869063e+000  3.750000e+000 -8.877695e+000
      vertex -7.147843e+000  3.750000e+000 -8.848042e+000
    endloop
  endfacet
  facet normal  0.000000e+000  1.000000e+000  0.000000e+000
    outer loop
      vertex -8.774294e+000  3.750000e+000 -7.840162e+000
      vertex -7.147843e+000  3.750000e+000 -8.848042e+000
      vertex -7.421550e+000  3.750000e+000 -8.787364e+000
    endloop
  endfacet
  facet normal  0.000000e+000  1.000000e+000  0.000000e+000
    outer loop
      vertex -8.774294e+000  3.750000e+000 -7.840162e+000
      vertex -7.421550e+000  3.750000e+000 -8.787364e+000
      vertex -7.686741e+000  3.750000e+000 -8.696421e+000
    endloop
  endfacet
  facet normal  0.000000e+000  1.000000e+000  0.000000e+000
    outer loop
      vertex -8.774294e+000  3.750000e+000 -7.840162e+000
      vertex -7.686741e+000  3.750000e+000 -8.696421e+000
      vertex -7.940084e+000  3.750000e+000 -8.576357e+000
    endloop
  endfacet
  facet normal  0.000000e+000  1.000000e+000  0.000000e+000
    outer loop
      vertex -8.774294e+000  3.750000e+000 -7.840162e+000
      vertex -7.940084e+000  3.750000e+000 -8.576357e+000
      vertex -8.178390e+000  3.750000e+000 -8.428683e+000
    endloop
  endfacet
  facet normal  0.000000e+000  9.999999e-001  0.000000e+000
    outer loop
      vertex -8.774294e+000  3.750000e+000 -7.840162e+000
      vertex -8.178390e+000  3.750000e+000 -8.428683e+000
      vertex -8.398664e+000  3.750000e+000 -8.255256e+000
    endloop
  endfacet
  facet normal  0.000000e+000  1.000000e+000  0.000000e+000
    outer loop
      vertex -8.774294e+000  3.750000e+000 -7.840162e+000
      vertex -8.398664e+000  3.750000e+000 -8.255256e+000
      vertex -8.598134e+000  3.750000e+000 -8.058256e+000
    endloop
  endfacet
  facet normal  0.000000e+000  1.000000e+000  0.000000e+000
    outer loop
      vertex -6.405938e+000  3.750000e+000 -7.756951e+000
      vertex -6.181142e+000  3.750000e+000 -7.715358e+000
      vertex -4.204165e+000  3.750000e+000 -7.727920e+000
    endloop
  endfacet
  facet normal  0.000000e+000  1.000000e+000  0.000000e+000
    outer loop
      vertex -6.405938e+000  3.750000e+000 -7.756951e+000
      vertex -4.204165e+000  3.750000e+000 -7.727920e+000
      vertex -4.377592e+000  3.750000e+000 -7.948194e+000
    endloop
  endfacet
  facet normal  0.000000e+000  1.000000e+000  0.000000e+000
    outer loop
      vertex -6.405938e+000  3.750000e+000 -7.756951e+000
      vertex -4.377592e+000  3.750000e+000 -7.948194e+000
      vertex -4.574591e+000  3.750000e+000 -8.147664e+000
    endloop
  endfacet
  facet normal  0.000000e+000  1.000000e+000  0.000000e+000
    outer loop
      vertex -6.405938e+000  3.750000e+000 -7.756951e+000
      vertex -4.574591e+000  3.750000e+000 -8.147664e+000
      vertex -4.792686e+000  3.750000e+000 -8.323824e+000
    endloop
  endfacet
  facet normal  0.000000e+000  1.000000e+000  0.000000e+000
    outer loop
      vertex -6.405938e+000  3.750000e+000 -7.756951e+000
      vertex -4.792686e+000  3.750000e+000 -8.323824e+000
      vertex -5.029132e+000  3.750000e+000 -8.474457e+000
    endloop
  endfacet
  facet normal  0.000000e+000  1.000000e+000  0.000000e+000
    outer loop
      vertex -6.405938e+000  3.750000e+000 -7.756951e+000
      vertex -5.029132e+000  3.750000e+000 -8.474457e+000
      vertex -5.280958e+000  3.750000e+000 -8.597670e+000
    endloop
  endfacet
  facet normal  0.000000e+000  1.000000e+000  0.000000e+000
    outer loop
      vertex -6.405938e+000  3.750000e+000 -7.756951e+000
      vertex -5.280958e+000  3.750000e+000 -8.597670e+000
      vertex -5.544995e+000  3.750000e+000 -8.691912e+000
    endloop
  endfacet
  facet normal  0.000000e+000  1.000000e+000  0.000000e+000
    outer loop
      vertex -6.405938e+000  3.750000e+000 -7.756951e+000
      vertex -5.544995e+000  3.750000e+000 -8.691912e+000
      vertex -5.817924e+000  3.750000e+000 -8.755999e+000
    endloop
  endfacet
  facet normal  0.000000e+000  1.000000e+000  0.000000e+000
    outer loop
      vertex -6.405938e+000  3.750000e+000 -7.756951e+000
      vertex -5.817924e+000  3.750000e+000 -8.755999e+000
      vertex -6.310328e+000  3.750000e+000 -8.842822e+000
    endloop
  endfacet
  facet normal  0.000000e+000  1.000000e+000  0.000000e+000
    outer loop
      vertex -1.019653e+001  3.750000e+000 -1.200000e+000
      vertex -4.611684e+000  3.750000e+000 -1.200000e+000
      vertex -6.560840e+000  3.750000e+000 -4.418352e+000
    endloop
  endfacet
  facet normal  0.000000e+000  9.999999e-001  0.000000e+000
    outer loop
      vertex -1.019653e+001  3.750000e+000 -1.200000e+000
      vertex -6.560840e+000  3.750000e+000 -4.418352e+000
      vertex -6.789207e+000  3.750000e+000 -4.428947e+000
    endloop
  endfacet
  facet normal  0.000000e+000  1.000000e+000  0.000000e+000
    outer loop
      vertex -1.019653e+001  3.750000e+000 -1.200000e+000
      vertex -6.789207e+000  3.750000e+000 -4.428947e+000
      vertex -7.014003e+000  3.750000e+000 -4.470541e+000
    endloop
  endfacet
  facet normal  0.000000e+000  1.000000e+000  0.000000e+000
    outer loop
      vertex -1.019653e+001  3.750000e+000 -1.200000e+000
      vertex -7.014003e+000  3.750000e+000 -4.470541e+000
      vertex -7.231042e+000  3.750000e+000 -4.542356e+000
    endloop
  endfacet
  facet normal  0.000000e+000  1.000000e+000  0.000000e+000
    outer loop
      vertex -1.019653e+001  3.750000e+000 -1.200000e+000
      vertex -7.231042e+000  3.750000e+000 -4.542356e+000
      vertex -7.436281e+000  3.750000e+000 -4.643055e+000
    endloop
  endfacet
  facet normal  0.000000e+000  1.000000e+000  0.000000e+000
    outer loop
      vertex -1.019653e+001  3.750000e+000 -1.200000e+000
      vertex -7.436281e+000  3.750000e+000 -4.643055e+000
      vertex -7.625896e+000  3.750000e+000 -4.770764e+000
    endloop
  endfacet
  facet normal  0.000000e+000  1.000000e+000  0.000000e+000
    outer loop
      vertex -1.019653e+001  3.750000e+000 -1.200000e+000
      vertex -7.625896e+000  3.750000e+000 -4.770764e+000
      vertex -7.796356e+000  3.750000e+000 -4.923102e+000
    endloop
  endfacet
  facet normal  0.000000e+000  1.000000e+000  0.000000e+000
    outer loop
      vertex -1.019653e+001  3.750000e+000 -1.200000e+000
      vertex -7.796356e+000  3.750000e+000 -4.923102e+000
      vertex -7.944485e+000  3.750000e+000 -5.097233e+000
    endloop
  endfacet
  facet normal  0.000000e+000  1.000000e+000  0.000000e+000
    outer loop
      vertex -1.019653e+001  3.750000e+000 -1.200000e+000
      vertex -7.944485e+000  3.750000e+000 -5.097233e+000
      vertex -9.206468e+000  3.750000e+000 -6.814923e+000
    endloop
  endfacet
  facet normal  0.000000e+000  1.000000e+000  0.000000e+000
    outer loop
      vertex -9.206468e+000  3.750000e+000 -6.814923e+000
      vertex -7.944485e+000  3.750000e+000 -5.097233e+000
      vertex -8.067523e+000  3.750000e+000 -5.289911e+000
    endloop
  endfacet
  facet normal  0.000000e+000  1.000000e+000  0.000000e+000
    outer loop
      vertex -9.206468e+000  3.750000e+000 -6.814923e+000
      vertex -8.067523e+000  3.750000e+000 -5.289911e+000
      vertex -8.163178e+000  3.750000e+000 -5.497550e+000
    endloop
  endfacet
  facet normal  0.000000e+000  1.000000e+000  0.000000e+000
    outer loop
      vertex -9.206468e+000  3.750000e+000 -6.814923e+000
      vertex -8.163178e+000  3.750000e+000 -5.497550e+000
      vertex -8.229671e+000  3.750000e+000 -5.716278e+000
    endloop
  endfacet
  facet normal  0.000000e+000  1.000000e+000  0.000000e+000
    outer loop
      vertex -9.206468e+000  3.750000e+000 -6.814923e+000
      vertex -8.229671e+000  3.750000e+000 -5.716278e+000
      vertex -8.265759e+000  3.750000e+000 -5.942024e+000
    endloop
  endfacet
  facet normal  0.000000e+000  1.000000e+000  0.000000e+000
    outer loop
      vertex -9.206468e+000  3.750000e+000 -6.814923e+000
      vertex -8.265759e+000  3.750000e+000 -5.942024e+000
      vertex -8.270772e+000  3.750000e+000 -6.170581e+000
    endloop
  endfacet
  facet normal  0.000000e+000  1.000000e+000  0.000000e+000
    outer loop
      vertex -9.206468e+000  3.750000e+000 -6.814923e+000
      vertex -8.270772e+000  3.750000e+000 -6.170581e+000
      vertex -8.244617e+000  3.750000e+000 -6.397692e+000
    endloop
  endfacet
  facet normal  0.000000e+000  1.000000e+000  0.000000e+000
    outer loop
      vertex -9.206468e+000  3.750000e+000 -6.814923e+000
      vertex -8.244617e+000  3.750000e+000 -6.397692e+000
      vertex -8.187780e+000  3.750000e+000 -6.619126e+000
    endloop
  endfacet
  facet normal  0.000000e+000  1.000000e+000  0.000000e+000
    outer loop
      vertex -9.206468e+000  3.750000e+000 -6.814923e+000
      vertex -8.187780e+000  3.750000e+000 -6.619126e+000
      vertex -8.101321e+000  3.750000e+000 -6.830759e+000
    endloop
  endfacet
  facet normal  0.000000e+000  1.000000e+000  0.000000e+000
    outer loop
      vertex -9.206468e+000  3.750000e+000 -6.814923e+000
      vertex -8.101321e+000  3.750000e+000 -6.830759e+000
      vertex -7.986851e+000  3.750000e+000 -7.028647e+000
    endloop
  endfacet
  facet normal  0.000000e+000  1.000000e+000  0.000000e+000
    outer loop
      vertex -9.206468e+000  3.750000e+000 -6.814923e+000
      vertex -7.986851e+000  3.750000e+000 -7.028647e+000
      vertex -9.142381e+000  3.750000e+000 -7.087852e+000
    endloop
  endfacet
  facet normal  0.000000e+000  9.999999e-001  0.000000e+000
    outer loop
      vertex -8.774294e+000  3.750000e+000 -7.840162e+000
      vertex -8.924927e+000  3.750000e+000 -7.603715e+000
      vertex -7.298425e+000  3.750000e+000 -7.614275e+000
    endloop
  endfacet
  facet normal  0.000000e+000  1.000000e+000  0.000000e+000
    outer loop
      vertex -8.774294e+000  3.750000e+000 -7.840162e+000
      vertex -7.298425e+000  3.750000e+000 -7.614275e+000
      vertex -7.084743e+000  3.750000e+000 -7.695538e+000
    endloop
  endfacet
  facet normal  0.000000e+000  1.000000e+000  0.000000e+000
    outer loop
      vertex -8.774294e+000  3.750000e+000 -7.840162e+000
      vertex -7.084743e+000  3.750000e+000 -7.695538e+000
      vertex -6.861987e+000  3.750000e+000 -7.746947e+000
    endloop
  endfacet
  facet normal  0.000000e+000  9.999999e-001  0.000000e+000
    outer loop
      vertex -8.774294e+000  3.750000e+000 -7.840162e+000
      vertex -6.861987e+000  3.750000e+000 -7.746947e+000
      vertex -6.634305e+000  3.750000e+000 -7.767547e+000
    endloop
  endfacet
  facet normal  0.000000e+000  9.999999e-001  0.000000e+000
    outer loop
      vertex -3.790025e+000  3.750000e+000 -5.859859e+000
      vertex -3.756900e+000  3.750000e+000 -6.138247e+000
      vertex -4.924372e+000  3.750000e+000 -6.015317e+000
    endloop
  endfacet
  facet normal  0.000000e+000  1.000000e+000  -0.000000e+000
    outer loop
      vertex -3.790025e+000  3.750000e+000 -5.859859e+000
      vertex -4.924372e+000  3.750000e+000 -6.015317e+000
      vertex -4.950527e+000  3.750000e+000 -5.788207e+000
    endloop
  endfacet
  facet normal  -0.000000e+000  1.000000e+000  -0.000000e+000
    outer loop
      vertex -3.790025e+000  3.750000e+000 -5.859859e+000
      vertex -4.950527e+000  3.750000e+000 -5.788207e+000
      vertex -5.007364e+000  3.750000e+000 -5.566772e+000
    endloop
  endfacet
  facet normal  -0.000000e+000  9.999999e-001  -0.000000e+000
    outer loop
      vertex -3.790025e+000  3.750000e+000 -5.859859e+000
      vertex -5.007364e+000  3.750000e+000 -5.566772e+000
      vertex -5.093823e+000  3.750000e+000 -5.355140e+000
    endloop
  endfacet
  facet normal  -0.000000e+000  9.999999e-001  -0.000000e+000
    outer loop
      vertex -3.790025e+000  3.750000e+000 -5.859859e+000
      vertex -5.093823e+000  3.750000e+000 -5.355140e+000
      vertex -5.208294e+000  3.750000e+000 -5.157251e+000
    endloop
  endfacet
  facet normal  -0.000000e+000  1.000000e+000  -0.000000e+000
    outer loop
      vertex -3.790025e+000  3.750000e+000 -5.859859e+000
      vertex -5.208294e+000  3.750000e+000 -5.157251e+000
      vertex -5.348645e+000  3.750000e+000 -4.976793e+000
    endloop
  endfacet
  facet normal  -0.000000e+000  1.000000e+000  -0.000000e+000
    outer loop
      vertex -3.790025e+000  3.750000e+000 -5.859859e+000
      vertex -5.348645e+000  3.750000e+000 -4.976793e+000
      vertex -5.512260e+000  3.750000e+000 -4.817127e+000
    endloop
  endfacet
  facet normal  -0.000000e+000  1.000000e+000  -0.000000e+000
    outer loop
      vertex -3.790025e+000  3.750000e+000 -5.859859e+000
      vertex -5.512260e+000  3.750000e+000 -4.817127e+000
      vertex -5.696094e+000  3.750000e+000 -4.681227e+000
    endloop
  endfacet
  facet normal  0.000000e+000  1.000000e+000  0.000000e+000
    outer loop
      vertex -4.611684e+000  3.750000e+000 -1.200000e+000
      vertex -3.790025e+000  3.750000e+000 -5.859859e+000
      vertex -5.696094e+000  3.750000e+000 -4.681227e+000
    endloop
  endfacet
  facet normal  0.000000e+000  1.000000e+000  -0.000000e+000
    outer loop
      vertex -4.611684e+000  3.750000e+000 -1.200000e+000
      vertex -5.696094e+000  3.750000e+000 -4.681227e+000
      vertex -5.896719e+000  3.750000e+000 -4.571624e+000
    endloop
  endfacet
  facet normal  0.000000e+000  1.000000e+000  -0.000000e+000
    outer loop
      vertex -4.611684e+000  3.750000e+000 -1.200000e+000
      vertex -5.896719e+000  3.750000e+000 -4.571624e+000
      vertex -6.110401e+000  3.750000e+000 -4.490361e+000
    endloop
  endfacet
  facet normal  0.000000e+000  1.000000e+000  -0.000000e+000
    outer loop
      vertex -4.611684e+000  3.750000e+000 -1.200000e+000
      vertex -6.110401e+000  3.750000e+000 -4.490361e+000
      vertex -6.333158e+000  3.750000e+000 -4.438951e+000
    endloop
  endfacet
  facet normal  0.000000e+000  1.000000e+000  -0.000000e+000
    outer loop
      vertex -4.611684e+000  3.750000e+000 -1.200000e+000
      vertex -6.333158e+000  3.750000e+000 -4.438951e+000
      vertex -6.560840e+000  3.750000e+000 -4.418352e+000
    endloop
  endfacet
  facet normal  0.000000e+000  1.000000e+000  0.000000e+000
    outer loop
      vertex -6.405938e+000  3.750000e+000 -7.756951e+000
      vertex -6.310328e+000  3.750000e+000 -8.842822e+000
      vertex -6.634305e+000  3.750000e+000 -7.767547e+000
    endloop
  endfacet
  facet normal  0.000000e+000  9.999999e-001  0.000000e+000
    outer loop
      vertex -6.634305e+000  3.750000e+000 -7.767547e+000
      vertex -6.310328e+000  3.750000e+000 -8.842822e+000
      vertex -6.588717e+000  3.750000e+000 -8.875948e+000
    endloop
  endfacet
  facet normal  0.000000e+000  1.000000e+000  0.000000e+000
    outer loop
      vertex -6.634305e+000  3.750000e+000 -7.767547e+000
      vertex -6.588717e+000  3.750000e+000 -8.875948e+000
      vertex -8.774294e+000  3.750000e+000 -7.840162e+000
    endloop
  endfacet
  facet normal  0.000000e+000  1.000000e+000  0.000000e+000
    outer loop
      vertex -8.774294e+000  3.750000e+000 -7.840162e+000
      vertex -6.588717e+000  3.750000e+000 -8.875948e+000
      vertex -6.869063e+000  3.750000e+000 -8.877695e+000
    endloop
  endfacet
  facet normal  0.000000e+000  1.000000e+000  0.000000e+000
    outer loop
      vertex -9.142381e+000  3.750000e+000 -7.087852e+000
      vertex -7.986851e+000  3.750000e+000 -7.028647e+000
      vertex -9.048139e+000  3.750000e+000 -7.351890e+000
    endloop
  endfacet
  facet normal  0.000000e+000  1.000000e+000  0.000000e+000
    outer loop
      vertex -9.048139e+000  3.750000e+000 -7.351890e+000
      vertex -7.986851e+000  3.750000e+000 -7.028647e+000
      vertex -7.846500e+000  3.750000e+000 -7.209105e+000
    endloop
  endfacet
  facet normal  0.000000e+000  1.000000e+000  0.000000e+000
    outer loop
      vertex -9.048139e+000  3.750000e+000 -7.351890e+000
      vertex -7.846500e+000  3.750000e+000 -7.209105e+000
      vertex -7.682884e+000  3.750000e+000 -7.368772e+000
    endloop
  endfacet
  facet normal  0.000000e+000  1.000000e+000  0.000000e+000
    outer loop
      vertex -9.048139e+000  3.750000e+000 -7.351890e+000
      vertex -7.682884e+000  3.750000e+000 -7.368772e+000
      vertex -8.924927e+000  3.750000e+000 -7.603715e+000
    endloop
  endfacet
  facet normal  0.000000e+000  1.000000e+000  0.000000e+000
    outer loop
      vertex -8.924927e+000  3.750000e+000 -7.603715e+000
      vertex -7.682884e+000  3.750000e+000 -7.368772e+000
      vertex -7.499051e+000  3.750000e+000 -7.504672e+000
    endloop
  endfacet
  facet normal  0.000000e+000  1.000000e+000  0.000000e+000
    outer loop
      vertex -8.924927e+000  3.750000e+000 -7.603715e+000
      vertex -7.499051e+000  3.750000e+000 -7.504672e+000
      vertex -7.298425e+000  3.750000e+000 -7.614275e+000
    endloop
  endfacet
  facet normal  0.000000e+000  1.000000e+000  0.000000e+000
    outer loop
      vertex -4.929386e+000  3.750000e+000 -6.243875e+000
      vertex -3.756900e+000  3.750000e+000 -6.138247e+000
      vertex -4.965474e+000  3.750000e+000 -6.469620e+000
    endloop
  endfacet
  facet normal  0.000000e+000  1.000000e+000  0.000000e+000
    outer loop
      vertex -4.965474e+000  3.750000e+000 -6.469620e+000
      vertex -3.756900e+000  3.750000e+000 -6.138247e+000
      vertex -3.755152e+000  3.750000e+000 -6.418593e+000
    endloop
  endfacet
  facet normal  0.000000e+000  1.000000e+000  0.000000e+000
    outer loop
      vertex -4.965474e+000  3.750000e+000 -6.469620e+000
      vertex -3.755152e+000  3.750000e+000 -6.418593e+000
      vertex -5.031966e+000  3.750000e+000 -6.688349e+000
    endloop
  endfacet
  facet normal  -0.000000e+000  1.000000e+000  0.000000e+000
    outer loop
      vertex -5.031966e+000  3.750000e+000 -6.688349e+000
      vertex -3.755152e+000  3.750000e+000 -6.418593e+000
      vertex -3.784805e+000  3.750000e+000 -6.697373e+000
    endloop
  endfacet
  facet normal  0.000000e+000  1.000000e+000  0.000000e+000
    outer loop
      vertex -5.031966e+000  3.750000e+000 -6.688349e+000
      vertex -3.784805e+000  3.750000e+000 -6.697373e+000
      vertex -5.127622e+000  3.750000e+000 -6.895987e+000
    endloop
  endfacet
  facet normal  -0.000000e+000  1.000000e+000  0.000000e+000
    outer loop
      vertex -5.127622e+000  3.750000e+000 -6.895987e+000
      vertex -3.784805e+000  3.750000e+000 -6.697373e+000
      vertex -3.845484e+000  3.750000e+000 -6.971080e+000
    endloop
  endfacet
  facet normal  0.000000e+000  1.000000e+000  0.000000e+000
    outer loop
      vertex -5.127622e+000  3.750000e+000 -6.895987e+000
      vertex -3.845484e+000  3.750000e+000 -6.971080e+000
      vertex -5.250659e+000  3.750000e+000 -7.088666e+000
    endloop
  endfacet
  facet normal  -0.000000e+000  1.000000e+000  0.000000e+000
    outer loop
      vertex -5.250659e+000  3.750000e+000 -7.088666e+000
      vertex -3.845484e+000  3.750000e+000 -6.971080e+000
      vertex -3.936427e+000  3.750000e+000 -7.236272e+000
    endloop
  endfacet
  facet normal  0.000000e+000  1.000000e+000  0.000000e+000
    outer loop
      vertex -5.250659e+000  3.750000e+000 -7.088666e+000
      vertex -3.936427e+000  3.750000e+000 -7.236272e+000
      vertex -5.398788e+000  3.750000e+000 -7.262796e+000
    endloop
  endfacet
  facet normal  0.000000e+000  1.000000e+000  0.000000e+000
    outer loop
      vertex -5.398788e+000  3.750000e+000 -7.262796e+000
      vertex -3.936427e+000  3.750000e+000 -7.236272e+000
      vertex -5.569248e+000  3.750000e+000 -7.415134e+000
    endloop
  endfacet
  facet normal  -0.000000e+000  1.000000e+000  0.000000e+000
    outer loop
      vertex -5.569248e+000  3.750000e+000 -7.415134e+000
      vertex -3.936427e+000  3.750000e+000 -7.236272e+000
      vertex -4.056491e+000  3.750000e+000 -7.489614e+000
    endloop
  endfacet
  facet normal  0.000000e+000  1.000000e+000  0.000000e+000
    outer loop
      vertex -5.569248e+000  3.750000e+000 -7.415134e+000
      vertex -4.056491e+000  3.750000e+000 -7.489614e+000
      vertex -5.758863e+000  3.750000e+000 -7.542843e+000
    endloop
  endfacet
  facet normal  0.000000e+000  9.999999e-001  0.000000e+000
    outer loop
      vertex -5.758863e+000  3.750000e+000 -7.542843e+000
      vertex -4.056491e+000  3.750000e+000 -7.489614e+000
      vertex -5.964102e+000  3.750000e+000 -7.643543e+000
    endloop
  endfacet
  facet normal  -0.000000e+000  1.000000e+000  0.000000e+000
    outer loop
      vertex -5.964102e+000  3.750000e+000 -7.643543e+000
      vertex -4.056491e+000  3.750000e+000 -7.489614e+000
      vertex -4.204165e+000  3.750000e+000 -7.727920e+000
    endloop
  endfacet
  facet normal  0.000000e+000  1.000000e+000  0.000000e+000
    outer loop
      vertex -5.964102e+000  3.750000e+000 -7.643543e+000
      vertex -4.204165e+000  3.750000e+000 -7.727920e+000
      vertex -6.181142e+000  3.750000e+000 -7.715358e+000
    endloop
  endfacet
  facet normal  9.848078e-001  0.000000e+000  1.736481e-001
    outer loop
      vertex -4.611684e+000 -3.750000e+000 -1.200000e+000
      vertex -3.790025e+000 -3.750000e+000 -5.859859e+000
      vertex -4.611684e+000  3.750000e+000 -1.200000e+000
    endloop
  endfacet
  facet normal  9.848078e-001  0.000000e+000  1.736481e-001
    outer loop
      vertex -4.611684e+000  3.750000e+000 -1.200000e+000
      vertex -3.790025e+000 -3.750000e+000 -5.859859e+000
      vertex -3.790025e+000  3.750000e+000 -5.859859e+000
    endloop
  endfacet
  facet normal  0.000000e+000 -1.000000e+000  0.000000e+000
    outer loop
      vertex -4.924372e+000 -3.750000e+000 -6.015317e+000
      vertex -4.929386e+000 -3.750000e+000 -6.243875e+000
      vertex -3.756900e+000 -3.750000e+000 -6.138247e+000
    endloop
  endfacet
  facet normal  0.000000e+000 -1.000000e+000  0.000000e+000
    outer loop
      vertex -8.774294e+000 -3.750000e+000 -7.840162e+000
      vertex -8.598134e+000 -3.750000e+000 -8.058256e+000
      vertex -8.398664e+000 -3.750000e+000 -8.255256e+000
    endloop
  endfacet
  facet normal  0.000000e+000 -9.999999e-001  0.000000e+000
    outer loop
      vertex -8.774294e+000 -3.750000e+000 -7.840162e+000
      vertex -8.398664e+000 -3.750000e+000 -8.255256e+000
      vertex -8.178390e+000 -3.750000e+000 -8.428683e+000
    endloop
  endfacet
  facet normal  0.000000e+000 -1.000000e+000  0.000000e+000
    outer loop
      vertex -8.774294e+000 -3.750000e+000 -7.840162e+000
      vertex -8.178390e+000 -3.750000e+000 -8.428683e+000
      vertex -7.940084e+000 -3.750000e+000 -8.576357e+000
    endloop
  endfacet
  facet normal  0.000000e+000 -1.000000e+000  0.000000e+000
    outer loop
      vertex -8.774294e+000 -3.750000e+000 -7.840162e+000
      vertex -7.940084e+000 -3.750000e+000 -8.576357e+000
      vertex -7.686741e+000 -3.750000e+000 -8.696421e+000
    endloop
  endfacet
  facet normal  0.000000e+000 -1.000000e+000  0.000000e+000
    outer loop
      vertex -8.774294e+000 -3.750000e+000 -7.840162e+000
      vertex -7.686741e+000 -3.750000e+000 -8.696421e+000
      vertex -7.421550e+000 -3.750000e+000 -8.787364e+000
    endloop
  endfacet
  facet normal  0.000000e+000 -1.000000e+000  0.000000e+000
    outer loop
      vertex -8.774294e+000 -3.750000e+000 -7.840162e+000
      vertex -7.421550e+000 -3.750000e+000 -8.787364e+000
      vertex -7.147843e+000 -3.750000e+000 -8.848042e+000
    endloop
  endfacet
  facet normal  0.000000e+000 -1.000000e+000  0.000000e+000
    outer loop
      vertex -8.774294e+000 -3.750000e+000 -7.840162e+000
      vertex -7.147843e+000 -3.750000e+000 -8.848042e+000
      vertex -6.869063e+000 -3.750000e+000 -8.877695e+000
    endloop
  endfacet
  facet normal  0.000000e+000 -1.000000e+000  0.000000e+000
    outer loop
      vertex -6.405938e+000 -3.750000e+000 -7.756951e+000
      vertex -6.310328e+000 -3.750000e+000 -8.842822e+000
      vertex -5.817924e+000 -3.750000e+000 -8.755999e+000
    endloop
  endfacet
  facet normal  0.000000e+000 -1.000000e+000  0.000000e+000
    outer loop
      vertex -6.405938e+000 -3.750000e+000 -7.756951e+000
      vertex -5.817924e+000 -3.750000e+000 -8.755999e+000
      vertex -5.544995e+000 -3.750000e+000 -8.691912e+000
    endloop
  endfacet
  facet normal  0.000000e+000 -1.000000e+000  0.000000e+000
    outer loop
      vertex -6.405938e+000 -3.750000e+000 -7.756951e+000
      vertex -5.544995e+000 -3.750000e+000 -8.691912e+000
      vertex -5.280958e+000 -3.750000e+000 -8.597670e+000
    endloop
  endfacet
  facet normal  0.000000e+000 -1.000000e+000  0.000000e+000
    outer loop
      vertex -6.405938e+000 -3.750000e+000 -7.756951e+000
      vertex -5.280958e+000 -3.750000e+000 -8.597670e+000
      vertex -5.029132e+000 -3.750000e+000 -8.474457e+000
    endloop
  endfacet
  facet normal  0.000000e+000 -1.000000e+000  0.000000e+000
    outer loop
      vertex -6.405938e+000 -3.750000e+000 -7.756951e+000
      vertex -5.029132e+000 -3.750000e+000 -8.474457e+000
      vertex -4.792686e+000 -3.750000e+000 -8.323824e+000
    endloop
  endfacet
  facet normal  0.000000e+000 -1.000000e+000  0.000000e+000
    outer loop
      vertex -6.405938e+000 -3.750000e+000 -7.756951e+000
      vertex -4.792686e+000 -3.750000e+000 -8.323824e+000
      vertex -4.574591e+000 -3.750000e+000 -8.147664e+000
    endloop
  endfacet
  facet normal  0.000000e+000 -1.000000e+000  0.000000e+000
    outer loop
      vertex -6.405938e+000 -3.750000e+000 -7.756951e+000
      vertex -4.574591e+000 -3.750000e+000 -8.147664e+000
      vertex -4.377592e+000 -3.750000e+000 -7.948194e+000
    endloop
  endfacet
  facet normal  0.000000e+000 -1.000000e+000  0.000000e+000
    outer loop
      vertex -6.405938e+000 -3.750000e+000 -7.756951e+000
      vertex -4.377592e+000 -3.750000e+000 -7.948194e+000
      vertex -4.204165e+000 -3.750000e+000 -7.727920e+000
    endloop
  endfacet
  facet normal  -0.000000e+000 -1.000000e+000  0.000000e+000
    outer loop
      vertex -6.405938e+000 -3.750000e+000 -7.756951e+000
      vertex -4.204165e+000 -3.750000e+000 -7.727920e+000
      vertex -6.181142e+000 -3.750000e+000 -7.715358e+000
    endloop
  endfacet
  facet normal  0.000000e+000 -1.000000e+000  0.000000e+000
    outer loop
      vertex -1.019653e+001 -3.750000e+000 -1.200000e+000
      vertex -9.206468e+000 -3.750000e+000 -6.814923e+000
      vertex -7.944485e+000 -3.750000e+000 -5.097233e+000
    endloop
  endfacet
  facet normal  0.000000e+000 -1.000000e+000  0.000000e+000
    outer loop
      vertex -1.019653e+001 -3.750000e+000 -1.200000e+000
      vertex -7.944485e+000 -3.750000e+000 -5.097233e+000
      vertex -7.796356e+000 -3.750000e+000 -4.923102e+000
    endloop
  endfacet
  facet normal  0.000000e+000 -1.000000e+000  0.000000e+000
    outer loop
      vertex -1.019653e+001 -3.750000e+000 -1.200000e+000
      vertex -7.796356e+000 -3.750000e+000 -4.923102e+000
      vertex -7.625896e+000 -3.750000e+000 -4.770764e+000
    endloop
  endfacet
  facet normal  0.000000e+000 -1.000000e+000  0.000000e+000
    outer loop
      vertex -1.019653e+001 -3.750000e+000 -1.200000e+000
      vertex -7.625896e+000 -3.750000e+000 -4.770764e+000
      vertex -7.436281e+000 -3.750000e+000 -4.643055e+000
    endloop
  endfacet
  facet normal  0.000000e+000 -1.000000e+000  0.000000e+000
    outer loop
      vertex -1.019653e+001 -3.750000e+000 -1.200000e+000
      vertex -7.436281e+000 -3.750000e+000 -4.643055e+000
      vertex -7.231042e+000 -3.750000e+000 -4.542356e+000
    endloop
  endfacet
  facet normal  0.000000e+000 -1.000000e+000  0.000000e+000
    outer loop
      vertex -1.019653e+001 -3.750000e+000 -1.200000e+000
      vertex -7.231042e+000 -3.750000e+000 -4.542356e+000
      vertex -7.014003e+000 -3.750000e+000 -4.470541e+000
    endloop
  endfacet
  facet normal  0.000000e+000 -1.000000e+000  0.000000e+000
    outer loop
      vertex -1.019653e+001 -3.750000e+000 -1.200000e+000
      vertex -7.014003e+000 -3.750000e+000 -4.470541e+000
      vertex -6.789207e+000 -3.750000e+000 -4.428947e+000
    endloop
  endfacet
  facet normal  0.000000e+000 -9.999999e-001  0.000000e+000
    outer loop
      vertex -1.019653e+001 -3.750000e+000 -1.200000e+000
      vertex -6.789207e+000 -3.750000e+000 -4.428947e+000
      vertex -6.560840e+000 -3.750000e+000 -4.418352e+000
    endloop
  endfacet
  facet normal  0.000000e+000 -1.000000e+000  0.000000e+000
    outer loop
      vertex -1.019653e+001 -3.750000e+000 -1.200000e+000
      vertex -6.560840e+000 -3.750000e+000 -4.418352e+000
      vertex -4.611684e+000 -3.750000e+000 -1.200000e+000
    endloop
  endfacet
  facet normal  0.000000e+000 -1.000000e+000  0.000000e+000
    outer loop
      vertex -9.206468e+000 -3.750000e+000 -6.814923e+000
      vertex -9.142381e+000 -3.750000e+000 -7.087852e+000
      vertex -7.986851e+000 -3.750000e+000 -7.028647e+000
    endloop
  endfacet
  facet normal  0.000000e+000 -1.000000e+000  0.000000e+000
    outer loop
      vertex -9.206468e+000 -3.750000e+000 -6.814923e+000
      vertex -7.986851e+000 -3.750000e+000 -7.028647e+000
      vertex -8.101321e+000 -3.750000e+000 -6.830759e+000
    endloop
  endfacet
  facet normal  0.000000e+000 -1.000000e+000  0.000000e+000
    outer loop
      vertex -9.206468e+000 -3.750000e+000 -6.814923e+000
      vertex -8.101321e+000 -3.750000e+000 -6.830759e+000
      vertex -8.187780e+000 -3.750000e+000 -6.619126e+000
    endloop
  endfacet
  facet normal  -0.000000e+000 -1.000000e+000  0.000000e+000
    outer loop
      vertex -9.206468e+000 -3.750000e+000 -6.814923e+000
      vertex -8.187780e+000 -3.750000e+000 -6.619126e+000
      vertex -8.244617e+000 -3.750000e+000 -6.397692e+000
    endloop
  endfacet
  facet normal  -0.000000e+000 -1.000000e+000  0.000000e+000
    outer loop
      vertex -9.206468e+000 -3.750000e+000 -6.814923e+000
      vertex -8.244617e+000 -3.750000e+000 -6.397692e+000
      vertex -8.270772e+000 -3.750000e+000 -6.170581e+000
    endloop
  endfacet
  facet normal  -0.000000e+000 -1.000000e+000  0.000000e+000
    outer loop
      vertex -9.206468e+000 -3.750000e+000 -6.814923e+000
      vertex -8.270772e+000 -3.750000e+000 -6.170581e+000
      vertex -8.265759e+000 -3.750000e+000 -5.942024e+000
    endloop
  endfacet
  facet normal  -0.000000e+000 -1.000000e+000  0.000000e+000
    outer loop
      vertex -9.206468e+000 -3.750000e+000 -6.814923e+000
      vertex -8.265759e+000 -3.750000e+000 -5.942024e+000
      vertex -8.229671e+000 -3.750000e+000 -5.716278e+000
    endloop
  endfacet
  facet normal  -0.000000e+000 -1.000000e+000  0.000000e+000
    outer loop
      vertex -9.206468e+000 -3.750000e+000 -6.814923e+000
      vertex -8.229671e+000 -3.750000e+000 -5.716278e+000
      vertex -8.163178e+000 -3.750000e+000 -5.497550e+000
    endloop
  endfacet
  facet normal  -0.000000e+000 -1.000000e+000  0.000000e+000
    outer loop
      vertex -9.206468e+000 -3.750000e+000 -6.814923e+000
      vertex -8.163178e+000 -3.750000e+000 -5.497550e+000
      vertex -8.067523e+000 -3.750000e+000 -5.289911e+000
    endloop
  endfacet
  facet normal  -0.000000e+000 -1.000000e+000  0.000000e+000
    outer loop
      vertex -9.206468e+000 -3.750000e+000 -6.814923e+000
      vertex -8.067523e+000 -3.750000e+000 -5.289911e+000
      vertex -7.944485e+000 -3.750000e+000 -5.097233e+000
    endloop
  endfacet
  facet normal  -0.000000e+000 -9.999999e-001  0.000000e+000
    outer loop
      vertex -8.774294e+000 -3.750000e+000 -7.840162e+000
      vertex -6.634305e+000 -3.750000e+000 -7.767547e+000
      vertex -6.861987e+000 -3.750000e+000 -7.746947e+000
    endloop
  endfacet
  facet normal  -0.000000e+000 -1.000000e+000  0.000000e+000
    outer loop
      vertex -8.774294e+000 -3.750000e+000 -7.840162e+000
      vertex -6.861987e+000 -3.750000e+000 -7.746947e+000
      vertex -7.084743e+000 -3.750000e+000 -7.695538e+000
    endloop
  endfacet
  facet normal  -0.000000e+000 -1.000000e+000  0.000000e+000
    outer loop
      vertex -8.774294e+000 -3.750000e+000 -7.840162e+000
      vertex -7.084743e+000 -3.750000e+000 -7.695538e+000
      vertex -7.298425e+000 -3.750000e+000 -7.614275e+000
    endloop
  endfacet
  facet normal  -0.000000e+000 -9.999999e-001  0.000000e+000
    outer loop
      vertex -8.774294e+000 -3.750000e+000 -7.840162e+000
      vertex -7.298425e+000 -3.750000e+000 -7.614275e+000
      vertex -8.924927e+000 -3.750000e+000 -7.603715e+000
    endloop
  endfacet
  facet normal  0.000000e+000 -1.000000e+000  0.000000e+000
    outer loop
      vertex -3.790025e+000 -3.750000e+000 -5.859859e+000
      vertex -5.696094e+000 -3.750000e+000 -4.681227e+000
      vertex -5.512260e+000 -3.750000e+000 -4.817127e+000
    endloop
  endfacet
  facet normal  0.000000e+000 -1.000000e+000  0.000000e+000
    outer loop
      vertex -3.790025e+000 -3.750000e+000 -5.859859e+000
      vertex -5.512260e+000 -3.750000e+000 -4.817127e+000
      vertex -5.348645e+000 -3.750000e+000 -4.976793e+000
    endloop
  endfacet
  facet normal  0.000000e+000 -1.000000e+000  0.000000e+000
    outer loop
      vertex -3.790025e+000 -3.750000e+000 -5.859859e+000
      vertex -5.348645e+000 -3.750000e+000 -4.976793e+000
      vertex -5.208294e+000 -3.750000e+000 -5.157251e+000
    endloop
  endfacet
  facet normal  0.000000e+000 -9.999999e-001  0.000000e+000
    outer loop
      vertex -3.790025e+000 -3.750000e+000 -5.859859e+000
      vertex -5.208294e+000 -3.750000e+000 -5.157251e+000
      vertex -5.093823e+000 -3.750000e+000 -5.355140e+000
    endloop
  endfacet
  facet normal  0.000000e+000 -9.999999e-001  0.000000e+000
    outer loop
      vertex -3.790025e+000 -3.750000e+000 -5.859859e+000
      vertex -5.093823e+000 -3.750000e+000 -5.355140e+000
      vertex -5.007364e+000 -3.750000e+000 -5.566772e+000
    endloop
  endfacet
  facet normal  0.000000e+000 -1.000000e+000  0.000000e+000
    outer loop
      vertex -3.790025e+000 -3.750000e+000 -5.859859e+000
      vertex -5.007364e+000 -3.750000e+000 -5.566772e+000
      vertex -4.950527e+000 -3.750000e+000 -5.788207e+000
    endloop
  endfacet
  facet normal  0.000000e+000 -1.000000e+000  0.000000e+000
    outer loop
      vertex -3.790025e+000 -3.750000e+000 -5.859859e+000
      vertex -4.950527e+000 -3.750000e+000 -5.788207e+000
      vertex -4.924372e+000 -3.750000e+000 -6.015317e+000
    endloop
  endfacet
  facet normal  0.000000e+000 -9.999999e-001  0.000000e+000
    outer loop
      vertex -3.790025e+000 -3.750000e+000 -5.859859e+000
      vertex -4.924372e+000 -3.750000e+000 -6.015317e+000
      vertex -3.756900e+000 -3.750000e+000 -6.138247e+000
    endloop
  endfacet
  facet normal  0.000000e+000 -1.000000e+000  0.000000e+000
    outer loop
      vertex -4.611684e+000 -3.750000e+000 -1.200000e+000
      vertex -6.560840e+000 -3.750000e+000 -4.418352e+000
      vertex -6.333158e+000 -3.750000e+000 -4.438951e+000
    endloop
  endfacet
  facet normal  0.000000e+000 -1.000000e+000  0.000000e+000
    outer loop
      vertex -4.611684e+000 -3.750000e+000 -1.200000e+000
      vertex -6.333158e+000 -3.750000e+000 -4.438951e+000
      vertex -6.110401e+000 -3.750000e+000 -4.490361e+000
    endloop
  endfacet
  facet normal  0.000000e+000 -1.000000e+000  0.000000e+000
    outer loop
      vertex -4.611684e+000 -3.750000e+000 -1.200000e+000
      vertex -6.110401e+000 -3.750000e+000 -4.490361e+000
      vertex -5.896719e+000 -3.750000e+000 -4.571624e+000
    endloop
  endfacet
  facet normal  0.000000e+000 -1.000000e+000  0.000000e+000
    outer loop
      vertex -4.611684e+000 -3.750000e+000 -1.200000e+000
      vertex -5.896719e+000 -3.750000e+000 -4.571624e+000
      vertex -5.696094e+000 -3.750000e+000 -4.681227e+000
    endloop
  endfacet
  facet normal  0.000000e+000 -1.000000e+000  0.000000e+000
    outer loop
      vertex -4.611684e+000 -3.750000e+000 -1.200000e+000
      vertex -5.696094e+000 -3.750000e+000 -4.681227e+000
      vertex -3.790025e+000 -3.750000e+000 -5.859859e+000
    endloop
  endfacet
  facet normal  0.000000e+000 -1.000000e+000  -0.000000e+000
    outer loop
      vertex -6.310328e+000 -3.750000e+000 -8.842822e+000
      vertex -6.405938e+000 -3.750000e+000 -7.756951e+000
      vertex -6.588717e+000 -3.750000e+000 -8.875948e+000
    endloop
  endfacet
  facet normal  0.000000e+000 -1.000000e+000  0.000000e+000
    outer loop
      vertex -6.588717e+000 -3.750000e+000 -8.875948e+000
      vertex -6.405938e+000 -3.750000e+000 -7.756951e+000
      vertex -6.634305e+000 -3.750000e+000 -7.767547e+000
    endloop
  endfacet
  facet normal  0.000000e+000 -1.000000e+000  -0.000000e+000
    outer loop
      vertex -6.588717e+000 -3.750000e+000 -8.875948e+000
      vertex -6.634305e+000 -3.750000e+000 -7.767547e+000
      vertex -6.869063e+000 -3.750000e+000 -8.877695e+000
    endloop
  endfacet
  facet normal  0.000000e+000 -9.999999e-001  0.000000e+000
    outer loop
      vertex -6.869063e+000 -3.750000e+000 -8.877695e+000
      vertex -6.634305e+000 -3.750000e+000 -7.767547e+000
      vertex -8.774294e+000 -3.750000e+000 -7.840162e+000
    endloop
  endfacet
  facet normal  0.000000e+000 -1.000000e+000  0.000000e+000
    outer loop
      vertex -7.986851e+000 -3.750000e+000 -7.028647e+000
      vertex -9.142381e+000 -3.750000e+000 -7.087852e+000
      vertex -7.846500e+000 -3.750000e+000 -7.209105e+000
    endloop
  endfacet
  facet normal  -0.000000e+000 -1.000000e+000  0.000000e+000
    outer loop
      vertex -7.846500e+000 -3.750000e+000 -7.209105e+000
      vertex -9.142381e+000 -3.750000e+000 -7.087852e+000
      vertex -9.048139e+000 -3.750000e+000 -7.351890e+000
    endloop
  endfacet
  facet normal  0.000000e+000 -1.000000e+000  0.000000e+000
    outer loop
      vertex -7.846500e+000 -3.750000e+000 -7.209105e+000
      vertex -9.048139e+000 -3.750000e+000 -7.351890e+000
      vertex -7.682884e+000 -3.750000e+000 -7.368772e+000
    endloop
  endfacet
  facet normal  0.000000e+000 -1.000000e+000  0.000000e+000
    outer loop
      vertex -7.682884e+000 -3.750000e+000 -7.368772e+000
      vertex -9.048139e+000 -3.750000e+000 -7.351890e+000
      vertex -7.499051e+000 -3.750000e+000 -7.504672e+000
    endloop
  endfacet
  facet normal  -0.000000e+000 -1.000000e+000  0.000000e+000
    outer loop
      vertex -7.499051e+000 -3.750000e+000 -7.504672e+000
      vertex -9.048139e+000 -3.750000e+000 -7.351890e+000
      vertex -8.924927e+000 -3.750000e+000 -7.603715e+000
    endloop
  endfacet
  facet normal  0.000000e+000 -1.000000e+000  0.000000e+000
    outer loop
      vertex -7.499051e+000 -3.750000e+000 -7.504672e+000
      vertex -8.924927e+000 -3.750000e+000 -7.603715e+000
      vertex -7.298425e+000 -3.750000e+000 -7.614275e+000
    endloop
  endfacet
  facet normal  0.000000e+000 -1.000000e+000  0.000000e+000
    outer loop
      vertex -3.756900e+000 -3.750000e+000 -6.138247e+000
      vertex -4.929386e+000 -3.750000e+000 -6.243875e+000
      vertex -3.755152e+000 -3.750000e+000 -6.418593e+000
    endloop
  endfacet
  facet normal  -0.000000e+000 -1.000000e+000  0.000000e+000
    outer loop
      vertex -3.755152e+000 -3.750000e+000 -6.418593e+000
      vertex -4.929386e+000 -3.750000e+000 -6.243875e+000
      vertex -4.965474e+000 -3.750000e+000 -6.469620e+000
    endloop
  endfacet
  facet normal  0.000000e+000 -1.000000e+000  0.000000e+000
    outer loop
      vertex -3.755152e+000 -3.750000e+000 -6.418593e+000
      vertex -4.965474e+000 -3.750000e+000 -6.469620e+000
      vertex -3.784805e+000 -3.750000e+000 -6.697373e+000
    endloop
  endfacet
  facet normal  0.000000e+000 -1.000000e+000  0.000000e+000
    outer loop
      vertex -3.784805e+000 -3.750000e+000 -6.697373e+000
      vertex -4.965474e+000 -3.750000e+000 -6.469620e+000
      vertex -5.031966e+000 -3.750000e+000 -6.688349e+000
    endloop
  endfacet
  facet normal  0.000000e+000 -1.000000e+000  0.000000e+000
    outer loop
      vertex -3.784805e+000 -3.750000e+000 -6.697373e+000
      vertex -5.031966e+000 -3.750000e+000 -6.688349e+000
      vertex -3.845484e+000 -3.750000e+000 -6.971080e+000
    endloop
  endfacet
  facet normal  0.000000e+000 -1.000000e+000  0.000000e+000
    outer loop
      vertex -3.845484e+000 -3.750000e+000 -6.971080e+000
      vertex -5.031966e+000 -3.750000e+000 -6.688349e+000
      vertex -5.127622e+000 -3.750000e+000 -6.895987e+000
    endloop
  endfacet
  facet normal  0.000000e+000 -1.000000e+000  0.000000e+000
    outer loop
      vertex -3.845484e+000 -3.750000e+000 -6.971080e+000
      vertex -5.127622e+000 -3.750000e+000 -6.895987e+000
      vertex -3.936427e+000 -3.750000e+000 -7.236272e+000
    endloop
  endfacet
  facet normal  0.000000e+000 -9.999999e-001  0.000000e+000
    outer loop
      vertex -3.936427e+000 -3.750000e+000 -7.236272e+000
      vertex -5.127622e+000 -3.750000e+000 -6.895987e+000
      vertex -5.250659e+000 -3.750000e+000 -7.088666e+000
    endloop
  endfacet
  facet normal  0.000000e+000 -1.000000e+000  -0.000000e+000
    outer loop
      vertex -3.936427e+000 -3.750000e+000 -7.236272e+000
      vertex -5.250659e+000 -3.750000e+000 -7.088666e+000
      vertex -5.398788e+000 -3.750000e+000 -7.262796e+000
    endloop
  endfacet
  facet normal  0.000000e+000 -1.000000e+000  0.000000e+000
    outer loop
      vertex -3.936427e+000 -3.750000e+000 -7.236272e+000
      vertex -5.398788e+000 -3.750000e+000 -7.262796e+000
      vertex -4.056491e+000 -3.750000e+000 -7.489614e+000
    endloop
  endfacet
  facet normal  0.000000e+000 -1.000000e+000  0.000000e+000
    outer loop
      vertex -4.056491e+000 -3.750000e+000 -7.489614e+000
      vertex -5.398788e+000 -3.750000e+000 -7.262796e+000
      vertex -5.569248e+000 -3.750000e+000 -7.415134e+000
    endloop
  endfacet
  facet normal  0.000000e+000 -1.000000e+000  -0.000000e+000
    outer loop
      vertex -4.056491e+000 -3.750000e+000 -7.489614e+000
      vertex -5.569248e+000 -3.750000e+000 -7.415134e+000
      vertex -5.758863e+000 -3.750000e+000 -7.542843e+000
    endloop
  endfacet
  facet normal  0.000000e+000 -1.000000e+000  0.000000e+000
    outer loop
      vertex -4.056491e+000 -3.750000e+000 -7.489614e+000
      vertex -5.758863e+000 -3.750000e+000 -7.542843e+000
      vertex -4.204165e+000 -3.750000e+000 -7.727920e+000
    endloop
  endfacet
  facet normal  0.000000e+000 -1.000000e+000  0.000000e+000
    outer loop
      vertex -4.204165e+000 -3.750000e+000 -7.727920e+000
      vertex -5.758863e+000 -3.750000e+000 -7.542843e+000
      vertex -5.964102e+000 -3.750000e+000 -7.643543e+000
    endloop
  endfacet
  facet normal  0.000000e+000 -1.000000e+000  -0.000000e+000
    outer loop
      vertex -4.204165e+000 -3.750000e+000 -7.727920e+000
      vertex -5.964102e+000 -3.750000e+000 -7.643543e+000
      vertex -6.181142e+000 -3.750000e+000 -7.715358e+000
    endloop
  endfacet
  facet normal  0.000000e+000  0.000000e+000  1.000000e+000
    outer loop
      vertex -1.019653e+001 -3.750000e+000 -1.200000e+000
      vertex -4.611684e+000 -3.750000e+000 -1.200000e+000
      vertex -1.019653e+001  3.750000e+000 -1.200000e+000
    endloop
  endfacet
  facet normal  -0.000000e+000  0.000000e+000  1.000000e+000
    outer loop
      vertex -1.019653e+001  3.750000e+000 -1.200000e+000
      vertex -4.611684e+000 -3.750000e+000 -1.200000e+000
      vertex -4.611684e+000  3.750000e+000 -1.200000e+000
    endloop
  endfacet
  facet normal -9.848078e-001  -0.000000e+000 -1.736482e-001
    outer loop
      vertex -1.019653e+001 -3.750000e+000 -1.200000e+000
      vertex -1.019653e+001  3.750000e+000 -1.200000e+000
      vertex -9.206468e+000 -3.750000e+000 -6.814923e+000
    endloop
  endfacet
  facet normal -9.848078e-001  0.000000e+000 -1.736482e-001
    outer loop
      vertex -9.206468e+000 -3.750000e+000 -6.814923e+000
      vertex -1.019653e+001  3.750000e+000 -1.200000e+000
      vertex -9.206468e+000  3.750000e+000 -6.814923e+000
    endloop
  endfacet
  facet normal  9.082547e-001  0.000000e+000 -4.184176e-001
    outer loop
      vertex -8.067523e+000  3.750000e+000 -5.289911e+000
      vertex -8.067523e+000 -3.750000e+000 -5.289911e+000
      vertex -8.163178e+000  3.750000e+000 -5.497550e+000
    endloop
  endfacet
  facet normal  9.082547e-001  0.000000e+000 -4.184176e-001
    outer loop
      vertex -8.163178e+000  3.750000e+000 -5.497550e+000
      vertex -8.067523e+000 -3.750000e+000 -5.289911e+000
      vertex -8.163178e+000 -3.750000e+000 -5.497550e+000
    endloop
  endfacet
  facet normal  9.567683e-001  0.000000e+000 -2.908514e-001
    outer loop
      vertex -8.163178e+000  3.750000e+000 -5.497550e+000
      vertex -8.163178e+000 -3.750000e+000 -5.497550e+000
      vertex -8.229671e+000  3.750000e+000 -5.716278e+000
    endloop
  endfacet
  facet normal  9.567683e-001  0.000000e+000 -2.908514e-001
    outer loop
      vertex -8.229671e+000  3.750000e+000 -5.716278e+000
      vertex -8.163178e+000 -3.750000e+000 -5.497550e+000
      vertex -8.229671e+000 -3.750000e+000 -5.716278e+000
    endloop
  endfacet
  facet normal  9.874619e-001  0.000000e+000 -1.578569e-001
    outer loop
      vertex -8.229671e+000  3.750000e+000 -5.716278e+000
      vertex -8.229671e+000 -3.750000e+000 -5.716278e+000
      vertex -8.265759e+000  3.750000e+000 -5.942024e+000
    endloop
  endfacet
  facet normal  9.874619e-001  0.000000e+000 -1.578569e-001
    outer loop
      vertex -8.265759e+000  3.750000e+000 -5.942024e+000
      vertex -8.229671e+000 -3.750000e+000 -5.716278e+000
      vertex -8.265759e+000 -3.750000e+000 -5.942024e+000
    endloop
  endfacet
  facet normal  9.997596e-001  0.000000e+000 -2.193001e-002
    outer loop
      vertex -8.265759e+000  3.750000e+000 -5.942024e+000
      vertex -8.265759e+000 -3.750000e+000 -5.942024e+000
      vertex -8.270772e+000  3.750000e+000 -6.170581e+000
    endloop
  endfacet
  facet normal  9.997596e-001  0.000000e+000 -2.193001e-002
    outer loop
      vertex -8.270772e+000  3.750000e+000 -6.170581e+000
      vertex -8.265759e+000 -3.750000e+000 -5.942024e+000
      vertex -8.270772e+000 -3.750000e+000 -6.170581e+000
    endloop
  endfacet
  facet normal  9.934341e-001  -0.000000e+000  1.144055e-001
    outer loop
      vertex -8.270772e+000  3.750000e+000 -6.170581e+000
      vertex -8.270772e+000 -3.750000e+000 -6.170581e+000
      vertex -8.244617e+000  3.750000e+000 -6.397692e+000
    endloop
  endfacet
  facet normal  9.934341e-001  0.000000e+000  1.144055e-001
    outer loop
      vertex -8.244617e+000  3.750000e+000 -6.397692e+000
      vertex -8.270772e+000 -3.750000e+000 -6.170581e+000
      vertex -8.244617e+000 -3.750000e+000 -6.397692e+000
    endloop
  endfacet
  facet normal  9.686016e-001  -0.000000e+000  2.486179e-001
    outer loop
      vertex -8.244617e+000  3.750000e+000 -6.397692e+000
      vertex -8.244617e+000 -3.750000e+000 -6.397692e+000
      vertex -8.187780e+000  3.750000e+000 -6.619126e+000
    endloop
  endfacet
  facet normal  9.686016e-001  0.000000e+000  2.486179e-001
    outer loop
      vertex -8.187780e+000  3.750000e+000 -6.619126e+000
      vertex -8.244617e+000 -3.750000e+000 -6.397692e+000
      vertex -8.187780e+000 -3.750000e+000 -6.619126e+000
    endloop
  endfacet
  facet normal  9.257273e-001  -0.000000e+000  3.781919e-001
    outer loop
      vertex -8.187780e+000  3.750000e+000 -6.619126e+000
      vertex -8.187780e+000 -3.750000e+000 -6.619126e+000
      vertex -8.101321e+000  3.750000e+000 -6.830759e+000
    endloop
  endfacet
  facet normal  9.257273e-001  0.000000e+000  3.781919e-001
    outer loop
      vertex -8.101321e+000  3.750000e+000 -6.830759e+000
      vertex -8.187780e+000 -3.750000e+000 -6.619126e+000
      vertex -8.101321e+000 -3.750000e+000 -6.830759e+000
    endloop
  endfacet
  facet normal  8.656098e-001  -0.000000e+000  5.007193e-001
    outer loop
      vertex -8.101321e+000  3.750000e+000 -6.830759e+000
      vertex -8.101321e+000 -3.750000e+000 -6.830759e+000
      vertex -7.986851e+000  3.750000e+000 -7.028647e+000
    endloop
  endfacet
  facet normal  8.656098e-001  0.000000e+000  5.007193e-001
    outer loop
      vertex -7.986851e+000  3.750000e+000 -7.028647e+000
      vertex -8.101321e+000 -3.750000e+000 -6.830759e+000
      vertex -7.986851e+000 -3.750000e+000 -7.028647e+000
    endloop
  endfacet
  facet normal  7.893638e-001  -0.000000e+000  6.139258e-001
    outer loop
      vertex -7.986851e+000  3.750000e+000 -7.028647e+000
      vertex -7.986851e+000 -3.750000e+000 -7.028647e+000
      vertex -7.846500e+000  3.750000e+000 -7.209105e+000
    endloop
  endfacet
  facet normal  7.893638e-001  0.000000e+000  6.139258e-001
    outer loop
      vertex -7.846500e+000  3.750000e+000 -7.209105e+000
      vertex -7.986851e+000 -3.750000e+000 -7.028647e+000
      vertex -7.846500e+000 -3.750000e+000 -7.209105e+000
    endloop
  endfacet
  facet normal  6.984168e-001  -0.000000e+000  7.156913e-001
    outer loop
      vertex -7.846500e+000  3.750000e+000 -7.209105e+000
      vertex -7.846500e+000 -3.750000e+000 -7.209105e+000
      vertex -7.682884e+000  3.750000e+000 -7.368772e+000
    endloop
  endfacet
  facet normal  6.984168e-001  0.000000e+000  7.156913e-001
    outer loop
      vertex -7.682884e+000  3.750000e+000 -7.368772e+000
      vertex -7.846500e+000 -3.750000e+000 -7.209105e+000
      vertex -7.682884e+000 -3.750000e+000 -7.368772e+000
    endloop
  endfacet
  facet normal  5.944571e-001  -0.000000e+000  8.041272e-001
    outer loop
      vertex -7.682884e+000  3.750000e+000 -7.368772e+000
      vertex -7.682884e+000 -3.750000e+000 -7.368772e+000
      vertex -7.499051e+000  3.750000e+000 -7.504672e+000
    endloop
  endfacet
  facet normal  5.944571e-001  0.000000e+000  8.041272e-001
    outer loop
      vertex -7.499051e+000  3.750000e+000 -7.504672e+000
      vertex -7.682884e+000 -3.750000e+000 -7.368772e+000
      vertex -7.499051e+000 -3.750000e+000 -7.504672e+000
    endloop
  endfacet
  facet normal  4.794256e-001  -0.000000e+000  8.775826e-001
    outer loop
      vertex -7.499051e+000  3.750000e+000 -7.504672e+000
      vertex -7.499051e+000 -3.750000e+000 -7.504672e+000
      vertex -7.298425e+000  3.750000e+000 -7.614275e+000
    endloop
  endfacet
  facet normal  4.794256e-001  0.000000e+000  8.775826e-001
    outer loop
      vertex -7.298425e+000  3.750000e+000 -7.614275e+000
      vertex -7.499051e+000 -3.750000e+000 -7.504672e+000
      vertex -7.298425e+000 -3.750000e+000 -7.614275e+000
    endloop
  endfacet
  facet normal  3.554625e-001  -0.000000e+000  9.346906e-001
    outer loop
      vertex -7.298425e+000  3.750000e+000 -7.614275e+000
      vertex -7.298425e+000 -3.750000e+000 -7.614275e+000
      vertex -7.084743e+000  3.750000e+000 -7.695538e+000
    endloop
  endfacet
  facet normal  3.554625e-001  0.000000e+000  9.346906e-001
    outer loop
      vertex -7.084743e+000  3.750000e+000 -7.695538e+000
      vertex -7.298425e+000 -3.750000e+000 -7.614275e+000
      vertex -7.084743e+000 -3.750000e+000 -7.695538e+000
    endloop
  endfacet
  facet normal  2.248774e-001  -0.000000e+000  9.743872e-001
    outer loop
      vertex -7.084743e+000  3.750000e+000 -7.695538e+000
      vertex -7.084743e+000 -3.750000e+000 -7.695538e+000
      vertex -6.861987e+000  3.750000e+000 -7.746947e+000
    endloop
  endfacet
  facet normal  2.248774e-001  0.000000e+000  9.743872e-001
    outer loop
      vertex -6.861987e+000  3.750000e+000 -7.746947e+000
      vertex -7.084743e+000 -3.750000e+000 -7.695538e+000
      vertex -6.861987e+000 -3.750000e+000 -7.746947e+000
    endloop
  endfacet
  facet normal  9.010620e-002  -0.000000e+000  9.959321e-001
    outer loop
      vertex -6.861987e+000  3.750000e+000 -7.746947e+000
      vertex -6.861987e+000 -3.750000e+000 -7.746947e+000
      vertex -6.634305e+000  3.750000e+000 -7.767547e+000
    endloop
  endfacet
  facet normal  9.010620e-002  0.000000e+000  9.959321e-001
    outer loop
      vertex -6.634305e+000  3.750000e+000 -7.767547e+000
      vertex -6.861987e+000 -3.750000e+000 -7.746947e+000
      vertex -6.634305e+000 -3.750000e+000 -7.767547e+000
    endloop
  endfacet
  facet normal -4.634838e-002  0.000000e+000  9.989253e-001
    outer loop
      vertex -6.634305e+000  3.750000e+000 -7.767547e+000
      vertex -6.634305e+000 -3.750000e+000 -7.767547e+000
      vertex -6.405938e+000  3.750000e+000 -7.756951e+000
    endloop
  endfacet
  facet normal -4.634838e-002  0.000000e+000  9.989253e-001
    outer loop
      vertex -6.405938e+000  3.750000e+000 -7.756951e+000
      vertex -6.634305e+000 -3.750000e+000 -7.767547e+000
      vertex -6.405938e+000 -3.750000e+000 -7.756951e+000
    endloop
  endfacet
  facet normal -1.819355e-001  0.000000e+000  9.833104e-001
    outer loop
      vertex -6.405938e+000  3.750000e+000 -7.756951e+000
      vertex -6.405938e+000 -3.750000e+000 -7.756951e+000
      vertex -6.181142e+000  3.750000e+000 -7.715358e+000
    endloop
  endfacet
  facet normal -1.819355e-001  0.000000e+000  9.833104e-001
    outer loop
      vertex -6.181142e+000  3.750000e+000 -7.715358e+000
      vertex -6.405938e+000 -3.750000e+000 -7.756951e+000
      vertex -6.181142e+000 -3.750000e+000 -7.715358e+000
    endloop
  endfacet
  facet normal -3.141364e-001  0.000000e+000  9.493779e-001
    outer loop
      vertex -6.181142e+000  3.750000e+000 -7.715358e+000
      vertex -6.181142e+000 -3.750000e+000 -7.715358e+000
      vertex -5.964102e+000  3.750000e+000 -7.643543e+000
    endloop
  endfacet
  facet normal -3.141364e-001  0.000000e+000  9.493779e-001
    outer loop
      vertex -5.964102e+000  3.750000e+000 -7.643543e+000
      vertex -6.181142e+000 -3.750000e+000 -7.715358e+000
      vertex -5.964102e+000 -3.750000e+000 -7.643543e+000
    endloop
  endfacet
  facet normal -4.404822e-001  0.000000e+000  8.977613e-001
    outer loop
      vertex -5.964102e+000  3.750000e+000 -7.643543e+000
      vertex -5.964102e+000 -3.750000e+000 -7.643543e+000
      vertex -5.758863e+000  3.750000e+000 -7.542843e+000
    endloop
  endfacet
  facet normal -4.404822e-001  0.000000e+000  8.977613e-001
    outer loop
      vertex -5.758863e+000  3.750000e+000 -7.542843e+000
      vertex -5.964102e+000 -3.750000e+000 -7.643543e+000
      vertex -5.758863e+000 -3.750000e+000 -7.542843e+000
    endloop
  endfacet
  facet normal -5.586261e-001  0.000000e+000  8.294197e-001
    outer loop
      vertex -5.758863e+000  3.750000e+000 -7.542843e+000
      vertex -5.758863e+000 -3.750000e+000 -7.542843e+000
      vertex -5.569248e+000  3.750000e+000 -7.415134e+000
    endloop
  endfacet
  facet normal -5.586261e-001  0.000000e+000  8.294197e-001
    outer loop
      vertex -5.569248e+000  3.750000e+000 -7.415134e+000
      vertex -5.758863e+000 -3.750000e+000 -7.542843e+000
      vertex -5.569248e+000 -3.750000e+000 -7.415134e+000
    endloop
  endfacet
  facet normal -6.663619e-001  0.000000e+000  7.456284e-001
    outer loop
      vertex -5.569248e+000  3.750000e+000 -7.415134e+000
      vertex -5.569248e+000 -3.750000e+000 -7.415134e+000
      vertex -5.398788e+000  3.750000e+000 -7.262796e+000
    endloop
  endfacet
  facet normal -6.663619e-001  0.000000e+000  7.456284e-001
    outer loop
      vertex -5.398788e+000  3.750000e+000 -7.262796e+000
      vertex -5.569248e+000 -3.750000e+000 -7.415134e+000
      vertex -5.398788e+000 -3.750000e+000 -7.262796e+000
    endloop
  endfacet
  facet normal -7.616842e-001  0.000000e+000  6.479483e-001
    outer loop
      vertex -5.398788e+000  3.750000e+000 -7.262796e+000
      vertex -5.398788e+000 -3.750000e+000 -7.262796e+000
      vertex -5.250659e+000  3.750000e+000 -7.088666e+000
    endloop
  endfacet
  facet normal -7.616842e-001  0.000000e+000  6.479483e-001
    outer loop
      vertex -5.250659e+000  3.750000e+000 -7.088666e+000
      vertex -5.398788e+000 -3.750000e+000 -7.262796e+000
      vertex -5.250659e+000 -3.750000e+000 -7.088666e+000
    endloop
  endfacet
  facet normal -8.428205e-001  0.000000e+000  5.381948e-001
    outer loop
      vertex -5.250659e+000  3.750000e+000 -7.088666e+000
      vertex -5.250659e+000 -3.750000e+000 -7.088666e+000
      vertex -5.127622e+000  3.750000e+000 -6.895987e+000
    endloop
  endfacet
  facet normal -8.428205e-001  0.000000e+000  5.381948e-001
    outer loop
      vertex -5.127622e+000  3.750000e+000 -6.895987e+000
      vertex -5.250659e+000 -3.750000e+000 -7.088666e+000
      vertex -5.127622e+000 -3.750000e+000 -6.895987e+000
    endloop
  endfacet
  facet normal -9.082536e-001  0.000000e+000  4.184201e-001
    outer loop
      vertex -5.127622e+000  3.750000e+000 -6.895987e+000
      vertex -5.127622e+000 -3.750000e+000 -6.895987e+000
      vertex -5.031966e+000  3.750000e+000 -6.688349e+000
    endloop
  endfacet
  facet normal -9.082536e-001  0.000000e+000  4.184201e-001
    outer loop
      vertex -5.031966e+000  3.750000e+000 -6.688349e+000
      vertex -5.127622e+000 -3.750000e+000 -6.895987e+000
      vertex -5.031966e+000 -3.750000e+000 -6.688349e+000
    endloop
  endfacet
  facet normal -9.567690e-001  0.000000e+000  2.908489e-001
    outer loop
      vertex -5.031966e+000  3.750000e+000 -6.688349e+000
      vertex -5.031966e+000 -3.750000e+000 -6.688349e+000
      vertex -4.965474e+000  3.750000e+000 -6.469620e+000
    endloop
  endfacet
  facet normal -9.567690e-001  0.000000e+000  2.908489e-001
    outer loop
      vertex -4.965474e+000  3.750000e+000 -6.469620e+000
      vertex -5.031966e+000 -3.750000e+000 -6.688349e+000
      vertex -4.965474e+000 -3.750000e+000 -6.469620e+000
    endloop
  endfacet
  facet normal -9.874617e-001  0.000000e+000  1.578590e-001
    outer loop
      vertex -4.965474e+000  3.750000e+000 -6.469620e+000
      vertex -4.965474e+000 -3.750000e+000 -6.469620e+000
      vertex -4.929386e+000  3.750000e+000 -6.243875e+000
    endloop
  endfacet
  facet normal -9.874617e-001  0.000000e+000  1.578590e-001
    outer loop
      vertex -4.929386e+000  3.750000e+000 -6.243875e+000
      vertex -4.965474e+000 -3.750000e+000 -6.469620e+000
      vertex -4.929386e+000 -3.750000e+000 -6.243875e+000
    endloop
  endfacet
  facet normal -9.997596e-001  0.000000e+000  2.193001e-002
    outer loop
      vertex -4.929386e+000  3.750000e+000 -6.243875e+000
      vertex -4.929386e+000 -3.750000e+000 -6.243875e+000
      vertex -4.924372e+000  3.750000e+000 -6.015317e+000
    endloop
  endfacet
  facet normal -9.997596e-001  0.000000e+000  2.193001e-002
    outer loop
      vertex -4.924372e+000  3.750000e+000 -6.015317e+000
      vertex -4.929386e+000 -3.750000e+000 -6.243875e+000
      vertex -4.924372e+000 -3.750000e+000 -6.015317e+000
    endloop
  endfacet
  facet normal -9.934338e-001  0.000000e+000 -1.144078e-001
    outer loop
      vertex -4.924372e+000  3.750000e+000 -6.015317e+000
      vertex -4.924372e+000 -3.750000e+000 -6.015317e+000
      vertex -4.950527e+000  3.750000e+000 -5.788207e+000
    endloop
  endfacet
  facet normal -9.934338e-001  -0.000000e+000 -1.144078e-001
    outer loop
      vertex -4.950527e+000  3.750000e+000 -5.788207e+000
      vertex -4.924372e+000 -3.750000e+000 -6.015317e+000
      vertex -4.950527e+000 -3.750000e+000 -5.788207e+000
    endloop
  endfacet
  facet normal -9.686022e-001  0.000000e+000 -2.486160e-001
    outer loop
      vertex -4.950527e+000  3.750000e+000 -5.788207e+000
      vertex -4.950527e+000 -3.750000e+000 -5.788207e+000
      vertex -5.007364e+000  3.750000e+000 -5.566772e+000
    endloop
  endfacet
  facet normal -9.686022e-001  -0.000000e+000 -2.486160e-001
    outer loop
      vertex -5.007364e+000  3.750000e+000 -5.566772e+000
      vertex -4.950527e+000 -3.750000e+000 -5.788207e+000
      vertex -5.007364e+000 -3.750000e+000 -5.566772e+000
    endloop
  endfacet
  facet normal -9.257275e-001  0.000000e+000 -3.781911e-001
    outer loop
      vertex -5.007364e+000  3.750000e+000 -5.566772e+000
      vertex -5.007364e+000 -3.750000e+000 -5.566772e+000
      vertex -5.093823e+000  3.750000e+000 -5.355140e+000
    endloop
  endfacet
  facet normal -9.257275e-001  -0.000000e+000 -3.781911e-001
    outer loop
      vertex -5.093823e+000  3.750000e+000 -5.355140e+000
      vertex -5.007364e+000 -3.750000e+000 -5.566772e+000
      vertex -5.093823e+000 -3.750000e+000 -5.355140e+000
    endloop
  endfacet
  facet normal -8.656083e-001  0.000000e+000 -5.007218e-001
    outer loop
      vertex -5.093823e+000  3.750000e+000 -5.355140e+000
      vertex -5.093823e+000 -3.750000e+000 -5.355140e+000
      vertex -5.208294e+000  3.750000e+000 -5.157251e+000
    endloop
  endfacet
  facet normal -8.656083e-001  -0.000000e+000 -5.007218e-001
    outer loop
      vertex -5.208294e+000  3.750000e+000 -5.157251e+000
      vertex -5.093823e+000 -3.750000e+000 -5.355140e+000
      vertex -5.208294e+000 -3.750000e+000 -5.157251e+000
    endloop
  endfacet
  facet normal -7.893638e-001  0.000000e+000 -6.139258e-001
    outer loop
      vertex -5.208294e+000  3.750000e+000 -5.157251e+000
      vertex -5.208294e+000 -3.750000e+000 -5.157251e+000
      vertex -5.348645e+000  3.750000e+000 -4.976793e+000
    endloop
  endfacet
  facet normal -7.893638e-001  -0.000000e+000 -6.139258e-001
    outer loop
      vertex -5.348645e+000  3.750000e+000 -4.976793e+000
      vertex -5.208294e+000 -3.750000e+000 -5.157251e+000
      vertex -5.348645e+000 -3.750000e+000 -4.976793e+000
    endloop
  endfacet
  facet normal -6.984168e-001  0.000000e+000 -7.156913e-001
    outer loop
      vertex -5.348645e+000  3.750000e+000 -4.976793e+000
      vertex -5.348645e+000 -3.750000e+000 -4.976793e+000
      vertex -5.512260e+000  3.750000e+000 -4.817127e+000
    endloop
  endfacet
  facet normal -6.984168e-001  -0.000000e+000 -7.156913e-001
    outer loop
      vertex -5.512260e+000  3.750000e+000 -4.817127e+000
      vertex -5.348645e+000 -3.750000e+000 -4.976793e+000
      vertex -5.512260e+000 -3.750000e+000 -4.817127e+000
    endloop
  endfacet
  facet normal -5.944571e-001  0.000000e+000 -8.041272e-001
    outer loop
      vertex -5.512260e+000  3.750000e+000 -4.817127e+000
      vertex -5.512260e+000 -3.750000e+000 -4.817127e+000
      vertex -5.696094e+000  3.750000e+000 -4.681227e+000
    endloop
  endfacet
  facet normal -5.944571e-001  -0.000000e+000 -8.041272e-001
    outer loop
      vertex -5.696094e+000  3.750000e+000 -4.681227e+000
      vertex -5.512260e+000 -3.750000e+000 -4.817127e+000
      vertex -5.696094e+000 -3.750000e+000 -4.681227e+000
    endloop
  endfacet
  facet normal -4.794272e-001  0.000000e+000 -8.775817e-001
    outer loop
      vertex -5.696094e+000  3.750000e+000 -4.681227e+000
      vertex -5.696094e+000 -3.750000e+000 -4.681227e+000
      vertex -5.896719e+000  3.750000e+000 -4.571624e+000
    endloop
  endfacet
  facet normal -4.794272e-001  -0.000000e+000 -8.775817e-001
    outer loop
      vertex -5.896719e+000  3.750000e+000 -4.571624e+000
      vertex -5.696094e+000 -3.750000e+000 -4.681227e+000
      vertex -5.896719e+000 -3.750000e+000 -4.571624e+000
    endloop
  endfacet
  facet normal -3.554625e-001  0.000000e+000 -9.346906e-001
    outer loop
      vertex -5.896719e+000  3.750000e+000 -4.571624e+000
      vertex -5.896719e+000 -3.750000e+000 -4.571624e+000
      vertex -6.110401e+000  3.750000e+000 -4.490361e+000
    endloop
  endfacet
  facet normal -3.554625e-001  -0.000000e+000 -9.346906e-001
    outer loop
      vertex -6.110401e+000  3.750000e+000 -4.490361e+000
      vertex -5.896719e+000 -3.750000e+000 -4.571624e+000
      vertex -6.110401e+000 -3.750000e+000 -4.490361e+000
    endloop
  endfacet
  facet normal -2.248778e-001  0.000000e+000 -9.743870e-001
    outer loop
      vertex -6.110401e+000  3.750000e+000 -4.490361e+000
      vertex -6.110401e+000 -3.750000e+000 -4.490361e+000
      vertex -6.333158e+000  3.750000e+000 -4.438951e+000
    endloop
  endfacet
  facet normal -2.248778e-001  -0.000000e+000 -9.743870e-001
    outer loop
      vertex -6.333158e+000  3.750000e+000 -4.438951e+000
      vertex -6.110401e+000 -3.750000e+000 -4.490361e+000
      vertex -6.333158e+000 -3.750000e+000 -4.438951e+000
    endloop
  endfacet
  facet normal -9.010413e-002  0.000000e+000 -9.959323e-001
    outer loop
      vertex -6.333158e+000  3.750000e+000 -4.438951e+000
      vertex -6.333158e+000 -3.750000e+000 -4.438951e+000
      vertex -6.560840e+000  3.750000e+000 -4.418352e+000
    endloop
  endfacet
  facet normal -9.010413e-002  -0.000000e+000 -9.959323e-001
    outer loop
      vertex -6.560840e+000  3.750000e+000 -4.418352e+000
      vertex -6.333158e+000 -3.750000e+000 -4.438951e+000
      vertex -6.560840e+000 -3.750000e+000 -4.418352e+000
    endloop
  endfacet
  facet normal  4.634620e-002  0.000000e+000 -9.989254e-001
    outer loop
      vertex -6.560840e+000  3.750000e+000 -4.418352e+000
      vertex -6.560840e+000 -3.750000e+000 -4.418352e+000
      vertex -6.789207e+000  3.750000e+000 -4.428947e+000
    endloop
  endfacet
  facet normal  4.634620e-002  0.000000e+000 -9.989254e-001
    outer loop
      vertex -6.789207e+000  3.750000e+000 -4.428947e+000
      vertex -6.560840e+000 -3.750000e+000 -4.418352e+000
      vertex -6.789207e+000 -3.750000e+000 -4.428947e+000
    endloop
  endfacet
  facet normal  1.819376e-001  0.000000e+000 -9.833101e-001
    outer loop
      vertex -6.789207e+000  3.750000e+000 -4.428947e+000
      vertex -6.789207e+000 -3.750000e+000 -4.428947e+000
      vertex -7.014003e+000  3.750000e+000 -4.470541e+000
    endloop
  endfacet
  facet normal  1.819376e-001  0.000000e+000 -9.833101e-001
    outer loop
      vertex -7.014003e+000  3.750000e+000 -4.470541e+000
      vertex -6.789207e+000 -3.750000e+000 -4.428947e+000
      vertex -7.014003e+000 -3.750000e+000 -4.470541e+000
    endloop
  endfacet
  facet normal  3.141346e-001  0.000000e+000 -9.493786e-001
    outer loop
      vertex -7.014003e+000  3.750000e+000 -4.470541e+000
      vertex -7.014003e+000 -3.750000e+000 -4.470541e+000
      vertex -7.231042e+000  3.750000e+000 -4.542356e+000
    endloop
  endfacet
  facet normal  3.141346e-001  0.000000e+000 -9.493786e-001
    outer loop
      vertex -7.231042e+000  3.750000e+000 -4.542356e+000
      vertex -7.014003e+000 -3.750000e+000 -4.470541e+000
      vertex -7.231042e+000 -3.750000e+000 -4.542356e+000
    endloop
  endfacet
  facet normal  4.404839e-001  0.000000e+000 -8.977605e-001
    outer loop
      vertex -7.231042e+000  3.750000e+000 -4.542356e+000
      vertex -7.231042e+000 -3.750000e+000 -4.542356e+000
      vertex -7.436281e+000  3.750000e+000 -4.643055e+000
    endloop
  endfacet
  facet normal  4.404839e-001  0.000000e+000 -8.977605e-001
    outer loop
      vertex -7.436281e+000  3.750000e+000 -4.643055e+000
      vertex -7.231042e+000 -3.750000e+000 -4.542356e+000
      vertex -7.436281e+000 -3.750000e+000 -4.643055e+000
    endloop
  endfacet
  facet normal  5.586256e-001  0.000000e+000 -8.294200e-001
    outer loop
      vertex -7.436281e+000  3.750000e+000 -4.643055e+000
      vertex -7.436281e+000 -3.750000e+000 -4.643055e+000
      vertex -7.625896e+000  3.750000e+000 -4.770764e+000
    endloop
  endfacet
  facet normal  5.586256e-001  0.000000e+000 -8.294200e-001
    outer loop
      vertex -7.625896e+000  3.750000e+000 -4.770764e+000
      vertex -7.436281e+000 -3.750000e+000 -4.643055e+000
      vertex -7.625896e+000 -3.750000e+000 -4.770764e+000
    endloop
  endfacet
  facet normal  6.663620e-001  0.000000e+000 -7.456283e-001
    outer loop
      vertex -7.625896e+000  3.750000e+000 -4.770764e+000
      vertex -7.625896e+000 -3.750000e+000 -4.770764e+000
      vertex -7.796356e+000  3.750000e+000 -4.923102e+000
    endloop
  endfacet
  facet normal  6.663620e-001  0.000000e+000 -7.456283e-001
    outer loop
      vertex -7.796356e+000  3.750000e+000 -4.923102e+000
      vertex -7.625896e+000 -3.750000e+000 -4.770764e+000
      vertex -7.796356e+000 -3.750000e+000 -4.923102e+000
    endloop
  endfacet
  facet normal  7.616854e-001  0.000000e+000 -6.479471e-001
    outer loop
      vertex -7.796356e+000  3.750000e+000 -4.923102e+000
      vertex -7.796356e+000 -3.750000e+000 -4.923102e+000
      vertex -7.944485e+000  3.750000e+000 -5.097233e+000
    endloop
  endfacet
  facet normal  7.616854e-001  0.000000e+000 -6.479471e-001
    outer loop
      vertex -7.944485e+000  3.750000e+000 -5.097233e+000
      vertex -7.796356e+000 -3.750000e+000 -4.923102e+000
      vertex -7.944485e+000 -3.750000e+000 -5.097233e+000
    endloop
  endfacet
  facet normal  8.428189e-001  0.000000e+000 -5.381972e-001
    outer loop
      vertex -7.944485e+000  3.750000e+000 -5.097233e+000
      vertex -7.944485e+000 -3.750000e+000 -5.097233e+000
      vertex -8.067523e+000  3.750000e+000 -5.289911e+000
    endloop
  endfacet
  facet normal  8.428189e-001  0.000000e+000 -5.381972e-001
    outer loop
      vertex -8.067523e+000  3.750000e+000 -5.289911e+000
      vertex -7.944485e+000 -3.750000e+000 -5.097233e+000
      vertex -8.067523e+000 -3.750000e+000 -5.289911e+000
    endloop
  endfacet
  facet normal  1.736469e-001  0.000000e+000 -9.848080e-001
    outer loop
      vertex -5.817924e+000 -3.750000e+000 -8.755999e+000
      vertex -6.310328e+000 -3.750000e+000 -8.842822e+000
      vertex -5.817924e+000  3.750000e+000 -8.755999e+000
    endloop
  endfacet
  facet normal  1.736469e-001  0.000000e+000 -9.848080e-001
    outer loop
      vertex -5.817924e+000  3.750000e+000 -8.755999e+000
      vertex -6.310328e+000 -3.750000e+000 -8.842822e+000
      vertex -6.310328e+000  3.750000e+000 -8.842822e+000
    endloop
  endfacet
  facet normal  2.285945e-001  0.000000e+000 -9.735217e-001
    outer loop
      vertex -5.817924e+000 -3.750000e+000 -8.755999e+000
      vertex -5.817924e+000  3.750000e+000 -8.755999e+000
      vertex -5.544995e+000 -3.750000e+000 -8.691912e+000
    endloop
  endfacet
  facet normal  2.285945e-001  0.000000e+000 -9.735217e-001
    outer loop
      vertex -5.544995e+000 -3.750000e+000 -8.691912e+000
      vertex -5.817924e+000  3.750000e+000 -8.755999e+000
      vertex -5.544995e+000  3.750000e+000 -8.691912e+000
    endloop
  endfacet
  facet normal  3.361559e-001  0.000000e+000 -9.418063e-001
    outer loop
      vertex -5.544995e+000 -3.750000e+000 -8.691912e+000
      vertex -5.544995e+000  3.750000e+000 -8.691912e+000
      vertex -5.280958e+000 -3.750000e+000 -8.597670e+000
    endloop
  endfacet
  facet normal  3.361559e-001  0.000000e+000 -9.418063e-001
    outer loop
      vertex -5.280958e+000 -3.750000e+000 -8.597670e+000
      vertex -5.544995e+000  3.750000e+000 -8.691912e+000
      vertex -5.280958e+000  3.750000e+000 -8.597670e+000
    endloop
  endfacet
  facet normal  4.394929e-001  0.000000e+000 -8.982461e-001
    outer loop
      vertex -5.280958e+000 -3.750000e+000 -8.597670e+000
      vertex -5.280958e+000  3.750000e+000 -8.597670e+000
      vertex -5.029132e+000 -3.750000e+000 -8.474457e+000
    endloop
  endfacet
  facet normal  4.394929e-001  0.000000e+000 -8.982461e-001
    outer loop
      vertex -5.029132e+000 -3.750000e+000 -8.474457e+000
      vertex -5.280958e+000  3.750000e+000 -8.597670e+000
      vertex -5.029132e+000  3.750000e+000 -8.474457e+000
    endloop
  endfacet
  facet normal  5.372986e-001  0.000000e+000 -8.433921e-001
    outer loop
      vertex -5.029132e+000 -3.750000e+000 -8.474457e+000
      vertex -5.029132e+000  3.750000e+000 -8.474457e+000
      vertex -4.792686e+000 -3.750000e+000 -8.323824e+000
    endloop
  endfacet
  facet normal  5.372986e-001  0.000000e+000 -8.433921e-001
    outer loop
      vertex -4.792686e+000 -3.750000e+000 -8.323824e+000
      vertex -5.029132e+000  3.750000e+000 -8.474457e+000
      vertex -4.792686e+000  3.750000e+000 -8.323824e+000
    endloop
  endfacet
  facet normal  6.283517e-001  0.000000e+000 -7.779295e-001
    outer loop
      vertex -4.792686e+000 -3.750000e+000 -8.323824e+000
      vertex -4.792686e+000  3.750000e+000 -8.323824e+000
      vertex -4.574591e+000 -3.750000e+000 -8.147664e+000
    endloop
  endfacet
  facet normal  6.283517e-001  0.000000e+000 -7.779295e-001
    outer loop
      vertex -4.574591e+000 -3.750000e+000 -8.147664e+000
      vertex -4.792686e+000  3.750000e+000 -8.323824e+000
      vertex -4.574591e+000  3.750000e+000 -8.147664e+000
    endloop
  endfacet
  facet normal  7.115000e-001  0.000000e+000 -7.026862e-001
    outer loop
      vertex -4.574591e+000 -3.750000e+000 -8.147664e+000
      vertex -4.574591e+000  3.750000e+000 -8.147664e+000
      vertex -4.377592e+000 -3.750000e+000 -7.948194e+000
    endloop
  endfacet
  facet normal  7.115000e-001  0.000000e+000 -7.026862e-001
    outer loop
      vertex -4.377592e+000 -3.750000e+000 -7.948194e+000
      vertex -4.574591e+000  3.750000e+000 -8.147664e+000
      vertex -4.377592e+000  3.750000e+000 -7.948194e+000
    endloop
  endfacet
  facet normal  7.857027e-001  0.000000e+000 -6.186044e-001
    outer loop
      vertex -4.377592e+000 -3.750000e+000 -7.948194e+000
      vertex -4.377592e+000  3.750000e+000 -7.948194e+000
      vertex -4.204165e+000 -3.750000e+000 -7.727920e+000
    endloop
  endfacet
  facet normal  7.857027e-001  0.000000e+000 -6.186044e-001
    outer loop
      vertex -4.204165e+000 -3.750000e+000 -7.727920e+000
      vertex -4.377592e+000  3.750000e+000 -7.948194e+000
      vertex -4.204165e+000  3.750000e+000 -7.727920e+000
    endloop
  endfacet
  facet normal  8.500242e-001  0.000000e+000 -5.267435e-001
    outer loop
      vertex -4.204165e+000 -3.750000e+000 -7.727920e+000
      vertex -4.204165e+000  3.750000e+000 -7.727920e+000
      vertex -4.056491e+000 -3.750000e+000 -7.489614e+000
    endloop
  endfacet
  facet normal  8.500242e-001  0.000000e+000 -5.267435e-001
    outer loop
      vertex -4.056491e+000 -3.750000e+000 -7.489614e+000
      vertex -4.204165e+000  3.750000e+000 -7.727920e+000
      vertex -4.056491e+000  3.750000e+000 -7.489614e+000
    endloop
  endfacet
  facet normal  9.036559e-001  0.000000e+000 -4.282593e-001
    outer loop
      vertex -4.056491e+000 -3.750000e+000 -7.489614e+000
      vertex -4.056491e+000  3.750000e+000 -7.489614e+000
      vertex -3.936427e+000 -3.750000e+000 -7.236272e+000
    endloop
  endfacet
  facet normal  9.036559e-001  0.000000e+000 -4.282593e-001
    outer loop
      vertex -3.936427e+000 -3.750000e+000 -7.236272e+000
      vertex -4.056491e+000  3.750000e+000 -7.489614e+000
      vertex -3.936427e+000  3.750000e+000 -7.236272e+000
    endloop
  endfacet
  facet normal  9.459237e-001  0.000000e+000 -3.243893e-001
    outer loop
      vertex -3.936427e+000 -3.750000e+000 -7.236272e+000
      vertex -3.936427e+000  3.750000e+000 -7.236272e+000
      vertex -3.845484e+000 -3.750000e+000 -6.971080e+000
    endloop
  endfacet
  facet normal  9.459237e-001  0.000000e+000 -3.243893e-001
    outer loop
      vertex -3.845484e+000 -3.750000e+000 -6.971080e+000
      vertex -3.936427e+000  3.750000e+000 -7.236272e+000
      vertex -3.845484e+000  3.750000e+000 -6.971080e+000
    endloop
  endfacet
  facet normal  9.762959e-001  0.000000e+000 -2.164402e-001
    outer loop
      vertex -3.845484e+000 -3.750000e+000 -6.971080e+000
      vertex -3.845484e+000  3.750000e+000 -6.971080e+000
      vertex -3.784805e+000 -3.750000e+000 -6.697373e+000
    endloop
  endfacet
  facet normal  9.762959e-001  0.000000e+000 -2.164402e-001
    outer loop
      vertex -3.784805e+000 -3.750000e+000 -6.697373e+000
      vertex -3.845484e+000  3.750000e+000 -6.971080e+000
      vertex -3.784805e+000  3.750000e+000 -6.697373e+000
    endloop
  endfacet
  facet normal  9.943908e-001  0.000000e+000 -1.057681e-001
    outer loop
      vertex -3.784805e+000 -3.750000e+000 -6.697373e+000
      vertex -3.784805e+000  3.750000e+000 -6.697373e+000
      vertex -3.755152e+000 -3.750000e+000 -6.418593e+000
    endloop
  endfacet
  facet normal  9.943908e-001  0.000000e+000 -1.057681e-001
    outer loop
      vertex -3.755152e+000 -3.750000e+000 -6.418593e+000
      vertex -3.784805e+000  3.750000e+000 -6.697373e+000
      vertex -3.755152e+000  3.750000e+000 -6.418593e+000
    endloop
  endfacet
  facet normal  9.999805e-001  0.000000e+000  6.233624e-003
    outer loop
      vertex -3.755152e+000 -3.750000e+000 -6.418593e+000
      vertex -3.755152e+000  3.750000e+000 -6.418593e+000
      vertex -3.756900e+000 -3.750000e+000 -6.138247e+000
    endloop
  endfacet
  facet normal  9.999805e-001  -0.000000e+000  6.233624e-003
    outer loop
      vertex -3.756900e+000 -3.750000e+000 -6.138247e+000
      vertex -3.755152e+000  3.750000e+000 -6.418593e+000
      vertex -3.756900e+000  3.750000e+000 -6.138247e+000
    endloop
  endfacet
  facet normal  9.929950e-001  0.000000e+000  1.181563e-001
    outer loop
      vertex -3.756900e+000 -3.750000e+000 -6.138247e+000
      vertex -3.756900e+000  3.750000e+000 -6.138247e+000
      vertex -3.790025e+000 -3.750000e+000 -5.859859e+000
    endloop
  endfacet
  facet normal  9.929950e-001  -0.000000e+000  1.181563e-001
    outer loop
      vertex -3.790025e+000 -3.750000e+000 -5.859859e+000
      vertex -3.756900e+000  3.750000e+000 -6.138247e+000
      vertex -3.790025e+000  3.750000e+000 -5.859859e+000
    endloop
  endfacet
  facet normal -9.735217e-001  -0.000000e+000 -2.285941e-001
    outer loop
      vertex -9.206468e+000 -3.750000e+000 -6.814923e+000
      vertex -9.206468e+000  3.750000e+000 -6.814923e+000
      vertex -9.142381e+000 -3.750000e+000 -7.087852e+000
    endloop
  endfacet
  facet normal -9.735217e-001  0.000000e+000 -2.285941e-001
    outer loop
      vertex -9.142381e+000 -3.750000e+000 -7.087852e+000
      vertex -9.206468e+000  3.750000e+000 -6.814923e+000
      vertex -9.142381e+000  3.750000e+000 -7.087852e+000
    endloop
  endfacet
  facet normal -9.418063e-001  -0.000000e+000 -3.361559e-001
    outer loop
      vertex -9.142381e+000 -3.750000e+000 -7.087852e+000
      vertex -9.142381e+000  3.750000e+000 -7.087852e+000
      vertex -9.048139e+000 -3.750000e+000 -7.351890e+000
    endloop
  endfacet
  facet normal -9.418063e-001  0.000000e+000 -3.361559e-001
    outer loop
      vertex -9.048139e+000 -3.750000e+000 -7.351890e+000
      vertex -9.142381e+000  3.750000e+000 -7.087852e+000
      vertex -9.048139e+000  3.750000e+000 -7.351890e+000
    endloop
  endfacet
  facet normal -8.982474e-001  -0.000000e+000 -4.394901e-001
    outer loop
      vertex -9.048139e+000 -3.750000e+000 -7.351890e+000
      vertex -9.048139e+000  3.750000e+000 -7.351890e+000
      vertex -8.924927e+000 -3.750000e+000 -7.603715e+000
    endloop
  endfacet
  facet normal -8.982474e-001  0.000000e+000 -4.394901e-001
    outer loop
      vertex -8.924927e+000 -3.750000e+000 -7.603715e+000
      vertex -9.048139e+000  3.750000e+000 -7.351890e+000
      vertex -8.924927e+000  3.750000e+000 -7.603715e+000
    endloop
  endfacet
  facet normal -8.433921e-001  -0.000000e+000 -5.372986e-001
    outer loop
      vertex -8.924927e+000 -3.750000e+000 -7.603715e+000
      vertex -8.924927e+000  3.750000e+000 -7.603715e+000
      vertex -8.774294e+000 -3.750000e+000 -7.840162e+000
    endloop
  endfacet
  facet normal -8.433921e-001  0.000000e+000 -5.372986e-001
    outer loop
      vertex -8.774294e+000 -3.750000e+000 -7.840162e+000
      vertex -8.924927e+000  3.750000e+000 -7.603715e+000
      vertex -8.774294e+000  3.750000e+000 -7.840162e+000
    endloop
  endfacet
  facet normal -7.779288e-001  -0.000000e+000 -6.283525e-001
    outer loop
      vertex -8.774294e+000 -3.750000e+000 -7.840162e+000
      vertex -8.774294e+000  3.750000e+000 -7.840162e+000
      vertex -8.598134e+000 -3.750000e+000 -8.058256e+000
    endloop
  endfacet
  facet normal -7.779288e-001  0.000000e+000 -6.283525e-001
    outer loop
      vertex -8.598134e+000 -3.750000e+000 -8.058256e+000
      vertex -8.774294e+000  3.750000e+000 -7.840162e+000
      vertex -8.598134e+000  3.750000e+000 -8.058256e+000
    endloop
  endfacet
  facet normal -7.026862e-001  -0.000000e+000 -7.115000e-001
    outer loop
      vertex -8.598134e+000 -3.750000e+000 -8.058256e+000
      vertex -8.598134e+000  3.750000e+000 -8.058256e+000
      vertex -8.398664e+000 -3.750000e+000 -8.255256e+000
    endloop
  endfacet
  facet normal -7.026862e-001  0.000000e+000 -7.115000e-001
    outer loop
      vertex -8.398664e+000 -3.750000e+000 -8.255256e+000
      vertex -8.598134e+000  3.750000e+000 -8.058256e+000
      vertex -8.398664e+000  3.750000e+000 -8.255256e+000
    endloop
  endfacet
  facet normal -6.186045e-001  -0.000000e+000 -7.857025e-001
    outer loop
      vertex -8.398664e+000 -3.750000e+000 -8.255256e+000
      vertex -8.398664e+000  3.750000e+000 -8.255256e+000
      vertex -8.178390e+000 -3.750000e+000 -8.428683e+000
    endloop
  endfacet
  facet normal -6.186045e-001  0.000000e+000 -7.857025e-001
    outer loop
      vertex -8.178390e+000 -3.750000e+000 -8.428683e+000
      vertex -8.398664e+000  3.750000e+000 -8.255256e+000
      vertex -8.178390e+000  3.750000e+000 -8.428683e+000
    endloop
  endfacet
  facet normal -5.267435e-001  -0.000000e+000 -8.500242e-001
    outer loop
      vertex -8.178390e+000 -3.750000e+000 -8.428683e+000
      vertex -8.178390e+000  3.750000e+000 -8.428683e+000
      vertex -7.940084e+000 -3.750000e+000 -8.576357e+000
    endloop
  endfacet
  facet normal -5.267435e-001  0.000000e+000 -8.500242e-001
    outer loop
      vertex -7.940084e+000 -3.750000e+000 -8.576357e+000
      vertex -8.178390e+000  3.750000e+000 -8.428683e+000
      vertex -7.940084e+000  3.750000e+000 -8.576357e+000
    endloop
  endfacet
  facet normal -4.282600e-001  -0.000000e+000 -9.036555e-001
    outer loop
      vertex -7.940084e+000 -3.750000e+000 -8.576357e+000
      vertex -7.940084e+000  3.750000e+000 -8.576357e+000
      vertex -7.686741e+000 -3.750000e+000 -8.696421e+000
    endloop
  endfacet
  facet normal -4.282600e-001  0.000000e+000 -9.036555e-001
    outer loop
      vertex -7.686741e+000 -3.750000e+000 -8.696421e+000
      vertex -7.940084e+000  3.750000e+000 -8.576357e+000
      vertex -7.686741e+000  3.750000e+000 -8.696421e+000
    endloop
  endfacet
  facet normal -3.243898e-001  -0.000000e+000 -9.459234e-001
    outer loop
      vertex -7.686741e+000 -3.750000e+000 -8.696421e+000
      vertex -7.686741e+000  3.750000e+000 -8.696421e+000
      vertex -7.421550e+000 -3.750000e+000 -8.787364e+000
    endloop
  endfacet
  facet normal -3.243898e-001  0.000000e+000 -9.459234e-001
    outer loop
      vertex -7.421550e+000 -3.750000e+000 -8.787364e+000
      vertex -7.686741e+000  3.750000e+000 -8.696421e+000
      vertex -7.421550e+000  3.750000e+000 -8.787364e+000
    endloop
  endfacet
  facet normal -2.164366e-001  -0.000000e+000 -9.762967e-001
    outer loop
      vertex -7.421550e+000 -3.750000e+000 -8.787364e+000
      vertex -7.421550e+000  3.750000e+000 -8.787364e+000
      vertex -7.147843e+000 -3.750000e+000 -8.848042e+000
    endloop
  endfacet
  facet normal -2.164366e-001  0.000000e+000 -9.762967e-001
    outer loop
      vertex -7.147843e+000 -3.750000e+000 -8.848042e+000
      vertex -7.421550e+000  3.750000e+000 -8.787364e+000
      vertex -7.147843e+000  3.750000e+000 -8.848042e+000
    endloop
  endfacet
  facet normal -1.057691e-001  -0.000000e+000 -9.943907e-001
    outer loop
      vertex -7.147843e+000 -3.750000e+000 -8.848042e+000
      vertex -7.147843e+000  3.750000e+000 -8.848042e+000
      vertex -6.869063e+000 -3.750000e+000 -8.877695e+000
    endloop
  endfacet
  facet normal -1.057691e-001  0.000000e+000 -9.943907e-001
    outer loop
      vertex -6.869063e+000 -3.750000e+000 -8.877695e+000
      vertex -7.147843e+000  3.750000e+000 -8.848042e+000
      vertex -6.869063e+000  3.750000e+000 -8.877695e+000
    endloop
  endfacet
  facet normal  6.231914e-003  0.000000e+000 -9.999806e-001
    outer loop
      vertex -6.869063e+000 -3.750000e+000 -8.877695e+000
      vertex -6.869063e+000  3.750000e+000 -8.877695e+000
      vertex -6.588717e+000 -3.750000e+000 -8.875948e+000
    endloop
  endfacet
  facet normal  6.231914e-003  0.000000e+000 -9.999806e-001
    outer loop
      vertex -6.588717e+000 -3.750000e+000 -8.875948e+000
      vertex -6.869063e+000  3.750000e+000 -8.877695e+000
      vertex -6.588717e+000  3.750000e+000 -8.875948e+000
    endloop
  endfacet
  facet normal  1.181580e-001  0.000000e+000 -9.929947e-001
    outer loop
      vertex -6.588717e+000 -3.750000e+000 -8.875948e+000
      vertex -6.588717e+000  3.750000e+000 -8.875948e+000
      vertex -6.310328e+000 -3.750000e+000 -8.842822e+000
    endloop
  endfacet
  facet normal  1.181580e-001  0.000000e+000 -9.929947e-001
    outer loop
      vertex -6.310328e+000 -3.750000e+000 -8.842822e+000
      vertex -6.588717e+000  3.750000e+000 -8.875948e+000
      vertex -6.310328e+000  3.750000e+000 -8.842822e+000
    endloop
  endfacet
endsolid CATIA STL
