solid Default
  facet normal 0.000000e+00 0.000000e+00 1.000000e+00
    outer loop
      vertex 1.800000e+01 -1.750000e+01 7.000000e+00
      vertex -1.800000e+01 1.750000e+01 7.000000e+00
      vertex -1.800000e+01 -1.750000e+01 7.000000e+00
    endloop
  endfacet
  facet normal 0.000000e+00 0.000000e+00 1.000000e+00
    outer loop
      vertex -1.800000e+01 1.750000e+01 7.000000e+00
      vertex 1.800000e+01 -1.750000e+01 7.000000e+00
      vertex 1.800000e+01 1.750000e+01 7.000000e+00
    endloop
  endfacet
  facet normal 0.000000e+00 0.000000e+00 -1.000000e+00
    outer loop
      vertex 1.800000e+01 1.750000e+01 0.000000e+00
      vertex -1.800000e+01 -1.750000e+01 0.000000e+00
      vertex -1.800000e+01 1.750000e+01 0.000000e+00
    endloop
  endfacet
  facet normal 0.000000e+00 0.000000e+00 -1.000000e+00
    outer loop
      vertex -1.800000e+01 -1.750000e+01 0.000000e+00
      vertex 1.800000e+01 1.750000e+01 0.000000e+00
      vertex 1.800000e+01 -1.750000e+01 0.000000e+00
    endloop
  endfacet
  facet normal 0.000000e+00 1.000000e+00 0.000000e+00
    outer loop
      vertex 1.800000e+01 1.750000e+01 0.000000e+00
      vertex -1.800000e+01 1.750000e+01 7.000000e+00
      vertex 1.800000e+01 1.750000e+01 7.000000e+00
    endloop
  endfacet
  facet normal 0.000000e+00 1.000000e+00 0.000000e+00
    outer loop
      vertex -1.800000e+01 1.750000e+01 7.000000e+00
      vertex 1.800000e+01 1.750000e+01 0.000000e+00
      vertex -1.800000e+01 1.750000e+01 0.000000e+00
    endloop
  endfacet
  facet normal 1.000000e+00 0.000000e+00 0.000000e+00
    outer loop
      vertex 1.800000e+01 -1.750000e+01 7.000000e+00
      vertex 1.800000e+01 1.750000e+01 0.000000e+00
      vertex 1.800000e+01 1.750000e+01 7.000000e+00
    endloop
  endfacet
  facet normal 1.000000e+00 0.000000e+00 0.000000e+00
    outer loop
      vertex 1.800000e+01 1.750000e+01 0.000000e+00
      vertex 1.800000e+01 -1.750000e+01 7.000000e+00
      vertex 1.800000e+01 -1.750000e+01 0.000000e+00
    endloop
  endfacet
  facet normal -1.000000e+00 0.000000e+00 0.000000e+00
    outer loop
      vertex -1.800000e+01 -1.750000e+01 0.000000e+00
      vertex -1.800000e+01 1.750000e+01 7.000000e+00
      vertex -1.800000e+01 1.750000e+01 0.000000e+00
    endloop
  endfacet
  facet normal -1.000000e+00 0.000000e+00 0.000000e+00
    outer loop
      vertex -1.800000e+01 1.750000e+01 7.000000e+00
      vertex -1.800000e+01 -1.750000e+01 0.000000e+00
      vertex -1.800000e+01 -1.750000e+01 7.000000e+00
    endloop
  endfacet
  facet normal 0.000000e+00 -1.000000e+00 0.000000e+00
    outer loop
      vertex -1.800000e+01 -1.750000e+01 0.000000e+00
      vertex 1.800000e+01 -1.750000e+01 7.000000e+00
      vertex -1.800000e+01 -1.750000e+01 7.000000e+00
    endloop
  endfacet
  facet normal 0.000000e+00 -1.000000e+00 0.000000e+00
    outer loop
      vertex 1.800000e+01 -1.750000e+01 7.000000e+00
      vertex -1.800000e+01 -1.750000e+01 0.000000e+00
      vertex 1.800000e+01 -1.750000e+01 0.000000e+00
    endloop
  endfacet
endsolid Default
