solid house7roof
facet normal 0.0 6.17704934246964e-013 1.0
outer loop
vertex 7.61390950287932e-014 20.5000000000371 59.9999999999815
vertex -24.9999999999999 -9.49999999996294 60.0
vertex 25.0000000000001 -9.49999999996294 60.0
endloop
endfacet
facet normal 0.0 -6.17704934246964e-013 -1.0
outer loop
vertex 7.61390950287932e-014 20.5 -1.85215398573746e-011
vertex 25.0000000000001 -9.5 1.12798659301916e-014
vertex -24.9999999999999 -9.5 1.12798659301916e-014
endloop
endfacet
facet normal 0.0 -1.0 6.17714790122571e-013
outer loop
vertex 25.0000000000001 -9.5 1.12798659301916e-014
vertex -24.9999999999999 -9.49999999996294 60.0
vertex -24.9999999999999 -9.5 1.12798659301916e-014
endloop
endfacet
facet normal 0.0 -1.0 6.17714790122571e-013
outer loop
vertex -24.9999999999999 -9.49999999996294 60.0
vertex 25.0000000000001 -9.5 1.12798659301916e-014
vertex 25.0000000000001 -9.49999999996294 60.0
endloop
endfacet
facet normal -0.768221279597376 0.64018439966448 -3.9544506250068e-013
outer loop
vertex 7.61390950287932e-014 20.5000000000371 59.9999999999815
vertex -24.9999999999999 -9.5 1.12798659301916e-014
vertex -24.9999999999999 -9.49999999996294 60.0
endloop
endfacet
facet normal -0.768221279597376 0.64018439966448 -3.9544506250068e-013
outer loop
vertex -24.9999999999999 -9.5 1.12798659301916e-014
vertex 7.61390950287932e-014 20.5000000000371 59.9999999999815
vertex 7.61390950287932e-014 20.5 -1.85215398573746e-011
endloop
endfacet
facet normal 0.768221279597376 0.64018439966448 -3.9544506250068e-013
outer loop
vertex 25.0000000000001 -9.5 1.12798659301916e-014
vertex 7.61390950287932e-014 20.5000000000371 59.9999999999815
vertex 25.0000000000001 -9.49999999996294 60.0
endloop
endfacet
facet normal 0.768221279597376 0.64018439966448 -3.9544506250068e-013
outer loop
vertex 7.61390950287932e-014 20.5000000000371 59.9999999999815
vertex 25.0000000000001 -9.5 1.12798659301916e-014
vertex 7.61390950287932e-014 20.5 -1.85215398573746e-011
endloop
endfacet
endsolid house7roof
