solid OpenSCAD_Model
  facet normal -1 -0 -0
    outer loop
      vertex -26 -15 0
      vertex -26 -15 3.5
      vertex -26 15 0
    endloop
  endfacet
  facet normal -1 0 0
    outer loop
      vertex -26 15 0
      vertex -26 -15 3.5
      vertex -26 15 3.5
    endloop
  endfacet
  facet normal 0 -1 0
    outer loop
      vertex -26 -15 3.5
      vertex -26 -15 0
      vertex 26 -15 0
    endloop
  endfacet
  facet normal 0 -1 0
    outer loop
      vertex 26 -15 3.5
      vertex -26 -15 3.5
      vertex 26 -15 0
    endloop
  endfacet
  facet normal -0 -0 -1
    outer loop
      vertex -26 -15 0
      vertex -26 15 0
      vertex 26 -15 0
    endloop
  endfacet
  facet normal 0 0 -1
    outer loop
      vertex 26 -15 0
      vertex -26 15 0
      vertex 26 15 0
    endloop
  endfacet
  facet normal 0 1 0
    outer loop
      vertex -26 15 0
      vertex -26 15 3.5
      vertex 26 15 0
    endloop
  endfacet
  facet normal 0 1 0
    outer loop
      vertex 26 15 0
      vertex -26 15 3.5
      vertex 26 15 3.5
    endloop
  endfacet
  facet normal 0 -0 1
    outer loop
      vertex -15 -7.5 3.5
      vertex -26 -15 3.5
      vertex 26 -15 3.5
    endloop
  endfacet
  facet normal 0 -0 1
    outer loop
      vertex -26 15 3.5
      vertex -26 -15 3.5
      vertex -15 -7.5 3.5
    endloop
  endfacet
  facet normal 0 0 1
    outer loop
      vertex -15 7.5 3.5
      vertex 15 7.5 3.5
      vertex -26 15 3.5
    endloop
  endfacet
  facet normal 0 0 1
    outer loop
      vertex -26 15 3.5
      vertex -15 -7.5 3.5
      vertex -15 7.5 3.5
    endloop
  endfacet
  facet normal 0 0 1
    outer loop
      vertex 26 15 3.5
      vertex 15 7.5 3.5
      vertex 26 -15 3.5
    endloop
  endfacet
  facet normal 0 0 1
    outer loop
      vertex 26 15 3.5
      vertex -26 15 3.5
      vertex 15 7.5 3.5
    endloop
  endfacet
  facet normal 0 -0 1
    outer loop
      vertex 15 7.5 3.5
      vertex 15 -7.5 3.5
      vertex 26 -15 3.5
    endloop
  endfacet
  facet normal 0 -0 1
    outer loop
      vertex 15 -7.5 3.5
      vertex -15 -7.5 3.5
      vertex 26 -15 3.5
    endloop
  endfacet
  facet normal 1 0 -0
    outer loop
      vertex 26 -15 3.5
      vertex 26 -15 0
      vertex 26 15 0
    endloop
  endfacet
  facet normal 1 0 0
    outer loop
      vertex 26 15 3.5
      vertex 26 -15 3.5
      vertex 26 15 0
    endloop
  endfacet
  facet normal -1 -0 -0
    outer loop
      vertex -15 -7.5 3.5
      vertex -15 -7.5 53.6704
      vertex -15 7.5 3.5
    endloop
  endfacet
  facet normal -1 0 0
    outer loop
      vertex -15 7.5 3.5
      vertex -15 -7.5 53.6704
      vertex -15 7.5 53.6704
    endloop
  endfacet
  facet normal 0 -1 0
    outer loop
      vertex -15 -7.5 53.6704
      vertex -15 -7.5 3.5
      vertex 15 -7.5 3.5
    endloop
  endfacet
  facet normal 0 -1 0
    outer loop
      vertex 15 -7.5 53.6704
      vertex -15 -7.5 53.6704
      vertex 15 -7.5 3.5
    endloop
  endfacet
  facet normal 1 0 -0
    outer loop
      vertex 15 -7.5 53.6704
      vertex 15 -7.5 3.5
      vertex 15 7.5 3.5
    endloop
  endfacet
  facet normal 1 0 0
    outer loop
      vertex 15 7.5 53.6704
      vertex 15 -7.5 53.6704
      vertex 15 7.5 3.5
    endloop
  endfacet
  facet normal 0 1 0
    outer loop
      vertex -15 7.5 3.5
      vertex -15 7.5 53.6704
      vertex 15 7.5 3.5
    endloop
  endfacet
  facet normal 0 1 0
    outer loop
      vertex 15 7.5 3.5
      vertex -15 7.5 53.6704
      vertex 15 7.5 53.6704
    endloop
  endfacet
  facet normal -0.644958 -0 -0.764218
    outer loop
      vertex -22.5 -13 60
      vertex -22.5 13 60
      vertex -15 -7.5 53.6704
    endloop
  endfacet
  facet normal -0.644958 -0 -0.764218
    outer loop
      vertex -15 -7.5 53.6704
      vertex -22.5 13 60
      vertex -15 7.5 53.6704
    endloop
  endfacet
  facet normal 0 0.754841 -0.655907
    outer loop
      vertex -22.5 13 60
      vertex 22.5 13 60
      vertex -15 7.5 53.6704
    endloop
  endfacet
  facet normal 0 0.754841 -0.655907
    outer loop
      vertex -15 7.5 53.6704
      vertex 22.5 13 60
      vertex 15 7.5 53.6704
    endloop
  endfacet
  facet normal 0 -0.754841 -0.655907
    outer loop
      vertex 22.5 -13 60
      vertex -22.5 -13 60
      vertex -15 -7.5 53.6704
    endloop
  endfacet
  facet normal 0 -0.754841 -0.655907
    outer loop
      vertex 15 -7.5 53.6704
      vertex 22.5 -13 60
      vertex -15 -7.5 53.6704
    endloop
  endfacet
  facet normal 0.644958 0 -0.764218
    outer loop
      vertex 15 -7.5 53.6704
      vertex 15 7.5 53.6704
      vertex 22.5 -13 60
    endloop
  endfacet
  facet normal 0.644958 0 -0.764218
    outer loop
      vertex 22.5 -13 60
      vertex 15 7.5 53.6704
      vertex 22.5 13 60
    endloop
  endfacet
  facet normal -1 -0 -0
    outer loop
      vertex -22.5 -13 60
      vertex -22.5 -13 71
      vertex -22.5 13 60
    endloop
  endfacet
  facet normal -1 0 0
    outer loop
      vertex -22.5 13 60
      vertex -22.5 -13 71
      vertex -22.5 13 71
    endloop
  endfacet
  facet normal 0 1 -0
    outer loop
      vertex 20.5 13 62
      vertex 22.5 13 60
      vertex -20.5 13 62
    endloop
  endfacet
  facet normal 0 1 0
    outer loop
      vertex -22.5 13 60
      vertex -22.5 13 71
      vertex -20.5 13 62
    endloop
  endfacet
  facet normal 0 1 0
    outer loop
      vertex -22.5 13 60
      vertex -20.5 13 62
      vertex 22.5 13 60
    endloop
  endfacet
  facet normal 0 1 0
    outer loop
      vertex 22.5 13 60
      vertex 20.5 13 62
      vertex 20.5 13 71
    endloop
  endfacet
  facet normal 0 1 0
    outer loop
      vertex 22.5 13 60
      vertex 20.5 13 71
      vertex 22.5 13 71
    endloop
  endfacet
  facet normal 0 1 0
    outer loop
      vertex -20.5 13 62
      vertex -22.5 13 71
      vertex -20.5 13 71
    endloop
  endfacet
  facet normal 0 -1 0
    outer loop
      vertex -20.5 -13 62
      vertex -22.5 -13 60
      vertex 22.5 -13 60
    endloop
  endfacet
  facet normal 0 -1 0
    outer loop
      vertex -20.5 -13 62
      vertex -20.5 -13 71
      vertex -22.5 -13 71
    endloop
  endfacet
  facet normal 0 -1 0
    outer loop
      vertex 22.5 -13 71
      vertex 20.5 -13 71
      vertex 22.5 -13 60
    endloop
  endfacet
  facet normal 0 -1 0
    outer loop
      vertex 20.5 -13 71
      vertex 20.5 -13 62
      vertex 22.5 -13 60
    endloop
  endfacet
  facet normal 0 -1 0
    outer loop
      vertex -22.5 -13 71
      vertex -22.5 -13 60
      vertex -20.5 -13 62
    endloop
  endfacet
  facet normal 0 -1 0
    outer loop
      vertex 20.5 -13 62
      vertex -20.5 -13 62
      vertex 22.5 -13 60
    endloop
  endfacet
  facet normal 1 0 -0
    outer loop
      vertex 22.5 -13 71
      vertex 22.5 -13 60
      vertex 22.5 13 60
    endloop
  endfacet
  facet normal 1 0 0
    outer loop
      vertex 22.5 13 71
      vertex 22.5 -13 71
      vertex 22.5 13 60
    endloop
  endfacet
  facet normal 0 0 1
    outer loop
      vertex -20.5 -13 71
      vertex -20.5 13 71
      vertex -22.5 13 71
    endloop
  endfacet
  facet normal 0 0 1
    outer loop
      vertex -22.5 -13 71
      vertex -20.5 -13 71
      vertex -22.5 13 71
    endloop
  endfacet
  facet normal 0 -0 1
    outer loop
      vertex 20.5 13 71
      vertex 20.5 -13 71
      vertex 22.5 -13 71
    endloop
  endfacet
  facet normal 0 0 1
    outer loop
      vertex 22.5 13 71
      vertex 20.5 13 71
      vertex 22.5 -13 71
    endloop
  endfacet
  facet normal -1 -0 -0
    outer loop
      vertex 20.5 -13 62
      vertex 20.5 -13 71
      vertex 20.5 13 62
    endloop
  endfacet
  facet normal -1 0 0
    outer loop
      vertex 20.5 13 62
      vertex 20.5 -13 71
      vertex 20.5 13 71
    endloop
  endfacet
  facet normal 0 -0 1
    outer loop
      vertex -20.5 13 62
      vertex -20.5 -13 62
      vertex 20.5 -13 62
    endloop
  endfacet
  facet normal 0 0 1
    outer loop
      vertex 20.5 13 62
      vertex -20.5 13 62
      vertex 20.5 -13 62
    endloop
  endfacet
  facet normal 1 0 0
    outer loop
      vertex -20.5 13 62
      vertex -20.5 13 71
      vertex -20.5 -13 71
    endloop
  endfacet
  facet normal 1 0 0
    outer loop
      vertex -20.5 -13 62
      vertex -20.5 13 62
      vertex -20.5 -13 71
    endloop
  endfacet
endsolid OpenSCAD_Model
